G75*
%MOIN*%
%OFA0B0*%
%FSLAX24Y24*%
%IPPOS*%
%LPD*%
%AMOC8*
5,1,8,0,0,1.08239X$1,22.5*
%
%ADD10C,0.0039*%
%ADD11C,0.0600*%
%ADD12C,0.2380*%
%ADD13R,0.0512X0.0472*%
%ADD14C,0.0020*%
%ADD15OC8,0.0680*%
%ADD16R,0.0356X0.0434*%
%ADD17R,0.0434X0.0356*%
%ADD18R,0.0789X0.0710*%
%ADD19R,0.0671X0.0316*%
%ADD20R,0.0316X0.0671*%
%ADD21OC8,0.0654*%
%ADD22C,0.1386*%
%ADD23C,0.0099*%
%ADD24C,0.0205*%
D10*
X000639Y008800D02*
X011639Y008800D01*
X011696Y008798D01*
X011753Y008793D01*
X011810Y008783D01*
X011865Y008770D01*
X011920Y008754D01*
X011974Y008733D01*
X012026Y008710D01*
X012077Y008683D01*
X012125Y008653D01*
X012172Y008619D01*
X012216Y008583D01*
X012258Y008544D01*
X012297Y008502D01*
X012333Y008458D01*
X012367Y008411D01*
X012397Y008363D01*
X012424Y008312D01*
X012447Y008260D01*
X012468Y008206D01*
X012484Y008151D01*
X012497Y008096D01*
X012507Y008039D01*
X012512Y007982D01*
X012514Y007925D01*
X012514Y001050D01*
X012516Y000993D01*
X012521Y000936D01*
X012531Y000879D01*
X012544Y000824D01*
X012560Y000769D01*
X012581Y000715D01*
X012604Y000663D01*
X012631Y000613D01*
X012661Y000564D01*
X012695Y000517D01*
X012731Y000473D01*
X012770Y000431D01*
X012812Y000392D01*
X012856Y000356D01*
X012903Y000322D01*
X012952Y000292D01*
X013002Y000265D01*
X013054Y000242D01*
X013108Y000221D01*
X013163Y000205D01*
X013218Y000192D01*
X013275Y000182D01*
X013332Y000177D01*
X013389Y000175D01*
X021014Y000175D01*
X022264Y001300D02*
X022264Y015925D01*
X000139Y015925D01*
X000139Y009300D01*
X000141Y009256D01*
X000147Y009213D01*
X000156Y009171D01*
X000169Y009129D01*
X000186Y009089D01*
X000206Y009050D01*
X000229Y009013D01*
X000256Y008979D01*
X000285Y008946D01*
X000318Y008917D01*
X000352Y008890D01*
X000389Y008867D01*
X000428Y008847D01*
X000468Y008830D01*
X000510Y008817D01*
X000552Y008808D01*
X000595Y008802D01*
X000639Y008800D01*
X021015Y000176D02*
X021081Y000174D01*
X021148Y000176D01*
X021214Y000182D01*
X021280Y000192D01*
X021346Y000205D01*
X021410Y000222D01*
X021474Y000242D01*
X021536Y000266D01*
X021597Y000294D01*
X021656Y000324D01*
X021713Y000358D01*
X021768Y000396D01*
X021822Y000436D01*
X021872Y000479D01*
X021921Y000525D01*
X021966Y000574D01*
X022009Y000625D01*
X022049Y000678D01*
X022086Y000734D01*
X022120Y000792D01*
X022150Y000851D01*
X022177Y000912D01*
X022201Y000974D01*
X022221Y001038D01*
X022237Y001103D01*
X022250Y001168D01*
X022259Y001234D01*
X022264Y001301D01*
D11*
X015814Y010315D02*
X015814Y010835D01*
X014964Y010835D02*
X014964Y010315D01*
X014114Y010315D02*
X014114Y010835D01*
X013264Y010835D02*
X013264Y010315D01*
X012414Y010315D02*
X012414Y010835D01*
X011564Y010835D02*
X011564Y010315D01*
X010714Y010315D02*
X010714Y010835D01*
X009864Y010835D02*
X009864Y010315D01*
X009014Y010315D02*
X009014Y010835D01*
X008164Y010835D02*
X008164Y010315D01*
X007314Y010315D02*
X007314Y010835D01*
X006464Y010835D02*
X006464Y010315D01*
X006464Y012015D02*
X006464Y012535D01*
X007314Y012535D02*
X007314Y012015D01*
X008164Y012015D02*
X008164Y012535D01*
X009014Y012535D02*
X009014Y012015D01*
X009864Y012015D02*
X009864Y012535D01*
X010714Y012535D02*
X010714Y012015D01*
X011564Y012015D02*
X011564Y012535D01*
X012414Y012535D02*
X012414Y012015D01*
X013264Y012015D02*
X013264Y012535D01*
X014114Y012535D02*
X014114Y012015D01*
X014964Y012015D02*
X014964Y012535D01*
X015814Y012535D02*
X015814Y012015D01*
D12*
X020349Y011425D03*
X001929Y011425D03*
D13*
X018659Y002800D03*
X018659Y002249D03*
X019328Y002249D03*
D14*
X019210Y002574D02*
X019574Y002574D01*
X019574Y003026D01*
X019082Y003026D01*
X019082Y002702D01*
X019210Y002574D01*
X019206Y002578D02*
X019574Y002578D01*
X019574Y002596D02*
X019187Y002596D01*
X019169Y002615D02*
X019574Y002615D01*
X019574Y002633D02*
X019150Y002633D01*
X019132Y002652D02*
X019574Y002652D01*
X019574Y002670D02*
X019113Y002670D01*
X019095Y002689D02*
X019574Y002689D01*
X019574Y002707D02*
X019082Y002707D01*
X019082Y002726D02*
X019574Y002726D01*
X019574Y002744D02*
X019082Y002744D01*
X019082Y002763D02*
X019574Y002763D01*
X019574Y002781D02*
X019082Y002781D01*
X019082Y002800D02*
X019574Y002800D01*
X019574Y002818D02*
X019082Y002818D01*
X019082Y002837D02*
X019574Y002837D01*
X019574Y002855D02*
X019082Y002855D01*
X019082Y002874D02*
X019574Y002874D01*
X019574Y002892D02*
X019082Y002892D01*
X019082Y002911D02*
X019574Y002911D01*
X019574Y002929D02*
X019082Y002929D01*
X019082Y002948D02*
X019574Y002948D01*
X019574Y002966D02*
X019082Y002966D01*
X019082Y002985D02*
X019574Y002985D01*
X019574Y003003D02*
X019082Y003003D01*
X019082Y003022D02*
X019574Y003022D01*
D15*
X020514Y003175D03*
X020514Y002175D03*
X020514Y001175D03*
X021514Y001175D03*
X021514Y002175D03*
X021514Y003175D03*
D16*
X019590Y001704D03*
X018990Y001704D03*
X016453Y004405D03*
X015853Y004405D03*
X014862Y004976D03*
X014967Y005517D03*
X014367Y005517D03*
X014262Y004976D03*
X019846Y009306D03*
X020446Y009306D03*
D17*
X021685Y006877D03*
X021685Y006277D03*
X021783Y004366D03*
X021783Y003766D03*
X018084Y002840D03*
X018084Y002240D03*
X007327Y011125D03*
X007327Y011725D03*
D18*
X016814Y003153D03*
X016814Y002051D03*
D19*
X016434Y004854D03*
X016434Y005169D03*
X016434Y005484D03*
X016434Y005799D03*
X016434Y006114D03*
X016434Y006429D03*
X016434Y006744D03*
X016434Y007059D03*
X016434Y007374D03*
X016434Y007689D03*
X016434Y008003D03*
X020962Y008003D03*
X020962Y007689D03*
X020962Y007374D03*
X020962Y007059D03*
X020962Y006744D03*
X020962Y006429D03*
X020962Y006114D03*
X020962Y005799D03*
X020962Y005484D03*
X020962Y005169D03*
X020962Y004854D03*
D20*
X020273Y004165D03*
X019958Y004165D03*
X019643Y004165D03*
X019328Y004165D03*
X019013Y004165D03*
X018698Y004165D03*
X018383Y004165D03*
X018068Y004165D03*
X017753Y004165D03*
X017438Y004165D03*
X017123Y004165D03*
X017123Y008692D03*
X017438Y008692D03*
X017753Y008692D03*
X018068Y008692D03*
X018383Y008692D03*
X018698Y008692D03*
X019013Y008692D03*
X019328Y008692D03*
X019643Y008692D03*
X019958Y008692D03*
X020273Y008692D03*
D21*
X015369Y004167D03*
X014581Y004167D03*
X014581Y003183D03*
X015369Y003183D03*
D22*
X013514Y001305D03*
X013514Y006045D03*
D23*
X017201Y006009D02*
X017459Y006009D01*
X017459Y005909D01*
X017201Y005909D01*
X017201Y006009D01*
X017201Y006007D02*
X017459Y006007D01*
X017459Y006206D02*
X017201Y006206D01*
X017459Y006206D02*
X017459Y006106D01*
X017201Y006106D01*
X017201Y006206D01*
X017201Y006204D02*
X017459Y006204D01*
X017459Y006403D02*
X017201Y006403D01*
X017459Y006403D02*
X017459Y006303D01*
X017201Y006303D01*
X017201Y006403D01*
X017201Y006401D02*
X017459Y006401D01*
X017459Y006600D02*
X017201Y006600D01*
X017459Y006600D02*
X017459Y006500D01*
X017201Y006500D01*
X017201Y006600D01*
X017201Y006598D02*
X017459Y006598D01*
X017459Y006797D02*
X017201Y006797D01*
X017459Y006797D02*
X017459Y006697D01*
X017201Y006697D01*
X017201Y006797D01*
X017201Y006795D02*
X017459Y006795D01*
X017459Y006994D02*
X017201Y006994D01*
X017459Y006994D02*
X017459Y006894D01*
X017201Y006894D01*
X017201Y006994D01*
X017201Y006992D02*
X017459Y006992D01*
X017459Y007191D02*
X017201Y007191D01*
X017459Y007191D02*
X017459Y007091D01*
X017201Y007091D01*
X017201Y007191D01*
X017201Y007189D02*
X017459Y007189D01*
X017459Y007387D02*
X017201Y007387D01*
X017459Y007387D02*
X017459Y007287D01*
X017201Y007287D01*
X017201Y007387D01*
X017201Y007385D02*
X017459Y007385D01*
X017459Y007584D02*
X017201Y007584D01*
X017459Y007584D02*
X017459Y007484D01*
X017201Y007484D01*
X017201Y007584D01*
X017201Y007582D02*
X017459Y007582D01*
X017605Y007988D02*
X017705Y007988D01*
X017705Y007730D01*
X017605Y007730D01*
X017605Y007988D01*
X017605Y007828D02*
X017705Y007828D01*
X017705Y007926D02*
X017605Y007926D01*
X017802Y007988D02*
X017902Y007988D01*
X017902Y007730D01*
X017802Y007730D01*
X017802Y007988D01*
X017802Y007828D02*
X017902Y007828D01*
X017902Y007926D02*
X017802Y007926D01*
X017999Y007988D02*
X018099Y007988D01*
X018099Y007730D01*
X017999Y007730D01*
X017999Y007988D01*
X017999Y007828D02*
X018099Y007828D01*
X018099Y007926D02*
X017999Y007926D01*
X018196Y007988D02*
X018296Y007988D01*
X018296Y007730D01*
X018196Y007730D01*
X018196Y007988D01*
X018196Y007828D02*
X018296Y007828D01*
X018296Y007926D02*
X018196Y007926D01*
X018393Y007988D02*
X018493Y007988D01*
X018493Y007730D01*
X018393Y007730D01*
X018393Y007988D01*
X018393Y007828D02*
X018493Y007828D01*
X018493Y007926D02*
X018393Y007926D01*
X018589Y007988D02*
X018689Y007988D01*
X018689Y007730D01*
X018589Y007730D01*
X018589Y007988D01*
X018589Y007828D02*
X018689Y007828D01*
X018689Y007926D02*
X018589Y007926D01*
X018786Y007988D02*
X018886Y007988D01*
X018886Y007730D01*
X018786Y007730D01*
X018786Y007988D01*
X018786Y007828D02*
X018886Y007828D01*
X018886Y007926D02*
X018786Y007926D01*
X018983Y007988D02*
X019083Y007988D01*
X019083Y007730D01*
X018983Y007730D01*
X018983Y007988D01*
X018983Y007828D02*
X019083Y007828D01*
X019083Y007926D02*
X018983Y007926D01*
X019180Y007988D02*
X019280Y007988D01*
X019280Y007730D01*
X019180Y007730D01*
X019180Y007988D01*
X019180Y007828D02*
X019280Y007828D01*
X019280Y007926D02*
X019180Y007926D01*
X019377Y007988D02*
X019477Y007988D01*
X019477Y007730D01*
X019377Y007730D01*
X019377Y007988D01*
X019377Y007828D02*
X019477Y007828D01*
X019477Y007926D02*
X019377Y007926D01*
X019574Y007988D02*
X019674Y007988D01*
X019674Y007730D01*
X019574Y007730D01*
X019574Y007988D01*
X019574Y007828D02*
X019674Y007828D01*
X019674Y007926D02*
X019574Y007926D01*
X019819Y007584D02*
X020077Y007584D01*
X020077Y007484D01*
X019819Y007484D01*
X019819Y007584D01*
X019819Y007582D02*
X020077Y007582D01*
X020077Y007387D02*
X019819Y007387D01*
X020077Y007387D02*
X020077Y007287D01*
X019819Y007287D01*
X019819Y007387D01*
X019819Y007385D02*
X020077Y007385D01*
X020077Y007191D02*
X019819Y007191D01*
X020077Y007191D02*
X020077Y007091D01*
X019819Y007091D01*
X019819Y007191D01*
X019819Y007189D02*
X020077Y007189D01*
X020077Y006994D02*
X019819Y006994D01*
X020077Y006994D02*
X020077Y006894D01*
X019819Y006894D01*
X019819Y006994D01*
X019819Y006992D02*
X020077Y006992D01*
X020077Y006797D02*
X019819Y006797D01*
X020077Y006797D02*
X020077Y006697D01*
X019819Y006697D01*
X019819Y006797D01*
X019819Y006795D02*
X020077Y006795D01*
X020077Y006600D02*
X019819Y006600D01*
X020077Y006600D02*
X020077Y006500D01*
X019819Y006500D01*
X019819Y006600D01*
X019819Y006598D02*
X020077Y006598D01*
X020077Y006403D02*
X019819Y006403D01*
X020077Y006403D02*
X020077Y006303D01*
X019819Y006303D01*
X019819Y006403D01*
X019819Y006401D02*
X020077Y006401D01*
X020077Y006206D02*
X019819Y006206D01*
X020077Y006206D02*
X020077Y006106D01*
X019819Y006106D01*
X019819Y006206D01*
X019819Y006204D02*
X020077Y006204D01*
X020077Y006009D02*
X019819Y006009D01*
X020077Y006009D02*
X020077Y005909D01*
X019819Y005909D01*
X019819Y006009D01*
X019819Y006007D02*
X020077Y006007D01*
X020077Y005813D02*
X019819Y005813D01*
X020077Y005813D02*
X020077Y005713D01*
X019819Y005713D01*
X019819Y005813D01*
X019819Y005811D02*
X020077Y005811D01*
X020077Y005616D02*
X019819Y005616D01*
X020077Y005616D02*
X020077Y005516D01*
X019819Y005516D01*
X019819Y005616D01*
X019819Y005614D02*
X020077Y005614D01*
X019674Y005370D02*
X019574Y005370D01*
X019674Y005370D02*
X019674Y005112D01*
X019574Y005112D01*
X019574Y005370D01*
X019574Y005210D02*
X019674Y005210D01*
X019674Y005308D02*
X019574Y005308D01*
X019477Y005370D02*
X019377Y005370D01*
X019477Y005370D02*
X019477Y005112D01*
X019377Y005112D01*
X019377Y005370D01*
X019377Y005210D02*
X019477Y005210D01*
X019477Y005308D02*
X019377Y005308D01*
X019280Y005370D02*
X019180Y005370D01*
X019280Y005370D02*
X019280Y005112D01*
X019180Y005112D01*
X019180Y005370D01*
X019180Y005210D02*
X019280Y005210D01*
X019280Y005308D02*
X019180Y005308D01*
X019083Y005370D02*
X018983Y005370D01*
X019083Y005370D02*
X019083Y005112D01*
X018983Y005112D01*
X018983Y005370D01*
X018983Y005210D02*
X019083Y005210D01*
X019083Y005308D02*
X018983Y005308D01*
X018886Y005370D02*
X018786Y005370D01*
X018886Y005370D02*
X018886Y005112D01*
X018786Y005112D01*
X018786Y005370D01*
X018786Y005210D02*
X018886Y005210D01*
X018886Y005308D02*
X018786Y005308D01*
X018689Y005370D02*
X018589Y005370D01*
X018689Y005370D02*
X018689Y005112D01*
X018589Y005112D01*
X018589Y005370D01*
X018589Y005210D02*
X018689Y005210D01*
X018689Y005308D02*
X018589Y005308D01*
X018493Y005370D02*
X018393Y005370D01*
X018493Y005370D02*
X018493Y005112D01*
X018393Y005112D01*
X018393Y005370D01*
X018393Y005210D02*
X018493Y005210D01*
X018493Y005308D02*
X018393Y005308D01*
X018296Y005370D02*
X018196Y005370D01*
X018296Y005370D02*
X018296Y005112D01*
X018196Y005112D01*
X018196Y005370D01*
X018196Y005210D02*
X018296Y005210D01*
X018296Y005308D02*
X018196Y005308D01*
X018099Y005370D02*
X017999Y005370D01*
X018099Y005370D02*
X018099Y005112D01*
X017999Y005112D01*
X017999Y005370D01*
X017999Y005210D02*
X018099Y005210D01*
X018099Y005308D02*
X017999Y005308D01*
X017902Y005370D02*
X017802Y005370D01*
X017902Y005370D02*
X017902Y005112D01*
X017802Y005112D01*
X017802Y005370D01*
X017802Y005210D02*
X017902Y005210D01*
X017902Y005308D02*
X017802Y005308D01*
X017705Y005370D02*
X017605Y005370D01*
X017705Y005370D02*
X017705Y005112D01*
X017605Y005112D01*
X017605Y005370D01*
X017605Y005210D02*
X017705Y005210D01*
X017705Y005308D02*
X017605Y005308D01*
X017459Y005616D02*
X017201Y005616D01*
X017459Y005616D02*
X017459Y005516D01*
X017201Y005516D01*
X017201Y005616D01*
X017201Y005614D02*
X017459Y005614D01*
X017459Y005813D02*
X017201Y005813D01*
X017459Y005813D02*
X017459Y005713D01*
X017201Y005713D01*
X017201Y005813D01*
X017201Y005811D02*
X017459Y005811D01*
D24*
X017717Y007472D02*
X019561Y007472D01*
X019561Y005628D01*
X017717Y005628D01*
X017717Y007472D01*
X017717Y005832D02*
X019561Y005832D01*
X019561Y006036D02*
X017717Y006036D01*
X017717Y006240D02*
X019561Y006240D01*
X019561Y006444D02*
X017717Y006444D01*
X017717Y006648D02*
X019561Y006648D01*
X019561Y006852D02*
X017717Y006852D01*
X017717Y007056D02*
X019561Y007056D01*
X019561Y007260D02*
X017717Y007260D01*
X017717Y007464D02*
X019561Y007464D01*
M02*
