%TF.GenerationSoftware,KiCad,Pcbnew,8.0.5*%
%TF.CreationDate,2024-11-08T10:10:06+13:00*%
%TF.ProjectId,usb_gpib_v3,7573625f-6770-4696-925f-76332e6b6963,C*%
%TF.SameCoordinates,Original*%
%TF.FileFunction,Legend,Bot*%
%TF.FilePolarity,Positive*%
%FSLAX46Y46*%
G04 Gerber Fmt 4.6, Leading zero omitted, Abs format (unit mm)*
G04 Created by KiCad (PCBNEW 8.0.5) date 2024-11-08 10:10:06*
%MOMM*%
%LPD*%
G01*
G04 APERTURE LIST*
%ADD10C,0.150000*%
G04 APERTURE END LIST*
D10*
X130377871Y-100056741D02*
X131877871Y-100056741D01*
X131877871Y-100056741D02*
X131877871Y-99699598D01*
X131877871Y-99699598D02*
X131806442Y-99485312D01*
X131806442Y-99485312D02*
X131663585Y-99342455D01*
X131663585Y-99342455D02*
X131520728Y-99271026D01*
X131520728Y-99271026D02*
X131235014Y-99199598D01*
X131235014Y-99199598D02*
X131020728Y-99199598D01*
X131020728Y-99199598D02*
X130735014Y-99271026D01*
X130735014Y-99271026D02*
X130592157Y-99342455D01*
X130592157Y-99342455D02*
X130449300Y-99485312D01*
X130449300Y-99485312D02*
X130377871Y-99699598D01*
X130377871Y-99699598D02*
X130377871Y-100056741D01*
X131163585Y-96913884D02*
X131163585Y-97413884D01*
X130377871Y-97413884D02*
X131877871Y-97413884D01*
X131877871Y-97413884D02*
X131877871Y-96699598D01*
X130520728Y-94128170D02*
X130449300Y-94199598D01*
X130449300Y-94199598D02*
X130377871Y-94413884D01*
X130377871Y-94413884D02*
X130377871Y-94556741D01*
X130377871Y-94556741D02*
X130449300Y-94771027D01*
X130449300Y-94771027D02*
X130592157Y-94913884D01*
X130592157Y-94913884D02*
X130735014Y-94985313D01*
X130735014Y-94985313D02*
X131020728Y-95056741D01*
X131020728Y-95056741D02*
X131235014Y-95056741D01*
X131235014Y-95056741D02*
X131520728Y-94985313D01*
X131520728Y-94985313D02*
X131663585Y-94913884D01*
X131663585Y-94913884D02*
X131806442Y-94771027D01*
X131806442Y-94771027D02*
X131877871Y-94556741D01*
X131877871Y-94556741D02*
X131877871Y-94413884D01*
X131877871Y-94413884D02*
X131806442Y-94199598D01*
X131806442Y-94199598D02*
X131735014Y-94128170D01*
X130377871Y-93271027D02*
X130449300Y-93413884D01*
X130449300Y-93413884D02*
X130520728Y-93485313D01*
X130520728Y-93485313D02*
X130663585Y-93556741D01*
X130663585Y-93556741D02*
X131092157Y-93556741D01*
X131092157Y-93556741D02*
X131235014Y-93485313D01*
X131235014Y-93485313D02*
X131306442Y-93413884D01*
X131306442Y-93413884D02*
X131377871Y-93271027D01*
X131377871Y-93271027D02*
X131377871Y-93056741D01*
X131377871Y-93056741D02*
X131306442Y-92913884D01*
X131306442Y-92913884D02*
X131235014Y-92842456D01*
X131235014Y-92842456D02*
X131092157Y-92771027D01*
X131092157Y-92771027D02*
X130663585Y-92771027D01*
X130663585Y-92771027D02*
X130520728Y-92842456D01*
X130520728Y-92842456D02*
X130449300Y-92913884D01*
X130449300Y-92913884D02*
X130377871Y-93056741D01*
X130377871Y-93056741D02*
X130377871Y-93271027D01*
X131377871Y-92128170D02*
X130377871Y-92128170D01*
X131235014Y-92128170D02*
X131306442Y-92056741D01*
X131306442Y-92056741D02*
X131377871Y-91913884D01*
X131377871Y-91913884D02*
X131377871Y-91699598D01*
X131377871Y-91699598D02*
X131306442Y-91556741D01*
X131306442Y-91556741D02*
X131163585Y-91485313D01*
X131163585Y-91485313D02*
X130377871Y-91485313D01*
X131377871Y-90913884D02*
X130377871Y-90628170D01*
X130377871Y-90628170D02*
X131092157Y-90342455D01*
X131092157Y-90342455D02*
X130377871Y-90056741D01*
X130377871Y-90056741D02*
X131377871Y-89771027D01*
X130377871Y-88556741D02*
X131163585Y-88556741D01*
X131163585Y-88556741D02*
X131306442Y-88628169D01*
X131306442Y-88628169D02*
X131377871Y-88771026D01*
X131377871Y-88771026D02*
X131377871Y-89056741D01*
X131377871Y-89056741D02*
X131306442Y-89199598D01*
X130449300Y-88556741D02*
X130377871Y-88699598D01*
X130377871Y-88699598D02*
X130377871Y-89056741D01*
X130377871Y-89056741D02*
X130449300Y-89199598D01*
X130449300Y-89199598D02*
X130592157Y-89271026D01*
X130592157Y-89271026D02*
X130735014Y-89271026D01*
X130735014Y-89271026D02*
X130877871Y-89199598D01*
X130877871Y-89199598D02*
X130949300Y-89056741D01*
X130949300Y-89056741D02*
X130949300Y-88699598D01*
X130949300Y-88699598D02*
X131020728Y-88556741D01*
X131377871Y-87985312D02*
X130377871Y-87628169D01*
X131377871Y-87271026D02*
X130377871Y-87628169D01*
X130377871Y-87628169D02*
X130020728Y-87771026D01*
X130020728Y-87771026D02*
X129949300Y-87842455D01*
X129949300Y-87842455D02*
X129877871Y-87985312D01*
X131735014Y-85628169D02*
X131806442Y-85556741D01*
X131806442Y-85556741D02*
X131877871Y-85413884D01*
X131877871Y-85413884D02*
X131877871Y-85056741D01*
X131877871Y-85056741D02*
X131806442Y-84913884D01*
X131806442Y-84913884D02*
X131735014Y-84842455D01*
X131735014Y-84842455D02*
X131592157Y-84771026D01*
X131592157Y-84771026D02*
X131449300Y-84771026D01*
X131449300Y-84771026D02*
X131235014Y-84842455D01*
X131235014Y-84842455D02*
X130377871Y-85699598D01*
X130377871Y-85699598D02*
X130377871Y-84771026D01*
X131877871Y-83842455D02*
X131877871Y-83699598D01*
X131877871Y-83699598D02*
X131806442Y-83556741D01*
X131806442Y-83556741D02*
X131735014Y-83485313D01*
X131735014Y-83485313D02*
X131592157Y-83413884D01*
X131592157Y-83413884D02*
X131306442Y-83342455D01*
X131306442Y-83342455D02*
X130949300Y-83342455D01*
X130949300Y-83342455D02*
X130663585Y-83413884D01*
X130663585Y-83413884D02*
X130520728Y-83485313D01*
X130520728Y-83485313D02*
X130449300Y-83556741D01*
X130449300Y-83556741D02*
X130377871Y-83699598D01*
X130377871Y-83699598D02*
X130377871Y-83842455D01*
X130377871Y-83842455D02*
X130449300Y-83985313D01*
X130449300Y-83985313D02*
X130520728Y-84056741D01*
X130520728Y-84056741D02*
X130663585Y-84128170D01*
X130663585Y-84128170D02*
X130949300Y-84199598D01*
X130949300Y-84199598D02*
X131306442Y-84199598D01*
X131306442Y-84199598D02*
X131592157Y-84128170D01*
X131592157Y-84128170D02*
X131735014Y-84056741D01*
X131735014Y-84056741D02*
X131806442Y-83985313D01*
X131806442Y-83985313D02*
X131877871Y-83842455D01*
X131735014Y-82771027D02*
X131806442Y-82699599D01*
X131806442Y-82699599D02*
X131877871Y-82556742D01*
X131877871Y-82556742D02*
X131877871Y-82199599D01*
X131877871Y-82199599D02*
X131806442Y-82056742D01*
X131806442Y-82056742D02*
X131735014Y-81985313D01*
X131735014Y-81985313D02*
X131592157Y-81913884D01*
X131592157Y-81913884D02*
X131449300Y-81913884D01*
X131449300Y-81913884D02*
X131235014Y-81985313D01*
X131235014Y-81985313D02*
X130377871Y-82842456D01*
X130377871Y-82842456D02*
X130377871Y-81913884D01*
X131377871Y-80628171D02*
X130377871Y-80628171D01*
X131949300Y-80985313D02*
X130877871Y-81342456D01*
X130877871Y-81342456D02*
X130877871Y-80413885D01*
X131377871Y-78842457D02*
X130377871Y-78485314D01*
X130377871Y-78485314D02*
X131377871Y-78128171D01*
X130449300Y-76985314D02*
X130377871Y-77128171D01*
X130377871Y-77128171D02*
X130377871Y-77413886D01*
X130377871Y-77413886D02*
X130449300Y-77556743D01*
X130449300Y-77556743D02*
X130592157Y-77628171D01*
X130592157Y-77628171D02*
X131163585Y-77628171D01*
X131163585Y-77628171D02*
X131306442Y-77556743D01*
X131306442Y-77556743D02*
X131377871Y-77413886D01*
X131377871Y-77413886D02*
X131377871Y-77128171D01*
X131377871Y-77128171D02*
X131306442Y-76985314D01*
X131306442Y-76985314D02*
X131163585Y-76913886D01*
X131163585Y-76913886D02*
X131020728Y-76913886D01*
X131020728Y-76913886D02*
X130877871Y-77628171D01*
X130377871Y-76271029D02*
X131377871Y-76271029D01*
X131092157Y-76271029D02*
X131235014Y-76199600D01*
X131235014Y-76199600D02*
X131306442Y-76128172D01*
X131306442Y-76128172D02*
X131377871Y-75985314D01*
X131377871Y-75985314D02*
X131377871Y-75842457D01*
X131877871Y-74342458D02*
X131877871Y-73413886D01*
X131877871Y-73413886D02*
X131306442Y-73913886D01*
X131306442Y-73913886D02*
X131306442Y-73699601D01*
X131306442Y-73699601D02*
X131235014Y-73556744D01*
X131235014Y-73556744D02*
X131163585Y-73485315D01*
X131163585Y-73485315D02*
X131020728Y-73413886D01*
X131020728Y-73413886D02*
X130663585Y-73413886D01*
X130663585Y-73413886D02*
X130520728Y-73485315D01*
X130520728Y-73485315D02*
X130449300Y-73556744D01*
X130449300Y-73556744D02*
X130377871Y-73699601D01*
X130377871Y-73699601D02*
X130377871Y-74128172D01*
X130377871Y-74128172D02*
X130449300Y-74271029D01*
X130449300Y-74271029D02*
X130520728Y-74342458D01*
X130520728Y-72771030D02*
X130449300Y-72699601D01*
X130449300Y-72699601D02*
X130377871Y-72771030D01*
X130377871Y-72771030D02*
X130449300Y-72842458D01*
X130449300Y-72842458D02*
X130520728Y-72771030D01*
X130520728Y-72771030D02*
X130377871Y-72771030D01*
X131877871Y-71771029D02*
X131877871Y-71628172D01*
X131877871Y-71628172D02*
X131806442Y-71485315D01*
X131806442Y-71485315D02*
X131735014Y-71413887D01*
X131735014Y-71413887D02*
X131592157Y-71342458D01*
X131592157Y-71342458D02*
X131306442Y-71271029D01*
X131306442Y-71271029D02*
X130949300Y-71271029D01*
X130949300Y-71271029D02*
X130663585Y-71342458D01*
X130663585Y-71342458D02*
X130520728Y-71413887D01*
X130520728Y-71413887D02*
X130449300Y-71485315D01*
X130449300Y-71485315D02*
X130377871Y-71628172D01*
X130377871Y-71628172D02*
X130377871Y-71771029D01*
X130377871Y-71771029D02*
X130449300Y-71913887D01*
X130449300Y-71913887D02*
X130520728Y-71985315D01*
X130520728Y-71985315D02*
X130663585Y-72056744D01*
X130663585Y-72056744D02*
X130949300Y-72128172D01*
X130949300Y-72128172D02*
X131306442Y-72128172D01*
X131306442Y-72128172D02*
X131592157Y-72056744D01*
X131592157Y-72056744D02*
X131735014Y-71985315D01*
X131735014Y-71985315D02*
X131806442Y-71913887D01*
X131806442Y-71913887D02*
X131877871Y-71771029D01*
X131827071Y-113988171D02*
X130612785Y-113988171D01*
X130612785Y-113988171D02*
X130469928Y-113916742D01*
X130469928Y-113916742D02*
X130398500Y-113845314D01*
X130398500Y-113845314D02*
X130327071Y-113702456D01*
X130327071Y-113702456D02*
X130327071Y-113416742D01*
X130327071Y-113416742D02*
X130398500Y-113273885D01*
X130398500Y-113273885D02*
X130469928Y-113202456D01*
X130469928Y-113202456D02*
X130612785Y-113131028D01*
X130612785Y-113131028D02*
X131827071Y-113131028D01*
X130398500Y-112488170D02*
X130327071Y-112273885D01*
X130327071Y-112273885D02*
X130327071Y-111916742D01*
X130327071Y-111916742D02*
X130398500Y-111773885D01*
X130398500Y-111773885D02*
X130469928Y-111702456D01*
X130469928Y-111702456D02*
X130612785Y-111631027D01*
X130612785Y-111631027D02*
X130755642Y-111631027D01*
X130755642Y-111631027D02*
X130898500Y-111702456D01*
X130898500Y-111702456D02*
X130969928Y-111773885D01*
X130969928Y-111773885D02*
X131041357Y-111916742D01*
X131041357Y-111916742D02*
X131112785Y-112202456D01*
X131112785Y-112202456D02*
X131184214Y-112345313D01*
X131184214Y-112345313D02*
X131255642Y-112416742D01*
X131255642Y-112416742D02*
X131398500Y-112488170D01*
X131398500Y-112488170D02*
X131541357Y-112488170D01*
X131541357Y-112488170D02*
X131684214Y-112416742D01*
X131684214Y-112416742D02*
X131755642Y-112345313D01*
X131755642Y-112345313D02*
X131827071Y-112202456D01*
X131827071Y-112202456D02*
X131827071Y-111845313D01*
X131827071Y-111845313D02*
X131755642Y-111631027D01*
X131112785Y-110488171D02*
X131041357Y-110273885D01*
X131041357Y-110273885D02*
X130969928Y-110202456D01*
X130969928Y-110202456D02*
X130827071Y-110131028D01*
X130827071Y-110131028D02*
X130612785Y-110131028D01*
X130612785Y-110131028D02*
X130469928Y-110202456D01*
X130469928Y-110202456D02*
X130398500Y-110273885D01*
X130398500Y-110273885D02*
X130327071Y-110416742D01*
X130327071Y-110416742D02*
X130327071Y-110988171D01*
X130327071Y-110988171D02*
X131827071Y-110988171D01*
X131827071Y-110988171D02*
X131827071Y-110488171D01*
X131827071Y-110488171D02*
X131755642Y-110345314D01*
X131755642Y-110345314D02*
X131684214Y-110273885D01*
X131684214Y-110273885D02*
X131541357Y-110202456D01*
X131541357Y-110202456D02*
X131398500Y-110202456D01*
X131398500Y-110202456D02*
X131255642Y-110273885D01*
X131255642Y-110273885D02*
X131184214Y-110345314D01*
X131184214Y-110345314D02*
X131112785Y-110488171D01*
X131112785Y-110488171D02*
X131112785Y-110988171D01*
X130898500Y-109488171D02*
X130898500Y-108345314D01*
X131755642Y-106845313D02*
X131827071Y-106988171D01*
X131827071Y-106988171D02*
X131827071Y-107202456D01*
X131827071Y-107202456D02*
X131755642Y-107416742D01*
X131755642Y-107416742D02*
X131612785Y-107559599D01*
X131612785Y-107559599D02*
X131469928Y-107631028D01*
X131469928Y-107631028D02*
X131184214Y-107702456D01*
X131184214Y-107702456D02*
X130969928Y-107702456D01*
X130969928Y-107702456D02*
X130684214Y-107631028D01*
X130684214Y-107631028D02*
X130541357Y-107559599D01*
X130541357Y-107559599D02*
X130398500Y-107416742D01*
X130398500Y-107416742D02*
X130327071Y-107202456D01*
X130327071Y-107202456D02*
X130327071Y-107059599D01*
X130327071Y-107059599D02*
X130398500Y-106845313D01*
X130398500Y-106845313D02*
X130469928Y-106773885D01*
X130469928Y-106773885D02*
X130969928Y-106773885D01*
X130969928Y-106773885D02*
X130969928Y-107059599D01*
X130327071Y-106131028D02*
X131827071Y-106131028D01*
X131827071Y-106131028D02*
X131827071Y-105559599D01*
X131827071Y-105559599D02*
X131755642Y-105416742D01*
X131755642Y-105416742D02*
X131684214Y-105345313D01*
X131684214Y-105345313D02*
X131541357Y-105273885D01*
X131541357Y-105273885D02*
X131327071Y-105273885D01*
X131327071Y-105273885D02*
X131184214Y-105345313D01*
X131184214Y-105345313D02*
X131112785Y-105416742D01*
X131112785Y-105416742D02*
X131041357Y-105559599D01*
X131041357Y-105559599D02*
X131041357Y-106131028D01*
X130327071Y-104631028D02*
X131827071Y-104631028D01*
X131112785Y-103416742D02*
X131041357Y-103202456D01*
X131041357Y-103202456D02*
X130969928Y-103131027D01*
X130969928Y-103131027D02*
X130827071Y-103059599D01*
X130827071Y-103059599D02*
X130612785Y-103059599D01*
X130612785Y-103059599D02*
X130469928Y-103131027D01*
X130469928Y-103131027D02*
X130398500Y-103202456D01*
X130398500Y-103202456D02*
X130327071Y-103345313D01*
X130327071Y-103345313D02*
X130327071Y-103916742D01*
X130327071Y-103916742D02*
X131827071Y-103916742D01*
X131827071Y-103916742D02*
X131827071Y-103416742D01*
X131827071Y-103416742D02*
X131755642Y-103273885D01*
X131755642Y-103273885D02*
X131684214Y-103202456D01*
X131684214Y-103202456D02*
X131541357Y-103131027D01*
X131541357Y-103131027D02*
X131398500Y-103131027D01*
X131398500Y-103131027D02*
X131255642Y-103202456D01*
X131255642Y-103202456D02*
X131184214Y-103273885D01*
X131184214Y-103273885D02*
X131112785Y-103416742D01*
X131112785Y-103416742D02*
X131112785Y-103916742D01*
M02*
