%TF.GenerationSoftware,KiCad,Pcbnew,8.0.5*%
%TF.CreationDate,2024-11-08T10:10:06+13:00*%
%TF.ProjectId,usb_gpib_v3,7573625f-6770-4696-925f-76332e6b6963,C*%
%TF.SameCoordinates,Original*%
%TF.FileFunction,Soldermask,Top*%
%TF.FilePolarity,Negative*%
%FSLAX46Y46*%
G04 Gerber Fmt 4.6, Leading zero omitted, Abs format (unit mm)*
G04 Created by KiCad (PCBNEW 8.0.5) date 2024-11-08 10:10:06*
%MOMM*%
%LPD*%
G01*
G04 APERTURE LIST*
G04 Aperture macros list*
%AMRoundRect*
0 Rectangle with rounded corners*
0 $1 Rounding radius*
0 $2 $3 $4 $5 $6 $7 $8 $9 X,Y pos of 4 corners*
0 Add a 4 corners polygon primitive as box body*
4,1,4,$2,$3,$4,$5,$6,$7,$8,$9,$2,$3,0*
0 Add four circle primitives for the rounded corners*
1,1,$1+$1,$2,$3*
1,1,$1+$1,$4,$5*
1,1,$1+$1,$6,$7*
1,1,$1+$1,$8,$9*
0 Add four rect primitives between the rounded corners*
20,1,$1+$1,$2,$3,$4,$5,0*
20,1,$1+$1,$4,$5,$6,$7,0*
20,1,$1+$1,$6,$7,$8,$9,0*
20,1,$1+$1,$8,$9,$2,$3,0*%
G04 Aperture macros list end*
%ADD10RoundRect,0.237500X-0.300000X-0.237500X0.300000X-0.237500X0.300000X0.237500X-0.300000X0.237500X0*%
%ADD11RoundRect,0.237500X-0.237500X0.250000X-0.237500X-0.250000X0.237500X-0.250000X0.237500X0.250000X0*%
%ADD12RoundRect,0.237500X0.300000X0.237500X-0.300000X0.237500X-0.300000X-0.237500X0.300000X-0.237500X0*%
%ADD13RoundRect,0.237500X0.250000X0.237500X-0.250000X0.237500X-0.250000X-0.237500X0.250000X-0.237500X0*%
%ADD14C,3.100000*%
%ADD15RoundRect,0.237500X0.008839X0.344715X-0.344715X-0.008839X-0.008839X-0.344715X0.344715X0.008839X0*%
%ADD16R,1.500000X0.550000*%
%ADD17R,0.550000X1.500000*%
%ADD18O,1.800000X1.300000*%
%ADD19RoundRect,0.237500X-0.250000X-0.237500X0.250000X-0.237500X0.250000X0.237500X-0.250000X0.237500X0*%
%ADD20C,0.650000*%
%ADD21R,0.600000X1.450000*%
%ADD22R,0.300000X1.450000*%
%ADD23O,1.000000X2.100000*%
%ADD24O,1.000000X1.600000*%
%ADD25O,2.000000X1.400000*%
%ADD26C,3.700000*%
%ADD27RoundRect,0.237500X-0.237500X0.300000X-0.237500X-0.300000X0.237500X-0.300000X0.237500X0.300000X0*%
%ADD28R,0.990600X1.500000*%
%ADD29RoundRect,0.150000X-0.150000X0.512500X-0.150000X-0.512500X0.150000X-0.512500X0.150000X0.512500X0*%
%ADD30R,2.100000X1.800000*%
%ADD31R,1.700000X1.700000*%
%ADD32O,1.700000X1.700000*%
%ADD33RoundRect,0.237500X0.237500X-0.250000X0.237500X0.250000X-0.237500X0.250000X-0.237500X-0.250000X0*%
%ADD34C,0.800000*%
G04 APERTURE END LIST*
D10*
%TO.C,C2*%
X106071500Y-101854000D03*
X107796500Y-101854000D03*
%TD*%
D11*
%TO.C,R10*%
X113792000Y-115978300D03*
X113792000Y-117803300D03*
%TD*%
D12*
%TO.C,C6*%
X114237500Y-84500000D03*
X112512500Y-84500000D03*
%TD*%
D13*
%TO.C,R7*%
X108262500Y-73914000D03*
X106437500Y-73914000D03*
%TD*%
%TO.C,R8*%
X103687500Y-73914000D03*
X101862500Y-73914000D03*
%TD*%
D11*
%TO.C,R9*%
X115468400Y-115980200D03*
X115468400Y-117805200D03*
%TD*%
D12*
%TO.C,C5*%
X103732500Y-84550000D03*
X102007500Y-84550000D03*
%TD*%
D14*
%TO.C,H1*%
X115000000Y-108000800D03*
%TD*%
D15*
%TO.C,R1*%
X102753235Y-79364765D03*
X101462765Y-80655235D03*
%TD*%
D16*
%TO.C,U1*%
X102504000Y-88340000D03*
X102504000Y-89140000D03*
X102504000Y-89940000D03*
X102504000Y-90740000D03*
X102504000Y-91540000D03*
X102504000Y-92340000D03*
X102504000Y-93140000D03*
X102504000Y-93940000D03*
X102504000Y-94740000D03*
X102504000Y-95540000D03*
X102504000Y-96340000D03*
D17*
X104204000Y-98040000D03*
X105004000Y-98040000D03*
X105804000Y-98040000D03*
X106604000Y-98040000D03*
X107404000Y-98040000D03*
X108204000Y-98040000D03*
X109004000Y-98040000D03*
X109804000Y-98040000D03*
X110604000Y-98040000D03*
X111404000Y-98040000D03*
X112204000Y-98040000D03*
D16*
X113904000Y-96340000D03*
X113904000Y-95540000D03*
X113904000Y-94740000D03*
X113904000Y-93940000D03*
X113904000Y-93140000D03*
X113904000Y-92340000D03*
X113904000Y-91540000D03*
X113904000Y-90740000D03*
X113904000Y-89940000D03*
X113904000Y-89140000D03*
X113904000Y-88340000D03*
D17*
X112204000Y-86640000D03*
X111404000Y-86640000D03*
X110604000Y-86640000D03*
X109804000Y-86640000D03*
X109004000Y-86640000D03*
X108204000Y-86640000D03*
X107404000Y-86640000D03*
X106604000Y-86640000D03*
X105804000Y-86640000D03*
X105004000Y-86640000D03*
X104204000Y-86640000D03*
%TD*%
D14*
%TO.C,H2*%
X115000000Y-75996800D03*
%TD*%
D18*
%TO.C,LED2*%
X100076000Y-117084000D03*
X100076000Y-114554000D03*
%TD*%
D10*
%TO.C,C4*%
X106325500Y-82440000D03*
X108050500Y-82440000D03*
%TD*%
D15*
%TO.C,R2*%
X104023235Y-80634765D03*
X102732765Y-81925235D03*
%TD*%
D10*
%TO.C,C8*%
X106325500Y-84020000D03*
X108050500Y-84020000D03*
%TD*%
D19*
%TO.C,R6*%
X113162500Y-71550000D03*
X114987500Y-71550000D03*
%TD*%
D20*
%TO.C,J2*%
X108990000Y-69775000D03*
X103210000Y-69775000D03*
D21*
X109350000Y-71220000D03*
X108550000Y-71220000D03*
D22*
X107350000Y-71220000D03*
X106350000Y-71220000D03*
X105850000Y-71220000D03*
X104850000Y-71220000D03*
D21*
X103650000Y-71220000D03*
X102850000Y-71220000D03*
X102850000Y-71220000D03*
X103650000Y-71220000D03*
D22*
X104350000Y-71220000D03*
X105350000Y-71220000D03*
X106850000Y-71220000D03*
X107850000Y-71220000D03*
D21*
X108550000Y-71220000D03*
X109350000Y-71220000D03*
D23*
X110420000Y-70305000D03*
D24*
X110420000Y-66125000D03*
D23*
X101780000Y-70305000D03*
D24*
X101780000Y-66125000D03*
%TD*%
D18*
%TO.C,LED3*%
X100076000Y-109972000D03*
X100076000Y-107442000D03*
%TD*%
D25*
%TO.C,J1*%
X120855000Y-103880000D03*
X120855000Y-101720000D03*
X120855000Y-99560000D03*
X120855000Y-97400000D03*
X120855000Y-95240000D03*
X120855000Y-93080000D03*
X120855000Y-90920000D03*
X120855000Y-88760000D03*
X120855000Y-86600000D03*
X120855000Y-84440000D03*
X120855000Y-82280000D03*
X120855000Y-80120000D03*
X125145000Y-103880000D03*
X125145000Y-101720000D03*
X125145000Y-99560000D03*
X125145000Y-97400000D03*
X125145000Y-95240000D03*
X125145000Y-93080000D03*
X125145000Y-90920000D03*
X125145000Y-88760000D03*
X125145000Y-86600000D03*
X125145000Y-84440000D03*
X125145000Y-82280000D03*
X125145000Y-80120000D03*
D26*
X123000000Y-115400000D03*
X123000000Y-68600000D03*
%TD*%
D27*
%TO.C,C7*%
X116078000Y-95727500D03*
X116078000Y-97452500D03*
%TD*%
D12*
%TO.C,C1*%
X111098500Y-101854000D03*
X109373500Y-101854000D03*
%TD*%
D28*
%TO.C,LED1*%
X113580000Y-69620000D03*
X113579999Y-66120000D03*
X114980001Y-69620000D03*
X114980001Y-66120000D03*
%TD*%
D10*
%TO.C,C10*%
X106325500Y-80860000D03*
X108050500Y-80860000D03*
%TD*%
D29*
%TO.C,U2*%
X107630000Y-76332500D03*
X106680000Y-76332500D03*
X105730000Y-76332500D03*
X105730000Y-78607500D03*
X106680000Y-78607500D03*
X107630000Y-78607500D03*
%TD*%
D30*
%TO.C,X1*%
X109400000Y-104006000D03*
X106500000Y-104006000D03*
X106500000Y-106306000D03*
X109400000Y-106306000D03*
%TD*%
D27*
%TO.C,C9*%
X104140000Y-100229500D03*
X104140000Y-101954500D03*
%TD*%
D31*
%TO.C,J3*%
X106680000Y-109601000D03*
D32*
X109220000Y-109601000D03*
X106680000Y-112141000D03*
X109220000Y-112141000D03*
X106680000Y-114681000D03*
X109220000Y-114681000D03*
%TD*%
D33*
%TO.C,R3*%
X102362000Y-102004500D03*
X102362000Y-100179500D03*
%TD*%
D27*
%TO.C,C3*%
X100330000Y-92355500D03*
X100330000Y-94080500D03*
%TD*%
D11*
%TO.C,R4*%
X116675000Y-83237500D03*
X116675000Y-85062500D03*
%TD*%
D33*
%TO.C,R5*%
X110250000Y-75512500D03*
X110250000Y-73687500D03*
%TD*%
D34*
X101900000Y-75312500D03*
X106680000Y-74930000D03*
X122936000Y-88900000D03*
X129500000Y-95300000D03*
X131275000Y-67600000D03*
X130775000Y-117550000D03*
X100076000Y-70358000D03*
X104800000Y-67700000D03*
X99314000Y-95504000D03*
X106426000Y-100330000D03*
X107275000Y-67700000D03*
X109474000Y-82420000D03*
X114730000Y-86410000D03*
X129525000Y-116450000D03*
X106050000Y-67700000D03*
X103124000Y-83312000D03*
X113919000Y-97536000D03*
X106050000Y-68900000D03*
X122936000Y-84582000D03*
X106426000Y-88138000D03*
X122936000Y-90932000D03*
X106426000Y-90297000D03*
X130025000Y-66500000D03*
X112014000Y-96266000D03*
X100076000Y-72136000D03*
X110998000Y-72390000D03*
X104800000Y-68900000D03*
X129500000Y-86625000D03*
X98171000Y-109982000D03*
X119253000Y-85471000D03*
X126492000Y-76200000D03*
X113060000Y-102900000D03*
X107188000Y-96266000D03*
X101900000Y-76562500D03*
X114700000Y-102925000D03*
X123000000Y-104000000D03*
X122936000Y-93218000D03*
X119140000Y-110880000D03*
X122936000Y-86614000D03*
X104140000Y-96266000D03*
X122936000Y-80264000D03*
X116332000Y-102925000D03*
X106426000Y-91440000D03*
X104140000Y-90170000D03*
X106426000Y-89154000D03*
X117602000Y-86360000D03*
X98425000Y-117856000D03*
X98425000Y-115316000D03*
X99568000Y-82550000D03*
X111506000Y-106426000D03*
X122990000Y-104950000D03*
X131275000Y-66500000D03*
X117680000Y-110920000D03*
X113030000Y-101854000D03*
X111506000Y-88392000D03*
X117602000Y-97536000D03*
X129525000Y-117550000D03*
X129500000Y-90975000D03*
X102108000Y-86106000D03*
X130775000Y-116450000D03*
X109474000Y-80900000D03*
X98806000Y-93980000D03*
X119126000Y-76454000D03*
X130025000Y-67600000D03*
X122936000Y-82296000D03*
X107300000Y-68900000D03*
X129425000Y-82296000D03*
X104140000Y-91440000D03*
X129500000Y-99625000D03*
X104394000Y-104140000D03*
X105250000Y-92296000D03*
X105664000Y-96266000D03*
X117210076Y-95759862D03*
X115537500Y-84937500D03*
X105250000Y-85090000D03*
X117348000Y-100635647D03*
X116459355Y-99911147D03*
X115570000Y-99186647D03*
X110250000Y-79775000D03*
X111949500Y-81500000D03*
M02*
