%TF.GenerationSoftware,KiCad,Pcbnew,8.0.5*%
%TF.CreationDate,2024-11-08T10:10:06+13:00*%
%TF.ProjectId,usb_gpib_v3,7573625f-6770-4696-925f-76332e6b6963,C*%
%TF.SameCoordinates,Original*%
%TF.FileFunction,Paste,Top*%
%TF.FilePolarity,Positive*%
%FSLAX46Y46*%
G04 Gerber Fmt 4.6, Leading zero omitted, Abs format (unit mm)*
G04 Created by KiCad (PCBNEW 8.0.5) date 2024-11-08 10:10:06*
%MOMM*%
%LPD*%
G01*
G04 APERTURE LIST*
G04 Aperture macros list*
%AMRoundRect*
0 Rectangle with rounded corners*
0 $1 Rounding radius*
0 $2 $3 $4 $5 $6 $7 $8 $9 X,Y pos of 4 corners*
0 Add a 4 corners polygon primitive as box body*
4,1,4,$2,$3,$4,$5,$6,$7,$8,$9,$2,$3,0*
0 Add four circle primitives for the rounded corners*
1,1,$1+$1,$2,$3*
1,1,$1+$1,$4,$5*
1,1,$1+$1,$6,$7*
1,1,$1+$1,$8,$9*
0 Add four rect primitives between the rounded corners*
20,1,$1+$1,$2,$3,$4,$5,0*
20,1,$1+$1,$4,$5,$6,$7,0*
20,1,$1+$1,$6,$7,$8,$9,0*
20,1,$1+$1,$8,$9,$2,$3,0*%
G04 Aperture macros list end*
%ADD10RoundRect,0.237500X-0.300000X-0.237500X0.300000X-0.237500X0.300000X0.237500X-0.300000X0.237500X0*%
%ADD11RoundRect,0.237500X-0.237500X0.250000X-0.237500X-0.250000X0.237500X-0.250000X0.237500X0.250000X0*%
%ADD12RoundRect,0.237500X0.300000X0.237500X-0.300000X0.237500X-0.300000X-0.237500X0.300000X-0.237500X0*%
%ADD13RoundRect,0.237500X0.250000X0.237500X-0.250000X0.237500X-0.250000X-0.237500X0.250000X-0.237500X0*%
%ADD14RoundRect,0.237500X0.008839X0.344715X-0.344715X-0.008839X-0.008839X-0.344715X0.344715X0.008839X0*%
%ADD15R,1.500000X0.550000*%
%ADD16R,0.550000X1.500000*%
%ADD17RoundRect,0.237500X-0.250000X-0.237500X0.250000X-0.237500X0.250000X0.237500X-0.250000X0.237500X0*%
%ADD18R,0.600000X1.450000*%
%ADD19R,0.300000X1.450000*%
%ADD20RoundRect,0.237500X-0.237500X0.300000X-0.237500X-0.300000X0.237500X-0.300000X0.237500X0.300000X0*%
%ADD21R,0.990600X1.500000*%
%ADD22RoundRect,0.150000X-0.150000X0.512500X-0.150000X-0.512500X0.150000X-0.512500X0.150000X0.512500X0*%
%ADD23R,2.100000X1.800000*%
%ADD24RoundRect,0.237500X0.237500X-0.250000X0.237500X0.250000X-0.237500X0.250000X-0.237500X-0.250000X0*%
G04 APERTURE END LIST*
D10*
%TO.C,C2*%
X106071500Y-101854000D03*
X107796500Y-101854000D03*
%TD*%
D11*
%TO.C,R10*%
X113792000Y-115978300D03*
X113792000Y-117803300D03*
%TD*%
D12*
%TO.C,C6*%
X114237500Y-84500000D03*
X112512500Y-84500000D03*
%TD*%
D13*
%TO.C,R7*%
X108262500Y-73914000D03*
X106437500Y-73914000D03*
%TD*%
%TO.C,R8*%
X103687500Y-73914000D03*
X101862500Y-73914000D03*
%TD*%
D11*
%TO.C,R9*%
X115468400Y-115980200D03*
X115468400Y-117805200D03*
%TD*%
D12*
%TO.C,C5*%
X103732500Y-84550000D03*
X102007500Y-84550000D03*
%TD*%
D14*
%TO.C,R1*%
X102753235Y-79364765D03*
X101462765Y-80655235D03*
%TD*%
D15*
%TO.C,U1*%
X102504000Y-88340000D03*
X102504000Y-89140000D03*
X102504000Y-89940000D03*
X102504000Y-90740000D03*
X102504000Y-91540000D03*
X102504000Y-92340000D03*
X102504000Y-93140000D03*
X102504000Y-93940000D03*
X102504000Y-94740000D03*
X102504000Y-95540000D03*
X102504000Y-96340000D03*
D16*
X104204000Y-98040000D03*
X105004000Y-98040000D03*
X105804000Y-98040000D03*
X106604000Y-98040000D03*
X107404000Y-98040000D03*
X108204000Y-98040000D03*
X109004000Y-98040000D03*
X109804000Y-98040000D03*
X110604000Y-98040000D03*
X111404000Y-98040000D03*
X112204000Y-98040000D03*
D15*
X113904000Y-96340000D03*
X113904000Y-95540000D03*
X113904000Y-94740000D03*
X113904000Y-93940000D03*
X113904000Y-93140000D03*
X113904000Y-92340000D03*
X113904000Y-91540000D03*
X113904000Y-90740000D03*
X113904000Y-89940000D03*
X113904000Y-89140000D03*
X113904000Y-88340000D03*
D16*
X112204000Y-86640000D03*
X111404000Y-86640000D03*
X110604000Y-86640000D03*
X109804000Y-86640000D03*
X109004000Y-86640000D03*
X108204000Y-86640000D03*
X107404000Y-86640000D03*
X106604000Y-86640000D03*
X105804000Y-86640000D03*
X105004000Y-86640000D03*
X104204000Y-86640000D03*
%TD*%
D10*
%TO.C,C4*%
X106325500Y-82440000D03*
X108050500Y-82440000D03*
%TD*%
D14*
%TO.C,R2*%
X104023235Y-80634765D03*
X102732765Y-81925235D03*
%TD*%
D10*
%TO.C,C8*%
X106325500Y-84020000D03*
X108050500Y-84020000D03*
%TD*%
D17*
%TO.C,R6*%
X113162500Y-71550000D03*
X114987500Y-71550000D03*
%TD*%
D18*
%TO.C,J2*%
X109350000Y-71220000D03*
X108550000Y-71220000D03*
D19*
X107350000Y-71220000D03*
X106350000Y-71220000D03*
X105850000Y-71220000D03*
X104850000Y-71220000D03*
D18*
X103650000Y-71220000D03*
X102850000Y-71220000D03*
X102850000Y-71220000D03*
X103650000Y-71220000D03*
D19*
X104350000Y-71220000D03*
X105350000Y-71220000D03*
X106850000Y-71220000D03*
X107850000Y-71220000D03*
D18*
X108550000Y-71220000D03*
X109350000Y-71220000D03*
%TD*%
D20*
%TO.C,C7*%
X116078000Y-95727500D03*
X116078000Y-97452500D03*
%TD*%
D12*
%TO.C,C1*%
X111098500Y-101854000D03*
X109373500Y-101854000D03*
%TD*%
D21*
%TO.C,LED1*%
X113580000Y-69620000D03*
X113579999Y-66120000D03*
X114980001Y-69620000D03*
X114980001Y-66120000D03*
%TD*%
D10*
%TO.C,C10*%
X106325500Y-80860000D03*
X108050500Y-80860000D03*
%TD*%
D22*
%TO.C,U2*%
X107630000Y-76332500D03*
X106680000Y-76332500D03*
X105730000Y-76332500D03*
X105730000Y-78607500D03*
X106680000Y-78607500D03*
X107630000Y-78607500D03*
%TD*%
D23*
%TO.C,X1*%
X109400000Y-104006000D03*
X106500000Y-104006000D03*
X106500000Y-106306000D03*
X109400000Y-106306000D03*
%TD*%
D20*
%TO.C,C9*%
X104140000Y-100229500D03*
X104140000Y-101954500D03*
%TD*%
D24*
%TO.C,R3*%
X102362000Y-102004500D03*
X102362000Y-100179500D03*
%TD*%
D20*
%TO.C,C3*%
X100330000Y-92355500D03*
X100330000Y-94080500D03*
%TD*%
D11*
%TO.C,R4*%
X116675000Y-83237500D03*
X116675000Y-85062500D03*
%TD*%
D24*
%TO.C,R5*%
X110250000Y-75512500D03*
X110250000Y-73687500D03*
%TD*%
M02*
