%TF.GenerationSoftware,KiCad,Pcbnew,(6.0.0-rc1-415-g653c7b78d7)*%
%TF.CreationDate,2021-12-23T14:01:08-08:00*%
%TF.ProjectId,xyp-gpib,7879702d-6770-4696-922e-6b696361645f,rev?*%
%TF.SameCoordinates,Original*%
%TF.FileFunction,Profile,NP*%
%FSLAX46Y46*%
G04 Gerber Fmt 4.6, Leading zero omitted, Abs format (unit mm)*
G04 Created by KiCad (PCBNEW (6.0.0-rc1-415-g653c7b78d7)) date 2021-12-23 14:01:08*
%MOMM*%
%LPD*%
G01*
G04 APERTURE LIST*
%TA.AperFunction,Profile*%
%ADD10C,0.099060*%
%TD*%
G04 APERTURE END LIST*
D10*
X205493620Y-111142780D02*
X205638400Y-111168180D01*
X205638400Y-111168180D02*
X205778100Y-111201200D01*
X205778100Y-111201200D02*
X205917800Y-111241840D01*
X205917800Y-111241840D02*
X206054960Y-111295180D01*
X206054960Y-111295180D02*
X206187040Y-111353600D01*
X205204060Y-111125000D02*
X205348840Y-111130080D01*
X205348840Y-111130080D02*
X205493620Y-111142780D01*
X176728120Y-111005620D02*
X176829720Y-111048800D01*
X176829720Y-111048800D02*
X176936400Y-111081820D01*
X176936400Y-111081820D02*
X177043080Y-111104680D01*
X177152300Y-111119920D02*
X177264060Y-111125000D01*
X177264060Y-111125000D02*
X205204060Y-111125000D01*
X229016560Y-133032500D02*
X229186740Y-133035040D01*
X176113440Y-110390940D02*
X176164240Y-110490000D01*
X176448720Y-110827820D02*
X176535080Y-110896400D01*
X177043080Y-111104680D02*
X177152300Y-111119920D01*
X229186740Y-133035040D02*
X229356920Y-133029960D01*
X176629060Y-110954820D02*
X176728120Y-111005620D01*
X229356920Y-133029960D02*
X229524560Y-133014720D01*
X229524560Y-133014720D02*
X229692200Y-132989320D01*
X176222660Y-110583980D02*
X176291240Y-110670340D01*
X175999140Y-109966760D02*
X176014380Y-110075980D01*
X176164240Y-110490000D02*
X176222660Y-110583980D01*
X176070260Y-110289340D02*
X176113440Y-110390940D01*
X176014380Y-110075980D02*
X176037240Y-110182660D01*
X175994060Y-109855000D02*
X175999140Y-109966760D01*
X176291240Y-110670340D02*
X176364900Y-110754160D01*
X176364900Y-110754160D02*
X176448720Y-110827820D01*
X176535080Y-110896400D02*
X176629060Y-110954820D01*
X176037240Y-110182660D02*
X176070260Y-110289340D01*
X231434640Y-132019040D02*
X231543860Y-131889500D01*
X231739440Y-131612640D02*
X231825800Y-131465320D01*
X230647240Y-132654040D02*
X230792020Y-132567680D01*
X231825800Y-131465320D02*
X231902000Y-131315460D01*
X231902000Y-131315460D02*
X231970580Y-131160520D01*
X231195880Y-132260340D02*
X231320340Y-132143500D01*
X230497380Y-132730240D02*
X230647240Y-132654040D01*
X231970580Y-131160520D02*
X232031540Y-131003040D01*
X232031540Y-131003040D02*
X232082340Y-130840480D01*
X231320340Y-132143500D02*
X231434640Y-132019040D01*
X230342440Y-132801360D02*
X230497380Y-132730240D01*
X229859840Y-132956300D02*
X230022400Y-132913120D01*
X230022400Y-132913120D02*
X230184960Y-132862320D01*
X230931720Y-132471160D02*
X231068880Y-132369560D01*
X231068880Y-132369560D02*
X231195880Y-132260340D01*
X230792020Y-132567680D02*
X230931720Y-132471160D01*
X231543860Y-131889500D02*
X231645460Y-131754880D01*
X232122980Y-130675380D02*
X232156000Y-130510280D01*
X229692200Y-132989320D02*
X229859840Y-132956300D01*
X231645460Y-131754880D02*
X231739440Y-131612640D01*
X232082340Y-130840480D02*
X232122980Y-130675380D01*
X230184960Y-132862320D02*
X230342440Y-132801360D01*
X232156000Y-130510280D02*
X232178860Y-130342640D01*
X232178860Y-130342640D02*
X232191560Y-130172460D01*
X207431640Y-130954780D02*
X207444340Y-131099560D01*
X207444340Y-131099560D02*
X207469740Y-131244340D01*
X207469740Y-131244340D02*
X207502760Y-131384040D01*
X207502760Y-131384040D02*
X207543400Y-131523740D01*
X206438500Y-111498380D02*
X206557880Y-111584740D01*
X206966820Y-111993680D02*
X207053180Y-112113060D01*
X206776320Y-111775240D02*
X206875380Y-111881920D01*
X206187040Y-111353600D02*
X206316580Y-111422180D01*
X207383380Y-112913160D02*
X207408780Y-113057940D01*
X207309720Y-112633760D02*
X207350360Y-112773460D01*
X207408780Y-113057940D02*
X207421480Y-113202720D01*
X207421480Y-113202720D02*
X207426560Y-113347500D01*
X207053180Y-112113060D02*
X207129380Y-112234980D01*
X206316580Y-111422180D02*
X206438500Y-111498380D01*
X206669640Y-111676180D02*
X206776320Y-111775240D01*
X207129380Y-112234980D02*
X207197960Y-112364520D01*
X206875380Y-111881920D02*
X206966820Y-111993680D01*
X207256380Y-112496600D02*
X207309720Y-112633760D01*
X207350360Y-112773460D02*
X207383380Y-112913160D01*
X207426560Y-113347500D02*
X207426560Y-130810000D01*
X206557880Y-111584740D02*
X206669640Y-111676180D01*
X207197960Y-112364520D02*
X207256380Y-112496600D01*
X207426560Y-130810000D02*
X207431640Y-130954780D01*
X208295240Y-132572760D02*
X208414620Y-132659120D01*
X209214720Y-132989320D02*
X209359500Y-133014720D01*
X209359500Y-133014720D02*
X209504280Y-133027420D01*
X175994060Y-93726000D02*
X175994060Y-109855000D01*
X207723740Y-131919980D02*
X207799940Y-132044440D01*
X207977740Y-132275580D02*
X208076800Y-132382260D01*
X207655160Y-131792980D02*
X207723740Y-131919980D01*
X208076800Y-132382260D02*
X208183480Y-132481320D01*
X207799940Y-132044440D02*
X207886300Y-132163820D01*
X208539080Y-132735320D02*
X208666080Y-132803900D01*
X208666080Y-132803900D02*
X208798160Y-132862320D01*
X209504280Y-133027420D02*
X209649060Y-133032500D01*
X208935320Y-132915660D02*
X209075020Y-132956300D01*
X209649060Y-133032500D02*
X229016560Y-133032500D01*
X232191560Y-130175000D02*
X232191560Y-93726000D01*
X232191560Y-93726000D02*
X175994060Y-93726000D01*
X208414620Y-132659120D02*
X208539080Y-132735320D01*
X208798160Y-132862320D02*
X208935320Y-132915660D01*
X208183480Y-132481320D02*
X208295240Y-132572760D01*
X207886300Y-132163820D02*
X207977740Y-132275580D01*
X207596740Y-131660900D02*
X207655160Y-131792980D01*
X209075020Y-132956300D02*
X209214720Y-132989320D01*
X207543400Y-131523740D02*
X207596740Y-131660900D01*
M02*
