M48
; DRILL file {KiCad (6.0.0-rc1-415-g653c7b78d7)} date Thu Dec 23 14:01:12 2021
; FORMAT={-:-/ absolute / inch / decimal}
; #@! TF.CreationDate,2021-12-23T14:01:12-08:00
; #@! TF.GenerationSoftware,Kicad,Pcbnew,(6.0.0-rc1-415-g653c7b78d7)
; #@! TF.FileFunction,Plated,1,2,PTH
FMAT,2
INCH
; #@! TA.AperFunction,Plated,PTH,ViaDrill
T1C0.0157
; #@! TA.AperFunction,Plated,PTH,ComponentDrill
T2C0.0374
; #@! TA.AperFunction,Plated,PTH,ComponentDrill
T3C0.0394
; #@! TA.AperFunction,Plated,PTH,ComponentDrill
T4C0.0906
; #@! TA.AperFunction,Plated,PTH,ComponentDrill
T5C0.1220
%
G90
G05
T1
X8.41Y-5.135
X8.46Y-4.33
X8.505Y-4.75
X8.5722Y-4.5653
X8.5725Y-4.5225
X8.585Y-5.18
X8.6Y-4.615
X8.605Y-4.92
X8.6488Y-4.295
X8.685Y-4.775
X8.6896Y-4.2804
X8.77Y-5.18
X8.975Y-4.5
X8.98Y-4.65
X9.025Y-4.305
X9.025Y-4.35
T2
X8.3926Y-4.8346
X8.3926Y-4.933
X8.4713Y-4.8346
X8.4713Y-4.933
T3
X7.5635Y-4.0256
X7.5635Y-4.1944
X7.6486Y-4.0256
X7.6486Y-4.1944
X7.7336Y-4.0256
X7.7336Y-4.1944
X7.8187Y-4.0256
X7.8187Y-4.1944
X7.9037Y-4.0256
X7.9037Y-4.1944
X7.9887Y-4.0256
X7.9887Y-4.1944
X8.0738Y-4.0256
X8.0738Y-4.1944
X8.1588Y-4.0256
X8.1588Y-4.1944
X8.2439Y-4.0256
X8.2439Y-4.1944
X8.3289Y-4.0256
X8.3289Y-4.1944
X8.4139Y-4.0256
X8.4139Y-4.1944
X8.499Y-4.0256
X8.499Y-4.1944
X8.76Y-4.965
X8.76Y-5.065
X8.86Y-4.965
X8.86Y-5.065
X8.96Y-4.965
X8.96Y-5.065
T4
X8.28Y-4.6476
X8.28Y-5.12
T5
X7.11Y-4.11
X8.9525Y-4.11
T0
M30
