%TF.GenerationSoftware,KiCad,Pcbnew,(6.0.0-rc1-415-g653c7b78d7)*%
%TF.CreationDate,2021-12-23T14:01:08-08:00*%
%TF.ProjectId,xyp-gpib,7879702d-6770-4696-922e-6b696361645f,rev?*%
%TF.SameCoordinates,Original*%
%TF.FileFunction,Legend,Bot*%
%TF.FilePolarity,Positive*%
%FSLAX46Y46*%
G04 Gerber Fmt 4.6, Leading zero omitted, Abs format (unit mm)*
G04 Created by KiCad (PCBNEW (6.0.0-rc1-415-g653c7b78d7)) date 2021-12-23 14:01:08*
%MOMM*%
%LPD*%
G01*
G04 APERTURE LIST*
%ADD10C,0.150000*%
%ADD11C,0.120000*%
G04 APERTURE END LIST*
D10*
%TO.C,C1*%
X218352666Y-122687142D02*
X218400285Y-122734761D01*
X218543142Y-122782380D01*
X218638380Y-122782380D01*
X218781238Y-122734761D01*
X218876476Y-122639523D01*
X218924095Y-122544285D01*
X218971714Y-122353809D01*
X218971714Y-122210952D01*
X218924095Y-122020476D01*
X218876476Y-121925238D01*
X218781238Y-121830000D01*
X218638380Y-121782380D01*
X218543142Y-121782380D01*
X218400285Y-121830000D01*
X218352666Y-121877619D01*
X217400285Y-122782380D02*
X217971714Y-122782380D01*
X217686000Y-122782380D02*
X217686000Y-121782380D01*
X217781238Y-121925238D01*
X217876476Y-122020476D01*
X217971714Y-122068095D01*
%TO.C,C2*%
X221400666Y-107405142D02*
X221448285Y-107452761D01*
X221591142Y-107500380D01*
X221686380Y-107500380D01*
X221829238Y-107452761D01*
X221924476Y-107357523D01*
X221972095Y-107262285D01*
X222019714Y-107071809D01*
X222019714Y-106928952D01*
X221972095Y-106738476D01*
X221924476Y-106643238D01*
X221829238Y-106548000D01*
X221686380Y-106500380D01*
X221591142Y-106500380D01*
X221448285Y-106548000D01*
X221400666Y-106595619D01*
X221019714Y-106595619D02*
X220972095Y-106548000D01*
X220876857Y-106500380D01*
X220638761Y-106500380D01*
X220543523Y-106548000D01*
X220495904Y-106595619D01*
X220448285Y-106690857D01*
X220448285Y-106786095D01*
X220495904Y-106928952D01*
X221067333Y-107500380D01*
X220448285Y-107500380D01*
%TO.C,C7*%
X221781666Y-123547142D02*
X221829285Y-123594761D01*
X221972142Y-123642380D01*
X222067380Y-123642380D01*
X222210238Y-123594761D01*
X222305476Y-123499523D01*
X222353095Y-123404285D01*
X222400714Y-123213809D01*
X222400714Y-123070952D01*
X222353095Y-122880476D01*
X222305476Y-122785238D01*
X222210238Y-122690000D01*
X222067380Y-122642380D01*
X221972142Y-122642380D01*
X221829285Y-122690000D01*
X221781666Y-122737619D01*
X221448333Y-122642380D02*
X220781666Y-122642380D01*
X221210238Y-123642380D01*
%TO.C,D1*%
X220956095Y-130373380D02*
X220956095Y-129373380D01*
X220718000Y-129373380D01*
X220575142Y-129421000D01*
X220479904Y-129516238D01*
X220432285Y-129611476D01*
X220384666Y-129801952D01*
X220384666Y-129944809D01*
X220432285Y-130135285D01*
X220479904Y-130230523D01*
X220575142Y-130325761D01*
X220718000Y-130373380D01*
X220956095Y-130373380D01*
X219432285Y-130373380D02*
X220003714Y-130373380D01*
X219718000Y-130373380D02*
X219718000Y-129373380D01*
X219813238Y-129516238D01*
X219908476Y-129611476D01*
X220003714Y-129659095D01*
%TO.C,R1*%
X218606666Y-128214380D02*
X218940000Y-127738190D01*
X219178095Y-128214380D02*
X219178095Y-127214380D01*
X218797142Y-127214380D01*
X218701904Y-127262000D01*
X218654285Y-127309619D01*
X218606666Y-127404857D01*
X218606666Y-127547714D01*
X218654285Y-127642952D01*
X218701904Y-127690571D01*
X218797142Y-127738190D01*
X219178095Y-127738190D01*
X217654285Y-128214380D02*
X218225714Y-128214380D01*
X217940000Y-128214380D02*
X217940000Y-127214380D01*
X218035238Y-127357238D01*
X218130476Y-127452476D01*
X218225714Y-127500095D01*
%TO.C,R2*%
X225591666Y-123642380D02*
X225925000Y-123166190D01*
X226163095Y-123642380D02*
X226163095Y-122642380D01*
X225782142Y-122642380D01*
X225686904Y-122690000D01*
X225639285Y-122737619D01*
X225591666Y-122832857D01*
X225591666Y-122975714D01*
X225639285Y-123070952D01*
X225686904Y-123118571D01*
X225782142Y-123166190D01*
X226163095Y-123166190D01*
X225210714Y-122737619D02*
X225163095Y-122690000D01*
X225067857Y-122642380D01*
X224829761Y-122642380D01*
X224734523Y-122690000D01*
X224686904Y-122737619D01*
X224639285Y-122832857D01*
X224639285Y-122928095D01*
X224686904Y-123070952D01*
X225258333Y-123642380D01*
X224639285Y-123642380D01*
%TO.C,R3*%
X223686666Y-123642380D02*
X224020000Y-123166190D01*
X224258095Y-123642380D02*
X224258095Y-122642380D01*
X223877142Y-122642380D01*
X223781904Y-122690000D01*
X223734285Y-122737619D01*
X223686666Y-122832857D01*
X223686666Y-122975714D01*
X223734285Y-123070952D01*
X223781904Y-123118571D01*
X223877142Y-123166190D01*
X224258095Y-123166190D01*
X223353333Y-122642380D02*
X222734285Y-122642380D01*
X223067619Y-123023333D01*
X222924761Y-123023333D01*
X222829523Y-123070952D01*
X222781904Y-123118571D01*
X222734285Y-123213809D01*
X222734285Y-123451904D01*
X222781904Y-123547142D01*
X222829523Y-123594761D01*
X222924761Y-123642380D01*
X223210476Y-123642380D01*
X223305714Y-123594761D01*
X223353333Y-123547142D01*
%TO.C,R4*%
X216003666Y-130594380D02*
X216337000Y-130118190D01*
X216575095Y-130594380D02*
X216575095Y-129594380D01*
X216194142Y-129594380D01*
X216098904Y-129642000D01*
X216051285Y-129689619D01*
X216003666Y-129784857D01*
X216003666Y-129927714D01*
X216051285Y-130022952D01*
X216098904Y-130070571D01*
X216194142Y-130118190D01*
X216575095Y-130118190D01*
X215146523Y-129927714D02*
X215146523Y-130594380D01*
X215384619Y-129546761D02*
X215622714Y-130261047D01*
X215003666Y-130261047D01*
%TO.C,R5*%
X195746666Y-109418380D02*
X196080000Y-108942190D01*
X196318095Y-109418380D02*
X196318095Y-108418380D01*
X195937142Y-108418380D01*
X195841904Y-108466000D01*
X195794285Y-108513619D01*
X195746666Y-108608857D01*
X195746666Y-108751714D01*
X195794285Y-108846952D01*
X195841904Y-108894571D01*
X195937142Y-108942190D01*
X196318095Y-108942190D01*
X194841904Y-108418380D02*
X195318095Y-108418380D01*
X195365714Y-108894571D01*
X195318095Y-108846952D01*
X195222857Y-108799333D01*
X194984761Y-108799333D01*
X194889523Y-108846952D01*
X194841904Y-108894571D01*
X194794285Y-108989809D01*
X194794285Y-109227904D01*
X194841904Y-109323142D01*
X194889523Y-109370761D01*
X194984761Y-109418380D01*
X195222857Y-109418380D01*
X195318095Y-109370761D01*
X195365714Y-109323142D01*
%TO.C,U1*%
X227583904Y-117562380D02*
X227583904Y-118371904D01*
X227536285Y-118467142D01*
X227488666Y-118514761D01*
X227393428Y-118562380D01*
X227202952Y-118562380D01*
X227107714Y-118514761D01*
X227060095Y-118467142D01*
X227012476Y-118371904D01*
X227012476Y-117562380D01*
X226012476Y-118562380D02*
X226583904Y-118562380D01*
X226298190Y-118562380D02*
X226298190Y-117562380D01*
X226393428Y-117705238D01*
X226488666Y-117800476D01*
X226583904Y-117848095D01*
%TO.C,C5*%
X213272666Y-117451142D02*
X213320285Y-117498761D01*
X213463142Y-117546380D01*
X213558380Y-117546380D01*
X213701238Y-117498761D01*
X213796476Y-117403523D01*
X213844095Y-117308285D01*
X213891714Y-117117809D01*
X213891714Y-116974952D01*
X213844095Y-116784476D01*
X213796476Y-116689238D01*
X213701238Y-116594000D01*
X213558380Y-116546380D01*
X213463142Y-116546380D01*
X213320285Y-116594000D01*
X213272666Y-116641619D01*
X212367904Y-116546380D02*
X212844095Y-116546380D01*
X212891714Y-117022571D01*
X212844095Y-116974952D01*
X212748857Y-116927333D01*
X212510761Y-116927333D01*
X212415523Y-116974952D01*
X212367904Y-117022571D01*
X212320285Y-117117809D01*
X212320285Y-117355904D01*
X212367904Y-117451142D01*
X212415523Y-117498761D01*
X212510761Y-117546380D01*
X212748857Y-117546380D01*
X212844095Y-117498761D01*
X212891714Y-117451142D01*
%TO.C,C6*%
X213272666Y-111609142D02*
X213320285Y-111656761D01*
X213463142Y-111704380D01*
X213558380Y-111704380D01*
X213701238Y-111656761D01*
X213796476Y-111561523D01*
X213844095Y-111466285D01*
X213891714Y-111275809D01*
X213891714Y-111132952D01*
X213844095Y-110942476D01*
X213796476Y-110847238D01*
X213701238Y-110752000D01*
X213558380Y-110704380D01*
X213463142Y-110704380D01*
X213320285Y-110752000D01*
X213272666Y-110799619D01*
X212415523Y-110704380D02*
X212606000Y-110704380D01*
X212701238Y-110752000D01*
X212748857Y-110799619D01*
X212844095Y-110942476D01*
X212891714Y-111132952D01*
X212891714Y-111513904D01*
X212844095Y-111609142D01*
X212796476Y-111656761D01*
X212701238Y-111704380D01*
X212510761Y-111704380D01*
X212415523Y-111656761D01*
X212367904Y-111609142D01*
X212320285Y-111513904D01*
X212320285Y-111275809D01*
X212367904Y-111180571D01*
X212415523Y-111132952D01*
X212510761Y-111085333D01*
X212701238Y-111085333D01*
X212796476Y-111132952D01*
X212844095Y-111180571D01*
X212891714Y-111275809D01*
%TO.C,Y1*%
X213455190Y-114149190D02*
X213455190Y-114625380D01*
X213788523Y-113625380D02*
X213455190Y-114149190D01*
X213121857Y-113625380D01*
X212264714Y-114625380D02*
X212836142Y-114625380D01*
X212550428Y-114625380D02*
X212550428Y-113625380D01*
X212645666Y-113768238D01*
X212740904Y-113863476D01*
X212836142Y-113911095D01*
%TO.C,C3*%
X229909666Y-117959142D02*
X229957285Y-118006761D01*
X230100142Y-118054380D01*
X230195380Y-118054380D01*
X230338238Y-118006761D01*
X230433476Y-117911523D01*
X230481095Y-117816285D01*
X230528714Y-117625809D01*
X230528714Y-117482952D01*
X230481095Y-117292476D01*
X230433476Y-117197238D01*
X230338238Y-117102000D01*
X230195380Y-117054380D01*
X230100142Y-117054380D01*
X229957285Y-117102000D01*
X229909666Y-117149619D01*
X229576333Y-117054380D02*
X228957285Y-117054380D01*
X229290619Y-117435333D01*
X229147761Y-117435333D01*
X229052523Y-117482952D01*
X229004904Y-117530571D01*
X228957285Y-117625809D01*
X228957285Y-117863904D01*
X229004904Y-117959142D01*
X229052523Y-118006761D01*
X229147761Y-118054380D01*
X229433476Y-118054380D01*
X229528714Y-118006761D01*
X229576333Y-117959142D01*
%TO.C,C4*%
X229782666Y-112117142D02*
X229830285Y-112164761D01*
X229973142Y-112212380D01*
X230068380Y-112212380D01*
X230211238Y-112164761D01*
X230306476Y-112069523D01*
X230354095Y-111974285D01*
X230401714Y-111783809D01*
X230401714Y-111640952D01*
X230354095Y-111450476D01*
X230306476Y-111355238D01*
X230211238Y-111260000D01*
X230068380Y-111212380D01*
X229973142Y-111212380D01*
X229830285Y-111260000D01*
X229782666Y-111307619D01*
X228925523Y-111545714D02*
X228925523Y-112212380D01*
X229163619Y-111164761D02*
X229401714Y-111879047D01*
X228782666Y-111879047D01*
D11*
%TO.C,C1*%
X217924748Y-121385000D02*
X218447252Y-121385000D01*
X217924748Y-119915000D02*
X218447252Y-119915000D01*
%TO.C,C2*%
X219073000Y-107188580D02*
X219073000Y-106907420D01*
X220093000Y-107188580D02*
X220093000Y-106907420D01*
%TO.C,C7*%
X222506000Y-120255420D02*
X222506000Y-120536580D01*
X221486000Y-120255420D02*
X221486000Y-120536580D01*
%TO.C,D1*%
X218611500Y-132532000D02*
X218611500Y-130612000D01*
X221296500Y-132532000D02*
X218611500Y-132532000D01*
X218611500Y-130612000D02*
X221296500Y-130612000D01*
%TO.C,R1*%
X218266742Y-125715500D02*
X218741258Y-125715500D01*
X218266742Y-126760500D02*
X218741258Y-126760500D01*
%TO.C,R2*%
X225566500Y-120158742D02*
X225566500Y-120633258D01*
X224521500Y-120158742D02*
X224521500Y-120633258D01*
%TO.C,R3*%
X222997500Y-120158742D02*
X222997500Y-120633258D01*
X224042500Y-120158742D02*
X224042500Y-120633258D01*
%TO.C,R4*%
X216074258Y-132094500D02*
X215599742Y-132094500D01*
X216074258Y-131049500D02*
X215599742Y-131049500D01*
%TO.C,R5*%
X193277258Y-109488500D02*
X192802742Y-109488500D01*
X193277258Y-108443500D02*
X192802742Y-108443500D01*
%TO.C,U1*%
X226637000Y-109913000D02*
X225912000Y-109913000D01*
X226637000Y-110638000D02*
X226637000Y-109913000D01*
X219417000Y-109913000D02*
X220142000Y-109913000D01*
X226637000Y-116408000D02*
X226637000Y-117133000D01*
X219417000Y-116408000D02*
X219417000Y-117133000D01*
X219417000Y-110638000D02*
X219417000Y-109913000D01*
X219417000Y-117133000D02*
X220142000Y-117133000D01*
%TO.C,C5*%
X215632420Y-116457000D02*
X215913580Y-116457000D01*
X215632420Y-117477000D02*
X215913580Y-117477000D01*
%TO.C,C6*%
X215786580Y-110742000D02*
X215505420Y-110742000D01*
X215786580Y-111762000D02*
X215505420Y-111762000D01*
%TO.C,Y1*%
X214039000Y-112085000D02*
X217339000Y-112085000D01*
X217339000Y-112085000D02*
X217339000Y-116085000D01*
%TO.C,C3*%
X228602000Y-116218580D02*
X228602000Y-115937420D01*
X227582000Y-116218580D02*
X227582000Y-115937420D01*
%TO.C,C4*%
X228602000Y-110095420D02*
X228602000Y-110376580D01*
X227582000Y-110095420D02*
X227582000Y-110376580D01*
%TD*%
M02*
