%TF.GenerationSoftware,KiCad,Pcbnew,9.0.1*%
%TF.CreationDate,2025-05-09T10:12:14+02:00*%
%TF.ProjectId,xyp-gpib,7879702d-6770-4696-922e-6b696361645f,rev?*%
%TF.SameCoordinates,Original*%
%TF.FileFunction,Copper,L3,Inr*%
%TF.FilePolarity,Positive*%
%FSLAX46Y46*%
G04 Gerber Fmt 4.6, Leading zero omitted, Abs format (unit mm)*
G04 Created by KiCad (PCBNEW 9.0.1) date 2025-05-09 10:12:14*
%MOMM*%
%LPD*%
G01*
G04 APERTURE LIST*
%TA.AperFunction,HeatsinkPad*%
%ADD10O,2.100000X1.000000*%
%TD*%
%TA.AperFunction,HeatsinkPad*%
%ADD11O,1.600000X1.000000*%
%TD*%
%TA.AperFunction,ComponentPad*%
%ADD12R,1.500000X2.000000*%
%TD*%
%TA.AperFunction,ComponentPad*%
%ADD13O,1.500000X2.000000*%
%TD*%
%TA.AperFunction,ViaPad*%
%ADD14C,0.450000*%
%TD*%
G04 APERTURE END LIST*
D10*
%TO.N,GND*%
%TO.C,J1*%
X227336200Y-86916800D03*
D11*
X231516200Y-86916800D03*
D10*
X227336200Y-78276800D03*
D11*
X231516200Y-78276800D03*
%TD*%
D12*
%TO.N,/DIO5*%
%TO.C,GPIB1*%
X218194000Y-84695000D03*
D13*
%TO.N,/DIO1*%
X218194000Y-80405000D03*
%TO.N,/DIO6*%
X216034000Y-84695000D03*
%TO.N,/DIO2*%
X216034000Y-80405000D03*
%TO.N,/DIO7*%
X213874000Y-84695000D03*
%TO.N,/DIO3*%
X213874000Y-80405000D03*
%TO.N,/DIO8*%
X211714000Y-84695000D03*
%TO.N,/DIO4*%
X211714000Y-80405000D03*
%TO.N,/REN*%
X209554000Y-84695000D03*
%TO.N,/EOI*%
X209554000Y-80405000D03*
%TO.N,GND*%
X207394000Y-84695000D03*
%TO.N,/DAV*%
X207394000Y-80405000D03*
%TO.N,GND*%
X205234000Y-84695000D03*
%TO.N,/NRFD*%
X205234000Y-80405000D03*
%TO.N,GND*%
X203074000Y-84695000D03*
%TO.N,/NDAC*%
X203074000Y-80405000D03*
%TO.N,GND*%
X200914000Y-84695000D03*
%TO.N,/IFC*%
X200914000Y-80405000D03*
%TO.N,GND*%
X198754000Y-84695000D03*
%TO.N,/SRQ*%
X198754000Y-80405000D03*
%TO.N,GND*%
X196594000Y-84695000D03*
%TO.N,/ATN*%
X196594000Y-80405000D03*
%TO.N,GND*%
X194434000Y-84695000D03*
X194434000Y-80405000D03*
%TD*%
D14*
%TO.N,GND*%
X190400000Y-81100000D03*
X223000000Y-80000000D03*
X187100000Y-84800000D03*
X223000000Y-76000000D03*
X188850000Y-81150000D03*
X224900000Y-87000000D03*
X181000000Y-84700000D03*
X183000000Y-76000000D03*
X187400000Y-75700000D03*
X208000000Y-78000000D03*
X206000000Y-87000000D03*
X229000000Y-89000000D03*
X232000000Y-80000000D03*
X214000000Y-78000000D03*
X226000000Y-89000000D03*
X232000000Y-89000000D03*
X223000000Y-86000000D03*
X226000000Y-76000000D03*
X229000000Y-83000000D03*
X220000000Y-82550000D03*
X198500000Y-75700000D03*
X181500000Y-83000000D03*
X213900000Y-82600000D03*
X188800000Y-84800000D03*
X223000000Y-89000000D03*
X193100000Y-85100000D03*
X225900000Y-85900000D03*
X193600000Y-77900000D03*
X208000000Y-76000000D03*
X205600000Y-83100000D03*
X187100000Y-81100000D03*
X201500000Y-86750000D03*
X190400000Y-82900000D03*
X217000000Y-76000000D03*
X229000000Y-80000000D03*
X211000000Y-76000000D03*
X190400000Y-84700000D03*
X205000000Y-76000000D03*
X205000000Y-78000000D03*
X224800000Y-82700000D03*
X217000000Y-78000000D03*
X188849000Y-82931000D03*
X225900000Y-79100000D03*
X232000000Y-83000000D03*
X220000000Y-76000000D03*
X232000000Y-76000000D03*
X184600000Y-76000000D03*
X214000000Y-76000000D03*
X193100000Y-81000000D03*
X189000000Y-75700000D03*
X211000000Y-78000000D03*
X184100000Y-82200000D03*
X185575000Y-88725000D03*
X204000000Y-87000000D03*
X199750000Y-86500000D03*
X217000000Y-89000000D03*
X181000000Y-78000000D03*
X221200000Y-77600000D03*
X220000000Y-89000000D03*
X183800000Y-79100000D03*
X193100000Y-81900000D03*
X224800000Y-78000000D03*
X229000000Y-76000000D03*
X195000000Y-77978000D03*
X187100000Y-82900000D03*
%TO.N,+5V*%
X184600000Y-81300000D03*
X191300000Y-77100000D03*
X181600000Y-78700000D03*
X224219700Y-82467880D03*
X187103796Y-88753640D03*
X225900000Y-85100000D03*
X225900000Y-80000000D03*
X184400000Y-88000000D03*
X193100000Y-80300000D03*
X184700000Y-77200000D03*
X193000000Y-85800000D03*
%TO.N,Net-(D1-K)*%
X201600000Y-83400000D03*
X202600000Y-83300000D03*
%TO.N,/DIO4*%
X185035935Y-85978439D03*
%TO.N,/DIO3*%
X184500000Y-86300000D03*
%TO.N,/DIO6*%
X216050000Y-87550000D03*
%TO.N,/DIO2*%
X183800000Y-86000000D03*
%TO.N,/DIO1*%
X183100000Y-86000000D03*
%TO.N,/MOSI*%
X185800000Y-78974997D03*
X221200000Y-86425000D03*
%TO.N,Net-(D1-A)*%
X198300000Y-82800000D03*
X193600000Y-82800000D03*
%TO.N,/SCK*%
X181900000Y-85600000D03*
X185200000Y-78700000D03*
%TO.N,/MISO*%
X185800000Y-79600000D03*
X183800000Y-87700000D03*
%TO.N,Net-(D2-K)*%
X210100000Y-83400000D03*
X211100000Y-83400000D03*
%TO.N,Net-(D2-A)*%
X206800000Y-82300000D03*
X194000000Y-82300000D03*
%TD*%
%TA.AperFunction,Conductor*%
%TO.N,+5V*%
G36*
X187116936Y-75219407D02*
G01*
X187152900Y-75268907D01*
X187152900Y-75330093D01*
X187128750Y-75369501D01*
X187069770Y-75428482D01*
X187059513Y-75438739D01*
X187003498Y-75535758D01*
X186987286Y-75596263D01*
X186974500Y-75643982D01*
X186974500Y-75756018D01*
X186998081Y-75844025D01*
X187003498Y-75864241D01*
X187049538Y-75943983D01*
X187059515Y-75961263D01*
X187138737Y-76040485D01*
X187165641Y-76056018D01*
X187235759Y-76096501D01*
X187235757Y-76096501D01*
X187235761Y-76096502D01*
X187235763Y-76096503D01*
X187343982Y-76125500D01*
X187343984Y-76125500D01*
X187456016Y-76125500D01*
X187456018Y-76125500D01*
X187564237Y-76096503D01*
X187564239Y-76096501D01*
X187564241Y-76096501D01*
X187593064Y-76079859D01*
X187661263Y-76040485D01*
X187740485Y-75961263D01*
X187779859Y-75893064D01*
X187796501Y-75864241D01*
X187796501Y-75864239D01*
X187796503Y-75864237D01*
X187825500Y-75756018D01*
X187825500Y-75643982D01*
X187796503Y-75535763D01*
X187796501Y-75535760D01*
X187796501Y-75535758D01*
X187740486Y-75438739D01*
X187740485Y-75438737D01*
X187671249Y-75369501D01*
X187643474Y-75314987D01*
X187653045Y-75254555D01*
X187696310Y-75211290D01*
X187741255Y-75200500D01*
X188658745Y-75200500D01*
X188716936Y-75219407D01*
X188752900Y-75268907D01*
X188752900Y-75330093D01*
X188728750Y-75369501D01*
X188669770Y-75428482D01*
X188659513Y-75438739D01*
X188603498Y-75535758D01*
X188587286Y-75596263D01*
X188574500Y-75643982D01*
X188574500Y-75756018D01*
X188598081Y-75844025D01*
X188603498Y-75864241D01*
X188649538Y-75943983D01*
X188659515Y-75961263D01*
X188738737Y-76040485D01*
X188765641Y-76056018D01*
X188835759Y-76096501D01*
X188835757Y-76096501D01*
X188835761Y-76096502D01*
X188835763Y-76096503D01*
X188943982Y-76125500D01*
X188943984Y-76125500D01*
X189056016Y-76125500D01*
X189056018Y-76125500D01*
X189164237Y-76096503D01*
X189164239Y-76096501D01*
X189164241Y-76096501D01*
X189193064Y-76079859D01*
X189261263Y-76040485D01*
X189340485Y-75961263D01*
X189379859Y-75893064D01*
X189396501Y-75864241D01*
X189396501Y-75864239D01*
X189396503Y-75864237D01*
X189425500Y-75756018D01*
X189425500Y-75643982D01*
X189396503Y-75535763D01*
X189396501Y-75535760D01*
X189396501Y-75535758D01*
X189340486Y-75438739D01*
X189340485Y-75438737D01*
X189271249Y-75369501D01*
X189243474Y-75314987D01*
X189253045Y-75254555D01*
X189296310Y-75211290D01*
X189341255Y-75200500D01*
X198158745Y-75200500D01*
X198216936Y-75219407D01*
X198252900Y-75268907D01*
X198252900Y-75330093D01*
X198228750Y-75369501D01*
X198169770Y-75428482D01*
X198159513Y-75438739D01*
X198103498Y-75535758D01*
X198087286Y-75596263D01*
X198074500Y-75643982D01*
X198074500Y-75756018D01*
X198098081Y-75844025D01*
X198103498Y-75864241D01*
X198149538Y-75943983D01*
X198159515Y-75961263D01*
X198238737Y-76040485D01*
X198265641Y-76056018D01*
X198335759Y-76096501D01*
X198335757Y-76096501D01*
X198335761Y-76096502D01*
X198335763Y-76096503D01*
X198443982Y-76125500D01*
X198443984Y-76125500D01*
X198556016Y-76125500D01*
X198556018Y-76125500D01*
X198664237Y-76096503D01*
X198664239Y-76096501D01*
X198664241Y-76096501D01*
X198693064Y-76079859D01*
X198761263Y-76040485D01*
X198840485Y-75961263D01*
X198850462Y-75943982D01*
X204574500Y-75943982D01*
X204574500Y-76056018D01*
X204585348Y-76096503D01*
X204603498Y-76164241D01*
X204659513Y-76261260D01*
X204659515Y-76261263D01*
X204738737Y-76340485D01*
X204738739Y-76340486D01*
X204835759Y-76396501D01*
X204835757Y-76396501D01*
X204835761Y-76396502D01*
X204835763Y-76396503D01*
X204943982Y-76425500D01*
X204943984Y-76425500D01*
X205056016Y-76425500D01*
X205056018Y-76425500D01*
X205164237Y-76396503D01*
X205164239Y-76396501D01*
X205164241Y-76396501D01*
X205193064Y-76379859D01*
X205261263Y-76340485D01*
X205340485Y-76261263D01*
X205396503Y-76164237D01*
X205425500Y-76056018D01*
X205425500Y-75943982D01*
X207574500Y-75943982D01*
X207574500Y-76056018D01*
X207585348Y-76096503D01*
X207603498Y-76164241D01*
X207659513Y-76261260D01*
X207659515Y-76261263D01*
X207738737Y-76340485D01*
X207738739Y-76340486D01*
X207835759Y-76396501D01*
X207835757Y-76396501D01*
X207835761Y-76396502D01*
X207835763Y-76396503D01*
X207943982Y-76425500D01*
X207943984Y-76425500D01*
X208056016Y-76425500D01*
X208056018Y-76425500D01*
X208164237Y-76396503D01*
X208164239Y-76396501D01*
X208164241Y-76396501D01*
X208193064Y-76379859D01*
X208261263Y-76340485D01*
X208340485Y-76261263D01*
X208396503Y-76164237D01*
X208425500Y-76056018D01*
X208425500Y-75943982D01*
X210574500Y-75943982D01*
X210574500Y-76056018D01*
X210585348Y-76096503D01*
X210603498Y-76164241D01*
X210659513Y-76261260D01*
X210659515Y-76261263D01*
X210738737Y-76340485D01*
X210738739Y-76340486D01*
X210835759Y-76396501D01*
X210835757Y-76396501D01*
X210835761Y-76396502D01*
X210835763Y-76396503D01*
X210943982Y-76425500D01*
X210943984Y-76425500D01*
X211056016Y-76425500D01*
X211056018Y-76425500D01*
X211164237Y-76396503D01*
X211164239Y-76396501D01*
X211164241Y-76396501D01*
X211193064Y-76379859D01*
X211261263Y-76340485D01*
X211340485Y-76261263D01*
X211396503Y-76164237D01*
X211425500Y-76056018D01*
X211425500Y-75943982D01*
X213574500Y-75943982D01*
X213574500Y-76056018D01*
X213585348Y-76096503D01*
X213603498Y-76164241D01*
X213659513Y-76261260D01*
X213659515Y-76261263D01*
X213738737Y-76340485D01*
X213738739Y-76340486D01*
X213835759Y-76396501D01*
X213835757Y-76396501D01*
X213835761Y-76396502D01*
X213835763Y-76396503D01*
X213943982Y-76425500D01*
X213943984Y-76425500D01*
X214056016Y-76425500D01*
X214056018Y-76425500D01*
X214164237Y-76396503D01*
X214164239Y-76396501D01*
X214164241Y-76396501D01*
X214193064Y-76379859D01*
X214261263Y-76340485D01*
X214340485Y-76261263D01*
X214396503Y-76164237D01*
X214425500Y-76056018D01*
X214425500Y-75943982D01*
X216574500Y-75943982D01*
X216574500Y-76056018D01*
X216585348Y-76096503D01*
X216603498Y-76164241D01*
X216659513Y-76261260D01*
X216659515Y-76261263D01*
X216738737Y-76340485D01*
X216738739Y-76340486D01*
X216835759Y-76396501D01*
X216835757Y-76396501D01*
X216835761Y-76396502D01*
X216835763Y-76396503D01*
X216943982Y-76425500D01*
X216943984Y-76425500D01*
X217056016Y-76425500D01*
X217056018Y-76425500D01*
X217164237Y-76396503D01*
X217164239Y-76396501D01*
X217164241Y-76396501D01*
X217193064Y-76379859D01*
X217261263Y-76340485D01*
X217340485Y-76261263D01*
X217396503Y-76164237D01*
X217425500Y-76056018D01*
X217425500Y-75943982D01*
X219574500Y-75943982D01*
X219574500Y-76056018D01*
X219585348Y-76096503D01*
X219603498Y-76164241D01*
X219659513Y-76261260D01*
X219659515Y-76261263D01*
X219738737Y-76340485D01*
X219738739Y-76340486D01*
X219835759Y-76396501D01*
X219835757Y-76396501D01*
X219835761Y-76396502D01*
X219835763Y-76396503D01*
X219943982Y-76425500D01*
X219943984Y-76425500D01*
X220056016Y-76425500D01*
X220056018Y-76425500D01*
X220164237Y-76396503D01*
X220164239Y-76396501D01*
X220164241Y-76396501D01*
X220193064Y-76379859D01*
X220261263Y-76340485D01*
X220340485Y-76261263D01*
X220396503Y-76164237D01*
X220425500Y-76056018D01*
X220425500Y-75943982D01*
X222574500Y-75943982D01*
X222574500Y-76056018D01*
X222585348Y-76096503D01*
X222603498Y-76164241D01*
X222659513Y-76261260D01*
X222659515Y-76261263D01*
X222738737Y-76340485D01*
X222738739Y-76340486D01*
X222835759Y-76396501D01*
X222835757Y-76396501D01*
X222835761Y-76396502D01*
X222835763Y-76396503D01*
X222943982Y-76425500D01*
X222943984Y-76425500D01*
X223056016Y-76425500D01*
X223056018Y-76425500D01*
X223164237Y-76396503D01*
X223164239Y-76396501D01*
X223164241Y-76396501D01*
X223193064Y-76379859D01*
X223261263Y-76340485D01*
X223340485Y-76261263D01*
X223396503Y-76164237D01*
X223425500Y-76056018D01*
X223425500Y-75943982D01*
X225574500Y-75943982D01*
X225574500Y-76056018D01*
X225585348Y-76096503D01*
X225603498Y-76164241D01*
X225659513Y-76261260D01*
X225659515Y-76261263D01*
X225738737Y-76340485D01*
X225738739Y-76340486D01*
X225835759Y-76396501D01*
X225835757Y-76396501D01*
X225835761Y-76396502D01*
X225835763Y-76396503D01*
X225943982Y-76425500D01*
X225943984Y-76425500D01*
X226056016Y-76425500D01*
X226056018Y-76425500D01*
X226164237Y-76396503D01*
X226164239Y-76396501D01*
X226164241Y-76396501D01*
X226193064Y-76379859D01*
X226261263Y-76340485D01*
X226340485Y-76261263D01*
X226396503Y-76164237D01*
X226425500Y-76056018D01*
X226425500Y-75943982D01*
X228574500Y-75943982D01*
X228574500Y-76056018D01*
X228585348Y-76096503D01*
X228603498Y-76164241D01*
X228659513Y-76261260D01*
X228659515Y-76261263D01*
X228738737Y-76340485D01*
X228738739Y-76340486D01*
X228835759Y-76396501D01*
X228835757Y-76396501D01*
X228835761Y-76396502D01*
X228835763Y-76396503D01*
X228943982Y-76425500D01*
X228943984Y-76425500D01*
X229056016Y-76425500D01*
X229056018Y-76425500D01*
X229164237Y-76396503D01*
X229164239Y-76396501D01*
X229164241Y-76396501D01*
X229193064Y-76379859D01*
X229261263Y-76340485D01*
X229340485Y-76261263D01*
X229396503Y-76164237D01*
X229425500Y-76056018D01*
X229425500Y-75943982D01*
X231574500Y-75943982D01*
X231574500Y-76056018D01*
X231585348Y-76096503D01*
X231603498Y-76164241D01*
X231659513Y-76261260D01*
X231659515Y-76261263D01*
X231738737Y-76340485D01*
X231738739Y-76340486D01*
X231835759Y-76396501D01*
X231835757Y-76396501D01*
X231835761Y-76396502D01*
X231835763Y-76396503D01*
X231943982Y-76425500D01*
X231943984Y-76425500D01*
X232056016Y-76425500D01*
X232056018Y-76425500D01*
X232164237Y-76396503D01*
X232164239Y-76396501D01*
X232164241Y-76396501D01*
X232193064Y-76379859D01*
X232261263Y-76340485D01*
X232340485Y-76261263D01*
X232396503Y-76164237D01*
X232425500Y-76056018D01*
X232425500Y-75943982D01*
X232396503Y-75835763D01*
X232396501Y-75835760D01*
X232396501Y-75835758D01*
X232340486Y-75738739D01*
X232340485Y-75738737D01*
X232261263Y-75659515D01*
X232234361Y-75643983D01*
X232164240Y-75603498D01*
X232164242Y-75603498D01*
X232122251Y-75592247D01*
X232056018Y-75574500D01*
X231943982Y-75574500D01*
X231877748Y-75592247D01*
X231835758Y-75603498D01*
X231738739Y-75659513D01*
X231659513Y-75738739D01*
X231603498Y-75835758D01*
X231603497Y-75835763D01*
X231574500Y-75943982D01*
X229425500Y-75943982D01*
X229396503Y-75835763D01*
X229396501Y-75835760D01*
X229396501Y-75835758D01*
X229340486Y-75738739D01*
X229340485Y-75738737D01*
X229261263Y-75659515D01*
X229234361Y-75643983D01*
X229164240Y-75603498D01*
X229164242Y-75603498D01*
X229122251Y-75592247D01*
X229056018Y-75574500D01*
X228943982Y-75574500D01*
X228877748Y-75592247D01*
X228835758Y-75603498D01*
X228738739Y-75659513D01*
X228659513Y-75738739D01*
X228603498Y-75835758D01*
X228603497Y-75835763D01*
X228574500Y-75943982D01*
X226425500Y-75943982D01*
X226396503Y-75835763D01*
X226396501Y-75835760D01*
X226396501Y-75835758D01*
X226340486Y-75738739D01*
X226340485Y-75738737D01*
X226261263Y-75659515D01*
X226234361Y-75643983D01*
X226164240Y-75603498D01*
X226164242Y-75603498D01*
X226122251Y-75592247D01*
X226056018Y-75574500D01*
X225943982Y-75574500D01*
X225877748Y-75592247D01*
X225835758Y-75603498D01*
X225738739Y-75659513D01*
X225659513Y-75738739D01*
X225603498Y-75835758D01*
X225603497Y-75835763D01*
X225574500Y-75943982D01*
X223425500Y-75943982D01*
X223396503Y-75835763D01*
X223396501Y-75835760D01*
X223396501Y-75835758D01*
X223340486Y-75738739D01*
X223340485Y-75738737D01*
X223261263Y-75659515D01*
X223234361Y-75643983D01*
X223164240Y-75603498D01*
X223164242Y-75603498D01*
X223122251Y-75592247D01*
X223056018Y-75574500D01*
X222943982Y-75574500D01*
X222877748Y-75592247D01*
X222835758Y-75603498D01*
X222738739Y-75659513D01*
X222659513Y-75738739D01*
X222603498Y-75835758D01*
X222603497Y-75835763D01*
X222574500Y-75943982D01*
X220425500Y-75943982D01*
X220396503Y-75835763D01*
X220396501Y-75835760D01*
X220396501Y-75835758D01*
X220340486Y-75738739D01*
X220340485Y-75738737D01*
X220261263Y-75659515D01*
X220234361Y-75643983D01*
X220164240Y-75603498D01*
X220164242Y-75603498D01*
X220122251Y-75592247D01*
X220056018Y-75574500D01*
X219943982Y-75574500D01*
X219877748Y-75592247D01*
X219835758Y-75603498D01*
X219738739Y-75659513D01*
X219659513Y-75738739D01*
X219603498Y-75835758D01*
X219603497Y-75835763D01*
X219574500Y-75943982D01*
X217425500Y-75943982D01*
X217396503Y-75835763D01*
X217396501Y-75835760D01*
X217396501Y-75835758D01*
X217340486Y-75738739D01*
X217340485Y-75738737D01*
X217261263Y-75659515D01*
X217234361Y-75643983D01*
X217164240Y-75603498D01*
X217164242Y-75603498D01*
X217122251Y-75592247D01*
X217056018Y-75574500D01*
X216943982Y-75574500D01*
X216877748Y-75592247D01*
X216835758Y-75603498D01*
X216738739Y-75659513D01*
X216659513Y-75738739D01*
X216603498Y-75835758D01*
X216603497Y-75835763D01*
X216574500Y-75943982D01*
X214425500Y-75943982D01*
X214396503Y-75835763D01*
X214396501Y-75835760D01*
X214396501Y-75835758D01*
X214340486Y-75738739D01*
X214340485Y-75738737D01*
X214261263Y-75659515D01*
X214234361Y-75643983D01*
X214164240Y-75603498D01*
X214164242Y-75603498D01*
X214122251Y-75592247D01*
X214056018Y-75574500D01*
X213943982Y-75574500D01*
X213877748Y-75592247D01*
X213835758Y-75603498D01*
X213738739Y-75659513D01*
X213659513Y-75738739D01*
X213603498Y-75835758D01*
X213603497Y-75835763D01*
X213574500Y-75943982D01*
X211425500Y-75943982D01*
X211396503Y-75835763D01*
X211396501Y-75835760D01*
X211396501Y-75835758D01*
X211340486Y-75738739D01*
X211340485Y-75738737D01*
X211261263Y-75659515D01*
X211234361Y-75643983D01*
X211164240Y-75603498D01*
X211164242Y-75603498D01*
X211122251Y-75592247D01*
X211056018Y-75574500D01*
X210943982Y-75574500D01*
X210877748Y-75592247D01*
X210835758Y-75603498D01*
X210738739Y-75659513D01*
X210659513Y-75738739D01*
X210603498Y-75835758D01*
X210603497Y-75835763D01*
X210574500Y-75943982D01*
X208425500Y-75943982D01*
X208396503Y-75835763D01*
X208396501Y-75835760D01*
X208396501Y-75835758D01*
X208340486Y-75738739D01*
X208340485Y-75738737D01*
X208261263Y-75659515D01*
X208234361Y-75643983D01*
X208164240Y-75603498D01*
X208164242Y-75603498D01*
X208122251Y-75592247D01*
X208056018Y-75574500D01*
X207943982Y-75574500D01*
X207877748Y-75592247D01*
X207835758Y-75603498D01*
X207738739Y-75659513D01*
X207659513Y-75738739D01*
X207603498Y-75835758D01*
X207603497Y-75835763D01*
X207574500Y-75943982D01*
X205425500Y-75943982D01*
X205396503Y-75835763D01*
X205396501Y-75835760D01*
X205396501Y-75835758D01*
X205340486Y-75738739D01*
X205340485Y-75738737D01*
X205261263Y-75659515D01*
X205234361Y-75643983D01*
X205164240Y-75603498D01*
X205164242Y-75603498D01*
X205122251Y-75592247D01*
X205056018Y-75574500D01*
X204943982Y-75574500D01*
X204877748Y-75592247D01*
X204835758Y-75603498D01*
X204738739Y-75659513D01*
X204659513Y-75738739D01*
X204603498Y-75835758D01*
X204603497Y-75835763D01*
X204574500Y-75943982D01*
X198850462Y-75943982D01*
X198872669Y-75905519D01*
X198882788Y-75887993D01*
X198882788Y-75887992D01*
X198896503Y-75864237D01*
X198925500Y-75756018D01*
X198925500Y-75643982D01*
X198896503Y-75535763D01*
X198896501Y-75535760D01*
X198896501Y-75535758D01*
X198840486Y-75438739D01*
X198840485Y-75438737D01*
X198771249Y-75369501D01*
X198743474Y-75314987D01*
X198753045Y-75254555D01*
X198796310Y-75211290D01*
X198841255Y-75200500D01*
X232960118Y-75200500D01*
X232995139Y-75200500D01*
X233004842Y-75200977D01*
X233064184Y-75206821D01*
X233146271Y-75214906D01*
X233165302Y-75218691D01*
X233296628Y-75258528D01*
X233314551Y-75265953D01*
X233435581Y-75330645D01*
X233451710Y-75341421D01*
X233527196Y-75403371D01*
X233557794Y-75428482D01*
X233571517Y-75442205D01*
X233651092Y-75539168D01*
X233658575Y-75548285D01*
X233669356Y-75564420D01*
X233701701Y-75624933D01*
X233734045Y-75685445D01*
X233741472Y-75703375D01*
X233781307Y-75834694D01*
X233785093Y-75853728D01*
X233799023Y-75995156D01*
X233799500Y-76004860D01*
X233799500Y-88995139D01*
X233799023Y-89004842D01*
X233799023Y-89004843D01*
X233785093Y-89146271D01*
X233781307Y-89165305D01*
X233741472Y-89296624D01*
X233734045Y-89314554D01*
X233669357Y-89435577D01*
X233658575Y-89451714D01*
X233571517Y-89557794D01*
X233557794Y-89571517D01*
X233451714Y-89658575D01*
X233435577Y-89669357D01*
X233314554Y-89734045D01*
X233296624Y-89741472D01*
X233165305Y-89781307D01*
X233146271Y-89785093D01*
X233004843Y-89799023D01*
X232995139Y-89799500D01*
X181004861Y-89799500D01*
X180995157Y-89799023D01*
X180853728Y-89785093D01*
X180834694Y-89781307D01*
X180703375Y-89741472D01*
X180685445Y-89734045D01*
X180564422Y-89669357D01*
X180548287Y-89658576D01*
X180495245Y-89615046D01*
X180442205Y-89571517D01*
X180428482Y-89557794D01*
X180403371Y-89527196D01*
X180341421Y-89451710D01*
X180330645Y-89435581D01*
X180265953Y-89314551D01*
X180258527Y-89296624D01*
X180253823Y-89281118D01*
X180218691Y-89165302D01*
X180214906Y-89146270D01*
X180200977Y-89004842D01*
X180200500Y-88995139D01*
X180200500Y-88668982D01*
X185149500Y-88668982D01*
X185149500Y-88781018D01*
X185164169Y-88835763D01*
X185178498Y-88889241D01*
X185219420Y-88960118D01*
X185234515Y-88986263D01*
X185313737Y-89065485D01*
X185313739Y-89065486D01*
X185410759Y-89121501D01*
X185410757Y-89121501D01*
X185410761Y-89121502D01*
X185410763Y-89121503D01*
X185518982Y-89150500D01*
X185518984Y-89150500D01*
X185631016Y-89150500D01*
X185631018Y-89150500D01*
X185739237Y-89121503D01*
X185739239Y-89121501D01*
X185739241Y-89121501D01*
X185786040Y-89094481D01*
X185836263Y-89065485D01*
X185915485Y-88986263D01*
X185939896Y-88943982D01*
X216574500Y-88943982D01*
X216574500Y-89056018D01*
X216577037Y-89065485D01*
X216603498Y-89164241D01*
X216659513Y-89261260D01*
X216659515Y-89261263D01*
X216738737Y-89340485D01*
X216738739Y-89340486D01*
X216835759Y-89396501D01*
X216835757Y-89396501D01*
X216835761Y-89396502D01*
X216835763Y-89396503D01*
X216943982Y-89425500D01*
X216943984Y-89425500D01*
X217056016Y-89425500D01*
X217056018Y-89425500D01*
X217164237Y-89396503D01*
X217164239Y-89396501D01*
X217164241Y-89396501D01*
X217193064Y-89379859D01*
X217261263Y-89340485D01*
X217340485Y-89261263D01*
X217379859Y-89193064D01*
X217396501Y-89164241D01*
X217396501Y-89164239D01*
X217396503Y-89164237D01*
X217425500Y-89056018D01*
X217425500Y-88943982D01*
X219574500Y-88943982D01*
X219574500Y-89056018D01*
X219577037Y-89065485D01*
X219603498Y-89164241D01*
X219659513Y-89261260D01*
X219659515Y-89261263D01*
X219738737Y-89340485D01*
X219738739Y-89340486D01*
X219835759Y-89396501D01*
X219835757Y-89396501D01*
X219835761Y-89396502D01*
X219835763Y-89396503D01*
X219943982Y-89425500D01*
X219943984Y-89425500D01*
X220056016Y-89425500D01*
X220056018Y-89425500D01*
X220164237Y-89396503D01*
X220164239Y-89396501D01*
X220164241Y-89396501D01*
X220193064Y-89379859D01*
X220261263Y-89340485D01*
X220340485Y-89261263D01*
X220379859Y-89193064D01*
X220396501Y-89164241D01*
X220396501Y-89164239D01*
X220396503Y-89164237D01*
X220425500Y-89056018D01*
X220425500Y-88943982D01*
X222574500Y-88943982D01*
X222574500Y-89056018D01*
X222577037Y-89065485D01*
X222603498Y-89164241D01*
X222659513Y-89261260D01*
X222659515Y-89261263D01*
X222738737Y-89340485D01*
X222738739Y-89340486D01*
X222835759Y-89396501D01*
X222835757Y-89396501D01*
X222835761Y-89396502D01*
X222835763Y-89396503D01*
X222943982Y-89425500D01*
X222943984Y-89425500D01*
X223056016Y-89425500D01*
X223056018Y-89425500D01*
X223164237Y-89396503D01*
X223164239Y-89396501D01*
X223164241Y-89396501D01*
X223193064Y-89379859D01*
X223261263Y-89340485D01*
X223340485Y-89261263D01*
X223379859Y-89193064D01*
X223396501Y-89164241D01*
X223396501Y-89164239D01*
X223396503Y-89164237D01*
X223425500Y-89056018D01*
X223425500Y-88943982D01*
X225574500Y-88943982D01*
X225574500Y-89056018D01*
X225577037Y-89065485D01*
X225603498Y-89164241D01*
X225659513Y-89261260D01*
X225659515Y-89261263D01*
X225738737Y-89340485D01*
X225738739Y-89340486D01*
X225835759Y-89396501D01*
X225835757Y-89396501D01*
X225835761Y-89396502D01*
X225835763Y-89396503D01*
X225943982Y-89425500D01*
X225943984Y-89425500D01*
X226056016Y-89425500D01*
X226056018Y-89425500D01*
X226164237Y-89396503D01*
X226164239Y-89396501D01*
X226164241Y-89396501D01*
X226193064Y-89379859D01*
X226261263Y-89340485D01*
X226340485Y-89261263D01*
X226379859Y-89193064D01*
X226396501Y-89164241D01*
X226396501Y-89164239D01*
X226396503Y-89164237D01*
X226425500Y-89056018D01*
X226425500Y-88943982D01*
X228574500Y-88943982D01*
X228574500Y-89056018D01*
X228577037Y-89065485D01*
X228603498Y-89164241D01*
X228659513Y-89261260D01*
X228659515Y-89261263D01*
X228738737Y-89340485D01*
X228738739Y-89340486D01*
X228835759Y-89396501D01*
X228835757Y-89396501D01*
X228835761Y-89396502D01*
X228835763Y-89396503D01*
X228943982Y-89425500D01*
X228943984Y-89425500D01*
X229056016Y-89425500D01*
X229056018Y-89425500D01*
X229164237Y-89396503D01*
X229164239Y-89396501D01*
X229164241Y-89396501D01*
X229193064Y-89379859D01*
X229261263Y-89340485D01*
X229340485Y-89261263D01*
X229379859Y-89193064D01*
X229396501Y-89164241D01*
X229396501Y-89164239D01*
X229396503Y-89164237D01*
X229425500Y-89056018D01*
X229425500Y-88943982D01*
X231574500Y-88943982D01*
X231574500Y-89056018D01*
X231577037Y-89065485D01*
X231603498Y-89164241D01*
X231659513Y-89261260D01*
X231659515Y-89261263D01*
X231738737Y-89340485D01*
X231738739Y-89340486D01*
X231835759Y-89396501D01*
X231835757Y-89396501D01*
X231835761Y-89396502D01*
X231835763Y-89396503D01*
X231943982Y-89425500D01*
X231943984Y-89425500D01*
X232056016Y-89425500D01*
X232056018Y-89425500D01*
X232164237Y-89396503D01*
X232164239Y-89396501D01*
X232164241Y-89396501D01*
X232193064Y-89379859D01*
X232261263Y-89340485D01*
X232340485Y-89261263D01*
X232379859Y-89193064D01*
X232396501Y-89164241D01*
X232396501Y-89164239D01*
X232396503Y-89164237D01*
X232425500Y-89056018D01*
X232425500Y-88943982D01*
X232396503Y-88835763D01*
X232396501Y-88835760D01*
X232396501Y-88835758D01*
X232340486Y-88738739D01*
X232340485Y-88738737D01*
X232261263Y-88659515D01*
X232261260Y-88659513D01*
X232164240Y-88603498D01*
X232164242Y-88603498D01*
X232122251Y-88592247D01*
X232056018Y-88574500D01*
X231943982Y-88574500D01*
X231877748Y-88592247D01*
X231835758Y-88603498D01*
X231738739Y-88659513D01*
X231659513Y-88738739D01*
X231603498Y-88835758D01*
X231603497Y-88835763D01*
X231574500Y-88943982D01*
X229425500Y-88943982D01*
X229396503Y-88835763D01*
X229396501Y-88835760D01*
X229396501Y-88835758D01*
X229340486Y-88738739D01*
X229340485Y-88738737D01*
X229261263Y-88659515D01*
X229261260Y-88659513D01*
X229164240Y-88603498D01*
X229164242Y-88603498D01*
X229122251Y-88592247D01*
X229056018Y-88574500D01*
X228943982Y-88574500D01*
X228877748Y-88592247D01*
X228835758Y-88603498D01*
X228738739Y-88659513D01*
X228659513Y-88738739D01*
X228603498Y-88835758D01*
X228603497Y-88835763D01*
X228574500Y-88943982D01*
X226425500Y-88943982D01*
X226396503Y-88835763D01*
X226396501Y-88835760D01*
X226396501Y-88835758D01*
X226340486Y-88738739D01*
X226340485Y-88738737D01*
X226261263Y-88659515D01*
X226261260Y-88659513D01*
X226164240Y-88603498D01*
X226164242Y-88603498D01*
X226122251Y-88592247D01*
X226056018Y-88574500D01*
X225943982Y-88574500D01*
X225877748Y-88592247D01*
X225835758Y-88603498D01*
X225738739Y-88659513D01*
X225659513Y-88738739D01*
X225603498Y-88835758D01*
X225603497Y-88835763D01*
X225574500Y-88943982D01*
X223425500Y-88943982D01*
X223396503Y-88835763D01*
X223396501Y-88835760D01*
X223396501Y-88835758D01*
X223340486Y-88738739D01*
X223340485Y-88738737D01*
X223261263Y-88659515D01*
X223261260Y-88659513D01*
X223164240Y-88603498D01*
X223164242Y-88603498D01*
X223122251Y-88592247D01*
X223056018Y-88574500D01*
X222943982Y-88574500D01*
X222877748Y-88592247D01*
X222835758Y-88603498D01*
X222738739Y-88659513D01*
X222659513Y-88738739D01*
X222603498Y-88835758D01*
X222603497Y-88835763D01*
X222574500Y-88943982D01*
X220425500Y-88943982D01*
X220396503Y-88835763D01*
X220396501Y-88835760D01*
X220396501Y-88835758D01*
X220340486Y-88738739D01*
X220340485Y-88738737D01*
X220261263Y-88659515D01*
X220261260Y-88659513D01*
X220164240Y-88603498D01*
X220164242Y-88603498D01*
X220122251Y-88592247D01*
X220056018Y-88574500D01*
X219943982Y-88574500D01*
X219877748Y-88592247D01*
X219835758Y-88603498D01*
X219738739Y-88659513D01*
X219659513Y-88738739D01*
X219603498Y-88835758D01*
X219603497Y-88835763D01*
X219574500Y-88943982D01*
X217425500Y-88943982D01*
X217396503Y-88835763D01*
X217396501Y-88835760D01*
X217396501Y-88835758D01*
X217340486Y-88738739D01*
X217340485Y-88738737D01*
X217261263Y-88659515D01*
X217261260Y-88659513D01*
X217164240Y-88603498D01*
X217164242Y-88603498D01*
X217122251Y-88592247D01*
X217056018Y-88574500D01*
X216943982Y-88574500D01*
X216877748Y-88592247D01*
X216835758Y-88603498D01*
X216738739Y-88659513D01*
X216659513Y-88738739D01*
X216603498Y-88835758D01*
X216603497Y-88835763D01*
X216574500Y-88943982D01*
X185939896Y-88943982D01*
X185971503Y-88889237D01*
X186000500Y-88781018D01*
X186000500Y-88668982D01*
X185971503Y-88560763D01*
X185971501Y-88560760D01*
X185971501Y-88560758D01*
X185915486Y-88463739D01*
X185915485Y-88463737D01*
X185836263Y-88384515D01*
X185836260Y-88384513D01*
X185739240Y-88328498D01*
X185739242Y-88328498D01*
X185697251Y-88317247D01*
X185631018Y-88299500D01*
X185518982Y-88299500D01*
X185452748Y-88317247D01*
X185410758Y-88328498D01*
X185313739Y-88384513D01*
X185234513Y-88463739D01*
X185178498Y-88560758D01*
X185167046Y-88603498D01*
X185149500Y-88668982D01*
X180200500Y-88668982D01*
X180200500Y-87643982D01*
X183374500Y-87643982D01*
X183374500Y-87756018D01*
X183389302Y-87811260D01*
X183403498Y-87864241D01*
X183450992Y-87946501D01*
X183459515Y-87961263D01*
X183538737Y-88040485D01*
X183538739Y-88040486D01*
X183635759Y-88096501D01*
X183635757Y-88096501D01*
X183635761Y-88096502D01*
X183635763Y-88096503D01*
X183743982Y-88125500D01*
X183743984Y-88125500D01*
X183856016Y-88125500D01*
X183856018Y-88125500D01*
X183964237Y-88096503D01*
X183964239Y-88096501D01*
X183964241Y-88096501D01*
X183993064Y-88079859D01*
X184061263Y-88040485D01*
X184140485Y-87961263D01*
X184196503Y-87864237D01*
X184225500Y-87756018D01*
X184225500Y-87643982D01*
X184196503Y-87535763D01*
X184196501Y-87535760D01*
X184196501Y-87535758D01*
X184172381Y-87493982D01*
X215624500Y-87493982D01*
X215624500Y-87606018D01*
X215634673Y-87643983D01*
X215653498Y-87714241D01*
X215709513Y-87811260D01*
X215709515Y-87811263D01*
X215788737Y-87890485D01*
X215788739Y-87890486D01*
X215885759Y-87946501D01*
X215885757Y-87946501D01*
X215885761Y-87946502D01*
X215885763Y-87946503D01*
X215993982Y-87975500D01*
X215993984Y-87975500D01*
X216106016Y-87975500D01*
X216106018Y-87975500D01*
X216214237Y-87946503D01*
X216214239Y-87946501D01*
X216214241Y-87946501D01*
X216243064Y-87929859D01*
X216311263Y-87890485D01*
X216390485Y-87811263D01*
X216446503Y-87714237D01*
X216475500Y-87606018D01*
X216475500Y-87493982D01*
X216446503Y-87385763D01*
X216446501Y-87385760D01*
X216446501Y-87385758D01*
X216390486Y-87288739D01*
X216390485Y-87288737D01*
X216311263Y-87209515D01*
X216311260Y-87209513D01*
X216214240Y-87153498D01*
X216214242Y-87153498D01*
X216172251Y-87142247D01*
X216106018Y-87124500D01*
X215993982Y-87124500D01*
X215927748Y-87142247D01*
X215885758Y-87153498D01*
X215788739Y-87209513D01*
X215709513Y-87288739D01*
X215653498Y-87385758D01*
X215639303Y-87438737D01*
X215624500Y-87493982D01*
X184172381Y-87493982D01*
X184140486Y-87438739D01*
X184140485Y-87438737D01*
X184061263Y-87359515D01*
X184061260Y-87359513D01*
X183964240Y-87303498D01*
X183964242Y-87303498D01*
X183909159Y-87288739D01*
X183856018Y-87274500D01*
X183743982Y-87274500D01*
X183690841Y-87288739D01*
X183635758Y-87303498D01*
X183538739Y-87359513D01*
X183459513Y-87438739D01*
X183403498Y-87535758D01*
X183387286Y-87596263D01*
X183374500Y-87643982D01*
X180200500Y-87643982D01*
X180200500Y-85543982D01*
X181474500Y-85543982D01*
X181474500Y-85656018D01*
X181496664Y-85738737D01*
X181503498Y-85764241D01*
X181549538Y-85843983D01*
X181559515Y-85861263D01*
X181638737Y-85940485D01*
X181665641Y-85956018D01*
X181735759Y-85996501D01*
X181735757Y-85996501D01*
X181735761Y-85996502D01*
X181735763Y-85996503D01*
X181843982Y-86025500D01*
X181843984Y-86025500D01*
X181956016Y-86025500D01*
X181956018Y-86025500D01*
X182064237Y-85996503D01*
X182064239Y-85996501D01*
X182064241Y-85996501D01*
X182123478Y-85962300D01*
X182155206Y-85943982D01*
X182674500Y-85943982D01*
X182674500Y-86056018D01*
X182682136Y-86084515D01*
X182703498Y-86164241D01*
X182759223Y-86260758D01*
X182759515Y-86261263D01*
X182838737Y-86340485D01*
X182861276Y-86353498D01*
X182935759Y-86396501D01*
X182935757Y-86396501D01*
X182935761Y-86396502D01*
X182935763Y-86396503D01*
X183043982Y-86425500D01*
X183043984Y-86425500D01*
X183156016Y-86425500D01*
X183156018Y-86425500D01*
X183264237Y-86396503D01*
X183264239Y-86396501D01*
X183264241Y-86396501D01*
X183311903Y-86368983D01*
X183361263Y-86340485D01*
X183379998Y-86321749D01*
X183434513Y-86293974D01*
X183494945Y-86303545D01*
X183520000Y-86321748D01*
X183538737Y-86340485D01*
X183561276Y-86353498D01*
X183635759Y-86396501D01*
X183635757Y-86396501D01*
X183635761Y-86396502D01*
X183635763Y-86396503D01*
X183743982Y-86425500D01*
X183743984Y-86425500D01*
X183856016Y-86425500D01*
X183856018Y-86425500D01*
X183964237Y-86396503D01*
X183964240Y-86396500D01*
X183968951Y-86394550D01*
X184029947Y-86389748D01*
X184082117Y-86421715D01*
X184102464Y-86460384D01*
X184103496Y-86464236D01*
X184103498Y-86464240D01*
X184156487Y-86556018D01*
X184159515Y-86561263D01*
X184238737Y-86640485D01*
X184238739Y-86640486D01*
X184335759Y-86696501D01*
X184335757Y-86696501D01*
X184335761Y-86696502D01*
X184335763Y-86696503D01*
X184443982Y-86725500D01*
X184443984Y-86725500D01*
X184556016Y-86725500D01*
X184556018Y-86725500D01*
X184664237Y-86696503D01*
X184664239Y-86696501D01*
X184664241Y-86696501D01*
X184720118Y-86664240D01*
X184761263Y-86640485D01*
X184840485Y-86561263D01*
X184882901Y-86487794D01*
X184899748Y-86458617D01*
X184901028Y-86459356D01*
X184914160Y-86443982D01*
X199324500Y-86443982D01*
X199324500Y-86556018D01*
X199332261Y-86584982D01*
X199353498Y-86664241D01*
X199409513Y-86761260D01*
X199409515Y-86761263D01*
X199488737Y-86840485D01*
X199521079Y-86859157D01*
X199585759Y-86896501D01*
X199585757Y-86896501D01*
X199585761Y-86896502D01*
X199585763Y-86896503D01*
X199693982Y-86925500D01*
X199693984Y-86925500D01*
X199806016Y-86925500D01*
X199806018Y-86925500D01*
X199914237Y-86896503D01*
X199914239Y-86896501D01*
X199914241Y-86896501D01*
X199962625Y-86868566D01*
X200011263Y-86840485D01*
X200090485Y-86761263D01*
X200129330Y-86693982D01*
X201074500Y-86693982D01*
X201074500Y-86806018D01*
X201085698Y-86847808D01*
X201103498Y-86914241D01*
X201159513Y-87011260D01*
X201159515Y-87011263D01*
X201238737Y-87090485D01*
X201238739Y-87090486D01*
X201335759Y-87146501D01*
X201335757Y-87146501D01*
X201335761Y-87146502D01*
X201335763Y-87146503D01*
X201443982Y-87175500D01*
X201443984Y-87175500D01*
X201556016Y-87175500D01*
X201556018Y-87175500D01*
X201664237Y-87146503D01*
X201664239Y-87146501D01*
X201664241Y-87146501D01*
X201708186Y-87121129D01*
X201761263Y-87090485D01*
X201840485Y-87011263D01*
X201879330Y-86943982D01*
X203574500Y-86943982D01*
X203574500Y-87056018D01*
X203583736Y-87090486D01*
X203603498Y-87164241D01*
X203659513Y-87261260D01*
X203659515Y-87261263D01*
X203738737Y-87340485D01*
X203738739Y-87340486D01*
X203835759Y-87396501D01*
X203835757Y-87396501D01*
X203835761Y-87396502D01*
X203835763Y-87396503D01*
X203943982Y-87425500D01*
X203943984Y-87425500D01*
X204056016Y-87425500D01*
X204056018Y-87425500D01*
X204164237Y-87396503D01*
X204164239Y-87396501D01*
X204164241Y-87396501D01*
X204193064Y-87379859D01*
X204261263Y-87340485D01*
X204340485Y-87261263D01*
X204396503Y-87164237D01*
X204425500Y-87056018D01*
X204425500Y-86943982D01*
X205574500Y-86943982D01*
X205574500Y-87056018D01*
X205583736Y-87090486D01*
X205603498Y-87164241D01*
X205659513Y-87261260D01*
X205659515Y-87261263D01*
X205738737Y-87340485D01*
X205738739Y-87340486D01*
X205835759Y-87396501D01*
X205835757Y-87396501D01*
X205835761Y-87396502D01*
X205835763Y-87396503D01*
X205943982Y-87425500D01*
X205943984Y-87425500D01*
X206056016Y-87425500D01*
X206056018Y-87425500D01*
X206164237Y-87396503D01*
X206164239Y-87396501D01*
X206164241Y-87396501D01*
X206193064Y-87379859D01*
X206261263Y-87340485D01*
X206340485Y-87261263D01*
X206396503Y-87164237D01*
X206425500Y-87056018D01*
X206425500Y-86943982D01*
X224474500Y-86943982D01*
X224474500Y-87056018D01*
X224483736Y-87090486D01*
X224503498Y-87164241D01*
X224559513Y-87261260D01*
X224559515Y-87261263D01*
X224638737Y-87340485D01*
X224638739Y-87340486D01*
X224735759Y-87396501D01*
X224735757Y-87396501D01*
X224735761Y-87396502D01*
X224735763Y-87396503D01*
X224843982Y-87425500D01*
X224843984Y-87425500D01*
X224956016Y-87425500D01*
X224956018Y-87425500D01*
X225064237Y-87396503D01*
X225064239Y-87396501D01*
X225064241Y-87396501D01*
X225093064Y-87379859D01*
X225161263Y-87340485D01*
X225240485Y-87261263D01*
X225296503Y-87164237D01*
X225325500Y-87056018D01*
X225325500Y-86943982D01*
X225299729Y-86847804D01*
X226085700Y-86847804D01*
X226085700Y-86985795D01*
X226112620Y-87121127D01*
X226112620Y-87121129D01*
X226165422Y-87248606D01*
X226165428Y-87248617D01*
X226242085Y-87363341D01*
X226339658Y-87460914D01*
X226454382Y-87537571D01*
X226454393Y-87537577D01*
X226501483Y-87557082D01*
X226581872Y-87590380D01*
X226717207Y-87617300D01*
X226717208Y-87617300D01*
X227955192Y-87617300D01*
X227955193Y-87617300D01*
X228090528Y-87590380D01*
X228218011Y-87537575D01*
X228332742Y-87460914D01*
X228430314Y-87363342D01*
X228506975Y-87248611D01*
X228559780Y-87121128D01*
X228586700Y-86985793D01*
X228586700Y-86847807D01*
X228586699Y-86847804D01*
X230515700Y-86847804D01*
X230515700Y-86985795D01*
X230542620Y-87121127D01*
X230542620Y-87121129D01*
X230595422Y-87248606D01*
X230595428Y-87248617D01*
X230672085Y-87363341D01*
X230769658Y-87460914D01*
X230884382Y-87537571D01*
X230884393Y-87537577D01*
X230931483Y-87557082D01*
X231011872Y-87590380D01*
X231147207Y-87617300D01*
X231147208Y-87617300D01*
X231885192Y-87617300D01*
X231885193Y-87617300D01*
X232020528Y-87590380D01*
X232148011Y-87537575D01*
X232262742Y-87460914D01*
X232360314Y-87363342D01*
X232436975Y-87248611D01*
X232489780Y-87121128D01*
X232516700Y-86985793D01*
X232516700Y-86847807D01*
X232489780Y-86712472D01*
X232469801Y-86664239D01*
X232436977Y-86584993D01*
X232436971Y-86584982D01*
X232360314Y-86470258D01*
X232262741Y-86372685D01*
X232148017Y-86296028D01*
X232148006Y-86296022D01*
X232020528Y-86243220D01*
X231885195Y-86216300D01*
X231885193Y-86216300D01*
X231147207Y-86216300D01*
X231147204Y-86216300D01*
X231011872Y-86243220D01*
X231011870Y-86243220D01*
X230884393Y-86296022D01*
X230884382Y-86296028D01*
X230769658Y-86372685D01*
X230672085Y-86470258D01*
X230595428Y-86584982D01*
X230595422Y-86584993D01*
X230542620Y-86712470D01*
X230542620Y-86712472D01*
X230515700Y-86847804D01*
X228586699Y-86847804D01*
X228559780Y-86712472D01*
X228539801Y-86664239D01*
X228506977Y-86584993D01*
X228506971Y-86584982D01*
X228430314Y-86470258D01*
X228332741Y-86372685D01*
X228218017Y-86296028D01*
X228218006Y-86296022D01*
X228090528Y-86243220D01*
X227955195Y-86216300D01*
X227955193Y-86216300D01*
X226717207Y-86216300D01*
X226717204Y-86216300D01*
X226581872Y-86243220D01*
X226581870Y-86243220D01*
X226454393Y-86296022D01*
X226454382Y-86296028D01*
X226339658Y-86372685D01*
X226242085Y-86470258D01*
X226165428Y-86584982D01*
X226165422Y-86584993D01*
X226112620Y-86712470D01*
X226112620Y-86712472D01*
X226085700Y-86847804D01*
X225299729Y-86847804D01*
X225296503Y-86835763D01*
X225296501Y-86835760D01*
X225296501Y-86835758D01*
X225240486Y-86738739D01*
X225240485Y-86738737D01*
X225161263Y-86659515D01*
X225161260Y-86659513D01*
X225064240Y-86603498D01*
X225064242Y-86603498D01*
X225022251Y-86592247D01*
X224956018Y-86574500D01*
X224843982Y-86574500D01*
X224777748Y-86592247D01*
X224735758Y-86603498D01*
X224638739Y-86659513D01*
X224559513Y-86738739D01*
X224503498Y-86835758D01*
X224487286Y-86896263D01*
X224474500Y-86943982D01*
X206425500Y-86943982D01*
X206396503Y-86835763D01*
X206396501Y-86835760D01*
X206396501Y-86835758D01*
X206340486Y-86738739D01*
X206340485Y-86738737D01*
X206261263Y-86659515D01*
X206261260Y-86659513D01*
X206164240Y-86603498D01*
X206164242Y-86603498D01*
X206122251Y-86592247D01*
X206056018Y-86574500D01*
X205943982Y-86574500D01*
X205877748Y-86592247D01*
X205835758Y-86603498D01*
X205738739Y-86659513D01*
X205659513Y-86738739D01*
X205603498Y-86835758D01*
X205587286Y-86896263D01*
X205574500Y-86943982D01*
X204425500Y-86943982D01*
X204396503Y-86835763D01*
X204396501Y-86835760D01*
X204396501Y-86835758D01*
X204340486Y-86738739D01*
X204340485Y-86738737D01*
X204261263Y-86659515D01*
X204261260Y-86659513D01*
X204164240Y-86603498D01*
X204164242Y-86603498D01*
X204122251Y-86592247D01*
X204056018Y-86574500D01*
X203943982Y-86574500D01*
X203877748Y-86592247D01*
X203835758Y-86603498D01*
X203738739Y-86659513D01*
X203659513Y-86738739D01*
X203603498Y-86835758D01*
X203587286Y-86896263D01*
X203574500Y-86943982D01*
X201879330Y-86943982D01*
X201896503Y-86914237D01*
X201925500Y-86806018D01*
X201925500Y-86693982D01*
X201896503Y-86585763D01*
X201896501Y-86585760D01*
X201896501Y-86585758D01*
X201840486Y-86488739D01*
X201840485Y-86488737D01*
X201761263Y-86409515D01*
X201761260Y-86409513D01*
X201691059Y-86368982D01*
X220774500Y-86368982D01*
X220774500Y-86481018D01*
X220799548Y-86574500D01*
X220803498Y-86589241D01*
X220859513Y-86686260D01*
X220859515Y-86686263D01*
X220938737Y-86765485D01*
X220938739Y-86765486D01*
X221035759Y-86821501D01*
X221035757Y-86821501D01*
X221035761Y-86821502D01*
X221035763Y-86821503D01*
X221143982Y-86850500D01*
X221143984Y-86850500D01*
X221256016Y-86850500D01*
X221256018Y-86850500D01*
X221364237Y-86821503D01*
X221364239Y-86821501D01*
X221364241Y-86821501D01*
X221393064Y-86804859D01*
X221461263Y-86765485D01*
X221540485Y-86686263D01*
X221579859Y-86618064D01*
X221596501Y-86589241D01*
X221596501Y-86589239D01*
X221596503Y-86589237D01*
X221625500Y-86481018D01*
X221625500Y-86368982D01*
X221596503Y-86260763D01*
X221596501Y-86260760D01*
X221596501Y-86260758D01*
X221540486Y-86163739D01*
X221540485Y-86163737D01*
X221461263Y-86084515D01*
X221443917Y-86074500D01*
X221364240Y-86028498D01*
X221364241Y-86028498D01*
X221351455Y-86025072D01*
X221256018Y-85999500D01*
X221143982Y-85999500D01*
X221077748Y-86017247D01*
X221035758Y-86028498D01*
X220938739Y-86084513D01*
X220859513Y-86163739D01*
X220803498Y-86260758D01*
X220792034Y-86303545D01*
X220774500Y-86368982D01*
X201691059Y-86368982D01*
X201664240Y-86353498D01*
X201664242Y-86353498D01*
X201598052Y-86335763D01*
X201556018Y-86324500D01*
X201443982Y-86324500D01*
X201401948Y-86335763D01*
X201335758Y-86353498D01*
X201238739Y-86409513D01*
X201159513Y-86488739D01*
X201103498Y-86585758D01*
X201103497Y-86585763D01*
X201074500Y-86693982D01*
X200129330Y-86693982D01*
X200146503Y-86664237D01*
X200175500Y-86556018D01*
X200175500Y-86443982D01*
X200146503Y-86335763D01*
X200146501Y-86335760D01*
X200146501Y-86335758D01*
X200090486Y-86238739D01*
X200090485Y-86238737D01*
X200011263Y-86159515D01*
X200011260Y-86159513D01*
X199914240Y-86103498D01*
X199914242Y-86103498D01*
X199872251Y-86092247D01*
X199806018Y-86074500D01*
X199693982Y-86074500D01*
X199627748Y-86092247D01*
X199585758Y-86103498D01*
X199488739Y-86159513D01*
X199409513Y-86238739D01*
X199353498Y-86335758D01*
X199343000Y-86374940D01*
X199324500Y-86443982D01*
X184914160Y-86443982D01*
X184935904Y-86418526D01*
X184987629Y-86403939D01*
X185091951Y-86403939D01*
X185091953Y-86403939D01*
X185200172Y-86374942D01*
X185200174Y-86374940D01*
X185200176Y-86374940D01*
X185240321Y-86351762D01*
X185240330Y-86351757D01*
X185250027Y-86346157D01*
X185297198Y-86318924D01*
X185376420Y-86239702D01*
X185415794Y-86171503D01*
X185432436Y-86142680D01*
X185432436Y-86142678D01*
X185432438Y-86142676D01*
X185461435Y-86034457D01*
X185461435Y-85943982D01*
X222574500Y-85943982D01*
X222574500Y-86056018D01*
X222582136Y-86084515D01*
X222603498Y-86164241D01*
X222659223Y-86260758D01*
X222659515Y-86261263D01*
X222738737Y-86340485D01*
X222761276Y-86353498D01*
X222835759Y-86396501D01*
X222835757Y-86396501D01*
X222835761Y-86396502D01*
X222835763Y-86396503D01*
X222943982Y-86425500D01*
X222943984Y-86425500D01*
X223056016Y-86425500D01*
X223056018Y-86425500D01*
X223164237Y-86396503D01*
X223164239Y-86396501D01*
X223164241Y-86396501D01*
X223211903Y-86368983D01*
X223261263Y-86340485D01*
X223340485Y-86261263D01*
X223396503Y-86164237D01*
X223425500Y-86056018D01*
X223425500Y-85943982D01*
X223403832Y-85863115D01*
X223403832Y-85863113D01*
X223398705Y-85843982D01*
X225474500Y-85843982D01*
X225474500Y-85956018D01*
X225485348Y-85996503D01*
X225503498Y-86064241D01*
X225558506Y-86159515D01*
X225559515Y-86161263D01*
X225638737Y-86240485D01*
X225638739Y-86240486D01*
X225735759Y-86296501D01*
X225735757Y-86296501D01*
X225735761Y-86296502D01*
X225735763Y-86296503D01*
X225843982Y-86325500D01*
X225843984Y-86325500D01*
X225956016Y-86325500D01*
X225956018Y-86325500D01*
X226064237Y-86296503D01*
X226064239Y-86296501D01*
X226064241Y-86296501D01*
X226125274Y-86261263D01*
X226161263Y-86240485D01*
X226240485Y-86161263D01*
X226279859Y-86093064D01*
X226296501Y-86064241D01*
X226296501Y-86064239D01*
X226296503Y-86064237D01*
X226325500Y-85956018D01*
X226325500Y-85843982D01*
X226296503Y-85735763D01*
X226296501Y-85735760D01*
X226296501Y-85735758D01*
X226240486Y-85638739D01*
X226240485Y-85638737D01*
X226161263Y-85559515D01*
X226161260Y-85559513D01*
X226064240Y-85503498D01*
X226064242Y-85503498D01*
X226022251Y-85492247D01*
X225956018Y-85474500D01*
X225843982Y-85474500D01*
X225777748Y-85492247D01*
X225735758Y-85503498D01*
X225638739Y-85559513D01*
X225559513Y-85638739D01*
X225503498Y-85735758D01*
X225493457Y-85773233D01*
X225474500Y-85843982D01*
X223398705Y-85843982D01*
X223396503Y-85835763D01*
X223396501Y-85835759D01*
X223340486Y-85738739D01*
X223340485Y-85738737D01*
X223261263Y-85659515D01*
X223261260Y-85659513D01*
X223164240Y-85603498D01*
X223164242Y-85603498D01*
X223122251Y-85592247D01*
X223056018Y-85574500D01*
X222943982Y-85574500D01*
X222877748Y-85592247D01*
X222835758Y-85603498D01*
X222738739Y-85659513D01*
X222659513Y-85738739D01*
X222603498Y-85835758D01*
X222592106Y-85878275D01*
X222574500Y-85943982D01*
X185461435Y-85943982D01*
X185461435Y-85922421D01*
X185432438Y-85814202D01*
X185432436Y-85814199D01*
X185432436Y-85814197D01*
X185376421Y-85717178D01*
X185376420Y-85717176D01*
X185297198Y-85637954D01*
X185297195Y-85637952D01*
X185200175Y-85581937D01*
X185200177Y-85581937D01*
X185158186Y-85570686D01*
X185091953Y-85552939D01*
X184979917Y-85552939D01*
X184913683Y-85570686D01*
X184871693Y-85581937D01*
X184774674Y-85637952D01*
X184695448Y-85717178D01*
X184636187Y-85819821D01*
X184634904Y-85819080D01*
X184600036Y-85859910D01*
X184548306Y-85874500D01*
X184443982Y-85874500D01*
X184382765Y-85890902D01*
X184335754Y-85903499D01*
X184331038Y-85905453D01*
X184270041Y-85910249D01*
X184217874Y-85878275D01*
X184197534Y-85839611D01*
X184196503Y-85835763D01*
X184196501Y-85835759D01*
X184196501Y-85835758D01*
X184140486Y-85738739D01*
X184140485Y-85738737D01*
X184061263Y-85659515D01*
X184061260Y-85659513D01*
X183964240Y-85603498D01*
X183964242Y-85603498D01*
X183922251Y-85592247D01*
X183856018Y-85574500D01*
X183743982Y-85574500D01*
X183677748Y-85592247D01*
X183635758Y-85603498D01*
X183538736Y-85659514D01*
X183520002Y-85678249D01*
X183465485Y-85706025D01*
X183405053Y-85696453D01*
X183379998Y-85678249D01*
X183361263Y-85659514D01*
X183264240Y-85603498D01*
X183264242Y-85603498D01*
X183222251Y-85592247D01*
X183156018Y-85574500D01*
X183043982Y-85574500D01*
X182977748Y-85592247D01*
X182935758Y-85603498D01*
X182838739Y-85659513D01*
X182759513Y-85738739D01*
X182703498Y-85835758D01*
X182692106Y-85878275D01*
X182674500Y-85943982D01*
X182155206Y-85943982D01*
X182161263Y-85940485D01*
X182240485Y-85861263D01*
X182288116Y-85778764D01*
X182296501Y-85764241D01*
X182296501Y-85764239D01*
X182296503Y-85764237D01*
X182325500Y-85656018D01*
X182325500Y-85543982D01*
X182296503Y-85435763D01*
X182296501Y-85435760D01*
X182296501Y-85435758D01*
X182240486Y-85338739D01*
X182240485Y-85338737D01*
X182161263Y-85259515D01*
X182161260Y-85259513D01*
X182064240Y-85203498D01*
X182064242Y-85203498D01*
X182022251Y-85192247D01*
X181956018Y-85174500D01*
X181843982Y-85174500D01*
X181777748Y-85192247D01*
X181735758Y-85203498D01*
X181638739Y-85259513D01*
X181559513Y-85338739D01*
X181503498Y-85435758D01*
X181487286Y-85496263D01*
X181474500Y-85543982D01*
X180200500Y-85543982D01*
X180200500Y-84643982D01*
X180574500Y-84643982D01*
X180574500Y-84756018D01*
X180596664Y-84838737D01*
X180603498Y-84864241D01*
X180659513Y-84961260D01*
X180659515Y-84961263D01*
X180738737Y-85040485D01*
X180738739Y-85040486D01*
X180835759Y-85096501D01*
X180835757Y-85096501D01*
X180835761Y-85096502D01*
X180835763Y-85096503D01*
X180943982Y-85125500D01*
X180943984Y-85125500D01*
X181056016Y-85125500D01*
X181056018Y-85125500D01*
X181164237Y-85096503D01*
X181164239Y-85096501D01*
X181164241Y-85096501D01*
X181225274Y-85061263D01*
X181261263Y-85040485D01*
X181340485Y-84961263D01*
X181396503Y-84864237D01*
X181425500Y-84756018D01*
X181425500Y-84743982D01*
X186674500Y-84743982D01*
X186674500Y-84856018D01*
X186700072Y-84951455D01*
X186703498Y-84964241D01*
X186749538Y-85043983D01*
X186759515Y-85061263D01*
X186838737Y-85140485D01*
X186865641Y-85156018D01*
X186935759Y-85196501D01*
X186935757Y-85196501D01*
X186935761Y-85196502D01*
X186935763Y-85196503D01*
X187043982Y-85225500D01*
X187043984Y-85225500D01*
X187156016Y-85225500D01*
X187156018Y-85225500D01*
X187264237Y-85196503D01*
X187264239Y-85196501D01*
X187264241Y-85196501D01*
X187302347Y-85174500D01*
X187361263Y-85140485D01*
X187440485Y-85061263D01*
X187479859Y-84993064D01*
X187496501Y-84964241D01*
X187496501Y-84964239D01*
X187496503Y-84964237D01*
X187525500Y-84856018D01*
X187525500Y-84743982D01*
X188374500Y-84743982D01*
X188374500Y-84856018D01*
X188400072Y-84951455D01*
X188403498Y-84964241D01*
X188449538Y-85043983D01*
X188459515Y-85061263D01*
X188538737Y-85140485D01*
X188565641Y-85156018D01*
X188635759Y-85196501D01*
X188635757Y-85196501D01*
X188635761Y-85196502D01*
X188635763Y-85196503D01*
X188743982Y-85225500D01*
X188743984Y-85225500D01*
X188856016Y-85225500D01*
X188856018Y-85225500D01*
X188964237Y-85196503D01*
X188964239Y-85196501D01*
X188964241Y-85196501D01*
X189002347Y-85174500D01*
X189061263Y-85140485D01*
X189140485Y-85061263D01*
X189179859Y-84993064D01*
X189196501Y-84964241D01*
X189196501Y-84964239D01*
X189196503Y-84964237D01*
X189225500Y-84856018D01*
X189225500Y-84743982D01*
X189203832Y-84663115D01*
X189203832Y-84663113D01*
X189198705Y-84643982D01*
X189974500Y-84643982D01*
X189974500Y-84756018D01*
X189996664Y-84838737D01*
X190003498Y-84864241D01*
X190059513Y-84961260D01*
X190059515Y-84961263D01*
X190138737Y-85040485D01*
X190138739Y-85040486D01*
X190235759Y-85096501D01*
X190235757Y-85096501D01*
X190235761Y-85096502D01*
X190235763Y-85096503D01*
X190343982Y-85125500D01*
X190343984Y-85125500D01*
X190456016Y-85125500D01*
X190456018Y-85125500D01*
X190564237Y-85096503D01*
X190564239Y-85096501D01*
X190564241Y-85096501D01*
X190625274Y-85061263D01*
X190655206Y-85043982D01*
X192674500Y-85043982D01*
X192674500Y-85156018D01*
X192692247Y-85222251D01*
X192703498Y-85264241D01*
X192759513Y-85361260D01*
X192759515Y-85361263D01*
X192838737Y-85440485D01*
X192838739Y-85440486D01*
X192935759Y-85496501D01*
X192935757Y-85496501D01*
X192935761Y-85496502D01*
X192935763Y-85496503D01*
X193043982Y-85525500D01*
X193043984Y-85525500D01*
X193156016Y-85525500D01*
X193156018Y-85525500D01*
X193264237Y-85496503D01*
X193264239Y-85496501D01*
X193264241Y-85496501D01*
X193302347Y-85474500D01*
X193361263Y-85440485D01*
X193432793Y-85368954D01*
X193487307Y-85341178D01*
X193547739Y-85350749D01*
X193590103Y-85392286D01*
X193591678Y-85395232D01*
X193621916Y-85440486D01*
X193695698Y-85550908D01*
X193828092Y-85683302D01*
X193878788Y-85717176D01*
X193983761Y-85787318D01*
X193983767Y-85787320D01*
X193983769Y-85787322D01*
X194156749Y-85858973D01*
X194340384Y-85895500D01*
X194340385Y-85895500D01*
X194527615Y-85895500D01*
X194527616Y-85895500D01*
X194711251Y-85858973D01*
X194884231Y-85787322D01*
X194884234Y-85787319D01*
X194884238Y-85787318D01*
X194929187Y-85757282D01*
X195039908Y-85683302D01*
X195172302Y-85550908D01*
X195256966Y-85424199D01*
X195276318Y-85395238D01*
X195276321Y-85395232D01*
X195276322Y-85395231D01*
X195347973Y-85222251D01*
X195384500Y-85038616D01*
X195384500Y-84351384D01*
X195384499Y-84351381D01*
X195643500Y-84351381D01*
X195643500Y-85038618D01*
X195680026Y-85222249D01*
X195751677Y-85395229D01*
X195751681Y-85395238D01*
X195819344Y-85496501D01*
X195855698Y-85550908D01*
X195988092Y-85683302D01*
X196038788Y-85717176D01*
X196143761Y-85787318D01*
X196143767Y-85787320D01*
X196143769Y-85787322D01*
X196316749Y-85858973D01*
X196500384Y-85895500D01*
X196500385Y-85895500D01*
X196687615Y-85895500D01*
X196687616Y-85895500D01*
X196871251Y-85858973D01*
X197044231Y-85787322D01*
X197044234Y-85787319D01*
X197044238Y-85787318D01*
X197089187Y-85757282D01*
X197199908Y-85683302D01*
X197332302Y-85550908D01*
X197416966Y-85424199D01*
X197436318Y-85395238D01*
X197436321Y-85395232D01*
X197436322Y-85395231D01*
X197507973Y-85222251D01*
X197544500Y-85038616D01*
X197544500Y-84351384D01*
X197544499Y-84351381D01*
X197803500Y-84351381D01*
X197803500Y-85038618D01*
X197840026Y-85222249D01*
X197911677Y-85395229D01*
X197911681Y-85395238D01*
X197979344Y-85496501D01*
X198015698Y-85550908D01*
X198148092Y-85683302D01*
X198198788Y-85717176D01*
X198303761Y-85787318D01*
X198303767Y-85787320D01*
X198303769Y-85787322D01*
X198476749Y-85858973D01*
X198660384Y-85895500D01*
X198660385Y-85895500D01*
X198847615Y-85895500D01*
X198847616Y-85895500D01*
X199031251Y-85858973D01*
X199204231Y-85787322D01*
X199204234Y-85787319D01*
X199204238Y-85787318D01*
X199249187Y-85757282D01*
X199359908Y-85683302D01*
X199492302Y-85550908D01*
X199576966Y-85424199D01*
X199596318Y-85395238D01*
X199596321Y-85395232D01*
X199596322Y-85395231D01*
X199667973Y-85222251D01*
X199704500Y-85038616D01*
X199704500Y-84351384D01*
X199704499Y-84351381D01*
X199963500Y-84351381D01*
X199963500Y-85038618D01*
X200000026Y-85222249D01*
X200071677Y-85395229D01*
X200071681Y-85395238D01*
X200139344Y-85496501D01*
X200175698Y-85550908D01*
X200308092Y-85683302D01*
X200358788Y-85717176D01*
X200463761Y-85787318D01*
X200463767Y-85787320D01*
X200463769Y-85787322D01*
X200636749Y-85858973D01*
X200820384Y-85895500D01*
X200820385Y-85895500D01*
X201007615Y-85895500D01*
X201007616Y-85895500D01*
X201191251Y-85858973D01*
X201364231Y-85787322D01*
X201364234Y-85787319D01*
X201364238Y-85787318D01*
X201409187Y-85757282D01*
X201519908Y-85683302D01*
X201652302Y-85550908D01*
X201736966Y-85424199D01*
X201756318Y-85395238D01*
X201756321Y-85395232D01*
X201756322Y-85395231D01*
X201827973Y-85222251D01*
X201864500Y-85038616D01*
X201864500Y-84351384D01*
X201827973Y-84167749D01*
X201756322Y-83994769D01*
X201756320Y-83994767D01*
X201756318Y-83994761D01*
X201721298Y-83942351D01*
X201704689Y-83883463D01*
X201725866Y-83826059D01*
X201759230Y-83800808D01*
X201758618Y-83799748D01*
X201814302Y-83767597D01*
X201861263Y-83740485D01*
X201940485Y-83661263D01*
X201996503Y-83564237D01*
X202018596Y-83481782D01*
X202051919Y-83430471D01*
X202109040Y-83408544D01*
X202168141Y-83424379D01*
X202197794Y-83460037D01*
X202200252Y-83458618D01*
X202259513Y-83561260D01*
X202259515Y-83561263D01*
X202338737Y-83640485D01*
X202350988Y-83647558D01*
X202391929Y-83693026D01*
X202398325Y-83753876D01*
X202371492Y-83803298D01*
X202335701Y-83839088D01*
X202335698Y-83839092D01*
X202231681Y-83994761D01*
X202231677Y-83994770D01*
X202160026Y-84167750D01*
X202123500Y-84351381D01*
X202123500Y-85038618D01*
X202160026Y-85222249D01*
X202231677Y-85395229D01*
X202231681Y-85395238D01*
X202299344Y-85496501D01*
X202335698Y-85550908D01*
X202468092Y-85683302D01*
X202518788Y-85717176D01*
X202623761Y-85787318D01*
X202623767Y-85787320D01*
X202623769Y-85787322D01*
X202796749Y-85858973D01*
X202980384Y-85895500D01*
X202980385Y-85895500D01*
X203167615Y-85895500D01*
X203167616Y-85895500D01*
X203351251Y-85858973D01*
X203524231Y-85787322D01*
X203524234Y-85787319D01*
X203524238Y-85787318D01*
X203569187Y-85757282D01*
X203679908Y-85683302D01*
X203812302Y-85550908D01*
X203896966Y-85424199D01*
X203916318Y-85395238D01*
X203916321Y-85395232D01*
X203916322Y-85395231D01*
X203987973Y-85222251D01*
X204024500Y-85038616D01*
X204024500Y-84351384D01*
X204024499Y-84351381D01*
X204283500Y-84351381D01*
X204283500Y-85038618D01*
X204320026Y-85222249D01*
X204391677Y-85395229D01*
X204391681Y-85395238D01*
X204459344Y-85496501D01*
X204495698Y-85550908D01*
X204628092Y-85683302D01*
X204678788Y-85717176D01*
X204783761Y-85787318D01*
X204783767Y-85787320D01*
X204783769Y-85787322D01*
X204956749Y-85858973D01*
X205140384Y-85895500D01*
X205140385Y-85895500D01*
X205327615Y-85895500D01*
X205327616Y-85895500D01*
X205511251Y-85858973D01*
X205684231Y-85787322D01*
X205684234Y-85787319D01*
X205684238Y-85787318D01*
X205729187Y-85757282D01*
X205839908Y-85683302D01*
X205972302Y-85550908D01*
X206056966Y-85424199D01*
X206076318Y-85395238D01*
X206076321Y-85395232D01*
X206076322Y-85395231D01*
X206147973Y-85222251D01*
X206184500Y-85038616D01*
X206184500Y-84351384D01*
X206184499Y-84351381D01*
X206443500Y-84351381D01*
X206443500Y-85038618D01*
X206480026Y-85222249D01*
X206551677Y-85395229D01*
X206551681Y-85395238D01*
X206619344Y-85496501D01*
X206655698Y-85550908D01*
X206788092Y-85683302D01*
X206838788Y-85717176D01*
X206943761Y-85787318D01*
X206943767Y-85787320D01*
X206943769Y-85787322D01*
X207116749Y-85858973D01*
X207300384Y-85895500D01*
X207300385Y-85895500D01*
X207487615Y-85895500D01*
X207487616Y-85895500D01*
X207671251Y-85858973D01*
X207844231Y-85787322D01*
X207844234Y-85787319D01*
X207844238Y-85787318D01*
X207889187Y-85757282D01*
X207999908Y-85683302D01*
X208132302Y-85550908D01*
X208216966Y-85424199D01*
X208236318Y-85395238D01*
X208236321Y-85395232D01*
X208236322Y-85395231D01*
X208307973Y-85222251D01*
X208344500Y-85038616D01*
X208344500Y-84351384D01*
X208344499Y-84351381D01*
X208603500Y-84351381D01*
X208603500Y-85038618D01*
X208640026Y-85222249D01*
X208711677Y-85395229D01*
X208711681Y-85395238D01*
X208779344Y-85496501D01*
X208815698Y-85550908D01*
X208948092Y-85683302D01*
X208998788Y-85717176D01*
X209103761Y-85787318D01*
X209103767Y-85787320D01*
X209103769Y-85787322D01*
X209276749Y-85858973D01*
X209460384Y-85895500D01*
X209460385Y-85895500D01*
X209647615Y-85895500D01*
X209647616Y-85895500D01*
X209831251Y-85858973D01*
X210004231Y-85787322D01*
X210004234Y-85787319D01*
X210004238Y-85787318D01*
X210049187Y-85757282D01*
X210159908Y-85683302D01*
X210292302Y-85550908D01*
X210376966Y-85424199D01*
X210396318Y-85395238D01*
X210396321Y-85395232D01*
X210396322Y-85395231D01*
X210467973Y-85222251D01*
X210504500Y-85038616D01*
X210504500Y-84351384D01*
X210467973Y-84167749D01*
X210396322Y-83994769D01*
X210396318Y-83994763D01*
X210396318Y-83994762D01*
X210360722Y-83941491D01*
X210322677Y-83884552D01*
X210306069Y-83825666D01*
X210327246Y-83768262D01*
X210355490Y-83743817D01*
X210361263Y-83740485D01*
X210440485Y-83661263D01*
X210496503Y-83564237D01*
X210504373Y-83534862D01*
X210537697Y-83483549D01*
X210594818Y-83461622D01*
X210653919Y-83477457D01*
X210692424Y-83525007D01*
X210695624Y-83534856D01*
X210702700Y-83561263D01*
X210703498Y-83564240D01*
X210751602Y-83647557D01*
X210759515Y-83661263D01*
X210838737Y-83740485D01*
X210838739Y-83740486D01*
X210893575Y-83772146D01*
X210934516Y-83817615D01*
X210940912Y-83878465D01*
X210926391Y-83912883D01*
X210871680Y-83994763D01*
X210871677Y-83994770D01*
X210800026Y-84167750D01*
X210763500Y-84351381D01*
X210763500Y-85038618D01*
X210800026Y-85222249D01*
X210871677Y-85395229D01*
X210871681Y-85395238D01*
X210939344Y-85496501D01*
X210975698Y-85550908D01*
X211108092Y-85683302D01*
X211158788Y-85717176D01*
X211263761Y-85787318D01*
X211263767Y-85787320D01*
X211263769Y-85787322D01*
X211436749Y-85858973D01*
X211620384Y-85895500D01*
X211620385Y-85895500D01*
X211807615Y-85895500D01*
X211807616Y-85895500D01*
X211991251Y-85858973D01*
X212164231Y-85787322D01*
X212164234Y-85787319D01*
X212164238Y-85787318D01*
X212209187Y-85757282D01*
X212319908Y-85683302D01*
X212452302Y-85550908D01*
X212536966Y-85424199D01*
X212556318Y-85395238D01*
X212556321Y-85395232D01*
X212556322Y-85395231D01*
X212627973Y-85222251D01*
X212664500Y-85038616D01*
X212664500Y-84351384D01*
X212664499Y-84351381D01*
X212923500Y-84351381D01*
X212923500Y-85038618D01*
X212960026Y-85222249D01*
X213031677Y-85395229D01*
X213031681Y-85395238D01*
X213099344Y-85496501D01*
X213135698Y-85550908D01*
X213268092Y-85683302D01*
X213318788Y-85717176D01*
X213423761Y-85787318D01*
X213423767Y-85787320D01*
X213423769Y-85787322D01*
X213596749Y-85858973D01*
X213780384Y-85895500D01*
X213780385Y-85895500D01*
X213967615Y-85895500D01*
X213967616Y-85895500D01*
X214151251Y-85858973D01*
X214324231Y-85787322D01*
X214324234Y-85787319D01*
X214324238Y-85787318D01*
X214369187Y-85757282D01*
X214479908Y-85683302D01*
X214612302Y-85550908D01*
X214696966Y-85424199D01*
X214716318Y-85395238D01*
X214716321Y-85395232D01*
X214716322Y-85395231D01*
X214787973Y-85222251D01*
X214824500Y-85038616D01*
X214824500Y-84351384D01*
X214824499Y-84351381D01*
X215083500Y-84351381D01*
X215083500Y-85038618D01*
X215120026Y-85222249D01*
X215191677Y-85395229D01*
X215191681Y-85395238D01*
X215259344Y-85496501D01*
X215295698Y-85550908D01*
X215428092Y-85683302D01*
X215478788Y-85717176D01*
X215583761Y-85787318D01*
X215583767Y-85787320D01*
X215583769Y-85787322D01*
X215756749Y-85858973D01*
X215940384Y-85895500D01*
X215940385Y-85895500D01*
X216127615Y-85895500D01*
X216127616Y-85895500D01*
X216311251Y-85858973D01*
X216484231Y-85787322D01*
X216484234Y-85787319D01*
X216484238Y-85787318D01*
X216529187Y-85757282D01*
X216639908Y-85683302D01*
X216772302Y-85550908D01*
X216856966Y-85424199D01*
X216876318Y-85395238D01*
X216876321Y-85395232D01*
X216876322Y-85395231D01*
X216947973Y-85222251D01*
X216984500Y-85038616D01*
X216984500Y-84351384D01*
X216947973Y-84167749D01*
X216876322Y-83994769D01*
X216876320Y-83994767D01*
X216876318Y-83994761D01*
X216816649Y-83905463D01*
X216772302Y-83839092D01*
X216639908Y-83706698D01*
X216592847Y-83675253D01*
X217243500Y-83675253D01*
X217243500Y-85714746D01*
X217243501Y-85714758D01*
X217255132Y-85773227D01*
X217255134Y-85773233D01*
X217296916Y-85835763D01*
X217299448Y-85839552D01*
X217365769Y-85883867D01*
X217403208Y-85891314D01*
X217424241Y-85895498D01*
X217424246Y-85895498D01*
X217424252Y-85895500D01*
X217424253Y-85895500D01*
X218963747Y-85895500D01*
X218963748Y-85895500D01*
X219022231Y-85883867D01*
X219088552Y-85839552D01*
X219132867Y-85773231D01*
X219144500Y-85714748D01*
X219144500Y-85424199D01*
X227360700Y-85424199D01*
X227360700Y-85549401D01*
X227393105Y-85670336D01*
X227455705Y-85778764D01*
X227544236Y-85867295D01*
X227652664Y-85929895D01*
X227773599Y-85962300D01*
X227773601Y-85962300D01*
X227898799Y-85962300D01*
X227898801Y-85962300D01*
X228019736Y-85929895D01*
X228128164Y-85867295D01*
X228216695Y-85778764D01*
X228279295Y-85670336D01*
X228311700Y-85549401D01*
X228311700Y-85424199D01*
X228279295Y-85303264D01*
X228216695Y-85194836D01*
X228128164Y-85106305D01*
X228019736Y-85043705D01*
X227898801Y-85011300D01*
X227773599Y-85011300D01*
X227692975Y-85032903D01*
X227652663Y-85043705D01*
X227544236Y-85106305D01*
X227455705Y-85194836D01*
X227393105Y-85303263D01*
X227393105Y-85303264D01*
X227360700Y-85424199D01*
X219144500Y-85424199D01*
X219144500Y-83675252D01*
X219132867Y-83616769D01*
X219088552Y-83550448D01*
X219088548Y-83550445D01*
X219022233Y-83506134D01*
X219022231Y-83506133D01*
X219022228Y-83506132D01*
X219022227Y-83506132D01*
X218963758Y-83494501D01*
X218963748Y-83494500D01*
X217424252Y-83494500D01*
X217424251Y-83494500D01*
X217424241Y-83494501D01*
X217365772Y-83506132D01*
X217365766Y-83506134D01*
X217299451Y-83550445D01*
X217299445Y-83550451D01*
X217255134Y-83616766D01*
X217255132Y-83616772D01*
X217243501Y-83675241D01*
X217243500Y-83675253D01*
X216592847Y-83675253D01*
X216571910Y-83661263D01*
X216484238Y-83602681D01*
X216484229Y-83602677D01*
X216311249Y-83531026D01*
X216127618Y-83494500D01*
X216127616Y-83494500D01*
X215940384Y-83494500D01*
X215940381Y-83494500D01*
X215756750Y-83531026D01*
X215583770Y-83602677D01*
X215583761Y-83602681D01*
X215428092Y-83706698D01*
X215428088Y-83706701D01*
X215295701Y-83839088D01*
X215295698Y-83839092D01*
X215191681Y-83994761D01*
X215191677Y-83994770D01*
X215120026Y-84167750D01*
X215083500Y-84351381D01*
X214824499Y-84351381D01*
X214787973Y-84167749D01*
X214716322Y-83994769D01*
X214716320Y-83994767D01*
X214716318Y-83994761D01*
X214656649Y-83905463D01*
X214612302Y-83839092D01*
X214479908Y-83706698D01*
X214411910Y-83661263D01*
X214324238Y-83602681D01*
X214324229Y-83602677D01*
X214151249Y-83531026D01*
X213967618Y-83494500D01*
X213967616Y-83494500D01*
X213780384Y-83494500D01*
X213780381Y-83494500D01*
X213596750Y-83531026D01*
X213423770Y-83602677D01*
X213423761Y-83602681D01*
X213268092Y-83706698D01*
X213268088Y-83706701D01*
X213135701Y-83839088D01*
X213135698Y-83839092D01*
X213031681Y-83994761D01*
X213031677Y-83994770D01*
X212960026Y-84167750D01*
X212923500Y-84351381D01*
X212664499Y-84351381D01*
X212627973Y-84167749D01*
X212556322Y-83994769D01*
X212556320Y-83994767D01*
X212556318Y-83994761D01*
X212496649Y-83905463D01*
X212452302Y-83839092D01*
X212319908Y-83706698D01*
X212251910Y-83661263D01*
X212164238Y-83602681D01*
X212164229Y-83602677D01*
X211991249Y-83531026D01*
X211807618Y-83494500D01*
X211807616Y-83494500D01*
X211624500Y-83494500D01*
X211566309Y-83475593D01*
X211530345Y-83426093D01*
X211525500Y-83395500D01*
X211525500Y-83343983D01*
X211521084Y-83327501D01*
X211496503Y-83235763D01*
X211496501Y-83235760D01*
X211496501Y-83235758D01*
X211440486Y-83138739D01*
X211440485Y-83138737D01*
X211361263Y-83059515D01*
X211361260Y-83059513D01*
X211264240Y-83003498D01*
X211264242Y-83003498D01*
X211202736Y-82987018D01*
X211156018Y-82974500D01*
X211043982Y-82974500D01*
X210997264Y-82987018D01*
X210935758Y-83003498D01*
X210838739Y-83059513D01*
X210759513Y-83138739D01*
X210703498Y-83235758D01*
X210703497Y-83235763D01*
X210695867Y-83264241D01*
X210695627Y-83265136D01*
X210662303Y-83316450D01*
X210605181Y-83338377D01*
X210546081Y-83322541D01*
X210507576Y-83274991D01*
X210504373Y-83265136D01*
X210496503Y-83235763D01*
X210496501Y-83235760D01*
X210496501Y-83235758D01*
X210440486Y-83138739D01*
X210440485Y-83138737D01*
X210361263Y-83059515D01*
X210361260Y-83059513D01*
X210264240Y-83003498D01*
X210264242Y-83003498D01*
X210202736Y-82987018D01*
X210156018Y-82974500D01*
X210043982Y-82974500D01*
X209997264Y-82987018D01*
X209935758Y-83003498D01*
X209838739Y-83059513D01*
X209759513Y-83138739D01*
X209703498Y-83235758D01*
X209674500Y-83343983D01*
X209674500Y-83395500D01*
X209655593Y-83453691D01*
X209606093Y-83489655D01*
X209575500Y-83494500D01*
X209460381Y-83494500D01*
X209276750Y-83531026D01*
X209103770Y-83602677D01*
X209103761Y-83602681D01*
X208948092Y-83706698D01*
X208948088Y-83706701D01*
X208815701Y-83839088D01*
X208815698Y-83839092D01*
X208711681Y-83994761D01*
X208711677Y-83994770D01*
X208640026Y-84167750D01*
X208603500Y-84351381D01*
X208344499Y-84351381D01*
X208307973Y-84167749D01*
X208236322Y-83994769D01*
X208236320Y-83994767D01*
X208236318Y-83994761D01*
X208176649Y-83905463D01*
X208132302Y-83839092D01*
X207999908Y-83706698D01*
X207931910Y-83661263D01*
X207844238Y-83602681D01*
X207844229Y-83602677D01*
X207671249Y-83531026D01*
X207487618Y-83494500D01*
X207487616Y-83494500D01*
X207300384Y-83494500D01*
X207300381Y-83494500D01*
X207116750Y-83531026D01*
X206943770Y-83602677D01*
X206943761Y-83602681D01*
X206788092Y-83706698D01*
X206788088Y-83706701D01*
X206655701Y-83839088D01*
X206655698Y-83839092D01*
X206551681Y-83994761D01*
X206551677Y-83994770D01*
X206480026Y-84167750D01*
X206443500Y-84351381D01*
X206184499Y-84351381D01*
X206147973Y-84167749D01*
X206076322Y-83994769D01*
X206076320Y-83994767D01*
X206076318Y-83994761D01*
X206016649Y-83905463D01*
X205972302Y-83839092D01*
X205839908Y-83706698D01*
X205768444Y-83658947D01*
X205730566Y-83610898D01*
X205728164Y-83549760D01*
X205762157Y-83498886D01*
X205773937Y-83490902D01*
X205861263Y-83440485D01*
X205940485Y-83361263D01*
X205992318Y-83271486D01*
X205996501Y-83264241D01*
X205996501Y-83264239D01*
X205996503Y-83264237D01*
X206025500Y-83156018D01*
X206025500Y-83043982D01*
X205996503Y-82935763D01*
X205996501Y-82935760D01*
X205996501Y-82935758D01*
X205940486Y-82838739D01*
X205940485Y-82838737D01*
X205861263Y-82759515D01*
X205861260Y-82759513D01*
X205764240Y-82703498D01*
X205764242Y-82703498D01*
X205722251Y-82692247D01*
X205656018Y-82674500D01*
X205543982Y-82674500D01*
X205477748Y-82692247D01*
X205435758Y-82703498D01*
X205338739Y-82759513D01*
X205259513Y-82838739D01*
X205203498Y-82935758D01*
X205189764Y-82987016D01*
X205174500Y-83043982D01*
X205174500Y-83156018D01*
X205203497Y-83264237D01*
X205250703Y-83346000D01*
X205263425Y-83405847D01*
X205238539Y-83461743D01*
X205185551Y-83492336D01*
X205164967Y-83494500D01*
X205140381Y-83494500D01*
X204956750Y-83531026D01*
X204783770Y-83602677D01*
X204783761Y-83602681D01*
X204628092Y-83706698D01*
X204628088Y-83706701D01*
X204495701Y-83839088D01*
X204495698Y-83839092D01*
X204391681Y-83994761D01*
X204391677Y-83994770D01*
X204320026Y-84167750D01*
X204283500Y-84351381D01*
X204024499Y-84351381D01*
X203987973Y-84167749D01*
X203916322Y-83994769D01*
X203916320Y-83994767D01*
X203916318Y-83994761D01*
X203856649Y-83905463D01*
X203812302Y-83839092D01*
X203679908Y-83706698D01*
X203611910Y-83661263D01*
X203524238Y-83602681D01*
X203524229Y-83602677D01*
X203351249Y-83531026D01*
X203167618Y-83494500D01*
X203167616Y-83494500D01*
X203117413Y-83494500D01*
X203059222Y-83475593D01*
X203023258Y-83426093D01*
X203021786Y-83369878D01*
X203025500Y-83356018D01*
X203025500Y-83243982D01*
X202996503Y-83135763D01*
X202996501Y-83135759D01*
X202996501Y-83135758D01*
X202940486Y-83038739D01*
X202940485Y-83038737D01*
X202861263Y-82959515D01*
X202861260Y-82959513D01*
X202764240Y-82903498D01*
X202764242Y-82903498D01*
X202715675Y-82890485D01*
X202656018Y-82874500D01*
X202543982Y-82874500D01*
X202484325Y-82890485D01*
X202435758Y-82903498D01*
X202338739Y-82959513D01*
X202259513Y-83038739D01*
X202203498Y-83135759D01*
X202203496Y-83135763D01*
X202181403Y-83218215D01*
X202148079Y-83269529D01*
X202090957Y-83291455D01*
X202031857Y-83275619D01*
X202002220Y-83239954D01*
X201999748Y-83241382D01*
X201940486Y-83138739D01*
X201940485Y-83138737D01*
X201861263Y-83059515D01*
X201861260Y-83059513D01*
X201764240Y-83003498D01*
X201764242Y-83003498D01*
X201702736Y-82987018D01*
X201656018Y-82974500D01*
X201543982Y-82974500D01*
X201497264Y-82987018D01*
X201435758Y-83003498D01*
X201338739Y-83059513D01*
X201259513Y-83138739D01*
X201203498Y-83235758D01*
X201174500Y-83343983D01*
X201174500Y-83407062D01*
X201155593Y-83465253D01*
X201106093Y-83501217D01*
X201056188Y-83504160D01*
X201007623Y-83494500D01*
X201007616Y-83494500D01*
X200820384Y-83494500D01*
X200820381Y-83494500D01*
X200636750Y-83531026D01*
X200463770Y-83602677D01*
X200463761Y-83602681D01*
X200308092Y-83706698D01*
X200308088Y-83706701D01*
X200175701Y-83839088D01*
X200175698Y-83839092D01*
X200071681Y-83994761D01*
X200071677Y-83994770D01*
X200000026Y-84167750D01*
X199963500Y-84351381D01*
X199704499Y-84351381D01*
X199667973Y-84167749D01*
X199596322Y-83994769D01*
X199596320Y-83994767D01*
X199596318Y-83994761D01*
X199536649Y-83905463D01*
X199492302Y-83839092D01*
X199359908Y-83706698D01*
X199291910Y-83661263D01*
X199204238Y-83602681D01*
X199204229Y-83602677D01*
X199031249Y-83531026D01*
X198847618Y-83494500D01*
X198847616Y-83494500D01*
X198660384Y-83494500D01*
X198660381Y-83494500D01*
X198476750Y-83531026D01*
X198303770Y-83602677D01*
X198303761Y-83602681D01*
X198148092Y-83706698D01*
X198148088Y-83706701D01*
X198015701Y-83839088D01*
X198015698Y-83839092D01*
X197911681Y-83994761D01*
X197911677Y-83994770D01*
X197840026Y-84167750D01*
X197803500Y-84351381D01*
X197544499Y-84351381D01*
X197507973Y-84167749D01*
X197436322Y-83994769D01*
X197436320Y-83994767D01*
X197436318Y-83994761D01*
X197376649Y-83905463D01*
X197332302Y-83839092D01*
X197199908Y-83706698D01*
X197131910Y-83661263D01*
X197044238Y-83602681D01*
X197044229Y-83602677D01*
X196871249Y-83531026D01*
X196687618Y-83494500D01*
X196687616Y-83494500D01*
X196500384Y-83494500D01*
X196500381Y-83494500D01*
X196316750Y-83531026D01*
X196143770Y-83602677D01*
X196143761Y-83602681D01*
X195988092Y-83706698D01*
X195988088Y-83706701D01*
X195855701Y-83839088D01*
X195855698Y-83839092D01*
X195751681Y-83994761D01*
X195751677Y-83994770D01*
X195680026Y-84167750D01*
X195643500Y-84351381D01*
X195384499Y-84351381D01*
X195347973Y-84167749D01*
X195276322Y-83994769D01*
X195276320Y-83994767D01*
X195276318Y-83994761D01*
X195216649Y-83905463D01*
X195172302Y-83839092D01*
X195039908Y-83706698D01*
X194971910Y-83661263D01*
X194884238Y-83602681D01*
X194884229Y-83602677D01*
X194711249Y-83531026D01*
X194527618Y-83494500D01*
X194527616Y-83494500D01*
X194340384Y-83494500D01*
X194340381Y-83494500D01*
X194156750Y-83531026D01*
X193983770Y-83602677D01*
X193983761Y-83602681D01*
X193828092Y-83706698D01*
X193828088Y-83706701D01*
X193695701Y-83839088D01*
X193695698Y-83839092D01*
X193591681Y-83994761D01*
X193591677Y-83994770D01*
X193520026Y-84167750D01*
X193483500Y-84351381D01*
X193483500Y-84658615D01*
X193464593Y-84716806D01*
X193415093Y-84752770D01*
X193353907Y-84752770D01*
X193335000Y-84744352D01*
X193264238Y-84703497D01*
X193228164Y-84693831D01*
X193156018Y-84674500D01*
X193043982Y-84674500D01*
X192977748Y-84692247D01*
X192935758Y-84703498D01*
X192838739Y-84759513D01*
X192759513Y-84838739D01*
X192703498Y-84935758D01*
X192703497Y-84935763D01*
X192674500Y-85043982D01*
X190655206Y-85043982D01*
X190661263Y-85040485D01*
X190740485Y-84961263D01*
X190796503Y-84864237D01*
X190825500Y-84756018D01*
X190825500Y-84643982D01*
X190796503Y-84535763D01*
X190796501Y-84535760D01*
X190796501Y-84535758D01*
X190740486Y-84438739D01*
X190740485Y-84438737D01*
X190661263Y-84359515D01*
X190661260Y-84359513D01*
X190564240Y-84303498D01*
X190564242Y-84303498D01*
X190522251Y-84292247D01*
X190456018Y-84274500D01*
X190343982Y-84274500D01*
X190277748Y-84292247D01*
X190235758Y-84303498D01*
X190138739Y-84359513D01*
X190059513Y-84438739D01*
X190003498Y-84535758D01*
X189987286Y-84596263D01*
X189974500Y-84643982D01*
X189198705Y-84643982D01*
X189196503Y-84635763D01*
X189196501Y-84635759D01*
X189140486Y-84538739D01*
X189140485Y-84538737D01*
X189061263Y-84459515D01*
X189061260Y-84459513D01*
X188964240Y-84403498D01*
X188964242Y-84403498D01*
X188922251Y-84392247D01*
X188856018Y-84374500D01*
X188743982Y-84374500D01*
X188677748Y-84392247D01*
X188635758Y-84403498D01*
X188538739Y-84459513D01*
X188459513Y-84538739D01*
X188403498Y-84635758D01*
X188387286Y-84696263D01*
X188374500Y-84743982D01*
X187525500Y-84743982D01*
X187496503Y-84635763D01*
X187496501Y-84635759D01*
X187496501Y-84635758D01*
X187440486Y-84538739D01*
X187440485Y-84538737D01*
X187361263Y-84459515D01*
X187361260Y-84459513D01*
X187264240Y-84403498D01*
X187264242Y-84403498D01*
X187222251Y-84392247D01*
X187156018Y-84374500D01*
X187043982Y-84374500D01*
X186977748Y-84392247D01*
X186935758Y-84403498D01*
X186838739Y-84459513D01*
X186759513Y-84538739D01*
X186703498Y-84635758D01*
X186687286Y-84696263D01*
X186674500Y-84743982D01*
X181425500Y-84743982D01*
X181425500Y-84643982D01*
X181396503Y-84535763D01*
X181396501Y-84535760D01*
X181396501Y-84535758D01*
X181340486Y-84438739D01*
X181340485Y-84438737D01*
X181261263Y-84359515D01*
X181261260Y-84359513D01*
X181164240Y-84303498D01*
X181164242Y-84303498D01*
X181122251Y-84292247D01*
X181056018Y-84274500D01*
X180943982Y-84274500D01*
X180877748Y-84292247D01*
X180835758Y-84303498D01*
X180738739Y-84359513D01*
X180659513Y-84438739D01*
X180603498Y-84535758D01*
X180587286Y-84596263D01*
X180574500Y-84643982D01*
X180200500Y-84643982D01*
X180200500Y-82943982D01*
X181074500Y-82943982D01*
X181074500Y-83056018D01*
X181096664Y-83138737D01*
X181103498Y-83164241D01*
X181149538Y-83243983D01*
X181159515Y-83261263D01*
X181238737Y-83340485D01*
X181265641Y-83356018D01*
X181335759Y-83396501D01*
X181335757Y-83396501D01*
X181335761Y-83396502D01*
X181335763Y-83396503D01*
X181443982Y-83425500D01*
X181443984Y-83425500D01*
X181556016Y-83425500D01*
X181556018Y-83425500D01*
X181664237Y-83396503D01*
X181664239Y-83396501D01*
X181664241Y-83396501D01*
X181693064Y-83379859D01*
X181761263Y-83340485D01*
X181840485Y-83261263D01*
X181896503Y-83164237D01*
X181925500Y-83056018D01*
X181925500Y-82943982D01*
X181903832Y-82863115D01*
X181903832Y-82863113D01*
X181898705Y-82843982D01*
X186674500Y-82843982D01*
X186674500Y-82956018D01*
X186685348Y-82996503D01*
X186703498Y-83064241D01*
X186759513Y-83161260D01*
X186759515Y-83161263D01*
X186838737Y-83240485D01*
X186838739Y-83240486D01*
X186935759Y-83296501D01*
X186935757Y-83296501D01*
X186935761Y-83296502D01*
X186935763Y-83296503D01*
X187043982Y-83325500D01*
X187043984Y-83325500D01*
X187156016Y-83325500D01*
X187156018Y-83325500D01*
X187264237Y-83296503D01*
X187264239Y-83296501D01*
X187264241Y-83296501D01*
X187301497Y-83274991D01*
X187361263Y-83240485D01*
X187440485Y-83161263D01*
X187496503Y-83064237D01*
X187525500Y-82956018D01*
X187525500Y-82874982D01*
X188423500Y-82874982D01*
X188423500Y-82987018D01*
X188443393Y-83061260D01*
X188452498Y-83095241D01*
X188490615Y-83161260D01*
X188508515Y-83192263D01*
X188587737Y-83271485D01*
X188620079Y-83290157D01*
X188684759Y-83327501D01*
X188684757Y-83327501D01*
X188684761Y-83327502D01*
X188684763Y-83327503D01*
X188792982Y-83356500D01*
X188792984Y-83356500D01*
X188905016Y-83356500D01*
X188905018Y-83356500D01*
X189013237Y-83327503D01*
X189013239Y-83327501D01*
X189013241Y-83327501D01*
X189042064Y-83310859D01*
X189110263Y-83271485D01*
X189189485Y-83192263D01*
X189244772Y-83096503D01*
X189245501Y-83095241D01*
X189245501Y-83095239D01*
X189245503Y-83095237D01*
X189274500Y-82987018D01*
X189274500Y-82874982D01*
X189266194Y-82843982D01*
X189974500Y-82843982D01*
X189974500Y-82956018D01*
X189985348Y-82996503D01*
X190003498Y-83064241D01*
X190059513Y-83161260D01*
X190059515Y-83161263D01*
X190138737Y-83240485D01*
X190138739Y-83240486D01*
X190235759Y-83296501D01*
X190235757Y-83296501D01*
X190235761Y-83296502D01*
X190235763Y-83296503D01*
X190343982Y-83325500D01*
X190343984Y-83325500D01*
X190456016Y-83325500D01*
X190456018Y-83325500D01*
X190564237Y-83296503D01*
X190564239Y-83296501D01*
X190564241Y-83296501D01*
X190601497Y-83274991D01*
X190661263Y-83240485D01*
X190740485Y-83161263D01*
X190796503Y-83064237D01*
X190825500Y-82956018D01*
X190825500Y-82843982D01*
X190796503Y-82735763D01*
X190796501Y-82735760D01*
X190796501Y-82735758D01*
X190740486Y-82638739D01*
X190740485Y-82638737D01*
X190661263Y-82559515D01*
X190634361Y-82543983D01*
X190564240Y-82503498D01*
X190564242Y-82503498D01*
X190522251Y-82492247D01*
X190456018Y-82474500D01*
X190343982Y-82474500D01*
X190277748Y-82492247D01*
X190235758Y-82503498D01*
X190138739Y-82559513D01*
X190059513Y-82638739D01*
X190003498Y-82735758D01*
X189987286Y-82796263D01*
X189974500Y-82843982D01*
X189266194Y-82843982D01*
X189245503Y-82766763D01*
X189245501Y-82766760D01*
X189245501Y-82766758D01*
X189189486Y-82669739D01*
X189189485Y-82669737D01*
X189110263Y-82590515D01*
X189110260Y-82590513D01*
X189013240Y-82534498D01*
X189013242Y-82534498D01*
X188971251Y-82523247D01*
X188905018Y-82505500D01*
X188792982Y-82505500D01*
X188726748Y-82523247D01*
X188684758Y-82534498D01*
X188587739Y-82590513D01*
X188508513Y-82669739D01*
X188452498Y-82766758D01*
X188452497Y-82766763D01*
X188423500Y-82874982D01*
X187525500Y-82874982D01*
X187525500Y-82843982D01*
X187496503Y-82735763D01*
X187496501Y-82735760D01*
X187496501Y-82735758D01*
X187440486Y-82638739D01*
X187440485Y-82638737D01*
X187361263Y-82559515D01*
X187334361Y-82543983D01*
X187264240Y-82503498D01*
X187264242Y-82503498D01*
X187222251Y-82492247D01*
X187156018Y-82474500D01*
X187043982Y-82474500D01*
X186977748Y-82492247D01*
X186935758Y-82503498D01*
X186838739Y-82559513D01*
X186759513Y-82638739D01*
X186703498Y-82735758D01*
X186687286Y-82796263D01*
X186674500Y-82843982D01*
X181898705Y-82843982D01*
X181896503Y-82835763D01*
X181896501Y-82835759D01*
X181840486Y-82738739D01*
X181840485Y-82738737D01*
X181761263Y-82659515D01*
X181761260Y-82659513D01*
X181664240Y-82603498D01*
X181664242Y-82603498D01*
X181615780Y-82590513D01*
X181556018Y-82574500D01*
X181443982Y-82574500D01*
X181384220Y-82590513D01*
X181335758Y-82603498D01*
X181238739Y-82659513D01*
X181159513Y-82738739D01*
X181103498Y-82835758D01*
X181092988Y-82874982D01*
X181074500Y-82943982D01*
X180200500Y-82943982D01*
X180200500Y-82143982D01*
X183674500Y-82143982D01*
X183674500Y-82256018D01*
X183693118Y-82325500D01*
X183703498Y-82364241D01*
X183758506Y-82459515D01*
X183759515Y-82461263D01*
X183838737Y-82540485D01*
X183838739Y-82540486D01*
X183935759Y-82596501D01*
X183935757Y-82596501D01*
X183935761Y-82596502D01*
X183935763Y-82596503D01*
X184043982Y-82625500D01*
X184043984Y-82625500D01*
X184156016Y-82625500D01*
X184156018Y-82625500D01*
X184264237Y-82596503D01*
X184264239Y-82596501D01*
X184264241Y-82596501D01*
X184325274Y-82561263D01*
X184361263Y-82540485D01*
X184440485Y-82461263D01*
X184496503Y-82364237D01*
X184525500Y-82256018D01*
X184525500Y-82143982D01*
X184496503Y-82035763D01*
X184496501Y-82035760D01*
X184496501Y-82035758D01*
X184440486Y-81938739D01*
X184440485Y-81938737D01*
X184361263Y-81859515D01*
X184334361Y-81843983D01*
X184264240Y-81803498D01*
X184264242Y-81803498D01*
X184222251Y-81792247D01*
X184156018Y-81774500D01*
X184043982Y-81774500D01*
X183977748Y-81792247D01*
X183935758Y-81803498D01*
X183838739Y-81859513D01*
X183759513Y-81938739D01*
X183703498Y-82035758D01*
X183695867Y-82064237D01*
X183674500Y-82143982D01*
X180200500Y-82143982D01*
X180200500Y-81043982D01*
X186674500Y-81043982D01*
X186674500Y-81156018D01*
X186700072Y-81251455D01*
X186703498Y-81264241D01*
X186747519Y-81340486D01*
X186759515Y-81361263D01*
X186838737Y-81440485D01*
X186838739Y-81440486D01*
X186935759Y-81496501D01*
X186935757Y-81496501D01*
X186935761Y-81496502D01*
X186935763Y-81496503D01*
X187043982Y-81525500D01*
X187043984Y-81525500D01*
X187156016Y-81525500D01*
X187156018Y-81525500D01*
X187264237Y-81496503D01*
X187264239Y-81496501D01*
X187264241Y-81496501D01*
X187309130Y-81470584D01*
X187361263Y-81440485D01*
X187440485Y-81361263D01*
X187496503Y-81264237D01*
X187525500Y-81156018D01*
X187525500Y-81093982D01*
X188424500Y-81093982D01*
X188424500Y-81206018D01*
X188439303Y-81261263D01*
X188453498Y-81314241D01*
X188499145Y-81393302D01*
X188509515Y-81411263D01*
X188588737Y-81490485D01*
X188621079Y-81509157D01*
X188685759Y-81546501D01*
X188685757Y-81546501D01*
X188685761Y-81546502D01*
X188685763Y-81546503D01*
X188793982Y-81575500D01*
X188793984Y-81575500D01*
X188906016Y-81575500D01*
X188906018Y-81575500D01*
X189014237Y-81546503D01*
X189014239Y-81546501D01*
X189014241Y-81546501D01*
X189050615Y-81525500D01*
X189111263Y-81490485D01*
X189190485Y-81411263D01*
X189246503Y-81314237D01*
X189275500Y-81206018D01*
X189275500Y-81093982D01*
X189262103Y-81043982D01*
X189974500Y-81043982D01*
X189974500Y-81156018D01*
X190000072Y-81251455D01*
X190003498Y-81264241D01*
X190047519Y-81340486D01*
X190059515Y-81361263D01*
X190138737Y-81440485D01*
X190138739Y-81440486D01*
X190235759Y-81496501D01*
X190235757Y-81496501D01*
X190235761Y-81496502D01*
X190235763Y-81496503D01*
X190343982Y-81525500D01*
X190343984Y-81525500D01*
X190456016Y-81525500D01*
X190456018Y-81525500D01*
X190564237Y-81496503D01*
X190564239Y-81496501D01*
X190564241Y-81496501D01*
X190609130Y-81470584D01*
X190661263Y-81440485D01*
X190740485Y-81361263D01*
X190796503Y-81264237D01*
X190825500Y-81156018D01*
X190825500Y-81043982D01*
X190803832Y-80963115D01*
X190803832Y-80963113D01*
X190798705Y-80943982D01*
X192674500Y-80943982D01*
X192674500Y-81056018D01*
X192698800Y-81146707D01*
X192703498Y-81164241D01*
X192759309Y-81260907D01*
X192759515Y-81261263D01*
X192838737Y-81340485D01*
X192867604Y-81357151D01*
X192879923Y-81364264D01*
X192920863Y-81409734D01*
X192927258Y-81470584D01*
X192896665Y-81523572D01*
X192879923Y-81535736D01*
X192838738Y-81559514D01*
X192759513Y-81638739D01*
X192703498Y-81735758D01*
X192687286Y-81796263D01*
X192674500Y-81843982D01*
X192674500Y-81956018D01*
X192696664Y-82038737D01*
X192703498Y-82064241D01*
X192749538Y-82143983D01*
X192759515Y-82161263D01*
X192838737Y-82240485D01*
X192865641Y-82256018D01*
X192935759Y-82296501D01*
X192935757Y-82296501D01*
X192935761Y-82296502D01*
X192935763Y-82296503D01*
X193043982Y-82325500D01*
X193043984Y-82325500D01*
X193156015Y-82325500D01*
X193156018Y-82325500D01*
X193231804Y-82305193D01*
X193292902Y-82308395D01*
X193340452Y-82346900D01*
X193356288Y-82406001D01*
X193334362Y-82463122D01*
X193327428Y-82470823D01*
X193259514Y-82538737D01*
X193203498Y-82635758D01*
X193187286Y-82696263D01*
X193174500Y-82743982D01*
X193174500Y-82856018D01*
X193197133Y-82940485D01*
X193203498Y-82964241D01*
X193258506Y-83059515D01*
X193259515Y-83061263D01*
X193338737Y-83140485D01*
X193365641Y-83156018D01*
X193435759Y-83196501D01*
X193435757Y-83196501D01*
X193435761Y-83196502D01*
X193435763Y-83196503D01*
X193543982Y-83225500D01*
X193543984Y-83225500D01*
X193656016Y-83225500D01*
X193656018Y-83225500D01*
X193764237Y-83196503D01*
X193764239Y-83196501D01*
X193764241Y-83196501D01*
X193825274Y-83161263D01*
X193861263Y-83140485D01*
X193940485Y-83061263D01*
X193996503Y-82964237D01*
X194025500Y-82856018D01*
X194025500Y-82809642D01*
X194044407Y-82751451D01*
X194053730Y-82743982D01*
X197874500Y-82743982D01*
X197874500Y-82856018D01*
X197897133Y-82940485D01*
X197903498Y-82964241D01*
X197958506Y-83059515D01*
X197959515Y-83061263D01*
X198038737Y-83140485D01*
X198065641Y-83156018D01*
X198135759Y-83196501D01*
X198135757Y-83196501D01*
X198135761Y-83196502D01*
X198135763Y-83196503D01*
X198243982Y-83225500D01*
X198243984Y-83225500D01*
X198356016Y-83225500D01*
X198356018Y-83225500D01*
X198464237Y-83196503D01*
X198464239Y-83196501D01*
X198464241Y-83196501D01*
X198525274Y-83161263D01*
X198561263Y-83140485D01*
X198640485Y-83061263D01*
X198696503Y-82964237D01*
X198725500Y-82856018D01*
X198725500Y-82743982D01*
X198696503Y-82635763D01*
X198696501Y-82635760D01*
X198696501Y-82635758D01*
X198640486Y-82538739D01*
X198640485Y-82538737D01*
X198561263Y-82459515D01*
X198561260Y-82459513D01*
X198464240Y-82403498D01*
X198464242Y-82403498D01*
X198398052Y-82385763D01*
X198356018Y-82374500D01*
X198243982Y-82374500D01*
X198201948Y-82385763D01*
X198135758Y-82403498D01*
X198038739Y-82459513D01*
X197959513Y-82538739D01*
X197903498Y-82635758D01*
X197887286Y-82696263D01*
X197874500Y-82743982D01*
X194053730Y-82743982D01*
X194085185Y-82718783D01*
X194091850Y-82715898D01*
X194164237Y-82696503D01*
X194261263Y-82640485D01*
X194340485Y-82561263D01*
X194379859Y-82493064D01*
X194396501Y-82464241D01*
X194396501Y-82464239D01*
X194396503Y-82464237D01*
X194425500Y-82356018D01*
X194425500Y-82243982D01*
X206374500Y-82243982D01*
X206374500Y-82356018D01*
X206396664Y-82438737D01*
X206403498Y-82464241D01*
X206458506Y-82559515D01*
X206459515Y-82561263D01*
X206538737Y-82640485D01*
X206565641Y-82656018D01*
X206635759Y-82696501D01*
X206635757Y-82696501D01*
X206635761Y-82696502D01*
X206635763Y-82696503D01*
X206743982Y-82725500D01*
X206743984Y-82725500D01*
X206856016Y-82725500D01*
X206856018Y-82725500D01*
X206964237Y-82696503D01*
X206964239Y-82696501D01*
X206964241Y-82696501D01*
X207002347Y-82674500D01*
X207061263Y-82640485D01*
X207140485Y-82561263D01*
X207150462Y-82543982D01*
X213474500Y-82543982D01*
X213474500Y-82656018D01*
X213496664Y-82738737D01*
X213503498Y-82764241D01*
X213559513Y-82861260D01*
X213559515Y-82861263D01*
X213638737Y-82940485D01*
X213665641Y-82956018D01*
X213735759Y-82996501D01*
X213735757Y-82996501D01*
X213735761Y-82996502D01*
X213735763Y-82996503D01*
X213843982Y-83025500D01*
X213843984Y-83025500D01*
X213956016Y-83025500D01*
X213956018Y-83025500D01*
X214064237Y-82996503D01*
X214064239Y-82996501D01*
X214064241Y-82996501D01*
X214125274Y-82961263D01*
X214161263Y-82940485D01*
X214240485Y-82861263D01*
X214295045Y-82766763D01*
X214296501Y-82764241D01*
X214296501Y-82764239D01*
X214296503Y-82764237D01*
X214325500Y-82656018D01*
X214325500Y-82543982D01*
X214312103Y-82493982D01*
X219574500Y-82493982D01*
X219574500Y-82606018D01*
X219591574Y-82669739D01*
X219603498Y-82714241D01*
X219658579Y-82809642D01*
X219659515Y-82811263D01*
X219738737Y-82890485D01*
X219761276Y-82903498D01*
X219835759Y-82946501D01*
X219835757Y-82946501D01*
X219835761Y-82946502D01*
X219835763Y-82946503D01*
X219943982Y-82975500D01*
X219943984Y-82975500D01*
X220056016Y-82975500D01*
X220056018Y-82975500D01*
X220164237Y-82946503D01*
X220164239Y-82946501D01*
X220164241Y-82946501D01*
X220193064Y-82929859D01*
X220261263Y-82890485D01*
X220340485Y-82811263D01*
X220390000Y-82725500D01*
X220396501Y-82714241D01*
X220396501Y-82714240D01*
X220396503Y-82714237D01*
X220415328Y-82643982D01*
X224374500Y-82643982D01*
X224374500Y-82756018D01*
X224396664Y-82838737D01*
X224403498Y-82864241D01*
X224458506Y-82959515D01*
X224459515Y-82961263D01*
X224538737Y-83040485D01*
X224565641Y-83056018D01*
X224635759Y-83096501D01*
X224635757Y-83096501D01*
X224635761Y-83096502D01*
X224635763Y-83096503D01*
X224743982Y-83125500D01*
X224743984Y-83125500D01*
X224856016Y-83125500D01*
X224856018Y-83125500D01*
X224964237Y-83096503D01*
X224964239Y-83096501D01*
X224964241Y-83096501D01*
X225025274Y-83061263D01*
X225061263Y-83040485D01*
X225140485Y-82961263D01*
X225150462Y-82943982D01*
X228574500Y-82943982D01*
X228574500Y-83056018D01*
X228596664Y-83138737D01*
X228603498Y-83164241D01*
X228649538Y-83243983D01*
X228659515Y-83261263D01*
X228738737Y-83340485D01*
X228765641Y-83356018D01*
X228835759Y-83396501D01*
X228835757Y-83396501D01*
X228835761Y-83396502D01*
X228835763Y-83396503D01*
X228943982Y-83425500D01*
X228943984Y-83425500D01*
X229056016Y-83425500D01*
X229056018Y-83425500D01*
X229164237Y-83396503D01*
X229164239Y-83396501D01*
X229164241Y-83396501D01*
X229193064Y-83379859D01*
X229261263Y-83340485D01*
X229340485Y-83261263D01*
X229396503Y-83164237D01*
X229425500Y-83056018D01*
X229425500Y-82943982D01*
X231574500Y-82943982D01*
X231574500Y-83056018D01*
X231596664Y-83138737D01*
X231603498Y-83164241D01*
X231649538Y-83243983D01*
X231659515Y-83261263D01*
X231738737Y-83340485D01*
X231765641Y-83356018D01*
X231835759Y-83396501D01*
X231835757Y-83396501D01*
X231835761Y-83396502D01*
X231835763Y-83396503D01*
X231943982Y-83425500D01*
X231943984Y-83425500D01*
X232056016Y-83425500D01*
X232056018Y-83425500D01*
X232164237Y-83396503D01*
X232164239Y-83396501D01*
X232164241Y-83396501D01*
X232193064Y-83379859D01*
X232261263Y-83340485D01*
X232340485Y-83261263D01*
X232396503Y-83164237D01*
X232425500Y-83056018D01*
X232425500Y-82943982D01*
X232396503Y-82835763D01*
X232396501Y-82835759D01*
X232396501Y-82835758D01*
X232340486Y-82738739D01*
X232340485Y-82738737D01*
X232261263Y-82659515D01*
X232261260Y-82659513D01*
X232164240Y-82603498D01*
X232164242Y-82603498D01*
X232115780Y-82590513D01*
X232056018Y-82574500D01*
X231943982Y-82574500D01*
X231884220Y-82590513D01*
X231835758Y-82603498D01*
X231738739Y-82659513D01*
X231659513Y-82738739D01*
X231603498Y-82835758D01*
X231592988Y-82874982D01*
X231574500Y-82943982D01*
X229425500Y-82943982D01*
X229396503Y-82835763D01*
X229396501Y-82835759D01*
X229396501Y-82835758D01*
X229340486Y-82738739D01*
X229340485Y-82738737D01*
X229261263Y-82659515D01*
X229261260Y-82659513D01*
X229164240Y-82603498D01*
X229164242Y-82603498D01*
X229115780Y-82590513D01*
X229056018Y-82574500D01*
X228943982Y-82574500D01*
X228884220Y-82590513D01*
X228835758Y-82603498D01*
X228738739Y-82659513D01*
X228659513Y-82738739D01*
X228603498Y-82835758D01*
X228592988Y-82874982D01*
X228574500Y-82943982D01*
X225150462Y-82943982D01*
X225173836Y-82903497D01*
X225182788Y-82887993D01*
X225182788Y-82887992D01*
X225196503Y-82864237D01*
X225225500Y-82756018D01*
X225225500Y-82643982D01*
X225196503Y-82535763D01*
X225196501Y-82535760D01*
X225196501Y-82535758D01*
X225140486Y-82438739D01*
X225140485Y-82438737D01*
X225061263Y-82359515D01*
X225061260Y-82359513D01*
X224964240Y-82303498D01*
X224964242Y-82303498D01*
X224909159Y-82288739D01*
X224856018Y-82274500D01*
X224743982Y-82274500D01*
X224690841Y-82288739D01*
X224635758Y-82303498D01*
X224538739Y-82359513D01*
X224459513Y-82438739D01*
X224403498Y-82535758D01*
X224388827Y-82590513D01*
X224374500Y-82643982D01*
X220415328Y-82643982D01*
X220425500Y-82606018D01*
X220425500Y-82493982D01*
X220396503Y-82385763D01*
X220396501Y-82385760D01*
X220396501Y-82385758D01*
X220344969Y-82296503D01*
X220340485Y-82288737D01*
X220261263Y-82209515D01*
X220261260Y-82209513D01*
X220164240Y-82153498D01*
X220164242Y-82153498D01*
X220098052Y-82135763D01*
X220056018Y-82124500D01*
X219943982Y-82124500D01*
X219901948Y-82135763D01*
X219835758Y-82153498D01*
X219738739Y-82209513D01*
X219659513Y-82288739D01*
X219603498Y-82385758D01*
X219603497Y-82385763D01*
X219574500Y-82493982D01*
X214312103Y-82493982D01*
X214296503Y-82435763D01*
X214296501Y-82435760D01*
X214296501Y-82435758D01*
X214240486Y-82338739D01*
X214240485Y-82338737D01*
X214161263Y-82259515D01*
X214161260Y-82259513D01*
X214064240Y-82203498D01*
X214064242Y-82203498D01*
X214022251Y-82192247D01*
X213956018Y-82174500D01*
X213843982Y-82174500D01*
X213777748Y-82192247D01*
X213735758Y-82203498D01*
X213638739Y-82259513D01*
X213559513Y-82338739D01*
X213503498Y-82435758D01*
X213489502Y-82487992D01*
X213474500Y-82543982D01*
X207150462Y-82543982D01*
X207173836Y-82503497D01*
X207182788Y-82487993D01*
X207182788Y-82487992D01*
X207196503Y-82464237D01*
X207225500Y-82356018D01*
X207225500Y-82243982D01*
X207196503Y-82135763D01*
X207196501Y-82135760D01*
X207196501Y-82135758D01*
X207140486Y-82038739D01*
X207140485Y-82038737D01*
X207061263Y-81959515D01*
X207061260Y-81959513D01*
X206964240Y-81903498D01*
X206964242Y-81903498D01*
X206922251Y-81892247D01*
X206856018Y-81874500D01*
X206743982Y-81874500D01*
X206677748Y-81892247D01*
X206635758Y-81903498D01*
X206538739Y-81959513D01*
X206459513Y-82038739D01*
X206403498Y-82135758D01*
X206387286Y-82196263D01*
X206374500Y-82243982D01*
X194425500Y-82243982D01*
X194396503Y-82135763D01*
X194396501Y-82135760D01*
X194396501Y-82135758D01*
X194340486Y-82038739D01*
X194340485Y-82038737D01*
X194261263Y-81959515D01*
X194261260Y-81959513D01*
X194164240Y-81903498D01*
X194164242Y-81903498D01*
X194122251Y-81892247D01*
X194056018Y-81874500D01*
X193943982Y-81874500D01*
X193877748Y-81892247D01*
X193835758Y-81903498D01*
X193738739Y-81959513D01*
X193738737Y-81959514D01*
X193738737Y-81959515D01*
X193694501Y-82003750D01*
X193639987Y-82031526D01*
X193579555Y-82021955D01*
X193536290Y-81978690D01*
X193525500Y-81933745D01*
X193525500Y-81843983D01*
X193506882Y-81774500D01*
X193496503Y-81735763D01*
X193496501Y-81735760D01*
X193496501Y-81735758D01*
X193440486Y-81638739D01*
X193440485Y-81638737D01*
X193361263Y-81559515D01*
X193338722Y-81546501D01*
X193320077Y-81535736D01*
X193279136Y-81490267D01*
X193272740Y-81429417D01*
X193303333Y-81376429D01*
X193320077Y-81364264D01*
X193330447Y-81358276D01*
X193361263Y-81340485D01*
X193440485Y-81261263D01*
X193479294Y-81194042D01*
X193524763Y-81153103D01*
X193585613Y-81146707D01*
X193638601Y-81177300D01*
X193647342Y-81188538D01*
X193695698Y-81260908D01*
X193828092Y-81393302D01*
X193854973Y-81411263D01*
X193983761Y-81497318D01*
X193983767Y-81497320D01*
X193983769Y-81497322D01*
X194156749Y-81568973D01*
X194340384Y-81605500D01*
X194340385Y-81605500D01*
X194527615Y-81605500D01*
X194527616Y-81605500D01*
X194711251Y-81568973D01*
X194884231Y-81497322D01*
X194884234Y-81497319D01*
X194884238Y-81497318D01*
X194929187Y-81467282D01*
X195039908Y-81393302D01*
X195172302Y-81260908D01*
X195248609Y-81146707D01*
X195276318Y-81105238D01*
X195276319Y-81105234D01*
X195276322Y-81105231D01*
X195347973Y-80932251D01*
X195384500Y-80748616D01*
X195384500Y-80061384D01*
X195384499Y-80061381D01*
X195643500Y-80061381D01*
X195643500Y-80748618D01*
X195680026Y-80932249D01*
X195751677Y-81105229D01*
X195751681Y-81105238D01*
X195811021Y-81194044D01*
X195855698Y-81260908D01*
X195988092Y-81393302D01*
X196014973Y-81411263D01*
X196143761Y-81497318D01*
X196143767Y-81497320D01*
X196143769Y-81497322D01*
X196316749Y-81568973D01*
X196500384Y-81605500D01*
X196500385Y-81605500D01*
X196687615Y-81605500D01*
X196687616Y-81605500D01*
X196871251Y-81568973D01*
X197044231Y-81497322D01*
X197044234Y-81497319D01*
X197044238Y-81497318D01*
X197089187Y-81467282D01*
X197199908Y-81393302D01*
X197332302Y-81260908D01*
X197408609Y-81146707D01*
X197436318Y-81105238D01*
X197436319Y-81105234D01*
X197436322Y-81105231D01*
X197507973Y-80932251D01*
X197544500Y-80748616D01*
X197544500Y-80061384D01*
X197544499Y-80061381D01*
X197803500Y-80061381D01*
X197803500Y-80748618D01*
X197840026Y-80932249D01*
X197911677Y-81105229D01*
X197911681Y-81105238D01*
X197971021Y-81194044D01*
X198015698Y-81260908D01*
X198148092Y-81393302D01*
X198174973Y-81411263D01*
X198303761Y-81497318D01*
X198303767Y-81497320D01*
X198303769Y-81497322D01*
X198476749Y-81568973D01*
X198660384Y-81605500D01*
X198660385Y-81605500D01*
X198847615Y-81605500D01*
X198847616Y-81605500D01*
X199031251Y-81568973D01*
X199204231Y-81497322D01*
X199204234Y-81497319D01*
X199204238Y-81497318D01*
X199249187Y-81467282D01*
X199359908Y-81393302D01*
X199492302Y-81260908D01*
X199568609Y-81146707D01*
X199596318Y-81105238D01*
X199596319Y-81105234D01*
X199596322Y-81105231D01*
X199667973Y-80932251D01*
X199704500Y-80748616D01*
X199704500Y-80061384D01*
X199704499Y-80061381D01*
X199963500Y-80061381D01*
X199963500Y-80748618D01*
X200000026Y-80932249D01*
X200071677Y-81105229D01*
X200071681Y-81105238D01*
X200131021Y-81194044D01*
X200175698Y-81260908D01*
X200308092Y-81393302D01*
X200334973Y-81411263D01*
X200463761Y-81497318D01*
X200463767Y-81497320D01*
X200463769Y-81497322D01*
X200636749Y-81568973D01*
X200820384Y-81605500D01*
X200820385Y-81605500D01*
X201007615Y-81605500D01*
X201007616Y-81605500D01*
X201191251Y-81568973D01*
X201364231Y-81497322D01*
X201364234Y-81497319D01*
X201364238Y-81497318D01*
X201409187Y-81467282D01*
X201519908Y-81393302D01*
X201652302Y-81260908D01*
X201728609Y-81146707D01*
X201756318Y-81105238D01*
X201756319Y-81105234D01*
X201756322Y-81105231D01*
X201827973Y-80932251D01*
X201864500Y-80748616D01*
X201864500Y-80061384D01*
X201864499Y-80061381D01*
X202123500Y-80061381D01*
X202123500Y-80748618D01*
X202160026Y-80932249D01*
X202231677Y-81105229D01*
X202231681Y-81105238D01*
X202291021Y-81194044D01*
X202335698Y-81260908D01*
X202468092Y-81393302D01*
X202494973Y-81411263D01*
X202623761Y-81497318D01*
X202623767Y-81497320D01*
X202623769Y-81497322D01*
X202796749Y-81568973D01*
X202980384Y-81605500D01*
X202980385Y-81605500D01*
X203167615Y-81605500D01*
X203167616Y-81605500D01*
X203351251Y-81568973D01*
X203524231Y-81497322D01*
X203524234Y-81497319D01*
X203524238Y-81497318D01*
X203569187Y-81467282D01*
X203679908Y-81393302D01*
X203812302Y-81260908D01*
X203888609Y-81146707D01*
X203916318Y-81105238D01*
X203916319Y-81105234D01*
X203916322Y-81105231D01*
X203987973Y-80932251D01*
X204024500Y-80748616D01*
X204024500Y-80061384D01*
X204024499Y-80061381D01*
X204283500Y-80061381D01*
X204283500Y-80748618D01*
X204320026Y-80932249D01*
X204391677Y-81105229D01*
X204391681Y-81105238D01*
X204451021Y-81194044D01*
X204495698Y-81260908D01*
X204628092Y-81393302D01*
X204654973Y-81411263D01*
X204783761Y-81497318D01*
X204783767Y-81497320D01*
X204783769Y-81497322D01*
X204956749Y-81568973D01*
X205140384Y-81605500D01*
X205140385Y-81605500D01*
X205327615Y-81605500D01*
X205327616Y-81605500D01*
X205511251Y-81568973D01*
X205684231Y-81497322D01*
X205684234Y-81497319D01*
X205684238Y-81497318D01*
X205729187Y-81467282D01*
X205839908Y-81393302D01*
X205972302Y-81260908D01*
X206048609Y-81146707D01*
X206076318Y-81105238D01*
X206076319Y-81105234D01*
X206076322Y-81105231D01*
X206147973Y-80932251D01*
X206184500Y-80748616D01*
X206184500Y-80061384D01*
X206184499Y-80061381D01*
X206443500Y-80061381D01*
X206443500Y-80748618D01*
X206480026Y-80932249D01*
X206551677Y-81105229D01*
X206551681Y-81105238D01*
X206611021Y-81194044D01*
X206655698Y-81260908D01*
X206788092Y-81393302D01*
X206814973Y-81411263D01*
X206943761Y-81497318D01*
X206943767Y-81497320D01*
X206943769Y-81497322D01*
X207116749Y-81568973D01*
X207300384Y-81605500D01*
X207300385Y-81605500D01*
X207487615Y-81605500D01*
X207487616Y-81605500D01*
X207671251Y-81568973D01*
X207844231Y-81497322D01*
X207844234Y-81497319D01*
X207844238Y-81497318D01*
X207889187Y-81467282D01*
X207999908Y-81393302D01*
X208132302Y-81260908D01*
X208208609Y-81146707D01*
X208236318Y-81105238D01*
X208236319Y-81105234D01*
X208236322Y-81105231D01*
X208307973Y-80932251D01*
X208344500Y-80748616D01*
X208344500Y-80061384D01*
X208344499Y-80061381D01*
X208603500Y-80061381D01*
X208603500Y-80748618D01*
X208640026Y-80932249D01*
X208711677Y-81105229D01*
X208711681Y-81105238D01*
X208771021Y-81194044D01*
X208815698Y-81260908D01*
X208948092Y-81393302D01*
X208974973Y-81411263D01*
X209103761Y-81497318D01*
X209103767Y-81497320D01*
X209103769Y-81497322D01*
X209276749Y-81568973D01*
X209460384Y-81605500D01*
X209460385Y-81605500D01*
X209647615Y-81605500D01*
X209647616Y-81605500D01*
X209831251Y-81568973D01*
X210004231Y-81497322D01*
X210004234Y-81497319D01*
X210004238Y-81497318D01*
X210049187Y-81467282D01*
X210159908Y-81393302D01*
X210292302Y-81260908D01*
X210368609Y-81146707D01*
X210396318Y-81105238D01*
X210396319Y-81105234D01*
X210396322Y-81105231D01*
X210467973Y-80932251D01*
X210504500Y-80748616D01*
X210504500Y-80061384D01*
X210504499Y-80061381D01*
X210763500Y-80061381D01*
X210763500Y-80748618D01*
X210800026Y-80932249D01*
X210871677Y-81105229D01*
X210871681Y-81105238D01*
X210931021Y-81194044D01*
X210975698Y-81260908D01*
X211108092Y-81393302D01*
X211134973Y-81411263D01*
X211263761Y-81497318D01*
X211263767Y-81497320D01*
X211263769Y-81497322D01*
X211436749Y-81568973D01*
X211620384Y-81605500D01*
X211620385Y-81605500D01*
X211807615Y-81605500D01*
X211807616Y-81605500D01*
X211991251Y-81568973D01*
X212164231Y-81497322D01*
X212164234Y-81497319D01*
X212164238Y-81497318D01*
X212209187Y-81467282D01*
X212319908Y-81393302D01*
X212452302Y-81260908D01*
X212528609Y-81146707D01*
X212556318Y-81105238D01*
X212556319Y-81105234D01*
X212556322Y-81105231D01*
X212627973Y-80932251D01*
X212664500Y-80748616D01*
X212664500Y-80061384D01*
X212664499Y-80061381D01*
X212923500Y-80061381D01*
X212923500Y-80748618D01*
X212960026Y-80932249D01*
X213031677Y-81105229D01*
X213031681Y-81105238D01*
X213091021Y-81194044D01*
X213135698Y-81260908D01*
X213268092Y-81393302D01*
X213294973Y-81411263D01*
X213423761Y-81497318D01*
X213423767Y-81497320D01*
X213423769Y-81497322D01*
X213596749Y-81568973D01*
X213780384Y-81605500D01*
X213780385Y-81605500D01*
X213967615Y-81605500D01*
X213967616Y-81605500D01*
X214151251Y-81568973D01*
X214324231Y-81497322D01*
X214324234Y-81497319D01*
X214324238Y-81497318D01*
X214369187Y-81467282D01*
X214479908Y-81393302D01*
X214612302Y-81260908D01*
X214688609Y-81146707D01*
X214716318Y-81105238D01*
X214716319Y-81105234D01*
X214716322Y-81105231D01*
X214787973Y-80932251D01*
X214824500Y-80748616D01*
X214824500Y-80061384D01*
X214824499Y-80061381D01*
X215083500Y-80061381D01*
X215083500Y-80748618D01*
X215120026Y-80932249D01*
X215191677Y-81105229D01*
X215191681Y-81105238D01*
X215251021Y-81194044D01*
X215295698Y-81260908D01*
X215428092Y-81393302D01*
X215454973Y-81411263D01*
X215583761Y-81497318D01*
X215583767Y-81497320D01*
X215583769Y-81497322D01*
X215756749Y-81568973D01*
X215940384Y-81605500D01*
X215940385Y-81605500D01*
X216127615Y-81605500D01*
X216127616Y-81605500D01*
X216311251Y-81568973D01*
X216484231Y-81497322D01*
X216484234Y-81497319D01*
X216484238Y-81497318D01*
X216529187Y-81467282D01*
X216639908Y-81393302D01*
X216772302Y-81260908D01*
X216848609Y-81146707D01*
X216876318Y-81105238D01*
X216876319Y-81105234D01*
X216876322Y-81105231D01*
X216947973Y-80932251D01*
X216984500Y-80748616D01*
X216984500Y-80061384D01*
X216984499Y-80061381D01*
X217243500Y-80061381D01*
X217243500Y-80748618D01*
X217280026Y-80932249D01*
X217351677Y-81105229D01*
X217351681Y-81105238D01*
X217411021Y-81194044D01*
X217455698Y-81260908D01*
X217588092Y-81393302D01*
X217614973Y-81411263D01*
X217743761Y-81497318D01*
X217743767Y-81497320D01*
X217743769Y-81497322D01*
X217916749Y-81568973D01*
X218100384Y-81605500D01*
X218100385Y-81605500D01*
X218287615Y-81605500D01*
X218287616Y-81605500D01*
X218471251Y-81568973D01*
X218644231Y-81497322D01*
X218644234Y-81497319D01*
X218644238Y-81497318D01*
X218689187Y-81467282D01*
X218799908Y-81393302D01*
X218932302Y-81260908D01*
X219008609Y-81146707D01*
X219036318Y-81105238D01*
X219036319Y-81105234D01*
X219036322Y-81105231D01*
X219107973Y-80932251D01*
X219144500Y-80748616D01*
X219144500Y-80061384D01*
X219121147Y-79943982D01*
X222574500Y-79943982D01*
X222574500Y-80056018D01*
X222582881Y-80087295D01*
X222603498Y-80164241D01*
X222659513Y-80261260D01*
X222659515Y-80261263D01*
X222738737Y-80340485D01*
X222738739Y-80340486D01*
X222835759Y-80396501D01*
X222835757Y-80396501D01*
X222835761Y-80396502D01*
X222835763Y-80396503D01*
X222943982Y-80425500D01*
X222943984Y-80425500D01*
X223056016Y-80425500D01*
X223056018Y-80425500D01*
X223164237Y-80396503D01*
X223164239Y-80396501D01*
X223164241Y-80396501D01*
X223193064Y-80379859D01*
X223261263Y-80340485D01*
X223340485Y-80261263D01*
X223396503Y-80164237D01*
X223425500Y-80056018D01*
X223425500Y-79943982D01*
X223396503Y-79835763D01*
X223396501Y-79835760D01*
X223396501Y-79835758D01*
X223340486Y-79738739D01*
X223340485Y-79738737D01*
X223261263Y-79659515D01*
X223261260Y-79659513D01*
X223234736Y-79644199D01*
X227360700Y-79644199D01*
X227360700Y-79769401D01*
X227393105Y-79890336D01*
X227455705Y-79998764D01*
X227544236Y-80087295D01*
X227652664Y-80149895D01*
X227773599Y-80182300D01*
X227773601Y-80182300D01*
X227898799Y-80182300D01*
X227898801Y-80182300D01*
X228019736Y-80149895D01*
X228128164Y-80087295D01*
X228216695Y-79998764D01*
X228248323Y-79943982D01*
X228574500Y-79943982D01*
X228574500Y-80056018D01*
X228582881Y-80087295D01*
X228603498Y-80164241D01*
X228659513Y-80261260D01*
X228659515Y-80261263D01*
X228738737Y-80340485D01*
X228738739Y-80340486D01*
X228835759Y-80396501D01*
X228835757Y-80396501D01*
X228835761Y-80396502D01*
X228835763Y-80396503D01*
X228943982Y-80425500D01*
X228943984Y-80425500D01*
X229056016Y-80425500D01*
X229056018Y-80425500D01*
X229164237Y-80396503D01*
X229164239Y-80396501D01*
X229164241Y-80396501D01*
X229193064Y-80379859D01*
X229261263Y-80340485D01*
X229340485Y-80261263D01*
X229396503Y-80164237D01*
X229425500Y-80056018D01*
X229425500Y-79943982D01*
X231574500Y-79943982D01*
X231574500Y-80056018D01*
X231582881Y-80087295D01*
X231603498Y-80164241D01*
X231659513Y-80261260D01*
X231659515Y-80261263D01*
X231738737Y-80340485D01*
X231738739Y-80340486D01*
X231835759Y-80396501D01*
X231835757Y-80396501D01*
X231835761Y-80396502D01*
X231835763Y-80396503D01*
X231943982Y-80425500D01*
X231943984Y-80425500D01*
X232056016Y-80425500D01*
X232056018Y-80425500D01*
X232164237Y-80396503D01*
X232164239Y-80396501D01*
X232164241Y-80396501D01*
X232193064Y-80379859D01*
X232261263Y-80340485D01*
X232340485Y-80261263D01*
X232396503Y-80164237D01*
X232425500Y-80056018D01*
X232425500Y-79943982D01*
X232396503Y-79835763D01*
X232396501Y-79835760D01*
X232396501Y-79835758D01*
X232340486Y-79738739D01*
X232340485Y-79738737D01*
X232261263Y-79659515D01*
X232261260Y-79659513D01*
X232164240Y-79603498D01*
X232164242Y-79603498D01*
X232122251Y-79592247D01*
X232056018Y-79574500D01*
X231943982Y-79574500D01*
X231877748Y-79592247D01*
X231835758Y-79603498D01*
X231738739Y-79659513D01*
X231659513Y-79738739D01*
X231603498Y-79835758D01*
X231603497Y-79835763D01*
X231574500Y-79943982D01*
X229425500Y-79943982D01*
X229396503Y-79835763D01*
X229396501Y-79835760D01*
X229396501Y-79835758D01*
X229340486Y-79738739D01*
X229340485Y-79738737D01*
X229261263Y-79659515D01*
X229261260Y-79659513D01*
X229164240Y-79603498D01*
X229164242Y-79603498D01*
X229122251Y-79592247D01*
X229056018Y-79574500D01*
X228943982Y-79574500D01*
X228877748Y-79592247D01*
X228835758Y-79603498D01*
X228738739Y-79659513D01*
X228659513Y-79738739D01*
X228603498Y-79835758D01*
X228603497Y-79835763D01*
X228574500Y-79943982D01*
X228248323Y-79943982D01*
X228279295Y-79890336D01*
X228311700Y-79769401D01*
X228311700Y-79644199D01*
X228279295Y-79523264D01*
X228216695Y-79414836D01*
X228128164Y-79326305D01*
X228019736Y-79263705D01*
X227898801Y-79231300D01*
X227773599Y-79231300D01*
X227692975Y-79252903D01*
X227652663Y-79263705D01*
X227544236Y-79326305D01*
X227455705Y-79414836D01*
X227393105Y-79523263D01*
X227387553Y-79543983D01*
X227360700Y-79644199D01*
X223234736Y-79644199D01*
X223164240Y-79603498D01*
X223164242Y-79603498D01*
X223122251Y-79592247D01*
X223056018Y-79574500D01*
X222943982Y-79574500D01*
X222877748Y-79592247D01*
X222835758Y-79603498D01*
X222738739Y-79659513D01*
X222659513Y-79738739D01*
X222603498Y-79835758D01*
X222603497Y-79835763D01*
X222574500Y-79943982D01*
X219121147Y-79943982D01*
X219107973Y-79877749D01*
X219036322Y-79704769D01*
X219036320Y-79704767D01*
X219036318Y-79704761D01*
X218968654Y-79603497D01*
X218932302Y-79549092D01*
X218799908Y-79416698D01*
X218716944Y-79361263D01*
X218644238Y-79312681D01*
X218644229Y-79312677D01*
X218471249Y-79241026D01*
X218287618Y-79204500D01*
X218287616Y-79204500D01*
X218100384Y-79204500D01*
X218100381Y-79204500D01*
X217916750Y-79241026D01*
X217743770Y-79312677D01*
X217743761Y-79312681D01*
X217588092Y-79416698D01*
X217588088Y-79416701D01*
X217455701Y-79549088D01*
X217455698Y-79549092D01*
X217351681Y-79704761D01*
X217351677Y-79704770D01*
X217280026Y-79877750D01*
X217243500Y-80061381D01*
X216984499Y-80061381D01*
X216947973Y-79877749D01*
X216876322Y-79704769D01*
X216876320Y-79704767D01*
X216876318Y-79704761D01*
X216808654Y-79603497D01*
X216772302Y-79549092D01*
X216639908Y-79416698D01*
X216556944Y-79361263D01*
X216484238Y-79312681D01*
X216484229Y-79312677D01*
X216311249Y-79241026D01*
X216127618Y-79204500D01*
X216127616Y-79204500D01*
X215940384Y-79204500D01*
X215940381Y-79204500D01*
X215756750Y-79241026D01*
X215583770Y-79312677D01*
X215583761Y-79312681D01*
X215428092Y-79416698D01*
X215428088Y-79416701D01*
X215295701Y-79549088D01*
X215295698Y-79549092D01*
X215191681Y-79704761D01*
X215191677Y-79704770D01*
X215120026Y-79877750D01*
X215083500Y-80061381D01*
X214824499Y-80061381D01*
X214787973Y-79877749D01*
X214716322Y-79704769D01*
X214716320Y-79704767D01*
X214716318Y-79704761D01*
X214648654Y-79603497D01*
X214612302Y-79549092D01*
X214479908Y-79416698D01*
X214396944Y-79361263D01*
X214324238Y-79312681D01*
X214324229Y-79312677D01*
X214151249Y-79241026D01*
X213967618Y-79204500D01*
X213967616Y-79204500D01*
X213780384Y-79204500D01*
X213780381Y-79204500D01*
X213596750Y-79241026D01*
X213423770Y-79312677D01*
X213423761Y-79312681D01*
X213268092Y-79416698D01*
X213268088Y-79416701D01*
X213135701Y-79549088D01*
X213135698Y-79549092D01*
X213031681Y-79704761D01*
X213031677Y-79704770D01*
X212960026Y-79877750D01*
X212923500Y-80061381D01*
X212664499Y-80061381D01*
X212627973Y-79877749D01*
X212556322Y-79704769D01*
X212556320Y-79704767D01*
X212556318Y-79704761D01*
X212488654Y-79603497D01*
X212452302Y-79549092D01*
X212319908Y-79416698D01*
X212236944Y-79361263D01*
X212164238Y-79312681D01*
X212164229Y-79312677D01*
X211991249Y-79241026D01*
X211807618Y-79204500D01*
X211807616Y-79204500D01*
X211620384Y-79204500D01*
X211620381Y-79204500D01*
X211436750Y-79241026D01*
X211263770Y-79312677D01*
X211263761Y-79312681D01*
X211108092Y-79416698D01*
X211108088Y-79416701D01*
X210975701Y-79549088D01*
X210975698Y-79549092D01*
X210871681Y-79704761D01*
X210871677Y-79704770D01*
X210800026Y-79877750D01*
X210763500Y-80061381D01*
X210504499Y-80061381D01*
X210467973Y-79877749D01*
X210396322Y-79704769D01*
X210396320Y-79704767D01*
X210396318Y-79704761D01*
X210328654Y-79603497D01*
X210292302Y-79549092D01*
X210159908Y-79416698D01*
X210076944Y-79361263D01*
X210004238Y-79312681D01*
X210004229Y-79312677D01*
X209831249Y-79241026D01*
X209647618Y-79204500D01*
X209647616Y-79204500D01*
X209460384Y-79204500D01*
X209460381Y-79204500D01*
X209276750Y-79241026D01*
X209103770Y-79312677D01*
X209103761Y-79312681D01*
X208948092Y-79416698D01*
X208948088Y-79416701D01*
X208815701Y-79549088D01*
X208815698Y-79549092D01*
X208711681Y-79704761D01*
X208711677Y-79704770D01*
X208640026Y-79877750D01*
X208603500Y-80061381D01*
X208344499Y-80061381D01*
X208307973Y-79877749D01*
X208236322Y-79704769D01*
X208236320Y-79704767D01*
X208236318Y-79704761D01*
X208168654Y-79603497D01*
X208132302Y-79549092D01*
X207999908Y-79416698D01*
X207916944Y-79361263D01*
X207844238Y-79312681D01*
X207844229Y-79312677D01*
X207671249Y-79241026D01*
X207487618Y-79204500D01*
X207487616Y-79204500D01*
X207300384Y-79204500D01*
X207300381Y-79204500D01*
X207116750Y-79241026D01*
X206943770Y-79312677D01*
X206943761Y-79312681D01*
X206788092Y-79416698D01*
X206788088Y-79416701D01*
X206655701Y-79549088D01*
X206655698Y-79549092D01*
X206551681Y-79704761D01*
X206551677Y-79704770D01*
X206480026Y-79877750D01*
X206443500Y-80061381D01*
X206184499Y-80061381D01*
X206147973Y-79877749D01*
X206076322Y-79704769D01*
X206076320Y-79704767D01*
X206076318Y-79704761D01*
X206008654Y-79603497D01*
X205972302Y-79549092D01*
X205839908Y-79416698D01*
X205756944Y-79361263D01*
X205684238Y-79312681D01*
X205684229Y-79312677D01*
X205511249Y-79241026D01*
X205327618Y-79204500D01*
X205327616Y-79204500D01*
X205140384Y-79204500D01*
X205140381Y-79204500D01*
X204956750Y-79241026D01*
X204783770Y-79312677D01*
X204783761Y-79312681D01*
X204628092Y-79416698D01*
X204628088Y-79416701D01*
X204495701Y-79549088D01*
X204495698Y-79549092D01*
X204391681Y-79704761D01*
X204391677Y-79704770D01*
X204320026Y-79877750D01*
X204283500Y-80061381D01*
X204024499Y-80061381D01*
X203987973Y-79877749D01*
X203916322Y-79704769D01*
X203916320Y-79704767D01*
X203916318Y-79704761D01*
X203848654Y-79603497D01*
X203812302Y-79549092D01*
X203679908Y-79416698D01*
X203596944Y-79361263D01*
X203524238Y-79312681D01*
X203524229Y-79312677D01*
X203351249Y-79241026D01*
X203167618Y-79204500D01*
X203167616Y-79204500D01*
X202980384Y-79204500D01*
X202980381Y-79204500D01*
X202796750Y-79241026D01*
X202623770Y-79312677D01*
X202623761Y-79312681D01*
X202468092Y-79416698D01*
X202468088Y-79416701D01*
X202335701Y-79549088D01*
X202335698Y-79549092D01*
X202231681Y-79704761D01*
X202231677Y-79704770D01*
X202160026Y-79877750D01*
X202123500Y-80061381D01*
X201864499Y-80061381D01*
X201827973Y-79877749D01*
X201756322Y-79704769D01*
X201756320Y-79704767D01*
X201756318Y-79704761D01*
X201688654Y-79603497D01*
X201652302Y-79549092D01*
X201519908Y-79416698D01*
X201436944Y-79361263D01*
X201364238Y-79312681D01*
X201364229Y-79312677D01*
X201191249Y-79241026D01*
X201007618Y-79204500D01*
X201007616Y-79204500D01*
X200820384Y-79204500D01*
X200820381Y-79204500D01*
X200636750Y-79241026D01*
X200463770Y-79312677D01*
X200463761Y-79312681D01*
X200308092Y-79416698D01*
X200308088Y-79416701D01*
X200175701Y-79549088D01*
X200175698Y-79549092D01*
X200071681Y-79704761D01*
X200071677Y-79704770D01*
X200000026Y-79877750D01*
X199963500Y-80061381D01*
X199704499Y-80061381D01*
X199667973Y-79877749D01*
X199596322Y-79704769D01*
X199596320Y-79704767D01*
X199596318Y-79704761D01*
X199528654Y-79603497D01*
X199492302Y-79549092D01*
X199359908Y-79416698D01*
X199276944Y-79361263D01*
X199204238Y-79312681D01*
X199204229Y-79312677D01*
X199031249Y-79241026D01*
X198847618Y-79204500D01*
X198847616Y-79204500D01*
X198660384Y-79204500D01*
X198660381Y-79204500D01*
X198476750Y-79241026D01*
X198303770Y-79312677D01*
X198303761Y-79312681D01*
X198148092Y-79416698D01*
X198148088Y-79416701D01*
X198015701Y-79549088D01*
X198015698Y-79549092D01*
X197911681Y-79704761D01*
X197911677Y-79704770D01*
X197840026Y-79877750D01*
X197803500Y-80061381D01*
X197544499Y-80061381D01*
X197507973Y-79877749D01*
X197436322Y-79704769D01*
X197436320Y-79704767D01*
X197436318Y-79704761D01*
X197368654Y-79603497D01*
X197332302Y-79549092D01*
X197199908Y-79416698D01*
X197116944Y-79361263D01*
X197044238Y-79312681D01*
X197044229Y-79312677D01*
X196871249Y-79241026D01*
X196687618Y-79204500D01*
X196687616Y-79204500D01*
X196500384Y-79204500D01*
X196500381Y-79204500D01*
X196316750Y-79241026D01*
X196143770Y-79312677D01*
X196143761Y-79312681D01*
X195988092Y-79416698D01*
X195988088Y-79416701D01*
X195855701Y-79549088D01*
X195855698Y-79549092D01*
X195751681Y-79704761D01*
X195751677Y-79704770D01*
X195680026Y-79877750D01*
X195643500Y-80061381D01*
X195384499Y-80061381D01*
X195347973Y-79877749D01*
X195276322Y-79704769D01*
X195276320Y-79704767D01*
X195276318Y-79704761D01*
X195208654Y-79603497D01*
X195172302Y-79549092D01*
X195039908Y-79416698D01*
X194956944Y-79361263D01*
X194884238Y-79312681D01*
X194884229Y-79312677D01*
X194711249Y-79241026D01*
X194527618Y-79204500D01*
X194527616Y-79204500D01*
X194340384Y-79204500D01*
X194340381Y-79204500D01*
X194156750Y-79241026D01*
X193983770Y-79312677D01*
X193983761Y-79312681D01*
X193828092Y-79416698D01*
X193828088Y-79416701D01*
X193695701Y-79549088D01*
X193695698Y-79549092D01*
X193591681Y-79704761D01*
X193591677Y-79704770D01*
X193520026Y-79877750D01*
X193483500Y-80061381D01*
X193483500Y-80558615D01*
X193464593Y-80616806D01*
X193415093Y-80652770D01*
X193353907Y-80652770D01*
X193335000Y-80644352D01*
X193264238Y-80603497D01*
X193228164Y-80593831D01*
X193156018Y-80574500D01*
X193043982Y-80574500D01*
X192977748Y-80592247D01*
X192935758Y-80603498D01*
X192838739Y-80659513D01*
X192759513Y-80738739D01*
X192703498Y-80835758D01*
X192689303Y-80888737D01*
X192674500Y-80943982D01*
X190798705Y-80943982D01*
X190796503Y-80935763D01*
X190796501Y-80935759D01*
X190740486Y-80838739D01*
X190740485Y-80838737D01*
X190661263Y-80759515D01*
X190661260Y-80759513D01*
X190564240Y-80703498D01*
X190564242Y-80703498D01*
X190522251Y-80692247D01*
X190456018Y-80674500D01*
X190343982Y-80674500D01*
X190277748Y-80692247D01*
X190235758Y-80703498D01*
X190138739Y-80759513D01*
X190059513Y-80838739D01*
X190003498Y-80935758D01*
X189996168Y-80963116D01*
X189974500Y-81043982D01*
X189262103Y-81043982D01*
X189246503Y-80985763D01*
X189246501Y-80985760D01*
X189246501Y-80985758D01*
X189190486Y-80888739D01*
X189190485Y-80888737D01*
X189111263Y-80809515D01*
X189111260Y-80809513D01*
X189014240Y-80753498D01*
X189014242Y-80753498D01*
X188959159Y-80738739D01*
X188906018Y-80724500D01*
X188793982Y-80724500D01*
X188740841Y-80738739D01*
X188685758Y-80753498D01*
X188588739Y-80809513D01*
X188509513Y-80888739D01*
X188453498Y-80985758D01*
X188453497Y-80985763D01*
X188424500Y-81093982D01*
X187525500Y-81093982D01*
X187525500Y-81043982D01*
X187496503Y-80935763D01*
X187496501Y-80935759D01*
X187496501Y-80935758D01*
X187440486Y-80838739D01*
X187440485Y-80838737D01*
X187361263Y-80759515D01*
X187361260Y-80759513D01*
X187264240Y-80703498D01*
X187264242Y-80703498D01*
X187222251Y-80692247D01*
X187156018Y-80674500D01*
X187043982Y-80674500D01*
X186977748Y-80692247D01*
X186935758Y-80703498D01*
X186838739Y-80759513D01*
X186759513Y-80838739D01*
X186703498Y-80935758D01*
X186696168Y-80963116D01*
X186674500Y-81043982D01*
X180200500Y-81043982D01*
X180200500Y-79043982D01*
X183374500Y-79043982D01*
X183374500Y-79156018D01*
X183387491Y-79204500D01*
X183403498Y-79264241D01*
X183459513Y-79361260D01*
X183459515Y-79361263D01*
X183538737Y-79440485D01*
X183538739Y-79440486D01*
X183635759Y-79496501D01*
X183635757Y-79496501D01*
X183635761Y-79496502D01*
X183635763Y-79496503D01*
X183743982Y-79525500D01*
X183743984Y-79525500D01*
X183856016Y-79525500D01*
X183856018Y-79525500D01*
X183964237Y-79496503D01*
X183964239Y-79496501D01*
X183964241Y-79496501D01*
X183993064Y-79479859D01*
X184061263Y-79440485D01*
X184140485Y-79361263D01*
X184196503Y-79264237D01*
X184225500Y-79156018D01*
X184225500Y-79043982D01*
X184196503Y-78935763D01*
X184196501Y-78935760D01*
X184196501Y-78935758D01*
X184140486Y-78838739D01*
X184140485Y-78838737D01*
X184061263Y-78759515D01*
X183998414Y-78723229D01*
X183998412Y-78723227D01*
X183964240Y-78703498D01*
X183964242Y-78703498D01*
X183922251Y-78692247D01*
X183856018Y-78674500D01*
X183743982Y-78674500D01*
X183677748Y-78692247D01*
X183635758Y-78703498D01*
X183538739Y-78759513D01*
X183459513Y-78838739D01*
X183403498Y-78935758D01*
X183392367Y-78977300D01*
X183374500Y-79043982D01*
X180200500Y-79043982D01*
X180200500Y-78643982D01*
X184774500Y-78643982D01*
X184774500Y-78756018D01*
X184789167Y-78810755D01*
X184803498Y-78864241D01*
X184859513Y-78961260D01*
X184859515Y-78961263D01*
X184938737Y-79040485D01*
X184938739Y-79040486D01*
X185035759Y-79096501D01*
X185035757Y-79096501D01*
X185035761Y-79096502D01*
X185035763Y-79096503D01*
X185143982Y-79125500D01*
X185143984Y-79125500D01*
X185256015Y-79125500D01*
X185256018Y-79125500D01*
X185303496Y-79112778D01*
X185306193Y-79112919D01*
X185308533Y-79111569D01*
X185336491Y-79114507D01*
X185364595Y-79115980D01*
X185366696Y-79117681D01*
X185369383Y-79117964D01*
X185390280Y-79136779D01*
X185412145Y-79154485D01*
X185414853Y-79158904D01*
X185460518Y-79237997D01*
X185473240Y-79297846D01*
X185460519Y-79336998D01*
X185403497Y-79435761D01*
X185402231Y-79440486D01*
X185374500Y-79543982D01*
X185374500Y-79656018D01*
X185387561Y-79704761D01*
X185403498Y-79764241D01*
X185459513Y-79861260D01*
X185459515Y-79861263D01*
X185538737Y-79940485D01*
X185538739Y-79940486D01*
X185635759Y-79996501D01*
X185635757Y-79996501D01*
X185635761Y-79996502D01*
X185635763Y-79996503D01*
X185743982Y-80025500D01*
X185743984Y-80025500D01*
X185856016Y-80025500D01*
X185856018Y-80025500D01*
X185964237Y-79996503D01*
X185964239Y-79996501D01*
X185964241Y-79996501D01*
X186032992Y-79956807D01*
X186061263Y-79940485D01*
X186140485Y-79861263D01*
X186193522Y-79769401D01*
X186196501Y-79764241D01*
X186196501Y-79764239D01*
X186196503Y-79764237D01*
X186225500Y-79656018D01*
X186225500Y-79543982D01*
X186196503Y-79435763D01*
X186140485Y-79338737D01*
X186140483Y-79338735D01*
X186139481Y-79336999D01*
X186126759Y-79277150D01*
X186139481Y-79237997D01*
X186140482Y-79236262D01*
X186140485Y-79236260D01*
X186196503Y-79139234D01*
X186222026Y-79043982D01*
X225474500Y-79043982D01*
X225474500Y-79156018D01*
X225487491Y-79204500D01*
X225503498Y-79264241D01*
X225559513Y-79361260D01*
X225559515Y-79361263D01*
X225638737Y-79440485D01*
X225638739Y-79440486D01*
X225735759Y-79496501D01*
X225735757Y-79496501D01*
X225735761Y-79496502D01*
X225735763Y-79496503D01*
X225843982Y-79525500D01*
X225843984Y-79525500D01*
X225956016Y-79525500D01*
X225956018Y-79525500D01*
X226064237Y-79496503D01*
X226064239Y-79496501D01*
X226064241Y-79496501D01*
X226093064Y-79479859D01*
X226161263Y-79440485D01*
X226240485Y-79361263D01*
X226296503Y-79264237D01*
X226325500Y-79156018D01*
X226325500Y-79043982D01*
X226317240Y-79013155D01*
X226320441Y-78952055D01*
X226358946Y-78904504D01*
X226418046Y-78888668D01*
X226450752Y-78896068D01*
X226454386Y-78897573D01*
X226454389Y-78897575D01*
X226581872Y-78950380D01*
X226717207Y-78977300D01*
X226717208Y-78977300D01*
X227955192Y-78977300D01*
X227955193Y-78977300D01*
X228090528Y-78950380D01*
X228218011Y-78897575D01*
X228332742Y-78820914D01*
X228430314Y-78723342D01*
X228506975Y-78608611D01*
X228559780Y-78481128D01*
X228586700Y-78345793D01*
X228586700Y-78207807D01*
X228586699Y-78207804D01*
X230515700Y-78207804D01*
X230515700Y-78345795D01*
X230542620Y-78481127D01*
X230542620Y-78481129D01*
X230595422Y-78608606D01*
X230595428Y-78608617D01*
X230672085Y-78723341D01*
X230769658Y-78820914D01*
X230884382Y-78897571D01*
X230884393Y-78897577D01*
X230901117Y-78904504D01*
X231011872Y-78950380D01*
X231147207Y-78977300D01*
X231147208Y-78977300D01*
X231885192Y-78977300D01*
X231885193Y-78977300D01*
X232020528Y-78950380D01*
X232148011Y-78897575D01*
X232262742Y-78820914D01*
X232360314Y-78723342D01*
X232436975Y-78608611D01*
X232489780Y-78481128D01*
X232516700Y-78345793D01*
X232516700Y-78207807D01*
X232489780Y-78072472D01*
X232458312Y-77996501D01*
X232436977Y-77944993D01*
X232436971Y-77944982D01*
X232360314Y-77830258D01*
X232262741Y-77732685D01*
X232148017Y-77656028D01*
X232148006Y-77656022D01*
X232020528Y-77603220D01*
X231885195Y-77576300D01*
X231885193Y-77576300D01*
X231147207Y-77576300D01*
X231147204Y-77576300D01*
X231011872Y-77603220D01*
X231011870Y-77603220D01*
X230884393Y-77656022D01*
X230884382Y-77656028D01*
X230769658Y-77732685D01*
X230672085Y-77830258D01*
X230595428Y-77944982D01*
X230595422Y-77944993D01*
X230542620Y-78072470D01*
X230542620Y-78072472D01*
X230515700Y-78207804D01*
X228586699Y-78207804D01*
X228559780Y-78072472D01*
X228528312Y-77996501D01*
X228506977Y-77944993D01*
X228506971Y-77944982D01*
X228430314Y-77830258D01*
X228332741Y-77732685D01*
X228218017Y-77656028D01*
X228218006Y-77656022D01*
X228090528Y-77603220D01*
X227955195Y-77576300D01*
X227955193Y-77576300D01*
X226717207Y-77576300D01*
X226717204Y-77576300D01*
X226581872Y-77603220D01*
X226581870Y-77603220D01*
X226454393Y-77656022D01*
X226454382Y-77656028D01*
X226339658Y-77732685D01*
X226242085Y-77830258D01*
X226165428Y-77944982D01*
X226165422Y-77944993D01*
X226112620Y-78072470D01*
X226112620Y-78072472D01*
X226085700Y-78207804D01*
X226085700Y-78345795D01*
X226112620Y-78481127D01*
X226112620Y-78481129D01*
X226145443Y-78560371D01*
X226150243Y-78621368D01*
X226118274Y-78673537D01*
X226061746Y-78696951D01*
X226028357Y-78693883D01*
X225956018Y-78674500D01*
X225843982Y-78674500D01*
X225777748Y-78692247D01*
X225735758Y-78703498D01*
X225638739Y-78759513D01*
X225559513Y-78838739D01*
X225503498Y-78935758D01*
X225492367Y-78977300D01*
X225474500Y-79043982D01*
X186222026Y-79043982D01*
X186225500Y-79031015D01*
X186225500Y-78918979D01*
X186196503Y-78810760D01*
X186196501Y-78810757D01*
X186196501Y-78810755D01*
X186140486Y-78713736D01*
X186140485Y-78713734D01*
X186061263Y-78634512D01*
X186061260Y-78634510D01*
X185964240Y-78578495D01*
X185964242Y-78578495D01*
X185922251Y-78567244D01*
X185856018Y-78549497D01*
X185743982Y-78549497D01*
X185743981Y-78549497D01*
X185696504Y-78562218D01*
X185635402Y-78559015D01*
X185587853Y-78520509D01*
X185585146Y-78516091D01*
X185540486Y-78438739D01*
X185540485Y-78438737D01*
X185461263Y-78359515D01*
X185461260Y-78359513D01*
X185364240Y-78303498D01*
X185364242Y-78303498D01*
X185322251Y-78292247D01*
X185256018Y-78274500D01*
X185143982Y-78274500D01*
X185077748Y-78292247D01*
X185035758Y-78303498D01*
X184938739Y-78359513D01*
X184859513Y-78438739D01*
X184803498Y-78535758D01*
X184796903Y-78560371D01*
X184774500Y-78643982D01*
X180200500Y-78643982D01*
X180200500Y-77943982D01*
X180574500Y-77943982D01*
X180574500Y-78056018D01*
X180578909Y-78072472D01*
X180603498Y-78164241D01*
X180647519Y-78240486D01*
X180659515Y-78261263D01*
X180738737Y-78340485D01*
X180738739Y-78340486D01*
X180835759Y-78396501D01*
X180835757Y-78396501D01*
X180835761Y-78396502D01*
X180835763Y-78396503D01*
X180943982Y-78425500D01*
X180943984Y-78425500D01*
X181056016Y-78425500D01*
X181056018Y-78425500D01*
X181164237Y-78396503D01*
X181164239Y-78396501D01*
X181164241Y-78396501D01*
X181202342Y-78374503D01*
X181261263Y-78340485D01*
X181340485Y-78261263D01*
X181396503Y-78164237D01*
X181425500Y-78056018D01*
X181425500Y-77943982D01*
X181403832Y-77863115D01*
X181403832Y-77863113D01*
X181398705Y-77843982D01*
X193174500Y-77843982D01*
X193174500Y-77956018D01*
X193185348Y-77996503D01*
X193203498Y-78064241D01*
X193259513Y-78161260D01*
X193259515Y-78161263D01*
X193338737Y-78240485D01*
X193338739Y-78240486D01*
X193435759Y-78296501D01*
X193435757Y-78296501D01*
X193435761Y-78296502D01*
X193435763Y-78296503D01*
X193543982Y-78325500D01*
X193543984Y-78325500D01*
X193656016Y-78325500D01*
X193656018Y-78325500D01*
X193764237Y-78296503D01*
X193764239Y-78296501D01*
X193764241Y-78296501D01*
X193825274Y-78261263D01*
X193861263Y-78240485D01*
X193940485Y-78161263D01*
X193996503Y-78064237D01*
X194025500Y-77956018D01*
X194025500Y-77921982D01*
X194574500Y-77921982D01*
X194574500Y-78034018D01*
X194584803Y-78072470D01*
X194603498Y-78142241D01*
X194641354Y-78207808D01*
X194659515Y-78239263D01*
X194738737Y-78318485D01*
X194771079Y-78337157D01*
X194835759Y-78374501D01*
X194835757Y-78374501D01*
X194835761Y-78374502D01*
X194835763Y-78374503D01*
X194943982Y-78403500D01*
X194943984Y-78403500D01*
X195056016Y-78403500D01*
X195056018Y-78403500D01*
X195164237Y-78374503D01*
X195164239Y-78374501D01*
X195164241Y-78374501D01*
X195193064Y-78357859D01*
X195261263Y-78318485D01*
X195340485Y-78239263D01*
X195396503Y-78142237D01*
X195425500Y-78034018D01*
X195425500Y-77943982D01*
X204574500Y-77943982D01*
X204574500Y-78056018D01*
X204578909Y-78072472D01*
X204603498Y-78164241D01*
X204647519Y-78240486D01*
X204659515Y-78261263D01*
X204738737Y-78340485D01*
X204738739Y-78340486D01*
X204835759Y-78396501D01*
X204835757Y-78396501D01*
X204835761Y-78396502D01*
X204835763Y-78396503D01*
X204943982Y-78425500D01*
X204943984Y-78425500D01*
X205056016Y-78425500D01*
X205056018Y-78425500D01*
X205164237Y-78396503D01*
X205164239Y-78396501D01*
X205164241Y-78396501D01*
X205202342Y-78374503D01*
X205261263Y-78340485D01*
X205340485Y-78261263D01*
X205396503Y-78164237D01*
X205425500Y-78056018D01*
X205425500Y-77943982D01*
X207574500Y-77943982D01*
X207574500Y-78056018D01*
X207578909Y-78072472D01*
X207603498Y-78164241D01*
X207647519Y-78240486D01*
X207659515Y-78261263D01*
X207738737Y-78340485D01*
X207738739Y-78340486D01*
X207835759Y-78396501D01*
X207835757Y-78396501D01*
X207835761Y-78396502D01*
X207835763Y-78396503D01*
X207943982Y-78425500D01*
X207943984Y-78425500D01*
X208056016Y-78425500D01*
X208056018Y-78425500D01*
X208164237Y-78396503D01*
X208164239Y-78396501D01*
X208164241Y-78396501D01*
X208202342Y-78374503D01*
X208261263Y-78340485D01*
X208340485Y-78261263D01*
X208396503Y-78164237D01*
X208425500Y-78056018D01*
X208425500Y-77943982D01*
X210574500Y-77943982D01*
X210574500Y-78056018D01*
X210578909Y-78072472D01*
X210603498Y-78164241D01*
X210647519Y-78240486D01*
X210659515Y-78261263D01*
X210738737Y-78340485D01*
X210738739Y-78340486D01*
X210835759Y-78396501D01*
X210835757Y-78396501D01*
X210835761Y-78396502D01*
X210835763Y-78396503D01*
X210943982Y-78425500D01*
X210943984Y-78425500D01*
X211056016Y-78425500D01*
X211056018Y-78425500D01*
X211164237Y-78396503D01*
X211164239Y-78396501D01*
X211164241Y-78396501D01*
X211202342Y-78374503D01*
X211261263Y-78340485D01*
X211340485Y-78261263D01*
X211396503Y-78164237D01*
X211425500Y-78056018D01*
X211425500Y-77943982D01*
X213574500Y-77943982D01*
X213574500Y-78056018D01*
X213578909Y-78072472D01*
X213603498Y-78164241D01*
X213647519Y-78240486D01*
X213659515Y-78261263D01*
X213738737Y-78340485D01*
X213738739Y-78340486D01*
X213835759Y-78396501D01*
X213835757Y-78396501D01*
X213835761Y-78396502D01*
X213835763Y-78396503D01*
X213943982Y-78425500D01*
X213943984Y-78425500D01*
X214056016Y-78425500D01*
X214056018Y-78425500D01*
X214164237Y-78396503D01*
X214164239Y-78396501D01*
X214164241Y-78396501D01*
X214202342Y-78374503D01*
X214261263Y-78340485D01*
X214340485Y-78261263D01*
X214396503Y-78164237D01*
X214425500Y-78056018D01*
X214425500Y-77943982D01*
X216574500Y-77943982D01*
X216574500Y-78056018D01*
X216578909Y-78072472D01*
X216603498Y-78164241D01*
X216647519Y-78240486D01*
X216659515Y-78261263D01*
X216738737Y-78340485D01*
X216738739Y-78340486D01*
X216835759Y-78396501D01*
X216835757Y-78396501D01*
X216835761Y-78396502D01*
X216835763Y-78396503D01*
X216943982Y-78425500D01*
X216943984Y-78425500D01*
X217056016Y-78425500D01*
X217056018Y-78425500D01*
X217164237Y-78396503D01*
X217164239Y-78396501D01*
X217164241Y-78396501D01*
X217202342Y-78374503D01*
X217261263Y-78340485D01*
X217340485Y-78261263D01*
X217396503Y-78164237D01*
X217425500Y-78056018D01*
X217425500Y-77943982D01*
X217396503Y-77835763D01*
X217396501Y-77835759D01*
X217396501Y-77835758D01*
X217340486Y-77738739D01*
X217340485Y-77738737D01*
X217261263Y-77659515D01*
X217198414Y-77623229D01*
X217198412Y-77623227D01*
X217164240Y-77603498D01*
X217164242Y-77603498D01*
X217122251Y-77592247D01*
X217056018Y-77574500D01*
X216943982Y-77574500D01*
X216877748Y-77592247D01*
X216835758Y-77603498D01*
X216738739Y-77659513D01*
X216659513Y-77738739D01*
X216603498Y-77835758D01*
X216596168Y-77863116D01*
X216574500Y-77943982D01*
X214425500Y-77943982D01*
X214396503Y-77835763D01*
X214396501Y-77835759D01*
X214396501Y-77835758D01*
X214340486Y-77738739D01*
X214340485Y-77738737D01*
X214261263Y-77659515D01*
X214261260Y-77659513D01*
X214164240Y-77603498D01*
X214164242Y-77603498D01*
X214122251Y-77592247D01*
X214056018Y-77574500D01*
X213943982Y-77574500D01*
X213877748Y-77592247D01*
X213835758Y-77603498D01*
X213738739Y-77659513D01*
X213659513Y-77738739D01*
X213603498Y-77835758D01*
X213596168Y-77863116D01*
X213574500Y-77943982D01*
X211425500Y-77943982D01*
X211396503Y-77835763D01*
X211396501Y-77835759D01*
X211396501Y-77835758D01*
X211340486Y-77738739D01*
X211340485Y-77738737D01*
X211261263Y-77659515D01*
X211261260Y-77659513D01*
X211164240Y-77603498D01*
X211164242Y-77603498D01*
X211122251Y-77592247D01*
X211056018Y-77574500D01*
X210943982Y-77574500D01*
X210877748Y-77592247D01*
X210835758Y-77603498D01*
X210738739Y-77659513D01*
X210659513Y-77738739D01*
X210603498Y-77835758D01*
X210596168Y-77863116D01*
X210574500Y-77943982D01*
X208425500Y-77943982D01*
X208396503Y-77835763D01*
X208396501Y-77835759D01*
X208396501Y-77835758D01*
X208340486Y-77738739D01*
X208340485Y-77738737D01*
X208261263Y-77659515D01*
X208261260Y-77659513D01*
X208164240Y-77603498D01*
X208164242Y-77603498D01*
X208122251Y-77592247D01*
X208056018Y-77574500D01*
X207943982Y-77574500D01*
X207877748Y-77592247D01*
X207835758Y-77603498D01*
X207738739Y-77659513D01*
X207659513Y-77738739D01*
X207603498Y-77835758D01*
X207596168Y-77863116D01*
X207574500Y-77943982D01*
X205425500Y-77943982D01*
X205396503Y-77835763D01*
X205396501Y-77835759D01*
X205396501Y-77835758D01*
X205340486Y-77738739D01*
X205340485Y-77738737D01*
X205261263Y-77659515D01*
X205261260Y-77659513D01*
X205164240Y-77603498D01*
X205164242Y-77603498D01*
X205122251Y-77592247D01*
X205056018Y-77574500D01*
X204943982Y-77574500D01*
X204877748Y-77592247D01*
X204835758Y-77603498D01*
X204738739Y-77659513D01*
X204659513Y-77738739D01*
X204603498Y-77835758D01*
X204596168Y-77863116D01*
X204574500Y-77943982D01*
X195425500Y-77943982D01*
X195425500Y-77921982D01*
X195396503Y-77813763D01*
X195396501Y-77813760D01*
X195396501Y-77813758D01*
X195340486Y-77716739D01*
X195340485Y-77716737D01*
X195261263Y-77637515D01*
X195261260Y-77637513D01*
X195164240Y-77581498D01*
X195164242Y-77581498D01*
X195122251Y-77570247D01*
X195056018Y-77552500D01*
X194943982Y-77552500D01*
X194877748Y-77570247D01*
X194835758Y-77581498D01*
X194738739Y-77637513D01*
X194659513Y-77716739D01*
X194603498Y-77813758D01*
X194590770Y-77861260D01*
X194574500Y-77921982D01*
X194025500Y-77921982D01*
X194025500Y-77843982D01*
X193996503Y-77735763D01*
X193996501Y-77735760D01*
X193996501Y-77735758D01*
X193940486Y-77638739D01*
X193940485Y-77638737D01*
X193861263Y-77559515D01*
X193834361Y-77543983D01*
X193834359Y-77543982D01*
X220774500Y-77543982D01*
X220774500Y-77656018D01*
X220796664Y-77738737D01*
X220803498Y-77764241D01*
X220849538Y-77843983D01*
X220859515Y-77861263D01*
X220938737Y-77940485D01*
X220965641Y-77956018D01*
X221035759Y-77996501D01*
X221035757Y-77996501D01*
X221035761Y-77996502D01*
X221035763Y-77996503D01*
X221143982Y-78025500D01*
X221143984Y-78025500D01*
X221256016Y-78025500D01*
X221256018Y-78025500D01*
X221364237Y-77996503D01*
X221364239Y-77996501D01*
X221364241Y-77996501D01*
X221393064Y-77979859D01*
X221455206Y-77943982D01*
X224374500Y-77943982D01*
X224374500Y-78056018D01*
X224378909Y-78072472D01*
X224403498Y-78164241D01*
X224447519Y-78240486D01*
X224459515Y-78261263D01*
X224538737Y-78340485D01*
X224538739Y-78340486D01*
X224635759Y-78396501D01*
X224635757Y-78396501D01*
X224635761Y-78396502D01*
X224635763Y-78396503D01*
X224743982Y-78425500D01*
X224743984Y-78425500D01*
X224856016Y-78425500D01*
X224856018Y-78425500D01*
X224964237Y-78396503D01*
X224964239Y-78396501D01*
X224964241Y-78396501D01*
X225002342Y-78374503D01*
X225061263Y-78340485D01*
X225140485Y-78261263D01*
X225196503Y-78164237D01*
X225225500Y-78056018D01*
X225225500Y-77943982D01*
X225196503Y-77835763D01*
X225196501Y-77835759D01*
X225196501Y-77835758D01*
X225140486Y-77738739D01*
X225140485Y-77738737D01*
X225061263Y-77659515D01*
X225061260Y-77659513D01*
X224964240Y-77603498D01*
X224964242Y-77603498D01*
X224922251Y-77592247D01*
X224856018Y-77574500D01*
X224743982Y-77574500D01*
X224677748Y-77592247D01*
X224635758Y-77603498D01*
X224538739Y-77659513D01*
X224459513Y-77738739D01*
X224403498Y-77835758D01*
X224396168Y-77863116D01*
X224374500Y-77943982D01*
X221455206Y-77943982D01*
X221461263Y-77940485D01*
X221540485Y-77861263D01*
X221596503Y-77764237D01*
X221625500Y-77656018D01*
X221625500Y-77543982D01*
X221596503Y-77435763D01*
X221596501Y-77435760D01*
X221596501Y-77435758D01*
X221540486Y-77338739D01*
X221540485Y-77338737D01*
X221461263Y-77259515D01*
X221461260Y-77259513D01*
X221364240Y-77203498D01*
X221364242Y-77203498D01*
X221322251Y-77192247D01*
X221256018Y-77174500D01*
X221143982Y-77174500D01*
X221077748Y-77192247D01*
X221035758Y-77203498D01*
X220938739Y-77259513D01*
X220859513Y-77338739D01*
X220803498Y-77435758D01*
X220787286Y-77496263D01*
X220774500Y-77543982D01*
X193834359Y-77543982D01*
X193764240Y-77503498D01*
X193764242Y-77503498D01*
X193722251Y-77492247D01*
X193656018Y-77474500D01*
X193543982Y-77474500D01*
X193477748Y-77492247D01*
X193435758Y-77503498D01*
X193338739Y-77559513D01*
X193259513Y-77638739D01*
X193203498Y-77735758D01*
X193195867Y-77764237D01*
X193174500Y-77843982D01*
X181398705Y-77843982D01*
X181396503Y-77835763D01*
X181396501Y-77835759D01*
X181340486Y-77738739D01*
X181340485Y-77738737D01*
X181261263Y-77659515D01*
X181261260Y-77659513D01*
X181164240Y-77603498D01*
X181164242Y-77603498D01*
X181122251Y-77592247D01*
X181056018Y-77574500D01*
X180943982Y-77574500D01*
X180877748Y-77592247D01*
X180835758Y-77603498D01*
X180738739Y-77659513D01*
X180659513Y-77738739D01*
X180603498Y-77835758D01*
X180596168Y-77863116D01*
X180574500Y-77943982D01*
X180200500Y-77943982D01*
X180200500Y-76004860D01*
X180200977Y-75995156D01*
X180204316Y-75961260D01*
X180206018Y-75943982D01*
X182574500Y-75943982D01*
X182574500Y-76056018D01*
X182585348Y-76096503D01*
X182603498Y-76164241D01*
X182659513Y-76261260D01*
X182659515Y-76261263D01*
X182738737Y-76340485D01*
X182738739Y-76340486D01*
X182835759Y-76396501D01*
X182835757Y-76396501D01*
X182835761Y-76396502D01*
X182835763Y-76396503D01*
X182943982Y-76425500D01*
X182943984Y-76425500D01*
X183056016Y-76425500D01*
X183056018Y-76425500D01*
X183164237Y-76396503D01*
X183164239Y-76396501D01*
X183164241Y-76396501D01*
X183193064Y-76379859D01*
X183261263Y-76340485D01*
X183340485Y-76261263D01*
X183396503Y-76164237D01*
X183425500Y-76056018D01*
X183425500Y-75943982D01*
X184174500Y-75943982D01*
X184174500Y-76056018D01*
X184185348Y-76096503D01*
X184203498Y-76164241D01*
X184259513Y-76261260D01*
X184259515Y-76261263D01*
X184338737Y-76340485D01*
X184338739Y-76340486D01*
X184435759Y-76396501D01*
X184435757Y-76396501D01*
X184435761Y-76396502D01*
X184435763Y-76396503D01*
X184543982Y-76425500D01*
X184543984Y-76425500D01*
X184656016Y-76425500D01*
X184656018Y-76425500D01*
X184764237Y-76396503D01*
X184764239Y-76396501D01*
X184764241Y-76396501D01*
X184793064Y-76379859D01*
X184861263Y-76340485D01*
X184940485Y-76261263D01*
X184996503Y-76164237D01*
X185025500Y-76056018D01*
X185025500Y-75943982D01*
X184996503Y-75835763D01*
X184996501Y-75835760D01*
X184996501Y-75835758D01*
X184940486Y-75738739D01*
X184940485Y-75738737D01*
X184861263Y-75659515D01*
X184834361Y-75643983D01*
X184764240Y-75603498D01*
X184764242Y-75603498D01*
X184722251Y-75592247D01*
X184656018Y-75574500D01*
X184543982Y-75574500D01*
X184477748Y-75592247D01*
X184435758Y-75603498D01*
X184338739Y-75659513D01*
X184259513Y-75738739D01*
X184203498Y-75835758D01*
X184203497Y-75835763D01*
X184174500Y-75943982D01*
X183425500Y-75943982D01*
X183396503Y-75835763D01*
X183396501Y-75835760D01*
X183396501Y-75835758D01*
X183340486Y-75738739D01*
X183340485Y-75738737D01*
X183261263Y-75659515D01*
X183234361Y-75643983D01*
X183164240Y-75603498D01*
X183164242Y-75603498D01*
X183122251Y-75592247D01*
X183056018Y-75574500D01*
X182943982Y-75574500D01*
X182877748Y-75592247D01*
X182835758Y-75603498D01*
X182738739Y-75659513D01*
X182659513Y-75738739D01*
X182603498Y-75835758D01*
X182603497Y-75835763D01*
X182574500Y-75943982D01*
X180206018Y-75943982D01*
X180214906Y-75853726D01*
X180218690Y-75834699D01*
X180258529Y-75703368D01*
X180265951Y-75685451D01*
X180330647Y-75564413D01*
X180341417Y-75548294D01*
X180428485Y-75442201D01*
X180442201Y-75428485D01*
X180548294Y-75341417D01*
X180564413Y-75330647D01*
X180685451Y-75265951D01*
X180703368Y-75258529D01*
X180834699Y-75218690D01*
X180853726Y-75214906D01*
X180951943Y-75205233D01*
X180995158Y-75200977D01*
X181004861Y-75200500D01*
X181039882Y-75200500D01*
X187058745Y-75200500D01*
X187116936Y-75219407D01*
G37*
%TD.AperFunction*%
%TD*%
M02*
