%TF.GenerationSoftware,KiCad,Pcbnew,8.0.4*%
%TF.CreationDate,2024-08-03T15:01:38-07:00*%
%TF.ProjectId,xyp-gpib,7879702d-6770-4696-922e-6b696361645f,2*%
%TF.SameCoordinates,Original*%
%TF.FileFunction,Legend,Bot*%
%TF.FilePolarity,Positive*%
%FSLAX46Y46*%
G04 Gerber Fmt 4.6, Leading zero omitted, Abs format (unit mm)*
G04 Created by KiCad (PCBNEW 8.0.4) date 2024-08-03 15:01:38*
%MOMM*%
%LPD*%
G01*
G04 APERTURE LIST*
%ADD10C,0.150000*%
%ADD11C,0.120000*%
G04 APERTURE END LIST*
D10*
X222049792Y-79396390D02*
X222125982Y-79358295D01*
X222125982Y-79358295D02*
X222240268Y-79358295D01*
X222240268Y-79358295D02*
X222354554Y-79396390D01*
X222354554Y-79396390D02*
X222430744Y-79472580D01*
X222430744Y-79472580D02*
X222468839Y-79548771D01*
X222468839Y-79548771D02*
X222506935Y-79701152D01*
X222506935Y-79701152D02*
X222506935Y-79815438D01*
X222506935Y-79815438D02*
X222468839Y-79967819D01*
X222468839Y-79967819D02*
X222430744Y-80044009D01*
X222430744Y-80044009D02*
X222354554Y-80120200D01*
X222354554Y-80120200D02*
X222240268Y-80158295D01*
X222240268Y-80158295D02*
X222164077Y-80158295D01*
X222164077Y-80158295D02*
X222049792Y-80120200D01*
X222049792Y-80120200D02*
X222011696Y-80082104D01*
X222011696Y-80082104D02*
X222011696Y-79815438D01*
X222011696Y-79815438D02*
X222164077Y-79815438D01*
X221668839Y-80158295D02*
X221668839Y-79358295D01*
X221668839Y-79358295D02*
X221364077Y-79358295D01*
X221364077Y-79358295D02*
X221287887Y-79396390D01*
X221287887Y-79396390D02*
X221249792Y-79434485D01*
X221249792Y-79434485D02*
X221211696Y-79510676D01*
X221211696Y-79510676D02*
X221211696Y-79624961D01*
X221211696Y-79624961D02*
X221249792Y-79701152D01*
X221249792Y-79701152D02*
X221287887Y-79739247D01*
X221287887Y-79739247D02*
X221364077Y-79777342D01*
X221364077Y-79777342D02*
X221668839Y-79777342D01*
X220868839Y-80158295D02*
X220868839Y-79358295D01*
X220221221Y-79739247D02*
X220106935Y-79777342D01*
X220106935Y-79777342D02*
X220068840Y-79815438D01*
X220068840Y-79815438D02*
X220030744Y-79891628D01*
X220030744Y-79891628D02*
X220030744Y-80005914D01*
X220030744Y-80005914D02*
X220068840Y-80082104D01*
X220068840Y-80082104D02*
X220106935Y-80120200D01*
X220106935Y-80120200D02*
X220183125Y-80158295D01*
X220183125Y-80158295D02*
X220487887Y-80158295D01*
X220487887Y-80158295D02*
X220487887Y-79358295D01*
X220487887Y-79358295D02*
X220221221Y-79358295D01*
X220221221Y-79358295D02*
X220145030Y-79396390D01*
X220145030Y-79396390D02*
X220106935Y-79434485D01*
X220106935Y-79434485D02*
X220068840Y-79510676D01*
X220068840Y-79510676D02*
X220068840Y-79586866D01*
X220068840Y-79586866D02*
X220106935Y-79663057D01*
X220106935Y-79663057D02*
X220145030Y-79701152D01*
X220145030Y-79701152D02*
X220221221Y-79739247D01*
X220221221Y-79739247D02*
X220487887Y-79739247D01*
X219268840Y-80158295D02*
X219725983Y-80158295D01*
X219497411Y-80158295D02*
X219497411Y-79358295D01*
X219497411Y-79358295D02*
X219573602Y-79472580D01*
X219573602Y-79472580D02*
X219649792Y-79548771D01*
X219649792Y-79548771D02*
X219725983Y-79586866D01*
D11*
%TO.C,GPIB1*%
X226314000Y-74900000D02*
X234314000Y-82550000D01*
X234314000Y-82550000D02*
X226314000Y-90200000D01*
X186314000Y-90200000D02*
X226314000Y-90200000D01*
X226314000Y-74900000D02*
X186314000Y-74900000D01*
X179314000Y-82550000D02*
X186314000Y-90200000D01*
X186314000Y-74900000D02*
X179314000Y-82550000D01*
%TD*%
M02*
