%TF.GenerationSoftware,KiCad,Pcbnew,9.0.1*%
%TF.CreationDate,2025-05-09T10:12:14+02:00*%
%TF.ProjectId,xyp-gpib,7879702d-6770-4696-922e-6b696361645f,rev?*%
%TF.SameCoordinates,Original*%
%TF.FileFunction,Legend,Top*%
%TF.FilePolarity,Positive*%
%FSLAX46Y46*%
G04 Gerber Fmt 4.6, Leading zero omitted, Abs format (unit mm)*
G04 Created by KiCad (PCBNEW 9.0.1) date 2025-05-09 10:12:14*
%MOMM*%
%LPD*%
G01*
G04 APERTURE LIST*
%ADD10C,0.150000*%
%ADD11C,0.120000*%
%ADD12C,0.200000*%
%ADD13C,0.250000*%
G04 APERTURE END LIST*
D10*
X200339988Y-88190605D02*
X200466988Y-88190605D01*
X200466988Y-88698605D01*
X200339988Y-88698605D01*
X200339988Y-88190605D01*
X200720988Y-88190605D02*
X200847988Y-88190605D01*
X200847988Y-88698605D01*
X200720988Y-88698605D01*
X200720988Y-88190605D01*
D11*
X198561988Y-89079605D02*
X203006988Y-89079605D01*
X198561988Y-89079605D02*
G75*
G02*
X198334810Y-88939193I12J254005D01*
G01*
D10*
X201863988Y-88190605D02*
X201990988Y-88190605D01*
X201990988Y-88698605D01*
X201863988Y-88698605D01*
X201863988Y-88190605D01*
D11*
X198561988Y-88317605D02*
X203006988Y-88317605D01*
X203006988Y-88571605D01*
X198561988Y-88571605D01*
X198561988Y-88317605D01*
G36*
X198561988Y-88317605D02*
G01*
X203006988Y-88317605D01*
X203006988Y-88571605D01*
X198561988Y-88571605D01*
X198561988Y-88317605D01*
G37*
X203274395Y-87809605D02*
G75*
G02*
X203528395Y-88063605I5J-253995D01*
G01*
D10*
X199196988Y-88190605D02*
X199323988Y-88190605D01*
X199323988Y-88698605D01*
X199196988Y-88698605D01*
X199196988Y-88190605D01*
X201101988Y-88190605D02*
X201228988Y-88190605D01*
X201228988Y-88698605D01*
X201101988Y-88698605D01*
X201101988Y-88190605D01*
X201482988Y-88190605D02*
X201609988Y-88190605D01*
X201609988Y-88698605D01*
X201482988Y-88698605D01*
X201482988Y-88190605D01*
D12*
X192024001Y-78867000D02*
X192024001Y-78867000D01*
X192024001Y-78867000D01*
X192024001Y-78867000D01*
X192024001Y-78867000D01*
X192024001Y-78867000D01*
X192024001Y-78867001D01*
X192024001Y-78867001D01*
X192024001Y-78867001D01*
X192024001Y-78867001D01*
X192024001Y-78867001D01*
X192024001Y-78867001D01*
X192024001Y-78867001D01*
X192024000Y-78867001D01*
X192024000Y-78867001D01*
X192024000Y-78867001D01*
X192024000Y-78867001D01*
X192024000Y-78867001D01*
X192024000Y-78867001D01*
X192024000Y-78867001D01*
X192024000Y-78867001D01*
X192024000Y-78867001D01*
X192024000Y-78867001D01*
X192024000Y-78867001D01*
X192024000Y-78867001D01*
X192023999Y-78867001D01*
X192023999Y-78867001D01*
X192023999Y-78867001D01*
X192023999Y-78867001D01*
X192023999Y-78867001D01*
X192023999Y-78867001D01*
X192023999Y-78867000D01*
X192023999Y-78867000D01*
X192023999Y-78867000D01*
X192023999Y-78867000D01*
X192023999Y-78867000D01*
X192023999Y-78867000D01*
X192023999Y-78867000D02*
X192023999Y-78867000D01*
X192023999Y-78867000D01*
X192023999Y-78867000D01*
X192023999Y-78867000D01*
X192023999Y-78867000D01*
X192023999Y-78867000D01*
X192023999Y-78866999D01*
X192023999Y-78866999D01*
X192023999Y-78866999D01*
X192023999Y-78866999D01*
X192023999Y-78866999D01*
X192024000Y-78866999D01*
X192024000Y-78866999D01*
X192024000Y-78866999D01*
X192024000Y-78866999D01*
X192024000Y-78866999D01*
X192024000Y-78866999D01*
X192024000Y-78866999D01*
X192024000Y-78866999D01*
X192024000Y-78866999D01*
X192024000Y-78866999D01*
X192024000Y-78866999D01*
X192024000Y-78866999D01*
X192024001Y-78866999D01*
X192024001Y-78866999D01*
X192024001Y-78866999D01*
X192024001Y-78866999D01*
X192024001Y-78866999D01*
X192024001Y-78866999D01*
X192024001Y-78867000D01*
X192024001Y-78867000D01*
X192024001Y-78867000D01*
X192024001Y-78867000D01*
X192024001Y-78867000D01*
X192024001Y-78867000D01*
X192024001Y-78867000D01*
D10*
X199958988Y-88190605D02*
X200085988Y-88190605D01*
X200085988Y-88698605D01*
X199958988Y-88698605D01*
X199958988Y-88190605D01*
X198815988Y-88190605D02*
X198942988Y-88190605D01*
X198942988Y-88698605D01*
X198815988Y-88698605D01*
X198815988Y-88190605D01*
D11*
X203234173Y-88939197D02*
G75*
G02*
X203006988Y-89079592I-227173J113597D01*
G01*
D10*
X202244988Y-88190605D02*
X202371988Y-88190605D01*
X202371988Y-88698605D01*
X202244988Y-88698605D01*
X202244988Y-88190605D01*
D11*
X198053988Y-88063605D02*
X198334803Y-88939197D01*
D10*
X202625988Y-88190605D02*
X202752988Y-88190605D01*
X202752988Y-88698605D01*
X202625988Y-88698605D01*
X202625988Y-88190605D01*
D13*
X192151000Y-78994000D02*
G75*
G02*
X191897000Y-78994000I-127000J0D01*
G01*
X191897000Y-78994000D02*
G75*
G02*
X192151000Y-78994000I127000J0D01*
G01*
D11*
X198053988Y-88063605D02*
G75*
G02*
X198307988Y-87809588I254012J5D01*
G01*
X203234173Y-88939197D02*
X203528395Y-88063605D01*
D10*
X199577988Y-88190605D02*
X199704988Y-88190605D01*
X199704988Y-88698605D01*
X199577988Y-88698605D01*
X199577988Y-88190605D01*
D11*
X203260988Y-87809605D02*
X198307988Y-87809605D01*
D10*
G36*
X204919810Y-88544333D02*
G01*
X204919810Y-88130097D01*
X205876265Y-88130097D01*
X205876265Y-88980673D01*
X205688041Y-89098998D01*
X205527389Y-89181757D01*
X205390466Y-89235052D01*
X205248238Y-89271123D01*
X205082516Y-89294244D01*
X204889891Y-89302463D01*
X204708706Y-89293811D01*
X204553689Y-89269492D01*
X204421317Y-89231530D01*
X204308471Y-89181318D01*
X204202891Y-89113698D01*
X204110199Y-89031812D01*
X204029392Y-88934679D01*
X203960058Y-88820694D01*
X203892569Y-88656817D01*
X203850909Y-88474647D01*
X203836471Y-88270781D01*
X203845524Y-88107406D01*
X203871685Y-87959500D01*
X203913886Y-87825112D01*
X203971660Y-87702550D01*
X204046956Y-87589310D01*
X204137283Y-87491081D01*
X204243696Y-87406700D01*
X204367944Y-87335697D01*
X204507257Y-87285204D01*
X204686815Y-87251539D01*
X204915780Y-87239099D01*
X205139121Y-87247353D01*
X205300144Y-87268781D01*
X205412448Y-87299061D01*
X205517019Y-87346900D01*
X205607546Y-87408688D01*
X205685634Y-87484929D01*
X205750270Y-87573421D01*
X205804878Y-87679010D01*
X205848910Y-87804277D01*
X205251859Y-87911255D01*
X205220740Y-87839849D01*
X205179173Y-87782489D01*
X205126806Y-87737110D01*
X205065385Y-87704641D01*
X204991452Y-87684110D01*
X204902103Y-87676782D01*
X204802761Y-87686123D01*
X204717237Y-87712871D01*
X204642806Y-87756381D01*
X204577626Y-87817710D01*
X204528891Y-87890233D01*
X204491091Y-87984928D01*
X204465990Y-88107146D01*
X204456726Y-88263331D01*
X204466326Y-88430316D01*
X204492061Y-88558098D01*
X204530310Y-88654507D01*
X204578969Y-88726049D01*
X204644560Y-88785634D01*
X204721559Y-88828552D01*
X204812239Y-88855324D01*
X204919810Y-88864779D01*
X205021899Y-88857208D01*
X205117891Y-88834860D01*
X205213915Y-88796652D01*
X205333802Y-88732522D01*
X205333802Y-88544333D01*
X204919810Y-88544333D01*
G37*
G36*
X207312087Y-87795679D02*
G01*
X207412100Y-87822868D01*
X207500239Y-87866906D01*
X207578421Y-87928289D01*
X207647759Y-88008830D01*
X207715741Y-88123226D01*
X207765348Y-88251481D01*
X207796234Y-88395918D01*
X207807005Y-88559354D01*
X207794461Y-88741609D01*
X207759661Y-88890739D01*
X207705606Y-89012620D01*
X207633471Y-89111953D01*
X207540446Y-89195694D01*
X207437867Y-89254488D01*
X207323695Y-89290163D01*
X207194933Y-89302463D01*
X207070449Y-89291252D01*
X206960581Y-89258865D01*
X206860853Y-89205048D01*
X206771415Y-89129417D01*
X206771415Y-89826119D01*
X206209779Y-89826119D01*
X206209779Y-88547996D01*
X206767263Y-88547996D01*
X206776713Y-88661220D01*
X206801863Y-88744347D01*
X206839681Y-88804574D01*
X206892600Y-88851304D01*
X206952776Y-88878803D01*
X207022741Y-88888227D01*
X207083654Y-88879387D01*
X207137110Y-88853244D01*
X207185285Y-88807993D01*
X207218554Y-88750220D01*
X207241804Y-88663010D01*
X207250864Y-88535662D01*
X207241781Y-88419099D01*
X207217867Y-88335090D01*
X207182476Y-88275666D01*
X207132422Y-88228685D01*
X207077615Y-88201698D01*
X207015903Y-88192623D01*
X206948659Y-88201966D01*
X206890230Y-88229399D01*
X206838216Y-88276398D01*
X206801734Y-88336664D01*
X206776818Y-88424103D01*
X206767263Y-88547996D01*
X206209779Y-88547996D01*
X206209779Y-87817466D01*
X206730383Y-87817466D01*
X206730383Y-88031667D01*
X206840772Y-87912896D01*
X206928464Y-87849950D01*
X207011594Y-87814808D01*
X207100866Y-87793483D01*
X207197619Y-87786203D01*
X207312087Y-87795679D01*
G37*
G36*
X208093624Y-87270362D02*
G01*
X208649643Y-87270362D01*
X208649643Y-87645519D01*
X208093624Y-87645519D01*
X208093624Y-87270362D01*
G37*
G36*
X208093624Y-87817466D02*
G01*
X208649643Y-87817466D01*
X208649643Y-89271200D01*
X208093624Y-89271200D01*
X208093624Y-87817466D01*
G37*
G36*
X209569461Y-87960592D02*
G01*
X209658992Y-87883886D01*
X209758628Y-87829800D01*
X209868495Y-87797413D01*
X209992979Y-87786203D01*
X210121734Y-87798509D01*
X210235903Y-87834204D01*
X210338484Y-87893035D01*
X210431517Y-87976835D01*
X210503853Y-88076160D01*
X210557892Y-88197258D01*
X210592578Y-88344606D01*
X210605051Y-88523816D01*
X210595661Y-88680771D01*
X210568784Y-88819513D01*
X210525794Y-88942571D01*
X210464050Y-89056291D01*
X210391025Y-89145286D01*
X210306464Y-89213070D01*
X210209907Y-89262662D01*
X210106946Y-89292378D01*
X209995665Y-89302463D01*
X209899751Y-89295334D01*
X209810903Y-89274427D01*
X209727853Y-89239936D01*
X209638990Y-89175649D01*
X209528429Y-89056266D01*
X209528429Y-89271200D01*
X209007825Y-89271200D01*
X209007825Y-88540059D01*
X209565309Y-88540059D01*
X209574771Y-88663751D01*
X209599470Y-88751322D01*
X209635651Y-88811901D01*
X209687277Y-88859018D01*
X209745874Y-88886610D01*
X209813949Y-88896042D01*
X209876611Y-88886927D01*
X209931634Y-88859956D01*
X209981255Y-88813244D01*
X210015655Y-88753592D01*
X210039604Y-88664246D01*
X210048910Y-88534563D01*
X210040095Y-88420943D01*
X210016899Y-88339112D01*
X209982598Y-88281283D01*
X209934066Y-88235460D01*
X209881260Y-88209232D01*
X209822131Y-88200439D01*
X209750454Y-88210011D01*
X209689650Y-88237778D01*
X209636995Y-88284703D01*
X209599515Y-88345066D01*
X209574637Y-88427868D01*
X209565309Y-88540059D01*
X209007825Y-88540059D01*
X209007825Y-87270362D01*
X209569461Y-87270362D01*
X209569461Y-87960592D01*
G37*
G36*
X212211436Y-87270362D02*
G01*
X212829004Y-87270362D01*
X212829004Y-88460802D01*
X212814976Y-88634062D01*
X212773683Y-88795170D01*
X212729732Y-88895805D01*
X212672098Y-88987189D01*
X212600149Y-89070310D01*
X212517352Y-89143095D01*
X212434887Y-89197572D01*
X212352120Y-89235784D01*
X212230155Y-89271447D01*
X212086935Y-89294316D01*
X211919078Y-89302463D01*
X211769904Y-89297568D01*
X211599974Y-89281946D01*
X211436032Y-89250001D01*
X211311035Y-89200980D01*
X211201395Y-89128900D01*
X211098544Y-89028788D01*
X211016049Y-88912813D01*
X210966775Y-88798467D01*
X210922605Y-88612018D01*
X210909378Y-88460802D01*
X210909378Y-87270362D01*
X211526946Y-87270362D01*
X211526946Y-88486936D01*
X211537996Y-88591987D01*
X211568737Y-88675326D01*
X211617804Y-88741803D01*
X211683713Y-88791413D01*
X211766138Y-88822398D01*
X211869863Y-88833516D01*
X211972784Y-88822568D01*
X212054801Y-88792034D01*
X212120578Y-88743146D01*
X212169464Y-88677506D01*
X212200287Y-88593862D01*
X212211436Y-88486936D01*
X212211436Y-87270362D01*
G37*
G36*
X213103900Y-88872595D02*
G01*
X213655766Y-88817885D01*
X213698786Y-88903620D01*
X213751387Y-88956126D01*
X213819756Y-88986382D01*
X213915397Y-88997648D01*
X214018874Y-88984604D01*
X214088809Y-88950142D01*
X214125090Y-88909658D01*
X214136681Y-88861848D01*
X214129971Y-88825632D01*
X214109962Y-88795359D01*
X214073910Y-88769403D01*
X214010196Y-88748205D01*
X213834796Y-88712372D01*
X213567943Y-88658823D01*
X213432406Y-88619071D01*
X213361696Y-88584040D01*
X213298678Y-88535926D01*
X213242508Y-88473502D01*
X213199626Y-88402000D01*
X213174032Y-88324744D01*
X213165327Y-88239884D01*
X213174896Y-88147168D01*
X213202657Y-88065540D01*
X213248614Y-87992588D01*
X213309652Y-87930448D01*
X213385392Y-87878756D01*
X213478202Y-87837494D01*
X213577175Y-87810872D01*
X213705776Y-87792886D01*
X213870334Y-87786203D01*
X214112878Y-87798059D01*
X214253551Y-87826137D01*
X214368234Y-87877822D01*
X214459814Y-87949968D01*
X214533170Y-88044855D01*
X214597200Y-88176992D01*
X214069758Y-88223886D01*
X214041537Y-88164445D01*
X214001492Y-88125334D01*
X213930829Y-88094208D01*
X213842979Y-88083202D01*
X213756524Y-88092804D01*
X213705592Y-88116541D01*
X213672978Y-88154071D01*
X213662605Y-88197386D01*
X213675745Y-88243116D01*
X213717316Y-88277497D01*
X213788262Y-88299957D01*
X213954964Y-88326468D01*
X214213745Y-88367547D01*
X214367490Y-88413541D01*
X214452776Y-88457396D01*
X214520998Y-88510420D01*
X214574486Y-88572787D01*
X214614569Y-88644463D01*
X214638303Y-88719764D01*
X214646293Y-88800177D01*
X214638141Y-88881535D01*
X214613338Y-88962291D01*
X214570456Y-89043809D01*
X214512713Y-89114921D01*
X214434313Y-89177773D01*
X214331342Y-89232365D01*
X214220112Y-89268774D01*
X214074531Y-89293325D01*
X213886698Y-89302463D01*
X213678595Y-89293366D01*
X213521264Y-89269216D01*
X213404751Y-89234005D01*
X213320421Y-89190599D01*
X213243617Y-89128748D01*
X213182588Y-89056078D01*
X213136070Y-88971369D01*
X213103900Y-88872595D01*
G37*
G36*
X215476230Y-87960592D02*
G01*
X215565761Y-87883886D01*
X215665397Y-87829800D01*
X215775264Y-87797413D01*
X215899748Y-87786203D01*
X216028503Y-87798509D01*
X216142672Y-87834204D01*
X216245253Y-87893035D01*
X216338286Y-87976835D01*
X216410622Y-88076160D01*
X216464661Y-88197258D01*
X216499347Y-88344606D01*
X216511820Y-88523816D01*
X216502430Y-88680771D01*
X216475553Y-88819513D01*
X216432563Y-88942571D01*
X216370819Y-89056291D01*
X216297794Y-89145286D01*
X216213233Y-89213070D01*
X216116676Y-89262662D01*
X216013715Y-89292378D01*
X215902434Y-89302463D01*
X215806520Y-89295334D01*
X215717672Y-89274427D01*
X215634622Y-89239936D01*
X215545759Y-89175649D01*
X215435198Y-89056266D01*
X215435198Y-89271200D01*
X214914594Y-89271200D01*
X214914594Y-88540059D01*
X215472078Y-88540059D01*
X215481540Y-88663751D01*
X215506239Y-88751322D01*
X215542420Y-88811901D01*
X215594046Y-88859018D01*
X215652643Y-88886610D01*
X215720718Y-88896042D01*
X215783380Y-88886927D01*
X215838403Y-88859956D01*
X215888024Y-88813244D01*
X215922424Y-88753592D01*
X215946374Y-88664246D01*
X215955679Y-88534563D01*
X215946864Y-88420943D01*
X215923668Y-88339112D01*
X215889367Y-88281283D01*
X215840835Y-88235460D01*
X215788029Y-88209232D01*
X215728900Y-88200439D01*
X215657223Y-88210011D01*
X215596419Y-88237778D01*
X215543764Y-88284703D01*
X215506284Y-88345066D01*
X215481406Y-88427868D01*
X215472078Y-88540059D01*
X214914594Y-88540059D01*
X214914594Y-87270362D01*
X215476230Y-87270362D01*
X215476230Y-87960592D01*
G37*
X186077407Y-89708695D02*
X185620264Y-89708695D01*
X185848836Y-89708695D02*
X185848836Y-88908695D01*
X185848836Y-88908695D02*
X185772645Y-89022980D01*
X185772645Y-89022980D02*
X185696455Y-89099171D01*
X185696455Y-89099171D02*
X185620264Y-89137266D01*
X218605341Y-76778405D02*
X218605341Y-76178405D01*
X218605341Y-76464119D02*
X218948198Y-76464119D01*
X218948198Y-76778405D02*
X218948198Y-76178405D01*
X219319626Y-76778405D02*
X219262483Y-76749834D01*
X219262483Y-76749834D02*
X219233912Y-76721262D01*
X219233912Y-76721262D02*
X219205340Y-76664119D01*
X219205340Y-76664119D02*
X219205340Y-76492691D01*
X219205340Y-76492691D02*
X219233912Y-76435548D01*
X219233912Y-76435548D02*
X219262483Y-76406976D01*
X219262483Y-76406976D02*
X219319626Y-76378405D01*
X219319626Y-76378405D02*
X219405340Y-76378405D01*
X219405340Y-76378405D02*
X219462483Y-76406976D01*
X219462483Y-76406976D02*
X219491055Y-76435548D01*
X219491055Y-76435548D02*
X219519626Y-76492691D01*
X219519626Y-76492691D02*
X219519626Y-76664119D01*
X219519626Y-76664119D02*
X219491055Y-76721262D01*
X219491055Y-76721262D02*
X219462483Y-76749834D01*
X219462483Y-76749834D02*
X219405340Y-76778405D01*
X219405340Y-76778405D02*
X219319626Y-76778405D01*
X219862483Y-76778405D02*
X219805340Y-76749834D01*
X219805340Y-76749834D02*
X219776769Y-76692691D01*
X219776769Y-76692691D02*
X219776769Y-76178405D01*
X220348198Y-76778405D02*
X220348198Y-76178405D01*
X220348198Y-76749834D02*
X220291055Y-76778405D01*
X220291055Y-76778405D02*
X220176769Y-76778405D01*
X220176769Y-76778405D02*
X220119626Y-76749834D01*
X220119626Y-76749834D02*
X220091055Y-76721262D01*
X220091055Y-76721262D02*
X220062483Y-76664119D01*
X220062483Y-76664119D02*
X220062483Y-76492691D01*
X220062483Y-76492691D02*
X220091055Y-76435548D01*
X220091055Y-76435548D02*
X220119626Y-76406976D01*
X220119626Y-76406976D02*
X220176769Y-76378405D01*
X220176769Y-76378405D02*
X220291055Y-76378405D01*
X220291055Y-76378405D02*
X220348198Y-76406976D01*
X221005340Y-76378405D02*
X221233912Y-76378405D01*
X221091055Y-76178405D02*
X221091055Y-76692691D01*
X221091055Y-76692691D02*
X221119626Y-76749834D01*
X221119626Y-76749834D02*
X221176769Y-76778405D01*
X221176769Y-76778405D02*
X221233912Y-76778405D01*
X221519626Y-76778405D02*
X221462483Y-76749834D01*
X221462483Y-76749834D02*
X221433912Y-76721262D01*
X221433912Y-76721262D02*
X221405340Y-76664119D01*
X221405340Y-76664119D02*
X221405340Y-76492691D01*
X221405340Y-76492691D02*
X221433912Y-76435548D01*
X221433912Y-76435548D02*
X221462483Y-76406976D01*
X221462483Y-76406976D02*
X221519626Y-76378405D01*
X221519626Y-76378405D02*
X221605340Y-76378405D01*
X221605340Y-76378405D02*
X221662483Y-76406976D01*
X221662483Y-76406976D02*
X221691055Y-76435548D01*
X221691055Y-76435548D02*
X221719626Y-76492691D01*
X221719626Y-76492691D02*
X221719626Y-76664119D01*
X221719626Y-76664119D02*
X221691055Y-76721262D01*
X221691055Y-76721262D02*
X221662483Y-76749834D01*
X221662483Y-76749834D02*
X221605340Y-76778405D01*
X221605340Y-76778405D02*
X221519626Y-76778405D01*
X222662483Y-76749834D02*
X222605340Y-76778405D01*
X222605340Y-76778405D02*
X222491055Y-76778405D01*
X222491055Y-76778405D02*
X222433912Y-76749834D01*
X222433912Y-76749834D02*
X222405340Y-76692691D01*
X222405340Y-76692691D02*
X222405340Y-76464119D01*
X222405340Y-76464119D02*
X222433912Y-76406976D01*
X222433912Y-76406976D02*
X222491055Y-76378405D01*
X222491055Y-76378405D02*
X222605340Y-76378405D01*
X222605340Y-76378405D02*
X222662483Y-76406976D01*
X222662483Y-76406976D02*
X222691055Y-76464119D01*
X222691055Y-76464119D02*
X222691055Y-76521262D01*
X222691055Y-76521262D02*
X222405340Y-76578405D01*
X222948198Y-76378405D02*
X222948198Y-76778405D01*
X222948198Y-76435548D02*
X222976769Y-76406976D01*
X222976769Y-76406976D02*
X223033912Y-76378405D01*
X223033912Y-76378405D02*
X223119626Y-76378405D01*
X223119626Y-76378405D02*
X223176769Y-76406976D01*
X223176769Y-76406976D02*
X223205341Y-76464119D01*
X223205341Y-76464119D02*
X223205341Y-76778405D01*
X223405340Y-76378405D02*
X223633912Y-76378405D01*
X223491055Y-76178405D02*
X223491055Y-76692691D01*
X223491055Y-76692691D02*
X223519626Y-76749834D01*
X223519626Y-76749834D02*
X223576769Y-76778405D01*
X223576769Y-76778405D02*
X223633912Y-76778405D01*
X224062483Y-76749834D02*
X224005340Y-76778405D01*
X224005340Y-76778405D02*
X223891055Y-76778405D01*
X223891055Y-76778405D02*
X223833912Y-76749834D01*
X223833912Y-76749834D02*
X223805340Y-76692691D01*
X223805340Y-76692691D02*
X223805340Y-76464119D01*
X223805340Y-76464119D02*
X223833912Y-76406976D01*
X223833912Y-76406976D02*
X223891055Y-76378405D01*
X223891055Y-76378405D02*
X224005340Y-76378405D01*
X224005340Y-76378405D02*
X224062483Y-76406976D01*
X224062483Y-76406976D02*
X224091055Y-76464119D01*
X224091055Y-76464119D02*
X224091055Y-76521262D01*
X224091055Y-76521262D02*
X223805340Y-76578405D01*
X224348198Y-76778405D02*
X224348198Y-76378405D01*
X224348198Y-76492691D02*
X224376769Y-76435548D01*
X224376769Y-76435548D02*
X224405341Y-76406976D01*
X224405341Y-76406976D02*
X224462483Y-76378405D01*
X224462483Y-76378405D02*
X224519626Y-76378405D01*
X218805341Y-77430085D02*
X218891055Y-77458657D01*
X218891055Y-77458657D02*
X218919626Y-77487228D01*
X218919626Y-77487228D02*
X218948198Y-77544371D01*
X218948198Y-77544371D02*
X218948198Y-77630085D01*
X218948198Y-77630085D02*
X218919626Y-77687228D01*
X218919626Y-77687228D02*
X218891055Y-77715800D01*
X218891055Y-77715800D02*
X218833912Y-77744371D01*
X218833912Y-77744371D02*
X218605341Y-77744371D01*
X218605341Y-77744371D02*
X218605341Y-77144371D01*
X218605341Y-77144371D02*
X218805341Y-77144371D01*
X218805341Y-77144371D02*
X218862484Y-77172942D01*
X218862484Y-77172942D02*
X218891055Y-77201514D01*
X218891055Y-77201514D02*
X218919626Y-77258657D01*
X218919626Y-77258657D02*
X218919626Y-77315800D01*
X218919626Y-77315800D02*
X218891055Y-77372942D01*
X218891055Y-77372942D02*
X218862484Y-77401514D01*
X218862484Y-77401514D02*
X218805341Y-77430085D01*
X218805341Y-77430085D02*
X218605341Y-77430085D01*
X219291055Y-77744371D02*
X219233912Y-77715800D01*
X219233912Y-77715800D02*
X219205341Y-77687228D01*
X219205341Y-77687228D02*
X219176769Y-77630085D01*
X219176769Y-77630085D02*
X219176769Y-77458657D01*
X219176769Y-77458657D02*
X219205341Y-77401514D01*
X219205341Y-77401514D02*
X219233912Y-77372942D01*
X219233912Y-77372942D02*
X219291055Y-77344371D01*
X219291055Y-77344371D02*
X219376769Y-77344371D01*
X219376769Y-77344371D02*
X219433912Y-77372942D01*
X219433912Y-77372942D02*
X219462484Y-77401514D01*
X219462484Y-77401514D02*
X219491055Y-77458657D01*
X219491055Y-77458657D02*
X219491055Y-77630085D01*
X219491055Y-77630085D02*
X219462484Y-77687228D01*
X219462484Y-77687228D02*
X219433912Y-77715800D01*
X219433912Y-77715800D02*
X219376769Y-77744371D01*
X219376769Y-77744371D02*
X219291055Y-77744371D01*
X219833912Y-77744371D02*
X219776769Y-77715800D01*
X219776769Y-77715800D02*
X219748198Y-77687228D01*
X219748198Y-77687228D02*
X219719626Y-77630085D01*
X219719626Y-77630085D02*
X219719626Y-77458657D01*
X219719626Y-77458657D02*
X219748198Y-77401514D01*
X219748198Y-77401514D02*
X219776769Y-77372942D01*
X219776769Y-77372942D02*
X219833912Y-77344371D01*
X219833912Y-77344371D02*
X219919626Y-77344371D01*
X219919626Y-77344371D02*
X219976769Y-77372942D01*
X219976769Y-77372942D02*
X220005341Y-77401514D01*
X220005341Y-77401514D02*
X220033912Y-77458657D01*
X220033912Y-77458657D02*
X220033912Y-77630085D01*
X220033912Y-77630085D02*
X220005341Y-77687228D01*
X220005341Y-77687228D02*
X219976769Y-77715800D01*
X219976769Y-77715800D02*
X219919626Y-77744371D01*
X219919626Y-77744371D02*
X219833912Y-77744371D01*
X220205340Y-77344371D02*
X220433912Y-77344371D01*
X220291055Y-77144371D02*
X220291055Y-77658657D01*
X220291055Y-77658657D02*
X220319626Y-77715800D01*
X220319626Y-77715800D02*
X220376769Y-77744371D01*
X220376769Y-77744371D02*
X220433912Y-77744371D01*
X220719626Y-77744371D02*
X220662483Y-77715800D01*
X220662483Y-77715800D02*
X220633912Y-77658657D01*
X220633912Y-77658657D02*
X220633912Y-77144371D01*
X221033912Y-77744371D02*
X220976769Y-77715800D01*
X220976769Y-77715800D02*
X220948198Y-77687228D01*
X220948198Y-77687228D02*
X220919626Y-77630085D01*
X220919626Y-77630085D02*
X220919626Y-77458657D01*
X220919626Y-77458657D02*
X220948198Y-77401514D01*
X220948198Y-77401514D02*
X220976769Y-77372942D01*
X220976769Y-77372942D02*
X221033912Y-77344371D01*
X221033912Y-77344371D02*
X221119626Y-77344371D01*
X221119626Y-77344371D02*
X221176769Y-77372942D01*
X221176769Y-77372942D02*
X221205341Y-77401514D01*
X221205341Y-77401514D02*
X221233912Y-77458657D01*
X221233912Y-77458657D02*
X221233912Y-77630085D01*
X221233912Y-77630085D02*
X221205341Y-77687228D01*
X221205341Y-77687228D02*
X221176769Y-77715800D01*
X221176769Y-77715800D02*
X221119626Y-77744371D01*
X221119626Y-77744371D02*
X221033912Y-77744371D01*
X221748198Y-77744371D02*
X221748198Y-77430085D01*
X221748198Y-77430085D02*
X221719626Y-77372942D01*
X221719626Y-77372942D02*
X221662483Y-77344371D01*
X221662483Y-77344371D02*
X221548198Y-77344371D01*
X221548198Y-77344371D02*
X221491055Y-77372942D01*
X221748198Y-77715800D02*
X221691055Y-77744371D01*
X221691055Y-77744371D02*
X221548198Y-77744371D01*
X221548198Y-77744371D02*
X221491055Y-77715800D01*
X221491055Y-77715800D02*
X221462483Y-77658657D01*
X221462483Y-77658657D02*
X221462483Y-77601514D01*
X221462483Y-77601514D02*
X221491055Y-77544371D01*
X221491055Y-77544371D02*
X221548198Y-77515800D01*
X221548198Y-77515800D02*
X221691055Y-77515800D01*
X221691055Y-77515800D02*
X221748198Y-77487228D01*
X222291055Y-77744371D02*
X222291055Y-77144371D01*
X222291055Y-77715800D02*
X222233912Y-77744371D01*
X222233912Y-77744371D02*
X222119626Y-77744371D01*
X222119626Y-77744371D02*
X222062483Y-77715800D01*
X222062483Y-77715800D02*
X222033912Y-77687228D01*
X222033912Y-77687228D02*
X222005340Y-77630085D01*
X222005340Y-77630085D02*
X222005340Y-77458657D01*
X222005340Y-77458657D02*
X222033912Y-77401514D01*
X222033912Y-77401514D02*
X222062483Y-77372942D01*
X222062483Y-77372942D02*
X222119626Y-77344371D01*
X222119626Y-77344371D02*
X222233912Y-77344371D01*
X222233912Y-77344371D02*
X222291055Y-77372942D01*
X222805340Y-77715800D02*
X222748197Y-77744371D01*
X222748197Y-77744371D02*
X222633912Y-77744371D01*
X222633912Y-77744371D02*
X222576769Y-77715800D01*
X222576769Y-77715800D02*
X222548197Y-77658657D01*
X222548197Y-77658657D02*
X222548197Y-77430085D01*
X222548197Y-77430085D02*
X222576769Y-77372942D01*
X222576769Y-77372942D02*
X222633912Y-77344371D01*
X222633912Y-77344371D02*
X222748197Y-77344371D01*
X222748197Y-77344371D02*
X222805340Y-77372942D01*
X222805340Y-77372942D02*
X222833912Y-77430085D01*
X222833912Y-77430085D02*
X222833912Y-77487228D01*
X222833912Y-77487228D02*
X222548197Y-77544371D01*
X223091055Y-77744371D02*
X223091055Y-77344371D01*
X223091055Y-77458657D02*
X223119626Y-77401514D01*
X223119626Y-77401514D02*
X223148198Y-77372942D01*
X223148198Y-77372942D02*
X223205340Y-77344371D01*
X223205340Y-77344371D02*
X223262483Y-77344371D01*
X218564007Y-86736895D02*
X218106864Y-86736895D01*
X218335436Y-86736895D02*
X218335436Y-85936895D01*
X218335436Y-85936895D02*
X218259245Y-86051180D01*
X218259245Y-86051180D02*
X218183055Y-86127371D01*
X218183055Y-86127371D02*
X218106864Y-86165466D01*
G36*
X198026461Y-86002381D02*
G01*
X198367363Y-86002381D01*
X198544988Y-86310127D01*
X198717118Y-86002381D01*
X199054540Y-86002381D01*
X198743069Y-86486898D01*
X199083910Y-87002800D01*
X198736230Y-87002800D01*
X198538821Y-86681376D01*
X198340679Y-87002800D01*
X197995076Y-87002800D01*
X198340679Y-86481463D01*
X198026461Y-86002381D01*
G37*
G36*
X199084765Y-86275933D02*
G01*
X199378528Y-86275933D01*
X199528127Y-86759839D01*
X199666796Y-86275933D01*
X199940714Y-86275933D01*
X199653118Y-87053785D01*
X199615827Y-87141841D01*
X199582433Y-87199178D01*
X199552673Y-87233853D01*
X199515062Y-87260876D01*
X199467362Y-87281445D01*
X199407298Y-87294892D01*
X199332061Y-87299799D01*
X199263828Y-87296479D01*
X199146253Y-87283740D01*
X199124393Y-87091948D01*
X199186687Y-87106960D01*
X199258300Y-87112220D01*
X199304002Y-87105906D01*
X199337862Y-87088468D01*
X199364173Y-87058231D01*
X199389458Y-87003471D01*
X199084765Y-86275933D01*
G37*
G36*
X200572712Y-86265039D02*
G01*
X200622719Y-86278634D01*
X200666789Y-86300653D01*
X200705880Y-86331344D01*
X200740548Y-86371615D01*
X200774539Y-86428813D01*
X200799343Y-86492940D01*
X200814786Y-86565159D01*
X200820172Y-86646877D01*
X200813899Y-86738004D01*
X200796499Y-86812569D01*
X200769472Y-86873510D01*
X200733404Y-86923176D01*
X200686892Y-86965047D01*
X200635603Y-86994444D01*
X200578517Y-87012281D01*
X200514135Y-87018431D01*
X200451894Y-87012826D01*
X200396960Y-86996632D01*
X200347095Y-86969724D01*
X200302377Y-86931908D01*
X200302377Y-87280259D01*
X200021558Y-87280259D01*
X200021558Y-86641198D01*
X200300301Y-86641198D01*
X200305025Y-86697810D01*
X200317600Y-86739373D01*
X200336510Y-86769487D01*
X200362969Y-86792852D01*
X200393057Y-86806601D01*
X200428040Y-86811313D01*
X200458496Y-86806893D01*
X200485224Y-86793822D01*
X200509311Y-86771196D01*
X200525946Y-86742310D01*
X200537571Y-86698705D01*
X200542101Y-86635031D01*
X200537559Y-86576749D01*
X200525602Y-86534745D01*
X200507907Y-86505033D01*
X200482880Y-86481542D01*
X200455476Y-86468049D01*
X200424620Y-86463511D01*
X200390999Y-86468183D01*
X200361784Y-86481899D01*
X200335777Y-86505399D01*
X200317536Y-86535532D01*
X200305078Y-86579251D01*
X200300301Y-86641198D01*
X200021558Y-86641198D01*
X200021558Y-86275933D01*
X200281860Y-86275933D01*
X200281860Y-86383033D01*
X200337055Y-86323648D01*
X200380901Y-86292175D01*
X200422466Y-86274604D01*
X200467102Y-86263941D01*
X200515479Y-86260301D01*
X200572712Y-86265039D01*
G37*
G36*
X200953223Y-86002381D02*
G01*
X201231232Y-86002381D01*
X201231232Y-86370699D01*
X201289882Y-86318230D01*
X201343950Y-86285825D01*
X201403300Y-86267038D01*
X201476513Y-86260301D01*
X201532474Y-86265015D01*
X201579921Y-86278375D01*
X201620420Y-86299769D01*
X201655116Y-86329361D01*
X201681908Y-86365409D01*
X201702254Y-86411185D01*
X201715541Y-86468899D01*
X201720390Y-86541303D01*
X201720390Y-87002800D01*
X201440976Y-87002800D01*
X201440976Y-86604073D01*
X201437513Y-86559012D01*
X201428592Y-86528074D01*
X201415697Y-86507475D01*
X201397120Y-86492065D01*
X201373895Y-86482545D01*
X201344622Y-86479143D01*
X201312714Y-86483485D01*
X201285797Y-86496069D01*
X201262617Y-86517367D01*
X201246903Y-86545031D01*
X201235678Y-86588693D01*
X201231232Y-86654631D01*
X201231232Y-87002800D01*
X200953223Y-87002800D01*
X200953223Y-86002381D01*
G37*
G36*
X201888978Y-86275933D02*
G01*
X202149219Y-86275933D01*
X202149219Y-86394696D01*
X202177082Y-86344896D01*
X202202858Y-86310928D01*
X202226766Y-86289183D01*
X202254718Y-86273471D01*
X202287267Y-86263726D01*
X202325501Y-86260301D01*
X202365717Y-86264081D01*
X202410250Y-86276110D01*
X202460079Y-86297793D01*
X202373983Y-86495812D01*
X202326788Y-86479571D01*
X202296131Y-86475235D01*
X202262109Y-86480368D01*
X202234412Y-86495179D01*
X202211440Y-86520481D01*
X202190346Y-86565963D01*
X202174708Y-86641320D01*
X202168392Y-86758862D01*
X202168392Y-87002800D01*
X201888978Y-87002800D01*
X201888978Y-86275933D01*
G37*
G36*
X202998829Y-86266075D02*
G01*
X203074048Y-86282361D01*
X203138236Y-86308066D01*
X203193083Y-86342745D01*
X203239824Y-86386636D01*
X203278632Y-86439917D01*
X203306375Y-86498691D01*
X203323393Y-86564018D01*
X203329278Y-86637290D01*
X203321973Y-86719182D01*
X203300929Y-86791010D01*
X203266597Y-86854688D01*
X203218270Y-86911575D01*
X203172392Y-86948748D01*
X203119863Y-86978167D01*
X203059709Y-86999915D01*
X202990671Y-87013612D01*
X202911257Y-87018431D01*
X202824010Y-87012306D01*
X202749044Y-86994936D01*
X202684377Y-86967303D01*
X202628423Y-86929649D01*
X202580364Y-86882511D01*
X202543718Y-86830915D01*
X202517522Y-86774241D01*
X202501467Y-86711508D01*
X202495922Y-86641442D01*
X202496143Y-86639000D01*
X202774603Y-86639000D01*
X202779768Y-86703378D01*
X202793450Y-86750296D01*
X202813865Y-86783958D01*
X202842692Y-86810268D01*
X202875153Y-86825621D01*
X202912600Y-86830853D01*
X202950550Y-86825644D01*
X202982986Y-86810461D01*
X203011335Y-86784630D01*
X203031209Y-86751410D01*
X203044748Y-86703586D01*
X203049926Y-86636252D01*
X203044837Y-86573795D01*
X203031296Y-86527837D01*
X203010969Y-86494469D01*
X202982471Y-86468236D01*
X202950799Y-86453030D01*
X202914676Y-86447880D01*
X202876316Y-86453181D01*
X202843305Y-86468682D01*
X202814231Y-86495141D01*
X202793551Y-86528999D01*
X202779777Y-86575630D01*
X202774603Y-86639000D01*
X202496143Y-86639000D01*
X202503249Y-86560333D01*
X202524407Y-86488853D01*
X202559028Y-86425143D01*
X202607907Y-86367890D01*
X202654328Y-86330201D01*
X202706808Y-86300537D01*
X202766211Y-86278736D01*
X202833667Y-86265082D01*
X202910524Y-86260301D01*
X202998829Y-86266075D01*
G37*
G36*
X203481503Y-86002381D02*
G01*
X203790958Y-86002381D01*
X203790958Y-86756603D01*
X204273949Y-86756603D01*
X204273949Y-87002800D01*
X203481503Y-87002800D01*
X203481503Y-86002381D01*
G37*
G36*
X204877699Y-86264261D02*
G01*
X204959599Y-86274345D01*
X205008482Y-86287461D01*
X205050262Y-86306987D01*
X205085995Y-86332780D01*
X205116887Y-86368616D01*
X205141988Y-86419975D01*
X205157573Y-86476118D01*
X205162504Y-86527625D01*
X205162504Y-86848255D01*
X205164357Y-86896776D01*
X205168976Y-86928611D01*
X205178400Y-86959204D01*
X205197370Y-87002800D01*
X204936396Y-87002800D01*
X204915880Y-86959263D01*
X204906354Y-86912246D01*
X204850028Y-86959047D01*
X204797727Y-86988084D01*
X204747672Y-87004499D01*
X204690869Y-87014814D01*
X204626269Y-87018431D01*
X204560743Y-87014054D01*
X204507440Y-87001951D01*
X204464187Y-86983240D01*
X204429226Y-86958408D01*
X204399386Y-86926084D01*
X204378653Y-86891099D01*
X204366197Y-86852815D01*
X204361937Y-86810275D01*
X204364241Y-86788782D01*
X204640618Y-86788782D01*
X204646417Y-86818307D01*
X204663516Y-86841599D01*
X204690169Y-86856477D01*
X204730805Y-86862116D01*
X204775730Y-86856551D01*
X204817206Y-86839951D01*
X204852242Y-86814471D01*
X204873931Y-86785790D01*
X204886090Y-86750881D01*
X204890662Y-86702625D01*
X204890662Y-86658906D01*
X204771105Y-86694565D01*
X204695040Y-86719529D01*
X204663821Y-86738284D01*
X204646227Y-86762443D01*
X204640618Y-86788782D01*
X204364241Y-86788782D01*
X204367635Y-86757118D01*
X204383880Y-86712464D01*
X204410419Y-86674476D01*
X204446650Y-86645180D01*
X204503852Y-86618356D01*
X204589388Y-86595341D01*
X204792293Y-86551317D01*
X204890662Y-86518222D01*
X204884529Y-86471229D01*
X204869474Y-86445315D01*
X204843152Y-86430508D01*
X204795041Y-86424432D01*
X204731742Y-86430684D01*
X204692581Y-86446292D01*
X204669782Y-86468936D01*
X204649533Y-86510406D01*
X204383797Y-86483051D01*
X204403223Y-86418304D01*
X204427150Y-86373752D01*
X204460642Y-86337470D01*
X204508788Y-86304570D01*
X204551185Y-86286802D01*
X204613996Y-86271903D01*
X204682387Y-86263305D01*
X204758832Y-86260301D01*
X204877699Y-86264261D01*
G37*
G36*
X205624917Y-86347496D02*
G01*
X205669682Y-86309143D01*
X205719500Y-86282100D01*
X205774434Y-86265906D01*
X205836675Y-86260301D01*
X205901053Y-86266454D01*
X205958138Y-86284302D01*
X206009428Y-86313717D01*
X206055944Y-86355617D01*
X206092113Y-86405280D01*
X206119132Y-86465829D01*
X206136475Y-86539503D01*
X206142712Y-86629108D01*
X206138017Y-86707585D01*
X206124578Y-86776956D01*
X206103083Y-86838485D01*
X206072211Y-86895345D01*
X206035698Y-86939843D01*
X205993418Y-86973735D01*
X205945139Y-86998531D01*
X205893659Y-87013389D01*
X205838019Y-87018431D01*
X205790062Y-87014867D01*
X205745638Y-87004413D01*
X205704113Y-86987168D01*
X205659681Y-86955024D01*
X205604400Y-86895333D01*
X205604400Y-87002800D01*
X205344099Y-87002800D01*
X205344099Y-86637229D01*
X205622841Y-86637229D01*
X205627571Y-86699075D01*
X205639921Y-86742861D01*
X205658012Y-86773150D01*
X205683824Y-86796709D01*
X205713123Y-86810505D01*
X205747160Y-86815221D01*
X205778491Y-86810663D01*
X205806003Y-86797178D01*
X205830814Y-86773822D01*
X205848014Y-86743996D01*
X205859988Y-86699323D01*
X205864641Y-86634481D01*
X205860234Y-86577671D01*
X205848636Y-86536756D01*
X205831485Y-86507841D01*
X205807219Y-86484930D01*
X205780816Y-86471816D01*
X205751251Y-86467419D01*
X205715413Y-86472205D01*
X205685011Y-86486089D01*
X205658683Y-86509551D01*
X205639944Y-86539733D01*
X205627504Y-86581134D01*
X205622841Y-86637229D01*
X205344099Y-86637229D01*
X205344099Y-86002381D01*
X205624917Y-86002381D01*
X205624917Y-86347496D01*
G37*
G36*
X206226609Y-86803497D02*
G01*
X206502542Y-86776142D01*
X206524052Y-86819010D01*
X206550353Y-86845263D01*
X206584537Y-86860391D01*
X206632357Y-86866024D01*
X206684096Y-86859502D01*
X206719064Y-86842271D01*
X206737204Y-86822029D01*
X206743000Y-86798124D01*
X206739645Y-86780016D01*
X206729640Y-86764879D01*
X206711614Y-86751901D01*
X206679757Y-86741302D01*
X206592057Y-86723386D01*
X206458631Y-86696611D01*
X206390862Y-86676735D01*
X206355507Y-86659220D01*
X206323998Y-86635163D01*
X206295913Y-86603951D01*
X206274472Y-86568200D01*
X206261675Y-86529572D01*
X206257323Y-86487142D01*
X206262107Y-86440784D01*
X206275988Y-86399970D01*
X206298966Y-86363494D01*
X206329485Y-86332424D01*
X206367355Y-86306578D01*
X206413760Y-86285947D01*
X206463247Y-86272636D01*
X206527547Y-86263643D01*
X206609826Y-86260301D01*
X206731098Y-86266229D01*
X206801435Y-86280268D01*
X206858776Y-86306111D01*
X206904566Y-86342184D01*
X206941244Y-86389627D01*
X206973259Y-86455696D01*
X206709538Y-86479143D01*
X206695428Y-86449422D01*
X206675405Y-86429867D01*
X206640074Y-86414304D01*
X206596148Y-86408801D01*
X206552921Y-86413602D01*
X206527455Y-86425470D01*
X206511148Y-86444235D01*
X206505962Y-86465893D01*
X206512532Y-86488758D01*
X206533317Y-86505948D01*
X206568790Y-86517178D01*
X206652141Y-86530434D01*
X206781532Y-86550973D01*
X206858404Y-86573970D01*
X206901047Y-86595898D01*
X206935158Y-86622410D01*
X206961902Y-86653593D01*
X206981944Y-86689431D01*
X206993811Y-86727082D01*
X206997806Y-86767288D01*
X206993730Y-86807967D01*
X206981328Y-86848345D01*
X206959887Y-86889104D01*
X206931016Y-86924660D01*
X206891816Y-86956086D01*
X206840330Y-86983382D01*
X206784715Y-87001587D01*
X206711924Y-87013862D01*
X206618008Y-87018431D01*
X206513957Y-87013883D01*
X206435291Y-87001808D01*
X206377035Y-86984202D01*
X206334870Y-86962499D01*
X206296467Y-86931574D01*
X206265953Y-86895239D01*
X206242694Y-86852884D01*
X206226609Y-86803497D01*
G37*
G36*
X217398028Y-88656941D02*
G01*
X217440877Y-88662177D01*
X217471759Y-88669676D01*
X217500156Y-88682309D01*
X217524428Y-88700373D01*
X217545106Y-88724338D01*
X217560294Y-88752140D01*
X217569693Y-88784221D01*
X217572986Y-88821571D01*
X217570465Y-88854287D01*
X217563260Y-88882771D01*
X217551663Y-88907740D01*
X217535762Y-88930272D01*
X217516343Y-88949779D01*
X217493082Y-88966468D01*
X217466722Y-88978892D01*
X217427906Y-88990208D01*
X217458523Y-89002249D01*
X217476266Y-89012483D01*
X217487179Y-89022382D01*
X217505978Y-89044210D01*
X217532026Y-89081726D01*
X217621786Y-89255200D01*
X217411932Y-89255200D01*
X217312721Y-89071578D01*
X217293160Y-89039823D01*
X217279125Y-89025269D01*
X217257824Y-89014863D01*
X217233623Y-89011347D01*
X217217246Y-89011347D01*
X217217246Y-89255200D01*
X217030730Y-89255200D01*
X217030730Y-88898800D01*
X217217246Y-88898800D01*
X217295538Y-88898800D01*
X217344704Y-88890630D01*
X217361414Y-88884093D01*
X217374819Y-88871799D01*
X217383565Y-88855600D01*
X217386506Y-88837031D01*
X217384288Y-88818515D01*
X217378090Y-88803964D01*
X217368042Y-88792445D01*
X217354609Y-88784715D01*
X217332703Y-88779117D01*
X217298799Y-88776874D01*
X217217246Y-88776874D01*
X217217246Y-88898800D01*
X217030730Y-88898800D01*
X217030730Y-88654948D01*
X217340198Y-88654948D01*
X217398028Y-88656941D01*
G37*
G36*
X217680880Y-88654948D02*
G01*
X218178476Y-88654948D01*
X218178476Y-88783909D01*
X217866957Y-88783909D01*
X217866957Y-88880042D01*
X218155908Y-88880042D01*
X218155908Y-89001969D01*
X217866957Y-89001969D01*
X217866957Y-89119205D01*
X218187489Y-89119205D01*
X218187489Y-89255200D01*
X217680880Y-89255200D01*
X217680880Y-88654948D01*
G37*
G36*
X218227972Y-88654948D02*
G01*
X218422255Y-88654948D01*
X218557517Y-89086928D01*
X218690727Y-88654948D01*
X218879258Y-88654948D01*
X218656288Y-89255200D01*
X218455044Y-89255200D01*
X218227972Y-88654948D01*
G37*
G36*
X219681522Y-89255200D02*
G01*
X219180666Y-89255200D01*
X219190210Y-89207144D01*
X219207489Y-89160909D01*
X219232909Y-89115981D01*
X219265498Y-89075275D01*
X219318062Y-89024726D01*
X219396674Y-88962255D01*
X219462304Y-88909677D01*
X219490536Y-88879896D01*
X219506315Y-88851370D01*
X219511016Y-88826517D01*
X219508753Y-88809155D01*
X219502090Y-88793780D01*
X219490720Y-88779842D01*
X219476189Y-88769163D01*
X219459398Y-88762706D01*
X219439685Y-88760461D01*
X219419222Y-88762816D01*
X219402056Y-88769551D01*
X219387442Y-88780648D01*
X219376471Y-88795527D01*
X219367154Y-88818364D01*
X219360184Y-88851906D01*
X219192975Y-88838314D01*
X219202104Y-88791590D01*
X219214332Y-88755376D01*
X219229026Y-88727745D01*
X219248628Y-88703581D01*
X219273065Y-88683318D01*
X219302995Y-88666782D01*
X219335624Y-88655796D01*
X219378841Y-88648352D01*
X219435179Y-88645569D01*
X219494152Y-88648224D01*
X219538925Y-88655285D01*
X219572272Y-88665609D01*
X219602942Y-88681579D01*
X219628421Y-88702021D01*
X219649319Y-88727195D01*
X219664912Y-88755941D01*
X219674247Y-88786750D01*
X219677419Y-88820252D01*
X219673918Y-88855882D01*
X219663355Y-88890603D01*
X219645252Y-88924995D01*
X219621114Y-88955905D01*
X219583374Y-88992052D01*
X219528235Y-89034392D01*
X219460788Y-89082935D01*
X219420854Y-89119205D01*
X219681522Y-89119205D01*
X219681522Y-89255200D01*
G37*
G36*
X219769156Y-89088724D02*
G01*
X219947466Y-89088724D01*
X219947466Y-89255200D01*
X219769156Y-89255200D01*
X219769156Y-89088724D01*
G37*
G36*
X220410697Y-88645569D02*
G01*
X220410697Y-89255200D01*
X220241840Y-89255200D01*
X220241840Y-88856632D01*
X220200569Y-88885225D01*
X220162522Y-88906714D01*
X220121480Y-88924610D01*
X220066388Y-88943350D01*
X220066388Y-88807356D01*
X220122312Y-88786283D01*
X220165748Y-88764089D01*
X220198792Y-88741081D01*
X220227870Y-88713359D01*
X220252398Y-88681653D01*
X220272578Y-88645569D01*
X220410697Y-88645569D01*
G37*
D11*
%TO.C,C1*%
X184865000Y-77061252D02*
X184865000Y-76538748D01*
X186335000Y-77061252D02*
X186335000Y-76538748D01*
%TO.C,C2*%
X186890000Y-77140580D02*
X186890000Y-76859420D01*
X187910000Y-77140580D02*
X187910000Y-76859420D01*
%TO.C,C7*%
X188490000Y-77340580D02*
X188490000Y-77059420D01*
X189510000Y-77340580D02*
X189510000Y-77059420D01*
%TO.C,D1*%
X199050400Y-83560800D02*
X201735400Y-83560800D01*
X201735400Y-81640800D02*
X199050400Y-81640800D01*
X201735400Y-83560800D02*
X201735400Y-81640800D01*
%TO.C,R1*%
X182762742Y-77577500D02*
X183237258Y-77577500D01*
X182762742Y-78622500D02*
X183237258Y-78622500D01*
%TO.C,R2*%
X201057742Y-77455500D02*
X201532258Y-77455500D01*
X201057742Y-78500500D02*
X201532258Y-78500500D01*
%TO.C,R3*%
X201057742Y-75804500D02*
X201532258Y-75804500D01*
X201057742Y-76849500D02*
X201532258Y-76849500D01*
%TO.C,R4*%
X203877142Y-82078300D02*
X204351658Y-82078300D01*
X203877142Y-83123300D02*
X204351658Y-83123300D01*
%TO.C,R5*%
X197343500Y-77326258D02*
X197343500Y-76851742D01*
X198388500Y-77326258D02*
X198388500Y-76851742D01*
%TO.C,U1*%
X185239000Y-79321000D02*
X185964000Y-79321000D01*
X185239000Y-80046000D02*
X185239000Y-79321000D01*
X185239000Y-85816000D02*
X185239000Y-86541000D01*
X185239000Y-86541000D02*
X185964000Y-86541000D01*
X191734000Y-79321000D02*
X192219000Y-79321000D01*
X192459000Y-80046000D02*
X192459000Y-79621000D01*
X192459000Y-85816000D02*
X192459000Y-86541000D01*
X192459000Y-86541000D02*
X191734000Y-86541000D01*
X192789000Y-79561000D02*
X192459000Y-79321000D01*
X192789000Y-79081000D01*
X192789000Y-79561000D01*
G36*
X192789000Y-79561000D02*
G01*
X192459000Y-79321000D01*
X192789000Y-79081000D01*
X192789000Y-79561000D01*
G37*
%TO.C,C5*%
X182866420Y-79373000D02*
X183147580Y-79373000D01*
X182866420Y-80393000D02*
X183147580Y-80393000D01*
%TO.C,C6*%
X182639580Y-84199000D02*
X182358420Y-84199000D01*
X182639580Y-85219000D02*
X182358420Y-85219000D01*
%TO.C,Y1*%
X181603000Y-80946000D02*
X181603000Y-83646000D01*
X183903000Y-80946000D02*
X181603000Y-80946000D01*
%TO.C,C3*%
X191959420Y-77390000D02*
X192240580Y-77390000D01*
X191959420Y-78410000D02*
X192240580Y-78410000D01*
%TO.C,C4*%
X186449580Y-87501000D02*
X186168420Y-87501000D01*
X186449580Y-88521000D02*
X186168420Y-88521000D01*
%TO.C,U2*%
X223850000Y-81610000D02*
X225150000Y-81610000D01*
X223850000Y-83590000D02*
X224900000Y-83590000D01*
X225270000Y-83870000D02*
X225270000Y-83590000D01*
X225550000Y-83590000D01*
X225270000Y-83870000D01*
G36*
X225270000Y-83870000D02*
G01*
X225270000Y-83590000D01*
X225550000Y-83590000D01*
X225270000Y-83870000D01*
G37*
%TO.C,J1*%
X228591200Y-87176800D02*
X230511200Y-87176800D01*
X230511200Y-78016800D02*
X228591200Y-78016800D01*
X232521200Y-78016800D02*
X234226200Y-78016800D01*
X234226200Y-78016800D02*
X234226200Y-87176800D01*
X234226200Y-87176800D02*
X232521200Y-87176800D01*
%TO.C,R6*%
X212106742Y-82027500D02*
X212581258Y-82027500D01*
X212106742Y-83072500D02*
X212581258Y-83072500D01*
%TO.C,D2*%
X207584800Y-83510000D02*
X210269800Y-83510000D01*
X210269800Y-81590000D02*
X207584800Y-81590000D01*
X210269800Y-83510000D02*
X210269800Y-81590000D01*
%TO.C,SW1*%
X219200000Y-79350000D02*
X219200000Y-85750000D01*
X219200000Y-85750000D02*
X220400000Y-85750000D01*
X220400000Y-79350000D02*
X219200000Y-79350000D01*
X222000000Y-85750000D02*
X223200000Y-85750000D01*
X223200000Y-79350000D02*
X222000000Y-79350000D01*
X223200000Y-85750000D02*
X223200000Y-79350000D01*
%TO.C,R7*%
X224318300Y-85187742D02*
X224318300Y-85662258D01*
X225363300Y-85187742D02*
X225363300Y-85662258D01*
%TO.C,R8*%
X224318300Y-79366342D02*
X224318300Y-79840858D01*
X225363300Y-79366342D02*
X225363300Y-79840858D01*
%TD*%
M02*
