%TF.GenerationSoftware,KiCad,Pcbnew,7.0.1*%
%TF.CreationDate,2023-12-19T17:12:56+01:00*%
%TF.ProjectId,xyp-gpib,7879702d-6770-4696-922e-6b696361645f,rev?*%
%TF.SameCoordinates,Original*%
%TF.FileFunction,Copper,L2,Bot*%
%TF.FilePolarity,Positive*%
%FSLAX46Y46*%
G04 Gerber Fmt 4.6, Leading zero omitted, Abs format (unit mm)*
G04 Created by KiCad (PCBNEW 7.0.1) date 2023-12-19 17:12:56*
%MOMM*%
%LPD*%
G01*
G04 APERTURE LIST*
G04 Aperture macros list*
%AMFreePoly0*
4,1,46,0.500000,0.418198,1.081873,0.418198,1.104143,0.410962,1.127272,0.407299,1.132977,0.401593,1.140652,0.399100,1.154417,0.380153,1.170974,0.363597,1.172236,0.355628,1.176979,0.349100,1.176979,0.325682,1.180642,0.302554,1.176979,0.295365,1.176979,0.287296,1.163214,0.268351,1.152584,0.247487,-0.883883,-1.788980,-0.904746,-1.799609,-0.923692,-1.813375,-0.931762,-1.813375,
-0.938952,-1.817038,-0.962079,-1.813375,-0.985496,-1.813375,-0.992023,-1.808632,-0.999993,-1.807370,-1.016549,-1.790813,-1.035496,-1.777048,-1.037989,-1.769373,-1.043695,-1.763668,-1.047358,-1.740538,-1.054594,-1.718269,-1.054595,0.318198,-1.049700,0.333261,-1.049700,0.349100,-1.040390,0.361913,-1.035496,0.376977,-1.022682,0.386286,-1.013373,0.399100,-0.998309,0.403994,-0.985496,0.413304,
-0.969657,0.413304,-0.954594,0.418199,-0.500000,0.418198,-0.500000,0.500000,0.500000,0.500000,0.500000,0.418198,0.500000,0.418198,$1*%
%AMFreePoly1*
4,1,52,0.500000,0.418198,0.954594,0.418199,0.969657,0.413304,0.985496,0.413304,0.998309,0.403994,1.013373,0.399100,1.022682,0.386286,1.035496,0.376977,1.040390,0.361913,1.049700,0.349100,1.049700,0.333261,1.054595,0.318198,1.054594,-2.100106,1.052101,-2.107780,1.053363,-2.115751,1.042731,-2.136613,1.035496,-2.158886,1.028966,-2.163629,1.025304,-2.170819,0.007071,-3.189052,
-0.007041,-3.196242,-0.018241,-3.207442,-0.033885,-3.209920,-0.047997,-3.217110,-0.063637,-3.214632,-0.079284,-3.217111,-0.093395,-3.209919,-0.109039,-3.207442,-0.120238,-3.196241,-0.134350,-3.189052,-1.152584,-2.170818,-1.156245,-2.163628,-1.162775,-2.158886,-1.170011,-2.136614,-1.180642,-2.115750,-1.179378,-2.107780,-1.181873,-2.100106,-1.181872,0.318198,-1.176979,0.333261,-1.176979,0.349100,
-1.167669,0.361913,-1.162775,0.376977,-1.149961,0.386286,-1.140652,0.399100,-1.125588,0.403994,-1.112775,0.413304,-1.096936,0.413304,-1.081873,0.418198,-0.500000,0.418198,-0.500000,0.500000,0.500000,0.500000,0.500000,0.418198,0.500000,0.418198,$1*%
%AMFreePoly2*
4,1,46,0.500000,0.418198,0.954594,0.418199,0.969657,0.413304,0.985496,0.413304,0.998309,0.403994,1.013373,0.399100,1.022682,0.386286,1.035496,0.376977,1.040390,0.361913,1.049700,0.349100,1.049700,0.333261,1.054595,0.318198,1.054594,-1.718269,1.047358,-1.740539,1.043695,-1.763668,1.037989,-1.769373,1.035496,-1.777048,1.016549,-1.790813,0.999993,-1.807370,0.992024,-1.808632,
0.985496,-1.813375,0.962078,-1.813375,0.938950,-1.817038,0.931761,-1.813375,0.923692,-1.813375,0.904747,-1.799610,0.883883,-1.788980,-1.152584,0.247487,-1.163214,0.268351,-1.176979,0.287296,-1.176979,0.295366,-1.180642,0.302555,-1.176979,0.325683,-1.176979,0.349100,-1.172236,0.355627,-1.170974,0.363597,-1.154417,0.380153,-1.140652,0.399100,-1.132977,0.401593,-1.127272,0.407299,
-1.104142,0.410962,-1.081873,0.418198,-0.500000,0.418198,-0.500000,0.500000,0.500000,0.500000,0.500000,0.418198,0.500000,0.418198,$1*%
G04 Aperture macros list end*
%TA.AperFunction,SMDPad,CuDef*%
%ADD10FreePoly0,315.000000*%
%TD*%
%TA.AperFunction,SMDPad,CuDef*%
%ADD11FreePoly1,315.000000*%
%TD*%
%TA.AperFunction,SMDPad,CuDef*%
%ADD12FreePoly2,315.000000*%
%TD*%
%TA.AperFunction,ComponentPad*%
%ADD13O,2.100000X1.000000*%
%TD*%
%TA.AperFunction,ComponentPad*%
%ADD14O,1.600000X1.000000*%
%TD*%
%TA.AperFunction,ComponentPad*%
%ADD15R,1.500000X2.000000*%
%TD*%
%TA.AperFunction,ComponentPad*%
%ADD16O,1.500000X2.000000*%
%TD*%
%TA.AperFunction,ViaPad*%
%ADD17C,0.600000*%
%TD*%
%TA.AperFunction,Conductor*%
%ADD18C,0.250000*%
%TD*%
%TA.AperFunction,Conductor*%
%ADD19C,0.127000*%
%TD*%
G04 APERTURE END LIST*
D10*
%TO.P,ISP1,2,VCC*%
%TO.N,+5V*%
X184121200Y-89210800D03*
D11*
%TO.P,ISP1,4,MOSI*%
%TO.N,/MOSI*%
X182501200Y-87590800D03*
D12*
%TO.P,ISP1,6,GND*%
%TO.N,GND*%
X180791200Y-85880800D03*
%TD*%
D13*
%TO.P,J1,S1,SHIELD*%
%TO.N,GND*%
X227336200Y-86916800D03*
D14*
X231516200Y-86916800D03*
D13*
X227336200Y-78276800D03*
D14*
X231516200Y-78276800D03*
%TD*%
D15*
%TO.P,GPIB1,1,1*%
%TO.N,/DIO5*%
X218194000Y-84695000D03*
D16*
%TO.P,GPIB1,2,2*%
%TO.N,/DIO1*%
X218194000Y-80405000D03*
%TO.P,GPIB1,3,3*%
%TO.N,/DIO6*%
X216034000Y-84695000D03*
%TO.P,GPIB1,4,4*%
%TO.N,/DIO2*%
X216034000Y-80405000D03*
%TO.P,GPIB1,5,5*%
%TO.N,/DIO7*%
X213874000Y-84695000D03*
%TO.P,GPIB1,6,6*%
%TO.N,/DIO3*%
X213874000Y-80405000D03*
%TO.P,GPIB1,7,7*%
%TO.N,/DIO8*%
X211714000Y-84695000D03*
%TO.P,GPIB1,8,8*%
%TO.N,/DIO4*%
X211714000Y-80405000D03*
%TO.P,GPIB1,9,9*%
%TO.N,/REN*%
X209554000Y-84695000D03*
%TO.P,GPIB1,10,10*%
%TO.N,/EOI*%
X209554000Y-80405000D03*
%TO.P,GPIB1,11,11*%
%TO.N,GND*%
X207394000Y-84695000D03*
%TO.P,GPIB1,12,12*%
%TO.N,/DAV*%
X207394000Y-80405000D03*
%TO.P,GPIB1,13,13*%
%TO.N,GND*%
X205234000Y-84695000D03*
%TO.P,GPIB1,14,14*%
%TO.N,/NRFD*%
X205234000Y-80405000D03*
%TO.P,GPIB1,15,15*%
%TO.N,GND*%
X203074000Y-84695000D03*
%TO.P,GPIB1,16,16*%
%TO.N,/NDAC*%
X203074000Y-80405000D03*
%TO.P,GPIB1,17,17*%
%TO.N,GND*%
X200914000Y-84695000D03*
%TO.P,GPIB1,18,18*%
%TO.N,/IFC*%
X200914000Y-80405000D03*
%TO.P,GPIB1,19,19*%
%TO.N,GND*%
X198754000Y-84695000D03*
%TO.P,GPIB1,20,20*%
%TO.N,/SRQ*%
X198754000Y-80405000D03*
%TO.P,GPIB1,21,21*%
%TO.N,GND*%
X196594000Y-84695000D03*
%TO.P,GPIB1,22,22*%
%TO.N,/ATN*%
X196594000Y-80405000D03*
%TO.P,GPIB1,23,23*%
%TO.N,GND*%
X194434000Y-84695000D03*
%TO.P,GPIB1,24,24*%
X194434000Y-80405000D03*
%TD*%
D17*
%TO.N,GND*%
X217119200Y-81788000D03*
X223012000Y-83693000D03*
X220472000Y-89281000D03*
X211023200Y-77978000D03*
X190144400Y-81635600D03*
X185470800Y-79552800D03*
X204165200Y-79298800D03*
X218694000Y-75819000D03*
X200050400Y-82600800D03*
X189865000Y-76200000D03*
X199898000Y-79298800D03*
X196088000Y-76255189D03*
X196138800Y-78689200D03*
X221081600Y-84886800D03*
X220472000Y-80518000D03*
X208635600Y-79298800D03*
X182778400Y-75692000D03*
X207137000Y-75692000D03*
X216331800Y-83058000D03*
X224028000Y-75819000D03*
X187502800Y-84175600D03*
X212801200Y-79349600D03*
X232410000Y-76073000D03*
X203073000Y-77978000D03*
X215290400Y-86055200D03*
X180695600Y-77216000D03*
X218000000Y-78000000D03*
X202031600Y-79349600D03*
X193167000Y-81407000D03*
X224739200Y-82956400D03*
X219659200Y-82600800D03*
X197713600Y-79095600D03*
X231902000Y-89027000D03*
X217830400Y-83108800D03*
X232918000Y-82550000D03*
X188849000Y-82931000D03*
X186944000Y-76581000D03*
X190144400Y-84251800D03*
X223012000Y-80645000D03*
X217373200Y-86817200D03*
X187579000Y-81635600D03*
X186029600Y-88792500D03*
X219710000Y-87960200D03*
X210972400Y-86207600D03*
X212394800Y-75844400D03*
%TO.N,+5V*%
X184404000Y-81407000D03*
X188075501Y-88186500D03*
X193040000Y-85445600D03*
X192151000Y-79756000D03*
%TO.N,/DIO4*%
X218567000Y-82423000D03*
X212801200Y-81483200D03*
%TO.N,/DIO3*%
X211963000Y-86741000D03*
X184549000Y-86078621D03*
%TO.N,/DIO6*%
X216563983Y-87531983D03*
%TO.N,/DIO2*%
X213614000Y-86995000D03*
X184393642Y-86788318D03*
%TO.N,/DIO1*%
X184409156Y-87514655D03*
X216027000Y-86614000D03*
%TO.N,/MOSI*%
X184150000Y-77452000D03*
X182847200Y-85929606D03*
%TO.N,Net-(D1-A)*%
X193816102Y-82422394D03*
X195633819Y-82379600D03*
%TO.N,/MISO*%
X185872023Y-78398804D03*
X182991200Y-86694428D03*
%TO.N,Net-(ISP1-~{RST})*%
X182168800Y-77989508D03*
X183568916Y-77989508D03*
%TO.N,Net-(U1-D-)*%
X199543540Y-77676621D03*
X189974479Y-77706000D03*
%TO.N,Net-(U1-D+)*%
X199313800Y-76987400D03*
X189357500Y-77259500D03*
%TO.N,Net-(D2-A)*%
X194310000Y-81889600D03*
X206349600Y-82143600D03*
%TD*%
D18*
%TO.N,+5V*%
X186563000Y-84963000D02*
X186780000Y-85180000D01*
X192379600Y-85445600D02*
X192151000Y-85217000D01*
X184178440Y-88138000D02*
X183781405Y-87740965D01*
X183781405Y-87740965D02*
X183781405Y-85679982D01*
X188075501Y-88186500D02*
X188027001Y-88138000D01*
X192114000Y-85180000D02*
X192151000Y-85217000D01*
X188027001Y-88138000D02*
X184178440Y-88138000D01*
X184498387Y-81501387D02*
X184498387Y-84963000D01*
X192151000Y-85217000D02*
X192151000Y-79756000D01*
X184178440Y-88138000D02*
X184178440Y-89153560D01*
X183781405Y-85679982D02*
X184498387Y-84963000D01*
X186780000Y-85180000D02*
X192114000Y-85180000D01*
X184498387Y-84963000D02*
X186563000Y-84963000D01*
X184404000Y-81407000D02*
X184498387Y-81501387D01*
X193040000Y-85445600D02*
X192379600Y-85445600D01*
X184178440Y-89153560D02*
X184121200Y-89210800D01*
D19*
%TO.N,/DIO4*%
X218567000Y-82423000D02*
X213741000Y-82423000D01*
X213741000Y-82423000D02*
X212801200Y-81483200D01*
%TO.N,/DIO3*%
X185316238Y-86845859D02*
X184549000Y-86078621D01*
X211963000Y-86741000D02*
X211858141Y-86845859D01*
X211858141Y-86845859D02*
X185316238Y-86845859D01*
%TO.N,/DIO6*%
X216563983Y-87531983D02*
X216563983Y-86414383D01*
X216563983Y-86414383D02*
X216034000Y-85884400D01*
X216034000Y-85884400D02*
X216034000Y-84695000D01*
%TO.N,/DIO2*%
X213294500Y-87314500D02*
X184919824Y-87314500D01*
X213614000Y-86995000D02*
X213294500Y-87314500D01*
X184919824Y-87314500D02*
X184393642Y-86788318D01*
%TO.N,/DIO1*%
X214757000Y-86614000D02*
X216027000Y-86614000D01*
X213802500Y-87568500D02*
X214757000Y-86614000D01*
X184463001Y-87568500D02*
X213802500Y-87568500D01*
X184409156Y-87514655D02*
X184463001Y-87568500D01*
%TO.N,/MOSI*%
X184150000Y-78101390D02*
X184150000Y-77452000D01*
X181965600Y-80285790D02*
X184150000Y-78101390D01*
X181965600Y-86467230D02*
X181981700Y-86451130D01*
X182847200Y-85929606D02*
X182617194Y-85699600D01*
X181965600Y-87055200D02*
X181965600Y-86467230D01*
X181965600Y-86194370D02*
X181965600Y-85699600D01*
X181965600Y-85699600D02*
X181965600Y-80285790D01*
X181981700Y-86451130D02*
X181981700Y-86210470D01*
X182617194Y-85699600D02*
X181965600Y-85699600D01*
X181981700Y-86210470D02*
X181965600Y-86194370D01*
X182501200Y-87590800D02*
X181965600Y-87055200D01*
%TO.N,Net-(D1-A)*%
X195591025Y-82422394D02*
X193816102Y-82422394D01*
X195633819Y-82379600D02*
X195591025Y-82422394D01*
%TO.N,/MISO*%
X183337200Y-86348428D02*
X183337200Y-85725934D01*
X182365506Y-85439106D02*
X182219600Y-85293200D01*
X183050372Y-85439106D02*
X182365506Y-85439106D01*
X182991200Y-86694428D02*
X183337200Y-86348428D01*
X183337200Y-85725934D02*
X183050372Y-85439106D01*
X184211796Y-78398804D02*
X185872023Y-78398804D01*
X182219600Y-85293200D02*
X182219600Y-80391000D01*
X182219600Y-80391000D02*
X184211796Y-78398804D01*
%TO.N,Net-(ISP1-~{RST})*%
X182168800Y-77989508D02*
X183568916Y-77989508D01*
%TO.N,Net-(U1-D-)*%
X190108879Y-77571600D02*
X189974479Y-77706000D01*
X199543540Y-77676621D02*
X199438519Y-77571600D01*
X199438519Y-77571600D02*
X190108879Y-77571600D01*
%TO.N,Net-(U1-D+)*%
X199085200Y-77216000D02*
X189401000Y-77216000D01*
X189401000Y-77216000D02*
X189357500Y-77259500D01*
X199313800Y-76987400D02*
X199085200Y-77216000D01*
%TO.N,Net-(D2-A)*%
X206095600Y-81889600D02*
X206349600Y-82143600D01*
X194310000Y-81889600D02*
X206095600Y-81889600D01*
%TD*%
%TA.AperFunction,Conductor*%
%TO.N,GND*%
G36*
X233004309Y-75050407D02*
G01*
X233156336Y-75063707D01*
X233173316Y-75066700D01*
X233316551Y-75105080D01*
X233332755Y-75110978D01*
X233467137Y-75173642D01*
X233482077Y-75182268D01*
X233603530Y-75267310D01*
X233616750Y-75278402D01*
X233721597Y-75383249D01*
X233732689Y-75396469D01*
X233817731Y-75517922D01*
X233826359Y-75532866D01*
X233889017Y-75667235D01*
X233894920Y-75683452D01*
X233933297Y-75826676D01*
X233936293Y-75843671D01*
X233949593Y-75995691D01*
X233949970Y-76004319D01*
X233949970Y-88995681D01*
X233949593Y-89004309D01*
X233936293Y-89156328D01*
X233933297Y-89173323D01*
X233894920Y-89316547D01*
X233889017Y-89332764D01*
X233826359Y-89467133D01*
X233817731Y-89482077D01*
X233732689Y-89603530D01*
X233721597Y-89616750D01*
X233616750Y-89721597D01*
X233603530Y-89732689D01*
X233482077Y-89817731D01*
X233467133Y-89826359D01*
X233332764Y-89889017D01*
X233316547Y-89894920D01*
X233173323Y-89933297D01*
X233156328Y-89936293D01*
X233004309Y-89949593D01*
X232995681Y-89949970D01*
X185505142Y-89949970D01*
X185451223Y-89933998D01*
X185414701Y-89891237D01*
X185407361Y-89835483D01*
X185415627Y-89783293D01*
X185415627Y-89782553D01*
X185416846Y-89767066D01*
X185416859Y-89766983D01*
X185416962Y-89766333D01*
X185416961Y-89702367D01*
X185411840Y-89686608D01*
X185408213Y-89671503D01*
X185405622Y-89655136D01*
X185376585Y-89598148D01*
X185362112Y-89578229D01*
X185338388Y-89545574D01*
X185285127Y-89492315D01*
X185278229Y-89487304D01*
X185061670Y-89270745D01*
X185034576Y-89220055D01*
X185023617Y-89164961D01*
X185017174Y-89132569D01*
X184972859Y-89066248D01*
X184890355Y-88983744D01*
X184539115Y-88632503D01*
X184512021Y-88581814D01*
X184517655Y-88524614D01*
X184554118Y-88480184D01*
X184609119Y-88463500D01*
X187557812Y-88463500D01*
X187578452Y-88466787D01*
X187578456Y-88466763D01*
X187587270Y-88467974D01*
X187587272Y-88467975D01*
X187604818Y-88470386D01*
X187635125Y-88479674D01*
X187660944Y-88498066D01*
X187668243Y-88505283D01*
X187670643Y-88507618D01*
X187670837Y-88507804D01*
X187673654Y-88510451D01*
X187673699Y-88510493D01*
X187730599Y-88562961D01*
X187748846Y-88577941D01*
X187751005Y-88579515D01*
X187770784Y-88592267D01*
X187779721Y-88597329D01*
X187854024Y-88639417D01*
X187853855Y-88639713D01*
X187859246Y-88642466D01*
X187865448Y-88646453D01*
X188003540Y-88687000D01*
X188147462Y-88687000D01*
X188285554Y-88646453D01*
X188406629Y-88568643D01*
X188500878Y-88459873D01*
X188560666Y-88328957D01*
X188581148Y-88186500D01*
X188560666Y-88044043D01*
X188528050Y-87972626D01*
X188519356Y-87924438D01*
X188534820Y-87877977D01*
X188570658Y-87844610D01*
X188618104Y-87832500D01*
X213766747Y-87832500D01*
X213786059Y-87834402D01*
X213790781Y-87835341D01*
X213802500Y-87837672D01*
X213905508Y-87817183D01*
X213970790Y-87773562D01*
X213991407Y-87759786D01*
X213991407Y-87759785D01*
X213992833Y-87758833D01*
X214002147Y-87744892D01*
X214014456Y-87729895D01*
X214837357Y-86906996D01*
X214869474Y-86885536D01*
X214907360Y-86878000D01*
X215498667Y-86878000D01*
X215518979Y-86881291D01*
X215519009Y-86881088D01*
X215546044Y-86884977D01*
X215577180Y-86894905D01*
X215603386Y-86914429D01*
X215610871Y-86922230D01*
X215611682Y-86923076D01*
X215614877Y-86926333D01*
X215615224Y-86926679D01*
X215618118Y-86929508D01*
X215676233Y-86985217D01*
X215695221Y-87001329D01*
X215697486Y-87003026D01*
X215714375Y-87014149D01*
X215718283Y-87016723D01*
X215804341Y-87066199D01*
X215804210Y-87066425D01*
X215809360Y-87069077D01*
X215816947Y-87073953D01*
X215955039Y-87114500D01*
X216050372Y-87114500D01*
X216097819Y-87126611D01*
X216133658Y-87159980D01*
X216149120Y-87206443D01*
X216140422Y-87254633D01*
X216131508Y-87274148D01*
X216127287Y-87282354D01*
X216115277Y-87303244D01*
X216095455Y-87352820D01*
X216093585Y-87357189D01*
X216078817Y-87389526D01*
X216058335Y-87531983D01*
X216078817Y-87674438D01*
X216124085Y-87773561D01*
X216138606Y-87805356D01*
X216232855Y-87914126D01*
X216232857Y-87914128D01*
X216353928Y-87991935D01*
X216353930Y-87991936D01*
X216492022Y-88032483D01*
X216635944Y-88032483D01*
X216774036Y-87991936D01*
X216895111Y-87914126D01*
X216989360Y-87805356D01*
X217049148Y-87674440D01*
X217069630Y-87531983D01*
X217064348Y-87495244D01*
X217049149Y-87389528D01*
X217039189Y-87367719D01*
X217034370Y-87357169D01*
X217032510Y-87352820D01*
X217012686Y-87303243D01*
X217000677Y-87282354D01*
X216996455Y-87274145D01*
X216989359Y-87258607D01*
X216988674Y-87257817D01*
X216977664Y-87242328D01*
X216966704Y-87223263D01*
X216953009Y-87202469D01*
X216951312Y-87200204D01*
X216935200Y-87181216D01*
X216921381Y-87166800D01*
X226077238Y-87166800D01*
X226132258Y-87294351D01*
X226236957Y-87434985D01*
X226371259Y-87547680D01*
X226527938Y-87626367D01*
X226698541Y-87666800D01*
X227086199Y-87666800D01*
X227086200Y-87666799D01*
X227586200Y-87666799D01*
X227586201Y-87666800D01*
X227929881Y-87666800D01*
X228060338Y-87651551D01*
X228225090Y-87591586D01*
X228371573Y-87495244D01*
X228491886Y-87367719D01*
X228579549Y-87215881D01*
X228594244Y-87166800D01*
X230507238Y-87166800D01*
X230562258Y-87294351D01*
X230666957Y-87434985D01*
X230801259Y-87547680D01*
X230957938Y-87626367D01*
X231128541Y-87666800D01*
X231266199Y-87666800D01*
X231266200Y-87666799D01*
X231766200Y-87666799D01*
X231766201Y-87666800D01*
X231859881Y-87666800D01*
X231990338Y-87651551D01*
X232155090Y-87591586D01*
X232301573Y-87495244D01*
X232421886Y-87367719D01*
X232509549Y-87215881D01*
X232524244Y-87166800D01*
X231766201Y-87166800D01*
X231766200Y-87166801D01*
X231766200Y-87666799D01*
X231266200Y-87666799D01*
X231266200Y-87166801D01*
X231266199Y-87166800D01*
X230507238Y-87166800D01*
X228594244Y-87166800D01*
X227586201Y-87166800D01*
X227586200Y-87166801D01*
X227586200Y-87666799D01*
X227086200Y-87666799D01*
X227086200Y-87166801D01*
X227086199Y-87166800D01*
X226077238Y-87166800D01*
X216921381Y-87166800D01*
X216879491Y-87123101D01*
X216876662Y-87120207D01*
X216876316Y-87119860D01*
X216873059Y-87116665D01*
X216870802Y-87114500D01*
X216864412Y-87108369D01*
X216844888Y-87082163D01*
X216834960Y-87051027D01*
X216831071Y-87023992D01*
X216831274Y-87023962D01*
X216827983Y-87003650D01*
X216827983Y-86666800D01*
X226078155Y-86666800D01*
X227086199Y-86666800D01*
X227086200Y-86666799D01*
X227586200Y-86666799D01*
X227586201Y-86666800D01*
X228595162Y-86666800D01*
X230508155Y-86666800D01*
X231266199Y-86666800D01*
X231266200Y-86666799D01*
X231766200Y-86666799D01*
X231766201Y-86666800D01*
X232525162Y-86666800D01*
X232525161Y-86666799D01*
X232470141Y-86539248D01*
X232365442Y-86398614D01*
X232231140Y-86285919D01*
X232074461Y-86207232D01*
X231903859Y-86166800D01*
X231766201Y-86166800D01*
X231766200Y-86166801D01*
X231766200Y-86666799D01*
X231266200Y-86666799D01*
X231266200Y-86166801D01*
X231266199Y-86166800D01*
X231172519Y-86166800D01*
X231042061Y-86182048D01*
X230877309Y-86242013D01*
X230730826Y-86338355D01*
X230610513Y-86465880D01*
X230522850Y-86617718D01*
X230508155Y-86666800D01*
X228595162Y-86666800D01*
X228595161Y-86666799D01*
X228540141Y-86539248D01*
X228435442Y-86398614D01*
X228301140Y-86285919D01*
X228144461Y-86207232D01*
X227973859Y-86166800D01*
X227586201Y-86166800D01*
X227586200Y-86166801D01*
X227586200Y-86666799D01*
X227086200Y-86666799D01*
X227086200Y-86166801D01*
X227086199Y-86166800D01*
X226742519Y-86166800D01*
X226612061Y-86182048D01*
X226447309Y-86242013D01*
X226300826Y-86338355D01*
X226180513Y-86465880D01*
X226092850Y-86617718D01*
X226078155Y-86666800D01*
X216827983Y-86666800D01*
X216827983Y-86450131D01*
X216829885Y-86430819D01*
X216831307Y-86423667D01*
X216833154Y-86414383D01*
X216829885Y-86397947D01*
X216829885Y-86397944D01*
X216827983Y-86388381D01*
X216812666Y-86311375D01*
X216782034Y-86265532D01*
X216754316Y-86224049D01*
X216740382Y-86214739D01*
X216725380Y-86202428D01*
X216552914Y-86029962D01*
X216525657Y-85978433D01*
X216532122Y-85920499D01*
X216541174Y-85899670D01*
X216543376Y-85894945D01*
X216628008Y-85725331D01*
X216631133Y-85719561D01*
X216633952Y-85714748D01*
X217243500Y-85714748D01*
X217244450Y-85719523D01*
X217255133Y-85773231D01*
X217299447Y-85839552D01*
X217334486Y-85862964D01*
X217365769Y-85883867D01*
X217424252Y-85895500D01*
X218963747Y-85895500D01*
X218963748Y-85895500D01*
X219022231Y-85883867D01*
X219088552Y-85839552D01*
X219132867Y-85773231D01*
X219144500Y-85714748D01*
X219144500Y-85452603D01*
X227379869Y-85452603D01*
X227390061Y-85588625D01*
X227390061Y-85588627D01*
X227390062Y-85588628D01*
X227439897Y-85715605D01*
X227524945Y-85822253D01*
X227637650Y-85899093D01*
X227767997Y-85939300D01*
X227870110Y-85939300D01*
X227870112Y-85939300D01*
X227937425Y-85929153D01*
X227971083Y-85924081D01*
X228093981Y-85864896D01*
X228193975Y-85772116D01*
X228262178Y-85653984D01*
X228292531Y-85520997D01*
X228282338Y-85384972D01*
X228232503Y-85257995D01*
X228147455Y-85151347D01*
X228034750Y-85074507D01*
X227904403Y-85034300D01*
X227802290Y-85034300D01*
X227802288Y-85034300D01*
X227701317Y-85049518D01*
X227578418Y-85108703D01*
X227478425Y-85201482D01*
X227410221Y-85319617D01*
X227379869Y-85452603D01*
X219144500Y-85452603D01*
X219144500Y-83675252D01*
X219132867Y-83616769D01*
X219113133Y-83587235D01*
X219088552Y-83550447D01*
X219022231Y-83506133D01*
X218994485Y-83500614D01*
X218963748Y-83494500D01*
X217424252Y-83494500D01*
X217395010Y-83500316D01*
X217365768Y-83506133D01*
X217299447Y-83550447D01*
X217255133Y-83616768D01*
X217255132Y-83616769D01*
X217255133Y-83616769D01*
X217243500Y-83675252D01*
X217243500Y-85714748D01*
X216633952Y-85714748D01*
X216664719Y-85662216D01*
X216681933Y-85640502D01*
X216758919Y-85567323D01*
X216869353Y-85408658D01*
X216897275Y-85343590D01*
X216900104Y-85338415D01*
X216899845Y-85338288D01*
X216902845Y-85332196D01*
X216902848Y-85332193D01*
X216905645Y-85326516D01*
X216907912Y-85319692D01*
X216910864Y-85311922D01*
X216945587Y-85231012D01*
X216984500Y-85041656D01*
X216984500Y-84396794D01*
X216969845Y-84252679D01*
X216911974Y-84068232D01*
X216911973Y-84068231D01*
X216911973Y-84068229D01*
X216818160Y-83899210D01*
X216692241Y-83752533D01*
X216539372Y-83634203D01*
X216365816Y-83549070D01*
X216178672Y-83500614D01*
X215985607Y-83490823D01*
X215794526Y-83520096D01*
X215613247Y-83587235D01*
X215449192Y-83689490D01*
X215309081Y-83822677D01*
X215198647Y-83981340D01*
X215122413Y-84158986D01*
X215122413Y-84158988D01*
X215084536Y-84343307D01*
X215083500Y-84348346D01*
X215083500Y-84993208D01*
X215098154Y-85137318D01*
X215156026Y-85321770D01*
X215249839Y-85490789D01*
X215360943Y-85620209D01*
X215375760Y-85637468D01*
X215528627Y-85755796D01*
X215561899Y-85772117D01*
X215636173Y-85808550D01*
X215660870Y-85825763D01*
X215752066Y-85912674D01*
X215780863Y-85965024D01*
X215785315Y-85987405D01*
X215785316Y-85987407D01*
X215785317Y-85987408D01*
X215814979Y-86031800D01*
X215815950Y-86033252D01*
X215832543Y-86083996D01*
X215820373Y-86135979D01*
X215782978Y-86174082D01*
X215718276Y-86211279D01*
X215697476Y-86224978D01*
X215695233Y-86226659D01*
X215676241Y-86242773D01*
X215618088Y-86298518D01*
X215615234Y-86301308D01*
X215614914Y-86301626D01*
X215611719Y-86304883D01*
X215603381Y-86313574D01*
X215577177Y-86333095D01*
X215546045Y-86343022D01*
X215519009Y-86346912D01*
X215518979Y-86346707D01*
X215498664Y-86350000D01*
X214792753Y-86350000D01*
X214773441Y-86348098D01*
X214764403Y-86346300D01*
X214757000Y-86344828D01*
X214756999Y-86344828D01*
X214731000Y-86349999D01*
X214730999Y-86349999D01*
X214730998Y-86350000D01*
X214692495Y-86357658D01*
X214653991Y-86365317D01*
X214566665Y-86423668D01*
X214557354Y-86437602D01*
X214545046Y-86452600D01*
X214214391Y-86783255D01*
X214173970Y-86807728D01*
X214126810Y-86810678D01*
X214083654Y-86791433D01*
X214054334Y-86754378D01*
X214039377Y-86721628D01*
X214039377Y-86721627D01*
X213945128Y-86612857D01*
X213945127Y-86612856D01*
X213945125Y-86612854D01*
X213824054Y-86535047D01*
X213685961Y-86494500D01*
X213542039Y-86494500D01*
X213403945Y-86535047D01*
X213282874Y-86612854D01*
X213188622Y-86721628D01*
X213128834Y-86852544D01*
X213112581Y-86965589D01*
X213095232Y-87008926D01*
X213059953Y-87039495D01*
X213014589Y-87050500D01*
X212525926Y-87050500D01*
X212478480Y-87038390D01*
X212442642Y-87005023D01*
X212427178Y-86958562D01*
X212435873Y-86910373D01*
X212439149Y-86903198D01*
X212448165Y-86883457D01*
X212468647Y-86741000D01*
X212448165Y-86598543D01*
X212388377Y-86467627D01*
X212294128Y-86358857D01*
X212294127Y-86358856D01*
X212294125Y-86358854D01*
X212173054Y-86281047D01*
X212034961Y-86240500D01*
X211891039Y-86240500D01*
X211752947Y-86281046D01*
X211631871Y-86358857D01*
X211608917Y-86385347D01*
X211603542Y-86391074D01*
X211579370Y-86414862D01*
X211552061Y-86450668D01*
X211548167Y-86455456D01*
X211536180Y-86469290D01*
X211531319Y-86477882D01*
X211519738Y-86494765D01*
X211518516Y-86496753D01*
X211508582Y-86514912D01*
X211508579Y-86514918D01*
X211503251Y-86525940D01*
X211466729Y-86566722D01*
X211414117Y-86581859D01*
X185466598Y-86581859D01*
X185428712Y-86574323D01*
X185396594Y-86552863D01*
X185109263Y-86265532D01*
X185097229Y-86248840D01*
X185097064Y-86248965D01*
X185080694Y-86227094D01*
X185065698Y-86198055D01*
X185060973Y-86165720D01*
X185061222Y-86153755D01*
X185061266Y-86149489D01*
X185061266Y-86148999D01*
X185061220Y-86144655D01*
X185059518Y-86064160D01*
X185057491Y-86039391D01*
X185057090Y-86036589D01*
X185052064Y-86012154D01*
X185038697Y-85962630D01*
X185036289Y-85950942D01*
X185034165Y-85936164D01*
X185025932Y-85918137D01*
X185024994Y-85916018D01*
X185005202Y-85869850D01*
X185002924Y-85866105D01*
X184997465Y-85855804D01*
X184997023Y-85854837D01*
X184974377Y-85805248D01*
X184974376Y-85805247D01*
X184974376Y-85805246D01*
X184880128Y-85696477D01*
X184759054Y-85618668D01*
X184620961Y-85578121D01*
X184582599Y-85578121D01*
X184527598Y-85561436D01*
X184491135Y-85517007D01*
X184485501Y-85459807D01*
X184512594Y-85409118D01*
X184604218Y-85317494D01*
X184636334Y-85296036D01*
X184674220Y-85288500D01*
X186387167Y-85288500D01*
X186425053Y-85296036D01*
X186457171Y-85317497D01*
X186536735Y-85397062D01*
X186542569Y-85403429D01*
X186546957Y-85408659D01*
X186567545Y-85433194D01*
X186601208Y-85452629D01*
X186608473Y-85457257D01*
X186640316Y-85479554D01*
X186641761Y-85479941D01*
X186641768Y-85479943D01*
X186665650Y-85489834D01*
X186666955Y-85490588D01*
X186666956Y-85490588D01*
X186666958Y-85490589D01*
X186692029Y-85495008D01*
X186705228Y-85497336D01*
X186713638Y-85499199D01*
X186751193Y-85509263D01*
X186751193Y-85509262D01*
X186751194Y-85509263D01*
X186773978Y-85507269D01*
X186789897Y-85505876D01*
X186798525Y-85505500D01*
X191938167Y-85505500D01*
X191976053Y-85513036D01*
X192008170Y-85534496D01*
X192073404Y-85599731D01*
X192136335Y-85662662D01*
X192142169Y-85669029D01*
X192165201Y-85696478D01*
X192167145Y-85698794D01*
X192200808Y-85718229D01*
X192208073Y-85722857D01*
X192239916Y-85745154D01*
X192241361Y-85745541D01*
X192241368Y-85745543D01*
X192265250Y-85755434D01*
X192266555Y-85756188D01*
X192266556Y-85756188D01*
X192266558Y-85756189D01*
X192291629Y-85760608D01*
X192304828Y-85762936D01*
X192313238Y-85764799D01*
X192350793Y-85774863D01*
X192350793Y-85774862D01*
X192350794Y-85774863D01*
X192382181Y-85772117D01*
X192389497Y-85771476D01*
X192398125Y-85771100D01*
X192520551Y-85771100D01*
X192547315Y-85774786D01*
X192552494Y-85776241D01*
X192592569Y-85779798D01*
X192597187Y-85780208D01*
X192641830Y-85795454D01*
X192660849Y-85807637D01*
X192662688Y-85808846D01*
X192720531Y-85847846D01*
X192720541Y-85847852D01*
X192720548Y-85847857D01*
X192731647Y-85854834D01*
X192732916Y-85855577D01*
X192732930Y-85855584D01*
X192732929Y-85855584D01*
X192744278Y-85861753D01*
X192820518Y-85900137D01*
X192829511Y-85905273D01*
X192829947Y-85905553D01*
X192869495Y-85917165D01*
X192873599Y-85918470D01*
X192874572Y-85918803D01*
X192874575Y-85918803D01*
X192876069Y-85919315D01*
X192880481Y-85920391D01*
X192968039Y-85946100D01*
X193111961Y-85946100D01*
X193206412Y-85918367D01*
X194684000Y-85918367D01*
X194684001Y-85918367D01*
X196844000Y-85918367D01*
X196844001Y-85918367D01*
X199004000Y-85918367D01*
X199004001Y-85918367D01*
X201164000Y-85918367D01*
X201164001Y-85918367D01*
X203324000Y-85918367D01*
X203324001Y-85918367D01*
X205484000Y-85918367D01*
X205484001Y-85918367D01*
X207644000Y-85918367D01*
X207644001Y-85918367D01*
X207645941Y-85918070D01*
X207836667Y-85847433D01*
X208009263Y-85739854D01*
X208156670Y-85599731D01*
X208272855Y-85432806D01*
X208353061Y-85245904D01*
X208394000Y-85046693D01*
X208394000Y-84993208D01*
X208603500Y-84993208D01*
X208618154Y-85137318D01*
X208676026Y-85321770D01*
X208769839Y-85490789D01*
X208880943Y-85620209D01*
X208895760Y-85637468D01*
X209048627Y-85755796D01*
X209222184Y-85840930D01*
X209409326Y-85889385D01*
X209602390Y-85899176D01*
X209602390Y-85899175D01*
X209602392Y-85899176D01*
X209729779Y-85879660D01*
X209793474Y-85869903D01*
X209974753Y-85802764D01*
X210138807Y-85700509D01*
X210278919Y-85567323D01*
X210389353Y-85408658D01*
X210465587Y-85231012D01*
X210504500Y-85041656D01*
X210504500Y-84993208D01*
X210763500Y-84993208D01*
X210778154Y-85137318D01*
X210836026Y-85321770D01*
X210929839Y-85490789D01*
X211040943Y-85620209D01*
X211055760Y-85637468D01*
X211208627Y-85755796D01*
X211382184Y-85840930D01*
X211569326Y-85889385D01*
X211762390Y-85899176D01*
X211762390Y-85899175D01*
X211762392Y-85899176D01*
X211889779Y-85879660D01*
X211953474Y-85869903D01*
X212134753Y-85802764D01*
X212298807Y-85700509D01*
X212438919Y-85567323D01*
X212549353Y-85408658D01*
X212625587Y-85231012D01*
X212664500Y-85041656D01*
X212664500Y-84993208D01*
X212923500Y-84993208D01*
X212938154Y-85137318D01*
X212996026Y-85321770D01*
X213089839Y-85490789D01*
X213200943Y-85620209D01*
X213215760Y-85637468D01*
X213368627Y-85755796D01*
X213542184Y-85840930D01*
X213729326Y-85889385D01*
X213922390Y-85899176D01*
X213922390Y-85899175D01*
X213922392Y-85899176D01*
X214049779Y-85879660D01*
X214113474Y-85869903D01*
X214294753Y-85802764D01*
X214458807Y-85700509D01*
X214598919Y-85567323D01*
X214709353Y-85408658D01*
X214785587Y-85231012D01*
X214824500Y-85041656D01*
X214824500Y-84396794D01*
X214809845Y-84252679D01*
X214751974Y-84068232D01*
X214751973Y-84068231D01*
X214751973Y-84068229D01*
X214658160Y-83899210D01*
X214532241Y-83752533D01*
X214379372Y-83634203D01*
X214205816Y-83549070D01*
X214018672Y-83500614D01*
X213825607Y-83490823D01*
X213634526Y-83520096D01*
X213453247Y-83587235D01*
X213289192Y-83689490D01*
X213149081Y-83822677D01*
X213038647Y-83981340D01*
X212962413Y-84158986D01*
X212962413Y-84158988D01*
X212924536Y-84343307D01*
X212923500Y-84348346D01*
X212923500Y-84993208D01*
X212664500Y-84993208D01*
X212664500Y-84396794D01*
X212649845Y-84252679D01*
X212591974Y-84068232D01*
X212591973Y-84068231D01*
X212591973Y-84068229D01*
X212498160Y-83899210D01*
X212372241Y-83752533D01*
X212219372Y-83634203D01*
X212045816Y-83549070D01*
X211858672Y-83500614D01*
X211665607Y-83490823D01*
X211474526Y-83520096D01*
X211293247Y-83587235D01*
X211129192Y-83689490D01*
X210989081Y-83822677D01*
X210878647Y-83981340D01*
X210802413Y-84158986D01*
X210802413Y-84158988D01*
X210764536Y-84343307D01*
X210763500Y-84348346D01*
X210763500Y-84993208D01*
X210504500Y-84993208D01*
X210504500Y-84396794D01*
X210489845Y-84252679D01*
X210431974Y-84068232D01*
X210431973Y-84068231D01*
X210431973Y-84068229D01*
X210338160Y-83899210D01*
X210212241Y-83752533D01*
X210059372Y-83634203D01*
X209885816Y-83549070D01*
X209698672Y-83500614D01*
X209505607Y-83490823D01*
X209314526Y-83520096D01*
X209133247Y-83587235D01*
X208969192Y-83689490D01*
X208829081Y-83822677D01*
X208718647Y-83981340D01*
X208642413Y-84158986D01*
X208642413Y-84158988D01*
X208604536Y-84343307D01*
X208603500Y-84348346D01*
X208603500Y-84993208D01*
X208394000Y-84993208D01*
X208394000Y-84945001D01*
X208393999Y-84945000D01*
X207644001Y-84945000D01*
X207644000Y-84945001D01*
X207644000Y-85918367D01*
X205484001Y-85918367D01*
X205485941Y-85918070D01*
X205676667Y-85847433D01*
X205849263Y-85739854D01*
X205996670Y-85599731D01*
X206112855Y-85432806D01*
X206193059Y-85245909D01*
X206214416Y-85141984D01*
X206240330Y-85092981D01*
X206288521Y-85065589D01*
X206343883Y-85068396D01*
X206389057Y-85100521D01*
X206404396Y-85138361D01*
X206406405Y-85137731D01*
X206470303Y-85341392D01*
X206569002Y-85519212D01*
X206701480Y-85673531D01*
X206862306Y-85798019D01*
X207044903Y-85887587D01*
X207144000Y-85913245D01*
X207144000Y-83476754D01*
X207644000Y-83476754D01*
X207644000Y-84444999D01*
X207644001Y-84445000D01*
X208393999Y-84445000D01*
X208394000Y-84444999D01*
X208394000Y-84394287D01*
X208378581Y-84242663D01*
X208317696Y-84048607D01*
X208218997Y-83870787D01*
X208086519Y-83716468D01*
X207925693Y-83591980D01*
X207743096Y-83502412D01*
X207644000Y-83476754D01*
X207144000Y-83476754D01*
X207144000Y-83471634D01*
X207143998Y-83471632D01*
X207142058Y-83471929D01*
X206951332Y-83542566D01*
X206778736Y-83650145D01*
X206631329Y-83790268D01*
X206515144Y-83957193D01*
X206434939Y-84144095D01*
X206413582Y-84248016D01*
X206387666Y-84297021D01*
X206339471Y-84324411D01*
X206284107Y-84321600D01*
X206238934Y-84289468D01*
X206223605Y-84251638D01*
X206221595Y-84252269D01*
X206157696Y-84048607D01*
X206058997Y-83870787D01*
X205926519Y-83716468D01*
X205765693Y-83591980D01*
X205583096Y-83502412D01*
X205484000Y-83476754D01*
X205484000Y-85918367D01*
X203324001Y-85918367D01*
X203325941Y-85918070D01*
X203516667Y-85847433D01*
X203689263Y-85739854D01*
X203836670Y-85599731D01*
X203952855Y-85432806D01*
X204033059Y-85245909D01*
X204054416Y-85141984D01*
X204080330Y-85092981D01*
X204128521Y-85065589D01*
X204183883Y-85068396D01*
X204229057Y-85100521D01*
X204244396Y-85138361D01*
X204246405Y-85137731D01*
X204310303Y-85341392D01*
X204409002Y-85519212D01*
X204541480Y-85673531D01*
X204702306Y-85798019D01*
X204884903Y-85887587D01*
X204984000Y-85913245D01*
X204984000Y-83471634D01*
X204983998Y-83471632D01*
X204982058Y-83471929D01*
X204791332Y-83542566D01*
X204618736Y-83650145D01*
X204471329Y-83790268D01*
X204355144Y-83957193D01*
X204274939Y-84144095D01*
X204253582Y-84248016D01*
X204227666Y-84297021D01*
X204179471Y-84324411D01*
X204124107Y-84321600D01*
X204078934Y-84289468D01*
X204063605Y-84251638D01*
X204061595Y-84252269D01*
X203997696Y-84048607D01*
X203898997Y-83870787D01*
X203766519Y-83716468D01*
X203605693Y-83591980D01*
X203423096Y-83502412D01*
X203324000Y-83476754D01*
X203324000Y-85918367D01*
X201164001Y-85918367D01*
X201165941Y-85918070D01*
X201356667Y-85847433D01*
X201529263Y-85739854D01*
X201676670Y-85599731D01*
X201792855Y-85432806D01*
X201873059Y-85245909D01*
X201894416Y-85141984D01*
X201920330Y-85092981D01*
X201968521Y-85065589D01*
X202023883Y-85068396D01*
X202069057Y-85100521D01*
X202084396Y-85138361D01*
X202086405Y-85137731D01*
X202150303Y-85341392D01*
X202249002Y-85519212D01*
X202381480Y-85673531D01*
X202542306Y-85798019D01*
X202724903Y-85887587D01*
X202824000Y-85913245D01*
X202824000Y-83471634D01*
X202823998Y-83471632D01*
X202822058Y-83471929D01*
X202631332Y-83542566D01*
X202458736Y-83650145D01*
X202311329Y-83790268D01*
X202195144Y-83957193D01*
X202114939Y-84144095D01*
X202093582Y-84248016D01*
X202067666Y-84297021D01*
X202019471Y-84324411D01*
X201964107Y-84321600D01*
X201918934Y-84289468D01*
X201903605Y-84251638D01*
X201901595Y-84252269D01*
X201837696Y-84048607D01*
X201738997Y-83870787D01*
X201606519Y-83716468D01*
X201445693Y-83591980D01*
X201263096Y-83502412D01*
X201164000Y-83476754D01*
X201164000Y-85918367D01*
X199004001Y-85918367D01*
X199005941Y-85918070D01*
X199196667Y-85847433D01*
X199369263Y-85739854D01*
X199516670Y-85599731D01*
X199632855Y-85432806D01*
X199713059Y-85245909D01*
X199734416Y-85141984D01*
X199760330Y-85092981D01*
X199808521Y-85065589D01*
X199863883Y-85068396D01*
X199909057Y-85100521D01*
X199924396Y-85138361D01*
X199926405Y-85137731D01*
X199990303Y-85341392D01*
X200089002Y-85519212D01*
X200221480Y-85673531D01*
X200382306Y-85798019D01*
X200564903Y-85887587D01*
X200664000Y-85913245D01*
X200664000Y-83471634D01*
X200663998Y-83471632D01*
X200662058Y-83471929D01*
X200471332Y-83542566D01*
X200298736Y-83650145D01*
X200151329Y-83790268D01*
X200035144Y-83957193D01*
X199954939Y-84144095D01*
X199933582Y-84248016D01*
X199907666Y-84297021D01*
X199859471Y-84324411D01*
X199804107Y-84321600D01*
X199758934Y-84289468D01*
X199743605Y-84251638D01*
X199741595Y-84252269D01*
X199677696Y-84048607D01*
X199578997Y-83870787D01*
X199446519Y-83716468D01*
X199285693Y-83591980D01*
X199103096Y-83502412D01*
X199004000Y-83476754D01*
X199004000Y-85918367D01*
X196844001Y-85918367D01*
X196845941Y-85918070D01*
X197036667Y-85847433D01*
X197209263Y-85739854D01*
X197356670Y-85599731D01*
X197472855Y-85432806D01*
X197553059Y-85245909D01*
X197574416Y-85141984D01*
X197600330Y-85092981D01*
X197648521Y-85065589D01*
X197703883Y-85068396D01*
X197749057Y-85100521D01*
X197764396Y-85138361D01*
X197766405Y-85137731D01*
X197830303Y-85341392D01*
X197929002Y-85519212D01*
X198061480Y-85673531D01*
X198222306Y-85798019D01*
X198404903Y-85887587D01*
X198504000Y-85913245D01*
X198504000Y-83471634D01*
X198503998Y-83471632D01*
X198502058Y-83471929D01*
X198311332Y-83542566D01*
X198138736Y-83650145D01*
X197991329Y-83790268D01*
X197875144Y-83957193D01*
X197794939Y-84144095D01*
X197773582Y-84248016D01*
X197747666Y-84297021D01*
X197699471Y-84324411D01*
X197644107Y-84321600D01*
X197598934Y-84289468D01*
X197583605Y-84251638D01*
X197581595Y-84252269D01*
X197517696Y-84048607D01*
X197418997Y-83870787D01*
X197286519Y-83716468D01*
X197125693Y-83591980D01*
X196943096Y-83502412D01*
X196844000Y-83476754D01*
X196844000Y-85918367D01*
X194684001Y-85918367D01*
X194685941Y-85918070D01*
X194876667Y-85847433D01*
X195049263Y-85739854D01*
X195196670Y-85599731D01*
X195312855Y-85432806D01*
X195393059Y-85245909D01*
X195414416Y-85141984D01*
X195440330Y-85092981D01*
X195488521Y-85065589D01*
X195543883Y-85068396D01*
X195589057Y-85100521D01*
X195604396Y-85138361D01*
X195606405Y-85137731D01*
X195670303Y-85341392D01*
X195769002Y-85519212D01*
X195901480Y-85673531D01*
X196062306Y-85798019D01*
X196244903Y-85887587D01*
X196344000Y-85913245D01*
X196344000Y-83471634D01*
X196343998Y-83471632D01*
X196342058Y-83471929D01*
X196151332Y-83542566D01*
X195978736Y-83650145D01*
X195831329Y-83790268D01*
X195715144Y-83957193D01*
X195634939Y-84144095D01*
X195613582Y-84248016D01*
X195587666Y-84297021D01*
X195539471Y-84324411D01*
X195484107Y-84321600D01*
X195438934Y-84289468D01*
X195423605Y-84251638D01*
X195421595Y-84252269D01*
X195357696Y-84048607D01*
X195258997Y-83870787D01*
X195126519Y-83716468D01*
X194965693Y-83591980D01*
X194783096Y-83502412D01*
X194684000Y-83476754D01*
X194684000Y-85918367D01*
X193206412Y-85918367D01*
X193250053Y-85905553D01*
X193371128Y-85827743D01*
X193465377Y-85718973D01*
X193510483Y-85620204D01*
X193541297Y-85582013D01*
X193586671Y-85563310D01*
X193635451Y-85568697D01*
X193675651Y-85596849D01*
X193741480Y-85673531D01*
X193902306Y-85798019D01*
X194084903Y-85887587D01*
X194184000Y-85913245D01*
X194184000Y-84945001D01*
X194183999Y-84945000D01*
X193434001Y-84945000D01*
X193425514Y-84953486D01*
X193420141Y-84973074D01*
X193382446Y-85009447D01*
X193331467Y-85021494D01*
X193281477Y-85005841D01*
X193250054Y-84985647D01*
X193111961Y-84945100D01*
X192968039Y-84945100D01*
X192968038Y-84945100D01*
X192880462Y-84970813D01*
X192876065Y-84971887D01*
X192873636Y-84972718D01*
X192869500Y-84974032D01*
X192829947Y-84985646D01*
X192829519Y-84985922D01*
X192820524Y-84991057D01*
X192816258Y-84993206D01*
X192744262Y-85029452D01*
X192732882Y-85035639D01*
X192731641Y-85036365D01*
X192720540Y-85043346D01*
X192662754Y-85082306D01*
X192660810Y-85083584D01*
X192641831Y-85095741D01*
X192597194Y-85110989D01*
X192595474Y-85111141D01*
X192584259Y-85112137D01*
X192531149Y-85102036D01*
X192491263Y-85065537D01*
X192476500Y-85013526D01*
X192476500Y-84444999D01*
X193434000Y-84444999D01*
X193434001Y-84445000D01*
X194183999Y-84445000D01*
X194184000Y-84444999D01*
X194184000Y-83471634D01*
X194183998Y-83471632D01*
X194182058Y-83471929D01*
X193991332Y-83542566D01*
X193818736Y-83650145D01*
X193671329Y-83790268D01*
X193555144Y-83957193D01*
X193474938Y-84144095D01*
X193434000Y-84343307D01*
X193434000Y-84444999D01*
X192476500Y-84444999D01*
X192476500Y-82422394D01*
X193310454Y-82422394D01*
X193330936Y-82564849D01*
X193389907Y-82693977D01*
X193390725Y-82695767D01*
X193474058Y-82791939D01*
X193484976Y-82804539D01*
X193606047Y-82882346D01*
X193606049Y-82882347D01*
X193744141Y-82922894D01*
X193888063Y-82922894D01*
X194026155Y-82882347D01*
X194033735Y-82877474D01*
X194038880Y-82874826D01*
X194038749Y-82874598D01*
X194076126Y-82853109D01*
X194124820Y-82825114D01*
X194145614Y-82811419D01*
X194147879Y-82809722D01*
X194166867Y-82793610D01*
X194224981Y-82737902D01*
X194227875Y-82735073D01*
X194228222Y-82734727D01*
X194231415Y-82731471D01*
X194231433Y-82731453D01*
X194239704Y-82722831D01*
X194265914Y-82703302D01*
X194297054Y-82693372D01*
X194324095Y-82689483D01*
X194324124Y-82689686D01*
X194344440Y-82686394D01*
X195119378Y-82686394D01*
X195147890Y-82690588D01*
X195150282Y-82691308D01*
X195181050Y-82694692D01*
X195231168Y-82715080D01*
X195244951Y-82725847D01*
X195245436Y-82726224D01*
X195303926Y-82771635D01*
X195318397Y-82781900D01*
X195318400Y-82781902D01*
X195320089Y-82782994D01*
X195335320Y-82791935D01*
X195335327Y-82791939D01*
X195411365Y-82832282D01*
X195411367Y-82832282D01*
X195413948Y-82833652D01*
X195421075Y-82837823D01*
X195423766Y-82839553D01*
X195459789Y-82850130D01*
X195465227Y-82851916D01*
X195469917Y-82853104D01*
X195561858Y-82880100D01*
X195705780Y-82880100D01*
X195843872Y-82839553D01*
X195964947Y-82761743D01*
X196059196Y-82652973D01*
X196118984Y-82522057D01*
X196139466Y-82379600D01*
X196134139Y-82342548D01*
X196123233Y-82266689D01*
X196131172Y-82211474D01*
X196167702Y-82169316D01*
X196221225Y-82153600D01*
X205759606Y-82153600D01*
X205804970Y-82164605D01*
X205840248Y-82195173D01*
X205857598Y-82238509D01*
X205864435Y-82286059D01*
X205882132Y-82324811D01*
X205885058Y-82331940D01*
X205888935Y-82342546D01*
X205895523Y-82354691D01*
X205898553Y-82360765D01*
X205907155Y-82379600D01*
X205924223Y-82416973D01*
X206015278Y-82522057D01*
X206018474Y-82525745D01*
X206120465Y-82591290D01*
X206139547Y-82603553D01*
X206277639Y-82644100D01*
X206421561Y-82644100D01*
X206559653Y-82603553D01*
X206680728Y-82525743D01*
X206774977Y-82416973D01*
X206834765Y-82286057D01*
X206855247Y-82143600D01*
X206834765Y-82001143D01*
X206774977Y-81870227D01*
X206680728Y-81761457D01*
X206680727Y-81761456D01*
X206680725Y-81761454D01*
X206559654Y-81683647D01*
X206421561Y-81643100D01*
X206376738Y-81643100D01*
X206355804Y-81640861D01*
X206352996Y-81640253D01*
X206342186Y-81637914D01*
X206267622Y-81636455D01*
X206263057Y-81636260D01*
X206207973Y-81632634D01*
X206205503Y-81632441D01*
X206202863Y-81632200D01*
X206152495Y-81627616D01*
X206150919Y-81627481D01*
X206150116Y-81627412D01*
X206150088Y-81627410D01*
X206147129Y-81627195D01*
X206127423Y-81625898D01*
X206114615Y-81624210D01*
X206095598Y-81620427D01*
X206094625Y-81620621D01*
X206072330Y-81622476D01*
X206071609Y-81622454D01*
X205990757Y-81620871D01*
X205958123Y-81624576D01*
X205954670Y-81624968D01*
X205943506Y-81625600D01*
X205819715Y-81625600D01*
X205770795Y-81612669D01*
X205734655Y-81577254D01*
X205720735Y-81528606D01*
X205732672Y-81479435D01*
X205767348Y-81442584D01*
X205818807Y-81410509D01*
X205822498Y-81407000D01*
X205958919Y-81277323D01*
X206069353Y-81118658D01*
X206145587Y-80941012D01*
X206184500Y-80751656D01*
X206184500Y-80703208D01*
X206443500Y-80703208D01*
X206458154Y-80847318D01*
X206516026Y-81031770D01*
X206609839Y-81200789D01*
X206703363Y-81309731D01*
X206735760Y-81347468D01*
X206888627Y-81465796D01*
X207062184Y-81550930D01*
X207249326Y-81599385D01*
X207442390Y-81609176D01*
X207442390Y-81609175D01*
X207442392Y-81609176D01*
X207629446Y-81580520D01*
X207633474Y-81579903D01*
X207814753Y-81512764D01*
X207978807Y-81410509D01*
X208118919Y-81277323D01*
X208229353Y-81118658D01*
X208305587Y-80941012D01*
X208344500Y-80751656D01*
X208344500Y-80703208D01*
X208603500Y-80703208D01*
X208618154Y-80847318D01*
X208676026Y-81031770D01*
X208769839Y-81200789D01*
X208863363Y-81309731D01*
X208895760Y-81347468D01*
X209048627Y-81465796D01*
X209222184Y-81550930D01*
X209409326Y-81599385D01*
X209602390Y-81609176D01*
X209602390Y-81609175D01*
X209602392Y-81609176D01*
X209789446Y-81580520D01*
X209793474Y-81579903D01*
X209974753Y-81512764D01*
X210138807Y-81410509D01*
X210278919Y-81277323D01*
X210389353Y-81118658D01*
X210465587Y-80941012D01*
X210504500Y-80751656D01*
X210504500Y-80703208D01*
X210763500Y-80703208D01*
X210778154Y-80847318D01*
X210836026Y-81031770D01*
X210929839Y-81200789D01*
X211023363Y-81309731D01*
X211055760Y-81347468D01*
X211208627Y-81465796D01*
X211382184Y-81550930D01*
X211569326Y-81599385D01*
X211762390Y-81609176D01*
X211762390Y-81609175D01*
X211762392Y-81609176D01*
X211949446Y-81580520D01*
X211953474Y-81579903D01*
X212134753Y-81512764D01*
X212157461Y-81498609D01*
X212203789Y-81483809D01*
X212251576Y-81492857D01*
X212289287Y-81523570D01*
X212307821Y-81568535D01*
X212316034Y-81625655D01*
X212331155Y-81658766D01*
X212375823Y-81756573D01*
X212470072Y-81865343D01*
X212470074Y-81865345D01*
X212531683Y-81904938D01*
X212591147Y-81943153D01*
X212617301Y-81950832D01*
X212628417Y-81954830D01*
X212645663Y-81962224D01*
X212734733Y-81986264D01*
X212759168Y-81991290D01*
X212761970Y-81991691D01*
X212772586Y-81992559D01*
X212786738Y-81993718D01*
X212835005Y-81994737D01*
X212867241Y-81995419D01*
X212867246Y-81995419D01*
X212867291Y-81995420D01*
X212871538Y-81995465D01*
X212871582Y-81995465D01*
X212872035Y-81995465D01*
X212872072Y-81995465D01*
X212876336Y-81995421D01*
X212888297Y-81995172D01*
X212920633Y-81999897D01*
X212949672Y-82014894D01*
X212971544Y-82031265D01*
X212971420Y-82031430D01*
X212988111Y-82043463D01*
X213529045Y-82584397D01*
X213541356Y-82599399D01*
X213550667Y-82613333D01*
X213572709Y-82628061D01*
X213572710Y-82628062D01*
X213637992Y-82671683D01*
X213741000Y-82692172D01*
X213754519Y-82689483D01*
X213757441Y-82688902D01*
X213776753Y-82687000D01*
X218038667Y-82687000D01*
X218058979Y-82690291D01*
X218059009Y-82690088D01*
X218086044Y-82693977D01*
X218117180Y-82703905D01*
X218143386Y-82723429D01*
X218146068Y-82726224D01*
X218151682Y-82732076D01*
X218154877Y-82735333D01*
X218155224Y-82735679D01*
X218158118Y-82738508D01*
X218216233Y-82794217D01*
X218228395Y-82804537D01*
X218234505Y-82809722D01*
X218235221Y-82810329D01*
X218237486Y-82812026D01*
X218237491Y-82812029D01*
X218258283Y-82825723D01*
X218344341Y-82875199D01*
X218344210Y-82875425D01*
X218349359Y-82878076D01*
X218356947Y-82882953D01*
X218495039Y-82923500D01*
X218638961Y-82923500D01*
X218777053Y-82882953D01*
X218898128Y-82805143D01*
X218992377Y-82696373D01*
X219052165Y-82565457D01*
X219072647Y-82423000D01*
X219052165Y-82280543D01*
X218992377Y-82149627D01*
X218898128Y-82040857D01*
X218898127Y-82040856D01*
X218898125Y-82040854D01*
X218777054Y-81963047D01*
X218638961Y-81922500D01*
X218495039Y-81922500D01*
X218424704Y-81943152D01*
X218356943Y-81963048D01*
X218349343Y-81967932D01*
X218344201Y-81970585D01*
X218344329Y-81970807D01*
X218258282Y-82020274D01*
X218237476Y-82033978D01*
X218235233Y-82035659D01*
X218216241Y-82051773D01*
X218158088Y-82107518D01*
X218155234Y-82110308D01*
X218154914Y-82110626D01*
X218151719Y-82113883D01*
X218143381Y-82122574D01*
X218117177Y-82142095D01*
X218086045Y-82152022D01*
X218059009Y-82155912D01*
X218058979Y-82155707D01*
X218038664Y-82159000D01*
X213891360Y-82159000D01*
X213853474Y-82151464D01*
X213821356Y-82130004D01*
X213374775Y-81683423D01*
X213348229Y-81635309D01*
X213351430Y-81580451D01*
X213383391Y-81535750D01*
X213434265Y-81514979D01*
X213488377Y-81524536D01*
X213542184Y-81550930D01*
X213729326Y-81599385D01*
X213922390Y-81609176D01*
X213922390Y-81609175D01*
X213922392Y-81609176D01*
X214109446Y-81580520D01*
X214113474Y-81579903D01*
X214294753Y-81512764D01*
X214458807Y-81410509D01*
X214598919Y-81277323D01*
X214709353Y-81118658D01*
X214785587Y-80941012D01*
X214824500Y-80751656D01*
X214824500Y-80703208D01*
X215083500Y-80703208D01*
X215098154Y-80847318D01*
X215156026Y-81031770D01*
X215249839Y-81200789D01*
X215343363Y-81309731D01*
X215375760Y-81347468D01*
X215528627Y-81465796D01*
X215702184Y-81550930D01*
X215889326Y-81599385D01*
X216082390Y-81609176D01*
X216082390Y-81609175D01*
X216082392Y-81609176D01*
X216269446Y-81580520D01*
X216273474Y-81579903D01*
X216454753Y-81512764D01*
X216618807Y-81410509D01*
X216758919Y-81277323D01*
X216869353Y-81118658D01*
X216945587Y-80941012D01*
X216984500Y-80751656D01*
X216984500Y-80703208D01*
X217243500Y-80703208D01*
X217258154Y-80847318D01*
X217316026Y-81031770D01*
X217409839Y-81200789D01*
X217503363Y-81309731D01*
X217535760Y-81347468D01*
X217688627Y-81465796D01*
X217862184Y-81550930D01*
X218049326Y-81599385D01*
X218242390Y-81609176D01*
X218242390Y-81609175D01*
X218242392Y-81609176D01*
X218429446Y-81580520D01*
X218433474Y-81579903D01*
X218614753Y-81512764D01*
X218778807Y-81410509D01*
X218918919Y-81277323D01*
X219029353Y-81118658D01*
X219105587Y-80941012D01*
X219144500Y-80751656D01*
X219144500Y-80106794D01*
X219141148Y-80073835D01*
X219137172Y-80034736D01*
X219129845Y-79962679D01*
X219071974Y-79778232D01*
X219071973Y-79778231D01*
X219071973Y-79778229D01*
X219013346Y-79672603D01*
X227379869Y-79672603D01*
X227390061Y-79808625D01*
X227390061Y-79808627D01*
X227390062Y-79808628D01*
X227439897Y-79935605D01*
X227524945Y-80042253D01*
X227637650Y-80119093D01*
X227767997Y-80159300D01*
X227870110Y-80159300D01*
X227870112Y-80159300D01*
X227937425Y-80149153D01*
X227971083Y-80144081D01*
X228093981Y-80084896D01*
X228193975Y-79992116D01*
X228262178Y-79873984D01*
X228292531Y-79740997D01*
X228282338Y-79604972D01*
X228232503Y-79477995D01*
X228147455Y-79371347D01*
X228131024Y-79360145D01*
X228107643Y-79344204D01*
X228034750Y-79294507D01*
X227904403Y-79254300D01*
X227802290Y-79254300D01*
X227802288Y-79254300D01*
X227701317Y-79269518D01*
X227578418Y-79328703D01*
X227478425Y-79421482D01*
X227410221Y-79539617D01*
X227379869Y-79672603D01*
X219013346Y-79672603D01*
X218978160Y-79609210D01*
X218852241Y-79462533D01*
X218699372Y-79344203D01*
X218525816Y-79259070D01*
X218338672Y-79210614D01*
X218145607Y-79200823D01*
X217954526Y-79230096D01*
X217773247Y-79297235D01*
X217609192Y-79399490D01*
X217469081Y-79532677D01*
X217358647Y-79691340D01*
X217282413Y-79868986D01*
X217268993Y-79934293D01*
X217244536Y-80053307D01*
X217243500Y-80058346D01*
X217243500Y-80703208D01*
X216984500Y-80703208D01*
X216984500Y-80106794D01*
X216981148Y-80073835D01*
X216977172Y-80034736D01*
X216969845Y-79962679D01*
X216911974Y-79778232D01*
X216911973Y-79778231D01*
X216911973Y-79778229D01*
X216818160Y-79609210D01*
X216692241Y-79462533D01*
X216539372Y-79344203D01*
X216365816Y-79259070D01*
X216178672Y-79210614D01*
X215985607Y-79200823D01*
X215794526Y-79230096D01*
X215613247Y-79297235D01*
X215449192Y-79399490D01*
X215309081Y-79532677D01*
X215198647Y-79691340D01*
X215122413Y-79868986D01*
X215108993Y-79934293D01*
X215084536Y-80053307D01*
X215083500Y-80058346D01*
X215083500Y-80703208D01*
X214824500Y-80703208D01*
X214824500Y-80106794D01*
X214821148Y-80073835D01*
X214817172Y-80034736D01*
X214809845Y-79962679D01*
X214751974Y-79778232D01*
X214751973Y-79778231D01*
X214751973Y-79778229D01*
X214658160Y-79609210D01*
X214532241Y-79462533D01*
X214379372Y-79344203D01*
X214205816Y-79259070D01*
X214018672Y-79210614D01*
X213825607Y-79200823D01*
X213634526Y-79230096D01*
X213453247Y-79297235D01*
X213289192Y-79399490D01*
X213149081Y-79532677D01*
X213038647Y-79691340D01*
X212962413Y-79868986D01*
X212948993Y-79934293D01*
X212924536Y-80053307D01*
X212923500Y-80058346D01*
X212923500Y-80703208D01*
X212938154Y-80847321D01*
X212940270Y-80854064D01*
X212939756Y-80914929D01*
X212903730Y-80963989D01*
X212845810Y-80982700D01*
X212738434Y-80982700D01*
X212683259Y-80965899D01*
X212646811Y-80921200D01*
X212641460Y-80863772D01*
X212644841Y-80847318D01*
X212664500Y-80751656D01*
X212664500Y-80106794D01*
X212661148Y-80073835D01*
X212657172Y-80034736D01*
X212649845Y-79962679D01*
X212591974Y-79778232D01*
X212591973Y-79778231D01*
X212591973Y-79778229D01*
X212498160Y-79609210D01*
X212372241Y-79462533D01*
X212219372Y-79344203D01*
X212045816Y-79259070D01*
X211858672Y-79210614D01*
X211665607Y-79200823D01*
X211474526Y-79230096D01*
X211293247Y-79297235D01*
X211129192Y-79399490D01*
X210989081Y-79532677D01*
X210878647Y-79691340D01*
X210802413Y-79868986D01*
X210788993Y-79934293D01*
X210764536Y-80053307D01*
X210763500Y-80058346D01*
X210763500Y-80703208D01*
X210504500Y-80703208D01*
X210504500Y-80106794D01*
X210501148Y-80073835D01*
X210497172Y-80034736D01*
X210489845Y-79962679D01*
X210431974Y-79778232D01*
X210431973Y-79778231D01*
X210431973Y-79778229D01*
X210338160Y-79609210D01*
X210212241Y-79462533D01*
X210059372Y-79344203D01*
X209885816Y-79259070D01*
X209698672Y-79210614D01*
X209505607Y-79200823D01*
X209314526Y-79230096D01*
X209133247Y-79297235D01*
X208969192Y-79399490D01*
X208829081Y-79532677D01*
X208718647Y-79691340D01*
X208642413Y-79868986D01*
X208628993Y-79934293D01*
X208604536Y-80053307D01*
X208603500Y-80058346D01*
X208603500Y-80703208D01*
X208344500Y-80703208D01*
X208344500Y-80106794D01*
X208341148Y-80073835D01*
X208337172Y-80034736D01*
X208329845Y-79962679D01*
X208271974Y-79778232D01*
X208271973Y-79778231D01*
X208271973Y-79778229D01*
X208178160Y-79609210D01*
X208052241Y-79462533D01*
X207899372Y-79344203D01*
X207725816Y-79259070D01*
X207538672Y-79210614D01*
X207345607Y-79200823D01*
X207154526Y-79230096D01*
X206973247Y-79297235D01*
X206809192Y-79399490D01*
X206669081Y-79532677D01*
X206558647Y-79691340D01*
X206482413Y-79868986D01*
X206468993Y-79934293D01*
X206444536Y-80053307D01*
X206443500Y-80058346D01*
X206443500Y-80703208D01*
X206184500Y-80703208D01*
X206184500Y-80106794D01*
X206181148Y-80073835D01*
X206177172Y-80034736D01*
X206169845Y-79962679D01*
X206111974Y-79778232D01*
X206111973Y-79778231D01*
X206111973Y-79778229D01*
X206018160Y-79609210D01*
X205892241Y-79462533D01*
X205739372Y-79344203D01*
X205565816Y-79259070D01*
X205378672Y-79210614D01*
X205185607Y-79200823D01*
X204994526Y-79230096D01*
X204813247Y-79297235D01*
X204649192Y-79399490D01*
X204509081Y-79532677D01*
X204398647Y-79691340D01*
X204322413Y-79868986D01*
X204308993Y-79934293D01*
X204284536Y-80053307D01*
X204283500Y-80058346D01*
X204283500Y-80703208D01*
X204298154Y-80847318D01*
X204356026Y-81031770D01*
X204449839Y-81200789D01*
X204449841Y-81200791D01*
X204575760Y-81347468D01*
X204698640Y-81442584D01*
X204706041Y-81448313D01*
X204740270Y-81498162D01*
X204739121Y-81558620D01*
X204703022Y-81607133D01*
X204645442Y-81625600D01*
X203659715Y-81625600D01*
X203610795Y-81612669D01*
X203574655Y-81577254D01*
X203560735Y-81528606D01*
X203572672Y-81479435D01*
X203607348Y-81442584D01*
X203658807Y-81410509D01*
X203662498Y-81407000D01*
X203798919Y-81277323D01*
X203909353Y-81118658D01*
X203985587Y-80941012D01*
X204024500Y-80751656D01*
X204024500Y-80106794D01*
X204021148Y-80073835D01*
X204017172Y-80034736D01*
X204009845Y-79962679D01*
X203951974Y-79778232D01*
X203951973Y-79778231D01*
X203951973Y-79778229D01*
X203858160Y-79609210D01*
X203732241Y-79462533D01*
X203579372Y-79344203D01*
X203405816Y-79259070D01*
X203218672Y-79210614D01*
X203025607Y-79200823D01*
X202834526Y-79230096D01*
X202653247Y-79297235D01*
X202489192Y-79399490D01*
X202349081Y-79532677D01*
X202238647Y-79691340D01*
X202162413Y-79868986D01*
X202148993Y-79934293D01*
X202124536Y-80053307D01*
X202123500Y-80058346D01*
X202123500Y-80703208D01*
X202138154Y-80847318D01*
X202196026Y-81031770D01*
X202289839Y-81200789D01*
X202289841Y-81200791D01*
X202415760Y-81347468D01*
X202538640Y-81442584D01*
X202546041Y-81448313D01*
X202580270Y-81498162D01*
X202579121Y-81558620D01*
X202543022Y-81607133D01*
X202485442Y-81625600D01*
X201499715Y-81625600D01*
X201450795Y-81612669D01*
X201414655Y-81577254D01*
X201400735Y-81528606D01*
X201412672Y-81479435D01*
X201447348Y-81442584D01*
X201498807Y-81410509D01*
X201502498Y-81407000D01*
X201638919Y-81277323D01*
X201749353Y-81118658D01*
X201825587Y-80941012D01*
X201864500Y-80751656D01*
X201864500Y-80106794D01*
X201861148Y-80073835D01*
X201857172Y-80034736D01*
X201849845Y-79962679D01*
X201791974Y-79778232D01*
X201791973Y-79778231D01*
X201791973Y-79778229D01*
X201698160Y-79609210D01*
X201572241Y-79462533D01*
X201419372Y-79344203D01*
X201245816Y-79259070D01*
X201058672Y-79210614D01*
X200865607Y-79200823D01*
X200674526Y-79230096D01*
X200493247Y-79297235D01*
X200329192Y-79399490D01*
X200189081Y-79532677D01*
X200078647Y-79691340D01*
X200002413Y-79868986D01*
X199988993Y-79934293D01*
X199964536Y-80053307D01*
X199963500Y-80058346D01*
X199963500Y-80703208D01*
X199978154Y-80847318D01*
X200036026Y-81031770D01*
X200129839Y-81200789D01*
X200129841Y-81200791D01*
X200255760Y-81347468D01*
X200378640Y-81442584D01*
X200386041Y-81448313D01*
X200420270Y-81498162D01*
X200419121Y-81558620D01*
X200383022Y-81607133D01*
X200325442Y-81625600D01*
X199339715Y-81625600D01*
X199290795Y-81612669D01*
X199254655Y-81577254D01*
X199240735Y-81528606D01*
X199252672Y-81479435D01*
X199287348Y-81442584D01*
X199338807Y-81410509D01*
X199342498Y-81407000D01*
X199478919Y-81277323D01*
X199589353Y-81118658D01*
X199665587Y-80941012D01*
X199704500Y-80751656D01*
X199704500Y-80106794D01*
X199701148Y-80073835D01*
X199697172Y-80034736D01*
X199689845Y-79962679D01*
X199631974Y-79778232D01*
X199631973Y-79778231D01*
X199631973Y-79778229D01*
X199538160Y-79609210D01*
X199412241Y-79462533D01*
X199259372Y-79344203D01*
X199085816Y-79259070D01*
X198898672Y-79210614D01*
X198705607Y-79200823D01*
X198514526Y-79230096D01*
X198333247Y-79297235D01*
X198169192Y-79399490D01*
X198029081Y-79532677D01*
X197918647Y-79691340D01*
X197842413Y-79868986D01*
X197828993Y-79934293D01*
X197804536Y-80053307D01*
X197803500Y-80058346D01*
X197803500Y-80703208D01*
X197818154Y-80847318D01*
X197876026Y-81031770D01*
X197969839Y-81200789D01*
X197969841Y-81200791D01*
X198095760Y-81347468D01*
X198218640Y-81442584D01*
X198226041Y-81448313D01*
X198260270Y-81498162D01*
X198259121Y-81558620D01*
X198223022Y-81607133D01*
X198165442Y-81625600D01*
X197179715Y-81625600D01*
X197130795Y-81612669D01*
X197094655Y-81577254D01*
X197080735Y-81528606D01*
X197092672Y-81479435D01*
X197127348Y-81442584D01*
X197178807Y-81410509D01*
X197182498Y-81407000D01*
X197318919Y-81277323D01*
X197429353Y-81118658D01*
X197505587Y-80941012D01*
X197544500Y-80751656D01*
X197544500Y-80106794D01*
X197541148Y-80073835D01*
X197537172Y-80034736D01*
X197529845Y-79962679D01*
X197471974Y-79778232D01*
X197471973Y-79778231D01*
X197471973Y-79778229D01*
X197378160Y-79609210D01*
X197252241Y-79462533D01*
X197099372Y-79344203D01*
X196925816Y-79259070D01*
X196738672Y-79210614D01*
X196545607Y-79200823D01*
X196354526Y-79230096D01*
X196173247Y-79297235D01*
X196009192Y-79399490D01*
X195869081Y-79532677D01*
X195758647Y-79691340D01*
X195682413Y-79868986D01*
X195668993Y-79934293D01*
X195644536Y-80053307D01*
X195643500Y-80058346D01*
X195643500Y-80703208D01*
X195658154Y-80847318D01*
X195716026Y-81031770D01*
X195809839Y-81200789D01*
X195809841Y-81200791D01*
X195935760Y-81347468D01*
X196058640Y-81442584D01*
X196066041Y-81448313D01*
X196100270Y-81498162D01*
X196099121Y-81558620D01*
X196063022Y-81607133D01*
X196005442Y-81625600D01*
X195112220Y-81625600D01*
X195056698Y-81608566D01*
X195020283Y-81563324D01*
X195015507Y-81505445D01*
X195044012Y-81454846D01*
X195196670Y-81309731D01*
X195312855Y-81142806D01*
X195393061Y-80955904D01*
X195434000Y-80756693D01*
X195434000Y-80655001D01*
X195433999Y-80655000D01*
X193434001Y-80655000D01*
X193434000Y-80655001D01*
X193434000Y-80705713D01*
X193449418Y-80857335D01*
X193510303Y-81051392D01*
X193609002Y-81229212D01*
X193741480Y-81383530D01*
X193865104Y-81479222D01*
X193896803Y-81521701D01*
X193902047Y-81574443D01*
X193888755Y-81602467D01*
X193890535Y-81603280D01*
X193824834Y-81747142D01*
X193811213Y-81841882D01*
X193788040Y-81892624D01*
X193741112Y-81922783D01*
X193606047Y-81962441D01*
X193484976Y-82040248D01*
X193390724Y-82149022D01*
X193330936Y-82279938D01*
X193310454Y-82422394D01*
X192476500Y-82422394D01*
X192476500Y-80275449D01*
X192480186Y-80248685D01*
X192480187Y-80248683D01*
X192481642Y-80243502D01*
X192485608Y-80198807D01*
X192500569Y-80154999D01*
X193434000Y-80154999D01*
X193434001Y-80155000D01*
X194183999Y-80155000D01*
X194184000Y-80154999D01*
X194184000Y-79186754D01*
X194684000Y-79186754D01*
X194684000Y-80154999D01*
X194684001Y-80155000D01*
X195433999Y-80155000D01*
X195434000Y-80154999D01*
X195434000Y-80104287D01*
X195418581Y-79952663D01*
X195357696Y-79758607D01*
X195258997Y-79580787D01*
X195126519Y-79426468D01*
X194965693Y-79301980D01*
X194783096Y-79212412D01*
X194684000Y-79186754D01*
X194184000Y-79186754D01*
X194184000Y-79181634D01*
X194183998Y-79181632D01*
X194182058Y-79181929D01*
X193991332Y-79252566D01*
X193818736Y-79360145D01*
X193671329Y-79500268D01*
X193555144Y-79667193D01*
X193474938Y-79854095D01*
X193434000Y-80053307D01*
X193434000Y-80154999D01*
X192500569Y-80154999D01*
X192500854Y-80154164D01*
X192513034Y-80135151D01*
X192514237Y-80133320D01*
X192553245Y-80075469D01*
X192560223Y-80064372D01*
X192560972Y-80063092D01*
X192567155Y-80051716D01*
X192606065Y-79974432D01*
X192618215Y-79938917D01*
X192621831Y-79929841D01*
X192636165Y-79898456D01*
X192653450Y-79778232D01*
X192656647Y-79756000D01*
X192636165Y-79613543D01*
X192576377Y-79482627D01*
X192482128Y-79373857D01*
X192482127Y-79373856D01*
X192482125Y-79373854D01*
X192361054Y-79296047D01*
X192222961Y-79255500D01*
X192079039Y-79255500D01*
X191940945Y-79296047D01*
X191819874Y-79373854D01*
X191725622Y-79482628D01*
X191665834Y-79613544D01*
X191645352Y-79756000D01*
X191665833Y-79898454D01*
X191672569Y-79913203D01*
X191680167Y-79929841D01*
X191683778Y-79938909D01*
X191695931Y-79974428D01*
X191734846Y-80051723D01*
X191734860Y-80051750D01*
X191741013Y-80063070D01*
X191741758Y-80064344D01*
X191747725Y-80073835D01*
X191748747Y-80075460D01*
X191787713Y-80133254D01*
X191788969Y-80135165D01*
X191789010Y-80135229D01*
X191801140Y-80154164D01*
X191816389Y-80198809D01*
X191820357Y-80243504D01*
X191821812Y-80248683D01*
X191825500Y-80275454D01*
X191825500Y-84755500D01*
X191812237Y-84805000D01*
X191776000Y-84841237D01*
X191726500Y-84854500D01*
X186955835Y-84854500D01*
X186917949Y-84846964D01*
X186885831Y-84825504D01*
X186806266Y-84745939D01*
X186800432Y-84739572D01*
X186775453Y-84709804D01*
X186741794Y-84690370D01*
X186734514Y-84685732D01*
X186702685Y-84663446D01*
X186701225Y-84663055D01*
X186677352Y-84653166D01*
X186676045Y-84652412D01*
X186676043Y-84652411D01*
X186676042Y-84652411D01*
X186637778Y-84645663D01*
X186629350Y-84643795D01*
X186591807Y-84633735D01*
X186556330Y-84636839D01*
X186553093Y-84637123D01*
X186544466Y-84637500D01*
X184922887Y-84637500D01*
X184873387Y-84624237D01*
X184837150Y-84588000D01*
X184823887Y-84538500D01*
X184823887Y-81904938D01*
X184827209Y-81879508D01*
X184829135Y-81872262D01*
X184834844Y-81793652D01*
X184837489Y-81777024D01*
X184847946Y-81734829D01*
X184850452Y-81726359D01*
X184869698Y-81670631D01*
X184872529Y-81661793D01*
X184872826Y-81660788D01*
X184875217Y-81651979D01*
X184894841Y-81572792D01*
X184898319Y-81555671D01*
X184898632Y-81553705D01*
X184899124Y-81549455D01*
X184900647Y-81536300D01*
X184903241Y-81500593D01*
X184908051Y-81434398D01*
X184907986Y-81433393D01*
X184908791Y-81412950D01*
X184909142Y-81410509D01*
X184909647Y-81407000D01*
X184889165Y-81264543D01*
X184829377Y-81133627D01*
X184735128Y-81024857D01*
X184735127Y-81024856D01*
X184735125Y-81024854D01*
X184614054Y-80947047D01*
X184475961Y-80906500D01*
X184332039Y-80906500D01*
X184193945Y-80947047D01*
X184072874Y-81024854D01*
X183978622Y-81133628D01*
X183918834Y-81264544D01*
X183898352Y-81407000D01*
X183918834Y-81549455D01*
X183978623Y-81680373D01*
X184022371Y-81730862D01*
X184028546Y-81739028D01*
X184068534Y-81784877D01*
X184073054Y-81789410D01*
X184083200Y-81797032D01*
X184117148Y-81826639D01*
X184117170Y-81826658D01*
X184117189Y-81826674D01*
X184123258Y-81831765D01*
X184123945Y-81832319D01*
X184123962Y-81832332D01*
X184130208Y-81837173D01*
X184133012Y-81839261D01*
X184162359Y-81874239D01*
X184172887Y-81918666D01*
X184172887Y-84787166D01*
X184165351Y-84825052D01*
X184143890Y-84857170D01*
X183564344Y-85436714D01*
X183557975Y-85442550D01*
X183556341Y-85443921D01*
X183512724Y-85465036D01*
X183464312Y-85462922D01*
X183422703Y-85438085D01*
X183262323Y-85277705D01*
X183250017Y-85262710D01*
X183240705Y-85248773D01*
X183153380Y-85190423D01*
X183076374Y-85175106D01*
X183076372Y-85175105D01*
X183076371Y-85175105D01*
X183050372Y-85169934D01*
X183033931Y-85173204D01*
X183014619Y-85175106D01*
X182582600Y-85175106D01*
X182533100Y-85161843D01*
X182496863Y-85125606D01*
X182483600Y-85076106D01*
X182483600Y-80541360D01*
X182491136Y-80503474D01*
X182512596Y-80471356D01*
X184292153Y-78691800D01*
X184324271Y-78670340D01*
X184362157Y-78662804D01*
X185343690Y-78662804D01*
X185364002Y-78666095D01*
X185364032Y-78665892D01*
X185391067Y-78669781D01*
X185422203Y-78679709D01*
X185448409Y-78699233D01*
X185455894Y-78707034D01*
X185456705Y-78707880D01*
X185459900Y-78711137D01*
X185460247Y-78711483D01*
X185463141Y-78714312D01*
X185521256Y-78770021D01*
X185540244Y-78786133D01*
X185542509Y-78787830D01*
X185542514Y-78787833D01*
X185563306Y-78801527D01*
X185649364Y-78851003D01*
X185649233Y-78851229D01*
X185654382Y-78853880D01*
X185661970Y-78858757D01*
X185800062Y-78899304D01*
X185943984Y-78899304D01*
X186082076Y-78858757D01*
X186203151Y-78780947D01*
X186297400Y-78672177D01*
X186357188Y-78541261D01*
X186359267Y-78526800D01*
X226077238Y-78526800D01*
X226132258Y-78654351D01*
X226236957Y-78794985D01*
X226371259Y-78907680D01*
X226527938Y-78986367D01*
X226698541Y-79026800D01*
X227086199Y-79026800D01*
X227086200Y-79026799D01*
X227586200Y-79026799D01*
X227586201Y-79026800D01*
X227929881Y-79026800D01*
X228060338Y-79011551D01*
X228225090Y-78951586D01*
X228371573Y-78855244D01*
X228491886Y-78727719D01*
X228579549Y-78575881D01*
X228594244Y-78526800D01*
X230507238Y-78526800D01*
X230562258Y-78654351D01*
X230666957Y-78794985D01*
X230801259Y-78907680D01*
X230957938Y-78986367D01*
X231128541Y-79026800D01*
X231266199Y-79026800D01*
X231266200Y-79026799D01*
X231766200Y-79026799D01*
X231766201Y-79026800D01*
X231859881Y-79026800D01*
X231990338Y-79011551D01*
X232155090Y-78951586D01*
X232301573Y-78855244D01*
X232421886Y-78727719D01*
X232509549Y-78575881D01*
X232524244Y-78526800D01*
X231766201Y-78526800D01*
X231766200Y-78526801D01*
X231766200Y-79026799D01*
X231266200Y-79026799D01*
X231266200Y-78526801D01*
X231266199Y-78526800D01*
X230507238Y-78526800D01*
X228594244Y-78526800D01*
X227586201Y-78526800D01*
X227586200Y-78526801D01*
X227586200Y-79026799D01*
X227086200Y-79026799D01*
X227086200Y-78526801D01*
X227086199Y-78526800D01*
X226077238Y-78526800D01*
X186359267Y-78526800D01*
X186377670Y-78398804D01*
X186357188Y-78256347D01*
X186297400Y-78125431D01*
X186203151Y-78016661D01*
X186203150Y-78016660D01*
X186203148Y-78016658D01*
X186082077Y-77938851D01*
X185943984Y-77898304D01*
X185800062Y-77898304D01*
X185761472Y-77909635D01*
X185661966Y-77938852D01*
X185654366Y-77943736D01*
X185649224Y-77946389D01*
X185649352Y-77946611D01*
X185563305Y-77996078D01*
X185542499Y-78009782D01*
X185540256Y-78011463D01*
X185521264Y-78027577D01*
X185463111Y-78083322D01*
X185460257Y-78086112D01*
X185459937Y-78086430D01*
X185456742Y-78089687D01*
X185448404Y-78098378D01*
X185422200Y-78117899D01*
X185391068Y-78127826D01*
X185364032Y-78131716D01*
X185364002Y-78131511D01*
X185343687Y-78134804D01*
X184513000Y-78134804D01*
X184463500Y-78121541D01*
X184427263Y-78085304D01*
X184414000Y-78035804D01*
X184414000Y-77980338D01*
X184417292Y-77960022D01*
X184417089Y-77959993D01*
X184420978Y-77932952D01*
X184430908Y-77901812D01*
X184450437Y-77875602D01*
X184459059Y-77867331D01*
X184462326Y-77864127D01*
X184462333Y-77864120D01*
X184462679Y-77863773D01*
X184465508Y-77860879D01*
X184521216Y-77802765D01*
X184537328Y-77783777D01*
X184539025Y-77781512D01*
X184552720Y-77760718D01*
X184563675Y-77741660D01*
X184574685Y-77726171D01*
X184575377Y-77725373D01*
X184582482Y-77709813D01*
X184586705Y-77701604D01*
X184588573Y-77698355D01*
X184598702Y-77680738D01*
X184618518Y-77631177D01*
X184620383Y-77626822D01*
X184635165Y-77594457D01*
X184655647Y-77452000D01*
X184654990Y-77447433D01*
X184635165Y-77309544D01*
X184612310Y-77259500D01*
X184612310Y-77259499D01*
X188851852Y-77259499D01*
X188872334Y-77401955D01*
X188929349Y-77526800D01*
X188932123Y-77532873D01*
X189013530Y-77626822D01*
X189026374Y-77641645D01*
X189147445Y-77719452D01*
X189147447Y-77719453D01*
X189285539Y-77760000D01*
X189390812Y-77760000D01*
X189436176Y-77771005D01*
X189471454Y-77801573D01*
X189488804Y-77844909D01*
X189489314Y-77848458D01*
X189549100Y-77979370D01*
X189549101Y-77979371D01*
X189549102Y-77979373D01*
X189641863Y-78086426D01*
X189643353Y-78088145D01*
X189718711Y-78136574D01*
X189764426Y-78165953D01*
X189902518Y-78206500D01*
X190046440Y-78206500D01*
X190184532Y-78165953D01*
X190253639Y-78121541D01*
X190305606Y-78088144D01*
X190331062Y-78058765D01*
X190332636Y-78056948D01*
X190335853Y-78053412D01*
X190362109Y-78025935D01*
X190371218Y-78013119D01*
X190377082Y-78005654D01*
X190399856Y-77979373D01*
X190405185Y-77967701D01*
X190410977Y-77956861D01*
X190423474Y-77936613D01*
X190424895Y-77933936D01*
X190435838Y-77909635D01*
X190439486Y-77899888D01*
X190475790Y-77853244D01*
X190532202Y-77835600D01*
X198994595Y-77835600D01*
X199047224Y-77850748D01*
X199083747Y-77891555D01*
X199089076Y-77902592D01*
X199098991Y-77920736D01*
X199100227Y-77922749D01*
X199100231Y-77922755D01*
X199111266Y-77938851D01*
X199111839Y-77939686D01*
X199116739Y-77948351D01*
X199128806Y-77962277D01*
X199132714Y-77967083D01*
X199154824Y-77996084D01*
X199159891Y-78002729D01*
X199184078Y-78026537D01*
X199189431Y-78032242D01*
X199207763Y-78053399D01*
X199212413Y-78058765D01*
X199333485Y-78136573D01*
X199333487Y-78136574D01*
X199471579Y-78177121D01*
X199615501Y-78177121D01*
X199753593Y-78136574D01*
X199874668Y-78058764D01*
X199902365Y-78026800D01*
X226078155Y-78026800D01*
X227086199Y-78026800D01*
X227086200Y-78026799D01*
X227586200Y-78026799D01*
X227586201Y-78026800D01*
X228595162Y-78026800D01*
X230508155Y-78026800D01*
X231266199Y-78026800D01*
X231266200Y-78026799D01*
X231766200Y-78026799D01*
X231766201Y-78026800D01*
X232525162Y-78026800D01*
X232525161Y-78026799D01*
X232470141Y-77899248D01*
X232365442Y-77758614D01*
X232231140Y-77645919D01*
X232074461Y-77567232D01*
X231903859Y-77526800D01*
X231766201Y-77526800D01*
X231766200Y-77526801D01*
X231766200Y-78026799D01*
X231266200Y-78026799D01*
X231266200Y-77526801D01*
X231266199Y-77526800D01*
X231172519Y-77526800D01*
X231042061Y-77542048D01*
X230877309Y-77602013D01*
X230730826Y-77698355D01*
X230610513Y-77825880D01*
X230522850Y-77977718D01*
X230508155Y-78026800D01*
X228595162Y-78026800D01*
X228595161Y-78026799D01*
X228540141Y-77899248D01*
X228435442Y-77758614D01*
X228301140Y-77645919D01*
X228144461Y-77567232D01*
X227973859Y-77526800D01*
X227586201Y-77526800D01*
X227586200Y-77526801D01*
X227586200Y-78026799D01*
X227086200Y-78026799D01*
X227086200Y-77526801D01*
X227086199Y-77526800D01*
X226742519Y-77526800D01*
X226612061Y-77542048D01*
X226447309Y-77602013D01*
X226300826Y-77698355D01*
X226180513Y-77825880D01*
X226092850Y-77977718D01*
X226078155Y-78026800D01*
X199902365Y-78026800D01*
X199968917Y-77949994D01*
X200028705Y-77819078D01*
X200049187Y-77676621D01*
X200028705Y-77534164D01*
X199968917Y-77403248D01*
X199874668Y-77294478D01*
X199830184Y-77265890D01*
X199797972Y-77232106D01*
X199784821Y-77187314D01*
X199793657Y-77141478D01*
X199798965Y-77129857D01*
X199800808Y-77117044D01*
X199819447Y-76987400D01*
X199811495Y-76932089D01*
X199798965Y-76844943D01*
X199739177Y-76714027D01*
X199644928Y-76605257D01*
X199644927Y-76605256D01*
X199644925Y-76605254D01*
X199523854Y-76527447D01*
X199385761Y-76486900D01*
X199241839Y-76486900D01*
X199103745Y-76527447D01*
X198982674Y-76605254D01*
X198888421Y-76714029D01*
X198863613Y-76768349D01*
X198859716Y-76775987D01*
X198854711Y-76784827D01*
X198847943Y-76802261D01*
X198845709Y-76807554D01*
X198828634Y-76844943D01*
X198825450Y-76867090D01*
X198808101Y-76910426D01*
X198772822Y-76940995D01*
X198727458Y-76952000D01*
X189871708Y-76952000D01*
X189843232Y-76947816D01*
X189840774Y-76947078D01*
X189840773Y-76947077D01*
X189840767Y-76947076D01*
X189809751Y-76943682D01*
X189759778Y-76923445D01*
X189749529Y-76915481D01*
X189749375Y-76915348D01*
X189745768Y-76912558D01*
X189745591Y-76912421D01*
X189739048Y-76907337D01*
X189738866Y-76907220D01*
X189687017Y-76867120D01*
X189672659Y-76856966D01*
X189670984Y-76855886D01*
X189655805Y-76846993D01*
X189577357Y-76805432D01*
X189570183Y-76801236D01*
X189567557Y-76799548D01*
X189561618Y-76797804D01*
X189531361Y-76788919D01*
X189525877Y-76787120D01*
X189521227Y-76785944D01*
X189429461Y-76759000D01*
X189285539Y-76759000D01*
X189147445Y-76799547D01*
X189026374Y-76877354D01*
X188932122Y-76986128D01*
X188872334Y-77117044D01*
X188851852Y-77259499D01*
X184612310Y-77259499D01*
X184575377Y-77178627D01*
X184481128Y-77069857D01*
X184481127Y-77069856D01*
X184481125Y-77069854D01*
X184360054Y-76992047D01*
X184221961Y-76951500D01*
X184078039Y-76951500D01*
X183939945Y-76992047D01*
X183818874Y-77069854D01*
X183724622Y-77178628D01*
X183664834Y-77309544D01*
X183651240Y-77404097D01*
X183633891Y-77447433D01*
X183598613Y-77478003D01*
X183553248Y-77489008D01*
X183496955Y-77489008D01*
X183410335Y-77514441D01*
X183358859Y-77529556D01*
X183351259Y-77534440D01*
X183346117Y-77537093D01*
X183346245Y-77537315D01*
X183260198Y-77586782D01*
X183239392Y-77600486D01*
X183237149Y-77602167D01*
X183218157Y-77618281D01*
X183160004Y-77674026D01*
X183157150Y-77676816D01*
X183156830Y-77677134D01*
X183153635Y-77680391D01*
X183145297Y-77689082D01*
X183119093Y-77708603D01*
X183087961Y-77718530D01*
X183060925Y-77722420D01*
X183060895Y-77722215D01*
X183040580Y-77725508D01*
X182697135Y-77725508D01*
X182676821Y-77722215D01*
X182676792Y-77722420D01*
X182649751Y-77718530D01*
X182618613Y-77708600D01*
X182592405Y-77689073D01*
X182584089Y-77680404D01*
X182580948Y-77677200D01*
X182580581Y-77676835D01*
X182580362Y-77676621D01*
X182577679Y-77673998D01*
X182519564Y-77618289D01*
X182500599Y-77602194D01*
X182498340Y-77600501D01*
X182484945Y-77591678D01*
X182477519Y-77586786D01*
X182391459Y-77537309D01*
X182391587Y-77537085D01*
X182386443Y-77534432D01*
X182378853Y-77529554D01*
X182240761Y-77489008D01*
X182096839Y-77489008D01*
X181958745Y-77529555D01*
X181837674Y-77607362D01*
X181743422Y-77716136D01*
X181683634Y-77847052D01*
X181663152Y-77989507D01*
X181683634Y-78131963D01*
X181699156Y-78165952D01*
X181743423Y-78262881D01*
X181779933Y-78305016D01*
X181837674Y-78371653D01*
X181958745Y-78449460D01*
X181958747Y-78449461D01*
X182096839Y-78490008D01*
X182240761Y-78490008D01*
X182378853Y-78449461D01*
X182386433Y-78444588D01*
X182391578Y-78441940D01*
X182391447Y-78441712D01*
X182422601Y-78423800D01*
X182477518Y-78392228D01*
X182498312Y-78378533D01*
X182500577Y-78376836D01*
X182519565Y-78360724D01*
X182577679Y-78305016D01*
X182580573Y-78302187D01*
X182580920Y-78301841D01*
X182584113Y-78298585D01*
X182584114Y-78298584D01*
X182584131Y-78298567D01*
X182592402Y-78289945D01*
X182618612Y-78270416D01*
X182649752Y-78260486D01*
X182676793Y-78256597D01*
X182676822Y-78256800D01*
X182697138Y-78253508D01*
X183040583Y-78253508D01*
X183060895Y-78256799D01*
X183060925Y-78256596D01*
X183087960Y-78260485D01*
X183119096Y-78270413D01*
X183145302Y-78289937D01*
X183145310Y-78289945D01*
X183153598Y-78298584D01*
X183156793Y-78301841D01*
X183157140Y-78302187D01*
X183160034Y-78305016D01*
X183218149Y-78360725D01*
X183237137Y-78376837D01*
X183239402Y-78378534D01*
X183239407Y-78378537D01*
X183260199Y-78392231D01*
X183291384Y-78410160D01*
X183331714Y-78454039D01*
X183339547Y-78513119D01*
X183312045Y-78565991D01*
X181804201Y-80073835D01*
X181789202Y-80086144D01*
X181775268Y-80095454D01*
X181752380Y-80129709D01*
X181752371Y-80129719D01*
X181716917Y-80182779D01*
X181696428Y-80285790D01*
X181699698Y-80302231D01*
X181701600Y-80321543D01*
X181701600Y-85484606D01*
X181684915Y-85539607D01*
X181640486Y-85576070D01*
X181583286Y-85581704D01*
X181532596Y-85554610D01*
X181041200Y-85063214D01*
X181041200Y-86031800D01*
X181027937Y-86081300D01*
X180991700Y-86117537D01*
X180942200Y-86130800D01*
X180640200Y-86130800D01*
X180590700Y-86117537D01*
X180554463Y-86081300D01*
X180541200Y-86031800D01*
X180541200Y-84677892D01*
X180486085Y-84622777D01*
X180459877Y-84603735D01*
X180459877Y-84603736D01*
X180433514Y-84584582D01*
X180362460Y-84548379D01*
X180342166Y-84545164D01*
X180327063Y-84541537D01*
X180307530Y-84535190D01*
X180224538Y-84535190D01*
X180221895Y-84535397D01*
X180164517Y-84544486D01*
X180108763Y-84537146D01*
X180066002Y-84500624D01*
X180050030Y-84446705D01*
X180050030Y-76004319D01*
X180050407Y-75995691D01*
X180058067Y-75908134D01*
X180063707Y-75843661D01*
X180066700Y-75826685D01*
X180105081Y-75683444D01*
X180110977Y-75667248D01*
X180173645Y-75532857D01*
X180182265Y-75517926D01*
X180267315Y-75396462D01*
X180278396Y-75383255D01*
X180383255Y-75278396D01*
X180396462Y-75267315D01*
X180517926Y-75182265D01*
X180532857Y-75173645D01*
X180667248Y-75110977D01*
X180683444Y-75105081D01*
X180826685Y-75066700D01*
X180843661Y-75063707D01*
X180995690Y-75050407D01*
X181004319Y-75050030D01*
X181016256Y-75050030D01*
X232983744Y-75050030D01*
X232995681Y-75050030D01*
X233004309Y-75050407D01*
G37*
%TD.AperFunction*%
%TD*%
%TA.AperFunction,Conductor*%
%TO.N,Net-(U1-D-)*%
G36*
X199429593Y-77405752D02*
G01*
X199433401Y-77410625D01*
X199541508Y-77669364D01*
X199542188Y-77676153D01*
X199538966Y-77682168D01*
X199340870Y-77879334D01*
X199335119Y-77882470D01*
X199328583Y-77882024D01*
X199323313Y-77878136D01*
X199275367Y-77815248D01*
X199274135Y-77813241D01*
X199241381Y-77745398D01*
X199211787Y-77688336D01*
X199166073Y-77649463D01*
X199166070Y-77649462D01*
X199121057Y-77641543D01*
X199094102Y-77636801D01*
X199087169Y-77632801D01*
X199084430Y-77625279D01*
X199084430Y-77519203D01*
X199087643Y-77511149D01*
X199095517Y-77507519D01*
X199173546Y-77503432D01*
X199224771Y-77492134D01*
X199235573Y-77489753D01*
X199235573Y-77489752D01*
X199235577Y-77489752D01*
X199287480Y-77467542D01*
X199345998Y-77437392D01*
X199346446Y-77437174D01*
X199417734Y-77404499D01*
X199423833Y-77403501D01*
X199429593Y-77405752D01*
G37*
%TD.AperFunction*%
%TD*%
%TA.AperFunction,Conductor*%
%TO.N,/MOSI*%
G36*
X184154507Y-77452883D02*
G01*
X184414915Y-77561687D01*
X184419997Y-77565785D01*
X184422092Y-77571969D01*
X184420546Y-77578313D01*
X184374564Y-77658293D01*
X184372867Y-77660558D01*
X184317159Y-77718672D01*
X184316813Y-77719019D01*
X184265393Y-77768348D01*
X184227949Y-77831546D01*
X184214943Y-77921966D01*
X184211024Y-77929143D01*
X184203362Y-77932000D01*
X184096638Y-77932000D01*
X184088976Y-77929143D01*
X184085057Y-77921966D01*
X184081612Y-77898024D01*
X184072050Y-77831546D01*
X184034605Y-77768349D01*
X183983185Y-77719019D01*
X183982839Y-77718672D01*
X183927130Y-77660557D01*
X183925437Y-77658298D01*
X183879451Y-77578311D01*
X183877906Y-77571970D01*
X183880001Y-77565786D01*
X183885082Y-77561688D01*
X184145492Y-77452883D01*
X184150000Y-77451980D01*
X184154507Y-77452883D01*
G37*
%TD.AperFunction*%
%TD*%
%TA.AperFunction,Conductor*%
%TO.N,Net-(ISP1-~{RST})*%
G36*
X183455129Y-77719509D02*
G01*
X183459228Y-77724592D01*
X183568031Y-77984996D01*
X183568935Y-77989507D01*
X183568031Y-77994018D01*
X183459228Y-78254423D01*
X183455129Y-78259506D01*
X183448945Y-78261601D01*
X183442601Y-78260055D01*
X183441646Y-78259506D01*
X183362621Y-78214073D01*
X183360356Y-78212376D01*
X183302241Y-78156667D01*
X183301894Y-78156321D01*
X183252565Y-78104900D01*
X183212881Y-78081387D01*
X183189369Y-78067457D01*
X183158288Y-78062986D01*
X183098950Y-78054451D01*
X183091773Y-78050532D01*
X183088916Y-78042870D01*
X183088916Y-77936146D01*
X183091773Y-77928484D01*
X183098950Y-77924565D01*
X183121252Y-77921356D01*
X183189369Y-77911558D01*
X183252565Y-77874113D01*
X183301911Y-77822675D01*
X183302221Y-77822366D01*
X183360362Y-77766633D01*
X183362615Y-77764945D01*
X183442604Y-77718959D01*
X183448945Y-77717414D01*
X183455129Y-77719509D01*
G37*
%TD.AperFunction*%
%TD*%
%TA.AperFunction,Conductor*%
%TO.N,/MOSI*%
G36*
X182843800Y-85633519D02*
G01*
X182847240Y-85641765D01*
X182847580Y-85743645D01*
X182848173Y-85921749D01*
X182846208Y-85928278D01*
X182840937Y-85932603D01*
X182582829Y-86039130D01*
X182576180Y-86039809D01*
X182570244Y-86036737D01*
X182566958Y-86030917D01*
X182551460Y-85962975D01*
X182551167Y-85960454D01*
X182550944Y-85928278D01*
X182550646Y-85885287D01*
X182548790Y-85822053D01*
X182525950Y-85779000D01*
X182525949Y-85778999D01*
X182471328Y-85765318D01*
X182464947Y-85761167D01*
X182462471Y-85753969D01*
X182462471Y-85647718D01*
X182465869Y-85639474D01*
X182474088Y-85636018D01*
X182493335Y-85635881D01*
X182557891Y-85635424D01*
X182625599Y-85633814D01*
X182684070Y-85631891D01*
X182751720Y-85630282D01*
X182751838Y-85630280D01*
X182776518Y-85630106D01*
X182835541Y-85630106D01*
X182843800Y-85633519D01*
G37*
%TD.AperFunction*%
%TD*%
%TA.AperFunction,Conductor*%
%TO.N,/DIO4*%
G36*
X213078430Y-81375632D02*
G01*
X213081823Y-81381211D01*
X213105863Y-81470281D01*
X213106264Y-81473083D01*
X213107966Y-81553578D01*
X213107966Y-81554068D01*
X213106487Y-81625294D01*
X213124696Y-81696459D01*
X213179437Y-81769593D01*
X213181740Y-81777439D01*
X213178343Y-81784877D01*
X213102877Y-81860343D01*
X213095439Y-81863740D01*
X213087593Y-81861437D01*
X213014459Y-81806696D01*
X212943294Y-81788487D01*
X212872072Y-81789965D01*
X212871582Y-81789965D01*
X212791083Y-81788264D01*
X212788281Y-81787863D01*
X212699211Y-81763823D01*
X212693632Y-81760430D01*
X212690741Y-81754575D01*
X212691436Y-81748085D01*
X212798636Y-81487014D01*
X212801186Y-81483186D01*
X212805015Y-81480636D01*
X213066085Y-81373436D01*
X213072575Y-81372741D01*
X213078430Y-81375632D01*
G37*
%TD.AperFunction*%
%TD*%
%TA.AperFunction,Conductor*%
%TO.N,/DIO1*%
G36*
X215913213Y-86344001D02*
G01*
X215917312Y-86349084D01*
X216026115Y-86609489D01*
X216027019Y-86614000D01*
X216026115Y-86618511D01*
X215917312Y-86878915D01*
X215913213Y-86883998D01*
X215907029Y-86886093D01*
X215900685Y-86884547D01*
X215899730Y-86883998D01*
X215820705Y-86838565D01*
X215818440Y-86836868D01*
X215760325Y-86781159D01*
X215759978Y-86780813D01*
X215710649Y-86729392D01*
X215670965Y-86705879D01*
X215647453Y-86691949D01*
X215616372Y-86687478D01*
X215557034Y-86678943D01*
X215549857Y-86675024D01*
X215547000Y-86667362D01*
X215547000Y-86560638D01*
X215549857Y-86552976D01*
X215557034Y-86549057D01*
X215579336Y-86545848D01*
X215647453Y-86536050D01*
X215710649Y-86498605D01*
X215759995Y-86447167D01*
X215760305Y-86446858D01*
X215818446Y-86391125D01*
X215820699Y-86389437D01*
X215900688Y-86343451D01*
X215907029Y-86341906D01*
X215913213Y-86344001D01*
G37*
%TD.AperFunction*%
%TD*%
%TA.AperFunction,Conductor*%
%TO.N,/DIO6*%
G36*
X216625007Y-87054840D02*
G01*
X216628926Y-87062017D01*
X216641932Y-87152436D01*
X216655862Y-87175948D01*
X216679375Y-87215632D01*
X216730796Y-87264961D01*
X216731142Y-87265308D01*
X216786851Y-87323423D01*
X216788548Y-87325688D01*
X216834530Y-87405668D01*
X216836076Y-87412012D01*
X216833981Y-87418196D01*
X216828898Y-87422295D01*
X216568494Y-87531098D01*
X216563983Y-87532002D01*
X216559472Y-87531098D01*
X216299067Y-87422295D01*
X216293984Y-87418196D01*
X216291889Y-87412012D01*
X216293434Y-87405671D01*
X216339420Y-87325682D01*
X216341108Y-87323429D01*
X216396841Y-87265288D01*
X216397150Y-87264978D01*
X216448588Y-87215632D01*
X216486033Y-87152436D01*
X216499039Y-87062017D01*
X216502959Y-87054840D01*
X216510621Y-87051983D01*
X216617345Y-87051983D01*
X216625007Y-87054840D01*
G37*
%TD.AperFunction*%
%TD*%
%TA.AperFunction,Conductor*%
%TO.N,Net-(D2-A)*%
G36*
X206067577Y-81827915D02*
G01*
X206068052Y-81827935D01*
X206133640Y-81832252D01*
X206133865Y-81832270D01*
X206190659Y-81837440D01*
X206256593Y-81841780D01*
X206338167Y-81843376D01*
X206346278Y-81846868D01*
X206349638Y-81855035D01*
X206350573Y-82135743D01*
X206348608Y-82142272D01*
X206343337Y-82146597D01*
X206085497Y-82253014D01*
X206078770Y-82253678D01*
X206072798Y-82250510D01*
X206069575Y-82244568D01*
X206054410Y-82171219D01*
X206054179Y-82168344D01*
X206057732Y-82086972D01*
X206060745Y-82017923D01*
X206060744Y-82017922D01*
X206060745Y-82017921D01*
X206040617Y-81970637D01*
X206040615Y-81970635D01*
X205983497Y-81955415D01*
X205977233Y-81951239D01*
X205974810Y-81944110D01*
X205974810Y-81838031D01*
X205976416Y-81832115D01*
X205980793Y-81827823D01*
X205986737Y-81826333D01*
X206067577Y-81827915D01*
G37*
%TD.AperFunction*%
%TD*%
%TA.AperFunction,Conductor*%
%TO.N,/DIO3*%
G36*
X211760327Y-86538283D02*
G01*
X211952112Y-86729168D01*
X211958426Y-86735452D01*
X211961648Y-86741467D01*
X211960968Y-86748256D01*
X211852862Y-87006993D01*
X211849053Y-87011866D01*
X211843293Y-87014118D01*
X211837189Y-87013117D01*
X211765908Y-86980428D01*
X211765421Y-86980191D01*
X211706923Y-86950013D01*
X211655022Y-86927757D01*
X211592990Y-86914041D01*
X211514944Y-86909941D01*
X211507071Y-86906310D01*
X211503858Y-86898257D01*
X211503858Y-86792181D01*
X211506597Y-86784658D01*
X211513531Y-86780658D01*
X211585489Y-86768008D01*
X211631216Y-86729169D01*
X211660828Y-86672155D01*
X211693603Y-86604340D01*
X211694827Y-86602348D01*
X211742774Y-86539480D01*
X211748043Y-86535594D01*
X211754578Y-86535148D01*
X211760327Y-86538283D01*
G37*
%TD.AperFunction*%
%TD*%
%TA.AperFunction,Conductor*%
%TO.N,/MISO*%
G36*
X183292877Y-86317284D02*
G01*
X183368343Y-86392750D01*
X183371740Y-86400188D01*
X183369437Y-86408034D01*
X183314696Y-86481167D01*
X183296487Y-86552331D01*
X183297965Y-86623553D01*
X183297965Y-86624043D01*
X183296264Y-86704543D01*
X183295863Y-86707345D01*
X183271823Y-86796416D01*
X183268430Y-86801995D01*
X183262575Y-86804886D01*
X183256083Y-86804190D01*
X182995015Y-86696991D01*
X182991186Y-86694441D01*
X182988636Y-86690612D01*
X182948396Y-86592615D01*
X182881436Y-86429542D01*
X182880741Y-86423052D01*
X182883632Y-86417197D01*
X182889208Y-86413805D01*
X182978287Y-86389762D01*
X182981076Y-86389362D01*
X183061589Y-86387660D01*
X183062066Y-86387660D01*
X183115911Y-86388778D01*
X183133294Y-86389139D01*
X183133294Y-86389138D01*
X183133296Y-86389139D01*
X183204460Y-86370929D01*
X183277594Y-86316189D01*
X183285439Y-86313887D01*
X183292877Y-86317284D01*
G37*
%TD.AperFunction*%
%TD*%
%TA.AperFunction,Conductor*%
%TO.N,/DIO6*%
G36*
X216043146Y-84701932D02*
G01*
X216716969Y-85224306D01*
X216720736Y-85229391D01*
X216721304Y-85235693D01*
X216718507Y-85241370D01*
X216634162Y-85335310D01*
X216541413Y-85466136D01*
X216448666Y-85624487D01*
X216355915Y-85810373D01*
X216264059Y-86021730D01*
X216261602Y-86025340D01*
X216183026Y-86103916D01*
X216177197Y-86107085D01*
X216170583Y-86106575D01*
X216165309Y-86102549D01*
X216039433Y-85930421D01*
X215905492Y-85775015D01*
X215771548Y-85647365D01*
X215725899Y-85613319D01*
X215637609Y-85547471D01*
X215515076Y-85481473D01*
X215510467Y-85476978D01*
X215508934Y-85470725D01*
X215510941Y-85464607D01*
X216026296Y-84704611D01*
X216031099Y-84700545D01*
X216037317Y-84699556D01*
X216043146Y-84701932D01*
G37*
%TD.AperFunction*%
%TD*%
%TA.AperFunction,Conductor*%
%TO.N,/MISO*%
G36*
X185758236Y-78128805D02*
G01*
X185762335Y-78133888D01*
X185871138Y-78394292D01*
X185872042Y-78398803D01*
X185871138Y-78403314D01*
X185762335Y-78663719D01*
X185758236Y-78668802D01*
X185752052Y-78670897D01*
X185745708Y-78669351D01*
X185744753Y-78668802D01*
X185665728Y-78623369D01*
X185663463Y-78621672D01*
X185605348Y-78565963D01*
X185605001Y-78565617D01*
X185555672Y-78514196D01*
X185515988Y-78490683D01*
X185492476Y-78476753D01*
X185461395Y-78472282D01*
X185402057Y-78463747D01*
X185394880Y-78459828D01*
X185392023Y-78452166D01*
X185392023Y-78345442D01*
X185394880Y-78337780D01*
X185402057Y-78333861D01*
X185424359Y-78330652D01*
X185492476Y-78320854D01*
X185555672Y-78283409D01*
X185605018Y-78231971D01*
X185605328Y-78231662D01*
X185663469Y-78175929D01*
X185665722Y-78174241D01*
X185745711Y-78128255D01*
X185752052Y-78126710D01*
X185758236Y-78128805D01*
G37*
%TD.AperFunction*%
%TD*%
%TA.AperFunction,Conductor*%
%TO.N,Net-(D2-A)*%
G36*
X194436311Y-81619051D02*
G01*
X194516298Y-81665037D01*
X194518557Y-81666730D01*
X194576672Y-81722439D01*
X194577019Y-81722785D01*
X194626349Y-81774205D01*
X194689546Y-81811650D01*
X194756024Y-81821212D01*
X194779966Y-81824657D01*
X194787143Y-81828576D01*
X194790000Y-81836238D01*
X194790000Y-81942962D01*
X194787143Y-81950624D01*
X194779966Y-81954543D01*
X194689546Y-81967549D01*
X194626348Y-82004993D01*
X194577019Y-82056413D01*
X194576672Y-82056759D01*
X194518558Y-82112467D01*
X194516293Y-82114164D01*
X194436313Y-82160146D01*
X194429969Y-82161692D01*
X194423785Y-82159597D01*
X194419687Y-82154515D01*
X194310883Y-81894107D01*
X194309980Y-81889600D01*
X194310883Y-81885092D01*
X194419688Y-81624682D01*
X194423786Y-81619601D01*
X194429970Y-81617506D01*
X194436311Y-81619051D01*
G37*
%TD.AperFunction*%
%TD*%
%TA.AperFunction,Conductor*%
%TO.N,Net-(ISP1-~{RST})*%
G36*
X182295111Y-77718959D02*
G01*
X182375098Y-77764945D01*
X182377357Y-77766638D01*
X182435472Y-77822347D01*
X182435819Y-77822693D01*
X182485149Y-77874113D01*
X182548346Y-77911558D01*
X182614824Y-77921120D01*
X182638766Y-77924565D01*
X182645943Y-77928484D01*
X182648800Y-77936146D01*
X182648800Y-78042870D01*
X182645943Y-78050532D01*
X182638766Y-78054451D01*
X182548346Y-78067457D01*
X182485148Y-78104901D01*
X182435819Y-78156321D01*
X182435472Y-78156667D01*
X182377358Y-78212375D01*
X182375093Y-78214072D01*
X182295113Y-78260054D01*
X182288769Y-78261600D01*
X182282585Y-78259505D01*
X182278487Y-78254423D01*
X182169683Y-77994016D01*
X182168780Y-77989507D01*
X182169682Y-77985001D01*
X182278488Y-77724590D01*
X182282586Y-77719509D01*
X182288770Y-77717414D01*
X182295111Y-77718959D01*
G37*
%TD.AperFunction*%
%TD*%
%TA.AperFunction,Conductor*%
%TO.N,+5V*%
G36*
X192926112Y-85175063D02*
G01*
X192930035Y-85180021D01*
X193039115Y-85441089D01*
X193040019Y-85445600D01*
X193039115Y-85450111D01*
X192930035Y-85711178D01*
X192926112Y-85716136D01*
X192920182Y-85718329D01*
X192913979Y-85717117D01*
X192836690Y-85678204D01*
X192835413Y-85677457D01*
X192774660Y-85636495D01*
X192721371Y-85602360D01*
X192691830Y-85591811D01*
X192656395Y-85579157D01*
X192656393Y-85579156D01*
X192656391Y-85579156D01*
X192589161Y-85573188D01*
X192570665Y-85571546D01*
X192563069Y-85567792D01*
X192560000Y-85559893D01*
X192560000Y-85331307D01*
X192563069Y-85323408D01*
X192570664Y-85319653D01*
X192656395Y-85312042D01*
X192721370Y-85288839D01*
X192774665Y-85254699D01*
X192835427Y-85213732D01*
X192836678Y-85213000D01*
X192913982Y-85174081D01*
X192920183Y-85172870D01*
X192926112Y-85175063D01*
G37*
%TD.AperFunction*%
%TD*%
%TA.AperFunction,Conductor*%
%TO.N,/DIO2*%
G36*
X184670872Y-86680750D02*
G01*
X184674265Y-86686329D01*
X184698305Y-86775399D01*
X184698706Y-86778201D01*
X184700408Y-86858696D01*
X184700408Y-86859186D01*
X184698929Y-86930412D01*
X184717138Y-87001577D01*
X184771879Y-87074711D01*
X184774182Y-87082557D01*
X184770785Y-87089995D01*
X184695319Y-87165461D01*
X184687881Y-87168858D01*
X184680035Y-87166555D01*
X184606901Y-87111814D01*
X184535736Y-87093605D01*
X184497245Y-87094404D01*
X184493706Y-87093933D01*
X184470621Y-87087155D01*
X184360689Y-87087155D01*
X184357640Y-87086751D01*
X184291653Y-87068941D01*
X184286074Y-87065548D01*
X184283183Y-87059693D01*
X184283878Y-87053203D01*
X184391078Y-86792132D01*
X184393628Y-86788304D01*
X184397457Y-86785754D01*
X184658527Y-86678554D01*
X184665017Y-86677859D01*
X184670872Y-86680750D01*
G37*
%TD.AperFunction*%
%TD*%
%TA.AperFunction,Conductor*%
%TO.N,+5V*%
G36*
X192155507Y-79756883D02*
G01*
X192345791Y-79836387D01*
X192416577Y-79865964D01*
X192421535Y-79869887D01*
X192423728Y-79875817D01*
X192422516Y-79882021D01*
X192383606Y-79959305D01*
X192382857Y-79960585D01*
X192341895Y-80021337D01*
X192307760Y-80074627D01*
X192284556Y-80139606D01*
X192276947Y-80225334D01*
X192273192Y-80232931D01*
X192265293Y-80236000D01*
X192036707Y-80236000D01*
X192028808Y-80232931D01*
X192025053Y-80225335D01*
X192017442Y-80139605D01*
X192017442Y-80139603D01*
X191994239Y-80074629D01*
X191960099Y-80021333D01*
X191919136Y-79960578D01*
X191918396Y-79959313D01*
X191879481Y-79882018D01*
X191878270Y-79875817D01*
X191880463Y-79869887D01*
X191885419Y-79865965D01*
X192146492Y-79756883D01*
X192151000Y-79755980D01*
X192155507Y-79756883D01*
G37*
%TD.AperFunction*%
%TD*%
%TA.AperFunction,Conductor*%
%TO.N,Net-(U1-D-)*%
G36*
X190100113Y-77433431D02*
G01*
X190167346Y-77461963D01*
X190224001Y-77484731D01*
X190274551Y-77498862D01*
X190334300Y-77506077D01*
X190395423Y-77507544D01*
X190407131Y-77507826D01*
X190415222Y-77511350D01*
X190418550Y-77519523D01*
X190418550Y-77625579D01*
X190415925Y-77632964D01*
X190409228Y-77637035D01*
X190336590Y-77652114D01*
X190295124Y-77697468D01*
X190271488Y-77762508D01*
X190271449Y-77762614D01*
X190243382Y-77837586D01*
X190241961Y-77840263D01*
X190194612Y-77906875D01*
X190189353Y-77910986D01*
X190182701Y-77911552D01*
X190176822Y-77908389D01*
X189979052Y-77711547D01*
X189975830Y-77705532D01*
X189976509Y-77698746D01*
X190084749Y-77439689D01*
X190088467Y-77434885D01*
X190094096Y-77432592D01*
X190100113Y-77433431D01*
G37*
%TD.AperFunction*%
%TD*%
%TA.AperFunction,Conductor*%
%TO.N,Net-(D1-A)*%
G36*
X193942413Y-82151845D02*
G01*
X193998808Y-82184267D01*
X194001813Y-82186744D01*
X194027168Y-82216005D01*
X194070771Y-82244026D01*
X194072532Y-82245415D01*
X194077655Y-82250326D01*
X194082786Y-82255245D01*
X194083132Y-82255591D01*
X194132450Y-82306998D01*
X194132451Y-82306999D01*
X194195648Y-82344444D01*
X194262126Y-82354006D01*
X194286068Y-82357451D01*
X194293245Y-82361370D01*
X194296102Y-82369032D01*
X194296102Y-82475756D01*
X194293245Y-82483418D01*
X194286068Y-82487337D01*
X194195648Y-82500343D01*
X194132450Y-82537787D01*
X194083121Y-82589207D01*
X194082774Y-82589553D01*
X194024660Y-82645261D01*
X194022395Y-82646958D01*
X193942415Y-82692940D01*
X193936071Y-82694486D01*
X193929887Y-82692391D01*
X193925789Y-82687309D01*
X193816985Y-82426901D01*
X193816082Y-82422394D01*
X193816985Y-82417886D01*
X193925790Y-82157476D01*
X193929888Y-82152395D01*
X193936072Y-82150300D01*
X193942413Y-82151845D01*
G37*
%TD.AperFunction*%
%TD*%
%TA.AperFunction,Conductor*%
%TO.N,Net-(U1-D+)*%
G36*
X189483633Y-76988337D02*
G01*
X189520254Y-77007738D01*
X189559612Y-77028590D01*
X189561293Y-77029674D01*
X189589097Y-77051177D01*
X189619736Y-77074874D01*
X189619752Y-77074893D01*
X189619756Y-77074889D01*
X189670568Y-77114372D01*
X189733433Y-77142059D01*
X189817597Y-77151268D01*
X189818420Y-77151359D01*
X189825859Y-77155180D01*
X189828847Y-77162990D01*
X189828847Y-77269077D01*
X189825883Y-77276860D01*
X189818493Y-77280699D01*
X189750889Y-77288529D01*
X189700762Y-77314276D01*
X189663693Y-77354719D01*
X189625197Y-77407446D01*
X189624590Y-77408209D01*
X189577842Y-77462157D01*
X189572571Y-77465637D01*
X189566259Y-77465869D01*
X189560746Y-77462788D01*
X189362073Y-77265047D01*
X189358851Y-77259032D01*
X189359530Y-77252246D01*
X189467362Y-76994165D01*
X189471351Y-76989161D01*
X189477376Y-76987003D01*
X189483633Y-76988337D01*
G37*
%TD.AperFunction*%
%TD*%
%TA.AperFunction,Conductor*%
%TO.N,/DIO1*%
G36*
X184624209Y-87308646D02*
G01*
X184629482Y-87312198D01*
X184676359Y-87367546D01*
X184677107Y-87368531D01*
X184714667Y-87423786D01*
X184750552Y-87467051D01*
X184750555Y-87467054D01*
X184799968Y-87495051D01*
X184868217Y-87503703D01*
X184875524Y-87507575D01*
X184878446Y-87515310D01*
X184878446Y-87621418D01*
X184875423Y-87629267D01*
X184867917Y-87633058D01*
X184844071Y-87635455D01*
X184784163Y-87641477D01*
X184721407Y-87666827D01*
X184670384Y-87703390D01*
X184611857Y-87746101D01*
X184610345Y-87747037D01*
X184535243Y-87785970D01*
X184529007Y-87787252D01*
X184523023Y-87785079D01*
X184519062Y-87780094D01*
X184471737Y-87666828D01*
X184411186Y-87521908D01*
X184410507Y-87515122D01*
X184413727Y-87509109D01*
X184612304Y-87311464D01*
X184617856Y-87308375D01*
X184624209Y-87308646D01*
G37*
%TD.AperFunction*%
%TD*%
%TA.AperFunction,Conductor*%
%TO.N,/DIO2*%
G36*
X213613671Y-86996982D02*
G01*
X213617979Y-87002256D01*
X213724392Y-87261417D01*
X213724380Y-87270333D01*
X213718090Y-87276652D01*
X213619501Y-87317953D01*
X213619176Y-87318084D01*
X213540288Y-87348391D01*
X213538999Y-87348802D01*
X213469318Y-87366675D01*
X213467632Y-87366978D01*
X213384983Y-87375654D01*
X213383989Y-87375716D01*
X213292206Y-87377498D01*
X213291979Y-87377500D01*
X213278041Y-87377500D01*
X213269768Y-87374073D01*
X213266341Y-87365800D01*
X213266341Y-87260073D01*
X213268795Y-87252903D01*
X213275127Y-87248741D01*
X213321293Y-87236875D01*
X213339362Y-87198385D01*
X213334721Y-87141357D01*
X213321634Y-87072109D01*
X213321492Y-87071118D01*
X213315264Y-87007844D01*
X213316415Y-87001525D01*
X213320730Y-86996764D01*
X213326908Y-86995000D01*
X213607156Y-86995000D01*
X213613671Y-86996982D01*
G37*
%TD.AperFunction*%
%TD*%
%TA.AperFunction,Conductor*%
%TO.N,+5V*%
G36*
X184691461Y-81406958D02*
G01*
X184697537Y-81408683D01*
X184701831Y-81413316D01*
X184703091Y-81419506D01*
X184695688Y-81521395D01*
X184695375Y-81523361D01*
X184675751Y-81602548D01*
X184675454Y-81603553D01*
X184651760Y-81672166D01*
X184631769Y-81752832D01*
X184624175Y-81857373D01*
X184620474Y-81865093D01*
X184612506Y-81868225D01*
X184383841Y-81868225D01*
X184376045Y-81865249D01*
X184372215Y-81857836D01*
X184364970Y-81793602D01*
X184340875Y-81745353D01*
X184302837Y-81709504D01*
X184302836Y-81709503D01*
X184252944Y-81672351D01*
X184252257Y-81671797D01*
X184201287Y-81627346D01*
X184197828Y-81622076D01*
X184197605Y-81615775D01*
X184200684Y-81610274D01*
X184400556Y-81409459D01*
X184404374Y-81406904D01*
X184408883Y-81406016D01*
X184691461Y-81406958D01*
G37*
%TD.AperFunction*%
%TD*%
%TA.AperFunction,Conductor*%
%TO.N,Net-(U1-D+)*%
G36*
X199049411Y-76877867D02*
G01*
X199307537Y-76984402D01*
X199312808Y-76988727D01*
X199314773Y-76995256D01*
X199313839Y-77275637D01*
X199312242Y-77281499D01*
X199307920Y-77285770D01*
X199302038Y-77287298D01*
X199218322Y-77286578D01*
X199218085Y-77286573D01*
X199150526Y-77284622D01*
X199150397Y-77284618D01*
X199091825Y-77282278D01*
X199024083Y-77280321D01*
X198991212Y-77280038D01*
X198940088Y-77279599D01*
X198931880Y-77276138D01*
X198928489Y-77267900D01*
X198928489Y-77161640D01*
X198930969Y-77154437D01*
X198937357Y-77150288D01*
X198950071Y-77147115D01*
X198991837Y-77136696D01*
X199014836Y-77093894D01*
X199016974Y-77031002D01*
X199017731Y-76956199D01*
X199018026Y-76953702D01*
X199033545Y-76886066D01*
X199036835Y-76880254D01*
X199042768Y-76877188D01*
X199049411Y-76877867D01*
G37*
%TD.AperFunction*%
%TD*%
%TA.AperFunction,Conductor*%
%TO.N,/DIO4*%
G36*
X218453213Y-82153001D02*
G01*
X218457312Y-82158084D01*
X218566115Y-82418488D01*
X218567019Y-82422999D01*
X218566115Y-82427510D01*
X218457312Y-82687915D01*
X218453213Y-82692998D01*
X218447029Y-82695093D01*
X218440685Y-82693547D01*
X218439730Y-82692998D01*
X218360705Y-82647565D01*
X218358440Y-82645868D01*
X218300325Y-82590159D01*
X218299978Y-82589813D01*
X218250649Y-82538392D01*
X218210965Y-82514879D01*
X218187453Y-82500949D01*
X218156372Y-82496478D01*
X218097034Y-82487943D01*
X218089857Y-82484024D01*
X218087000Y-82476362D01*
X218087000Y-82369638D01*
X218089857Y-82361976D01*
X218097034Y-82358057D01*
X218119336Y-82354848D01*
X218187453Y-82345050D01*
X218250649Y-82307605D01*
X218299995Y-82256167D01*
X218300305Y-82255858D01*
X218358446Y-82200125D01*
X218360699Y-82198437D01*
X218440688Y-82152451D01*
X218447029Y-82150906D01*
X218453213Y-82153001D01*
G37*
%TD.AperFunction*%
%TD*%
%TA.AperFunction,Conductor*%
%TO.N,/DIO3*%
G36*
X184826230Y-85971053D02*
G01*
X184829623Y-85976632D01*
X184853663Y-86065702D01*
X184854064Y-86068504D01*
X184855766Y-86148999D01*
X184855766Y-86149489D01*
X184854287Y-86220715D01*
X184872496Y-86291880D01*
X184927237Y-86365014D01*
X184929540Y-86372860D01*
X184926143Y-86380298D01*
X184850677Y-86455764D01*
X184843239Y-86459161D01*
X184835393Y-86456858D01*
X184762259Y-86402117D01*
X184691094Y-86383908D01*
X184619872Y-86385386D01*
X184619382Y-86385386D01*
X184538883Y-86383685D01*
X184536081Y-86383284D01*
X184480969Y-86368408D01*
X184480722Y-86368338D01*
X184455108Y-86360818D01*
X184455107Y-86360818D01*
X184454395Y-86360818D01*
X184451346Y-86360414D01*
X184447011Y-86359244D01*
X184441432Y-86355851D01*
X184438541Y-86349996D01*
X184439236Y-86343506D01*
X184546436Y-86082435D01*
X184548986Y-86078607D01*
X184552815Y-86076057D01*
X184813885Y-85968857D01*
X184820375Y-85968162D01*
X184826230Y-85971053D01*
G37*
%TD.AperFunction*%
%TD*%
%TA.AperFunction,Conductor*%
%TO.N,+5V*%
G36*
X187961540Y-87915552D02*
G01*
X187965320Y-87920404D01*
X188074616Y-88181988D01*
X188075520Y-88186499D01*
X188074616Y-88191010D01*
X187965781Y-88451493D01*
X187961702Y-88456561D01*
X187955547Y-88458668D01*
X187949219Y-88457162D01*
X187872066Y-88413460D01*
X187869907Y-88411886D01*
X187813007Y-88359418D01*
X187812724Y-88359147D01*
X187764170Y-88311135D01*
X187702405Y-88276368D01*
X187615255Y-88264389D01*
X187608030Y-88260487D01*
X187605148Y-88252798D01*
X187605148Y-88024203D01*
X187608397Y-88016111D01*
X187616340Y-88012514D01*
X187696808Y-88009021D01*
X187761025Y-87996918D01*
X187814966Y-87976438D01*
X187875731Y-87947360D01*
X187875886Y-87947289D01*
X187949747Y-87914235D01*
X187955822Y-87913287D01*
X187961540Y-87915552D01*
G37*
%TD.AperFunction*%
%TD*%
%TA.AperFunction,Conductor*%
%TO.N,Net-(D1-A)*%
G36*
X195430564Y-82176303D02*
G01*
X195616672Y-82361538D01*
X195629245Y-82374052D01*
X195632467Y-82380067D01*
X195631787Y-82386856D01*
X195523959Y-82644926D01*
X195519968Y-82649932D01*
X195513940Y-82652089D01*
X195507679Y-82650750D01*
X195431641Y-82610407D01*
X195429950Y-82609314D01*
X195371488Y-82563925D01*
X195371460Y-82563903D01*
X195320694Y-82524245D01*
X195257821Y-82496398D01*
X195172752Y-82487040D01*
X195165317Y-82483218D01*
X195162331Y-82475410D01*
X195162331Y-82369324D01*
X195165298Y-82361538D01*
X195172691Y-82357701D01*
X195240253Y-82349926D01*
X195290428Y-82324334D01*
X195327577Y-82284083D01*
X195327576Y-82284083D01*
X195327579Y-82284081D01*
X195345858Y-82259165D01*
X195366143Y-82231518D01*
X195366726Y-82230788D01*
X195413477Y-82176926D01*
X195418746Y-82173453D01*
X195425055Y-82173223D01*
X195430564Y-82176303D01*
G37*
%TD.AperFunction*%
%TD*%
M02*
