%TF.GenerationSoftware,KiCad,Pcbnew,8.0.4*%
%TF.CreationDate,2024-08-03T15:01:38-07:00*%
%TF.ProjectId,xyp-gpib,7879702d-6770-4696-922e-6b696361645f,2*%
%TF.SameCoordinates,Original*%
%TF.FileFunction,Copper,L1,Top*%
%TF.FilePolarity,Positive*%
%FSLAX46Y46*%
G04 Gerber Fmt 4.6, Leading zero omitted, Abs format (unit mm)*
G04 Created by KiCad (PCBNEW 8.0.4) date 2024-08-03 15:01:38*
%MOMM*%
%LPD*%
G01*
G04 APERTURE LIST*
G04 Aperture macros list*
%AMRoundRect*
0 Rectangle with rounded corners*
0 $1 Rounding radius*
0 $2 $3 $4 $5 $6 $7 $8 $9 X,Y pos of 4 corners*
0 Add a 4 corners polygon primitive as box body*
4,1,4,$2,$3,$4,$5,$6,$7,$8,$9,$2,$3,0*
0 Add four circle primitives for the rounded corners*
1,1,$1+$1,$2,$3*
1,1,$1+$1,$4,$5*
1,1,$1+$1,$6,$7*
1,1,$1+$1,$8,$9*
0 Add four rect primitives between the rounded corners*
20,1,$1+$1,$2,$3,$4,$5,0*
20,1,$1+$1,$4,$5,$6,$7,0*
20,1,$1+$1,$6,$7,$8,$9,0*
20,1,$1+$1,$8,$9,$2,$3,0*%
%AMFreePoly0*
4,1,19,0.376977,1.035496,0.413304,0.985496,0.418199,0.954594,0.418198,0.500000,0.500000,0.500000,0.500000,-0.500000,0.418198,-0.499999,0.418198,-1.081873,0.399100,-1.140652,0.349100,-1.176979,0.287296,-1.176979,0.247487,-1.152584,-1.788980,0.883883,-1.817038,0.938952,-1.807370,0.999993,-1.763668,1.043695,-1.718269,1.054594,0.318198,1.054595,0.376977,1.035496,0.376977,1.035496,
$1*%
%AMFreePoly1*
4,1,23,0.376977,1.162775,0.413304,1.112775,0.418198,1.081873,0.418198,0.499999,0.500000,0.500000,0.500000,-0.500000,0.418198,-0.500000,0.418199,-0.954594,0.399100,-1.013373,0.349100,-1.049700,0.318198,-1.054595,-2.100106,-1.054594,-2.158886,-1.035496,-2.195213,-0.985496,-2.199965,-0.959926,-2.252291,0.020124,-2.252311,0.030403,-2.199985,1.086820,-2.178002,1.144582,-2.126266,1.178391,
-2.100106,1.181873,0.318198,1.181872,0.376977,1.162775,0.376977,1.162775,$1*%
%AMFreePoly2*
4,1,19,0.363597,1.170974,0.407299,1.127272,0.418198,1.081873,0.418198,0.499999,0.500000,0.500000,0.500000,-0.500000,0.418198,-0.500000,0.418199,-0.954594,0.399100,-1.013373,0.349100,-1.049700,0.318198,-1.054595,-1.718269,-1.054594,-1.777048,-1.035496,-1.813375,-0.985496,-1.813375,-0.923692,-1.788980,-0.883883,0.247487,1.152584,0.302555,1.180642,0.363597,1.170974,0.363597,1.170974,
$1*%
G04 Aperture macros list end*
%TA.AperFunction,ComponentPad*%
%ADD10R,1.500000X2.000000*%
%TD*%
%TA.AperFunction,ComponentPad*%
%ADD11O,1.500000X2.000000*%
%TD*%
%TA.AperFunction,SMDPad,CuDef*%
%ADD12RoundRect,0.250000X0.475000X-0.250000X0.475000X0.250000X-0.475000X0.250000X-0.475000X-0.250000X0*%
%TD*%
%TA.AperFunction,SMDPad,CuDef*%
%ADD13RoundRect,0.225000X0.250000X-0.225000X0.250000X0.225000X-0.250000X0.225000X-0.250000X-0.225000X0*%
%TD*%
%TA.AperFunction,SMDPad,CuDef*%
%ADD14RoundRect,0.225000X0.225000X0.250000X-0.225000X0.250000X-0.225000X-0.250000X0.225000X-0.250000X0*%
%TD*%
%TA.AperFunction,SMDPad,CuDef*%
%ADD15RoundRect,0.243750X0.243750X0.456250X-0.243750X0.456250X-0.243750X-0.456250X0.243750X-0.456250X0*%
%TD*%
%TA.AperFunction,SMDPad,CuDef*%
%ADD16RoundRect,0.200000X-0.275000X0.200000X-0.275000X-0.200000X0.275000X-0.200000X0.275000X0.200000X0*%
%TD*%
%TA.AperFunction,SMDPad,CuDef*%
%ADD17RoundRect,0.200000X-0.200000X-0.275000X0.200000X-0.275000X0.200000X0.275000X-0.200000X0.275000X0*%
%TD*%
%TA.AperFunction,SMDPad,CuDef*%
%ADD18RoundRect,0.200000X0.275000X-0.200000X0.275000X0.200000X-0.275000X0.200000X-0.275000X-0.200000X0*%
%TD*%
%TA.AperFunction,SMDPad,CuDef*%
%ADD19RoundRect,0.062500X-0.062500X0.475000X-0.062500X-0.475000X0.062500X-0.475000X0.062500X0.475000X0*%
%TD*%
%TA.AperFunction,SMDPad,CuDef*%
%ADD20RoundRect,0.062500X-0.475000X0.062500X-0.475000X-0.062500X0.475000X-0.062500X0.475000X0.062500X0*%
%TD*%
%TA.AperFunction,SMDPad,CuDef*%
%ADD21R,5.200000X5.200000*%
%TD*%
%TA.AperFunction,SMDPad,CuDef*%
%ADD22FreePoly0,45.000000*%
%TD*%
%TA.AperFunction,SMDPad,CuDef*%
%ADD23FreePoly1,45.000000*%
%TD*%
%TA.AperFunction,SMDPad,CuDef*%
%ADD24FreePoly2,45.000000*%
%TD*%
%TA.AperFunction,SMDPad,CuDef*%
%ADD25RoundRect,0.225000X-0.225000X-0.250000X0.225000X-0.250000X0.225000X0.250000X-0.225000X0.250000X0*%
%TD*%
%TA.AperFunction,SMDPad,CuDef*%
%ADD26R,0.800000X0.900000*%
%TD*%
%TA.AperFunction,SMDPad,CuDef*%
%ADD27C,0.500000*%
%TD*%
%TA.AperFunction,SMDPad,CuDef*%
%ADD28R,1.150000X0.300000*%
%TD*%
%TA.AperFunction,ComponentPad*%
%ADD29O,2.100000X1.000000*%
%TD*%
%TA.AperFunction,ComponentPad*%
%ADD30O,1.600000X1.000000*%
%TD*%
%TA.AperFunction,SMDPad,CuDef*%
%ADD31R,1.000000X1.250000*%
%TD*%
%TA.AperFunction,ViaPad*%
%ADD32C,0.600000*%
%TD*%
%TA.AperFunction,Conductor*%
%ADD33C,0.127000*%
%TD*%
%TA.AperFunction,Conductor*%
%ADD34C,0.250000*%
%TD*%
%TA.AperFunction,Conductor*%
%ADD35C,0.200000*%
%TD*%
%TA.AperFunction,Conductor*%
%ADD36C,0.400000*%
%TD*%
%TA.AperFunction,Conductor*%
%ADD37C,0.150000*%
%TD*%
G04 APERTURE END LIST*
D10*
%TO.P,GPIB1,1,1*%
%TO.N,/DIO5*%
X218194000Y-84695000D03*
D11*
%TO.P,GPIB1,2,2*%
%TO.N,/DIO1*%
X218194000Y-80405000D03*
%TO.P,GPIB1,3,3*%
%TO.N,/DIO6*%
X216034000Y-84695000D03*
%TO.P,GPIB1,4,4*%
%TO.N,/DIO2*%
X216034000Y-80405000D03*
%TO.P,GPIB1,5,5*%
%TO.N,/DIO7*%
X213874000Y-84695000D03*
%TO.P,GPIB1,6,6*%
%TO.N,/DIO3*%
X213874000Y-80405000D03*
%TO.P,GPIB1,7,7*%
%TO.N,/DIO8*%
X211714000Y-84695000D03*
%TO.P,GPIB1,8,8*%
%TO.N,/DIO4*%
X211714000Y-80405000D03*
%TO.P,GPIB1,9,9*%
%TO.N,/REN*%
X209554000Y-84695000D03*
%TO.P,GPIB1,10,10*%
%TO.N,/EOI*%
X209554000Y-80405000D03*
%TO.P,GPIB1,11,11*%
%TO.N,GND*%
X207394000Y-84695000D03*
%TO.P,GPIB1,12,12*%
%TO.N,/DAV*%
X207394000Y-80405000D03*
%TO.P,GPIB1,13,13*%
%TO.N,GND*%
X205234000Y-84695000D03*
%TO.P,GPIB1,14,14*%
%TO.N,/NRFD*%
X205234000Y-80405000D03*
%TO.P,GPIB1,15,15*%
%TO.N,GND*%
X203074000Y-84695000D03*
%TO.P,GPIB1,16,16*%
%TO.N,/NDAC*%
X203074000Y-80405000D03*
%TO.P,GPIB1,17,17*%
%TO.N,GND*%
X200914000Y-84695000D03*
%TO.P,GPIB1,18,18*%
%TO.N,/IFC*%
X200914000Y-80405000D03*
%TO.P,GPIB1,19,19*%
%TO.N,GND*%
X198754000Y-84695000D03*
%TO.P,GPIB1,20,20*%
%TO.N,/SRQ*%
X198754000Y-80405000D03*
%TO.P,GPIB1,21,21*%
%TO.N,GND*%
X196594000Y-84695000D03*
%TO.P,GPIB1,22,22*%
%TO.N,/ATN*%
X196594000Y-80405000D03*
%TO.P,GPIB1,23,23*%
%TO.N,GND*%
X194434000Y-84695000D03*
%TO.P,GPIB1,24,24*%
X194434000Y-80405000D03*
%TD*%
D12*
%TO.P,C1,1*%
%TO.N,+5V*%
X194564000Y-78293000D03*
%TO.P,C1,2*%
%TO.N,GND*%
X194564000Y-76393000D03*
%TD*%
D13*
%TO.P,C2,1*%
%TO.N,+5V*%
X191008000Y-77864000D03*
%TO.P,C2,2*%
%TO.N,GND*%
X191008000Y-76314000D03*
%TD*%
D14*
%TO.P,C7,1*%
%TO.N,Net-(U1-UCAP)*%
X188481000Y-77343000D03*
%TO.P,C7,2*%
%TO.N,GND*%
X186931000Y-77343000D03*
%TD*%
D15*
%TO.P,D1,1,K*%
%TO.N,Net-(D1-K)*%
X200987900Y-82600800D03*
%TO.P,D1,2,A*%
%TO.N,Net-(D1-A)*%
X199112900Y-82600800D03*
%TD*%
D16*
%TO.P,R1,1*%
%TO.N,+5V*%
X185039000Y-76264000D03*
%TO.P,R1,2*%
%TO.N,Net-(ISP1-~{RST})*%
X185039000Y-77914000D03*
%TD*%
D17*
%TO.P,R2,1*%
%TO.N,Net-(U1-D-)*%
X200470000Y-77978000D03*
%TO.P,R2,2*%
%TO.N,/D-*%
X202120000Y-77978000D03*
%TD*%
%TO.P,R3,1*%
%TO.N,Net-(U1-D+)*%
X200470000Y-76327000D03*
%TO.P,R3,2*%
%TO.N,/D+*%
X202120000Y-76327000D03*
%TD*%
%TO.P,R4,1*%
%TO.N,Net-(D1-K)*%
X203289400Y-82600800D03*
%TO.P,R4,2*%
%TO.N,GND*%
X204939400Y-82600800D03*
%TD*%
D18*
%TO.P,R5,1*%
%TO.N,/ATN*%
X197866000Y-77914000D03*
%TO.P,R5,2*%
%TO.N,GND*%
X197866000Y-76264000D03*
%TD*%
D19*
%TO.P,U1,1,PE6*%
%TO.N,unconnected-(U1-PE6-Pad1)*%
X191349000Y-79593500D03*
%TO.P,U1,2,UVCC*%
%TO.N,+5V*%
X190849000Y-79593500D03*
%TO.P,U1,3,D-*%
%TO.N,Net-(U1-D-)*%
X190349000Y-79593500D03*
%TO.P,U1,4,D+*%
%TO.N,Net-(U1-D+)*%
X189849000Y-79593500D03*
%TO.P,U1,5,UGND*%
%TO.N,GND*%
X189349000Y-79593500D03*
%TO.P,U1,6,UCAP*%
%TO.N,Net-(U1-UCAP)*%
X188849000Y-79593500D03*
%TO.P,U1,7,VBUS*%
%TO.N,+5V*%
X188349000Y-79593500D03*
%TO.P,U1,8,PB0*%
%TO.N,unconnected-(U1-PB0-Pad8)*%
X187849000Y-79593500D03*
%TO.P,U1,9,PB1*%
%TO.N,/SCK*%
X187349000Y-79593500D03*
%TO.P,U1,10,PB2*%
%TO.N,/MOSI*%
X186849000Y-79593500D03*
%TO.P,U1,11,PB3*%
%TO.N,/MISO*%
X186349000Y-79593500D03*
D20*
%TO.P,U1,12,PB7*%
%TO.N,unconnected-(U1-PB7-Pad12)*%
X185511500Y-80431000D03*
%TO.P,U1,13,~{RESET}*%
%TO.N,Net-(ISP1-~{RST})*%
X185511500Y-80931000D03*
%TO.P,U1,14,VCC*%
%TO.N,+5V*%
X185511500Y-81431000D03*
%TO.P,U1,15,GND*%
%TO.N,GND*%
X185511500Y-81931000D03*
%TO.P,U1,16,XTAL2*%
%TO.N,Net-(U1-XTAL2)*%
X185511500Y-82431000D03*
%TO.P,U1,17,XTAL1*%
%TO.N,Net-(U1-XTAL1)*%
X185511500Y-82931000D03*
%TO.P,U1,18,PD0*%
%TO.N,/DIO1*%
X185511500Y-83431000D03*
%TO.P,U1,19,PD1*%
%TO.N,/DIO2*%
X185511500Y-83931000D03*
%TO.P,U1,20,PD2*%
%TO.N,/DIO3*%
X185511500Y-84431000D03*
%TO.P,U1,21,PD3*%
%TO.N,/DIO4*%
X185511500Y-84931000D03*
%TO.P,U1,22,PD5*%
%TO.N,/DIO6*%
X185511500Y-85431000D03*
D19*
%TO.P,U1,23,GND*%
%TO.N,GND*%
X186349000Y-86268500D03*
%TO.P,U1,24,AVCC*%
%TO.N,+5V*%
X186849000Y-86268500D03*
%TO.P,U1,25,PD4*%
%TO.N,/DIO5*%
X187349000Y-86268500D03*
%TO.P,U1,26,PD6*%
%TO.N,/DIO7*%
X187849000Y-86268500D03*
%TO.P,U1,27,PD7*%
%TO.N,/DIO8*%
X188349000Y-86268500D03*
%TO.P,U1,28,PB4*%
%TO.N,/EOI*%
X188849000Y-86268500D03*
%TO.P,U1,29,PB5*%
%TO.N,/REN*%
X189349000Y-86268500D03*
%TO.P,U1,30,PB6*%
%TO.N,/DAV*%
X189849000Y-86268500D03*
%TO.P,U1,31,PC6*%
%TO.N,/NRFD*%
X190349000Y-86268500D03*
%TO.P,U1,32,PC7*%
%TO.N,/NDAC*%
X190849000Y-86268500D03*
%TO.P,U1,33,~{HWB}/PE2*%
%TO.N,/IFC*%
X191349000Y-86268500D03*
D20*
%TO.P,U1,34,VCC*%
%TO.N,+5V*%
X192186500Y-85431000D03*
%TO.P,U1,35,GND*%
%TO.N,GND*%
X192186500Y-84931000D03*
%TO.P,U1,36,PF7*%
%TO.N,/SRQ*%
X192186500Y-84431000D03*
%TO.P,U1,37,PF6*%
%TO.N,/ATN*%
X192186500Y-83931000D03*
%TO.P,U1,38,PF5*%
%TO.N,Net-(D1-A)*%
X192186500Y-83431000D03*
%TO.P,U1,39,PF4*%
%TO.N,Net-(D2-A)*%
X192186500Y-82931000D03*
%TO.P,U1,40,PF1*%
%TO.N,unconnected-(U1-PF1-Pad40)*%
X192186500Y-82431000D03*
%TO.P,U1,41,PF0*%
%TO.N,GND*%
X192186500Y-81931000D03*
%TO.P,U1,42,AREF*%
%TO.N,unconnected-(U1-AREF-Pad42)*%
X192186500Y-81431000D03*
%TO.P,U1,43,GND*%
%TO.N,GND*%
X192186500Y-80931000D03*
%TO.P,U1,44,AVCC*%
%TO.N,+5V*%
X192186500Y-80431000D03*
D21*
%TO.P,U1,45,GND*%
%TO.N,GND*%
X188849000Y-82931000D03*
%TD*%
D22*
%TO.P,ISP1,1,MISO*%
%TO.N,/MISO*%
X184121200Y-89210800D03*
D23*
%TO.P,ISP1,3,SCK*%
%TO.N,/SCK*%
X182501200Y-87590800D03*
D24*
%TO.P,ISP1,5,~{RST}*%
%TO.N,Net-(ISP1-~{RST})*%
X180791200Y-85880800D03*
%TD*%
D25*
%TO.P,C5,1*%
%TO.N,Net-(U1-XTAL2)*%
X182232000Y-79883000D03*
%TO.P,C5,2*%
%TO.N,GND*%
X183782000Y-79883000D03*
%TD*%
D14*
%TO.P,C6,1*%
%TO.N,Net-(U1-XTAL1)*%
X183274000Y-84709000D03*
%TO.P,C6,2*%
%TO.N,GND*%
X181724000Y-84709000D03*
%TD*%
D26*
%TO.P,Y1,1,1*%
%TO.N,Net-(U1-XTAL2)*%
X182203000Y-81596000D03*
%TO.P,Y1,2,2*%
%TO.N,GND*%
X182203000Y-82996000D03*
%TO.P,Y1,3,3*%
%TO.N,Net-(U1-XTAL1)*%
X183303000Y-82996000D03*
%TO.P,Y1,4,4*%
%TO.N,GND*%
X183303000Y-81596000D03*
%TD*%
D13*
%TO.P,C3,1*%
%TO.N,+5V*%
X192659000Y-77864000D03*
%TO.P,C3,2*%
%TO.N,GND*%
X192659000Y-76314000D03*
%TD*%
D14*
%TO.P,C4,1*%
%TO.N,+5V*%
X187084000Y-88011000D03*
%TO.P,C4,2*%
%TO.N,GND*%
X185534000Y-88011000D03*
%TD*%
D27*
%TO.P,FID1,*%
%TO.N,*%
X224891600Y-89154000D03*
%TD*%
%TO.P,FID2,*%
%TO.N,*%
X181610000Y-76403200D03*
%TD*%
D28*
%TO.P,J1,A1,GND*%
%TO.N,GND*%
X226771200Y-85946800D03*
%TO.P,J1,A4,VBUS*%
%TO.N,+5V*%
X226771200Y-85146800D03*
%TO.P,J1,A5,CC1*%
%TO.N,Net-(J1-CC1)*%
X226771200Y-83846800D03*
%TO.P,J1,A6,D+*%
%TO.N,/D+*%
X226771200Y-82846800D03*
%TO.P,J1,A7,D-*%
%TO.N,/D-*%
X226771200Y-82346800D03*
%TO.P,J1,A8,SBU1*%
%TO.N,unconnected-(J1-SBU1-PadA8)*%
X226771200Y-81346800D03*
%TO.P,J1,A9,VBUS*%
%TO.N,+5V*%
X226771200Y-80046800D03*
%TO.P,J1,A12,GND*%
%TO.N,GND*%
X226771200Y-79246800D03*
%TO.P,J1,B1,GND*%
X226771200Y-79546800D03*
%TO.P,J1,B4,VBUS*%
%TO.N,+5V*%
X226771200Y-80346800D03*
%TO.P,J1,B5,CC2*%
%TO.N,Net-(J1-CC2)*%
X226771200Y-80846800D03*
%TO.P,J1,B6,D+*%
%TO.N,/D+*%
X226771200Y-81846800D03*
%TO.P,J1,B7,D-*%
%TO.N,/D-*%
X226771200Y-83346800D03*
%TO.P,J1,B8,SBU2*%
%TO.N,unconnected-(J1-SBU2-PadB8)*%
X226771200Y-84346800D03*
%TO.P,J1,B9,VBUS*%
%TO.N,+5V*%
X226771200Y-84846800D03*
%TO.P,J1,B12,GND*%
%TO.N,GND*%
X226771200Y-85646800D03*
D29*
%TO.P,J1,S1,SHIELD*%
X227336200Y-86916800D03*
D30*
X231516200Y-86916800D03*
D29*
X227336200Y-78276800D03*
D30*
X231516200Y-78276800D03*
%TD*%
D17*
%TO.P,R6,1*%
%TO.N,Net-(D2-K)*%
X211519000Y-82550000D03*
%TO.P,R6,2*%
%TO.N,GND*%
X213169000Y-82550000D03*
%TD*%
D15*
%TO.P,D2,1,K*%
%TO.N,Net-(D2-K)*%
X209522300Y-82550000D03*
%TO.P,D2,2,A*%
%TO.N,Net-(D2-A)*%
X207647300Y-82550000D03*
%TD*%
D31*
%TO.P,SW1,1,1*%
%TO.N,GND*%
X221869000Y-78675000D03*
%TO.P,SW1,2,2*%
%TO.N,/MOSI*%
X221869000Y-86425000D03*
%TD*%
D16*
%TO.P,R7,1*%
%TO.N,Net-(J1-CC1)*%
X224840800Y-83858600D03*
%TO.P,R7,2*%
%TO.N,GND*%
X224840800Y-85508600D03*
%TD*%
%TO.P,R8,1*%
%TO.N,GND*%
X224840800Y-78778600D03*
%TO.P,R8,2*%
%TO.N,Net-(J1-CC2)*%
X224840800Y-80428600D03*
%TD*%
D32*
%TO.N,GND*%
X217119200Y-81788000D03*
X223012000Y-83693000D03*
X220472000Y-89281000D03*
X211023200Y-77978000D03*
X190144400Y-81635600D03*
X185470800Y-79552800D03*
X204165200Y-79298800D03*
X218694000Y-75819000D03*
X200050400Y-82600800D03*
X189865000Y-76200000D03*
X199898000Y-79298800D03*
X196088000Y-76255189D03*
X196138800Y-78689200D03*
X221081600Y-84886800D03*
X220472000Y-80518000D03*
X208635600Y-79298800D03*
X182778400Y-75692000D03*
X207137000Y-75692000D03*
X216331800Y-83058000D03*
X224028000Y-75819000D03*
X187502800Y-84175600D03*
X212801200Y-79349600D03*
X232410000Y-76073000D03*
X203073000Y-77978000D03*
X215290400Y-86055200D03*
X180695600Y-77216000D03*
X218000000Y-78000000D03*
X202031600Y-79349600D03*
X193167000Y-81407000D03*
X224739200Y-82956400D03*
X219659200Y-82600800D03*
X197713600Y-79095600D03*
X231902000Y-89027000D03*
X217830400Y-83108800D03*
X232918000Y-82550000D03*
X188849000Y-82931000D03*
X186944000Y-76581000D03*
X190144400Y-84251800D03*
X223012000Y-80645000D03*
X217373200Y-86817200D03*
X187579000Y-81635600D03*
X186029600Y-88792500D03*
X219710000Y-87960200D03*
X210972400Y-86207600D03*
X212394800Y-75844400D03*
%TO.N,+5V*%
X184404000Y-81407000D03*
X188075501Y-88186500D03*
X193040000Y-85445600D03*
X192151000Y-79756000D03*
%TO.N,/DIO4*%
X218567000Y-82423000D03*
X212801200Y-81483200D03*
%TO.N,/DIO3*%
X211963000Y-86741000D03*
X184549000Y-86078621D03*
%TO.N,/DIO6*%
X216563983Y-87531983D03*
%TO.N,/DIO2*%
X213614000Y-86995000D03*
X184393642Y-86788318D03*
%TO.N,/DIO1*%
X184409156Y-87514655D03*
X216027000Y-86614000D03*
%TO.N,/MOSI*%
X184150000Y-77452000D03*
X182847200Y-85929606D03*
%TO.N,Net-(D1-A)*%
X193816102Y-82422394D03*
X195633819Y-82379600D03*
%TO.N,/MISO*%
X185872023Y-78398804D03*
X182991200Y-86694428D03*
%TO.N,Net-(ISP1-~{RST})*%
X182168800Y-77989508D03*
X183568916Y-77989508D03*
%TO.N,Net-(U1-D-)*%
X199543540Y-77676621D03*
X189974479Y-77706000D03*
%TO.N,Net-(U1-D+)*%
X199313800Y-76987400D03*
X189357500Y-77259500D03*
%TO.N,Net-(D2-A)*%
X194310000Y-81889600D03*
X206349600Y-82143600D03*
%TD*%
D33*
%TO.N,Net-(U1-XTAL2)*%
X182853000Y-82296000D02*
X182203000Y-81646000D01*
X185511500Y-82431000D02*
X183893500Y-82431000D01*
X182203000Y-81596000D02*
X182203000Y-79912000D01*
X182203000Y-81646000D02*
X182203000Y-81596000D01*
X183758500Y-82296000D02*
X182853000Y-82296000D01*
X183893500Y-82431000D02*
X183758500Y-82296000D01*
X182203000Y-79912000D02*
X182232000Y-79883000D01*
D34*
%TO.N,GND*%
X186374000Y-86243500D02*
X186374000Y-85279000D01*
X192186500Y-84931000D02*
X190976000Y-84931000D01*
D35*
X204939400Y-82600800D02*
X205234000Y-82895400D01*
D34*
X183782000Y-79769000D02*
X183134000Y-79121000D01*
X183388000Y-81511000D02*
X183388000Y-80772000D01*
X192186500Y-80931000D02*
X190595000Y-80931000D01*
X181724000Y-84087000D02*
X182203000Y-83608000D01*
X183504684Y-81596000D02*
X183303000Y-81596000D01*
X186349000Y-86268500D02*
X186374000Y-86243500D01*
X181483000Y-79482420D02*
X181483000Y-82276000D01*
X189349000Y-82558000D02*
X188976000Y-82931000D01*
X184768455Y-82064672D02*
X183973356Y-82064672D01*
D36*
X226743200Y-78795000D02*
X227313200Y-78225000D01*
D34*
X189349000Y-79593500D02*
X189349000Y-82558000D01*
X184902127Y-81931000D02*
X184768455Y-82064672D01*
D35*
X185534000Y-88296900D02*
X186029600Y-88792500D01*
D36*
X226743200Y-86305000D02*
X227313200Y-86875000D01*
D34*
X182203000Y-83608000D02*
X182203000Y-82996000D01*
X183388000Y-80772000D02*
X183782000Y-80378000D01*
X181724000Y-84709000D02*
X181724000Y-84087000D01*
X183782000Y-80378000D02*
X183782000Y-79883000D01*
D33*
X185534000Y-88011000D02*
X185534000Y-88296900D01*
D35*
X205234000Y-82895400D02*
X205234000Y-84695000D01*
D34*
X181844420Y-79121000D02*
X181483000Y-79482420D01*
X183134000Y-79121000D02*
X181844420Y-79121000D01*
X190976000Y-84931000D02*
X190500000Y-84455000D01*
D36*
X226743200Y-79350000D02*
X226743200Y-78795000D01*
D34*
X185511500Y-81931000D02*
X184902127Y-81931000D01*
X186374000Y-85279000D02*
X187198000Y-84455000D01*
X185511500Y-81931000D02*
X186420000Y-81931000D01*
X183973356Y-82064672D02*
X183504684Y-81596000D01*
X181483000Y-82276000D02*
X182203000Y-82996000D01*
X190595000Y-80931000D02*
X190500000Y-81026000D01*
X192186500Y-81931000D02*
X191405000Y-81931000D01*
D35*
X213169000Y-82550000D02*
X213004400Y-82550000D01*
D34*
X186420000Y-81931000D02*
X187198000Y-81153000D01*
X183303000Y-81596000D02*
X183388000Y-81511000D01*
X191405000Y-81931000D02*
X190500000Y-81026000D01*
D36*
X226743200Y-85750000D02*
X226743200Y-86305000D01*
D34*
X183782000Y-79883000D02*
X183782000Y-79769000D01*
%TO.N,+5V*%
X192659000Y-77864000D02*
X191008000Y-77864000D01*
X218987784Y-78587600D02*
X219644500Y-79244316D01*
X194564000Y-78293000D02*
X193088000Y-78293000D01*
X192151000Y-79756000D02*
X192151000Y-78372000D01*
X189592354Y-76708000D02*
X189636354Y-76752000D01*
X196413200Y-77216000D02*
X198282225Y-77216000D01*
X193088000Y-78293000D02*
X192659000Y-77864000D01*
X227303400Y-80150000D02*
X226743200Y-80150000D01*
X202624625Y-78587600D02*
X218987784Y-78587600D01*
X198282225Y-77216000D02*
X198932800Y-77866575D01*
X187706000Y-76039932D02*
X187485068Y-75819000D01*
X198932800Y-78047446D02*
X199590354Y-78705000D01*
X227358600Y-84988400D02*
X227973800Y-84373200D01*
X195336200Y-78293000D02*
X196413200Y-77216000D01*
X194564000Y-78293000D02*
X195336200Y-78293000D01*
X187900001Y-88011000D02*
X187084000Y-88011000D01*
X202507225Y-78705000D02*
X202624625Y-78587600D01*
X188075501Y-88186500D02*
X187900001Y-88011000D01*
X188349000Y-79593500D02*
X188349000Y-78463817D01*
X187706000Y-76327000D02*
X188614580Y-76327000D01*
X184404000Y-81407000D02*
X184428000Y-81431000D01*
X192201100Y-85445600D02*
X192186500Y-85431000D01*
X187485068Y-75819000D02*
X185484000Y-75819000D01*
X219644500Y-79244316D02*
X219644500Y-81468500D01*
X192151000Y-80395500D02*
X192186500Y-80431000D01*
X219644500Y-81468500D02*
X222926000Y-84750000D01*
X225907600Y-84988400D02*
X227358600Y-84988400D01*
X190849000Y-78023000D02*
X191008000Y-77864000D01*
X225669200Y-84750000D02*
X225907600Y-84988400D01*
X186849000Y-87776000D02*
X187084000Y-88011000D01*
X186849000Y-86268500D02*
X186849000Y-87776000D01*
X222926000Y-84750000D02*
X225669200Y-84750000D01*
X190849000Y-79593500D02*
X190849000Y-78023000D01*
X185484000Y-75819000D02*
X185039000Y-76264000D01*
X188614580Y-76327000D02*
X188995580Y-76708000D01*
X188349000Y-78463817D02*
X187706000Y-77820817D01*
X187706000Y-77820817D02*
X187706000Y-76865183D01*
X187706000Y-76865183D02*
X187706000Y-76327000D01*
X188995580Y-76708000D02*
X189592354Y-76708000D01*
X192151000Y-79756000D02*
X192151000Y-80395500D01*
X189896000Y-76752000D02*
X191008000Y-77864000D01*
X198932800Y-77866575D02*
X198932800Y-78047446D01*
X227973800Y-80820400D02*
X227303400Y-80150000D01*
X187706000Y-76865183D02*
X187706000Y-76039932D01*
X192151000Y-78372000D02*
X192659000Y-77864000D01*
X199590354Y-78705000D02*
X202507225Y-78705000D01*
X184428000Y-81431000D02*
X185511500Y-81431000D01*
X193040000Y-85445600D02*
X192201100Y-85445600D01*
X189636354Y-76752000D02*
X189896000Y-76752000D01*
X227973800Y-84373200D02*
X227973800Y-80820400D01*
D33*
%TO.N,Net-(U1-XTAL1)*%
X183303000Y-84680000D02*
X183274000Y-84709000D01*
X183368000Y-82931000D02*
X183303000Y-82996000D01*
X185511500Y-82931000D02*
X183368000Y-82931000D01*
X183303000Y-82996000D02*
X183303000Y-84680000D01*
D34*
%TO.N,Net-(U1-UCAP)*%
X188849000Y-79593500D02*
X188849000Y-77711000D01*
X188849000Y-77711000D02*
X188481000Y-77343000D01*
D35*
%TO.N,Net-(D1-K)*%
X200987900Y-82600800D02*
X203289400Y-82600800D01*
D33*
%TO.N,/ATN*%
X192186500Y-83931000D02*
X193000462Y-83931000D01*
X197866000Y-77914000D02*
X196594000Y-79186000D01*
X196594000Y-79186000D02*
X196594000Y-80405000D01*
X193000462Y-83931000D02*
X196526462Y-80405000D01*
X196526462Y-80405000D02*
X196594000Y-80405000D01*
%TO.N,/SRQ*%
X192186500Y-84431000D02*
X192859672Y-84431000D01*
X192859672Y-84431000D02*
X195695172Y-81595500D01*
X195695172Y-81595500D02*
X197563500Y-81595500D01*
X197563500Y-81595500D02*
X198754000Y-80405000D01*
%TO.N,/IFC*%
X200914000Y-80405000D02*
X202104500Y-81595500D01*
X203566300Y-81595500D02*
X204039500Y-82068700D01*
X202104500Y-81595500D02*
X203566300Y-81595500D01*
X200914000Y-80877210D02*
X200914000Y-80405000D01*
X204039500Y-85672900D02*
X203232400Y-86480000D01*
X204039500Y-82068700D02*
X204039500Y-85672900D01*
X191560500Y-86480000D02*
X191349000Y-86268500D01*
X203232400Y-86480000D02*
X191560500Y-86480000D01*
%TO.N,/NDAC*%
X204293500Y-81624500D02*
X203074000Y-80405000D01*
X191516296Y-86996500D02*
X191517796Y-86995000D01*
X190849000Y-86663796D02*
X191181704Y-86996500D01*
X191181704Y-86996500D02*
X191516296Y-86996500D01*
X203225400Y-86995000D02*
X204293500Y-85926900D01*
X190849000Y-86268500D02*
X190849000Y-86663796D01*
X191517796Y-86995000D02*
X203225400Y-86995000D01*
X204293500Y-85926900D02*
X204293500Y-81624500D01*
%TO.N,/NRFD*%
X208334500Y-81791700D02*
X208138300Y-81595500D01*
X206424500Y-81595500D02*
X205234000Y-80405000D01*
X190349000Y-86268500D02*
X190349000Y-86663796D01*
X207238600Y-87249000D02*
X208334500Y-86153100D01*
X190935704Y-87250500D02*
X191621506Y-87250500D01*
X208138300Y-81595500D02*
X206424500Y-81595500D01*
X208334500Y-86153100D02*
X208334500Y-81791700D01*
X191621506Y-87250500D02*
X191623006Y-87249000D01*
X190349000Y-86663796D02*
X190935704Y-87250500D01*
X191623006Y-87249000D02*
X207238600Y-87249000D01*
%TO.N,/DAV*%
X189849000Y-86663796D02*
X190689704Y-87504500D01*
X207391000Y-87503000D02*
X208588500Y-86305500D01*
X208588500Y-86305500D02*
X208588500Y-81599500D01*
X191726716Y-87504500D02*
X191728216Y-87503000D01*
X208588500Y-81599500D02*
X207394000Y-80405000D01*
X191728216Y-87503000D02*
X207391000Y-87503000D01*
X190689704Y-87504500D02*
X191726716Y-87504500D01*
X189849000Y-86268500D02*
X189849000Y-86663796D01*
%TO.N,/REN*%
X190420500Y-87758500D02*
X191831926Y-87758500D01*
X207772000Y-87757000D02*
X209554000Y-85975000D01*
X191833426Y-87757000D02*
X207772000Y-87757000D01*
X191831926Y-87758500D02*
X191833426Y-87757000D01*
X189349000Y-86268500D02*
X189349000Y-86687000D01*
X209554000Y-85975000D02*
X209554000Y-84695000D01*
X189349000Y-86687000D02*
X190420500Y-87758500D01*
%TO.N,/EOI*%
X188849000Y-86268500D02*
X188849000Y-86663796D01*
X191937136Y-88012500D02*
X191938636Y-88011000D01*
X208842500Y-83305000D02*
X208842500Y-81116500D01*
X210616800Y-85826600D02*
X210616800Y-84023200D01*
X210616800Y-84023200D02*
X210098100Y-83504500D01*
X208842500Y-81116500D02*
X209554000Y-80405000D01*
X210098100Y-83504500D02*
X209042000Y-83504500D01*
X191938636Y-88011000D02*
X209042000Y-88011000D01*
X209042000Y-83504500D02*
X208842500Y-83305000D01*
X190197704Y-88012500D02*
X191937136Y-88012500D01*
X188849000Y-86663796D02*
X190197704Y-88012500D01*
X209042000Y-88011000D02*
X208737200Y-87706200D01*
X208737200Y-87706200D02*
X210616800Y-85826600D01*
%TO.N,/DIO8*%
X209677000Y-88265000D02*
X211714000Y-86228000D01*
X189951704Y-88266500D02*
X192042346Y-88266500D01*
X211714000Y-86228000D02*
X211714000Y-84695000D01*
X192043846Y-88265000D02*
X209677000Y-88265000D01*
X188349000Y-86663796D02*
X189951704Y-88266500D01*
X192042346Y-88266500D02*
X192043846Y-88265000D01*
X188349000Y-86268500D02*
X188349000Y-86663796D01*
%TO.N,/DIO4*%
X216152500Y-89282500D02*
X219134500Y-86300500D01*
X184893500Y-88441828D02*
X185734672Y-89283000D01*
X189248784Y-89283000D02*
X189249284Y-89282500D01*
X185511500Y-84931000D02*
X185116204Y-84931000D01*
X184893500Y-87588894D02*
X184893500Y-88441828D01*
X185116204Y-84931000D02*
X184783500Y-85263704D01*
X212792200Y-81483200D02*
X211714000Y-80405000D01*
X185734672Y-89283000D02*
X189248784Y-89283000D01*
X185039000Y-87443394D02*
X184893500Y-87588894D01*
X212801200Y-81483200D02*
X212792200Y-81483200D01*
X184783500Y-85598296D02*
X185039000Y-85853796D01*
X189249284Y-89282500D02*
X216152500Y-89282500D01*
X184783500Y-85263704D02*
X184783500Y-85598296D01*
X219134500Y-82990500D02*
X218567000Y-82423000D01*
X219134500Y-86300500D02*
X219134500Y-82990500D01*
X185039000Y-85853796D02*
X185039000Y-87443394D01*
%TO.N,/DIO7*%
X211301100Y-88520500D02*
X213874000Y-85947600D01*
X187849000Y-86268500D02*
X187849000Y-86663796D01*
X189705704Y-88520500D02*
X211301100Y-88520500D01*
X213874000Y-85947600D02*
X213874000Y-84695000D01*
X187849000Y-86663796D02*
X189705704Y-88520500D01*
%TO.N,/DIO3*%
X212852000Y-84074000D02*
X213874000Y-83052000D01*
X184529500Y-85017704D02*
X185116204Y-84431000D01*
X211963000Y-86741000D02*
X212217000Y-86741000D01*
X213874000Y-83052000D02*
X213874000Y-80405000D01*
X212217000Y-86741000D02*
X212852000Y-86106000D01*
X212852000Y-86106000D02*
X212852000Y-84074000D01*
X185116204Y-84431000D02*
X185511500Y-84431000D01*
X184529500Y-86059121D02*
X184529500Y-85017704D01*
X184549000Y-86078621D02*
X184529500Y-86059121D01*
%TO.N,/DIO6*%
X215136500Y-89028500D02*
X189354494Y-89028500D01*
X185511500Y-86326296D02*
X185511500Y-85431000D01*
X186443500Y-87258296D02*
X185511500Y-86326296D01*
X189354494Y-89028500D02*
X189002494Y-88676500D01*
X216563983Y-87531983D02*
X216563983Y-87601017D01*
X189002494Y-88676500D02*
X186686894Y-88676500D01*
X186443500Y-88433106D02*
X186443500Y-87258296D01*
X186686894Y-88676500D02*
X186443500Y-88433106D01*
X216563983Y-87601017D02*
X215136500Y-89028500D01*
%TO.N,/DIO2*%
X215011000Y-83058000D02*
X216034000Y-82035000D01*
X215011000Y-85598000D02*
X215011000Y-83058000D01*
X184275500Y-85658449D02*
X184058500Y-85875449D01*
X184058500Y-85875449D02*
X184058500Y-86453176D01*
X185511500Y-83931000D02*
X185116204Y-83931000D01*
X184275500Y-84771704D02*
X184275500Y-85658449D01*
X213614000Y-86995000D02*
X215011000Y-85598000D01*
X185116204Y-83931000D02*
X184275500Y-84771704D01*
X184058500Y-86453176D02*
X184393642Y-86788318D01*
X216034000Y-82035000D02*
X216034000Y-80405000D01*
%TO.N,/DIO5*%
X189459704Y-88774500D02*
X214628500Y-88774500D01*
X187349000Y-86663796D02*
X189459704Y-88774500D01*
X214628500Y-88774500D02*
X218194000Y-85209000D01*
X187349000Y-86268500D02*
X187349000Y-86663796D01*
X218194000Y-85209000D02*
X218194000Y-84695000D01*
%TO.N,/DIO1*%
X184770394Y-83431000D02*
X185511500Y-83431000D01*
X183804500Y-85689500D02*
X183914500Y-85579500D01*
X217043000Y-85598000D02*
X217043000Y-82931000D01*
X217043000Y-82931000D02*
X218194000Y-81780000D01*
X184190470Y-87295969D02*
X184190470Y-87278818D01*
X218194000Y-81780000D02*
X218194000Y-80405000D01*
X183914500Y-85579500D02*
X183914500Y-84286894D01*
X183914500Y-84286894D02*
X184770394Y-83431000D01*
X183804500Y-86892848D02*
X183804500Y-85689500D01*
X184190470Y-87278818D02*
X183804500Y-86892848D01*
X216027000Y-86614000D02*
X217043000Y-85598000D01*
X184409156Y-87514655D02*
X184190470Y-87295969D01*
%TO.N,/MOSI*%
X186428684Y-78262500D02*
X186036500Y-77870316D01*
X183550500Y-86560056D02*
X183550500Y-87261844D01*
X185665987Y-77216000D02*
X184386000Y-77216000D01*
X184454800Y-88567884D02*
X185447316Y-89560400D01*
X183194372Y-86203928D02*
X183550500Y-86560056D01*
X184168000Y-77452000D02*
X184404000Y-77216000D01*
X186849000Y-79593500D02*
X186849000Y-78399013D01*
X184454800Y-88324360D02*
X184454800Y-88567884D01*
X186036500Y-77586513D02*
X185665987Y-77216000D01*
X184150000Y-77452000D02*
X184168000Y-77452000D01*
X186849000Y-78399013D02*
X186712487Y-78262500D01*
X186712487Y-78262500D02*
X186428684Y-78262500D01*
X183918656Y-87630000D02*
X183918656Y-87788216D01*
X183550500Y-87261844D02*
X183918656Y-87630000D01*
X183918656Y-87788216D02*
X184454800Y-88324360D01*
X183121522Y-86203928D02*
X183194372Y-86203928D01*
X219448600Y-89560400D02*
X221869000Y-87140000D01*
X221869000Y-86425000D02*
X221869000Y-87140000D01*
X182847200Y-85929606D02*
X183121522Y-86203928D01*
X185447316Y-89560400D02*
X219448600Y-89560400D01*
X184386000Y-77216000D02*
X184150000Y-77452000D01*
X186036500Y-77870316D02*
X186036500Y-77586513D01*
%TO.N,Net-(D1-A)*%
X192971800Y-83431000D02*
X192186500Y-83431000D01*
X198960500Y-82753200D02*
X199112900Y-82600800D01*
X193816102Y-82586698D02*
X192971800Y-83431000D01*
X193816102Y-82422394D02*
X193816102Y-82586698D01*
X195633819Y-82379600D02*
X196007419Y-82753200D01*
X196007419Y-82753200D02*
X198960500Y-82753200D01*
%TO.N,/SCK*%
X185771197Y-76962000D02*
X186290500Y-77481303D01*
X186817697Y-78008500D02*
X187349000Y-78539803D01*
X181711600Y-78587600D02*
X182270400Y-78587600D01*
X181083500Y-79215700D02*
X181711600Y-78587600D01*
X187349000Y-78539803D02*
X187349000Y-79593500D01*
X182270400Y-78587600D02*
X183896000Y-76962000D01*
X186533894Y-78008500D02*
X186817697Y-78008500D01*
X182501200Y-87590800D02*
X182501200Y-86548806D01*
X183896000Y-76962000D02*
X185771197Y-76962000D01*
X186290500Y-77765106D02*
X186533894Y-78008500D01*
X186290500Y-77481303D02*
X186290500Y-77765106D01*
X182501200Y-86548806D02*
X181083500Y-85131106D01*
X181083500Y-85131106D02*
X181083500Y-79215700D01*
%TO.N,/MISO*%
X183398807Y-87511891D02*
X183398807Y-87627577D01*
X184121200Y-88349970D02*
X184121200Y-89210800D01*
X186349000Y-78875781D02*
X185872023Y-78398804D01*
X182991200Y-86694428D02*
X182991200Y-87104284D01*
X183398807Y-87627577D02*
X184121200Y-88349970D01*
X182991200Y-87104284D02*
X183398807Y-87511891D01*
X186349000Y-79593500D02*
X186349000Y-78875781D01*
%TO.N,Net-(ISP1-~{RST})*%
X181750892Y-77989508D02*
X180791200Y-78949200D01*
X184710500Y-78242500D02*
X185039000Y-77914000D01*
X184710500Y-78435200D02*
X184710500Y-78242500D01*
X182168800Y-77989508D02*
X181750892Y-77989508D01*
X183615924Y-77942500D02*
X184710500Y-77942500D01*
X183568916Y-77989508D02*
X183615924Y-77942500D01*
X184710500Y-77942500D02*
X184710500Y-78435200D01*
X184955046Y-80931000D02*
X184710500Y-80686454D01*
X185511500Y-80931000D02*
X184955046Y-80931000D01*
X184710500Y-78740000D02*
X184710500Y-78435200D01*
X180791200Y-78949200D02*
X180791200Y-85880800D01*
X184710500Y-80686454D02*
X184710500Y-78740000D01*
%TO.N,Net-(U1-D-)*%
X190342500Y-78074021D02*
X190342500Y-78261106D01*
X190342500Y-78261106D02*
X190347600Y-78266206D01*
X190347600Y-78266206D02*
X190347600Y-79592100D01*
X190347600Y-79592100D02*
X190349000Y-79593500D01*
X199844919Y-77978000D02*
X200470000Y-77978000D01*
X199543540Y-77676621D02*
X199844919Y-77978000D01*
X189974479Y-77706000D02*
X190342500Y-78074021D01*
%TO.N,Net-(U1-D+)*%
X199974200Y-76327000D02*
X200470000Y-76327000D01*
X189849000Y-78698600D02*
X189849000Y-79593500D01*
X199313800Y-76987400D02*
X199974200Y-76327000D01*
X189382400Y-77284400D02*
X189382400Y-78232000D01*
X189357500Y-77259500D02*
X189382400Y-77284400D01*
X189382400Y-78232000D02*
X189849000Y-78698600D01*
D37*
%TO.N,/D-*%
X226693200Y-82250000D02*
X226743200Y-82300000D01*
X226098800Y-83300000D02*
X226743200Y-83300000D01*
X225856800Y-82250000D02*
X225856800Y-83058000D01*
X202745500Y-77352500D02*
X219258856Y-77352500D01*
X220472000Y-78565644D02*
X220472000Y-79629000D01*
X226693200Y-82250000D02*
X225856800Y-82250000D01*
X225856800Y-83058000D02*
X226098800Y-83300000D01*
X202120000Y-77978000D02*
X202745500Y-77352500D01*
X220472000Y-79629000D02*
X223093000Y-82250000D01*
X219258856Y-77352500D02*
X220472000Y-78565644D01*
X223093000Y-82250000D02*
X226693200Y-82250000D01*
%TO.N,/D+*%
X223201000Y-81850000D02*
X226693200Y-81850000D01*
X226693200Y-81850000D02*
X226743200Y-81800000D01*
X227435600Y-82800000D02*
X226743200Y-82800000D01*
X202120000Y-76327000D02*
X202745500Y-76952500D01*
X226743200Y-81800000D02*
X227404800Y-81800000D01*
X202745500Y-76952500D02*
X219424544Y-76952500D01*
X219424544Y-76952500D02*
X220841600Y-78369556D01*
X227646800Y-82042000D02*
X227646800Y-82588800D01*
X220841600Y-79490600D02*
X223201000Y-81850000D01*
X227404800Y-81800000D02*
X227646800Y-82042000D01*
X227646800Y-82588800D02*
X227435600Y-82800000D01*
X220841600Y-78369556D02*
X220841600Y-79490600D01*
D35*
%TO.N,Net-(D2-K)*%
X209522300Y-82550000D02*
X211519000Y-82550000D01*
D33*
%TO.N,Net-(D2-A)*%
X192186500Y-82931000D02*
X193038195Y-82931000D01*
X193294000Y-82250824D02*
X193655224Y-81889600D01*
X206349600Y-82143600D02*
X207240900Y-82143600D01*
X193294000Y-82675195D02*
X193294000Y-82250824D01*
X193038195Y-82931000D02*
X193294000Y-82675195D01*
X207240900Y-82143600D02*
X207647300Y-82550000D01*
X193655224Y-81889600D02*
X194310000Y-81889600D01*
D37*
%TO.N,Net-(J1-CC1)*%
X226743200Y-83800000D02*
X224899400Y-83800000D01*
X224899400Y-83800000D02*
X224840800Y-83858600D01*
%TO.N,Net-(J1-CC2)*%
X226743200Y-80800000D02*
X225212200Y-80800000D01*
X225212200Y-80800000D02*
X224840800Y-80428600D01*
%TD*%
%TA.AperFunction,Conductor*%
%TO.N,+5V*%
G36*
X187762198Y-87886051D02*
G01*
X187762209Y-87886056D01*
X187762210Y-87886052D01*
X187835528Y-87886175D01*
X187835532Y-87886177D01*
X187835533Y-87886176D01*
X187898858Y-87886324D01*
X187972181Y-87886448D01*
X188063845Y-87886494D01*
X188072116Y-87889925D01*
X188075539Y-87898155D01*
X188076484Y-88181614D01*
X188073085Y-88189899D01*
X188073038Y-88189946D01*
X187873254Y-88388792D01*
X187864972Y-88392199D01*
X187856707Y-88388753D01*
X187855402Y-88387188D01*
X187813820Y-88327463D01*
X187812361Y-88324592D01*
X187788485Y-88255348D01*
X187768870Y-88194554D01*
X187768868Y-88194552D01*
X187768868Y-88194551D01*
X187732767Y-88152016D01*
X187732764Y-88152014D01*
X187668113Y-88137999D01*
X187660754Y-88132897D01*
X187658892Y-88126565D01*
X187658892Y-87897705D01*
X187662319Y-87889432D01*
X187670589Y-87886005D01*
X187762198Y-87886051D01*
G37*
%TD.AperFunction*%
%TD*%
%TA.AperFunction,Conductor*%
%TO.N,Net-(U1-D-)*%
G36*
X190248317Y-77596264D02*
G01*
X190254629Y-77602616D01*
X190255102Y-77604011D01*
X190279142Y-77693081D01*
X190279543Y-77695883D01*
X190281245Y-77776378D01*
X190281245Y-77776868D01*
X190279766Y-77848092D01*
X190279766Y-77848095D01*
X190297975Y-77919257D01*
X190297975Y-77919259D01*
X190352716Y-77992393D01*
X190354930Y-78001070D01*
X190351622Y-78007677D01*
X190276156Y-78083143D01*
X190267883Y-78086570D01*
X190260872Y-78084237D01*
X190242921Y-78070801D01*
X190187739Y-78029497D01*
X190187737Y-78029496D01*
X190116573Y-78011287D01*
X190045351Y-78012765D01*
X190044861Y-78012765D01*
X189964362Y-78011064D01*
X189961560Y-78010663D01*
X189872490Y-77986623D01*
X189865396Y-77981159D01*
X189864243Y-77972278D01*
X189864712Y-77970893D01*
X189971915Y-77709814D01*
X189978225Y-77703464D01*
X190239363Y-77596237D01*
X190248317Y-77596264D01*
G37*
%TD.AperFunction*%
%TD*%
%TA.AperFunction,Conductor*%
%TO.N,/MISO*%
G36*
X182997743Y-86696735D02*
G01*
X183254963Y-86803662D01*
X183261287Y-86810002D01*
X183261276Y-86818957D01*
X183260077Y-86821147D01*
X183212618Y-86889381D01*
X183210353Y-86891811D01*
X183139439Y-86948945D01*
X183139196Y-86949136D01*
X183077040Y-86996556D01*
X183050592Y-87045717D01*
X183050592Y-87045718D01*
X183081419Y-87101269D01*
X183082437Y-87110166D01*
X183079462Y-87115219D01*
X183008059Y-87186622D01*
X182999786Y-87190049D01*
X182991513Y-87186622D01*
X182981021Y-87176130D01*
X182979928Y-87174869D01*
X182964460Y-87154206D01*
X182964451Y-87154196D01*
X182937803Y-87127548D01*
X182937793Y-87127539D01*
X182931653Y-87122943D01*
X182928870Y-87119977D01*
X182925761Y-87115219D01*
X182901284Y-87077757D01*
X182900824Y-87076988D01*
X182883666Y-87045717D01*
X182873917Y-87027948D01*
X182838669Y-86974002D01*
X182786328Y-86914775D01*
X182783417Y-86906306D01*
X182786792Y-86898783D01*
X182984957Y-86699293D01*
X182993218Y-86695840D01*
X182997743Y-86696735D01*
G37*
%TD.AperFunction*%
%TD*%
%TA.AperFunction,Conductor*%
%TO.N,/DIO3*%
G36*
X184589073Y-85605927D02*
G01*
X184592500Y-85614200D01*
X184592500Y-85636286D01*
X184592499Y-85636286D01*
X184601766Y-85658659D01*
X184602506Y-85661267D01*
X184608196Y-85696439D01*
X184609350Y-85703570D01*
X184651376Y-85765357D01*
X184708282Y-85812524D01*
X184708794Y-85812975D01*
X184709721Y-85813843D01*
X184769121Y-85869478D01*
X184771160Y-85872004D01*
X184819216Y-85952218D01*
X184820528Y-85961076D01*
X184815192Y-85968268D01*
X184813690Y-85969027D01*
X184553511Y-86077736D01*
X184544556Y-86077763D01*
X184544489Y-86077736D01*
X184283902Y-85968857D01*
X184277590Y-85962505D01*
X184277617Y-85953550D01*
X184278184Y-85952382D01*
X184278275Y-85952218D01*
X184310475Y-85894222D01*
X184312419Y-85891644D01*
X184437422Y-85766642D01*
X184466500Y-85696441D01*
X184466500Y-85620457D01*
X184466500Y-85614200D01*
X184469927Y-85605927D01*
X184478200Y-85602500D01*
X184580800Y-85602500D01*
X184589073Y-85605927D01*
G37*
%TD.AperFunction*%
%TD*%
%TA.AperFunction,Conductor*%
%TO.N,Net-(ISP1-~{RST})*%
G36*
X183694099Y-77717853D02*
G01*
X183695032Y-77718293D01*
X183770715Y-77758098D01*
X183772337Y-77759130D01*
X183830808Y-77803486D01*
X183881709Y-77841990D01*
X183944539Y-77868885D01*
X184029104Y-77877886D01*
X184036968Y-77882169D01*
X184039566Y-77889520D01*
X184039566Y-77995615D01*
X184036139Y-78003888D01*
X184029255Y-78007232D01*
X183961441Y-78015340D01*
X183961438Y-78015341D01*
X183911551Y-78041853D01*
X183874881Y-78083251D01*
X183836698Y-78136840D01*
X183836041Y-78137679D01*
X183789253Y-78192096D01*
X183781260Y-78196135D01*
X183772753Y-78193340D01*
X183772127Y-78192761D01*
X183716785Y-78137679D01*
X183573488Y-77995054D01*
X183570043Y-77986790D01*
X183570945Y-77982256D01*
X183678794Y-77724135D01*
X183685144Y-77717826D01*
X183694099Y-77717853D01*
G37*
%TD.AperFunction*%
%TD*%
%TA.AperFunction,Conductor*%
%TO.N,Net-(D2-A)*%
G36*
X194199659Y-81623364D02*
G01*
X194200312Y-81624684D01*
X194309115Y-81885089D01*
X194309142Y-81894044D01*
X194309115Y-81894111D01*
X194200313Y-82154514D01*
X194193961Y-82160826D01*
X194185006Y-82160799D01*
X194183686Y-82160146D01*
X194127297Y-82127727D01*
X194124286Y-82125246D01*
X194112937Y-82112149D01*
X194098934Y-82095989D01*
X194055325Y-82067963D01*
X194053563Y-82066573D01*
X194049076Y-82062272D01*
X194043313Y-82056747D01*
X194042967Y-82056401D01*
X193993647Y-82004991D01*
X193957054Y-81983310D01*
X193930453Y-81967549D01*
X193899372Y-81963078D01*
X193840034Y-81954543D01*
X193832333Y-81949973D01*
X193830000Y-81942962D01*
X193830000Y-81836237D01*
X193833427Y-81827964D01*
X193840032Y-81824656D01*
X193930453Y-81811650D01*
X193993649Y-81774205D01*
X194042995Y-81722767D01*
X194043305Y-81722458D01*
X194101446Y-81666725D01*
X194103699Y-81665037D01*
X194183687Y-81619051D01*
X194192565Y-81617899D01*
X194199659Y-81623364D01*
G37*
%TD.AperFunction*%
%TD*%
%TA.AperFunction,Conductor*%
%TO.N,/DIO2*%
G36*
X213915677Y-86617856D02*
G01*
X213991143Y-86693322D01*
X213994570Y-86701595D01*
X213992237Y-86708606D01*
X213937496Y-86781739D01*
X213937496Y-86781741D01*
X213919287Y-86852901D01*
X213919287Y-86852904D01*
X213920765Y-86924125D01*
X213920765Y-86924615D01*
X213919064Y-87005115D01*
X213918663Y-87007917D01*
X213894623Y-87096988D01*
X213889159Y-87104082D01*
X213880278Y-87105235D01*
X213878883Y-87104762D01*
X213617815Y-86997563D01*
X213611463Y-86991251D01*
X213611436Y-86991184D01*
X213525435Y-86781741D01*
X213504237Y-86730115D01*
X213504264Y-86721161D01*
X213510616Y-86714849D01*
X213511999Y-86714380D01*
X213601087Y-86690334D01*
X213603876Y-86689934D01*
X213684389Y-86688232D01*
X213684866Y-86688232D01*
X213732855Y-86689228D01*
X213756093Y-86689711D01*
X213756096Y-86689711D01*
X213827260Y-86671501D01*
X213900394Y-86616761D01*
X213909070Y-86614548D01*
X213915677Y-86617856D01*
G37*
%TD.AperFunction*%
%TD*%
%TA.AperFunction,Conductor*%
%TO.N,Net-(ISP1-~{RST})*%
G36*
X181964390Y-77785047D02*
G01*
X182110584Y-77930269D01*
X182163933Y-77983264D01*
X182167387Y-77991526D01*
X182166491Y-77996056D01*
X182059587Y-78253219D01*
X182053247Y-78259543D01*
X182044292Y-78259532D01*
X182042066Y-78258308D01*
X181972904Y-78209819D01*
X181970445Y-78207497D01*
X181951858Y-78183998D01*
X181912962Y-78134822D01*
X181912783Y-78134591D01*
X181865240Y-78070620D01*
X181865239Y-78070619D01*
X181865238Y-78070618D01*
X181815852Y-78043029D01*
X181759589Y-78074064D01*
X181750690Y-78075059D01*
X181745665Y-78072092D01*
X181670946Y-77997373D01*
X181667519Y-77989100D01*
X181670946Y-77980827D01*
X181671523Y-77980288D01*
X181728925Y-77930260D01*
X181730417Y-77929158D01*
X181783809Y-77896001D01*
X181784655Y-77895523D01*
X181834522Y-77870147D01*
X181834527Y-77870144D01*
X181834534Y-77870140D01*
X181889121Y-77836242D01*
X181889122Y-77836241D01*
X181889127Y-77836238D01*
X181948461Y-77784528D01*
X181956947Y-77781676D01*
X181964390Y-77785047D01*
G37*
%TD.AperFunction*%
%TD*%
%TA.AperFunction,Conductor*%
%TO.N,Net-(D1-A)*%
G36*
X195907657Y-82269864D02*
G01*
X195913969Y-82276216D01*
X195914442Y-82277611D01*
X195938482Y-82366681D01*
X195938883Y-82369483D01*
X195940585Y-82449978D01*
X195940585Y-82450468D01*
X195939106Y-82521692D01*
X195939106Y-82521695D01*
X195957315Y-82592857D01*
X195957315Y-82592859D01*
X196012056Y-82665993D01*
X196014270Y-82674670D01*
X196010962Y-82681277D01*
X195935496Y-82756743D01*
X195927223Y-82760170D01*
X195920212Y-82757837D01*
X195902261Y-82744401D01*
X195847079Y-82703097D01*
X195847077Y-82703096D01*
X195775913Y-82684887D01*
X195704691Y-82686365D01*
X195704201Y-82686365D01*
X195623702Y-82684664D01*
X195620900Y-82684263D01*
X195531830Y-82660223D01*
X195524736Y-82654759D01*
X195523583Y-82645878D01*
X195524052Y-82644493D01*
X195631255Y-82383414D01*
X195637565Y-82377064D01*
X195898703Y-82269837D01*
X195907657Y-82269864D01*
G37*
%TD.AperFunction*%
%TD*%
%TA.AperFunction,Conductor*%
%TO.N,Net-(D2-A)*%
G36*
X206474594Y-81872399D02*
G01*
X206475898Y-81873044D01*
X206555898Y-81919037D01*
X206558157Y-81920730D01*
X206616272Y-81976439D01*
X206616619Y-81976785D01*
X206665950Y-82028206D01*
X206684246Y-82039046D01*
X206729146Y-82065650D01*
X206819567Y-82078656D01*
X206827267Y-82083226D01*
X206829600Y-82090237D01*
X206829600Y-82196962D01*
X206826173Y-82205235D01*
X206819566Y-82208543D01*
X206729146Y-82221549D01*
X206665950Y-82258992D01*
X206616619Y-82310413D01*
X206616272Y-82310759D01*
X206558158Y-82366467D01*
X206555893Y-82368164D01*
X206475913Y-82414146D01*
X206467033Y-82415299D01*
X206459939Y-82409834D01*
X206459290Y-82408522D01*
X206350483Y-82148109D01*
X206350457Y-82139156D01*
X206350462Y-82139142D01*
X206459287Y-81878683D01*
X206465639Y-81872372D01*
X206474594Y-81872399D01*
G37*
%TD.AperFunction*%
%TD*%
%TA.AperFunction,Conductor*%
%TO.N,/DIO4*%
G36*
X218840838Y-82313264D02*
G01*
X218847150Y-82319616D01*
X218847623Y-82321011D01*
X218871663Y-82410081D01*
X218872064Y-82412883D01*
X218873766Y-82493378D01*
X218873766Y-82493868D01*
X218872287Y-82565092D01*
X218872287Y-82565095D01*
X218890496Y-82636257D01*
X218890496Y-82636259D01*
X218945237Y-82709393D01*
X218947451Y-82718070D01*
X218944143Y-82724677D01*
X218868677Y-82800143D01*
X218860404Y-82803570D01*
X218853393Y-82801237D01*
X218835442Y-82787801D01*
X218780260Y-82746497D01*
X218780258Y-82746496D01*
X218709094Y-82728287D01*
X218637872Y-82729765D01*
X218637382Y-82729765D01*
X218556883Y-82728064D01*
X218554081Y-82727663D01*
X218465011Y-82703623D01*
X218457917Y-82698159D01*
X218456764Y-82689278D01*
X218457233Y-82687893D01*
X218564436Y-82426814D01*
X218570746Y-82420464D01*
X218831884Y-82313237D01*
X218840838Y-82313264D01*
G37*
%TD.AperFunction*%
%TD*%
%TA.AperFunction,Conductor*%
%TO.N,Net-(D1-A)*%
G36*
X193817227Y-82425112D02*
G01*
X193819796Y-82428961D01*
X193926360Y-82688486D01*
X193926333Y-82697441D01*
X193919981Y-82703753D01*
X193919734Y-82703851D01*
X193847800Y-82731494D01*
X193847577Y-82731577D01*
X193786960Y-82753470D01*
X193736776Y-82776676D01*
X193685282Y-82812433D01*
X193685276Y-82812437D01*
X193628801Y-82864454D01*
X193620394Y-82867538D01*
X193612602Y-82864121D01*
X193537614Y-82789133D01*
X193534187Y-82780860D01*
X193536239Y-82774242D01*
X193578113Y-82713222D01*
X193580595Y-82652439D01*
X193557926Y-82590187D01*
X193530309Y-82517953D01*
X193529661Y-82515464D01*
X193518047Y-82435747D01*
X193520246Y-82427068D01*
X193527938Y-82422484D01*
X193529593Y-82422362D01*
X193808946Y-82421705D01*
X193817227Y-82425112D01*
G37*
%TD.AperFunction*%
%TD*%
%TA.AperFunction,Conductor*%
%TO.N,/MOSI*%
G36*
X183119770Y-85820403D02*
G01*
X183126094Y-85826743D01*
X183126814Y-85829250D01*
X183139834Y-85906010D01*
X183139900Y-85909488D01*
X183128600Y-85995694D01*
X183128538Y-85996106D01*
X183116140Y-86070116D01*
X183116140Y-86070120D01*
X183129259Y-86121331D01*
X183129259Y-86121332D01*
X183153207Y-86128355D01*
X183185965Y-86137962D01*
X183192939Y-86143578D01*
X183194372Y-86149189D01*
X183194372Y-86255183D01*
X183190945Y-86263456D01*
X183182672Y-86266883D01*
X183182140Y-86266871D01*
X183108605Y-86263522D01*
X183107357Y-86263398D01*
X183047359Y-86254165D01*
X183046698Y-86254044D01*
X182994555Y-86242920D01*
X182933594Y-86233538D01*
X182858330Y-86230112D01*
X182850221Y-86226312D01*
X182847162Y-86218465D01*
X182846226Y-85937461D01*
X182849625Y-85929177D01*
X182853458Y-85926610D01*
X183110817Y-85820392D01*
X183119770Y-85820403D01*
G37*
%TD.AperFunction*%
%TD*%
%TA.AperFunction,Conductor*%
%TO.N,Net-(U1-D+)*%
G36*
X189587857Y-77354748D02*
G01*
X189622649Y-77369285D01*
X189628961Y-77375637D01*
X189628934Y-77384592D01*
X189628391Y-77385717D01*
X189585724Y-77463344D01*
X189584376Y-77465297D01*
X189534668Y-77523625D01*
X189534511Y-77523805D01*
X189489933Y-77573999D01*
X189489933Y-77574000D01*
X189473996Y-77605515D01*
X189458060Y-77637030D01*
X189458060Y-77637031D01*
X189447178Y-77724295D01*
X189442754Y-77732080D01*
X189435568Y-77734547D01*
X189328812Y-77734547D01*
X189320539Y-77731120D01*
X189317271Y-77724770D01*
X189313835Y-77704159D01*
X189302025Y-77633284D01*
X189258735Y-77571896D01*
X189258732Y-77571893D01*
X189258731Y-77571892D01*
X189200329Y-77525356D01*
X189199746Y-77524860D01*
X189138147Y-77468814D01*
X189136014Y-77466222D01*
X189087375Y-77385925D01*
X189086019Y-77377073D01*
X189091320Y-77369856D01*
X189092864Y-77369070D01*
X189352990Y-77260383D01*
X189361944Y-77260357D01*
X189587857Y-77354748D01*
G37*
%TD.AperFunction*%
%TD*%
%TA.AperFunction,Conductor*%
%TO.N,/DIO6*%
G36*
X216565108Y-87534701D02*
G01*
X216567677Y-87538550D01*
X216673940Y-87797340D01*
X216673913Y-87806295D01*
X216667561Y-87812607D01*
X216666605Y-87812952D01*
X216585214Y-87838375D01*
X216583373Y-87838790D01*
X216510996Y-87849082D01*
X216510997Y-87849083D01*
X216448089Y-87858239D01*
X216448086Y-87858239D01*
X216448086Y-87858240D01*
X216384943Y-87883925D01*
X216384942Y-87883926D01*
X216319044Y-87937313D01*
X216310459Y-87939858D01*
X216303406Y-87936495D01*
X216228382Y-87861471D01*
X216224955Y-87853198D01*
X216227442Y-87845986D01*
X216269642Y-87792113D01*
X216285804Y-87737903D01*
X216281965Y-87682491D01*
X216270640Y-87617385D01*
X216270507Y-87616316D01*
X216264955Y-87544553D01*
X216267733Y-87536043D01*
X216275718Y-87531988D01*
X216276582Y-87531953D01*
X216556827Y-87531294D01*
X216565108Y-87534701D01*
G37*
%TD.AperFunction*%
%TD*%
%TA.AperFunction,Conductor*%
%TO.N,/DIO1*%
G36*
X184298630Y-87248998D02*
G01*
X184300235Y-87251749D01*
X184402460Y-87499432D01*
X184402449Y-87508387D01*
X184396109Y-87514711D01*
X184391606Y-87515596D01*
X184121191Y-87514695D01*
X184112929Y-87511241D01*
X184109530Y-87502956D01*
X184109536Y-87502625D01*
X184110994Y-87456506D01*
X184111054Y-87455636D01*
X184115400Y-87414852D01*
X184115459Y-87414385D01*
X184120699Y-87378861D01*
X184125117Y-87337402D01*
X184126612Y-87290148D01*
X184130299Y-87281987D01*
X184138306Y-87278818D01*
X184244457Y-87278818D01*
X184252730Y-87282245D01*
X184255060Y-87286558D01*
X184255606Y-87286675D01*
X184255606Y-87286673D01*
X184255607Y-87286675D01*
X184260497Y-87279935D01*
X184268315Y-87265665D01*
X184268952Y-87264634D01*
X184278894Y-87250265D01*
X184281300Y-87247712D01*
X184282205Y-87247003D01*
X184290830Y-87244598D01*
X184298630Y-87248998D01*
G37*
%TD.AperFunction*%
%TD*%
%TA.AperFunction,Conductor*%
%TO.N,/DIO2*%
G36*
X184121262Y-86450565D02*
G01*
X184124301Y-86455851D01*
X184137061Y-86504170D01*
X184137062Y-86504171D01*
X184178052Y-86520978D01*
X184178053Y-86520978D01*
X184178053Y-86520977D01*
X184178054Y-86520978D01*
X184238678Y-86513385D01*
X184312044Y-86497352D01*
X184313241Y-86497155D01*
X184380665Y-86489744D01*
X184389262Y-86492246D01*
X184393572Y-86500096D01*
X184393642Y-86501374D01*
X184393642Y-86781474D01*
X184390215Y-86789747D01*
X184386386Y-86792297D01*
X184127070Y-86898773D01*
X184118115Y-86898746D01*
X184111901Y-86892627D01*
X184103219Y-86872718D01*
X184069172Y-86794645D01*
X184034934Y-86716905D01*
X184034531Y-86715853D01*
X184012059Y-86647712D01*
X184011608Y-86645839D01*
X183999072Y-86564927D01*
X183998941Y-86563532D01*
X183995507Y-86462110D01*
X183995500Y-86461714D01*
X183995500Y-86458838D01*
X183998927Y-86450565D01*
X184007200Y-86447138D01*
X184112989Y-86447138D01*
X184121262Y-86450565D01*
G37*
%TD.AperFunction*%
%TD*%
%TA.AperFunction,Conductor*%
%TO.N,/MOSI*%
G36*
X184528819Y-77156427D02*
G01*
X184532246Y-77164700D01*
X184532246Y-77270406D01*
X184528819Y-77278679D01*
X184523434Y-77281744D01*
X184468200Y-77295813D01*
X184468198Y-77295814D01*
X184446035Y-77339932D01*
X184445387Y-77404585D01*
X184445876Y-77481335D01*
X184445597Y-77483950D01*
X184430185Y-77553222D01*
X184425043Y-77560553D01*
X184416223Y-77562102D01*
X184414302Y-77561496D01*
X184263872Y-77499410D01*
X184156262Y-77454997D01*
X184149922Y-77448673D01*
X184149026Y-77444143D01*
X184149958Y-77164661D01*
X184153412Y-77156399D01*
X184161658Y-77153000D01*
X184520546Y-77153000D01*
X184528819Y-77156427D01*
G37*
%TD.AperFunction*%
%TD*%
%TA.AperFunction,Conductor*%
%TO.N,+5V*%
G36*
X192273566Y-79279427D02*
G01*
X192276947Y-79286665D01*
X192284556Y-79372392D01*
X192307761Y-79437372D01*
X192341895Y-79490660D01*
X192382857Y-79551413D01*
X192383606Y-79552693D01*
X192422517Y-79629978D01*
X192423177Y-79638908D01*
X192417328Y-79645689D01*
X192416578Y-79646035D01*
X192155511Y-79755115D01*
X192146556Y-79755142D01*
X192146489Y-79755115D01*
X191885421Y-79646035D01*
X191879109Y-79639683D01*
X191879136Y-79630728D01*
X191879467Y-79630009D01*
X191918400Y-79552678D01*
X191919132Y-79551427D01*
X191960099Y-79490665D01*
X191994239Y-79437370D01*
X192017442Y-79372395D01*
X192025053Y-79286664D01*
X192029198Y-79278728D01*
X192036707Y-79276000D01*
X192265293Y-79276000D01*
X192273566Y-79279427D01*
G37*
%TD.AperFunction*%
%TD*%
%TA.AperFunction,Conductor*%
%TO.N,Net-(U1-D-)*%
G36*
X199816140Y-77567406D02*
G01*
X199822464Y-77573746D01*
X199823180Y-77576228D01*
X199837722Y-77660852D01*
X199837799Y-77664295D01*
X199826029Y-77757829D01*
X199825974Y-77758218D01*
X199813132Y-77838409D01*
X199827876Y-77893838D01*
X199890282Y-77912042D01*
X199897264Y-77917649D01*
X199898705Y-77923274D01*
X199898705Y-78028879D01*
X199895278Y-78037152D01*
X199887005Y-78040579D01*
X199886120Y-78040545D01*
X199810820Y-78034831D01*
X199808770Y-78034491D01*
X199748215Y-78018797D01*
X199747176Y-78018476D01*
X199694553Y-77999458D01*
X199694552Y-77999457D01*
X199694550Y-77999457D01*
X199676778Y-77994851D01*
X199632467Y-77983368D01*
X199632463Y-77983367D01*
X199632461Y-77983367D01*
X199554318Y-77977438D01*
X199546328Y-77973396D01*
X199543503Y-77965813D01*
X199542566Y-77684476D01*
X199545965Y-77676192D01*
X199549798Y-77673625D01*
X199807186Y-77567395D01*
X199816140Y-77567406D01*
G37*
%TD.AperFunction*%
%TD*%
%TA.AperFunction,Conductor*%
%TO.N,/MISO*%
G36*
X186145861Y-78289068D02*
G01*
X186152173Y-78295420D01*
X186152646Y-78296815D01*
X186176686Y-78385885D01*
X186177087Y-78388687D01*
X186178789Y-78469182D01*
X186178789Y-78469672D01*
X186177310Y-78540896D01*
X186177310Y-78540899D01*
X186195519Y-78612061D01*
X186195519Y-78612063D01*
X186250260Y-78685197D01*
X186252474Y-78693874D01*
X186249166Y-78700481D01*
X186173700Y-78775947D01*
X186165427Y-78779374D01*
X186158416Y-78777041D01*
X186140465Y-78763605D01*
X186085283Y-78722301D01*
X186085281Y-78722300D01*
X186014117Y-78704091D01*
X185942895Y-78705569D01*
X185942405Y-78705569D01*
X185861906Y-78703868D01*
X185859104Y-78703467D01*
X185770034Y-78679427D01*
X185762940Y-78673963D01*
X185761787Y-78665082D01*
X185762256Y-78663697D01*
X185869459Y-78402618D01*
X185875769Y-78396268D01*
X186136907Y-78289041D01*
X186145861Y-78289068D01*
G37*
%TD.AperFunction*%
%TD*%
%TA.AperFunction,Conductor*%
%TO.N,/DIO1*%
G36*
X216328677Y-86236856D02*
G01*
X216404143Y-86312322D01*
X216407570Y-86320595D01*
X216405237Y-86327606D01*
X216350496Y-86400739D01*
X216350496Y-86400741D01*
X216332287Y-86471901D01*
X216332287Y-86471904D01*
X216333765Y-86543125D01*
X216333765Y-86543615D01*
X216332064Y-86624115D01*
X216331663Y-86626917D01*
X216307623Y-86715988D01*
X216302159Y-86723082D01*
X216293278Y-86724235D01*
X216291883Y-86723762D01*
X216030815Y-86616563D01*
X216024463Y-86610251D01*
X216024436Y-86610184D01*
X215938435Y-86400741D01*
X215917237Y-86349115D01*
X215917264Y-86340161D01*
X215923616Y-86333849D01*
X215924999Y-86333380D01*
X216014087Y-86309334D01*
X216016876Y-86308934D01*
X216097389Y-86307232D01*
X216097866Y-86307232D01*
X216145855Y-86308228D01*
X216169093Y-86308711D01*
X216169096Y-86308711D01*
X216240260Y-86290501D01*
X216313394Y-86235761D01*
X216322070Y-86233548D01*
X216328677Y-86236856D01*
G37*
%TD.AperFunction*%
%TD*%
%TA.AperFunction,Conductor*%
%TO.N,+5V*%
G36*
X192345791Y-79836387D02*
G01*
X192416577Y-79865964D01*
X192422889Y-79872316D01*
X192422862Y-79881271D01*
X192422516Y-79882021D01*
X192383606Y-79959305D01*
X192382857Y-79960585D01*
X192341895Y-80021337D01*
X192307759Y-80074629D01*
X192307759Y-80074630D01*
X192284558Y-80139598D01*
X192284557Y-80139604D01*
X192276947Y-80225335D01*
X192272802Y-80233272D01*
X192265293Y-80236000D01*
X192036707Y-80236000D01*
X192028434Y-80232573D01*
X192025053Y-80225335D01*
X192017442Y-80139603D01*
X191994239Y-80074629D01*
X191960099Y-80021333D01*
X191919136Y-79960578D01*
X191918396Y-79959313D01*
X191879481Y-79882018D01*
X191878822Y-79873091D01*
X191884671Y-79866310D01*
X191885408Y-79865969D01*
X192146490Y-79756883D01*
X192155444Y-79756857D01*
X192345791Y-79836387D01*
G37*
%TD.AperFunction*%
%TD*%
%TA.AperFunction,Conductor*%
%TO.N,/MOSI*%
G36*
X184163581Y-77154253D02*
G01*
X184174541Y-77156070D01*
X184203459Y-77160867D01*
X184206294Y-77161718D01*
X184247575Y-77180102D01*
X184283661Y-77196446D01*
X184318924Y-77197619D01*
X184351132Y-77176358D01*
X184359923Y-77174661D01*
X184365849Y-77177850D01*
X184441935Y-77253936D01*
X184445362Y-77262209D01*
X184443225Y-77268950D01*
X184423069Y-77297546D01*
X184420099Y-77329836D01*
X184430154Y-77362913D01*
X184440258Y-77392669D01*
X184443028Y-77400828D01*
X184443549Y-77403061D01*
X184448260Y-77438802D01*
X184445943Y-77447452D01*
X184438189Y-77451931D01*
X184436688Y-77452031D01*
X184161048Y-77452679D01*
X184152766Y-77449272D01*
X184149320Y-77441008D01*
X184149967Y-77165765D01*
X184153413Y-77157502D01*
X184161695Y-77154095D01*
X184163581Y-77154253D01*
G37*
%TD.AperFunction*%
%TD*%
%TA.AperFunction,Conductor*%
%TO.N,/DIO4*%
G36*
X212511188Y-81110274D02*
G01*
X212584907Y-81164790D01*
X212656809Y-81181618D01*
X212728845Y-81178379D01*
X212729332Y-81178368D01*
X212810559Y-81178635D01*
X212813503Y-81179021D01*
X212823353Y-81181617D01*
X212903091Y-81202632D01*
X212910217Y-81208054D01*
X212911423Y-81216928D01*
X212910932Y-81218390D01*
X212803763Y-81479384D01*
X212797451Y-81485736D01*
X212797384Y-81485763D01*
X212536257Y-81592986D01*
X212527302Y-81592959D01*
X212520990Y-81586607D01*
X212520532Y-81585266D01*
X212496322Y-81497240D01*
X212495910Y-81494553D01*
X212495597Y-81485763D01*
X212493082Y-81415081D01*
X212493076Y-81414665D01*
X212493157Y-81344512D01*
X212473969Y-81274381D01*
X212473968Y-81274380D01*
X212419424Y-81202210D01*
X212417170Y-81193544D01*
X212420484Y-81186884D01*
X212495960Y-81111408D01*
X212504232Y-81107982D01*
X212511188Y-81110274D01*
G37*
%TD.AperFunction*%
%TD*%
%TA.AperFunction,Conductor*%
%TO.N,/DIO3*%
G36*
X212088107Y-86469531D02*
G01*
X212089218Y-86470063D01*
X212142718Y-86499253D01*
X212143903Y-86499995D01*
X212195529Y-86536788D01*
X212240960Y-86562774D01*
X212263569Y-86563828D01*
X212286178Y-86564883D01*
X212286178Y-86564882D01*
X212286179Y-86564883D01*
X212329762Y-86535781D01*
X212338545Y-86534038D01*
X212344532Y-86537239D01*
X212419735Y-86612442D01*
X212423162Y-86620715D01*
X212420195Y-86628501D01*
X212358759Y-86697409D01*
X212317431Y-86758690D01*
X212317424Y-86758700D01*
X212285458Y-86814327D01*
X212285014Y-86815039D01*
X212244361Y-86875320D01*
X212243394Y-86876564D01*
X212183349Y-86943914D01*
X212175286Y-86947809D01*
X212166830Y-86944861D01*
X212166384Y-86944442D01*
X211967865Y-86747242D01*
X211964412Y-86738981D01*
X211965306Y-86734457D01*
X212072814Y-86475841D01*
X212079152Y-86469520D01*
X212088107Y-86469531D01*
G37*
%TD.AperFunction*%
%TD*%
%TA.AperFunction,Conductor*%
%TO.N,+5V*%
G36*
X184529149Y-81135427D02*
G01*
X184530157Y-81135905D01*
X184607268Y-81177137D01*
X184609016Y-81178284D01*
X184667961Y-81225006D01*
X184719076Y-81266097D01*
X184782507Y-81295047D01*
X184868843Y-81304824D01*
X184876678Y-81309160D01*
X184879226Y-81316450D01*
X184879226Y-81545058D01*
X184875799Y-81553331D01*
X184868309Y-81556732D01*
X184785255Y-81562302D01*
X184785253Y-81562303D01*
X184720623Y-81580032D01*
X184666940Y-81607422D01*
X184666923Y-81607431D01*
X184606180Y-81642497D01*
X184605363Y-81642927D01*
X184529896Y-81678879D01*
X184520953Y-81679343D01*
X184514301Y-81673348D01*
X184514068Y-81672827D01*
X184501492Y-81642728D01*
X184404883Y-81411509D01*
X184404857Y-81402556D01*
X184404862Y-81402542D01*
X184513843Y-81141710D01*
X184520194Y-81135400D01*
X184529149Y-81135427D01*
G37*
%TD.AperFunction*%
%TD*%
%TA.AperFunction,Conductor*%
%TO.N,Net-(U1-D+)*%
G36*
X199615477Y-76610256D02*
G01*
X199690943Y-76685722D01*
X199694370Y-76693995D01*
X199692037Y-76701006D01*
X199637296Y-76774139D01*
X199637296Y-76774141D01*
X199619087Y-76845301D01*
X199619087Y-76845304D01*
X199620565Y-76916525D01*
X199620565Y-76917015D01*
X199618864Y-76997515D01*
X199618463Y-77000317D01*
X199594423Y-77089388D01*
X199588959Y-77096482D01*
X199580078Y-77097635D01*
X199578683Y-77097162D01*
X199317615Y-76989963D01*
X199311263Y-76983651D01*
X199311236Y-76983584D01*
X199225235Y-76774141D01*
X199204037Y-76722515D01*
X199204064Y-76713561D01*
X199210416Y-76707249D01*
X199211799Y-76706780D01*
X199300887Y-76682734D01*
X199303676Y-76682334D01*
X199384189Y-76680632D01*
X199384666Y-76680632D01*
X199432655Y-76681628D01*
X199455893Y-76682111D01*
X199455896Y-76682111D01*
X199527060Y-76663901D01*
X199600194Y-76609161D01*
X199608870Y-76606948D01*
X199615477Y-76610256D01*
G37*
%TD.AperFunction*%
%TD*%
%TA.AperFunction,Conductor*%
%TO.N,GND*%
G36*
X233004843Y-75140977D02*
G01*
X233157974Y-75156059D01*
X233177008Y-75159845D01*
X233319587Y-75203096D01*
X233337506Y-75210517D01*
X233468924Y-75280761D01*
X233485040Y-75291529D01*
X233600223Y-75386058D01*
X233613941Y-75399776D01*
X233708468Y-75514957D01*
X233719239Y-75531077D01*
X233789479Y-75662488D01*
X233796903Y-75680412D01*
X233840154Y-75822991D01*
X233843940Y-75842025D01*
X233859023Y-75995156D01*
X233859500Y-76004860D01*
X233859500Y-88995139D01*
X233859023Y-89004843D01*
X233843940Y-89157974D01*
X233840154Y-89177008D01*
X233796903Y-89319587D01*
X233789477Y-89337514D01*
X233719242Y-89468917D01*
X233708465Y-89485046D01*
X233661203Y-89542635D01*
X233613943Y-89600221D01*
X233600221Y-89613943D01*
X233600209Y-89613953D01*
X233485046Y-89708465D01*
X233468917Y-89719242D01*
X233337514Y-89789477D01*
X233319587Y-89796903D01*
X233177008Y-89840154D01*
X233157974Y-89843940D01*
X233004843Y-89859023D01*
X232995139Y-89859500D01*
X219761859Y-89859500D01*
X219703668Y-89840593D01*
X219667704Y-89791093D01*
X219667704Y-89729907D01*
X219691853Y-89690498D01*
X220228354Y-89153997D01*
X224385953Y-89153997D01*
X224385953Y-89154002D01*
X224406434Y-89296456D01*
X224466222Y-89427371D01*
X224466223Y-89427373D01*
X224515149Y-89483837D01*
X224560473Y-89536144D01*
X224671907Y-89607758D01*
X224681547Y-89613953D01*
X224788003Y-89645211D01*
X224819635Y-89654499D01*
X224819636Y-89654499D01*
X224819639Y-89654500D01*
X224819641Y-89654500D01*
X224963559Y-89654500D01*
X224963561Y-89654500D01*
X225101653Y-89613953D01*
X225222728Y-89536143D01*
X225316977Y-89427373D01*
X225376765Y-89296457D01*
X225397247Y-89154000D01*
X225376765Y-89011543D01*
X225316977Y-88880627D01*
X225222728Y-88771857D01*
X225222727Y-88771856D01*
X225222726Y-88771855D01*
X225101657Y-88694049D01*
X225101654Y-88694047D01*
X225101653Y-88694047D01*
X225101650Y-88694046D01*
X224963564Y-88653500D01*
X224963561Y-88653500D01*
X224819639Y-88653500D01*
X224819635Y-88653500D01*
X224681549Y-88694046D01*
X224681542Y-88694049D01*
X224560473Y-88771855D01*
X224466222Y-88880628D01*
X224406434Y-89011543D01*
X224385953Y-89153997D01*
X220228354Y-89153997D01*
X222092809Y-87289544D01*
X222092809Y-87289543D01*
X222099704Y-87282649D01*
X222101830Y-87284775D01*
X222137554Y-87256617D01*
X222171815Y-87250500D01*
X222388747Y-87250500D01*
X222388748Y-87250500D01*
X222447231Y-87238867D01*
X222513552Y-87194552D01*
X222557867Y-87128231D01*
X222569500Y-87069748D01*
X222569500Y-85780252D01*
X222568256Y-85774000D01*
X222565193Y-85758601D01*
X224115801Y-85758601D01*
X224115801Y-85762803D01*
X224118650Y-85793200D01*
X224118650Y-85793202D01*
X224163454Y-85921247D01*
X224244007Y-86030390D01*
X224244009Y-86030392D01*
X224353152Y-86110945D01*
X224481198Y-86155749D01*
X224511588Y-86158598D01*
X224590800Y-86158598D01*
X224590800Y-85758601D01*
X225090800Y-85758601D01*
X225090800Y-86158598D01*
X225090801Y-86158599D01*
X225170003Y-86158599D01*
X225200400Y-86155749D01*
X225200402Y-86155749D01*
X225328447Y-86110945D01*
X225437590Y-86030392D01*
X225437592Y-86030390D01*
X225518145Y-85921247D01*
X225562949Y-85793201D01*
X225565799Y-85762811D01*
X225565800Y-85762810D01*
X225565800Y-85758601D01*
X225565799Y-85758600D01*
X225090801Y-85758600D01*
X225090800Y-85758601D01*
X224590800Y-85758601D01*
X224590799Y-85758600D01*
X224115802Y-85758600D01*
X224115801Y-85758601D01*
X222565193Y-85758601D01*
X222562777Y-85746454D01*
X222557867Y-85721769D01*
X222513552Y-85655448D01*
X222513548Y-85655445D01*
X222447233Y-85611134D01*
X222447231Y-85611133D01*
X222447228Y-85611132D01*
X222447227Y-85611132D01*
X222388758Y-85599501D01*
X222388748Y-85599500D01*
X221349252Y-85599500D01*
X221349251Y-85599500D01*
X221349241Y-85599501D01*
X221290772Y-85611132D01*
X221290766Y-85611134D01*
X221224451Y-85655445D01*
X221224445Y-85655451D01*
X221180134Y-85721766D01*
X221180132Y-85721772D01*
X221168501Y-85780241D01*
X221168500Y-85780253D01*
X221168500Y-87069746D01*
X221168501Y-87069758D01*
X221180132Y-87128227D01*
X221180134Y-87128233D01*
X221224445Y-87194548D01*
X221224448Y-87194552D01*
X221224451Y-87194554D01*
X221254016Y-87214309D01*
X221291895Y-87262359D01*
X221294297Y-87323497D01*
X221269018Y-87366628D01*
X219368244Y-89267404D01*
X219313727Y-89295181D01*
X219298240Y-89296400D01*
X216750960Y-89296400D01*
X216692769Y-89277493D01*
X216656805Y-89227993D01*
X216656805Y-89166807D01*
X216680956Y-89127396D01*
X217924759Y-87883593D01*
X219358309Y-86450044D01*
X219388602Y-86376908D01*
X219398500Y-86353013D01*
X219398500Y-82937987D01*
X219358308Y-82840956D01*
X219322495Y-82805143D01*
X219284044Y-82766691D01*
X219284044Y-82766692D01*
X219127383Y-82610031D01*
X219113135Y-82589886D01*
X219112272Y-82590409D01*
X219109755Y-82586250D01*
X219098694Y-82571473D01*
X219078962Y-82513557D01*
X219078972Y-82510127D01*
X219079222Y-82498134D01*
X219079266Y-82493868D01*
X219079266Y-82493378D01*
X219079220Y-82489034D01*
X219077518Y-82408539D01*
X219075491Y-82383770D01*
X219075090Y-82380968D01*
X219070064Y-82356533D01*
X219056697Y-82307009D01*
X219054289Y-82295318D01*
X219052165Y-82280543D01*
X219048429Y-82272364D01*
X219043766Y-82260041D01*
X219042240Y-82255023D01*
X219042233Y-82255002D01*
X219041827Y-82253802D01*
X219041331Y-82252356D01*
X219037121Y-82245609D01*
X219031061Y-82234331D01*
X218992378Y-82149629D01*
X218992377Y-82149628D01*
X218992377Y-82149627D01*
X218898128Y-82040857D01*
X218898127Y-82040856D01*
X218898126Y-82040855D01*
X218777057Y-81963049D01*
X218777054Y-81963047D01*
X218777053Y-81963047D01*
X218777050Y-81963046D01*
X218638964Y-81922500D01*
X218638961Y-81922500D01*
X218557000Y-81922500D01*
X218498809Y-81903593D01*
X218462845Y-81854093D01*
X218458000Y-81823500D01*
X218458000Y-81640611D01*
X218476907Y-81582420D01*
X218519112Y-81549147D01*
X218644231Y-81497322D01*
X218644234Y-81497319D01*
X218644238Y-81497318D01*
X218689187Y-81467282D01*
X218799908Y-81393302D01*
X218932302Y-81260908D01*
X219036142Y-81105501D01*
X219036318Y-81105238D01*
X219036319Y-81105234D01*
X219036322Y-81105231D01*
X219107973Y-80932251D01*
X219122902Y-80857196D01*
X219152799Y-80803813D01*
X219208364Y-80778197D01*
X219268374Y-80790134D01*
X219309906Y-80835064D01*
X219319000Y-80876511D01*
X219319000Y-81425647D01*
X219319000Y-81511353D01*
X219332357Y-81561204D01*
X219341183Y-81594143D01*
X219384031Y-81668357D01*
X219384033Y-81668359D01*
X219384035Y-81668362D01*
X222665533Y-84949859D01*
X222665535Y-84949862D01*
X222726138Y-85010465D01*
X222757173Y-85028383D01*
X222800361Y-85053318D01*
X222883147Y-85075500D01*
X224031084Y-85075500D01*
X224089275Y-85094407D01*
X224125239Y-85143907D01*
X224125239Y-85205093D01*
X224124529Y-85207196D01*
X224118650Y-85223996D01*
X224115800Y-85254388D01*
X224115800Y-85258599D01*
X224115801Y-85258600D01*
X225565797Y-85258600D01*
X225571630Y-85252767D01*
X225626147Y-85224989D01*
X225686579Y-85234560D01*
X225701963Y-85245728D01*
X225702588Y-85244914D01*
X225707733Y-85248861D01*
X225707735Y-85248862D01*
X225707738Y-85248865D01*
X225762792Y-85280650D01*
X225781962Y-85291718D01*
X225864740Y-85313899D01*
X225864741Y-85313899D01*
X225864748Y-85313901D01*
X225864755Y-85313901D01*
X225869996Y-85314591D01*
X225925223Y-85340928D01*
X225954422Y-85394696D01*
X225954179Y-85432058D01*
X225946200Y-85472170D01*
X225946200Y-85496799D01*
X225946201Y-85496800D01*
X226166511Y-85496800D01*
X226176212Y-85497276D01*
X226176448Y-85497299D01*
X226176452Y-85497300D01*
X226176456Y-85497300D01*
X226822200Y-85497300D01*
X226880391Y-85516207D01*
X226916355Y-85565707D01*
X226921200Y-85596300D01*
X226921200Y-85997800D01*
X226902293Y-86055991D01*
X226852793Y-86091955D01*
X226822200Y-86096800D01*
X225946201Y-86096800D01*
X225946200Y-86096801D01*
X225946200Y-86121424D01*
X225960706Y-86194346D01*
X225960707Y-86194348D01*
X226015958Y-86277037D01*
X226015962Y-86277041D01*
X226098651Y-86332292D01*
X226098655Y-86332294D01*
X226108759Y-86334304D01*
X226162144Y-86364199D01*
X226187761Y-86419763D01*
X226175827Y-86479773D01*
X226171764Y-86486403D01*
X226121561Y-86561536D01*
X226121558Y-86561543D01*
X226077958Y-86666799D01*
X226077959Y-86666800D01*
X226619212Y-86666800D01*
X226601995Y-86676740D01*
X226546140Y-86732595D01*
X226506644Y-86801004D01*
X226486200Y-86877304D01*
X226486200Y-86956296D01*
X226506644Y-87032596D01*
X226546140Y-87101005D01*
X226601995Y-87156860D01*
X226619212Y-87166800D01*
X226077959Y-87166800D01*
X226121558Y-87272056D01*
X226121565Y-87272070D01*
X226203631Y-87394890D01*
X226308106Y-87499365D01*
X226430942Y-87581441D01*
X226567429Y-87637976D01*
X226567435Y-87637978D01*
X226712328Y-87666799D01*
X226712332Y-87666800D01*
X227086199Y-87666800D01*
X227086200Y-87666799D01*
X227086200Y-87216800D01*
X227586200Y-87216800D01*
X227586200Y-87666799D01*
X227586201Y-87666800D01*
X227960068Y-87666800D01*
X227960071Y-87666799D01*
X228104964Y-87637978D01*
X228104970Y-87637976D01*
X228241457Y-87581441D01*
X228364293Y-87499365D01*
X228468768Y-87394890D01*
X228550834Y-87272070D01*
X228550841Y-87272056D01*
X228594441Y-87166800D01*
X228053188Y-87166800D01*
X228070405Y-87156860D01*
X228126260Y-87101005D01*
X228165756Y-87032596D01*
X228186200Y-86956296D01*
X228186200Y-86877304D01*
X228165756Y-86801004D01*
X228126260Y-86732595D01*
X228070405Y-86676740D01*
X228053188Y-86666800D01*
X228594441Y-86666800D01*
X228594441Y-86666799D01*
X230507958Y-86666799D01*
X230507959Y-86666800D01*
X231049212Y-86666800D01*
X231031995Y-86676740D01*
X230976140Y-86732595D01*
X230936644Y-86801004D01*
X230916200Y-86877304D01*
X230916200Y-86956296D01*
X230936644Y-87032596D01*
X230976140Y-87101005D01*
X231031995Y-87156860D01*
X231049212Y-87166800D01*
X230507959Y-87166800D01*
X230551558Y-87272056D01*
X230551565Y-87272070D01*
X230633631Y-87394890D01*
X230738106Y-87499365D01*
X230860942Y-87581441D01*
X230997429Y-87637976D01*
X230997435Y-87637978D01*
X231142328Y-87666799D01*
X231142332Y-87666800D01*
X231266199Y-87666800D01*
X231266200Y-87666799D01*
X231266200Y-87216800D01*
X231766200Y-87216800D01*
X231766200Y-87666799D01*
X231766201Y-87666800D01*
X231890068Y-87666800D01*
X231890071Y-87666799D01*
X232034964Y-87637978D01*
X232034970Y-87637976D01*
X232171457Y-87581441D01*
X232294293Y-87499365D01*
X232398768Y-87394890D01*
X232480834Y-87272070D01*
X232480841Y-87272056D01*
X232524441Y-87166800D01*
X231983188Y-87166800D01*
X232000405Y-87156860D01*
X232056260Y-87101005D01*
X232095756Y-87032596D01*
X232116200Y-86956296D01*
X232116200Y-86877304D01*
X232095756Y-86801004D01*
X232056260Y-86732595D01*
X232000405Y-86676740D01*
X231983188Y-86666800D01*
X232524441Y-86666800D01*
X232524441Y-86666799D01*
X232480841Y-86561543D01*
X232480834Y-86561529D01*
X232398768Y-86438709D01*
X232294293Y-86334234D01*
X232171457Y-86252158D01*
X232034970Y-86195623D01*
X232034964Y-86195621D01*
X231890071Y-86166800D01*
X231766201Y-86166800D01*
X231766200Y-86166801D01*
X231766200Y-86616800D01*
X231266200Y-86616800D01*
X231266200Y-86166801D01*
X231266199Y-86166800D01*
X231142328Y-86166800D01*
X230997435Y-86195621D01*
X230997429Y-86195623D01*
X230860942Y-86252158D01*
X230738106Y-86334234D01*
X230633631Y-86438709D01*
X230551565Y-86561529D01*
X230551558Y-86561543D01*
X230507958Y-86666799D01*
X228594441Y-86666799D01*
X228550841Y-86561543D01*
X228550834Y-86561529D01*
X228468768Y-86438709D01*
X228364293Y-86334234D01*
X228241457Y-86252158D01*
X228104970Y-86195623D01*
X228104964Y-86195621D01*
X227960071Y-86166800D01*
X227695200Y-86166800D01*
X227637009Y-86147893D01*
X227601045Y-86098393D01*
X227596200Y-86067800D01*
X227596200Y-86033432D01*
X227615107Y-85975241D01*
X227664607Y-85939277D01*
X227720820Y-85937805D01*
X227774916Y-85952300D01*
X227774919Y-85952300D01*
X227897482Y-85952300D01*
X227897484Y-85952300D01*
X228015876Y-85920577D01*
X228122024Y-85859293D01*
X228208693Y-85772624D01*
X228269977Y-85666476D01*
X228301700Y-85548084D01*
X228301700Y-85425516D01*
X228269977Y-85307124D01*
X228208693Y-85200976D01*
X228122024Y-85114307D01*
X228015876Y-85053023D01*
X228015875Y-85053022D01*
X228015872Y-85053021D01*
X227975210Y-85042126D01*
X227923896Y-85008802D01*
X227901970Y-84951681D01*
X227917806Y-84892580D01*
X227930825Y-84876501D01*
X228234265Y-84573062D01*
X228263035Y-84523231D01*
X228277116Y-84498843D01*
X228277116Y-84498841D01*
X228277118Y-84498839D01*
X228299300Y-84416053D01*
X228299300Y-84330347D01*
X228299300Y-80871240D01*
X228299301Y-80871227D01*
X228299301Y-80777546D01*
X228299300Y-80777544D01*
X228296175Y-80765883D01*
X228277118Y-80694761D01*
X228242003Y-80633941D01*
X228234265Y-80620538D01*
X228173662Y-80559935D01*
X228173659Y-80559933D01*
X228170204Y-80556477D01*
X228170198Y-80556472D01*
X227930829Y-80317102D01*
X227903052Y-80262586D01*
X227912623Y-80202154D01*
X227955888Y-80158889D01*
X227975204Y-80151474D01*
X228015876Y-80140577D01*
X228122024Y-80079293D01*
X228208693Y-79992624D01*
X228269977Y-79886476D01*
X228301700Y-79768084D01*
X228301700Y-79645516D01*
X228269977Y-79527124D01*
X228208693Y-79420976D01*
X228122024Y-79334307D01*
X228015876Y-79273023D01*
X227897484Y-79241300D01*
X227774916Y-79241300D01*
X227753998Y-79246904D01*
X227720822Y-79255794D01*
X227659721Y-79252591D01*
X227612171Y-79214085D01*
X227596200Y-79160167D01*
X227596200Y-79125800D01*
X227615107Y-79067609D01*
X227664607Y-79031645D01*
X227695200Y-79026800D01*
X227960068Y-79026800D01*
X227960071Y-79026799D01*
X228104964Y-78997978D01*
X228104970Y-78997976D01*
X228241457Y-78941441D01*
X228364293Y-78859365D01*
X228468768Y-78754890D01*
X228550834Y-78632070D01*
X228550841Y-78632056D01*
X228594441Y-78526800D01*
X228053188Y-78526800D01*
X228070405Y-78516860D01*
X228126260Y-78461005D01*
X228165756Y-78392596D01*
X228186200Y-78316296D01*
X228186200Y-78237304D01*
X228165756Y-78161004D01*
X228126260Y-78092595D01*
X228070405Y-78036740D01*
X228053188Y-78026800D01*
X228594441Y-78026800D01*
X228594441Y-78026799D01*
X230507958Y-78026799D01*
X230507959Y-78026800D01*
X231049212Y-78026800D01*
X231031995Y-78036740D01*
X230976140Y-78092595D01*
X230936644Y-78161004D01*
X230916200Y-78237304D01*
X230916200Y-78316296D01*
X230936644Y-78392596D01*
X230976140Y-78461005D01*
X231031995Y-78516860D01*
X231049212Y-78526800D01*
X230507959Y-78526800D01*
X230551558Y-78632056D01*
X230551565Y-78632070D01*
X230633631Y-78754890D01*
X230738106Y-78859365D01*
X230860942Y-78941441D01*
X230997429Y-78997976D01*
X230997435Y-78997978D01*
X231142328Y-79026799D01*
X231142332Y-79026800D01*
X231266199Y-79026800D01*
X231266200Y-79026799D01*
X231266200Y-78576800D01*
X231766200Y-78576800D01*
X231766200Y-79026799D01*
X231766201Y-79026800D01*
X231890068Y-79026800D01*
X231890071Y-79026799D01*
X232034964Y-78997978D01*
X232034970Y-78997976D01*
X232171457Y-78941441D01*
X232294293Y-78859365D01*
X232398768Y-78754890D01*
X232480834Y-78632070D01*
X232480841Y-78632056D01*
X232524441Y-78526800D01*
X231983188Y-78526800D01*
X232000405Y-78516860D01*
X232056260Y-78461005D01*
X232095756Y-78392596D01*
X232116200Y-78316296D01*
X232116200Y-78237304D01*
X232095756Y-78161004D01*
X232056260Y-78092595D01*
X232000405Y-78036740D01*
X231983188Y-78026800D01*
X232524441Y-78026800D01*
X232524441Y-78026799D01*
X232480841Y-77921543D01*
X232480834Y-77921529D01*
X232398768Y-77798709D01*
X232294293Y-77694234D01*
X232171457Y-77612158D01*
X232034970Y-77555623D01*
X232034964Y-77555621D01*
X231890071Y-77526800D01*
X231766201Y-77526800D01*
X231766200Y-77526801D01*
X231766200Y-77976800D01*
X231266200Y-77976800D01*
X231266200Y-77526801D01*
X231266199Y-77526800D01*
X231142328Y-77526800D01*
X230997435Y-77555621D01*
X230997429Y-77555623D01*
X230860942Y-77612158D01*
X230738106Y-77694234D01*
X230633631Y-77798709D01*
X230551565Y-77921529D01*
X230551558Y-77921543D01*
X230507958Y-78026799D01*
X228594441Y-78026799D01*
X228550841Y-77921543D01*
X228550834Y-77921529D01*
X228468768Y-77798709D01*
X228364293Y-77694234D01*
X228241457Y-77612158D01*
X228104970Y-77555623D01*
X228104964Y-77555621D01*
X227960071Y-77526800D01*
X227586201Y-77526800D01*
X227586200Y-77526801D01*
X227586200Y-77976800D01*
X227086200Y-77976800D01*
X227086200Y-77526801D01*
X227086199Y-77526800D01*
X226712328Y-77526800D01*
X226567435Y-77555621D01*
X226567429Y-77555623D01*
X226430942Y-77612158D01*
X226308106Y-77694234D01*
X226203631Y-77798709D01*
X226121565Y-77921529D01*
X226121558Y-77921543D01*
X226077958Y-78026799D01*
X226077959Y-78026800D01*
X226619212Y-78026800D01*
X226601995Y-78036740D01*
X226546140Y-78092595D01*
X226506644Y-78161004D01*
X226486200Y-78237304D01*
X226486200Y-78316296D01*
X226506644Y-78392596D01*
X226546140Y-78461005D01*
X226601995Y-78516860D01*
X226619212Y-78526800D01*
X226077959Y-78526800D01*
X226121558Y-78632056D01*
X226121561Y-78632062D01*
X226171764Y-78707196D01*
X226188372Y-78766084D01*
X226167194Y-78823487D01*
X226116321Y-78857480D01*
X226108764Y-78859294D01*
X226098657Y-78861304D01*
X226098651Y-78861307D01*
X226015962Y-78916558D01*
X226015958Y-78916562D01*
X225960707Y-78999251D01*
X225960706Y-78999253D01*
X225946200Y-79072175D01*
X225946200Y-79096799D01*
X225946201Y-79096800D01*
X226822200Y-79096800D01*
X226880391Y-79115707D01*
X226916355Y-79165207D01*
X226921200Y-79195800D01*
X226921200Y-79597300D01*
X226902293Y-79655491D01*
X226852793Y-79691455D01*
X226822200Y-79696300D01*
X226176452Y-79696300D01*
X226176448Y-79696300D01*
X226176212Y-79696324D01*
X226166511Y-79696800D01*
X225946201Y-79696800D01*
X225946200Y-79696801D01*
X225946200Y-79721424D01*
X225960706Y-79794346D01*
X225960706Y-79794348D01*
X225979015Y-79821748D01*
X225995700Y-79876750D01*
X225995700Y-80425500D01*
X225976793Y-80483691D01*
X225927293Y-80519655D01*
X225896700Y-80524500D01*
X225615300Y-80524500D01*
X225557109Y-80505593D01*
X225521145Y-80456093D01*
X225516300Y-80425500D01*
X225516299Y-80197079D01*
X225516298Y-80197076D01*
X225501447Y-80103300D01*
X225501446Y-80103298D01*
X225501446Y-80103296D01*
X225443850Y-79990258D01*
X225354142Y-79900550D01*
X225241104Y-79842954D01*
X225241105Y-79842954D01*
X225147322Y-79828100D01*
X224534279Y-79828100D01*
X224534276Y-79828101D01*
X224440500Y-79842952D01*
X224440495Y-79842954D01*
X224327459Y-79900549D01*
X224237749Y-79990259D01*
X224180154Y-80103295D01*
X224165300Y-80197077D01*
X224165300Y-80660120D01*
X224165301Y-80660123D01*
X224180152Y-80753899D01*
X224180154Y-80753904D01*
X224237750Y-80866942D01*
X224327458Y-80956650D01*
X224440496Y-81014246D01*
X224534281Y-81029100D01*
X225025688Y-81029099D01*
X225063571Y-81036634D01*
X225157400Y-81075500D01*
X225896700Y-81075500D01*
X225954891Y-81094407D01*
X225990855Y-81143907D01*
X225995700Y-81174500D01*
X225995700Y-81475500D01*
X225976793Y-81533691D01*
X225927293Y-81569655D01*
X225896700Y-81574500D01*
X223356124Y-81574500D01*
X223297933Y-81555593D01*
X223286120Y-81545504D01*
X221459620Y-79719004D01*
X221431843Y-79664487D01*
X221441414Y-79604055D01*
X221484679Y-79560790D01*
X221529624Y-79550000D01*
X221618999Y-79550000D01*
X221619000Y-79549999D01*
X221619000Y-78925001D01*
X222119000Y-78925001D01*
X222119000Y-79549999D01*
X222119001Y-79550000D01*
X222393623Y-79550000D01*
X222393624Y-79549999D01*
X222466546Y-79535493D01*
X222466548Y-79535492D01*
X222549237Y-79480241D01*
X222549241Y-79480237D01*
X222604492Y-79397548D01*
X222604493Y-79397546D01*
X222618999Y-79324624D01*
X222619000Y-79324622D01*
X222619000Y-79028601D01*
X224115801Y-79028601D01*
X224115801Y-79032803D01*
X224118650Y-79063200D01*
X224118650Y-79063202D01*
X224163454Y-79191247D01*
X224244007Y-79300390D01*
X224244009Y-79300392D01*
X224353152Y-79380945D01*
X224481198Y-79425749D01*
X224511588Y-79428598D01*
X224590800Y-79428598D01*
X224590800Y-79028601D01*
X225090800Y-79028601D01*
X225090800Y-79428598D01*
X225090801Y-79428599D01*
X225170003Y-79428599D01*
X225200400Y-79425749D01*
X225200402Y-79425749D01*
X225328447Y-79380945D01*
X225437590Y-79300392D01*
X225437592Y-79300390D01*
X225518145Y-79191247D01*
X225562949Y-79063201D01*
X225565799Y-79032811D01*
X225565800Y-79032810D01*
X225565800Y-79028601D01*
X225565799Y-79028600D01*
X225090801Y-79028600D01*
X225090800Y-79028601D01*
X224590800Y-79028601D01*
X224590799Y-79028600D01*
X224115802Y-79028600D01*
X224115801Y-79028601D01*
X222619000Y-79028601D01*
X222619000Y-78925001D01*
X222618999Y-78925000D01*
X222119001Y-78925000D01*
X222119000Y-78925001D01*
X221619000Y-78925001D01*
X221619000Y-78524388D01*
X224115800Y-78524388D01*
X224115800Y-78528599D01*
X224115801Y-78528600D01*
X224590799Y-78528600D01*
X224590800Y-78528599D01*
X224590800Y-78128601D01*
X225090800Y-78128601D01*
X225090800Y-78528599D01*
X225090801Y-78528600D01*
X225565798Y-78528600D01*
X225565799Y-78528599D01*
X225565799Y-78524396D01*
X225562949Y-78493999D01*
X225562949Y-78493997D01*
X225518145Y-78365952D01*
X225437592Y-78256809D01*
X225437590Y-78256807D01*
X225328447Y-78176254D01*
X225200401Y-78131450D01*
X225170011Y-78128600D01*
X225090801Y-78128600D01*
X225090800Y-78128601D01*
X224590800Y-78128601D01*
X224590800Y-78128599D01*
X224511597Y-78128600D01*
X224481199Y-78131450D01*
X224481197Y-78131450D01*
X224353152Y-78176254D01*
X224244009Y-78256807D01*
X224244007Y-78256809D01*
X224163454Y-78365952D01*
X224118650Y-78493998D01*
X224115800Y-78524388D01*
X221619000Y-78524388D01*
X221619000Y-77800001D01*
X222119000Y-77800001D01*
X222119000Y-78424999D01*
X222119001Y-78425000D01*
X222618999Y-78425000D01*
X222619000Y-78424999D01*
X222619000Y-78025377D01*
X222618999Y-78025375D01*
X222604493Y-77952453D01*
X222604492Y-77952451D01*
X222549241Y-77869762D01*
X222549237Y-77869758D01*
X222466548Y-77814507D01*
X222466546Y-77814506D01*
X222393624Y-77800000D01*
X222119001Y-77800000D01*
X222119000Y-77800001D01*
X221619000Y-77800001D01*
X221618999Y-77800000D01*
X221344375Y-77800000D01*
X221271453Y-77814506D01*
X221271451Y-77814507D01*
X221188762Y-77869758D01*
X221188758Y-77869762D01*
X221133507Y-77952451D01*
X221133506Y-77952453D01*
X221118998Y-78025383D01*
X221118718Y-78028232D01*
X221118193Y-78029431D01*
X221118051Y-78030147D01*
X221117894Y-78030115D01*
X221094198Y-78084289D01*
X221041411Y-78115228D01*
X220980521Y-78109231D01*
X220950193Y-78088533D01*
X219580602Y-76718943D01*
X219580600Y-76718942D01*
X219580599Y-76718941D01*
X219566113Y-76712941D01*
X219566112Y-76712941D01*
X219479344Y-76677000D01*
X219479343Y-76677000D01*
X202900623Y-76677000D01*
X202842432Y-76658093D01*
X202830624Y-76648008D01*
X202749494Y-76566879D01*
X202721718Y-76512363D01*
X202720499Y-76496876D01*
X202720499Y-76020478D01*
X202720498Y-76020476D01*
X202705647Y-75926700D01*
X202705646Y-75926698D01*
X202705646Y-75926696D01*
X202648050Y-75813658D01*
X202558342Y-75723950D01*
X202445304Y-75666354D01*
X202445305Y-75666354D01*
X202351522Y-75651500D01*
X201888479Y-75651500D01*
X201888476Y-75651501D01*
X201794700Y-75666352D01*
X201794695Y-75666354D01*
X201681659Y-75723949D01*
X201591949Y-75813659D01*
X201534354Y-75926695D01*
X201519500Y-76020477D01*
X201519500Y-76633520D01*
X201519501Y-76633523D01*
X201534352Y-76727299D01*
X201534354Y-76727304D01*
X201591950Y-76840342D01*
X201681658Y-76930050D01*
X201794696Y-76987646D01*
X201888481Y-77002500D01*
X202351518Y-77002499D01*
X202351522Y-77002499D01*
X202355400Y-77002194D01*
X202355546Y-77004062D01*
X202409025Y-77012511D01*
X202434118Y-77030734D01*
X202485880Y-77082496D01*
X202513657Y-77137013D01*
X202504086Y-77197445D01*
X202485879Y-77222504D01*
X202434118Y-77274264D01*
X202379601Y-77302041D01*
X202355461Y-77302048D01*
X202355402Y-77302805D01*
X202351524Y-77302500D01*
X201888479Y-77302500D01*
X201888476Y-77302501D01*
X201794700Y-77317352D01*
X201794695Y-77317354D01*
X201681659Y-77374949D01*
X201591949Y-77464659D01*
X201534354Y-77577695D01*
X201519500Y-77671477D01*
X201519500Y-77671479D01*
X201519500Y-77671481D01*
X201519500Y-77976800D01*
X201519501Y-78280500D01*
X201500594Y-78338691D01*
X201451094Y-78374655D01*
X201420501Y-78379500D01*
X201169500Y-78379500D01*
X201111309Y-78360593D01*
X201075345Y-78311093D01*
X201070500Y-78280500D01*
X201070499Y-77671479D01*
X201070498Y-77671476D01*
X201070329Y-77670412D01*
X201060992Y-77611452D01*
X201055647Y-77577700D01*
X201055646Y-77577698D01*
X201055646Y-77577696D01*
X200998050Y-77464658D01*
X200908342Y-77374950D01*
X200795304Y-77317354D01*
X200795305Y-77317354D01*
X200701522Y-77302500D01*
X200238479Y-77302500D01*
X200238476Y-77302501D01*
X200144700Y-77317352D01*
X200144692Y-77317354D01*
X200040153Y-77370621D01*
X199979721Y-77380193D01*
X199925205Y-77352416D01*
X199920399Y-77347254D01*
X199874668Y-77294478D01*
X199874667Y-77294477D01*
X199874666Y-77294476D01*
X199830186Y-77265891D01*
X199791455Y-77218525D01*
X199787961Y-77157440D01*
X199793654Y-77141485D01*
X199798965Y-77129857D01*
X199801089Y-77115078D01*
X199803502Y-77103371D01*
X199816860Y-77053882D01*
X199816862Y-77053872D01*
X199816864Y-77053865D01*
X199821890Y-77029430D01*
X199822291Y-77026628D01*
X199824318Y-77001856D01*
X199825192Y-76960476D01*
X199845325Y-76902699D01*
X199895573Y-76867789D01*
X199956745Y-76869082D01*
X199994171Y-76892563D01*
X200031658Y-76930050D01*
X200144696Y-76987646D01*
X200238481Y-77002500D01*
X200701518Y-77002499D01*
X200701520Y-77002499D01*
X200701521Y-77002498D01*
X200748452Y-76995066D01*
X200795299Y-76987647D01*
X200795299Y-76987646D01*
X200795304Y-76987646D01*
X200908342Y-76930050D01*
X200998050Y-76840342D01*
X201055646Y-76727304D01*
X201070500Y-76633519D01*
X201070499Y-76020482D01*
X201070498Y-76020478D01*
X201070498Y-76020476D01*
X201055647Y-75926700D01*
X201055646Y-75926698D01*
X201055646Y-75926696D01*
X200998050Y-75813658D01*
X200908342Y-75723950D01*
X200795304Y-75666354D01*
X200795305Y-75666354D01*
X200701522Y-75651500D01*
X200238479Y-75651500D01*
X200238476Y-75651501D01*
X200144700Y-75666352D01*
X200144695Y-75666354D01*
X200031659Y-75723949D01*
X199941949Y-75813659D01*
X199884354Y-75926695D01*
X199869499Y-76020479D01*
X199869195Y-76024354D01*
X199868211Y-76024276D01*
X199850593Y-76078501D01*
X199825507Y-76102622D01*
X199824656Y-76103190D01*
X199500832Y-76427013D01*
X199480695Y-76441269D01*
X199481213Y-76442124D01*
X199477050Y-76444643D01*
X199462271Y-76455705D01*
X199404354Y-76475435D01*
X199400905Y-76475424D01*
X199388949Y-76475176D01*
X199387483Y-76475161D01*
X199384666Y-76475132D01*
X199384189Y-76475132D01*
X199384145Y-76475132D01*
X199379901Y-76475176D01*
X199301317Y-76476838D01*
X199299333Y-76476880D01*
X199299332Y-76476880D01*
X199299306Y-76476881D01*
X199274523Y-76478912D01*
X199271699Y-76479317D01*
X199247348Y-76484331D01*
X199247339Y-76484333D01*
X199247336Y-76484334D01*
X199223871Y-76490667D01*
X199158227Y-76508385D01*
X199145817Y-76512160D01*
X199144254Y-76512691D01*
X199143162Y-76513065D01*
X199138073Y-76515487D01*
X199137814Y-76514943D01*
X199121657Y-76522187D01*
X199103748Y-76527446D01*
X199103742Y-76527449D01*
X198982673Y-76605255D01*
X198888422Y-76714028D01*
X198828634Y-76844943D01*
X198808153Y-76987397D01*
X198808153Y-76987400D01*
X198808189Y-76987647D01*
X198815224Y-77036585D01*
X198804789Y-77096874D01*
X198760910Y-77139515D01*
X198700348Y-77148222D01*
X198647229Y-77120677D01*
X198482087Y-76955535D01*
X198482084Y-76955533D01*
X198473161Y-76950381D01*
X198432222Y-76904910D01*
X198425828Y-76844060D01*
X198456422Y-76791073D01*
X198462328Y-76786254D01*
X198462792Y-76785790D01*
X198543345Y-76676647D01*
X198588149Y-76548601D01*
X198590999Y-76518211D01*
X198591000Y-76518210D01*
X198591000Y-76514001D01*
X198590999Y-76514000D01*
X197141002Y-76514000D01*
X197141001Y-76514001D01*
X197141001Y-76518203D01*
X197143850Y-76548600D01*
X197143850Y-76548602D01*
X197188654Y-76676647D01*
X197230033Y-76732711D01*
X197249375Y-76790758D01*
X197230904Y-76849089D01*
X197181675Y-76885423D01*
X197150378Y-76890500D01*
X196456053Y-76890500D01*
X196370347Y-76890500D01*
X196324819Y-76902699D01*
X196287556Y-76912683D01*
X196213342Y-76955531D01*
X196213337Y-76955535D01*
X195471374Y-77697496D01*
X195416858Y-77725273D01*
X195356426Y-77715702D01*
X195342583Y-77707147D01*
X195251883Y-77640207D01*
X195123703Y-77595355D01*
X195123694Y-77595353D01*
X195093274Y-77592500D01*
X195093266Y-77592500D01*
X194034734Y-77592500D01*
X194034725Y-77592500D01*
X194004305Y-77595353D01*
X194004296Y-77595355D01*
X193876116Y-77640207D01*
X193766855Y-77720845D01*
X193766845Y-77720855D01*
X193686207Y-77830116D01*
X193661335Y-77901198D01*
X193624270Y-77949878D01*
X193567891Y-77967500D01*
X193433500Y-77967500D01*
X193375309Y-77948593D01*
X193339345Y-77899093D01*
X193334500Y-77868500D01*
X193334500Y-77605510D01*
X193326598Y-77555621D01*
X193318719Y-77505874D01*
X193318716Y-77505869D01*
X193318716Y-77505867D01*
X193257529Y-77385782D01*
X193257528Y-77385780D01*
X193162220Y-77290472D01*
X193162217Y-77290470D01*
X193042132Y-77229283D01*
X193042127Y-77229281D01*
X193042126Y-77229281D01*
X193008913Y-77224020D01*
X192942490Y-77213500D01*
X192942488Y-77213500D01*
X192375512Y-77213500D01*
X192375510Y-77213500D01*
X192275874Y-77229281D01*
X192275867Y-77229283D01*
X192155782Y-77290470D01*
X192060470Y-77385782D01*
X192010199Y-77484445D01*
X191966935Y-77527710D01*
X191921990Y-77538500D01*
X191745010Y-77538500D01*
X191686819Y-77519593D01*
X191656801Y-77484445D01*
X191606529Y-77385782D01*
X191606528Y-77385780D01*
X191511220Y-77290472D01*
X191511217Y-77290470D01*
X191391132Y-77229283D01*
X191391127Y-77229281D01*
X191391126Y-77229281D01*
X191357913Y-77224020D01*
X191291490Y-77213500D01*
X191291488Y-77213500D01*
X190858835Y-77213500D01*
X190800644Y-77194593D01*
X190788831Y-77184504D01*
X190758166Y-77153839D01*
X190730389Y-77099322D01*
X190739960Y-77038890D01*
X190758000Y-77014061D01*
X190758000Y-76564001D01*
X191258000Y-76564001D01*
X191258000Y-77013998D01*
X191258001Y-77013999D01*
X191303431Y-77013999D01*
X191303436Y-77013998D01*
X191360004Y-77007918D01*
X191360006Y-77007917D01*
X191487983Y-76960185D01*
X191597327Y-76878331D01*
X191597331Y-76878327D01*
X191679185Y-76768983D01*
X191726916Y-76641009D01*
X191726918Y-76641001D01*
X191733000Y-76584434D01*
X191733000Y-76564001D01*
X191934001Y-76564001D01*
X191934001Y-76584436D01*
X191940081Y-76641004D01*
X191940082Y-76641006D01*
X191987814Y-76768983D01*
X192069668Y-76878327D01*
X192069672Y-76878331D01*
X192179016Y-76960185D01*
X192306990Y-77007916D01*
X192306998Y-77007918D01*
X192363566Y-77013999D01*
X192409000Y-77013998D01*
X192409000Y-76564001D01*
X192909000Y-76564001D01*
X192909000Y-77013998D01*
X192909001Y-77013999D01*
X192954431Y-77013999D01*
X192954436Y-77013998D01*
X193011004Y-77007918D01*
X193011006Y-77007917D01*
X193138983Y-76960185D01*
X193248327Y-76878331D01*
X193248331Y-76878327D01*
X193330185Y-76768983D01*
X193359336Y-76690824D01*
X193588999Y-76690824D01*
X193595401Y-76750370D01*
X193595403Y-76750381D01*
X193645646Y-76885088D01*
X193645647Y-76885090D01*
X193731807Y-77000184D01*
X193731815Y-77000192D01*
X193846909Y-77086352D01*
X193846911Y-77086353D01*
X193981618Y-77136596D01*
X193981629Y-77136598D01*
X194041176Y-77143000D01*
X194313999Y-77143000D01*
X194314000Y-77142999D01*
X194314000Y-76643001D01*
X194814000Y-76643001D01*
X194814000Y-77142999D01*
X194814001Y-77143000D01*
X195086824Y-77143000D01*
X195146370Y-77136598D01*
X195146381Y-77136596D01*
X195281088Y-77086353D01*
X195281090Y-77086352D01*
X195396184Y-77000192D01*
X195396192Y-77000184D01*
X195482352Y-76885090D01*
X195482353Y-76885088D01*
X195532596Y-76750381D01*
X195532598Y-76750370D01*
X195539000Y-76690824D01*
X195539000Y-76643001D01*
X195538999Y-76643000D01*
X194814001Y-76643000D01*
X194814000Y-76643001D01*
X194314000Y-76643001D01*
X194313999Y-76643000D01*
X193589001Y-76643000D01*
X193589000Y-76643001D01*
X193589000Y-76690824D01*
X193588999Y-76690824D01*
X193359336Y-76690824D01*
X193377916Y-76641009D01*
X193377918Y-76641001D01*
X193384000Y-76584434D01*
X193384000Y-76564001D01*
X193383999Y-76564000D01*
X192909001Y-76564000D01*
X192909000Y-76564001D01*
X192409000Y-76564001D01*
X192408999Y-76564000D01*
X191934002Y-76564000D01*
X191934001Y-76564001D01*
X191733000Y-76564001D01*
X191732999Y-76564000D01*
X191258001Y-76564000D01*
X191258000Y-76564001D01*
X190758000Y-76564001D01*
X190757999Y-76564000D01*
X190270807Y-76564000D01*
X190241148Y-76579111D01*
X190180716Y-76569537D01*
X190155661Y-76551333D01*
X190095862Y-76491535D01*
X190095857Y-76491531D01*
X190021642Y-76448683D01*
X190021644Y-76448683D01*
X189985508Y-76439001D01*
X189938853Y-76426500D01*
X189938851Y-76426500D01*
X189782310Y-76426500D01*
X189732811Y-76413237D01*
X189717995Y-76404683D01*
X189717994Y-76404682D01*
X189717993Y-76404682D01*
X189635207Y-76382500D01*
X189635205Y-76382500D01*
X189171415Y-76382500D01*
X189113224Y-76363593D01*
X189101412Y-76353504D01*
X188843082Y-76095175D01*
X193589000Y-76095175D01*
X193589000Y-76142999D01*
X193589001Y-76143000D01*
X194313999Y-76143000D01*
X194314000Y-76142999D01*
X194314000Y-75643001D01*
X194814000Y-75643001D01*
X194814000Y-76142999D01*
X194814001Y-76143000D01*
X195538999Y-76143000D01*
X195539000Y-76142999D01*
X195539000Y-76095175D01*
X195532598Y-76035629D01*
X195532595Y-76035616D01*
X195522962Y-76009788D01*
X197141000Y-76009788D01*
X197141000Y-76013999D01*
X197141001Y-76014000D01*
X197615999Y-76014000D01*
X197616000Y-76013999D01*
X197616000Y-75614001D01*
X198116000Y-75614001D01*
X198116000Y-76013999D01*
X198116001Y-76014000D01*
X198590998Y-76014000D01*
X198590999Y-76013999D01*
X198590999Y-76009796D01*
X198588149Y-75979399D01*
X198588149Y-75979397D01*
X198543345Y-75851352D01*
X198462792Y-75742209D01*
X198462790Y-75742207D01*
X198353647Y-75661654D01*
X198225601Y-75616850D01*
X198195211Y-75614000D01*
X198116001Y-75614000D01*
X198116000Y-75614001D01*
X197616000Y-75614001D01*
X197616000Y-75613999D01*
X197536797Y-75614000D01*
X197506399Y-75616850D01*
X197506397Y-75616850D01*
X197378352Y-75661654D01*
X197269209Y-75742207D01*
X197269207Y-75742209D01*
X197188654Y-75851352D01*
X197143850Y-75979398D01*
X197141000Y-76009788D01*
X195522962Y-76009788D01*
X195482353Y-75900911D01*
X195482352Y-75900909D01*
X195396192Y-75785815D01*
X195396184Y-75785807D01*
X195281090Y-75699647D01*
X195281088Y-75699646D01*
X195146381Y-75649403D01*
X195146370Y-75649401D01*
X195086824Y-75643000D01*
X194814001Y-75643000D01*
X194814000Y-75643001D01*
X194314000Y-75643001D01*
X194313999Y-75643000D01*
X194041176Y-75643000D01*
X193981629Y-75649401D01*
X193981618Y-75649403D01*
X193846911Y-75699646D01*
X193846909Y-75699647D01*
X193731815Y-75785807D01*
X193731807Y-75785815D01*
X193645647Y-75900909D01*
X193645646Y-75900911D01*
X193595405Y-76035616D01*
X193595401Y-76035629D01*
X193589000Y-76095175D01*
X188843082Y-76095175D01*
X188814442Y-76066535D01*
X188814437Y-76066531D01*
X188774659Y-76043565D01*
X190283000Y-76043565D01*
X190283000Y-76063999D01*
X190283001Y-76064000D01*
X190757999Y-76064000D01*
X190758000Y-76063999D01*
X190758000Y-75614001D01*
X191258000Y-75614001D01*
X191258000Y-76063999D01*
X191258001Y-76064000D01*
X191732998Y-76064000D01*
X191732999Y-76063999D01*
X191732999Y-76043569D01*
X191732998Y-76043565D01*
X191934000Y-76043565D01*
X191934000Y-76063999D01*
X191934001Y-76064000D01*
X192408999Y-76064000D01*
X192409000Y-76063999D01*
X192409000Y-75614001D01*
X192909000Y-75614001D01*
X192909000Y-76063999D01*
X192909001Y-76064000D01*
X193383998Y-76064000D01*
X193383999Y-76063999D01*
X193383999Y-76043569D01*
X193383998Y-76043563D01*
X193377918Y-75986995D01*
X193377917Y-75986993D01*
X193330185Y-75859016D01*
X193248331Y-75749672D01*
X193248327Y-75749668D01*
X193138983Y-75667814D01*
X193011009Y-75620083D01*
X193011001Y-75620081D01*
X192954434Y-75614000D01*
X192909001Y-75614000D01*
X192909000Y-75614001D01*
X192409000Y-75614001D01*
X192409000Y-75613999D01*
X192363569Y-75614000D01*
X192363563Y-75614001D01*
X192306994Y-75620081D01*
X192306993Y-75620082D01*
X192179016Y-75667814D01*
X192069672Y-75749668D01*
X192069668Y-75749672D01*
X191987814Y-75859016D01*
X191940083Y-75986990D01*
X191940081Y-75986998D01*
X191934000Y-76043565D01*
X191732998Y-76043565D01*
X191732998Y-76043563D01*
X191726918Y-75986995D01*
X191726917Y-75986993D01*
X191679185Y-75859016D01*
X191597331Y-75749672D01*
X191597327Y-75749668D01*
X191487983Y-75667814D01*
X191360009Y-75620083D01*
X191360001Y-75620081D01*
X191303434Y-75614000D01*
X191258001Y-75614000D01*
X191258000Y-75614001D01*
X190758000Y-75614001D01*
X190758000Y-75613999D01*
X190712569Y-75614000D01*
X190712563Y-75614001D01*
X190655994Y-75620081D01*
X190655993Y-75620082D01*
X190528016Y-75667814D01*
X190418672Y-75749668D01*
X190418668Y-75749672D01*
X190336814Y-75859016D01*
X190289083Y-75986990D01*
X190289081Y-75986998D01*
X190283000Y-76043565D01*
X188774659Y-76043565D01*
X188740222Y-76023683D01*
X188740224Y-76023683D01*
X188708101Y-76015076D01*
X188657433Y-76001500D01*
X188657431Y-76001500D01*
X188108650Y-76001500D01*
X188050459Y-75982593D01*
X188014495Y-75933093D01*
X188013029Y-75928145D01*
X188009318Y-75914293D01*
X188001591Y-75900909D01*
X187966468Y-75840074D01*
X187966466Y-75840072D01*
X187966465Y-75840070D01*
X187684930Y-75558535D01*
X187684927Y-75558533D01*
X187684925Y-75558531D01*
X187610710Y-75515683D01*
X187610712Y-75515683D01*
X187578589Y-75507076D01*
X187527921Y-75493500D01*
X185526853Y-75493500D01*
X185441147Y-75493500D01*
X185390478Y-75507076D01*
X185358356Y-75515683D01*
X185284142Y-75558531D01*
X185284137Y-75558535D01*
X185208168Y-75634504D01*
X185153651Y-75662281D01*
X185138165Y-75663500D01*
X184732479Y-75663500D01*
X184732476Y-75663501D01*
X184638700Y-75678352D01*
X184638695Y-75678354D01*
X184525659Y-75735949D01*
X184435949Y-75825659D01*
X184378354Y-75938695D01*
X184363500Y-76032477D01*
X184363500Y-76495520D01*
X184363501Y-76495524D01*
X184377436Y-76583515D01*
X184367864Y-76643947D01*
X184324598Y-76687210D01*
X184279655Y-76698000D01*
X183843487Y-76698000D01*
X183816576Y-76709147D01*
X183816574Y-76709148D01*
X183816573Y-76709147D01*
X183746458Y-76738189D01*
X182749251Y-77735395D01*
X182694734Y-77763172D01*
X182634302Y-77753601D01*
X182595962Y-77718913D01*
X182594177Y-77716136D01*
X182594177Y-77716135D01*
X182499928Y-77607365D01*
X182499927Y-77607364D01*
X182499926Y-77607363D01*
X182378857Y-77529557D01*
X182378854Y-77529555D01*
X182378853Y-77529555D01*
X182378850Y-77529554D01*
X182240764Y-77489008D01*
X182240761Y-77489008D01*
X182096839Y-77489008D01*
X182096835Y-77489008D01*
X181958749Y-77529554D01*
X181958742Y-77529557D01*
X181837672Y-77607364D01*
X181834130Y-77611452D01*
X181816736Y-77627262D01*
X181813444Y-77629605D01*
X181772644Y-77665162D01*
X181759828Y-77674630D01*
X181737103Y-77688742D01*
X181729777Y-77692871D01*
X181691478Y-77712361D01*
X181691467Y-77712366D01*
X181691455Y-77712373D01*
X181688471Y-77713973D01*
X181683536Y-77716622D01*
X181682739Y-77717072D01*
X181675369Y-77721440D01*
X181621996Y-77754585D01*
X181620619Y-77755519D01*
X181603114Y-77764967D01*
X181602393Y-77765267D01*
X181602230Y-77765335D01*
X181601349Y-77765699D01*
X181601345Y-77765702D01*
X181579189Y-77787857D01*
X181574235Y-77792483D01*
X181536493Y-77825376D01*
X181531252Y-77830107D01*
X181530663Y-77830657D01*
X181522799Y-77842003D01*
X181511440Y-77855605D01*
X180641656Y-78725391D01*
X180567391Y-78799656D01*
X180527200Y-78896687D01*
X180527200Y-84523231D01*
X180508293Y-84581422D01*
X180458793Y-84617386D01*
X180397607Y-84617386D01*
X180380804Y-84610148D01*
X180372815Y-84605792D01*
X180372808Y-84605789D01*
X180283647Y-84585439D01*
X180239500Y-84585439D01*
X180181309Y-84566532D01*
X180145345Y-84517032D01*
X180140500Y-84486439D01*
X180140500Y-76403197D01*
X181104353Y-76403197D01*
X181104353Y-76403202D01*
X181124834Y-76545656D01*
X181169291Y-76643001D01*
X181184623Y-76676573D01*
X181251426Y-76753668D01*
X181278873Y-76785344D01*
X181378063Y-76849089D01*
X181399947Y-76863153D01*
X181500116Y-76892565D01*
X181538035Y-76903699D01*
X181538036Y-76903699D01*
X181538039Y-76903700D01*
X181538041Y-76903700D01*
X181681959Y-76903700D01*
X181681961Y-76903700D01*
X181820053Y-76863153D01*
X181941128Y-76785343D01*
X182035377Y-76676573D01*
X182095165Y-76545657D01*
X182102374Y-76495518D01*
X182115647Y-76403202D01*
X182115647Y-76403197D01*
X182095165Y-76260743D01*
X182073319Y-76212907D01*
X182035377Y-76129827D01*
X181941128Y-76021057D01*
X181941127Y-76021056D01*
X181941126Y-76021055D01*
X181820057Y-75943249D01*
X181820054Y-75943247D01*
X181820053Y-75943247D01*
X181804554Y-75938696D01*
X181681964Y-75902700D01*
X181681961Y-75902700D01*
X181538039Y-75902700D01*
X181538035Y-75902700D01*
X181399949Y-75943246D01*
X181399942Y-75943249D01*
X181278873Y-76021055D01*
X181184622Y-76129828D01*
X181124834Y-76260743D01*
X181104353Y-76403197D01*
X180140500Y-76403197D01*
X180140500Y-76004860D01*
X180140977Y-75995156D01*
X180156059Y-75842023D01*
X180159845Y-75822991D01*
X180182086Y-75749672D01*
X180203097Y-75680408D01*
X180210515Y-75662497D01*
X180280764Y-75531070D01*
X180291525Y-75514964D01*
X180386063Y-75399770D01*
X180399770Y-75386063D01*
X180514964Y-75291525D01*
X180531070Y-75280764D01*
X180662497Y-75210515D01*
X180680408Y-75203097D01*
X180822991Y-75159845D01*
X180842023Y-75156059D01*
X180995157Y-75140977D01*
X181004861Y-75140500D01*
X181032068Y-75140500D01*
X232967932Y-75140500D01*
X232995139Y-75140500D01*
X233004843Y-75140977D01*
G37*
%TD.AperFunction*%
%TA.AperFunction,Conductor*%
G36*
X186212796Y-88582606D02*
G01*
X186237851Y-88600809D01*
X186487040Y-88849998D01*
X186514816Y-88904513D01*
X186505245Y-88964945D01*
X186461980Y-89008210D01*
X186417035Y-89019000D01*
X185885033Y-89019000D01*
X185826842Y-89000093D01*
X185815029Y-88990004D01*
X185730028Y-88905003D01*
X185702251Y-88850486D01*
X185711822Y-88790054D01*
X185755087Y-88746789D01*
X185800032Y-88735999D01*
X185804431Y-88735999D01*
X185804436Y-88735998D01*
X185861004Y-88729918D01*
X185861006Y-88729917D01*
X185988983Y-88682185D01*
X186103999Y-88596086D01*
X186104861Y-88597238D01*
X186152364Y-88573035D01*
X186212796Y-88582606D01*
G37*
%TD.AperFunction*%
%TA.AperFunction,Conductor*%
G36*
X215409293Y-85664936D02*
G01*
X215415003Y-85670213D01*
X215428092Y-85683302D01*
X215486502Y-85722330D01*
X215583761Y-85787318D01*
X215583767Y-85787320D01*
X215583769Y-85787322D01*
X215756749Y-85858973D01*
X215940384Y-85895500D01*
X215940385Y-85895500D01*
X216127569Y-85895500D01*
X216185760Y-85914407D01*
X216221724Y-85963907D01*
X216221724Y-86025093D01*
X216186888Y-86073760D01*
X216183303Y-86076444D01*
X216175469Y-86082307D01*
X216117551Y-86102035D01*
X216114105Y-86102024D01*
X216102149Y-86101776D01*
X216100683Y-86101761D01*
X216097866Y-86101732D01*
X216097389Y-86101732D01*
X216097345Y-86101732D01*
X216093101Y-86101776D01*
X216014517Y-86103438D01*
X216012533Y-86103480D01*
X216012532Y-86103480D01*
X216012506Y-86103481D01*
X215987723Y-86105512D01*
X215984899Y-86105917D01*
X215960548Y-86110931D01*
X215960539Y-86110933D01*
X215960536Y-86110934D01*
X215938062Y-86117000D01*
X215871427Y-86134985D01*
X215859017Y-86138760D01*
X215857454Y-86139291D01*
X215856362Y-86139665D01*
X215851273Y-86142087D01*
X215851014Y-86141543D01*
X215834857Y-86148787D01*
X215816948Y-86154046D01*
X215816942Y-86154049D01*
X215695873Y-86231855D01*
X215601622Y-86340628D01*
X215541834Y-86471543D01*
X215521353Y-86613997D01*
X215521353Y-86614002D01*
X215541834Y-86756456D01*
X215599835Y-86883457D01*
X215601623Y-86887373D01*
X215686191Y-86984970D01*
X215695873Y-86996144D01*
X215798061Y-87061816D01*
X215836792Y-87109182D01*
X215840286Y-87170267D01*
X215814542Y-87215104D01*
X214548144Y-88481504D01*
X214493627Y-88509281D01*
X214478140Y-88510500D01*
X211923460Y-88510500D01*
X211865269Y-88491593D01*
X211829305Y-88442093D01*
X211829305Y-88380907D01*
X211853456Y-88341496D01*
X212139829Y-88055123D01*
X213005646Y-87189304D01*
X213060161Y-87161529D01*
X213120593Y-87171100D01*
X213163858Y-87214365D01*
X213165701Y-87218183D01*
X213188621Y-87268371D01*
X213282873Y-87377144D01*
X213337845Y-87412472D01*
X213403947Y-87454953D01*
X213497397Y-87482392D01*
X213542035Y-87495499D01*
X213542036Y-87495499D01*
X213542039Y-87495500D01*
X213542041Y-87495500D01*
X213685959Y-87495500D01*
X213685961Y-87495500D01*
X213824053Y-87454953D01*
X213945128Y-87377143D01*
X214039377Y-87268373D01*
X214099165Y-87137457D01*
X214101289Y-87122678D01*
X214103702Y-87110971D01*
X214117060Y-87061482D01*
X214117062Y-87061472D01*
X214117064Y-87061465D01*
X214122090Y-87037030D01*
X214122491Y-87034228D01*
X214124518Y-87009456D01*
X214126219Y-86928956D01*
X214126262Y-86924966D01*
X214126265Y-86924643D01*
X214126265Y-86924161D01*
X214126254Y-86923066D01*
X214126221Y-86919861D01*
X214125972Y-86907901D01*
X214143668Y-86849332D01*
X214145671Y-86846554D01*
X214156754Y-86831749D01*
X214156756Y-86831744D01*
X214158877Y-86828379D01*
X214159194Y-86828579D01*
X214174201Y-86808149D01*
X215234808Y-85747544D01*
X215237419Y-85741240D01*
X215253536Y-85702330D01*
X215293270Y-85655806D01*
X215352765Y-85641522D01*
X215409293Y-85664936D01*
G37*
%TD.AperFunction*%
%TA.AperFunction,Conductor*%
G36*
X185472004Y-86660152D02*
G01*
X185934762Y-87122910D01*
X185962539Y-87177427D01*
X185952968Y-87237859D01*
X185909703Y-87281124D01*
X185854177Y-87291347D01*
X185804436Y-87286000D01*
X185784001Y-87286000D01*
X185784000Y-87286001D01*
X185784000Y-88162000D01*
X185765093Y-88220191D01*
X185715593Y-88256155D01*
X185685000Y-88261000D01*
X185383000Y-88261000D01*
X185324809Y-88242093D01*
X185288845Y-88192593D01*
X185284000Y-88162000D01*
X185284000Y-87561468D01*
X185291535Y-87523585D01*
X185303000Y-87495907D01*
X185303000Y-87390881D01*
X185303000Y-86730156D01*
X185321907Y-86671965D01*
X185371407Y-86636001D01*
X185432593Y-86636001D01*
X185472004Y-86660152D01*
G37*
%TD.AperFunction*%
%TA.AperFunction,Conductor*%
G36*
X211049804Y-85625014D02*
G01*
X211108092Y-85683302D01*
X211166502Y-85722330D01*
X211263761Y-85787318D01*
X211263767Y-85787320D01*
X211263769Y-85787322D01*
X211388886Y-85839147D01*
X211435411Y-85878884D01*
X211450000Y-85930611D01*
X211450000Y-86077640D01*
X211431093Y-86135831D01*
X211421004Y-86147644D01*
X209596644Y-87972004D01*
X209542127Y-87999781D01*
X209526640Y-88001000D01*
X209389759Y-88001000D01*
X209331568Y-87982093D01*
X209298295Y-87939886D01*
X209265808Y-87861456D01*
X209191544Y-87787191D01*
X209191544Y-87787192D01*
X209180556Y-87776204D01*
X209152779Y-87721687D01*
X209162350Y-87661255D01*
X209180556Y-87636196D01*
X209973461Y-86843291D01*
X210840609Y-85976144D01*
X210869108Y-85907339D01*
X210876662Y-85889103D01*
X210876663Y-85889100D01*
X210880800Y-85879113D01*
X210880800Y-85695018D01*
X210899707Y-85636827D01*
X210949207Y-85600863D01*
X211010393Y-85600863D01*
X211049804Y-85625014D01*
G37*
%TD.AperFunction*%
%TA.AperFunction,Conductor*%
G36*
X218829691Y-85914407D02*
G01*
X218865655Y-85963907D01*
X218870500Y-85994500D01*
X218870500Y-86150139D01*
X218851593Y-86208330D01*
X218841504Y-86220143D01*
X217152995Y-87908652D01*
X217098478Y-87936429D01*
X217038046Y-87926858D01*
X216994781Y-87883593D01*
X216985210Y-87823161D01*
X216992938Y-87797521D01*
X217002673Y-87776204D01*
X217049148Y-87674440D01*
X217069630Y-87531983D01*
X217066150Y-87507780D01*
X217049148Y-87389526D01*
X217040730Y-87371093D01*
X216989360Y-87258610D01*
X216895111Y-87149840D01*
X216895110Y-87149839D01*
X216895109Y-87149838D01*
X216834946Y-87111174D01*
X216796214Y-87063808D01*
X216792721Y-87002722D01*
X216818465Y-86957886D01*
X217304809Y-86471543D01*
X217851856Y-85924496D01*
X217906373Y-85896719D01*
X217921860Y-85895500D01*
X218771500Y-85895500D01*
X218829691Y-85914407D01*
G37*
%TD.AperFunction*%
%TA.AperFunction,Conductor*%
G36*
X206362373Y-85062386D02*
G01*
X206403906Y-85107316D01*
X206411098Y-85129449D01*
X206432429Y-85236688D01*
X206432429Y-85236690D01*
X206507808Y-85418673D01*
X206507814Y-85418685D01*
X206617249Y-85582462D01*
X206617252Y-85582466D01*
X206756533Y-85721747D01*
X206756537Y-85721750D01*
X206920314Y-85831185D01*
X206920326Y-85831191D01*
X207102304Y-85906568D01*
X207102315Y-85906571D01*
X207144000Y-85914862D01*
X207144000Y-85128012D01*
X207201007Y-85160925D01*
X207328174Y-85195000D01*
X207459826Y-85195000D01*
X207586993Y-85160925D01*
X207644000Y-85128012D01*
X207644000Y-85914861D01*
X207685684Y-85906571D01*
X207685695Y-85906568D01*
X207867673Y-85831191D01*
X207867687Y-85831184D01*
X207916497Y-85798569D01*
X207975385Y-85781959D01*
X208032789Y-85803135D01*
X208066783Y-85854009D01*
X208070500Y-85880883D01*
X208070500Y-86002739D01*
X208051593Y-86060930D01*
X208041504Y-86072743D01*
X207158244Y-86956004D01*
X207103727Y-86983781D01*
X207088240Y-86985000D01*
X203847760Y-86985000D01*
X203789569Y-86966093D01*
X203753605Y-86916593D01*
X203753605Y-86855407D01*
X203777756Y-86815996D01*
X204032223Y-86561529D01*
X204517309Y-86076444D01*
X204532708Y-86039267D01*
X204546236Y-86006608D01*
X204546236Y-86006605D01*
X204557500Y-85979413D01*
X204557500Y-85880883D01*
X204576407Y-85822692D01*
X204625907Y-85786728D01*
X204687093Y-85786728D01*
X204711503Y-85798569D01*
X204760312Y-85831184D01*
X204760326Y-85831191D01*
X204942304Y-85906568D01*
X204942315Y-85906571D01*
X204984000Y-85914862D01*
X204984000Y-85128012D01*
X205041007Y-85160925D01*
X205168174Y-85195000D01*
X205299826Y-85195000D01*
X205426993Y-85160925D01*
X205484000Y-85128012D01*
X205484000Y-85914861D01*
X205525684Y-85906571D01*
X205525695Y-85906568D01*
X205707673Y-85831191D01*
X205707685Y-85831185D01*
X205871462Y-85721750D01*
X205871466Y-85721747D01*
X206010747Y-85582466D01*
X206010750Y-85582462D01*
X206120185Y-85418685D01*
X206120191Y-85418673D01*
X206195570Y-85236690D01*
X206195570Y-85236688D01*
X206216902Y-85129449D01*
X206246799Y-85076065D01*
X206302364Y-85050449D01*
X206362373Y-85062386D01*
G37*
%TD.AperFunction*%
%TA.AperFunction,Conductor*%
G36*
X202042373Y-85062386D02*
G01*
X202083906Y-85107316D01*
X202091098Y-85129449D01*
X202112429Y-85236688D01*
X202112429Y-85236690D01*
X202187808Y-85418673D01*
X202187814Y-85418685D01*
X202297249Y-85582462D01*
X202297252Y-85582466D01*
X202436533Y-85721747D01*
X202436537Y-85721750D01*
X202600314Y-85831185D01*
X202600326Y-85831191D01*
X202782304Y-85906568D01*
X202782315Y-85906571D01*
X202824000Y-85914862D01*
X202824000Y-85128012D01*
X202881007Y-85160925D01*
X203008174Y-85195000D01*
X203139826Y-85195000D01*
X203266993Y-85160925D01*
X203324000Y-85128012D01*
X203324000Y-85936667D01*
X203327577Y-85942255D01*
X203323976Y-86003334D01*
X203301789Y-86037257D01*
X203152045Y-86187003D01*
X203097529Y-86214781D01*
X203082041Y-86216000D01*
X191773499Y-86216000D01*
X191715308Y-86197093D01*
X191679344Y-86147593D01*
X191674499Y-86117000D01*
X191674499Y-85855499D01*
X191693406Y-85797308D01*
X191742906Y-85761344D01*
X191773494Y-85756499D01*
X192090721Y-85756499D01*
X192116346Y-85759873D01*
X192158247Y-85771101D01*
X192158248Y-85771101D01*
X192250016Y-85771101D01*
X192250032Y-85771100D01*
X192614579Y-85771100D01*
X192672770Y-85790007D01*
X192689399Y-85805270D01*
X192708871Y-85827742D01*
X192708872Y-85827743D01*
X192814302Y-85895499D01*
X192829947Y-85905553D01*
X192894462Y-85924496D01*
X192968035Y-85946099D01*
X192968036Y-85946099D01*
X192968039Y-85946100D01*
X192968041Y-85946100D01*
X193111959Y-85946100D01*
X193111961Y-85946100D01*
X193250053Y-85905553D01*
X193371128Y-85827743D01*
X193465377Y-85718973D01*
X193509096Y-85623240D01*
X193550466Y-85578166D01*
X193610433Y-85566015D01*
X193666089Y-85591432D01*
X193669152Y-85594366D01*
X193796533Y-85721747D01*
X193796537Y-85721750D01*
X193960314Y-85831185D01*
X193960326Y-85831191D01*
X194142304Y-85906568D01*
X194142315Y-85906571D01*
X194184000Y-85914862D01*
X194184000Y-85128012D01*
X194241007Y-85160925D01*
X194368174Y-85195000D01*
X194499826Y-85195000D01*
X194626993Y-85160925D01*
X194684000Y-85128012D01*
X194684000Y-85914861D01*
X194725684Y-85906571D01*
X194725695Y-85906568D01*
X194907673Y-85831191D01*
X194907685Y-85831185D01*
X195071462Y-85721750D01*
X195071466Y-85721747D01*
X195210747Y-85582466D01*
X195210750Y-85582462D01*
X195320185Y-85418685D01*
X195320191Y-85418673D01*
X195395570Y-85236690D01*
X195395570Y-85236688D01*
X195416902Y-85129449D01*
X195446799Y-85076065D01*
X195502364Y-85050449D01*
X195562373Y-85062386D01*
X195603906Y-85107316D01*
X195611098Y-85129449D01*
X195632429Y-85236688D01*
X195632429Y-85236690D01*
X195707808Y-85418673D01*
X195707814Y-85418685D01*
X195817249Y-85582462D01*
X195817252Y-85582466D01*
X195956533Y-85721747D01*
X195956537Y-85721750D01*
X196120314Y-85831185D01*
X196120326Y-85831191D01*
X196302304Y-85906568D01*
X196302315Y-85906571D01*
X196344000Y-85914862D01*
X196344000Y-85128012D01*
X196401007Y-85160925D01*
X196528174Y-85195000D01*
X196659826Y-85195000D01*
X196786993Y-85160925D01*
X196844000Y-85128012D01*
X196844000Y-85914861D01*
X196885684Y-85906571D01*
X196885695Y-85906568D01*
X197067673Y-85831191D01*
X197067685Y-85831185D01*
X197231462Y-85721750D01*
X197231466Y-85721747D01*
X197370747Y-85582466D01*
X197370750Y-85582462D01*
X197480185Y-85418685D01*
X197480191Y-85418673D01*
X197555570Y-85236690D01*
X197555570Y-85236688D01*
X197576902Y-85129449D01*
X197606799Y-85076065D01*
X197662364Y-85050449D01*
X197722373Y-85062386D01*
X197763906Y-85107316D01*
X197771098Y-85129449D01*
X197792429Y-85236688D01*
X197792429Y-85236690D01*
X197867808Y-85418673D01*
X197867814Y-85418685D01*
X197977249Y-85582462D01*
X197977252Y-85582466D01*
X198116533Y-85721747D01*
X198116537Y-85721750D01*
X198280314Y-85831185D01*
X198280326Y-85831191D01*
X198462304Y-85906568D01*
X198462315Y-85906571D01*
X198504000Y-85914862D01*
X198504000Y-85128012D01*
X198561007Y-85160925D01*
X198688174Y-85195000D01*
X198819826Y-85195000D01*
X198946993Y-85160925D01*
X199004000Y-85128012D01*
X199004000Y-85914861D01*
X199045684Y-85906571D01*
X199045695Y-85906568D01*
X199227673Y-85831191D01*
X199227685Y-85831185D01*
X199391462Y-85721750D01*
X199391466Y-85721747D01*
X199530747Y-85582466D01*
X199530750Y-85582462D01*
X199640185Y-85418685D01*
X199640191Y-85418673D01*
X199715570Y-85236690D01*
X199715570Y-85236688D01*
X199736902Y-85129449D01*
X199766799Y-85076065D01*
X199822364Y-85050449D01*
X199882373Y-85062386D01*
X199923906Y-85107316D01*
X199931098Y-85129449D01*
X199952429Y-85236688D01*
X199952429Y-85236690D01*
X200027808Y-85418673D01*
X200027814Y-85418685D01*
X200137249Y-85582462D01*
X200137252Y-85582466D01*
X200276533Y-85721747D01*
X200276537Y-85721750D01*
X200440314Y-85831185D01*
X200440326Y-85831191D01*
X200622304Y-85906568D01*
X200622315Y-85906571D01*
X200664000Y-85914862D01*
X200664000Y-85128012D01*
X200721007Y-85160925D01*
X200848174Y-85195000D01*
X200979826Y-85195000D01*
X201106993Y-85160925D01*
X201164000Y-85128012D01*
X201164000Y-85914861D01*
X201205684Y-85906571D01*
X201205695Y-85906568D01*
X201387673Y-85831191D01*
X201387685Y-85831185D01*
X201551462Y-85721750D01*
X201551466Y-85721747D01*
X201690747Y-85582466D01*
X201690750Y-85582462D01*
X201800185Y-85418685D01*
X201800191Y-85418673D01*
X201875570Y-85236690D01*
X201875570Y-85236688D01*
X201896902Y-85129449D01*
X201926799Y-85076065D01*
X201982364Y-85050449D01*
X202042373Y-85062386D01*
G37*
%TD.AperFunction*%
%TA.AperFunction,Conductor*%
G36*
X193379945Y-84380820D02*
G01*
X193423210Y-84424085D01*
X193426408Y-84437407D01*
X193434001Y-84445000D01*
X194000988Y-84445000D01*
X193968075Y-84502007D01*
X193934000Y-84629174D01*
X193934000Y-84760826D01*
X193968075Y-84887993D01*
X194000988Y-84945000D01*
X193434001Y-84945000D01*
X193423197Y-84955803D01*
X193415093Y-84980748D01*
X193365593Y-85016712D01*
X193304407Y-85016712D01*
X193281478Y-85005842D01*
X193250056Y-84985648D01*
X193250050Y-84985646D01*
X193111964Y-84945100D01*
X193111961Y-84945100D01*
X193072999Y-84945100D01*
X193014808Y-84926193D01*
X192978844Y-84876693D01*
X192973999Y-84846100D01*
X192973999Y-84831885D01*
X192968008Y-84786367D01*
X192966917Y-84784028D01*
X192966618Y-84781600D01*
X192965889Y-84779096D01*
X192966296Y-84778977D01*
X192959458Y-84723299D01*
X192989120Y-84669784D01*
X193001640Y-84659870D01*
X193009213Y-84654809D01*
X193009216Y-84654808D01*
X193264998Y-84399025D01*
X193319513Y-84371249D01*
X193379945Y-84380820D01*
G37*
%TD.AperFunction*%
%TA.AperFunction,Conductor*%
G36*
X219161924Y-77646907D02*
G01*
X219173737Y-77656996D01*
X220167504Y-78650763D01*
X220195281Y-78705280D01*
X220196500Y-78720767D01*
X220196500Y-79683800D01*
X220208867Y-79713655D01*
X220226407Y-79756001D01*
X220238441Y-79785055D01*
X220238442Y-79785056D01*
X220238443Y-79785058D01*
X222936942Y-82483558D01*
X222936943Y-82483558D01*
X222936944Y-82483559D01*
X223038198Y-82525500D01*
X223038200Y-82525500D01*
X225482300Y-82525500D01*
X225540491Y-82544407D01*
X225576455Y-82593907D01*
X225581300Y-82624500D01*
X225581300Y-83112800D01*
X225598221Y-83153649D01*
X225619015Y-83203850D01*
X225619016Y-83203853D01*
X225623241Y-83214055D01*
X225623242Y-83214056D01*
X225623243Y-83214058D01*
X225764683Y-83355498D01*
X225792459Y-83410013D01*
X225782888Y-83470445D01*
X225739623Y-83513710D01*
X225694678Y-83524500D01*
X225557631Y-83524500D01*
X225499440Y-83505593D01*
X225469422Y-83470445D01*
X225443851Y-83420260D01*
X225443850Y-83420258D01*
X225354142Y-83330550D01*
X225241104Y-83272954D01*
X225241105Y-83272954D01*
X225147322Y-83258100D01*
X224534279Y-83258100D01*
X224534276Y-83258101D01*
X224440500Y-83272952D01*
X224440495Y-83272954D01*
X224327459Y-83330549D01*
X224237749Y-83420259D01*
X224180154Y-83533295D01*
X224165300Y-83627077D01*
X224165300Y-84090120D01*
X224165301Y-84090123D01*
X224180152Y-84183899D01*
X224180154Y-84183904D01*
X224207907Y-84238373D01*
X224229400Y-84280554D01*
X224238972Y-84340986D01*
X224211195Y-84395503D01*
X224156679Y-84423281D01*
X224141191Y-84424500D01*
X223101834Y-84424500D01*
X223043643Y-84405593D01*
X223031830Y-84395504D01*
X219998996Y-81362669D01*
X219971219Y-81308152D01*
X219970000Y-81292665D01*
X219970000Y-79295156D01*
X219970001Y-79295143D01*
X219970001Y-79201465D01*
X219970001Y-79201463D01*
X219947818Y-79118677D01*
X219946103Y-79115707D01*
X219926393Y-79081567D01*
X219926389Y-79081563D01*
X219904965Y-79044454D01*
X219844362Y-78983851D01*
X219844359Y-78983849D01*
X219187646Y-78327135D01*
X219187643Y-78327133D01*
X219187641Y-78327131D01*
X219113426Y-78284283D01*
X219113428Y-78284283D01*
X219066245Y-78271641D01*
X219030637Y-78262100D01*
X219030635Y-78262100D01*
X202819500Y-78262100D01*
X202761309Y-78243193D01*
X202725345Y-78193693D01*
X202720500Y-78163100D01*
X202720499Y-77808123D01*
X202739406Y-77749932D01*
X202749496Y-77738119D01*
X202830620Y-77656996D01*
X202885137Y-77629219D01*
X202900623Y-77628000D01*
X219103733Y-77628000D01*
X219161924Y-77646907D01*
G37*
%TD.AperFunction*%
%TA.AperFunction,Conductor*%
G36*
X195160682Y-82600084D02*
G01*
X195203947Y-82643349D01*
X195205789Y-82647165D01*
X195208440Y-82652970D01*
X195208441Y-82652971D01*
X195208442Y-82652973D01*
X195300480Y-82759191D01*
X195302692Y-82761744D01*
X195423766Y-82839553D01*
X195423771Y-82839555D01*
X195438737Y-82843948D01*
X195454791Y-82848662D01*
X195470850Y-82854942D01*
X195478282Y-82858624D01*
X195567352Y-82882664D01*
X195591787Y-82887690D01*
X195594589Y-82888091D01*
X195619361Y-82890118D01*
X195699860Y-82891819D01*
X195699869Y-82891819D01*
X195699912Y-82891820D01*
X195704157Y-82891865D01*
X195704201Y-82891865D01*
X195704654Y-82891865D01*
X195704691Y-82891865D01*
X195708955Y-82891821D01*
X195720913Y-82891572D01*
X195779482Y-82909268D01*
X195782290Y-82911293D01*
X195797074Y-82922359D01*
X195800435Y-82924476D01*
X195800236Y-82924791D01*
X195820673Y-82939807D01*
X195841268Y-82960401D01*
X195857875Y-82977008D01*
X195954906Y-83017200D01*
X198326055Y-83017200D01*
X198384246Y-83036107D01*
X198420210Y-83085607D01*
X198424348Y-83108289D01*
X198424683Y-83108258D01*
X198427713Y-83140568D01*
X198427715Y-83140577D01*
X198449048Y-83201543D01*
X198471561Y-83265883D01*
X198471944Y-83266976D01*
X198471945Y-83266979D01*
X198517442Y-83328625D01*
X198536784Y-83386673D01*
X198518313Y-83445003D01*
X198469083Y-83481336D01*
X198466534Y-83482147D01*
X198462316Y-83483426D01*
X198280326Y-83558808D01*
X198280314Y-83558814D01*
X198116537Y-83668249D01*
X198116533Y-83668252D01*
X197977252Y-83807533D01*
X197977249Y-83807537D01*
X197867814Y-83971314D01*
X197867808Y-83971326D01*
X197792429Y-84153309D01*
X197792429Y-84153311D01*
X197771098Y-84260550D01*
X197741201Y-84313934D01*
X197685636Y-84339550D01*
X197625626Y-84327613D01*
X197584094Y-84282683D01*
X197576902Y-84260550D01*
X197555570Y-84153311D01*
X197555570Y-84153309D01*
X197480191Y-83971326D01*
X197480185Y-83971314D01*
X197370750Y-83807537D01*
X197370747Y-83807533D01*
X197231466Y-83668252D01*
X197231462Y-83668249D01*
X197067685Y-83558814D01*
X197067673Y-83558808D01*
X196885691Y-83483429D01*
X196844000Y-83475136D01*
X196844000Y-84261988D01*
X196786993Y-84229075D01*
X196659826Y-84195000D01*
X196528174Y-84195000D01*
X196401007Y-84229075D01*
X196344000Y-84261988D01*
X196344000Y-83475136D01*
X196302308Y-83483429D01*
X196120326Y-83558808D01*
X196120314Y-83558814D01*
X195956537Y-83668249D01*
X195956533Y-83668252D01*
X195817252Y-83807533D01*
X195817249Y-83807537D01*
X195707814Y-83971314D01*
X195707808Y-83971326D01*
X195632429Y-84153309D01*
X195632429Y-84153311D01*
X195611098Y-84260550D01*
X195581201Y-84313934D01*
X195525636Y-84339550D01*
X195465626Y-84327613D01*
X195424094Y-84282683D01*
X195416902Y-84260550D01*
X195395570Y-84153311D01*
X195395570Y-84153309D01*
X195320191Y-83971326D01*
X195320185Y-83971314D01*
X195210750Y-83807537D01*
X195210747Y-83807533D01*
X195071466Y-83668252D01*
X195071462Y-83668249D01*
X194907685Y-83558814D01*
X194907673Y-83558808D01*
X194725691Y-83483429D01*
X194684000Y-83475136D01*
X194684000Y-84261988D01*
X194626993Y-84229075D01*
X194499826Y-84195000D01*
X194368174Y-84195000D01*
X194241007Y-84229075D01*
X194184000Y-84261988D01*
X194184000Y-83521032D01*
X194202907Y-83462841D01*
X194212996Y-83451028D01*
X194627917Y-83036107D01*
X195045735Y-82618288D01*
X195100250Y-82590513D01*
X195160682Y-82600084D01*
G37*
%TD.AperFunction*%
%TA.AperFunction,Conductor*%
G36*
X198669472Y-78244444D02*
G01*
X198672333Y-78247305D01*
X198672335Y-78247308D01*
X199329887Y-78904859D01*
X199329889Y-78904862D01*
X199390492Y-78965465D01*
X199422338Y-78983851D01*
X199464715Y-79008318D01*
X199547501Y-79030500D01*
X199547503Y-79030500D01*
X200689975Y-79030500D01*
X200748166Y-79049407D01*
X200784130Y-79098907D01*
X200784130Y-79160093D01*
X200748166Y-79209593D01*
X200709289Y-79226598D01*
X200636750Y-79241026D01*
X200463770Y-79312677D01*
X200463761Y-79312681D01*
X200308092Y-79416698D01*
X200308088Y-79416701D01*
X200175701Y-79549088D01*
X200175698Y-79549092D01*
X200071681Y-79704761D01*
X200071677Y-79704770D01*
X200000026Y-79877750D01*
X199963500Y-80061381D01*
X199963500Y-80748618D01*
X200000026Y-80932249D01*
X200071677Y-81105229D01*
X200071681Y-81105238D01*
X200133512Y-81197772D01*
X200175698Y-81260908D01*
X200308092Y-81393302D01*
X200356500Y-81425647D01*
X200463761Y-81497318D01*
X200463773Y-81497324D01*
X200583620Y-81546966D01*
X200630146Y-81586702D01*
X200644430Y-81646197D01*
X200621015Y-81702725D01*
X200578433Y-81731874D01*
X200534224Y-81747343D01*
X200534221Y-81747344D01*
X200534221Y-81747345D01*
X200521718Y-81756573D01*
X200429305Y-81824778D01*
X200426470Y-81826870D01*
X200353568Y-81925648D01*
X200346943Y-81934624D01*
X200302715Y-82061022D01*
X200302713Y-82061031D01*
X200299900Y-82091026D01*
X200299900Y-83110573D01*
X200302713Y-83140568D01*
X200302715Y-83140577D01*
X200346943Y-83266975D01*
X200346944Y-83266976D01*
X200346945Y-83266979D01*
X200426470Y-83374730D01*
X200442589Y-83386626D01*
X200450830Y-83392709D01*
X200486421Y-83442477D01*
X200485963Y-83503661D01*
X200449628Y-83552890D01*
X200443293Y-83556825D01*
X200276537Y-83668249D01*
X200276533Y-83668252D01*
X200137252Y-83807533D01*
X200137249Y-83807537D01*
X200027814Y-83971314D01*
X200027808Y-83971326D01*
X199952429Y-84153309D01*
X199952429Y-84153311D01*
X199931098Y-84260550D01*
X199901201Y-84313934D01*
X199845636Y-84339550D01*
X199785626Y-84327613D01*
X199744094Y-84282683D01*
X199736902Y-84260550D01*
X199715570Y-84153311D01*
X199715570Y-84153309D01*
X199640191Y-83971326D01*
X199640185Y-83971314D01*
X199530750Y-83807537D01*
X199530747Y-83807533D01*
X199388938Y-83665724D01*
X199361161Y-83611207D01*
X199370732Y-83550775D01*
X199413997Y-83507510D01*
X199437821Y-83498999D01*
X199440160Y-83498487D01*
X199440174Y-83498486D01*
X199566579Y-83454255D01*
X199674330Y-83374730D01*
X199753855Y-83266979D01*
X199798086Y-83140574D01*
X199800899Y-83110572D01*
X199800900Y-83110570D01*
X199800900Y-82091030D01*
X199800899Y-82091026D01*
X199800570Y-82087513D01*
X199798086Y-82061026D01*
X199753855Y-81934621D01*
X199674330Y-81826870D01*
X199566579Y-81747345D01*
X199566576Y-81747344D01*
X199566575Y-81747343D01*
X199440177Y-81703115D01*
X199440176Y-81703114D01*
X199440174Y-81703114D01*
X199440171Y-81703113D01*
X199440168Y-81703113D01*
X199410173Y-81700300D01*
X199410164Y-81700300D01*
X199211906Y-81700300D01*
X199153715Y-81681393D01*
X199117751Y-81631893D01*
X199117751Y-81570707D01*
X199153715Y-81521207D01*
X199174020Y-81509836D01*
X199179763Y-81507457D01*
X199204231Y-81497322D01*
X199204234Y-81497319D01*
X199204238Y-81497318D01*
X199249187Y-81467282D01*
X199359908Y-81393302D01*
X199492302Y-81260908D01*
X199596142Y-81105501D01*
X199596318Y-81105238D01*
X199596319Y-81105234D01*
X199596322Y-81105231D01*
X199667973Y-80932251D01*
X199704500Y-80748616D01*
X199704500Y-80061384D01*
X199667973Y-79877749D01*
X199596322Y-79704769D01*
X199596320Y-79704767D01*
X199596318Y-79704761D01*
X199529027Y-79604055D01*
X199492302Y-79549092D01*
X199359908Y-79416698D01*
X199306400Y-79380945D01*
X199204238Y-79312681D01*
X199204229Y-79312677D01*
X199031249Y-79241026D01*
X198847618Y-79204500D01*
X198847616Y-79204500D01*
X198660384Y-79204500D01*
X198660381Y-79204500D01*
X198476750Y-79241026D01*
X198303770Y-79312677D01*
X198303761Y-79312681D01*
X198148092Y-79416698D01*
X198148088Y-79416701D01*
X198015701Y-79549088D01*
X198015698Y-79549092D01*
X197911681Y-79704761D01*
X197911677Y-79704770D01*
X197840026Y-79877750D01*
X197803500Y-80061381D01*
X197803500Y-80748618D01*
X197809384Y-80778197D01*
X197827891Y-80871240D01*
X197831922Y-80891502D01*
X197824730Y-80952263D01*
X197804830Y-80980817D01*
X197641741Y-81143907D01*
X197615653Y-81169995D01*
X197561136Y-81197772D01*
X197500704Y-81188201D01*
X197457439Y-81144936D01*
X197447868Y-81084504D01*
X197454185Y-81062105D01*
X197507973Y-80932251D01*
X197544500Y-80748616D01*
X197544500Y-80061384D01*
X197507973Y-79877749D01*
X197436322Y-79704769D01*
X197436320Y-79704767D01*
X197436318Y-79704761D01*
X197369027Y-79604055D01*
X197332302Y-79549092D01*
X197199908Y-79416698D01*
X197146400Y-79380945D01*
X197044238Y-79312681D01*
X197044226Y-79312675D01*
X197037180Y-79309757D01*
X196990654Y-79270021D01*
X196976370Y-79210526D01*
X196999784Y-79153998D01*
X197005048Y-79148302D01*
X197609856Y-78543495D01*
X197664373Y-78515718D01*
X197679860Y-78514499D01*
X198172521Y-78514499D01*
X198172522Y-78514498D01*
X198219411Y-78507072D01*
X198266299Y-78499647D01*
X198266299Y-78499646D01*
X198266304Y-78499646D01*
X198379342Y-78442050D01*
X198469050Y-78352342D01*
X198511259Y-78269501D01*
X198554523Y-78226238D01*
X198614955Y-78216667D01*
X198669472Y-78244444D01*
G37*
%TD.AperFunction*%
%TA.AperFunction,Conductor*%
G36*
X205894063Y-81439387D02*
G01*
X205902778Y-81447130D01*
X206052524Y-81596876D01*
X206080301Y-81651393D01*
X206070730Y-81711825D01*
X206036045Y-81750163D01*
X206018473Y-81761456D01*
X206018472Y-81761456D01*
X206018472Y-81761457D01*
X206005811Y-81776069D01*
X205924222Y-81870228D01*
X205864434Y-82001143D01*
X205843953Y-82143597D01*
X205843953Y-82143602D01*
X205864434Y-82286056D01*
X205909060Y-82383771D01*
X205924223Y-82416973D01*
X206018472Y-82525743D01*
X206018473Y-82525744D01*
X206130984Y-82598050D01*
X206139547Y-82603553D01*
X206210887Y-82624500D01*
X206277635Y-82644099D01*
X206277636Y-82644099D01*
X206277639Y-82644100D01*
X206277641Y-82644100D01*
X206421559Y-82644100D01*
X206421561Y-82644100D01*
X206559653Y-82603553D01*
X206568224Y-82598043D01*
X206574164Y-82594821D01*
X206574113Y-82594731D01*
X206588863Y-82586251D01*
X206658318Y-82546320D01*
X206658324Y-82546315D01*
X206658331Y-82546312D01*
X206679103Y-82532631D01*
X206679103Y-82532630D01*
X206679112Y-82532625D01*
X206681377Y-82530928D01*
X206700365Y-82514816D01*
X206758479Y-82459108D01*
X206761373Y-82456279D01*
X206761720Y-82455933D01*
X206761725Y-82455927D01*
X206761747Y-82455906D01*
X206764871Y-82452721D01*
X206764879Y-82452711D01*
X206764912Y-82452679D01*
X206773203Y-82444036D01*
X206827126Y-82415131D01*
X206830526Y-82414581D01*
X206846206Y-82412326D01*
X206906493Y-82422754D01*
X206949139Y-82466629D01*
X206959300Y-82510317D01*
X206959300Y-83059773D01*
X206962113Y-83089768D01*
X206962115Y-83089777D01*
X207006343Y-83216175D01*
X207006344Y-83216176D01*
X207006345Y-83216179D01*
X207085870Y-83323930D01*
X207089208Y-83326393D01*
X207124801Y-83376159D01*
X207124345Y-83437343D01*
X207088013Y-83486573D01*
X207068307Y-83497513D01*
X206920323Y-83558810D01*
X206920314Y-83558814D01*
X206756537Y-83668249D01*
X206756533Y-83668252D01*
X206617252Y-83807533D01*
X206617249Y-83807537D01*
X206507814Y-83971314D01*
X206507808Y-83971326D01*
X206432429Y-84153309D01*
X206432429Y-84153311D01*
X206411098Y-84260550D01*
X206381201Y-84313934D01*
X206325636Y-84339550D01*
X206265626Y-84327613D01*
X206224094Y-84282683D01*
X206216902Y-84260550D01*
X206195570Y-84153311D01*
X206195570Y-84153309D01*
X206120191Y-83971326D01*
X206120185Y-83971314D01*
X206010750Y-83807537D01*
X206010747Y-83807533D01*
X205871466Y-83668252D01*
X205871462Y-83668249D01*
X205707685Y-83558814D01*
X205707673Y-83558808D01*
X205525689Y-83483429D01*
X205389554Y-83456350D01*
X205336170Y-83426453D01*
X205310554Y-83370888D01*
X205322491Y-83310878D01*
X205350080Y-83279597D01*
X205461187Y-83197595D01*
X205461192Y-83197590D01*
X205541745Y-83088447D01*
X205586549Y-82960401D01*
X205589399Y-82930011D01*
X205589400Y-82930010D01*
X205589400Y-82850801D01*
X205589399Y-82850800D01*
X204788400Y-82850800D01*
X204730209Y-82831893D01*
X204694245Y-82782393D01*
X204689400Y-82751800D01*
X204689400Y-81875801D01*
X205189400Y-81875801D01*
X205189400Y-82350799D01*
X205189401Y-82350800D01*
X205589398Y-82350800D01*
X205589399Y-82350799D01*
X205589399Y-82271596D01*
X205586549Y-82241199D01*
X205586549Y-82241197D01*
X205541745Y-82113152D01*
X205461192Y-82004009D01*
X205461190Y-82004007D01*
X205352047Y-81923454D01*
X205224001Y-81878650D01*
X205193611Y-81875800D01*
X205189401Y-81875800D01*
X205189400Y-81875801D01*
X204689400Y-81875801D01*
X204689400Y-81875800D01*
X204685206Y-81875801D01*
X204685184Y-81875802D01*
X204665738Y-81877625D01*
X204606037Y-81864230D01*
X204565611Y-81818302D01*
X204557500Y-81779057D01*
X204557500Y-81571986D01*
X204553040Y-81561219D01*
X204548239Y-81500223D01*
X204580209Y-81448054D01*
X204636737Y-81424639D01*
X204696232Y-81438923D01*
X204699495Y-81441012D01*
X204710034Y-81448054D01*
X204783762Y-81497318D01*
X204783766Y-81497320D01*
X204783769Y-81497322D01*
X204956749Y-81568973D01*
X205140384Y-81605500D01*
X205140385Y-81605500D01*
X205327615Y-81605500D01*
X205327616Y-81605500D01*
X205511251Y-81568973D01*
X205684231Y-81497322D01*
X205777774Y-81434818D01*
X205836659Y-81418210D01*
X205894063Y-81439387D01*
G37*
%TD.AperFunction*%
%TA.AperFunction,Conductor*%
G36*
X218870141Y-78932007D02*
G01*
X218881953Y-78942096D01*
X219290003Y-79350145D01*
X219317781Y-79404662D01*
X219319000Y-79420149D01*
X219319000Y-79933488D01*
X219300093Y-79991679D01*
X219250593Y-80027643D01*
X219189407Y-80027643D01*
X219139907Y-79991679D01*
X219122902Y-79952802D01*
X219115866Y-79917430D01*
X219107973Y-79877749D01*
X219036322Y-79704769D01*
X219036320Y-79704767D01*
X219036318Y-79704761D01*
X218969027Y-79604055D01*
X218932302Y-79549092D01*
X218799908Y-79416698D01*
X218746400Y-79380945D01*
X218644238Y-79312681D01*
X218644229Y-79312677D01*
X218471249Y-79241026D01*
X218287618Y-79204500D01*
X218287616Y-79204500D01*
X218100384Y-79204500D01*
X218100381Y-79204500D01*
X217916750Y-79241026D01*
X217743770Y-79312677D01*
X217743761Y-79312681D01*
X217588092Y-79416698D01*
X217588088Y-79416701D01*
X217455701Y-79549088D01*
X217455698Y-79549092D01*
X217351681Y-79704761D01*
X217351677Y-79704770D01*
X217280026Y-79877750D01*
X217243500Y-80061381D01*
X217243500Y-80748618D01*
X217280026Y-80932249D01*
X217351677Y-81105229D01*
X217351681Y-81105238D01*
X217413512Y-81197772D01*
X217455698Y-81260908D01*
X217588092Y-81393302D01*
X217636500Y-81425647D01*
X217743761Y-81497318D01*
X217743773Y-81497324D01*
X217861126Y-81545933D01*
X217907652Y-81585669D01*
X217921936Y-81645164D01*
X217898521Y-81701692D01*
X217893245Y-81707401D01*
X216893456Y-82707192D01*
X216893455Y-82707191D01*
X216819191Y-82781456D01*
X216779000Y-82878487D01*
X216779000Y-83614420D01*
X216760093Y-83672611D01*
X216710593Y-83708575D01*
X216649407Y-83708575D01*
X216624998Y-83696735D01*
X216484238Y-83602681D01*
X216484229Y-83602677D01*
X216311249Y-83531026D01*
X216127618Y-83494500D01*
X216127616Y-83494500D01*
X215940384Y-83494500D01*
X215940381Y-83494500D01*
X215756750Y-83531026D01*
X215583770Y-83602677D01*
X215583761Y-83602681D01*
X215429002Y-83706090D01*
X215370114Y-83722699D01*
X215312710Y-83701522D01*
X215278717Y-83650648D01*
X215275000Y-83623775D01*
X215275000Y-83208359D01*
X215293907Y-83150168D01*
X215303990Y-83138361D01*
X216257808Y-82184544D01*
X216265075Y-82167000D01*
X216268641Y-82158393D01*
X216277239Y-82137632D01*
X216298000Y-82087513D01*
X216298000Y-81640611D01*
X216316907Y-81582420D01*
X216359112Y-81549147D01*
X216484231Y-81497322D01*
X216484234Y-81497319D01*
X216484238Y-81497318D01*
X216529187Y-81467282D01*
X216639908Y-81393302D01*
X216772302Y-81260908D01*
X216876142Y-81105501D01*
X216876318Y-81105238D01*
X216876319Y-81105234D01*
X216876322Y-81105231D01*
X216947973Y-80932251D01*
X216984500Y-80748616D01*
X216984500Y-80061384D01*
X216947973Y-79877749D01*
X216876322Y-79704769D01*
X216876320Y-79704767D01*
X216876318Y-79704761D01*
X216809027Y-79604055D01*
X216772302Y-79549092D01*
X216639908Y-79416698D01*
X216586400Y-79380945D01*
X216484238Y-79312681D01*
X216484229Y-79312677D01*
X216311249Y-79241026D01*
X216127618Y-79204500D01*
X216127616Y-79204500D01*
X215940384Y-79204500D01*
X215940381Y-79204500D01*
X215756750Y-79241026D01*
X215583770Y-79312677D01*
X215583761Y-79312681D01*
X215428092Y-79416698D01*
X215428088Y-79416701D01*
X215295701Y-79549088D01*
X215295698Y-79549092D01*
X215191681Y-79704761D01*
X215191677Y-79704770D01*
X215120026Y-79877750D01*
X215083500Y-80061381D01*
X215083500Y-80748618D01*
X215120026Y-80932249D01*
X215191677Y-81105229D01*
X215191681Y-81105238D01*
X215253512Y-81197772D01*
X215295698Y-81260908D01*
X215428092Y-81393302D01*
X215476500Y-81425647D01*
X215583761Y-81497318D01*
X215583767Y-81497320D01*
X215583769Y-81497322D01*
X215708886Y-81549147D01*
X215755411Y-81588884D01*
X215770000Y-81640611D01*
X215770000Y-81884640D01*
X215751093Y-81942831D01*
X215741004Y-81954644D01*
X214861456Y-82834192D01*
X214861455Y-82834191D01*
X214787191Y-82908456D01*
X214747000Y-83005487D01*
X214747000Y-83734782D01*
X214728093Y-83792973D01*
X214678593Y-83828937D01*
X214617407Y-83828937D01*
X214577996Y-83804786D01*
X214479911Y-83706701D01*
X214479908Y-83706698D01*
X214428893Y-83672611D01*
X214324238Y-83602681D01*
X214324229Y-83602677D01*
X214151249Y-83531026D01*
X214013513Y-83503629D01*
X213960129Y-83473732D01*
X213934513Y-83418167D01*
X213946450Y-83358157D01*
X213962820Y-83336531D01*
X214097808Y-83201544D01*
X214138000Y-83104513D01*
X214138000Y-82999488D01*
X214138000Y-81640611D01*
X214156907Y-81582420D01*
X214199112Y-81549147D01*
X214324231Y-81497322D01*
X214324234Y-81497319D01*
X214324238Y-81497318D01*
X214369187Y-81467282D01*
X214479908Y-81393302D01*
X214612302Y-81260908D01*
X214716142Y-81105501D01*
X214716318Y-81105238D01*
X214716319Y-81105234D01*
X214716322Y-81105231D01*
X214787973Y-80932251D01*
X214824500Y-80748616D01*
X214824500Y-80061384D01*
X214787973Y-79877749D01*
X214716322Y-79704769D01*
X214716320Y-79704767D01*
X214716318Y-79704761D01*
X214649027Y-79604055D01*
X214612302Y-79549092D01*
X214479908Y-79416698D01*
X214426400Y-79380945D01*
X214324238Y-79312681D01*
X214324229Y-79312677D01*
X214151249Y-79241026D01*
X213967618Y-79204500D01*
X213967616Y-79204500D01*
X213780384Y-79204500D01*
X213780381Y-79204500D01*
X213596750Y-79241026D01*
X213423770Y-79312677D01*
X213423761Y-79312681D01*
X213268092Y-79416698D01*
X213268088Y-79416701D01*
X213135701Y-79549088D01*
X213135698Y-79549092D01*
X213031681Y-79704761D01*
X213031677Y-79704770D01*
X212960026Y-79877750D01*
X212923500Y-80061381D01*
X212923500Y-80748618D01*
X212929384Y-80778197D01*
X212942194Y-80842600D01*
X212945087Y-80857141D01*
X212937895Y-80917902D01*
X212896363Y-80962832D01*
X212838852Y-80974854D01*
X212838844Y-80974984D01*
X212838383Y-80974953D01*
X212838269Y-80974977D01*
X212837276Y-80974879D01*
X212811224Y-80973135D01*
X212811236Y-80973135D01*
X212740191Y-80972901D01*
X212682063Y-80953802D01*
X212646263Y-80904183D01*
X212643420Y-80854591D01*
X212664500Y-80748616D01*
X212664500Y-80061384D01*
X212627973Y-79877749D01*
X212556322Y-79704769D01*
X212556320Y-79704767D01*
X212556318Y-79704761D01*
X212489027Y-79604055D01*
X212452302Y-79549092D01*
X212319908Y-79416698D01*
X212266400Y-79380945D01*
X212164238Y-79312681D01*
X212164229Y-79312677D01*
X211991249Y-79241026D01*
X211807618Y-79204500D01*
X211807616Y-79204500D01*
X211620384Y-79204500D01*
X211620381Y-79204500D01*
X211436750Y-79241026D01*
X211263770Y-79312677D01*
X211263761Y-79312681D01*
X211108092Y-79416698D01*
X211108088Y-79416701D01*
X210975701Y-79549088D01*
X210975698Y-79549092D01*
X210871681Y-79704761D01*
X210871677Y-79704770D01*
X210800026Y-79877750D01*
X210763500Y-80061381D01*
X210763500Y-80748618D01*
X210800026Y-80932249D01*
X210871677Y-81105229D01*
X210871681Y-81105238D01*
X210933512Y-81197772D01*
X210975698Y-81260908D01*
X211108092Y-81393302D01*
X211156500Y-81425647D01*
X211263761Y-81497318D01*
X211263767Y-81497320D01*
X211263769Y-81497322D01*
X211436749Y-81568973D01*
X211620384Y-81605500D01*
X211620385Y-81605500D01*
X211807615Y-81605500D01*
X211807616Y-81605500D01*
X211991251Y-81568973D01*
X212164231Y-81497322D01*
X212164232Y-81497321D01*
X212167441Y-81495992D01*
X212228438Y-81491191D01*
X212280607Y-81523161D01*
X212300783Y-81561204D01*
X212311674Y-81600806D01*
X212314210Y-81612965D01*
X212316035Y-81625657D01*
X212319539Y-81633331D01*
X212324097Y-81645309D01*
X212324371Y-81646197D01*
X212326069Y-81651711D01*
X212326465Y-81652871D01*
X212326807Y-81653863D01*
X212326810Y-81653868D01*
X212331284Y-81661040D01*
X212337342Y-81672314D01*
X212375789Y-81756499D01*
X212375823Y-81756573D01*
X212470072Y-81865343D01*
X212545360Y-81913727D01*
X212584090Y-81961091D01*
X212587584Y-82022176D01*
X212571494Y-82055795D01*
X212566655Y-82062351D01*
X212521850Y-82190398D01*
X212519000Y-82220788D01*
X212519000Y-82299999D01*
X212519001Y-82300000D01*
X213320000Y-82300000D01*
X213378191Y-82318907D01*
X213414155Y-82368407D01*
X213419000Y-82399000D01*
X213419000Y-82701000D01*
X213400093Y-82759191D01*
X213350593Y-82795155D01*
X213320000Y-82800000D01*
X212519002Y-82800000D01*
X212519001Y-82800001D01*
X212519001Y-82879203D01*
X212521850Y-82909600D01*
X212521850Y-82909602D01*
X212566654Y-83037647D01*
X212647207Y-83146790D01*
X212647209Y-83146792D01*
X212756352Y-83227345D01*
X212884398Y-83272149D01*
X212914789Y-83274999D01*
X213038638Y-83274999D01*
X213096829Y-83293906D01*
X213132793Y-83343406D01*
X213132794Y-83404591D01*
X213108643Y-83444002D01*
X212702456Y-83850191D01*
X212702456Y-83850192D01*
X212642245Y-83910403D01*
X212587728Y-83938180D01*
X212527296Y-83928609D01*
X212489926Y-83895401D01*
X212452302Y-83839092D01*
X212319908Y-83706698D01*
X212268893Y-83672611D01*
X212164238Y-83602681D01*
X212164229Y-83602677D01*
X211991249Y-83531026D01*
X211807618Y-83494500D01*
X211807616Y-83494500D01*
X211620384Y-83494500D01*
X211620381Y-83494500D01*
X211436750Y-83531026D01*
X211263770Y-83602677D01*
X211263761Y-83602681D01*
X211108092Y-83706698D01*
X211108088Y-83706701D01*
X210975696Y-83839093D01*
X210974758Y-83840498D01*
X210974150Y-83840976D01*
X210972616Y-83842847D01*
X210972205Y-83842509D01*
X210926704Y-83878372D01*
X210865566Y-83880768D01*
X210822446Y-83855493D01*
X210247644Y-83280692D01*
X210247642Y-83280691D01*
X210247641Y-83280690D01*
X210240692Y-83277812D01*
X210194166Y-83238075D01*
X210179883Y-83178580D01*
X210185132Y-83153657D01*
X210207486Y-83089774D01*
X210210299Y-83059772D01*
X210210300Y-83059770D01*
X210210300Y-82949500D01*
X210229207Y-82891309D01*
X210278707Y-82855345D01*
X210309300Y-82850500D01*
X210832992Y-82850500D01*
X210891183Y-82869407D01*
X210927147Y-82918907D01*
X210930773Y-82934013D01*
X210933352Y-82950300D01*
X210933354Y-82950304D01*
X210990950Y-83063342D01*
X211080658Y-83153050D01*
X211193696Y-83210646D01*
X211287481Y-83225500D01*
X211750518Y-83225499D01*
X211750520Y-83225499D01*
X211750521Y-83225498D01*
X211809367Y-83216179D01*
X211844299Y-83210647D01*
X211844299Y-83210646D01*
X211844304Y-83210646D01*
X211957342Y-83153050D01*
X212047050Y-83063342D01*
X212104646Y-82950304D01*
X212119500Y-82856519D01*
X212119499Y-82243482D01*
X212115247Y-82216633D01*
X212104647Y-82149700D01*
X212104646Y-82149698D01*
X212104646Y-82149696D01*
X212047050Y-82036658D01*
X211957342Y-81946950D01*
X211844304Y-81889354D01*
X211844305Y-81889354D01*
X211750522Y-81874500D01*
X211287479Y-81874500D01*
X211287476Y-81874501D01*
X211193700Y-81889352D01*
X211193695Y-81889354D01*
X211080659Y-81946949D01*
X210990949Y-82036659D01*
X210933354Y-82149695D01*
X210930774Y-82165986D01*
X210902997Y-82220503D01*
X210848481Y-82248281D01*
X210832993Y-82249500D01*
X210309300Y-82249500D01*
X210251109Y-82230593D01*
X210215145Y-82181093D01*
X210210300Y-82150500D01*
X210210300Y-82040230D01*
X210210299Y-82040226D01*
X210210005Y-82037093D01*
X210207486Y-82010226D01*
X210163255Y-81883821D01*
X210083730Y-81776070D01*
X209975979Y-81696545D01*
X209975366Y-81696330D01*
X209974898Y-81695974D01*
X209969417Y-81693077D01*
X209969898Y-81692166D01*
X209926689Y-81659262D01*
X209909095Y-81600661D01*
X209929307Y-81542910D01*
X209970183Y-81511425D01*
X210004231Y-81497322D01*
X210004235Y-81497319D01*
X210004238Y-81497318D01*
X210049187Y-81467282D01*
X210159908Y-81393302D01*
X210292302Y-81260908D01*
X210396142Y-81105501D01*
X210396318Y-81105238D01*
X210396319Y-81105234D01*
X210396322Y-81105231D01*
X210467973Y-80932251D01*
X210504500Y-80748616D01*
X210504500Y-80061384D01*
X210467973Y-79877749D01*
X210396322Y-79704769D01*
X210396320Y-79704767D01*
X210396318Y-79704761D01*
X210329027Y-79604055D01*
X210292302Y-79549092D01*
X210159908Y-79416698D01*
X210106400Y-79380945D01*
X210004238Y-79312681D01*
X210004229Y-79312677D01*
X209831249Y-79241026D01*
X209647618Y-79204500D01*
X209647616Y-79204500D01*
X209460384Y-79204500D01*
X209460381Y-79204500D01*
X209276750Y-79241026D01*
X209103770Y-79312677D01*
X209103761Y-79312681D01*
X208948092Y-79416698D01*
X208948088Y-79416701D01*
X208815701Y-79549088D01*
X208815698Y-79549092D01*
X208711681Y-79704761D01*
X208711677Y-79704770D01*
X208640026Y-79877750D01*
X208603500Y-80061381D01*
X208603500Y-80748618D01*
X208632452Y-80894169D01*
X208625260Y-80954930D01*
X208619162Y-80965819D01*
X208590633Y-81034695D01*
X208550896Y-81081221D01*
X208491401Y-81095504D01*
X208434873Y-81072089D01*
X208429165Y-81066813D01*
X208343172Y-80980820D01*
X208315395Y-80926303D01*
X208316078Y-80891502D01*
X208319060Y-80876511D01*
X208344500Y-80748616D01*
X208344500Y-80061384D01*
X208307973Y-79877749D01*
X208236322Y-79704769D01*
X208236320Y-79704767D01*
X208236318Y-79704761D01*
X208169027Y-79604055D01*
X208132302Y-79549092D01*
X207999908Y-79416698D01*
X207946400Y-79380945D01*
X207844238Y-79312681D01*
X207844229Y-79312677D01*
X207671249Y-79241026D01*
X207487618Y-79204500D01*
X207487616Y-79204500D01*
X207300384Y-79204500D01*
X207300381Y-79204500D01*
X207116750Y-79241026D01*
X206943770Y-79312677D01*
X206943761Y-79312681D01*
X206788092Y-79416698D01*
X206788088Y-79416701D01*
X206655701Y-79549088D01*
X206655698Y-79549092D01*
X206551681Y-79704761D01*
X206551677Y-79704770D01*
X206480026Y-79877750D01*
X206443500Y-80061381D01*
X206443500Y-80748618D01*
X206449384Y-80778197D01*
X206478482Y-80924486D01*
X206480027Y-80932250D01*
X206480027Y-80932252D01*
X206533814Y-81062105D01*
X206538615Y-81123101D01*
X206506645Y-81175270D01*
X206450117Y-81198685D01*
X206390622Y-81184401D01*
X206372346Y-81169994D01*
X206183172Y-80980820D01*
X206155395Y-80926303D01*
X206156078Y-80891502D01*
X206159060Y-80876511D01*
X206184500Y-80748616D01*
X206184500Y-80061384D01*
X206147973Y-79877749D01*
X206076322Y-79704769D01*
X206076320Y-79704767D01*
X206076318Y-79704761D01*
X206009027Y-79604055D01*
X205972302Y-79549092D01*
X205839908Y-79416698D01*
X205786400Y-79380945D01*
X205684238Y-79312681D01*
X205684229Y-79312677D01*
X205511249Y-79241026D01*
X205327618Y-79204500D01*
X205327616Y-79204500D01*
X205140384Y-79204500D01*
X205140381Y-79204500D01*
X204956750Y-79241026D01*
X204783770Y-79312677D01*
X204783761Y-79312681D01*
X204628092Y-79416698D01*
X204628088Y-79416701D01*
X204495701Y-79549088D01*
X204495698Y-79549092D01*
X204391681Y-79704761D01*
X204391677Y-79704770D01*
X204320026Y-79877750D01*
X204283500Y-80061381D01*
X204283500Y-80748618D01*
X204289384Y-80778197D01*
X204318482Y-80924486D01*
X204320027Y-80932250D01*
X204320027Y-80932252D01*
X204373814Y-81062105D01*
X204378615Y-81123101D01*
X204346645Y-81175270D01*
X204290117Y-81198685D01*
X204230622Y-81184401D01*
X204212346Y-81169994D01*
X204023172Y-80980820D01*
X203995395Y-80926303D01*
X203996078Y-80891502D01*
X203999060Y-80876511D01*
X204024500Y-80748616D01*
X204024500Y-80061384D01*
X203987973Y-79877749D01*
X203916322Y-79704769D01*
X203916320Y-79704767D01*
X203916318Y-79704761D01*
X203849027Y-79604055D01*
X203812302Y-79549092D01*
X203679908Y-79416698D01*
X203626400Y-79380945D01*
X203524238Y-79312681D01*
X203524229Y-79312677D01*
X203351249Y-79241026D01*
X203167618Y-79204500D01*
X203167616Y-79204500D01*
X202980384Y-79204500D01*
X202980381Y-79204500D01*
X202796750Y-79241026D01*
X202623770Y-79312677D01*
X202623761Y-79312681D01*
X202468092Y-79416698D01*
X202468088Y-79416701D01*
X202335701Y-79549088D01*
X202335698Y-79549092D01*
X202231681Y-79704761D01*
X202231677Y-79704770D01*
X202160026Y-79877750D01*
X202123500Y-80061381D01*
X202123500Y-80748618D01*
X202129384Y-80778197D01*
X202158482Y-80924486D01*
X202160027Y-80932250D01*
X202160027Y-80932252D01*
X202213814Y-81062105D01*
X202218615Y-81123101D01*
X202186645Y-81175270D01*
X202130117Y-81198685D01*
X202070622Y-81184401D01*
X202052346Y-81169994D01*
X201863172Y-80980820D01*
X201835395Y-80926303D01*
X201836078Y-80891502D01*
X201839060Y-80876511D01*
X201864500Y-80748616D01*
X201864500Y-80061384D01*
X201827973Y-79877749D01*
X201756322Y-79704769D01*
X201756320Y-79704767D01*
X201756318Y-79704761D01*
X201689027Y-79604055D01*
X201652302Y-79549092D01*
X201519908Y-79416698D01*
X201466400Y-79380945D01*
X201364238Y-79312681D01*
X201364229Y-79312677D01*
X201191249Y-79241026D01*
X201118711Y-79226598D01*
X201065327Y-79196701D01*
X201039711Y-79141136D01*
X201051648Y-79081126D01*
X201096578Y-79039594D01*
X201138025Y-79030500D01*
X202550076Y-79030500D01*
X202550078Y-79030500D01*
X202632864Y-79008318D01*
X202632866Y-79008316D01*
X202632868Y-79008316D01*
X202707082Y-78965468D01*
X202707082Y-78965467D01*
X202707087Y-78965465D01*
X202730457Y-78942094D01*
X202784972Y-78914319D01*
X202800459Y-78913100D01*
X218811950Y-78913100D01*
X218870141Y-78932007D01*
G37*
%TD.AperFunction*%
%TA.AperFunction,Conductor*%
G36*
X218019230Y-82424863D02*
G01*
X218062495Y-82468128D01*
X218072277Y-82498984D01*
X218081834Y-82565456D01*
X218134602Y-82681000D01*
X218141623Y-82696373D01*
X218235872Y-82805143D01*
X218235873Y-82805144D01*
X218356947Y-82882953D01*
X218356952Y-82882955D01*
X218371918Y-82887348D01*
X218387972Y-82892062D01*
X218404031Y-82898342D01*
X218411463Y-82902024D01*
X218500533Y-82926064D01*
X218524968Y-82931090D01*
X218527770Y-82931491D01*
X218552542Y-82933518D01*
X218633041Y-82935219D01*
X218633050Y-82935219D01*
X218633093Y-82935220D01*
X218637338Y-82935265D01*
X218637382Y-82935265D01*
X218637835Y-82935265D01*
X218637872Y-82935265D01*
X218642136Y-82935221D01*
X218654094Y-82934972D01*
X218712663Y-82952668D01*
X218715471Y-82954693D01*
X218730255Y-82965759D01*
X218733616Y-82967876D01*
X218733417Y-82968191D01*
X218753855Y-82983207D01*
X218841504Y-83070856D01*
X218869281Y-83125373D01*
X218870500Y-83140860D01*
X218870500Y-83395500D01*
X218851593Y-83453691D01*
X218802093Y-83489655D01*
X218771500Y-83494500D01*
X217424252Y-83494500D01*
X217424251Y-83494500D01*
X217419408Y-83494977D01*
X217419270Y-83493576D01*
X217364539Y-83487090D01*
X217319616Y-83445551D01*
X217307000Y-83397190D01*
X217307000Y-83081359D01*
X217325907Y-83023168D01*
X217335990Y-83011361D01*
X217904283Y-82443067D01*
X217958798Y-82415292D01*
X218019230Y-82424863D01*
G37*
%TD.AperFunction*%
%TA.AperFunction,Conductor*%
G36*
X192866357Y-78533407D02*
G01*
X192878163Y-78543490D01*
X192888138Y-78553465D01*
X192910639Y-78566456D01*
X192935916Y-78581050D01*
X192935917Y-78581050D01*
X192962362Y-78596318D01*
X193045144Y-78618500D01*
X193045146Y-78618501D01*
X193045147Y-78618501D01*
X193136916Y-78618501D01*
X193136932Y-78618500D01*
X193567891Y-78618500D01*
X193626082Y-78637407D01*
X193661335Y-78684802D01*
X193686207Y-78755883D01*
X193766845Y-78865144D01*
X193766847Y-78865146D01*
X193766850Y-78865150D01*
X193766853Y-78865152D01*
X193766855Y-78865154D01*
X193876116Y-78945792D01*
X193876117Y-78945792D01*
X193876118Y-78945793D01*
X194004301Y-78990646D01*
X194034725Y-78993499D01*
X194034727Y-78993500D01*
X194142258Y-78993500D01*
X194200449Y-79012407D01*
X194236413Y-79061907D01*
X194236413Y-79123093D01*
X194200449Y-79172593D01*
X194161572Y-79189598D01*
X194142311Y-79193429D01*
X194142309Y-79193429D01*
X193960326Y-79268808D01*
X193960314Y-79268814D01*
X193796537Y-79378249D01*
X193796533Y-79378252D01*
X193657252Y-79517533D01*
X193657249Y-79517537D01*
X193547814Y-79681314D01*
X193547808Y-79681326D01*
X193472429Y-79863309D01*
X193472429Y-79863311D01*
X193434000Y-80056506D01*
X193434000Y-80154999D01*
X193434001Y-80155000D01*
X194000988Y-80155000D01*
X193968075Y-80212007D01*
X193934000Y-80339174D01*
X193934000Y-80470826D01*
X193968075Y-80597993D01*
X194000988Y-80655000D01*
X193434001Y-80655000D01*
X193434000Y-80655001D01*
X193434000Y-80753493D01*
X193472429Y-80946688D01*
X193472429Y-80946690D01*
X193547808Y-81128673D01*
X193547814Y-81128685D01*
X193657249Y-81292462D01*
X193657252Y-81292466D01*
X193796533Y-81431747D01*
X193796537Y-81431750D01*
X193815296Y-81444285D01*
X193853175Y-81492335D01*
X193855577Y-81553473D01*
X193821584Y-81604347D01*
X193764180Y-81625524D01*
X193760294Y-81625600D01*
X193602711Y-81625600D01*
X193597072Y-81627936D01*
X193590008Y-81630862D01*
X193555479Y-81645164D01*
X193505681Y-81665790D01*
X193144456Y-82027016D01*
X193144454Y-82027017D01*
X193113024Y-82058446D01*
X193058507Y-82086222D01*
X192998076Y-82076650D01*
X192971527Y-82056000D01*
X192160500Y-82056000D01*
X192102309Y-82037093D01*
X192066345Y-81987593D01*
X192061500Y-81957000D01*
X192061500Y-81905000D01*
X192080407Y-81846809D01*
X192129907Y-81810845D01*
X192160500Y-81806000D01*
X192970593Y-81806000D01*
X192970593Y-81805998D01*
X192968010Y-81786377D01*
X192968007Y-81786367D01*
X192921434Y-81686490D01*
X192921404Y-81686448D01*
X192921384Y-81686385D01*
X192917774Y-81678642D01*
X192918862Y-81678134D01*
X192903515Y-81627936D01*
X192908112Y-81605833D01*
X192907338Y-81605679D01*
X192912346Y-81580503D01*
X192924500Y-81519401D01*
X192924499Y-81342600D01*
X192909240Y-81265883D01*
X192907338Y-81256320D01*
X192909903Y-81255809D01*
X192906234Y-81209230D01*
X192917868Y-81183403D01*
X192917774Y-81183359D01*
X192921153Y-81176112D01*
X192921411Y-81175540D01*
X192921438Y-81175501D01*
X192968007Y-81075633D01*
X192968010Y-81075622D01*
X192970593Y-81056001D01*
X192970593Y-81056000D01*
X192160500Y-81056000D01*
X192102309Y-81037093D01*
X192066345Y-80987593D01*
X192061500Y-80957000D01*
X192061500Y-80905000D01*
X192080407Y-80846809D01*
X192129907Y-80810845D01*
X192160500Y-80806000D01*
X192970593Y-80806000D01*
X192970593Y-80805998D01*
X192968010Y-80786377D01*
X192968007Y-80786367D01*
X192921434Y-80686490D01*
X192921404Y-80686448D01*
X192921384Y-80686385D01*
X192917774Y-80678642D01*
X192918862Y-80678134D01*
X192903515Y-80627936D01*
X192908112Y-80605833D01*
X192907338Y-80605679D01*
X192916437Y-80559935D01*
X192924500Y-80519401D01*
X192924499Y-80342600D01*
X192909240Y-80265883D01*
X192904990Y-80259523D01*
X192851113Y-80178890D01*
X192851112Y-80178888D01*
X192764117Y-80120760D01*
X192764113Y-80120759D01*
X192682630Y-80104550D01*
X192683020Y-80102586D01*
X192634282Y-80081243D01*
X192603366Y-80028443D01*
X192608873Y-79972770D01*
X192607764Y-79972397D01*
X192609387Y-79967576D01*
X192609390Y-79967554D01*
X192609411Y-79967506D01*
X192609461Y-79967358D01*
X192609460Y-79967358D01*
X192609462Y-79967356D01*
X192611671Y-79957362D01*
X192618281Y-79937614D01*
X192636165Y-79898457D01*
X192656647Y-79756000D01*
X192651255Y-79718500D01*
X192636165Y-79613544D01*
X192636165Y-79613543D01*
X192616406Y-79570279D01*
X192611049Y-79555567D01*
X192606068Y-79537573D01*
X192606063Y-79537559D01*
X192567157Y-79460283D01*
X192563453Y-79453470D01*
X192560972Y-79448906D01*
X192560223Y-79447626D01*
X192553246Y-79436531D01*
X192545976Y-79425749D01*
X192514277Y-79378735D01*
X192513019Y-79376822D01*
X192500855Y-79357831D01*
X192485608Y-79313188D01*
X192481642Y-79268497D01*
X192481641Y-79268492D01*
X192481641Y-79268491D01*
X192479898Y-79262011D01*
X192476500Y-79236297D01*
X192476500Y-78613500D01*
X192495407Y-78555309D01*
X192544907Y-78519345D01*
X192575500Y-78514500D01*
X192808166Y-78514500D01*
X192866357Y-78533407D01*
G37*
%TD.AperFunction*%
%TA.AperFunction,Conductor*%
G36*
X197155106Y-77560407D02*
G01*
X197191070Y-77609907D01*
X197194696Y-77655988D01*
X197190500Y-77682479D01*
X197190500Y-78145521D01*
X197190501Y-78145523D01*
X197192266Y-78156668D01*
X197182694Y-78217100D01*
X197164489Y-78242156D01*
X196444456Y-78962191D01*
X196370191Y-79036456D01*
X196330000Y-79133487D01*
X196330000Y-79169388D01*
X196311093Y-79227579D01*
X196268886Y-79260852D01*
X196143770Y-79312677D01*
X196143761Y-79312681D01*
X195988092Y-79416698D01*
X195988088Y-79416701D01*
X195855701Y-79549088D01*
X195855698Y-79549092D01*
X195751681Y-79704761D01*
X195751677Y-79704770D01*
X195680026Y-79877750D01*
X195643500Y-80061381D01*
X195643500Y-80748618D01*
X195660716Y-80835168D01*
X195653524Y-80895929D01*
X195633622Y-80924486D01*
X195572746Y-80985362D01*
X195518229Y-81013139D01*
X195457797Y-81003568D01*
X195414532Y-80960303D01*
X195404961Y-80899871D01*
X195405644Y-80896044D01*
X195433999Y-80753493D01*
X195434000Y-80753490D01*
X195434000Y-80655001D01*
X195433999Y-80655000D01*
X194867012Y-80655000D01*
X194899925Y-80597993D01*
X194934000Y-80470826D01*
X194934000Y-80339174D01*
X194899925Y-80212007D01*
X194867012Y-80155000D01*
X195433999Y-80155000D01*
X195434000Y-80154999D01*
X195434000Y-80056509D01*
X195433999Y-80056506D01*
X195395570Y-79863311D01*
X195395570Y-79863309D01*
X195320191Y-79681326D01*
X195320185Y-79681314D01*
X195210750Y-79517537D01*
X195210747Y-79517533D01*
X195071466Y-79378252D01*
X195071462Y-79378249D01*
X194907685Y-79268814D01*
X194907673Y-79268808D01*
X194725689Y-79193429D01*
X194706428Y-79189598D01*
X194653044Y-79159701D01*
X194627428Y-79104136D01*
X194639365Y-79044127D01*
X194684294Y-79002594D01*
X194725742Y-78993500D01*
X195093273Y-78993500D01*
X195093273Y-78993499D01*
X195123699Y-78990646D01*
X195251882Y-78945793D01*
X195361150Y-78865150D01*
X195441793Y-78755882D01*
X195486646Y-78627699D01*
X195486646Y-78627689D01*
X195487931Y-78621815D01*
X195489884Y-78622241D01*
X195510650Y-78574140D01*
X195530969Y-78557494D01*
X195530911Y-78557418D01*
X195533304Y-78555581D01*
X195535472Y-78553805D01*
X195536062Y-78553465D01*
X196519031Y-77570496D01*
X196573548Y-77542719D01*
X196589035Y-77541500D01*
X197096915Y-77541500D01*
X197155106Y-77560407D01*
G37*
%TD.AperFunction*%
%TA.AperFunction,Conductor*%
G36*
X185369204Y-78533406D02*
G01*
X185401066Y-78572373D01*
X185446644Y-78672174D01*
X185446645Y-78672175D01*
X185446646Y-78672177D01*
X185505415Y-78740000D01*
X185540896Y-78780948D01*
X185661970Y-78858757D01*
X185661975Y-78858759D01*
X185670716Y-78861325D01*
X185692995Y-78867866D01*
X185709054Y-78874146D01*
X185716486Y-78877828D01*
X185805556Y-78901868D01*
X185829991Y-78906894D01*
X185832793Y-78907295D01*
X185857565Y-78909322D01*
X185938064Y-78911023D01*
X185940019Y-78911043D01*
X185998006Y-78930558D01*
X186033451Y-78980431D01*
X186036080Y-79029351D01*
X186023500Y-79092593D01*
X186023500Y-80006500D01*
X186004593Y-80064691D01*
X185955093Y-80100655D01*
X185924500Y-80105500D01*
X185073500Y-80105500D01*
X185015309Y-80086593D01*
X184979345Y-80037093D01*
X184974500Y-80006500D01*
X184974500Y-78613499D01*
X184993407Y-78555308D01*
X185042907Y-78519344D01*
X185073500Y-78514499D01*
X185311013Y-78514499D01*
X185369204Y-78533406D01*
G37*
%TD.AperFunction*%
%TA.AperFunction,Conductor*%
G36*
X189343504Y-78566456D02*
G01*
X189459169Y-78682121D01*
X189486946Y-78736638D01*
X189477375Y-78797070D01*
X189474000Y-78801409D01*
X189474000Y-79619500D01*
X189455093Y-79677691D01*
X189405593Y-79713655D01*
X189375000Y-79718500D01*
X189323000Y-79718500D01*
X189264809Y-79699593D01*
X189228845Y-79650093D01*
X189224000Y-79619500D01*
X189224000Y-78809407D01*
X189208224Y-78795572D01*
X189176941Y-78742988D01*
X189174500Y-78721140D01*
X189174500Y-78636460D01*
X189193407Y-78578269D01*
X189242907Y-78542305D01*
X189304093Y-78542305D01*
X189343504Y-78566456D01*
G37*
%TD.AperFunction*%
%TA.AperFunction,Conductor*%
G36*
X187339691Y-76163407D02*
G01*
X187375655Y-76212907D01*
X187380500Y-76243500D01*
X187380500Y-76527907D01*
X187361593Y-76586098D01*
X187312093Y-76622062D01*
X187264242Y-76624026D01*
X187264165Y-76624744D01*
X187259358Y-76624227D01*
X187258730Y-76624253D01*
X187258005Y-76624081D01*
X187201434Y-76618000D01*
X187181001Y-76618000D01*
X187181000Y-76618001D01*
X187181000Y-77494000D01*
X187162093Y-77552191D01*
X187112593Y-77588155D01*
X187082000Y-77593000D01*
X186780000Y-77593000D01*
X186721809Y-77574093D01*
X186685845Y-77524593D01*
X186681000Y-77494000D01*
X186681000Y-76617999D01*
X186660571Y-76618000D01*
X186660562Y-76618001D01*
X186603994Y-76624081D01*
X186603993Y-76624082D01*
X186476016Y-76671814D01*
X186366672Y-76753668D01*
X186366668Y-76753672D01*
X186284812Y-76863018D01*
X186273653Y-76892938D01*
X186235602Y-76940852D01*
X186176655Y-76957249D01*
X186119327Y-76935866D01*
X186110901Y-76928352D01*
X185920741Y-76738192D01*
X185920739Y-76738191D01*
X185920738Y-76738190D01*
X185850621Y-76709147D01*
X185823710Y-76698000D01*
X185823709Y-76698000D01*
X185798344Y-76698000D01*
X185740153Y-76679093D01*
X185704189Y-76629593D01*
X185700563Y-76583512D01*
X185701260Y-76579111D01*
X185714500Y-76495519D01*
X185714499Y-76243499D01*
X185733406Y-76185310D01*
X185782906Y-76149346D01*
X185813499Y-76144500D01*
X187281500Y-76144500D01*
X187339691Y-76163407D01*
G37*
%TD.AperFunction*%
%TD*%
M02*
