M48
; DRILL file {KiCad 7.0.1} date Tue Dec 19 17:12:59 2023
; FORMAT={-:-/ absolute / inch / decimal}
; #@! TF.CreationDate,2023-12-19T17:12:59+01:00
; #@! TF.GenerationSoftware,Kicad,Pcbnew,7.0.1
; #@! TF.FileFunction,Plated,1,2,PTH
FMAT,2
INCH
; #@! TA.AperFunction,Plated,PTH,ViaDrill
T1C0.0118
; #@! TA.AperFunction,Plated,PTH,ComponentDrill
T2C0.0236
; #@! TA.AperFunction,Plated,PTH,ComponentDrill
T3C0.0394
%
G90
G05
T1
X7.114Y-3.04
X7.172Y-3.0705
X7.196Y-2.98
X7.1987Y-3.3831
X7.2044Y-3.4132
X7.2271Y-3.0705
X7.25Y-3.0493
X7.2596Y-3.4169
X7.26Y-3.205
X7.2602Y-3.4455
X7.2657Y-3.3889
X7.302Y-3.132
X7.3178Y-3.0866
X7.324Y-3.4958
X7.36Y-3.015
X7.382Y-3.314
X7.385Y-3.214
X7.4045Y-3.4719
X7.435Y-3.265
X7.455Y-3.0417
X7.475Y-3.0
X7.4793Y-3.0593
X7.486Y-3.214
X7.486Y-3.317
X7.565Y-3.14
X7.6Y-3.364
X7.605Y-3.205
X7.6306Y-3.245
X7.65Y-3.224
X7.7021Y-3.2433
X7.72Y-3.0022
X7.722Y-3.098
X7.784Y-3.114
X7.847Y-3.031
X7.856Y-3.0581
X7.87Y-3.122
X7.876Y-3.252
X7.954Y-3.124
X7.995Y-3.07
X8.038Y-3.122
X8.124Y-3.234
X8.155Y-2.98
X8.214Y-3.122
X8.306Y-3.394
X8.308Y-3.07
X8.345Y-3.415
X8.362Y-2.986
X8.378Y-3.124
X8.378Y-3.208
X8.41Y-3.425
X8.476Y-3.388
X8.505Y-3.41
X8.517Y-3.27
X8.5261Y-3.4461
X8.548Y-3.22
X8.558Y-3.418
X8.576Y-3.272
X8.5827Y-3.0709
X8.605Y-3.245
X8.61Y-2.985
X8.648Y-3.252
X8.65Y-3.463
X8.68Y-3.17
X8.68Y-3.515
X8.704Y-3.342
X8.78Y-3.175
X8.78Y-3.295
X8.82Y-2.985
X8.848Y-3.266
X9.13Y-3.505
X9.15Y-2.995
X9.17Y-3.25
T3
X7.6549Y-3.1656
X7.6549Y-3.3344
X7.7399Y-3.1656
X7.7399Y-3.3344
X7.825Y-3.1656
X7.825Y-3.3344
X7.91Y-3.1656
X7.91Y-3.3344
X7.995Y-3.1656
X7.995Y-3.3344
X8.0801Y-3.1656
X8.0801Y-3.3344
X8.1651Y-3.1656
X8.1651Y-3.3344
X8.2502Y-3.1656
X8.2502Y-3.3344
X8.3352Y-3.1656
X8.3352Y-3.3344
X8.4202Y-3.1656
X8.4202Y-3.3344
X8.5053Y-3.1656
X8.5053Y-3.3344
X8.5903Y-3.1656
X8.5903Y-3.3344
T2
G00X8.9286Y-3.0818
M15
G01X8.9719Y-3.0818
M16
G05
G00X8.9286Y-3.4219
M15
G01X8.9719Y-3.4219
M16
G05
G00X9.103Y-3.0818
M15
G01X9.1266Y-3.0818
M16
G05
G00X9.103Y-3.4219
M15
G01X9.1266Y-3.4219
M16
G05
T0
M30
