%TF.GenerationSoftware,KiCad,Pcbnew,7.0.1*%
%TF.CreationDate,2023-12-19T17:12:56+01:00*%
%TF.ProjectId,xyp-gpib,7879702d-6770-4696-922e-6b696361645f,rev?*%
%TF.SameCoordinates,Original*%
%TF.FileFunction,Soldermask,Top*%
%TF.FilePolarity,Negative*%
%FSLAX46Y46*%
G04 Gerber Fmt 4.6, Leading zero omitted, Abs format (unit mm)*
G04 Created by KiCad (PCBNEW 7.0.1) date 2023-12-19 17:12:56*
%MOMM*%
%LPD*%
G01*
G04 APERTURE LIST*
G04 Aperture macros list*
%AMRoundRect*
0 Rectangle with rounded corners*
0 $1 Rounding radius*
0 $2 $3 $4 $5 $6 $7 $8 $9 X,Y pos of 4 corners*
0 Add a 4 corners polygon primitive as box body*
4,1,4,$2,$3,$4,$5,$6,$7,$8,$9,$2,$3,0*
0 Add four circle primitives for the rounded corners*
1,1,$1+$1,$2,$3*
1,1,$1+$1,$4,$5*
1,1,$1+$1,$6,$7*
1,1,$1+$1,$8,$9*
0 Add four rect primitives between the rounded corners*
20,1,$1+$1,$2,$3,$4,$5,0*
20,1,$1+$1,$4,$5,$6,$7,0*
20,1,$1+$1,$6,$7,$8,$9,0*
20,1,$1+$1,$8,$9,$2,$3,0*%
%AMFreePoly0*
4,1,46,0.333261,1.049700,0.349100,1.049700,0.361913,1.040390,0.376977,1.035496,0.386286,1.022682,0.399100,1.013373,0.403994,0.998309,0.413304,0.985496,0.413304,0.969657,0.418199,0.954594,0.418198,0.500000,0.500000,0.500000,0.500000,-0.500000,0.418198,-0.500000,0.418198,-1.081873,0.410962,-1.104142,0.407299,-1.127272,0.401593,-1.132977,0.399100,-1.140652,0.380153,-1.154417,
0.363597,-1.170974,0.355627,-1.172236,0.349100,-1.176979,0.325683,-1.176979,0.302555,-1.180642,0.295366,-1.176979,0.287296,-1.176979,0.268351,-1.163214,0.247487,-1.152584,-1.788980,0.883883,-1.799609,0.904746,-1.813375,0.923692,-1.813375,0.931762,-1.817038,0.938952,-1.813375,0.962079,-1.813375,0.985496,-1.808632,0.992023,-1.807370,0.999993,-1.790813,1.016549,-1.777048,1.035496,
-1.769373,1.037989,-1.763668,1.043695,-1.740538,1.047358,-1.718269,1.054594,0.318198,1.054595,0.333261,1.049700,0.333261,1.049700,$1*%
%AMFreePoly1*
4,1,52,0.333261,1.176979,0.349100,1.176979,0.361913,1.167669,0.376977,1.162775,0.386286,1.149961,0.399100,1.140652,0.403994,1.125588,0.413304,1.112775,0.413304,1.096936,0.418198,1.081873,0.418198,0.500000,0.500000,0.500000,0.500000,-0.500000,0.418198,-0.500000,0.418199,-0.954594,0.413304,-0.969657,0.413304,-0.985496,0.403994,-0.998309,0.399100,-1.013373,0.386286,-1.022682,
0.376977,-1.035496,0.361913,-1.040390,0.349100,-1.049700,0.333261,-1.049700,0.318198,-1.054595,-2.100106,-1.054594,-2.107780,-1.052101,-2.115751,-1.053363,-2.136613,-1.042731,-2.158886,-1.035496,-2.163629,-1.028966,-2.170819,-1.025304,-3.189052,-0.007071,-3.196242,0.007041,-3.207442,0.018241,-3.209919,0.033885,-3.217110,0.047997,-3.214632,0.063640,-3.217110,0.079283,-3.209919,0.093394,
-3.207442,0.109039,-3.196241,0.120238,-3.189052,0.134351,-2.170816,1.152584,-2.163629,1.156246,-2.158886,1.162775,-2.136616,1.170010,-2.115750,1.180643,-2.107779,1.179380,-2.100106,1.181873,0.318198,1.181872,0.333261,1.176979,0.333261,1.176979,$1*%
%AMFreePoly2*
4,1,46,0.325682,1.176979,0.349100,1.176979,0.355628,1.172236,0.363597,1.170974,0.380153,1.154417,0.399100,1.140652,0.401593,1.132977,0.407299,1.127272,0.410962,1.104143,0.418198,1.081873,0.418198,0.500000,0.500000,0.500000,0.500000,-0.500000,0.418198,-0.500000,0.418199,-0.954594,0.413304,-0.969657,0.413304,-0.985496,0.403994,-0.998309,0.399100,-1.013373,0.386286,-1.022682,
0.376977,-1.035496,0.361913,-1.040390,0.349100,-1.049700,0.333261,-1.049700,0.318198,-1.054595,-1.718269,-1.054594,-1.740538,-1.047358,-1.763668,-1.043695,-1.769373,-1.037989,-1.777048,-1.035496,-1.790813,-1.016549,-1.807370,-0.999993,-1.808632,-0.992023,-1.813375,-0.985496,-1.813375,-0.962079,-1.817038,-0.938952,-1.813375,-0.931762,-1.813375,-0.923692,-1.799609,-0.904746,-1.788980,-0.883883,
0.247487,1.152584,0.268351,1.163214,0.287296,1.176979,0.295365,1.176979,0.302554,1.180642,0.325682,1.176979,0.325682,1.176979,$1*%
G04 Aperture macros list end*
%ADD10RoundRect,0.250000X0.475000X-0.250000X0.475000X0.250000X-0.475000X0.250000X-0.475000X-0.250000X0*%
%ADD11RoundRect,0.225000X0.250000X-0.225000X0.250000X0.225000X-0.250000X0.225000X-0.250000X-0.225000X0*%
%ADD12RoundRect,0.225000X0.225000X0.250000X-0.225000X0.250000X-0.225000X-0.250000X0.225000X-0.250000X0*%
%ADD13RoundRect,0.243750X0.243750X0.456250X-0.243750X0.456250X-0.243750X-0.456250X0.243750X-0.456250X0*%
%ADD14RoundRect,0.200000X-0.275000X0.200000X-0.275000X-0.200000X0.275000X-0.200000X0.275000X0.200000X0*%
%ADD15RoundRect,0.200000X-0.200000X-0.275000X0.200000X-0.275000X0.200000X0.275000X-0.200000X0.275000X0*%
%ADD16RoundRect,0.200000X0.275000X-0.200000X0.275000X0.200000X-0.275000X0.200000X-0.275000X-0.200000X0*%
%ADD17RoundRect,0.062500X-0.062500X0.475000X-0.062500X-0.475000X0.062500X-0.475000X0.062500X0.475000X0*%
%ADD18RoundRect,0.062500X-0.475000X0.062500X-0.475000X-0.062500X0.475000X-0.062500X0.475000X0.062500X0*%
%ADD19R,5.200000X5.200000*%
%ADD20FreePoly0,45.000000*%
%ADD21FreePoly1,45.000000*%
%ADD22FreePoly2,45.000000*%
%ADD23RoundRect,0.225000X-0.225000X-0.250000X0.225000X-0.250000X0.225000X0.250000X-0.225000X0.250000X0*%
%ADD24R,0.800000X0.900000*%
%ADD25C,1.000000*%
%ADD26C,0.650000*%
%ADD27R,1.150000X0.300000*%
%ADD28O,2.100000X1.000000*%
%ADD29O,1.600000X1.000000*%
%ADD30R,1.000000X1.250000*%
%ADD31R,1.500000X2.000000*%
%ADD32O,1.500000X2.000000*%
G04 APERTURE END LIST*
D10*
%TO.C,C1*%
X194564000Y-78293000D03*
X194564000Y-76393000D03*
%TD*%
D11*
%TO.C,C2*%
X191008000Y-77864000D03*
X191008000Y-76314000D03*
%TD*%
D12*
%TO.C,C7*%
X188481000Y-77343000D03*
X186931000Y-77343000D03*
%TD*%
D13*
%TO.C,D1*%
X200987900Y-82600800D03*
X199112900Y-82600800D03*
%TD*%
D14*
%TO.C,R1*%
X185039000Y-76264000D03*
X185039000Y-77914000D03*
%TD*%
D15*
%TO.C,R2*%
X200470000Y-77978000D03*
X202120000Y-77978000D03*
%TD*%
%TO.C,R3*%
X200470000Y-76327000D03*
X202120000Y-76327000D03*
%TD*%
%TO.C,R4*%
X203289400Y-82600800D03*
X204939400Y-82600800D03*
%TD*%
D16*
%TO.C,R5*%
X197866000Y-77914000D03*
X197866000Y-76264000D03*
%TD*%
D17*
%TO.C,U1*%
X191349000Y-79593500D03*
X190849000Y-79593500D03*
X190349000Y-79593500D03*
X189849000Y-79593500D03*
X189349000Y-79593500D03*
X188849000Y-79593500D03*
X188349000Y-79593500D03*
X187849000Y-79593500D03*
X187349000Y-79593500D03*
X186849000Y-79593500D03*
X186349000Y-79593500D03*
D18*
X185511500Y-80431000D03*
X185511500Y-80931000D03*
X185511500Y-81431000D03*
X185511500Y-81931000D03*
X185511500Y-82431000D03*
X185511500Y-82931000D03*
X185511500Y-83431000D03*
X185511500Y-83931000D03*
X185511500Y-84431000D03*
X185511500Y-84931000D03*
X185511500Y-85431000D03*
D17*
X186349000Y-86268500D03*
X186849000Y-86268500D03*
X187349000Y-86268500D03*
X187849000Y-86268500D03*
X188349000Y-86268500D03*
X188849000Y-86268500D03*
X189349000Y-86268500D03*
X189849000Y-86268500D03*
X190349000Y-86268500D03*
X190849000Y-86268500D03*
X191349000Y-86268500D03*
D18*
X192186500Y-85431000D03*
X192186500Y-84931000D03*
X192186500Y-84431000D03*
X192186500Y-83931000D03*
X192186500Y-83431000D03*
X192186500Y-82931000D03*
X192186500Y-82431000D03*
X192186500Y-81931000D03*
X192186500Y-81431000D03*
X192186500Y-80931000D03*
X192186500Y-80431000D03*
D19*
X188849000Y-82931000D03*
%TD*%
D20*
%TO.C,ISP1*%
X184121200Y-89210800D03*
D21*
X182501200Y-87590800D03*
D22*
X180791200Y-85880800D03*
%TD*%
D23*
%TO.C,C5*%
X182232000Y-79883000D03*
X183782000Y-79883000D03*
%TD*%
D12*
%TO.C,C6*%
X183274000Y-84709000D03*
X181724000Y-84709000D03*
%TD*%
D24*
%TO.C,Y1*%
X182203000Y-81596000D03*
X182203000Y-82996000D03*
X183303000Y-82996000D03*
X183303000Y-81596000D03*
%TD*%
D11*
%TO.C,C3*%
X192659000Y-77864000D03*
X192659000Y-76314000D03*
%TD*%
D12*
%TO.C,C4*%
X187084000Y-88011000D03*
X185534000Y-88011000D03*
%TD*%
D25*
%TO.C,FID1*%
X224891600Y-89154000D03*
%TD*%
%TO.C,FID2*%
X181610000Y-76403200D03*
%TD*%
D26*
%TO.C,J1*%
X227836200Y-85486800D03*
X227836200Y-79706800D03*
D27*
X226771200Y-85946800D03*
X226771200Y-85146800D03*
X226771200Y-83846800D03*
X226771200Y-82846800D03*
X226771200Y-82346800D03*
X226771200Y-81346800D03*
X226771200Y-80046800D03*
X226771200Y-79246800D03*
X226771200Y-79546800D03*
X226771200Y-80346800D03*
X226771200Y-80846800D03*
X226771200Y-81846800D03*
X226771200Y-83346800D03*
X226771200Y-84346800D03*
X226771200Y-84846800D03*
X226771200Y-85646800D03*
D28*
X227336200Y-86916800D03*
D29*
X231516200Y-86916800D03*
D28*
X227336200Y-78276800D03*
D29*
X231516200Y-78276800D03*
%TD*%
D15*
%TO.C,R6*%
X211519000Y-82550000D03*
X213169000Y-82550000D03*
%TD*%
D13*
%TO.C,D2*%
X209522300Y-82550000D03*
X207647300Y-82550000D03*
%TD*%
D30*
%TO.C,SW1*%
X221869000Y-78675000D03*
X221869000Y-86425000D03*
%TD*%
D14*
%TO.C,R7*%
X224840800Y-83858600D03*
X224840800Y-85508600D03*
%TD*%
%TO.C,R8*%
X224840800Y-78778600D03*
X224840800Y-80428600D03*
%TD*%
D31*
%TO.C,GPIB1*%
X218194000Y-84695000D03*
D32*
X218194000Y-80405000D03*
X216034000Y-84695000D03*
X216034000Y-80405000D03*
X213874000Y-84695000D03*
X213874000Y-80405000D03*
X211714000Y-84695000D03*
X211714000Y-80405000D03*
X209554000Y-84695000D03*
X209554000Y-80405000D03*
X207394000Y-84695000D03*
X207394000Y-80405000D03*
X205234000Y-84695000D03*
X205234000Y-80405000D03*
X203074000Y-84695000D03*
X203074000Y-80405000D03*
X200914000Y-84695000D03*
X200914000Y-80405000D03*
X198754000Y-84695000D03*
X198754000Y-80405000D03*
X196594000Y-84695000D03*
X196594000Y-80405000D03*
X194434000Y-84695000D03*
X194434000Y-80405000D03*
%TD*%
M02*
