M48
; DRILL file {KiCad 9.0.1} date 2025-05-09T10:12:13+0200
; FORMAT={-:-/ absolute / inch / decimal}
; #@! TF.CreationDate,2025-05-09T10:12:13+02:00
; #@! TF.GenerationSoftware,Kicad,Pcbnew,9.0.1
; #@! TF.FileFunction,Plated,1,4,PTH
FMAT,2
INCH
; #@! TA.AperFunction,Plated,PTH,ViaDrill
T1C0.0118
; #@! TA.AperFunction,Plated,PTH,ComponentDrill
T2C0.0236
; #@! TA.AperFunction,Plated,PTH,ComponentDrill
T3C0.0394
%
G90
G05
T1
X7.126Y-3.0709
X7.126Y-3.3346
X7.1457Y-3.2677
X7.1496Y-3.0984
X7.1614Y-3.3701
X7.2047Y-2.9921
X7.2087Y-3.3858
X7.2362Y-3.1142
X7.2362Y-3.3858
X7.2362Y-3.4528
X7.248Y-3.2362
X7.2598Y-3.4646
X7.2638Y-3.3976
X7.2677Y-2.9921
X7.2677Y-3.2008
X7.2717Y-3.0394
X7.2849Y-3.385
X7.2913Y-3.0984
X7.3061Y-3.4931
X7.315Y-3.1093
X7.315Y-3.1339
X7.3661Y-3.1929
X7.3661Y-3.2638
X7.3661Y-3.3386
X7.3663Y-3.4942
X7.378Y-2.9803
X7.4331Y-3.3386
X7.435Y-3.265
X7.435Y-3.1949
X7.4409Y-2.9803
X7.4961Y-3.1929
X7.4961Y-3.2638
X7.4961Y-3.3346
X7.5315Y-3.0354
X7.5984Y-3.378
X7.6024Y-3.1614
X7.6024Y-3.189
X7.6024Y-3.2244
X7.6024Y-3.3504
X7.622Y-3.0669
X7.622Y-3.2598
X7.6378Y-3.2402
X7.6772Y-3.07
X7.8071Y-3.2598
X7.815Y-2.9803
X7.8642Y-3.4055
X7.9331Y-3.4154
X7.937Y-3.2835
X7.9764Y-3.2795
X8.0315Y-3.4252
X8.0709Y-2.9921
X8.0709Y-3.0709
X8.0945Y-3.2717
X8.1102Y-3.4252
X8.1417Y-3.2402
X8.189Y-2.9921
X8.189Y-3.0709
X8.2717Y-3.2835
X8.3071Y-2.9921
X8.3071Y-3.0709
X8.311Y-3.2835
X8.4213Y-3.252
X8.4252Y-2.9921
X8.4252Y-3.0709
X8.5059Y-3.4469
X8.5433Y-2.9921
X8.5433Y-3.0709
X8.5433Y-3.5039
X8.6614Y-2.9921
X8.6614Y-3.25
X8.6614Y-3.5039
X8.7087Y-3.0551
X8.7087Y-3.4026
X8.7795Y-2.9921
X8.7795Y-3.1496
X8.7795Y-3.3858
X8.7795Y-3.5039
X8.8275Y-3.2468
X8.8504Y-3.0709
X8.8504Y-3.2559
X8.8543Y-3.4252
X8.8937Y-3.1142
X8.8937Y-3.1496
X8.8937Y-3.3504
X8.8937Y-3.3819
X8.8976Y-2.9921
X8.8976Y-3.5039
X9.0157Y-2.9921
X9.0157Y-3.1496
X9.0157Y-3.2677
X9.0157Y-3.5039
X9.1339Y-2.9921
X9.1339Y-3.1496
X9.1339Y-3.2677
X9.1339Y-3.5039
T3
X7.6549Y-3.1656
X7.6549Y-3.3344
X7.7399Y-3.1656
X7.7399Y-3.3344
X7.825Y-3.1656
X7.825Y-3.3344
X7.91Y-3.1656
X7.91Y-3.3344
X7.995Y-3.1656
X7.995Y-3.3344
X8.0801Y-3.1656
X8.0801Y-3.3344
X8.1651Y-3.1656
X8.1651Y-3.3344
X8.2502Y-3.1656
X8.2502Y-3.3344
X8.3352Y-3.1656
X8.3352Y-3.3344
X8.4202Y-3.1656
X8.4202Y-3.3344
X8.5053Y-3.1656
X8.5053Y-3.3344
X8.5903Y-3.1656
X8.5903Y-3.3344
T2
G00X8.9286Y-3.0818
M15
G01X8.9719Y-3.0818
M16
G05
G00X8.9286Y-3.4219
M15
G01X8.9719Y-3.4219
M16
G05
G00X9.103Y-3.0818
M15
G01X9.1266Y-3.0818
M16
G05
G00X9.103Y-3.4219
M15
G01X9.1266Y-3.4219
M16
G05
M30
