%TF.GenerationSoftware,KiCad,Pcbnew,9.0.1*%
%TF.CreationDate,2025-05-09T10:12:14+02:00*%
%TF.ProjectId,xyp-gpib,7879702d-6770-4696-922e-6b696361645f,rev?*%
%TF.SameCoordinates,Original*%
%TF.FileFunction,Copper,L2,Inr*%
%TF.FilePolarity,Positive*%
%FSLAX46Y46*%
G04 Gerber Fmt 4.6, Leading zero omitted, Abs format (unit mm)*
G04 Created by KiCad (PCBNEW 9.0.1) date 2025-05-09 10:12:14*
%MOMM*%
%LPD*%
G01*
G04 APERTURE LIST*
%TA.AperFunction,HeatsinkPad*%
%ADD10O,2.100000X1.000000*%
%TD*%
%TA.AperFunction,HeatsinkPad*%
%ADD11O,1.600000X1.000000*%
%TD*%
%TA.AperFunction,ComponentPad*%
%ADD12R,1.500000X2.000000*%
%TD*%
%TA.AperFunction,ComponentPad*%
%ADD13O,1.500000X2.000000*%
%TD*%
%TA.AperFunction,ViaPad*%
%ADD14C,0.450000*%
%TD*%
G04 APERTURE END LIST*
D10*
%TO.N,GND*%
%TO.C,J1*%
X227336200Y-86916800D03*
D11*
X231516200Y-86916800D03*
D10*
X227336200Y-78276800D03*
D11*
X231516200Y-78276800D03*
%TD*%
D12*
%TO.N,/DIO5*%
%TO.C,GPIB1*%
X218194000Y-84695000D03*
D13*
%TO.N,/DIO1*%
X218194000Y-80405000D03*
%TO.N,/DIO6*%
X216034000Y-84695000D03*
%TO.N,/DIO2*%
X216034000Y-80405000D03*
%TO.N,/DIO7*%
X213874000Y-84695000D03*
%TO.N,/DIO3*%
X213874000Y-80405000D03*
%TO.N,/DIO8*%
X211714000Y-84695000D03*
%TO.N,/DIO4*%
X211714000Y-80405000D03*
%TO.N,/REN*%
X209554000Y-84695000D03*
%TO.N,/EOI*%
X209554000Y-80405000D03*
%TO.N,GND*%
X207394000Y-84695000D03*
%TO.N,/DAV*%
X207394000Y-80405000D03*
%TO.N,GND*%
X205234000Y-84695000D03*
%TO.N,/NRFD*%
X205234000Y-80405000D03*
%TO.N,GND*%
X203074000Y-84695000D03*
%TO.N,/NDAC*%
X203074000Y-80405000D03*
%TO.N,GND*%
X200914000Y-84695000D03*
%TO.N,/IFC*%
X200914000Y-80405000D03*
%TO.N,GND*%
X198754000Y-84695000D03*
%TO.N,/SRQ*%
X198754000Y-80405000D03*
%TO.N,GND*%
X196594000Y-84695000D03*
%TO.N,/ATN*%
X196594000Y-80405000D03*
%TO.N,GND*%
X194434000Y-84695000D03*
X194434000Y-80405000D03*
%TD*%
D14*
%TO.N,GND*%
X190400000Y-81100000D03*
X223000000Y-80000000D03*
X187100000Y-84800000D03*
X223000000Y-76000000D03*
X188850000Y-81150000D03*
X224900000Y-87000000D03*
X181000000Y-84700000D03*
X183000000Y-76000000D03*
X187400000Y-75700000D03*
X208000000Y-78000000D03*
X206000000Y-87000000D03*
X229000000Y-89000000D03*
X232000000Y-80000000D03*
X214000000Y-78000000D03*
X226000000Y-89000000D03*
X232000000Y-89000000D03*
X223000000Y-86000000D03*
X226000000Y-76000000D03*
X229000000Y-83000000D03*
X220000000Y-82550000D03*
X198500000Y-75700000D03*
X181500000Y-83000000D03*
X213900000Y-82600000D03*
X188800000Y-84800000D03*
X223000000Y-89000000D03*
X193100000Y-85100000D03*
X225900000Y-85900000D03*
X193600000Y-77900000D03*
X208000000Y-76000000D03*
X205600000Y-83100000D03*
X187100000Y-81100000D03*
X201500000Y-86750000D03*
X190400000Y-82900000D03*
X217000000Y-76000000D03*
X229000000Y-80000000D03*
X211000000Y-76000000D03*
X190400000Y-84700000D03*
X205000000Y-76000000D03*
X205000000Y-78000000D03*
X224800000Y-82700000D03*
X217000000Y-78000000D03*
X188849000Y-82931000D03*
X225900000Y-79100000D03*
X232000000Y-83000000D03*
X220000000Y-76000000D03*
X232000000Y-76000000D03*
X184600000Y-76000000D03*
X214000000Y-76000000D03*
X193100000Y-81000000D03*
X189000000Y-75700000D03*
X211000000Y-78000000D03*
X184100000Y-82200000D03*
X185575000Y-88725000D03*
X204000000Y-87000000D03*
X199750000Y-86500000D03*
X217000000Y-89000000D03*
X181000000Y-78000000D03*
X221200000Y-77600000D03*
X220000000Y-89000000D03*
X183800000Y-79100000D03*
X193100000Y-81900000D03*
X224800000Y-78000000D03*
X229000000Y-76000000D03*
X195000000Y-77978000D03*
X187100000Y-82900000D03*
%TO.N,+5V*%
X184600000Y-81300000D03*
X191300000Y-77100000D03*
X181600000Y-78700000D03*
X224219700Y-82467880D03*
X187103796Y-88753640D03*
X225900000Y-85100000D03*
X225900000Y-80000000D03*
X184400000Y-88000000D03*
X193100000Y-80300000D03*
X184700000Y-77200000D03*
X193000000Y-85800000D03*
%TO.N,Net-(D1-K)*%
X201600000Y-83400000D03*
X202600000Y-83300000D03*
%TO.N,/DIO4*%
X185035935Y-85978439D03*
%TO.N,/DIO3*%
X184500000Y-86300000D03*
%TO.N,/DIO6*%
X216050000Y-87550000D03*
%TO.N,/DIO2*%
X183800000Y-86000000D03*
%TO.N,/DIO1*%
X183100000Y-86000000D03*
%TO.N,/MOSI*%
X185800000Y-78974997D03*
X221200000Y-86425000D03*
%TO.N,Net-(D1-A)*%
X198300000Y-82800000D03*
X193600000Y-82800000D03*
%TO.N,/SCK*%
X181900000Y-85600000D03*
X185200000Y-78700000D03*
%TO.N,/MISO*%
X185800000Y-79600000D03*
X183800000Y-87700000D03*
%TO.N,Net-(D2-K)*%
X210100000Y-83400000D03*
X211100000Y-83400000D03*
%TO.N,Net-(D2-A)*%
X206800000Y-82300000D03*
X194000000Y-82300000D03*
%TD*%
%TA.AperFunction,Conductor*%
%TO.N,GND*%
G36*
X233012173Y-75201698D02*
G01*
X233131569Y-75213458D01*
X233179443Y-75222981D01*
X233282487Y-75254239D01*
X233327579Y-75272916D01*
X233422556Y-75323683D01*
X233463133Y-75350796D01*
X233504755Y-75384954D01*
X233546374Y-75419110D01*
X233580889Y-75453625D01*
X233649201Y-75536863D01*
X233676318Y-75577445D01*
X233725578Y-75669604D01*
X233727081Y-75672416D01*
X233745760Y-75717512D01*
X233777018Y-75820556D01*
X233786541Y-75868429D01*
X233798301Y-75987824D01*
X233799500Y-76012232D01*
X233799500Y-88987767D01*
X233798301Y-89012172D01*
X233798301Y-89012175D01*
X233786541Y-89131570D01*
X233777018Y-89179443D01*
X233745760Y-89282487D01*
X233727081Y-89327583D01*
X233676321Y-89422549D01*
X233649201Y-89463136D01*
X233580889Y-89546374D01*
X233546374Y-89580889D01*
X233463136Y-89649201D01*
X233422549Y-89676321D01*
X233327583Y-89727081D01*
X233282487Y-89745760D01*
X233179443Y-89777018D01*
X233131570Y-89786541D01*
X233041886Y-89795374D01*
X233012171Y-89798301D01*
X232987768Y-89799500D01*
X181012232Y-89799500D01*
X180987828Y-89798301D01*
X180954309Y-89794999D01*
X180868429Y-89786541D01*
X180820556Y-89777018D01*
X180717512Y-89745760D01*
X180672416Y-89727081D01*
X180669604Y-89725578D01*
X180577445Y-89676318D01*
X180536863Y-89649201D01*
X180453625Y-89580889D01*
X180419110Y-89546374D01*
X180350798Y-89463136D01*
X180323683Y-89422556D01*
X180272916Y-89327579D01*
X180254239Y-89282487D01*
X180222981Y-89179443D01*
X180213458Y-89131567D01*
X180201699Y-89012172D01*
X180200500Y-88987767D01*
X180200500Y-88697621D01*
X186678296Y-88697621D01*
X186678296Y-88809658D01*
X186707292Y-88917876D01*
X186707293Y-88917877D01*
X186763311Y-89014903D01*
X186842533Y-89094125D01*
X186939559Y-89150143D01*
X187047778Y-89179140D01*
X187159814Y-89179140D01*
X187268033Y-89150143D01*
X187365059Y-89094125D01*
X187444281Y-89014903D01*
X187500299Y-88917877D01*
X187529296Y-88809658D01*
X187529296Y-88697622D01*
X187500299Y-88589403D01*
X187444281Y-88492377D01*
X187365059Y-88413155D01*
X187336217Y-88396503D01*
X187268032Y-88357136D01*
X187159814Y-88328140D01*
X187047778Y-88328140D01*
X186939559Y-88357136D01*
X186842534Y-88413154D01*
X186763310Y-88492378D01*
X186707292Y-88589403D01*
X186678296Y-88697621D01*
X180200500Y-88697621D01*
X180200500Y-87643981D01*
X183374500Y-87643981D01*
X183374500Y-87756018D01*
X183403496Y-87864236D01*
X183403497Y-87864237D01*
X183459515Y-87961263D01*
X183538737Y-88040485D01*
X183635763Y-88096503D01*
X183743982Y-88125500D01*
X183837372Y-88125500D01*
X183932660Y-88144454D01*
X184013442Y-88198430D01*
X184053012Y-88250000D01*
X184059512Y-88261259D01*
X184059513Y-88261260D01*
X184059515Y-88261263D01*
X184138737Y-88340485D01*
X184235763Y-88396503D01*
X184343982Y-88425500D01*
X184456018Y-88425500D01*
X184564237Y-88396503D01*
X184661263Y-88340485D01*
X184740485Y-88261263D01*
X184796503Y-88164237D01*
X184825500Y-88056018D01*
X184825500Y-87943982D01*
X184796503Y-87835763D01*
X184740485Y-87738737D01*
X184661263Y-87659515D01*
X184564237Y-87603497D01*
X184456018Y-87574500D01*
X184343982Y-87574500D01*
X184332620Y-87577544D01*
X184285774Y-87562343D01*
X184277093Y-87557486D01*
X184267340Y-87555546D01*
X184234964Y-87533913D01*
X184200988Y-87514903D01*
X184194828Y-87507096D01*
X184186558Y-87501570D01*
X184180735Y-87493981D01*
X215624500Y-87493981D01*
X215624500Y-87606018D01*
X215653496Y-87714236D01*
X215677619Y-87756018D01*
X215709515Y-87811263D01*
X215788737Y-87890485D01*
X215885763Y-87946503D01*
X215993982Y-87975500D01*
X216106018Y-87975500D01*
X216214237Y-87946503D01*
X216311263Y-87890485D01*
X216390485Y-87811263D01*
X216446503Y-87714237D01*
X216475500Y-87606018D01*
X216475500Y-87493982D01*
X216446503Y-87385763D01*
X216390485Y-87288737D01*
X216311263Y-87209515D01*
X216285263Y-87194504D01*
X216214236Y-87153496D01*
X216106018Y-87124500D01*
X215993982Y-87124500D01*
X215885763Y-87153496D01*
X215788738Y-87209514D01*
X215709514Y-87288738D01*
X215653496Y-87385763D01*
X215624500Y-87493981D01*
X184180735Y-87493981D01*
X184146988Y-87450000D01*
X184140487Y-87438740D01*
X184140486Y-87438739D01*
X184140485Y-87438737D01*
X184061263Y-87359515D01*
X184035263Y-87344504D01*
X183964236Y-87303496D01*
X183856018Y-87274500D01*
X183743982Y-87274500D01*
X183635763Y-87303496D01*
X183538738Y-87359514D01*
X183459514Y-87438738D01*
X183403496Y-87535763D01*
X183374500Y-87643981D01*
X180200500Y-87643981D01*
X180200500Y-85543981D01*
X181474500Y-85543981D01*
X181474500Y-85656018D01*
X181503496Y-85764236D01*
X181532344Y-85814202D01*
X181559515Y-85861263D01*
X181638737Y-85940485D01*
X181735763Y-85996503D01*
X181843982Y-86025500D01*
X181956018Y-86025500D01*
X182064237Y-85996503D01*
X182155206Y-85943982D01*
X182674500Y-85943982D01*
X182674500Y-86056018D01*
X182676258Y-86062580D01*
X182676258Y-86062581D01*
X182703496Y-86164236D01*
X182703497Y-86164237D01*
X182759515Y-86261263D01*
X182838737Y-86340485D01*
X182935763Y-86396503D01*
X183043982Y-86425500D01*
X183156018Y-86425500D01*
X183264237Y-86396503D01*
X183325500Y-86361132D01*
X183417498Y-86329903D01*
X183494062Y-86331703D01*
X183537822Y-86339570D01*
X183538737Y-86340485D01*
X183635763Y-86396503D01*
X183743982Y-86425500D01*
X183856018Y-86425500D01*
X183920161Y-86408312D01*
X183974926Y-86418159D01*
X184014791Y-86433816D01*
X184055363Y-86447588D01*
X184059828Y-86451504D01*
X184065356Y-86453675D01*
X184096204Y-86483404D01*
X184128408Y-86511647D01*
X184133652Y-86519495D01*
X184135312Y-86521095D01*
X184136421Y-86523639D01*
X184146502Y-86538726D01*
X184159510Y-86561256D01*
X184159513Y-86561260D01*
X184159515Y-86561263D01*
X184238737Y-86640485D01*
X184335763Y-86696503D01*
X184443982Y-86725500D01*
X184556018Y-86725500D01*
X184664237Y-86696503D01*
X184761263Y-86640485D01*
X184840485Y-86561263D01*
X184859436Y-86528438D01*
X184923494Y-86455395D01*
X185010629Y-86412424D01*
X185075076Y-86403939D01*
X185091953Y-86403939D01*
X185200172Y-86374942D01*
X185210497Y-86368981D01*
X220774500Y-86368981D01*
X220774500Y-86481018D01*
X220803496Y-86589236D01*
X220803497Y-86589237D01*
X220859515Y-86686263D01*
X220938737Y-86765485D01*
X221035763Y-86821503D01*
X221143982Y-86850500D01*
X221256018Y-86850500D01*
X221364237Y-86821503D01*
X221461263Y-86765485D01*
X221540485Y-86686263D01*
X221596503Y-86589237D01*
X221625500Y-86481018D01*
X221625500Y-86368982D01*
X221622026Y-86356018D01*
X221596503Y-86260763D01*
X221559402Y-86196502D01*
X221540485Y-86163737D01*
X221461263Y-86084515D01*
X221423272Y-86062581D01*
X221364236Y-86028496D01*
X221256018Y-85999500D01*
X221143982Y-85999500D01*
X221035763Y-86028496D01*
X220938738Y-86084514D01*
X220859514Y-86163738D01*
X220803496Y-86260763D01*
X220774500Y-86368981D01*
X185210497Y-86368981D01*
X185297198Y-86318924D01*
X185376420Y-86239702D01*
X185432438Y-86142676D01*
X185461435Y-86034457D01*
X185461435Y-85922421D01*
X185456364Y-85903497D01*
X185432438Y-85814202D01*
X185408783Y-85773231D01*
X185391896Y-85743981D01*
X192574500Y-85743981D01*
X192574500Y-85856018D01*
X192603496Y-85964236D01*
X192644039Y-86034457D01*
X192659515Y-86061263D01*
X192738737Y-86140485D01*
X192835763Y-86196503D01*
X192943982Y-86225500D01*
X193056018Y-86225500D01*
X193164237Y-86196503D01*
X193261263Y-86140485D01*
X193340485Y-86061263D01*
X193396503Y-85964237D01*
X193425500Y-85856018D01*
X193425500Y-85743982D01*
X193418317Y-85717176D01*
X193396503Y-85635763D01*
X193340485Y-85538737D01*
X193261263Y-85459515D01*
X193196869Y-85422337D01*
X193164236Y-85403496D01*
X193056018Y-85374500D01*
X192943982Y-85374500D01*
X192835763Y-85403496D01*
X192738738Y-85459514D01*
X192659514Y-85538738D01*
X192603496Y-85635763D01*
X192574500Y-85743981D01*
X185391896Y-85743981D01*
X185376420Y-85717176D01*
X185297198Y-85637954D01*
X185237515Y-85603496D01*
X185200171Y-85581935D01*
X185091953Y-85552939D01*
X184979917Y-85552939D01*
X184871698Y-85581935D01*
X184774673Y-85637953D01*
X184695449Y-85717177D01*
X184676500Y-85749999D01*
X184664960Y-85763157D01*
X184657086Y-85778783D01*
X184633218Y-85799352D01*
X184612441Y-85823044D01*
X184596745Y-85830784D01*
X184583490Y-85842208D01*
X184562227Y-85847806D01*
X184525306Y-85866015D01*
X184491225Y-85872641D01*
X184476095Y-85874500D01*
X184443982Y-85874500D01*
X184416785Y-85881787D01*
X184399501Y-85883911D01*
X184368073Y-85881578D01*
X184336624Y-85883638D01*
X184320058Y-85878013D01*
X184302613Y-85876719D01*
X184274471Y-85862537D01*
X184244626Y-85852405D01*
X184231472Y-85840868D01*
X184215852Y-85832997D01*
X184195279Y-85809124D01*
X184171584Y-85788343D01*
X184153495Y-85761271D01*
X184143513Y-85743982D01*
X184140485Y-85738737D01*
X184061263Y-85659515D01*
X183989312Y-85617974D01*
X183964236Y-85603496D01*
X183856018Y-85574500D01*
X183743982Y-85574500D01*
X183635762Y-85603497D01*
X183574499Y-85638867D01*
X183482500Y-85670096D01*
X183385553Y-85663741D01*
X183325501Y-85638867D01*
X183264237Y-85603497D01*
X183156018Y-85574500D01*
X183043982Y-85574500D01*
X182935763Y-85603496D01*
X182838738Y-85659514D01*
X182838737Y-85659515D01*
X182759515Y-85738737D01*
X182703497Y-85835763D01*
X182674500Y-85943982D01*
X182155206Y-85943982D01*
X182161263Y-85940485D01*
X182240485Y-85861263D01*
X182296503Y-85764237D01*
X182325500Y-85656018D01*
X182325500Y-85543982D01*
X182296503Y-85435763D01*
X182240485Y-85338737D01*
X182161263Y-85259515D01*
X182098180Y-85223094D01*
X182064236Y-85203496D01*
X181956018Y-85174500D01*
X181843982Y-85174500D01*
X181735763Y-85203496D01*
X181638738Y-85259514D01*
X181559514Y-85338738D01*
X181503496Y-85435763D01*
X181474500Y-85543981D01*
X180200500Y-85543981D01*
X180200500Y-84351384D01*
X208603500Y-84351384D01*
X208603500Y-85038616D01*
X208616963Y-85106301D01*
X208640027Y-85222253D01*
X208711675Y-85395226D01*
X208711678Y-85395231D01*
X208811069Y-85543981D01*
X208815698Y-85550908D01*
X208948092Y-85683302D01*
X209103769Y-85787322D01*
X209103771Y-85787322D01*
X209103773Y-85787324D01*
X209276746Y-85858972D01*
X209276747Y-85858972D01*
X209276749Y-85858973D01*
X209460384Y-85895500D01*
X209460386Y-85895500D01*
X209647614Y-85895500D01*
X209647616Y-85895500D01*
X209831251Y-85858973D01*
X210004231Y-85787322D01*
X210159908Y-85683302D01*
X210292302Y-85550908D01*
X210396322Y-85395231D01*
X210403953Y-85376807D01*
X210457929Y-85296026D01*
X210538710Y-85242049D01*
X210633998Y-85223094D01*
X210729286Y-85242047D01*
X210810068Y-85296023D01*
X210864045Y-85376804D01*
X210864047Y-85376808D01*
X210871676Y-85395228D01*
X210871678Y-85395231D01*
X210971069Y-85543981D01*
X210975698Y-85550908D01*
X211108092Y-85683302D01*
X211263769Y-85787322D01*
X211263771Y-85787322D01*
X211263773Y-85787324D01*
X211436746Y-85858972D01*
X211436747Y-85858972D01*
X211436749Y-85858973D01*
X211620384Y-85895500D01*
X211620386Y-85895500D01*
X211807614Y-85895500D01*
X211807616Y-85895500D01*
X211991251Y-85858973D01*
X212164231Y-85787322D01*
X212319908Y-85683302D01*
X212452302Y-85550908D01*
X212556322Y-85395231D01*
X212563953Y-85376807D01*
X212617929Y-85296026D01*
X212698710Y-85242049D01*
X212793998Y-85223094D01*
X212889286Y-85242047D01*
X212970068Y-85296023D01*
X213024045Y-85376804D01*
X213024047Y-85376808D01*
X213031676Y-85395228D01*
X213031678Y-85395231D01*
X213131069Y-85543981D01*
X213135698Y-85550908D01*
X213268092Y-85683302D01*
X213423769Y-85787322D01*
X213423771Y-85787322D01*
X213423773Y-85787324D01*
X213596746Y-85858972D01*
X213596747Y-85858972D01*
X213596749Y-85858973D01*
X213780384Y-85895500D01*
X213780386Y-85895500D01*
X213967614Y-85895500D01*
X213967616Y-85895500D01*
X214151251Y-85858973D01*
X214324231Y-85787322D01*
X214479908Y-85683302D01*
X214612302Y-85550908D01*
X214716322Y-85395231D01*
X214723953Y-85376807D01*
X214777929Y-85296026D01*
X214858710Y-85242049D01*
X214953998Y-85223094D01*
X215049286Y-85242047D01*
X215130068Y-85296023D01*
X215184045Y-85376804D01*
X215184047Y-85376808D01*
X215191676Y-85395228D01*
X215191678Y-85395231D01*
X215291069Y-85543981D01*
X215295698Y-85550908D01*
X215428092Y-85683302D01*
X215583769Y-85787322D01*
X215583771Y-85787322D01*
X215583773Y-85787324D01*
X215756746Y-85858972D01*
X215756747Y-85858972D01*
X215756749Y-85858973D01*
X215940384Y-85895500D01*
X215940386Y-85895500D01*
X216127614Y-85895500D01*
X216127616Y-85895500D01*
X216311251Y-85858973D01*
X216484231Y-85787322D01*
X216639908Y-85683302D01*
X216772302Y-85550908D01*
X216787463Y-85528218D01*
X216856161Y-85459518D01*
X216945921Y-85422338D01*
X217043076Y-85422337D01*
X217132835Y-85459516D01*
X217201535Y-85528214D01*
X217238715Y-85617974D01*
X217243500Y-85666553D01*
X217243500Y-85714748D01*
X217248272Y-85738737D01*
X217255133Y-85773232D01*
X217293589Y-85830784D01*
X217299448Y-85839552D01*
X217299451Y-85839554D01*
X217365767Y-85883866D01*
X217365769Y-85883867D01*
X217424252Y-85895500D01*
X217424255Y-85895500D01*
X218963745Y-85895500D01*
X218963748Y-85895500D01*
X219022231Y-85883867D01*
X219088552Y-85839552D01*
X219132867Y-85773231D01*
X219144500Y-85714748D01*
X219144500Y-85043981D01*
X225474500Y-85043981D01*
X225474500Y-85156018D01*
X225503496Y-85264236D01*
X225544504Y-85335263D01*
X225559515Y-85361263D01*
X225638737Y-85440485D01*
X225735763Y-85496503D01*
X225843982Y-85525500D01*
X225956018Y-85525500D01*
X226064237Y-85496503D01*
X226161263Y-85440485D01*
X226177549Y-85424199D01*
X227360700Y-85424199D01*
X227360700Y-85549400D01*
X227393103Y-85670331D01*
X227393108Y-85670342D01*
X227455701Y-85778759D01*
X227455703Y-85778761D01*
X227455705Y-85778764D01*
X227544236Y-85867295D01*
X227544238Y-85867296D01*
X227544240Y-85867298D01*
X227639717Y-85922420D01*
X227652664Y-85929895D01*
X227773599Y-85962300D01*
X227898801Y-85962300D01*
X228019736Y-85929895D01*
X228128164Y-85867295D01*
X228216695Y-85778764D01*
X228219890Y-85773231D01*
X228239804Y-85738737D01*
X228279295Y-85670336D01*
X228311700Y-85549401D01*
X228311700Y-85424199D01*
X228279295Y-85303264D01*
X228275116Y-85296026D01*
X228216698Y-85194840D01*
X228216696Y-85194838D01*
X228216695Y-85194836D01*
X228128164Y-85106305D01*
X228128161Y-85106303D01*
X228128159Y-85106301D01*
X228019742Y-85043708D01*
X228019738Y-85043706D01*
X228019736Y-85043705D01*
X228019734Y-85043704D01*
X228019731Y-85043703D01*
X227898801Y-85011300D01*
X227773599Y-85011300D01*
X227652668Y-85043703D01*
X227652657Y-85043708D01*
X227544240Y-85106301D01*
X227455701Y-85194840D01*
X227393108Y-85303257D01*
X227393103Y-85303268D01*
X227360700Y-85424199D01*
X226177549Y-85424199D01*
X226240485Y-85361263D01*
X226272119Y-85306469D01*
X226285453Y-85283377D01*
X226285455Y-85283374D01*
X226296502Y-85264240D01*
X226296502Y-85264239D01*
X226297769Y-85259514D01*
X226325500Y-85156018D01*
X226325500Y-85043982D01*
X226325425Y-85043703D01*
X226296503Y-84935763D01*
X226240485Y-84838737D01*
X226161263Y-84759515D01*
X226135263Y-84744504D01*
X226064236Y-84703496D01*
X225956018Y-84674500D01*
X225843982Y-84674500D01*
X225735763Y-84703496D01*
X225638738Y-84759514D01*
X225559514Y-84838738D01*
X225503496Y-84935763D01*
X225474500Y-85043981D01*
X219144500Y-85043981D01*
X219144500Y-83675252D01*
X219132867Y-83616769D01*
X219095778Y-83561263D01*
X219088554Y-83550451D01*
X219088552Y-83550448D01*
X219088548Y-83550445D01*
X219022232Y-83506133D01*
X219007610Y-83503224D01*
X218963748Y-83494500D01*
X217424252Y-83494500D01*
X217389162Y-83501479D01*
X217365767Y-83506133D01*
X217299451Y-83550445D01*
X217299445Y-83550451D01*
X217255133Y-83616767D01*
X217243500Y-83675254D01*
X217243500Y-83723446D01*
X217224546Y-83818734D01*
X217170570Y-83899516D01*
X217089788Y-83953492D01*
X216994500Y-83972446D01*
X216899212Y-83953492D01*
X216818430Y-83899516D01*
X216787465Y-83861784D01*
X216772305Y-83839096D01*
X216772304Y-83839095D01*
X216772302Y-83839092D01*
X216639908Y-83706698D01*
X216624650Y-83696503D01*
X216484231Y-83602678D01*
X216484226Y-83602675D01*
X216311253Y-83531027D01*
X216186099Y-83506133D01*
X216127616Y-83494500D01*
X215940384Y-83494500D01*
X215881901Y-83506133D01*
X215756746Y-83531027D01*
X215583773Y-83602675D01*
X215583768Y-83602678D01*
X215428095Y-83706695D01*
X215295695Y-83839095D01*
X215191678Y-83994768D01*
X215191677Y-83994770D01*
X215184046Y-84013194D01*
X215130069Y-84093975D01*
X215049288Y-84147951D01*
X214953999Y-84166905D01*
X214858711Y-84147951D01*
X214777930Y-84093974D01*
X214723954Y-84013194D01*
X214722730Y-84010239D01*
X214716322Y-83994769D01*
X214612302Y-83839092D01*
X214479908Y-83706698D01*
X214464650Y-83696503D01*
X214324231Y-83602678D01*
X214324226Y-83602675D01*
X214151253Y-83531027D01*
X214026099Y-83506133D01*
X213967616Y-83494500D01*
X213780384Y-83494500D01*
X213721901Y-83506133D01*
X213596746Y-83531027D01*
X213423773Y-83602675D01*
X213423768Y-83602678D01*
X213268095Y-83706695D01*
X213135695Y-83839095D01*
X213031678Y-83994768D01*
X213031677Y-83994770D01*
X213024046Y-84013194D01*
X212970069Y-84093975D01*
X212889288Y-84147951D01*
X212793999Y-84166905D01*
X212698711Y-84147951D01*
X212617930Y-84093974D01*
X212563954Y-84013194D01*
X212562730Y-84010239D01*
X212556322Y-83994769D01*
X212452302Y-83839092D01*
X212319908Y-83706698D01*
X212304650Y-83696503D01*
X212164231Y-83602678D01*
X212164226Y-83602675D01*
X211991253Y-83531027D01*
X211866099Y-83506133D01*
X211807616Y-83494500D01*
X211756896Y-83494500D01*
X211661608Y-83475546D01*
X211580826Y-83421570D01*
X211526850Y-83340788D01*
X211516380Y-83309945D01*
X211496503Y-83235763D01*
X211473836Y-83196503D01*
X211440485Y-83138737D01*
X211361263Y-83059515D01*
X211325276Y-83038738D01*
X211264236Y-83003496D01*
X211156018Y-82974500D01*
X211043982Y-82974500D01*
X210935763Y-83003496D01*
X210838738Y-83059514D01*
X210838737Y-83059514D01*
X210838737Y-83059515D01*
X210776066Y-83122185D01*
X210695288Y-83176159D01*
X210600000Y-83195113D01*
X210504712Y-83176159D01*
X210423933Y-83122185D01*
X210361263Y-83059515D01*
X210325276Y-83038738D01*
X210264236Y-83003496D01*
X210156018Y-82974500D01*
X210043982Y-82974500D01*
X209935763Y-83003496D01*
X209838738Y-83059514D01*
X209759514Y-83138738D01*
X209703495Y-83235765D01*
X209703495Y-83235766D01*
X209683482Y-83310456D01*
X209640512Y-83397592D01*
X209567467Y-83461650D01*
X209475468Y-83492880D01*
X209467381Y-83493810D01*
X209460393Y-83494498D01*
X209276746Y-83531027D01*
X209103773Y-83602675D01*
X209103768Y-83602678D01*
X208948095Y-83706695D01*
X208815695Y-83839095D01*
X208711678Y-83994768D01*
X208711675Y-83994773D01*
X208640027Y-84167746D01*
X208612631Y-84305475D01*
X208603500Y-84351384D01*
X180200500Y-84351384D01*
X180200500Y-83343981D01*
X201174500Y-83343981D01*
X201174500Y-83456018D01*
X201203496Y-83564236D01*
X201233825Y-83616767D01*
X201259515Y-83661263D01*
X201338737Y-83740485D01*
X201435763Y-83796503D01*
X201543982Y-83825500D01*
X201656018Y-83825500D01*
X201764237Y-83796503D01*
X201861263Y-83740485D01*
X201940485Y-83661263D01*
X201940488Y-83661258D01*
X201949570Y-83649423D01*
X202022615Y-83585364D01*
X202114613Y-83554133D01*
X202211560Y-83560487D01*
X202298696Y-83603457D01*
X202323177Y-83624925D01*
X202338737Y-83640485D01*
X202435763Y-83696503D01*
X202543982Y-83725500D01*
X202656018Y-83725500D01*
X202764237Y-83696503D01*
X202861263Y-83640485D01*
X202940485Y-83561263D01*
X202996503Y-83464237D01*
X203025500Y-83356018D01*
X203025500Y-83243982D01*
X203023298Y-83235765D01*
X202996503Y-83135763D01*
X202984308Y-83114641D01*
X202940485Y-83038737D01*
X202861263Y-82959515D01*
X202835263Y-82944504D01*
X202764236Y-82903496D01*
X202656018Y-82874500D01*
X202543982Y-82874500D01*
X202435763Y-82903496D01*
X202338738Y-82959514D01*
X202259507Y-83038745D01*
X202250422Y-83050585D01*
X202177375Y-83114641D01*
X202085375Y-83145867D01*
X201988428Y-83139509D01*
X201901294Y-83096535D01*
X201876821Y-83075073D01*
X201861263Y-83059515D01*
X201825276Y-83038738D01*
X201764236Y-83003496D01*
X201656018Y-82974500D01*
X201543982Y-82974500D01*
X201435763Y-83003496D01*
X201338738Y-83059514D01*
X201259514Y-83138738D01*
X201203496Y-83235763D01*
X201174500Y-83343981D01*
X180200500Y-83343981D01*
X180200500Y-82743981D01*
X193174500Y-82743981D01*
X193174500Y-82856018D01*
X193203496Y-82964236D01*
X193203497Y-82964237D01*
X193259515Y-83061263D01*
X193338737Y-83140485D01*
X193435763Y-83196503D01*
X193543982Y-83225500D01*
X193656018Y-83225500D01*
X193764237Y-83196503D01*
X193861263Y-83140485D01*
X193940485Y-83061263D01*
X193996503Y-82964237D01*
X194024476Y-82859838D01*
X194067444Y-82772705D01*
X194096436Y-82743981D01*
X197874500Y-82743981D01*
X197874500Y-82856018D01*
X197903496Y-82964236D01*
X197903497Y-82964237D01*
X197959515Y-83061263D01*
X198038737Y-83140485D01*
X198135763Y-83196503D01*
X198243982Y-83225500D01*
X198356018Y-83225500D01*
X198464237Y-83196503D01*
X198561263Y-83140485D01*
X198640485Y-83061263D01*
X198696503Y-82964237D01*
X198725500Y-82856018D01*
X198725500Y-82743982D01*
X198721523Y-82729141D01*
X198696503Y-82635763D01*
X198647926Y-82551626D01*
X198640485Y-82538737D01*
X198561263Y-82459515D01*
X198478724Y-82411861D01*
X198464236Y-82403496D01*
X198356018Y-82374500D01*
X198243982Y-82374500D01*
X198135763Y-82403496D01*
X198038738Y-82459514D01*
X197959514Y-82538738D01*
X197903496Y-82635763D01*
X197874500Y-82743981D01*
X194096436Y-82743981D01*
X194115252Y-82725339D01*
X194147663Y-82700943D01*
X194164237Y-82696503D01*
X194261263Y-82640485D01*
X194340485Y-82561263D01*
X194396503Y-82464237D01*
X194425500Y-82356018D01*
X194425500Y-82243982D01*
X194415488Y-82206618D01*
X194396503Y-82135763D01*
X194391671Y-82127394D01*
X194340485Y-82038737D01*
X194261263Y-81959515D01*
X194235263Y-81944504D01*
X194164236Y-81903496D01*
X194056018Y-81874500D01*
X193943982Y-81874500D01*
X193835763Y-81903496D01*
X193738738Y-81959514D01*
X193659514Y-82038738D01*
X193603496Y-82135763D01*
X193575524Y-82240160D01*
X193532553Y-82327296D01*
X193459509Y-82391355D01*
X193440891Y-82400536D01*
X193338738Y-82459514D01*
X193259514Y-82538738D01*
X193203496Y-82635763D01*
X193174500Y-82743981D01*
X180200500Y-82743981D01*
X180200500Y-81243981D01*
X184174500Y-81243981D01*
X184174500Y-81356018D01*
X184203496Y-81464236D01*
X184222600Y-81497324D01*
X184259515Y-81561263D01*
X184338737Y-81640485D01*
X184435763Y-81696503D01*
X184543982Y-81725500D01*
X184656018Y-81725500D01*
X184764237Y-81696503D01*
X184861263Y-81640485D01*
X184940485Y-81561263D01*
X184996503Y-81464237D01*
X185025500Y-81356018D01*
X185025500Y-81243982D01*
X184996503Y-81135763D01*
X184940485Y-81038737D01*
X184861263Y-80959515D01*
X184835263Y-80944504D01*
X184764236Y-80903496D01*
X184656018Y-80874500D01*
X184543982Y-80874500D01*
X184435763Y-80903496D01*
X184338738Y-80959514D01*
X184259514Y-81038738D01*
X184203496Y-81135763D01*
X184174500Y-81243981D01*
X180200500Y-81243981D01*
X180200500Y-80243981D01*
X192674500Y-80243981D01*
X192674500Y-80356018D01*
X192703496Y-80464236D01*
X192703497Y-80464237D01*
X192759515Y-80561263D01*
X192838737Y-80640485D01*
X192935763Y-80696503D01*
X193043982Y-80725500D01*
X193156018Y-80725500D01*
X193264237Y-80696503D01*
X193361263Y-80640485D01*
X193440485Y-80561263D01*
X193496503Y-80464237D01*
X193525500Y-80356018D01*
X193525500Y-80243982D01*
X193508972Y-80182300D01*
X193496503Y-80135763D01*
X193453561Y-80061385D01*
X195643500Y-80061385D01*
X195643500Y-80748614D01*
X195680027Y-80932253D01*
X195751675Y-81105226D01*
X195751678Y-81105231D01*
X195844387Y-81243981D01*
X195855698Y-81260908D01*
X195988092Y-81393302D01*
X196143769Y-81497322D01*
X196143771Y-81497322D01*
X196143773Y-81497324D01*
X196316746Y-81568972D01*
X196316747Y-81568972D01*
X196316749Y-81568973D01*
X196500384Y-81605500D01*
X196500386Y-81605500D01*
X196687614Y-81605500D01*
X196687616Y-81605500D01*
X196871251Y-81568973D01*
X197044231Y-81497322D01*
X197199908Y-81393302D01*
X197332302Y-81260908D01*
X197436322Y-81105231D01*
X197443953Y-81086807D01*
X197497929Y-81006026D01*
X197578710Y-80952049D01*
X197673998Y-80933094D01*
X197769286Y-80952047D01*
X197850068Y-81006023D01*
X197904045Y-81086804D01*
X197904047Y-81086808D01*
X197911676Y-81105228D01*
X197911678Y-81105231D01*
X198004387Y-81243981D01*
X198015698Y-81260908D01*
X198148092Y-81393302D01*
X198303769Y-81497322D01*
X198303771Y-81497322D01*
X198303773Y-81497324D01*
X198476746Y-81568972D01*
X198476747Y-81568972D01*
X198476749Y-81568973D01*
X198660384Y-81605500D01*
X198660386Y-81605500D01*
X198847614Y-81605500D01*
X198847616Y-81605500D01*
X199031251Y-81568973D01*
X199204231Y-81497322D01*
X199359908Y-81393302D01*
X199492302Y-81260908D01*
X199596322Y-81105231D01*
X199603953Y-81086807D01*
X199657929Y-81006026D01*
X199738710Y-80952049D01*
X199833998Y-80933094D01*
X199929286Y-80952047D01*
X200010068Y-81006023D01*
X200064045Y-81086804D01*
X200064047Y-81086808D01*
X200071676Y-81105228D01*
X200071678Y-81105231D01*
X200164387Y-81243981D01*
X200175698Y-81260908D01*
X200308092Y-81393302D01*
X200463769Y-81497322D01*
X200463771Y-81497322D01*
X200463773Y-81497324D01*
X200636746Y-81568972D01*
X200636747Y-81568972D01*
X200636749Y-81568973D01*
X200820384Y-81605500D01*
X200820386Y-81605500D01*
X201007614Y-81605500D01*
X201007616Y-81605500D01*
X201191251Y-81568973D01*
X201364231Y-81497322D01*
X201519908Y-81393302D01*
X201652302Y-81260908D01*
X201756322Y-81105231D01*
X201763953Y-81086807D01*
X201817929Y-81006026D01*
X201898710Y-80952049D01*
X201993998Y-80933094D01*
X202089286Y-80952047D01*
X202170068Y-81006023D01*
X202224045Y-81086804D01*
X202224047Y-81086808D01*
X202231676Y-81105228D01*
X202231678Y-81105231D01*
X202324387Y-81243981D01*
X202335698Y-81260908D01*
X202468092Y-81393302D01*
X202623769Y-81497322D01*
X202623771Y-81497322D01*
X202623773Y-81497324D01*
X202796746Y-81568972D01*
X202796747Y-81568972D01*
X202796749Y-81568973D01*
X202980384Y-81605500D01*
X202980386Y-81605500D01*
X203167614Y-81605500D01*
X203167616Y-81605500D01*
X203351251Y-81568973D01*
X203524231Y-81497322D01*
X203679908Y-81393302D01*
X203812302Y-81260908D01*
X203916322Y-81105231D01*
X203923953Y-81086807D01*
X203977929Y-81006026D01*
X204058710Y-80952049D01*
X204153998Y-80933094D01*
X204249286Y-80952047D01*
X204330068Y-81006023D01*
X204384045Y-81086804D01*
X204384047Y-81086808D01*
X204391676Y-81105228D01*
X204391678Y-81105231D01*
X204484387Y-81243981D01*
X204495698Y-81260908D01*
X204628092Y-81393302D01*
X204783769Y-81497322D01*
X204783771Y-81497322D01*
X204783773Y-81497324D01*
X204956746Y-81568972D01*
X204956747Y-81568972D01*
X204956749Y-81568973D01*
X205140384Y-81605500D01*
X205140386Y-81605500D01*
X205327614Y-81605500D01*
X205327616Y-81605500D01*
X205511251Y-81568973D01*
X205684231Y-81497322D01*
X205839908Y-81393302D01*
X205972302Y-81260908D01*
X206076322Y-81105231D01*
X206083953Y-81086807D01*
X206137929Y-81006026D01*
X206218710Y-80952049D01*
X206313998Y-80933094D01*
X206409286Y-80952047D01*
X206490068Y-81006023D01*
X206544045Y-81086804D01*
X206544047Y-81086808D01*
X206551676Y-81105228D01*
X206551678Y-81105231D01*
X206644387Y-81243981D01*
X206655698Y-81260908D01*
X206788092Y-81393302D01*
X206788095Y-81393304D01*
X206788097Y-81393306D01*
X206832557Y-81423013D01*
X206901256Y-81491711D01*
X206938436Y-81581471D01*
X206938437Y-81678626D01*
X206901257Y-81768385D01*
X206832559Y-81837084D01*
X206758667Y-81870565D01*
X206635762Y-81903497D01*
X206538738Y-81959514D01*
X206459514Y-82038738D01*
X206403496Y-82135763D01*
X206374500Y-82243981D01*
X206374500Y-82356018D01*
X206403496Y-82464236D01*
X206403497Y-82464237D01*
X206459515Y-82561263D01*
X206538737Y-82640485D01*
X206635763Y-82696503D01*
X206743982Y-82725500D01*
X206856018Y-82725500D01*
X206964237Y-82696503D01*
X207061263Y-82640485D01*
X207140485Y-82561263D01*
X207196503Y-82464237D01*
X207210537Y-82411861D01*
X223794200Y-82411861D01*
X223794200Y-82523898D01*
X223823196Y-82632116D01*
X223823197Y-82632117D01*
X223879215Y-82729143D01*
X223958437Y-82808365D01*
X224055463Y-82864383D01*
X224163682Y-82893380D01*
X224275718Y-82893380D01*
X224383937Y-82864383D01*
X224480963Y-82808365D01*
X224560185Y-82729143D01*
X224616203Y-82632117D01*
X224645200Y-82523898D01*
X224645200Y-82411862D01*
X224642958Y-82403496D01*
X224616203Y-82303643D01*
X224560185Y-82206617D01*
X224480963Y-82127395D01*
X224454963Y-82112384D01*
X224383936Y-82071376D01*
X224275718Y-82042380D01*
X224163682Y-82042380D01*
X224055463Y-82071376D01*
X223958438Y-82127394D01*
X223879214Y-82206618D01*
X223823196Y-82303643D01*
X223794200Y-82411861D01*
X207210537Y-82411861D01*
X207225500Y-82356018D01*
X207225500Y-82243982D01*
X207215488Y-82206618D01*
X207196503Y-82135763D01*
X207191671Y-82127394D01*
X207140485Y-82038737D01*
X207132314Y-82030566D01*
X207078341Y-81949788D01*
X207059387Y-81854500D01*
X207078341Y-81759212D01*
X207132317Y-81678430D01*
X207213099Y-81624454D01*
X207308387Y-81605500D01*
X207487614Y-81605500D01*
X207487616Y-81605500D01*
X207671251Y-81568973D01*
X207844231Y-81497322D01*
X207999908Y-81393302D01*
X208132302Y-81260908D01*
X208236322Y-81105231D01*
X208243953Y-81086807D01*
X208297929Y-81006026D01*
X208378710Y-80952049D01*
X208473998Y-80933094D01*
X208569286Y-80952047D01*
X208650068Y-81006023D01*
X208704045Y-81086804D01*
X208704047Y-81086808D01*
X208711676Y-81105228D01*
X208711678Y-81105231D01*
X208804387Y-81243981D01*
X208815698Y-81260908D01*
X208948092Y-81393302D01*
X209103769Y-81497322D01*
X209103771Y-81497322D01*
X209103773Y-81497324D01*
X209276746Y-81568972D01*
X209276747Y-81568972D01*
X209276749Y-81568973D01*
X209460384Y-81605500D01*
X209460386Y-81605500D01*
X209647614Y-81605500D01*
X209647616Y-81605500D01*
X209831251Y-81568973D01*
X210004231Y-81497322D01*
X210159908Y-81393302D01*
X210292302Y-81260908D01*
X210396322Y-81105231D01*
X210403953Y-81086807D01*
X210457929Y-81006026D01*
X210538710Y-80952049D01*
X210633998Y-80933094D01*
X210729286Y-80952047D01*
X210810068Y-81006023D01*
X210864045Y-81086804D01*
X210864047Y-81086808D01*
X210871676Y-81105228D01*
X210871678Y-81105231D01*
X210964387Y-81243981D01*
X210975698Y-81260908D01*
X211108092Y-81393302D01*
X211263769Y-81497322D01*
X211263771Y-81497322D01*
X211263773Y-81497324D01*
X211436746Y-81568972D01*
X211436747Y-81568972D01*
X211436749Y-81568973D01*
X211620384Y-81605500D01*
X211620386Y-81605500D01*
X211807614Y-81605500D01*
X211807616Y-81605500D01*
X211991251Y-81568973D01*
X212164231Y-81497322D01*
X212319908Y-81393302D01*
X212452302Y-81260908D01*
X212556322Y-81105231D01*
X212563953Y-81086807D01*
X212617929Y-81006026D01*
X212698710Y-80952049D01*
X212793998Y-80933094D01*
X212889286Y-80952047D01*
X212970068Y-81006023D01*
X213024045Y-81086804D01*
X213024047Y-81086808D01*
X213031676Y-81105228D01*
X213031678Y-81105231D01*
X213124387Y-81243981D01*
X213135698Y-81260908D01*
X213268092Y-81393302D01*
X213423769Y-81497322D01*
X213423771Y-81497322D01*
X213423773Y-81497324D01*
X213596746Y-81568972D01*
X213596747Y-81568972D01*
X213596749Y-81568973D01*
X213780384Y-81605500D01*
X213780386Y-81605500D01*
X213967614Y-81605500D01*
X213967616Y-81605500D01*
X214151251Y-81568973D01*
X214324231Y-81497322D01*
X214479908Y-81393302D01*
X214612302Y-81260908D01*
X214716322Y-81105231D01*
X214723953Y-81086807D01*
X214777929Y-81006026D01*
X214858710Y-80952049D01*
X214953998Y-80933094D01*
X215049286Y-80952047D01*
X215130068Y-81006023D01*
X215184045Y-81086804D01*
X215184047Y-81086808D01*
X215191676Y-81105228D01*
X215191678Y-81105231D01*
X215284387Y-81243981D01*
X215295698Y-81260908D01*
X215428092Y-81393302D01*
X215583769Y-81497322D01*
X215583771Y-81497322D01*
X215583773Y-81497324D01*
X215756746Y-81568972D01*
X215756747Y-81568972D01*
X215756749Y-81568973D01*
X215940384Y-81605500D01*
X215940386Y-81605500D01*
X216127614Y-81605500D01*
X216127616Y-81605500D01*
X216311251Y-81568973D01*
X216484231Y-81497322D01*
X216639908Y-81393302D01*
X216772302Y-81260908D01*
X216876322Y-81105231D01*
X216883953Y-81086807D01*
X216937929Y-81006026D01*
X217018710Y-80952049D01*
X217113998Y-80933094D01*
X217209286Y-80952047D01*
X217290068Y-81006023D01*
X217344045Y-81086804D01*
X217344047Y-81086808D01*
X217351676Y-81105228D01*
X217351678Y-81105231D01*
X217444387Y-81243981D01*
X217455698Y-81260908D01*
X217588092Y-81393302D01*
X217743769Y-81497322D01*
X217743771Y-81497322D01*
X217743773Y-81497324D01*
X217916746Y-81568972D01*
X217916747Y-81568972D01*
X217916749Y-81568973D01*
X218100384Y-81605500D01*
X218100386Y-81605500D01*
X218287614Y-81605500D01*
X218287616Y-81605500D01*
X218471251Y-81568973D01*
X218644231Y-81497322D01*
X218799908Y-81393302D01*
X218932302Y-81260908D01*
X219036322Y-81105231D01*
X219107973Y-80932251D01*
X219144500Y-80748616D01*
X219144500Y-80061384D01*
X219121147Y-79943981D01*
X225474500Y-79943981D01*
X225474500Y-80056018D01*
X225503496Y-80164236D01*
X225544504Y-80235263D01*
X225559515Y-80261263D01*
X225638737Y-80340485D01*
X225735763Y-80396503D01*
X225843982Y-80425500D01*
X225956018Y-80425500D01*
X226064237Y-80396503D01*
X226161263Y-80340485D01*
X226240485Y-80261263D01*
X226296503Y-80164237D01*
X226325500Y-80056018D01*
X226325500Y-79943982D01*
X226306882Y-79874500D01*
X226296503Y-79835763D01*
X226248361Y-79752379D01*
X226240485Y-79738737D01*
X226161263Y-79659515D01*
X226134735Y-79644199D01*
X227360700Y-79644199D01*
X227360700Y-79769400D01*
X227393103Y-79890331D01*
X227393108Y-79890342D01*
X227455701Y-79998759D01*
X227455703Y-79998761D01*
X227455705Y-79998764D01*
X227544236Y-80087295D01*
X227544238Y-80087296D01*
X227544240Y-80087298D01*
X227628186Y-80135763D01*
X227652664Y-80149895D01*
X227773599Y-80182300D01*
X227898801Y-80182300D01*
X228019736Y-80149895D01*
X228128164Y-80087295D01*
X228216695Y-79998764D01*
X228279295Y-79890336D01*
X228311700Y-79769401D01*
X228311700Y-79644199D01*
X228279295Y-79523264D01*
X228279291Y-79523257D01*
X228216698Y-79414840D01*
X228216696Y-79414838D01*
X228216695Y-79414836D01*
X228128164Y-79326305D01*
X228128161Y-79326303D01*
X228128159Y-79326301D01*
X228019742Y-79263708D01*
X228019738Y-79263706D01*
X228019736Y-79263705D01*
X228019734Y-79263704D01*
X228019731Y-79263703D01*
X227898801Y-79231300D01*
X227773599Y-79231300D01*
X227652668Y-79263703D01*
X227652657Y-79263708D01*
X227544240Y-79326301D01*
X227455701Y-79414840D01*
X227393108Y-79523257D01*
X227393103Y-79523268D01*
X227360700Y-79644199D01*
X226134735Y-79644199D01*
X226064236Y-79603496D01*
X225956018Y-79574500D01*
X225843982Y-79574500D01*
X225735763Y-79603496D01*
X225638738Y-79659514D01*
X225559514Y-79738738D01*
X225503496Y-79835763D01*
X225474500Y-79943981D01*
X219121147Y-79943981D01*
X219107973Y-79877749D01*
X219107972Y-79877746D01*
X219036324Y-79704773D01*
X219036321Y-79704768D01*
X219006083Y-79659514D01*
X218932302Y-79549092D01*
X218799908Y-79416698D01*
X218797127Y-79414840D01*
X218644231Y-79312678D01*
X218644226Y-79312675D01*
X218471253Y-79241027D01*
X218379433Y-79222763D01*
X218287616Y-79204500D01*
X218100384Y-79204500D01*
X218026930Y-79219110D01*
X217916746Y-79241027D01*
X217743773Y-79312675D01*
X217743768Y-79312678D01*
X217588095Y-79416695D01*
X217455695Y-79549095D01*
X217351678Y-79704768D01*
X217351677Y-79704770D01*
X217344046Y-79723194D01*
X217290069Y-79803975D01*
X217209288Y-79857951D01*
X217113999Y-79876905D01*
X217018711Y-79857951D01*
X216937930Y-79803974D01*
X216883954Y-79723194D01*
X216882730Y-79720239D01*
X216876322Y-79704769D01*
X216772302Y-79549092D01*
X216639908Y-79416698D01*
X216637127Y-79414840D01*
X216484231Y-79312678D01*
X216484226Y-79312675D01*
X216311253Y-79241027D01*
X216219433Y-79222763D01*
X216127616Y-79204500D01*
X215940384Y-79204500D01*
X215866930Y-79219110D01*
X215756746Y-79241027D01*
X215583773Y-79312675D01*
X215583768Y-79312678D01*
X215428095Y-79416695D01*
X215295695Y-79549095D01*
X215191678Y-79704768D01*
X215191677Y-79704770D01*
X215184046Y-79723194D01*
X215130069Y-79803975D01*
X215049288Y-79857951D01*
X214953999Y-79876905D01*
X214858711Y-79857951D01*
X214777930Y-79803974D01*
X214723954Y-79723194D01*
X214722730Y-79720239D01*
X214716322Y-79704769D01*
X214612302Y-79549092D01*
X214479908Y-79416698D01*
X214477127Y-79414840D01*
X214324231Y-79312678D01*
X214324226Y-79312675D01*
X214151253Y-79241027D01*
X214059433Y-79222763D01*
X213967616Y-79204500D01*
X213780384Y-79204500D01*
X213706930Y-79219110D01*
X213596746Y-79241027D01*
X213423773Y-79312675D01*
X213423768Y-79312678D01*
X213268095Y-79416695D01*
X213135695Y-79549095D01*
X213031678Y-79704768D01*
X213031677Y-79704770D01*
X213024046Y-79723194D01*
X212970069Y-79803975D01*
X212889288Y-79857951D01*
X212793999Y-79876905D01*
X212698711Y-79857951D01*
X212617930Y-79803974D01*
X212563954Y-79723194D01*
X212562730Y-79720239D01*
X212556322Y-79704769D01*
X212452302Y-79549092D01*
X212319908Y-79416698D01*
X212317127Y-79414840D01*
X212164231Y-79312678D01*
X212164226Y-79312675D01*
X211991253Y-79241027D01*
X211899433Y-79222763D01*
X211807616Y-79204500D01*
X211620384Y-79204500D01*
X211546930Y-79219110D01*
X211436746Y-79241027D01*
X211263773Y-79312675D01*
X211263768Y-79312678D01*
X211108095Y-79416695D01*
X210975695Y-79549095D01*
X210871678Y-79704768D01*
X210871677Y-79704770D01*
X210864046Y-79723194D01*
X210810069Y-79803975D01*
X210729288Y-79857951D01*
X210633999Y-79876905D01*
X210538711Y-79857951D01*
X210457930Y-79803974D01*
X210403954Y-79723194D01*
X210402730Y-79720239D01*
X210396322Y-79704769D01*
X210292302Y-79549092D01*
X210159908Y-79416698D01*
X210157127Y-79414840D01*
X210004231Y-79312678D01*
X210004226Y-79312675D01*
X209831253Y-79241027D01*
X209739433Y-79222763D01*
X209647616Y-79204500D01*
X209460384Y-79204500D01*
X209386930Y-79219110D01*
X209276746Y-79241027D01*
X209103773Y-79312675D01*
X209103768Y-79312678D01*
X208948095Y-79416695D01*
X208815695Y-79549095D01*
X208711678Y-79704768D01*
X208711677Y-79704770D01*
X208704046Y-79723194D01*
X208650069Y-79803975D01*
X208569288Y-79857951D01*
X208473999Y-79876905D01*
X208378711Y-79857951D01*
X208297930Y-79803974D01*
X208243954Y-79723194D01*
X208242730Y-79720239D01*
X208236322Y-79704769D01*
X208132302Y-79549092D01*
X207999908Y-79416698D01*
X207997127Y-79414840D01*
X207844231Y-79312678D01*
X207844226Y-79312675D01*
X207671253Y-79241027D01*
X207579433Y-79222763D01*
X207487616Y-79204500D01*
X207300384Y-79204500D01*
X207226930Y-79219110D01*
X207116746Y-79241027D01*
X206943773Y-79312675D01*
X206943768Y-79312678D01*
X206788095Y-79416695D01*
X206655695Y-79549095D01*
X206551678Y-79704768D01*
X206551677Y-79704770D01*
X206544046Y-79723194D01*
X206490069Y-79803975D01*
X206409288Y-79857951D01*
X206313999Y-79876905D01*
X206218711Y-79857951D01*
X206137930Y-79803974D01*
X206083954Y-79723194D01*
X206082730Y-79720239D01*
X206076322Y-79704769D01*
X205972302Y-79549092D01*
X205839908Y-79416698D01*
X205837127Y-79414840D01*
X205684231Y-79312678D01*
X205684226Y-79312675D01*
X205511253Y-79241027D01*
X205419433Y-79222763D01*
X205327616Y-79204500D01*
X205140384Y-79204500D01*
X205066930Y-79219110D01*
X204956746Y-79241027D01*
X204783773Y-79312675D01*
X204783768Y-79312678D01*
X204628095Y-79416695D01*
X204495695Y-79549095D01*
X204391678Y-79704768D01*
X204391677Y-79704770D01*
X204384046Y-79723194D01*
X204330069Y-79803975D01*
X204249288Y-79857951D01*
X204153999Y-79876905D01*
X204058711Y-79857951D01*
X203977930Y-79803974D01*
X203923954Y-79723194D01*
X203922730Y-79720239D01*
X203916322Y-79704769D01*
X203812302Y-79549092D01*
X203679908Y-79416698D01*
X203677127Y-79414840D01*
X203524231Y-79312678D01*
X203524226Y-79312675D01*
X203351253Y-79241027D01*
X203259433Y-79222763D01*
X203167616Y-79204500D01*
X202980384Y-79204500D01*
X202906930Y-79219110D01*
X202796746Y-79241027D01*
X202623773Y-79312675D01*
X202623768Y-79312678D01*
X202468095Y-79416695D01*
X202335695Y-79549095D01*
X202231678Y-79704768D01*
X202231677Y-79704770D01*
X202224046Y-79723194D01*
X202170069Y-79803975D01*
X202089288Y-79857951D01*
X201993999Y-79876905D01*
X201898711Y-79857951D01*
X201817930Y-79803974D01*
X201763954Y-79723194D01*
X201762730Y-79720239D01*
X201756322Y-79704769D01*
X201652302Y-79549092D01*
X201519908Y-79416698D01*
X201517127Y-79414840D01*
X201364231Y-79312678D01*
X201364226Y-79312675D01*
X201191253Y-79241027D01*
X201099433Y-79222763D01*
X201007616Y-79204500D01*
X200820384Y-79204500D01*
X200746930Y-79219110D01*
X200636746Y-79241027D01*
X200463773Y-79312675D01*
X200463768Y-79312678D01*
X200308095Y-79416695D01*
X200175695Y-79549095D01*
X200071678Y-79704768D01*
X200071677Y-79704770D01*
X200064046Y-79723194D01*
X200010069Y-79803975D01*
X199929288Y-79857951D01*
X199833999Y-79876905D01*
X199738711Y-79857951D01*
X199657930Y-79803974D01*
X199603954Y-79723194D01*
X199602730Y-79720239D01*
X199596322Y-79704769D01*
X199492302Y-79549092D01*
X199359908Y-79416698D01*
X199357127Y-79414840D01*
X199204231Y-79312678D01*
X199204226Y-79312675D01*
X199031253Y-79241027D01*
X198939433Y-79222763D01*
X198847616Y-79204500D01*
X198660384Y-79204500D01*
X198586930Y-79219110D01*
X198476746Y-79241027D01*
X198303773Y-79312675D01*
X198303768Y-79312678D01*
X198148095Y-79416695D01*
X198015695Y-79549095D01*
X197911678Y-79704768D01*
X197911677Y-79704770D01*
X197904046Y-79723194D01*
X197850069Y-79803975D01*
X197769288Y-79857951D01*
X197673999Y-79876905D01*
X197578711Y-79857951D01*
X197497930Y-79803974D01*
X197443954Y-79723194D01*
X197442730Y-79720239D01*
X197436322Y-79704769D01*
X197332302Y-79549092D01*
X197199908Y-79416698D01*
X197197127Y-79414840D01*
X197044231Y-79312678D01*
X197044226Y-79312675D01*
X196871253Y-79241027D01*
X196779433Y-79222763D01*
X196687616Y-79204500D01*
X196500384Y-79204500D01*
X196426930Y-79219110D01*
X196316746Y-79241027D01*
X196143773Y-79312675D01*
X196143768Y-79312678D01*
X195988095Y-79416695D01*
X195855695Y-79549095D01*
X195751678Y-79704768D01*
X195751675Y-79704773D01*
X195680027Y-79877746D01*
X195655957Y-79998759D01*
X195644568Y-80056018D01*
X195643500Y-80061385D01*
X193453561Y-80061385D01*
X193440485Y-80038737D01*
X193361263Y-79959515D01*
X193328302Y-79940485D01*
X193264236Y-79903496D01*
X193156018Y-79874500D01*
X193043982Y-79874500D01*
X192935763Y-79903496D01*
X192838738Y-79959514D01*
X192759514Y-80038738D01*
X192703496Y-80135763D01*
X192674500Y-80243981D01*
X180200500Y-80243981D01*
X180200500Y-78643981D01*
X181174500Y-78643981D01*
X181174500Y-78756018D01*
X181203496Y-78864236D01*
X181203497Y-78864237D01*
X181259515Y-78961263D01*
X181338737Y-79040485D01*
X181435763Y-79096503D01*
X181543982Y-79125500D01*
X181656018Y-79125500D01*
X181764237Y-79096503D01*
X181861263Y-79040485D01*
X181940485Y-78961263D01*
X181996503Y-78864237D01*
X182025500Y-78756018D01*
X182025500Y-78643982D01*
X182025500Y-78643981D01*
X184774500Y-78643981D01*
X184774500Y-78756018D01*
X184803496Y-78864236D01*
X184803497Y-78864237D01*
X184859515Y-78961263D01*
X184938737Y-79040485D01*
X185011677Y-79082597D01*
X185035763Y-79096503D01*
X185143982Y-79125500D01*
X185162128Y-79125500D01*
X185257416Y-79144454D01*
X185338198Y-79198430D01*
X185392174Y-79279212D01*
X185411128Y-79374500D01*
X185402644Y-79438945D01*
X185374500Y-79543981D01*
X185374500Y-79656018D01*
X185403496Y-79764236D01*
X185406478Y-79769401D01*
X185459515Y-79861263D01*
X185538737Y-79940485D01*
X185635763Y-79996503D01*
X185743982Y-80025500D01*
X185856018Y-80025500D01*
X185964237Y-79996503D01*
X186061263Y-79940485D01*
X186140485Y-79861263D01*
X186196503Y-79764237D01*
X186225500Y-79656018D01*
X186225500Y-79543982D01*
X186196503Y-79435763D01*
X186185496Y-79416698D01*
X186182783Y-79411998D01*
X186151553Y-79319999D01*
X186157907Y-79223052D01*
X186182784Y-79162996D01*
X186196503Y-79139234D01*
X186225500Y-79031015D01*
X186225500Y-78918978D01*
X186196503Y-78810760D01*
X186140485Y-78713734D01*
X186061263Y-78634512D01*
X186035263Y-78619501D01*
X185964236Y-78578493D01*
X185856018Y-78549497D01*
X185748192Y-78549497D01*
X185652904Y-78530543D01*
X185572122Y-78476567D01*
X185552074Y-78450415D01*
X185550420Y-78451685D01*
X185540486Y-78438739D01*
X185540485Y-78438737D01*
X185461263Y-78359515D01*
X185435263Y-78344504D01*
X185364236Y-78303496D01*
X185256018Y-78274500D01*
X185143982Y-78274500D01*
X185035763Y-78303496D01*
X184938738Y-78359514D01*
X184859514Y-78438738D01*
X184803496Y-78535763D01*
X184774500Y-78643981D01*
X182025500Y-78643981D01*
X182022962Y-78634511D01*
X181996503Y-78535763D01*
X181962326Y-78476567D01*
X181940485Y-78438737D01*
X181861263Y-78359515D01*
X181835263Y-78344504D01*
X181764236Y-78303496D01*
X181656018Y-78274500D01*
X181543982Y-78274500D01*
X181435763Y-78303496D01*
X181338738Y-78359514D01*
X181259514Y-78438738D01*
X181203496Y-78535763D01*
X181174500Y-78643981D01*
X180200500Y-78643981D01*
X180200500Y-77143981D01*
X184274500Y-77143981D01*
X184274500Y-77256018D01*
X184303496Y-77364236D01*
X184303497Y-77364237D01*
X184359515Y-77461263D01*
X184438737Y-77540485D01*
X184535763Y-77596503D01*
X184643982Y-77625500D01*
X184756018Y-77625500D01*
X184864237Y-77596503D01*
X184961263Y-77540485D01*
X185040485Y-77461263D01*
X185096503Y-77364237D01*
X185125500Y-77256018D01*
X185125500Y-77143982D01*
X185125500Y-77143981D01*
X185125500Y-77143980D01*
X185111601Y-77092109D01*
X185111600Y-77092108D01*
X185111600Y-77092106D01*
X185098705Y-77043981D01*
X190874500Y-77043981D01*
X190874500Y-77156018D01*
X190903496Y-77264236D01*
X190903497Y-77264237D01*
X190959515Y-77361263D01*
X191038737Y-77440485D01*
X191135763Y-77496503D01*
X191243982Y-77525500D01*
X191356018Y-77525500D01*
X191464237Y-77496503D01*
X191561263Y-77440485D01*
X191640485Y-77361263D01*
X191696503Y-77264237D01*
X191725500Y-77156018D01*
X191725500Y-77043982D01*
X191696503Y-76935763D01*
X191640485Y-76838737D01*
X191561263Y-76759515D01*
X191535263Y-76744504D01*
X191464236Y-76703496D01*
X191356018Y-76674500D01*
X191243982Y-76674500D01*
X191135763Y-76703496D01*
X191038738Y-76759514D01*
X190959514Y-76838738D01*
X190903496Y-76935763D01*
X190874500Y-77043981D01*
X185098705Y-77043981D01*
X185096503Y-77035763D01*
X185052829Y-76960118D01*
X185040485Y-76938737D01*
X184961263Y-76859515D01*
X184925276Y-76838738D01*
X184864236Y-76803496D01*
X184756018Y-76774500D01*
X184643982Y-76774500D01*
X184535763Y-76803496D01*
X184438738Y-76859514D01*
X184359514Y-76938738D01*
X184303496Y-77035763D01*
X184274500Y-77143981D01*
X180200500Y-77143981D01*
X180200500Y-76012232D01*
X180201699Y-75987827D01*
X180213458Y-75868432D01*
X180213459Y-75868429D01*
X180222981Y-75820556D01*
X180254240Y-75717508D01*
X180272914Y-75672424D01*
X180323685Y-75577438D01*
X180350792Y-75536870D01*
X180419112Y-75453622D01*
X180453622Y-75419112D01*
X180536870Y-75350792D01*
X180577438Y-75323685D01*
X180672424Y-75272914D01*
X180717508Y-75254240D01*
X180820558Y-75222980D01*
X180868430Y-75213458D01*
X180946665Y-75205752D01*
X180987827Y-75201699D01*
X181012232Y-75200500D01*
X181039882Y-75200500D01*
X232960118Y-75200500D01*
X232987768Y-75200500D01*
X233012173Y-75201698D01*
G37*
%TD.AperFunction*%
%TD*%
M02*
