%TF.GenerationSoftware,KiCad,Pcbnew,9.0.1*%
%TF.CreationDate,2025-05-09T10:12:14+02:00*%
%TF.ProjectId,xyp-gpib,7879702d-6770-4696-922e-6b696361645f,rev?*%
%TF.SameCoordinates,Original*%
%TF.FileFunction,Paste,Top*%
%TF.FilePolarity,Positive*%
%FSLAX46Y46*%
G04 Gerber Fmt 4.6, Leading zero omitted, Abs format (unit mm)*
G04 Created by KiCad (PCBNEW 9.0.1) date 2025-05-09 10:12:14*
%MOMM*%
%LPD*%
G01*
G04 APERTURE LIST*
G04 Aperture macros list*
%AMRoundRect*
0 Rectangle with rounded corners*
0 $1 Rounding radius*
0 $2 $3 $4 $5 $6 $7 $8 $9 X,Y pos of 4 corners*
0 Add a 4 corners polygon primitive as box body*
4,1,4,$2,$3,$4,$5,$6,$7,$8,$9,$2,$3,0*
0 Add four circle primitives for the rounded corners*
1,1,$1+$1,$2,$3*
1,1,$1+$1,$4,$5*
1,1,$1+$1,$6,$7*
1,1,$1+$1,$8,$9*
0 Add four rect primitives between the rounded corners*
20,1,$1+$1,$2,$3,$4,$5,0*
20,1,$1+$1,$4,$5,$6,$7,0*
20,1,$1+$1,$6,$7,$8,$9,0*
20,1,$1+$1,$8,$9,$2,$3,0*%
G04 Aperture macros list end*
%ADD10C,0.150000*%
%ADD11RoundRect,0.250000X0.475000X-0.250000X0.475000X0.250000X-0.475000X0.250000X-0.475000X-0.250000X0*%
%ADD12RoundRect,0.225000X0.250000X-0.225000X0.250000X0.225000X-0.250000X0.225000X-0.250000X-0.225000X0*%
%ADD13RoundRect,0.243750X0.243750X0.456250X-0.243750X0.456250X-0.243750X-0.456250X0.243750X-0.456250X0*%
%ADD14RoundRect,0.200000X-0.200000X-0.275000X0.200000X-0.275000X0.200000X0.275000X-0.200000X0.275000X0*%
%ADD15RoundRect,0.200000X0.275000X-0.200000X0.275000X0.200000X-0.275000X0.200000X-0.275000X-0.200000X0*%
%ADD16RoundRect,0.250000X-0.275000X0.275000X-0.275000X-0.275000X0.275000X-0.275000X0.275000X0.275000X0*%
%ADD17RoundRect,0.062500X-0.062500X0.475000X-0.062500X-0.475000X0.062500X-0.475000X0.062500X0.475000X0*%
%ADD18RoundRect,0.062500X-0.475000X0.062500X-0.475000X-0.062500X0.475000X-0.062500X0.475000X0.062500X0*%
%ADD19RoundRect,0.225000X-0.225000X-0.250000X0.225000X-0.250000X0.225000X0.250000X-0.225000X0.250000X0*%
%ADD20RoundRect,0.225000X0.225000X0.250000X-0.225000X0.250000X-0.225000X-0.250000X0.225000X-0.250000X0*%
%ADD21R,0.800000X0.900000*%
%ADD22RoundRect,0.093750X0.156250X0.093750X-0.156250X0.093750X-0.156250X-0.093750X0.156250X-0.093750X0*%
%ADD23RoundRect,0.075000X0.250000X0.075000X-0.250000X0.075000X-0.250000X-0.075000X0.250000X-0.075000X0*%
%ADD24R,1.150000X0.300000*%
%ADD25R,1.000000X1.250000*%
%ADD26RoundRect,0.200000X-0.275000X0.200000X-0.275000X-0.200000X0.275000X-0.200000X0.275000X0.200000X0*%
G04 APERTURE END LIST*
D10*
X234252000Y-85217000D02*
X233744000Y-85217000D01*
D11*
%TO.C,C1*%
X185600000Y-77750000D03*
X185600000Y-75850000D03*
%TD*%
D12*
%TO.C,C2*%
X187400000Y-77775000D03*
X187400000Y-76225000D03*
%TD*%
%TO.C,C7*%
X189000000Y-77975000D03*
X189000000Y-76425000D03*
%TD*%
D13*
%TO.C,D1*%
X200987900Y-82600800D03*
X199112900Y-82600800D03*
%TD*%
D14*
%TO.C,R1*%
X182175000Y-78100000D03*
X183825000Y-78100000D03*
%TD*%
%TO.C,R2*%
X200470000Y-77978000D03*
X202120000Y-77978000D03*
%TD*%
%TO.C,R3*%
X200470000Y-76327000D03*
X202120000Y-76327000D03*
%TD*%
%TO.C,R4*%
X203289400Y-82600800D03*
X204939400Y-82600800D03*
%TD*%
D15*
%TO.C,R5*%
X197866000Y-77914000D03*
X197866000Y-76264000D03*
%TD*%
D16*
%TO.C,U1*%
X190799000Y-80981000D03*
X189499000Y-80981000D03*
X188199000Y-80981000D03*
X186899000Y-80981000D03*
X190799000Y-82281000D03*
X189499000Y-82281000D03*
X188199000Y-82281000D03*
X186899000Y-82281000D03*
X190799000Y-83581000D03*
X189499000Y-83581000D03*
X188199000Y-83581000D03*
X186899000Y-83581000D03*
X190799000Y-84881000D03*
X189499000Y-84881000D03*
X188199000Y-84881000D03*
X186899000Y-84881000D03*
D17*
X191349000Y-79593500D03*
X190849000Y-79593500D03*
X190349000Y-79593500D03*
X189849000Y-79593500D03*
X189349000Y-79593500D03*
X188849000Y-79593500D03*
X188349000Y-79593500D03*
X187849000Y-79593500D03*
X187349000Y-79593500D03*
X186849000Y-79593500D03*
X186349000Y-79593500D03*
D18*
X185511500Y-80431000D03*
X185511500Y-80931000D03*
X185511500Y-81431000D03*
X185511500Y-81931000D03*
X185511500Y-82431000D03*
X185511500Y-82931000D03*
X185511500Y-83431000D03*
X185511500Y-83931000D03*
X185511500Y-84431000D03*
X185511500Y-84931000D03*
X185511500Y-85431000D03*
D17*
X186349000Y-86268500D03*
X186849000Y-86268500D03*
X187349000Y-86268500D03*
X187849000Y-86268500D03*
X188349000Y-86268500D03*
X188849000Y-86268500D03*
X189349000Y-86268500D03*
X189849000Y-86268500D03*
X190349000Y-86268500D03*
X190849000Y-86268500D03*
X191349000Y-86268500D03*
D18*
X192186500Y-85431000D03*
X192186500Y-84931000D03*
X192186500Y-84431000D03*
X192186500Y-83931000D03*
X192186500Y-83431000D03*
X192186500Y-82931000D03*
X192186500Y-82431000D03*
X192186500Y-81931000D03*
X192186500Y-81431000D03*
X192186500Y-80931000D03*
X192186500Y-80431000D03*
%TD*%
D19*
%TO.C,C5*%
X182232000Y-79883000D03*
X183782000Y-79883000D03*
%TD*%
D20*
%TO.C,C6*%
X183274000Y-84709000D03*
X181724000Y-84709000D03*
%TD*%
D21*
%TO.C,Y1*%
X182203000Y-81596000D03*
X182203000Y-82996000D03*
X183303000Y-82996000D03*
X183303000Y-81596000D03*
%TD*%
D19*
%TO.C,C3*%
X191325000Y-77900000D03*
X192875000Y-77900000D03*
%TD*%
D20*
%TO.C,C4*%
X187084000Y-88011000D03*
X185534000Y-88011000D03*
%TD*%
D22*
%TO.C,U2*%
X225350000Y-83137500D03*
D23*
X225425000Y-82600000D03*
D22*
X225350000Y-82062500D03*
X223650000Y-82062500D03*
D23*
X223575000Y-82600000D03*
D22*
X223650000Y-83137500D03*
%TD*%
D24*
%TO.C,J1*%
X226771200Y-85946800D03*
X226771200Y-85146800D03*
X226771200Y-83846800D03*
X226771200Y-82846800D03*
X226771200Y-82346800D03*
X226771200Y-81346800D03*
X226771200Y-80046800D03*
X226771200Y-79246800D03*
X226771200Y-79546800D03*
X226771200Y-80346800D03*
X226771200Y-80846800D03*
X226771200Y-81846800D03*
X226771200Y-83346800D03*
X226771200Y-84346800D03*
X226771200Y-84846800D03*
X226771200Y-85646800D03*
%TD*%
D14*
%TO.C,R6*%
X211519000Y-82550000D03*
X213169000Y-82550000D03*
%TD*%
D13*
%TO.C,D2*%
X209522300Y-82550000D03*
X207647300Y-82550000D03*
%TD*%
D25*
%TO.C,SW1*%
X221200000Y-78675000D03*
X221200000Y-86425000D03*
%TD*%
D26*
%TO.C,R7*%
X224840800Y-84600000D03*
X224840800Y-86250000D03*
%TD*%
%TO.C,R8*%
X224840800Y-78778600D03*
X224840800Y-80428600D03*
%TD*%
M02*
