G75*
%MOIN*%
%OFA0B0*%
%FSLAX24Y24*%
%IPPOS*%
%LPD*%
%AMOC8*
5,1,8,0,0,1.08239X$1,22.5*
%
%ADD10C,0.0039*%
%ADD11C,0.0520*%
%ADD12C,0.2300*%
%ADD13R,0.0472X0.0433*%
%ADD14OC8,0.0600*%
%ADD15R,0.0200X0.0200*%
%ADD16R,0.1063X0.0630*%
%ADD17R,0.0591X0.0236*%
%ADD18R,0.0236X0.0591*%
%ADD19R,0.0354X0.0276*%
%ADD20OC8,0.0574*%
%ADD21C,0.1306*%
%ADD22C,0.0079*%
%ADD23C,0.0278*%
%ADD24C,0.0475*%
%ADD25C,0.0160*%
%ADD26C,0.0240*%
D10*
X000639Y008800D02*
X011639Y008800D01*
X011696Y008798D01*
X011753Y008793D01*
X011810Y008783D01*
X011865Y008770D01*
X011920Y008754D01*
X011974Y008733D01*
X012026Y008710D01*
X012077Y008683D01*
X012125Y008653D01*
X012172Y008619D01*
X012216Y008583D01*
X012258Y008544D01*
X012297Y008502D01*
X012333Y008458D01*
X012367Y008411D01*
X012397Y008363D01*
X012424Y008312D01*
X012447Y008260D01*
X012468Y008206D01*
X012484Y008151D01*
X012497Y008096D01*
X012507Y008039D01*
X012512Y007982D01*
X012514Y007925D01*
X012514Y001050D01*
X012516Y000993D01*
X012521Y000936D01*
X012531Y000879D01*
X012544Y000824D01*
X012560Y000769D01*
X012581Y000715D01*
X012604Y000663D01*
X012631Y000613D01*
X012661Y000564D01*
X012695Y000517D01*
X012731Y000473D01*
X012770Y000431D01*
X012812Y000392D01*
X012856Y000356D01*
X012903Y000322D01*
X012952Y000292D01*
X013002Y000265D01*
X013054Y000242D01*
X013108Y000221D01*
X013163Y000205D01*
X013218Y000192D01*
X013275Y000182D01*
X013332Y000177D01*
X013389Y000175D01*
X021014Y000175D01*
X022264Y001300D02*
X022264Y015925D01*
X000139Y015925D01*
X000139Y009300D01*
X000141Y009256D01*
X000147Y009213D01*
X000156Y009171D01*
X000169Y009129D01*
X000186Y009089D01*
X000206Y009050D01*
X000229Y009013D01*
X000256Y008979D01*
X000285Y008946D01*
X000318Y008917D01*
X000352Y008890D01*
X000389Y008867D01*
X000428Y008847D01*
X000468Y008830D01*
X000510Y008817D01*
X000552Y008808D01*
X000595Y008802D01*
X000639Y008800D01*
X021015Y000176D02*
X021081Y000174D01*
X021148Y000176D01*
X021214Y000182D01*
X021280Y000192D01*
X021346Y000205D01*
X021410Y000222D01*
X021474Y000242D01*
X021536Y000266D01*
X021597Y000294D01*
X021656Y000324D01*
X021713Y000358D01*
X021768Y000396D01*
X021822Y000436D01*
X021872Y000479D01*
X021921Y000525D01*
X021966Y000574D01*
X022009Y000625D01*
X022049Y000678D01*
X022086Y000734D01*
X022120Y000792D01*
X022150Y000851D01*
X022177Y000912D01*
X022201Y000974D01*
X022221Y001038D01*
X022237Y001103D01*
X022250Y001168D01*
X022259Y001234D01*
X022264Y001301D01*
D11*
X015814Y010315D02*
X015814Y010835D01*
X014964Y010835D02*
X014964Y010315D01*
X014114Y010315D02*
X014114Y010835D01*
X013264Y010835D02*
X013264Y010315D01*
X012414Y010315D02*
X012414Y010835D01*
X011564Y010835D02*
X011564Y010315D01*
X010714Y010315D02*
X010714Y010835D01*
X009864Y010835D02*
X009864Y010315D01*
X009014Y010315D02*
X009014Y010835D01*
X008164Y010835D02*
X008164Y010315D01*
X007314Y010315D02*
X007314Y010835D01*
X006464Y010835D02*
X006464Y010315D01*
X006464Y012015D02*
X006464Y012535D01*
X007314Y012535D02*
X007314Y012015D01*
X008164Y012015D02*
X008164Y012535D01*
X009014Y012535D02*
X009014Y012015D01*
X009864Y012015D02*
X009864Y012535D01*
X010714Y012535D02*
X010714Y012015D01*
X011564Y012015D02*
X011564Y012535D01*
X012414Y012535D02*
X012414Y012015D01*
X013264Y012015D02*
X013264Y012535D01*
X014114Y012535D02*
X014114Y012015D01*
X014964Y012015D02*
X014964Y012535D01*
X015814Y012535D02*
X015814Y012015D01*
D12*
X020349Y011425D03*
X001929Y011425D03*
D13*
X018659Y002800D03*
X018659Y002249D03*
X019328Y002249D03*
X019328Y002800D03*
D14*
X020514Y003175D03*
X020514Y002175D03*
X020514Y001175D03*
X021514Y001175D03*
X021514Y002175D03*
X021514Y003175D03*
D15*
X021783Y003771D03*
X021783Y004111D03*
X020017Y003408D03*
X019677Y003408D03*
X018146Y002460D03*
X018146Y002120D03*
X019120Y001766D03*
X019460Y001766D03*
X016323Y004405D03*
X015983Y004405D03*
X014732Y005101D03*
X014392Y005101D03*
X014372Y005455D03*
X014712Y005455D03*
X019976Y009306D03*
X020316Y009306D03*
X007389Y011255D03*
X007389Y011595D03*
D16*
X016814Y003153D03*
X016814Y002051D03*
D17*
X016434Y004854D03*
X016434Y005169D03*
X016434Y005484D03*
X016434Y005799D03*
X016434Y006114D03*
X016434Y006429D03*
X016434Y006744D03*
X016434Y007059D03*
X016434Y007374D03*
X016434Y007689D03*
X016434Y008003D03*
X020962Y008003D03*
X020962Y007689D03*
X020962Y007374D03*
X020962Y007059D03*
X020962Y006744D03*
X020962Y006429D03*
X020962Y006114D03*
X020962Y005799D03*
X020962Y005484D03*
X020962Y005169D03*
X020962Y004854D03*
D18*
X020273Y004165D03*
X019958Y004165D03*
X019643Y004165D03*
X019328Y004165D03*
X019013Y004165D03*
X018698Y004165D03*
X018383Y004165D03*
X018068Y004165D03*
X017753Y004165D03*
X017438Y004165D03*
X017123Y004165D03*
X017123Y008692D03*
X017438Y008692D03*
X017753Y008692D03*
X018068Y008692D03*
X018383Y008692D03*
X018698Y008692D03*
X019013Y008692D03*
X019328Y008692D03*
X019643Y008692D03*
X019958Y008692D03*
X020273Y008692D03*
D19*
X021685Y006877D03*
X021685Y006277D03*
D20*
X015369Y004167D03*
X014581Y004167D03*
X014581Y003183D03*
X015369Y003183D03*
D21*
X013514Y001305D03*
X013514Y006045D03*
D22*
X013475Y006035D02*
X012693Y006035D01*
X012722Y006006D02*
X012722Y005993D01*
X012736Y005890D01*
X012763Y005790D01*
X012802Y005694D01*
X012854Y005604D01*
X012918Y005522D01*
X012991Y005448D01*
X013073Y005385D01*
X013163Y005333D01*
X013259Y005293D01*
X013360Y005267D01*
X013462Y005253D01*
X013475Y005253D01*
X013475Y006006D01*
X012722Y006006D01*
X012727Y005957D02*
X012693Y005957D01*
X012693Y005880D02*
X012738Y005880D01*
X012759Y005803D02*
X012693Y005803D01*
X012693Y005726D02*
X012789Y005726D01*
X012829Y005648D02*
X012693Y005648D01*
X012693Y005571D02*
X012880Y005571D01*
X012945Y005494D02*
X012693Y005494D01*
X012693Y005417D02*
X013032Y005417D01*
X013152Y005340D02*
X012693Y005340D01*
X012693Y005262D02*
X013392Y005262D01*
X013475Y005262D02*
X013554Y005262D01*
X013554Y005253D02*
X013566Y005253D01*
X013669Y005267D01*
X013770Y005293D01*
X013841Y005323D01*
X013775Y005252D01*
X013621Y004939D01*
X013621Y004939D01*
X013564Y004594D01*
X013608Y004247D01*
X013750Y003928D01*
X013835Y003829D01*
X013864Y003795D01*
X012693Y003795D01*
X012693Y003872D02*
X013798Y003872D01*
X013750Y003928D02*
X013750Y003928D01*
X013740Y003949D02*
X012693Y003949D01*
X012693Y004026D02*
X013706Y004026D01*
X013672Y004104D02*
X012693Y004104D01*
X012693Y004181D02*
X013637Y004181D01*
X013608Y004247D02*
X013608Y004247D01*
X013606Y004258D02*
X012693Y004258D01*
X012693Y004335D02*
X013596Y004335D01*
X013587Y004413D02*
X012693Y004413D01*
X012693Y004490D02*
X013577Y004490D01*
X013567Y004567D02*
X012693Y004567D01*
X012693Y004644D02*
X013572Y004644D01*
X013564Y004594D02*
X013564Y004594D01*
X013585Y004722D02*
X012693Y004722D01*
X012693Y004799D02*
X013598Y004799D01*
X013611Y004876D02*
X012693Y004876D01*
X012693Y004953D02*
X013628Y004953D01*
X013666Y005031D02*
X012693Y005031D01*
X012693Y005108D02*
X013704Y005108D01*
X013742Y005185D02*
X012693Y005185D01*
X013475Y005340D02*
X013554Y005340D01*
X013554Y005417D02*
X013475Y005417D01*
X013475Y005494D02*
X013554Y005494D01*
X013554Y005571D02*
X013475Y005571D01*
X013475Y005648D02*
X013554Y005648D01*
X013554Y005726D02*
X013475Y005726D01*
X013475Y005803D02*
X013554Y005803D01*
X013554Y005880D02*
X013475Y005880D01*
X013475Y005957D02*
X013554Y005957D01*
X013554Y006006D02*
X013554Y005253D01*
X013637Y005262D02*
X013785Y005262D01*
X013775Y005252D02*
X013775Y005252D01*
X014235Y005714D02*
X014266Y005790D01*
X014293Y005890D01*
X014306Y005993D01*
X014306Y006006D01*
X013554Y006006D01*
X013554Y006084D01*
X014306Y006084D01*
X014306Y006097D01*
X014293Y006200D01*
X014266Y006300D01*
X014226Y006396D01*
X014174Y006486D01*
X014111Y006568D01*
X014038Y006642D01*
X013955Y006705D01*
X013865Y006757D01*
X013770Y006797D01*
X013669Y006824D01*
X013566Y006837D01*
X013554Y006837D01*
X013554Y006084D01*
X013475Y006084D01*
X013475Y006006D01*
X013554Y006006D01*
X013554Y006035D02*
X015061Y006035D01*
X014984Y006112D02*
X014305Y006112D01*
X014294Y006189D02*
X014907Y006189D01*
X014829Y006266D02*
X014275Y006266D01*
X014248Y006344D02*
X014752Y006344D01*
X014675Y006421D02*
X014212Y006421D01*
X014165Y006498D02*
X014598Y006498D01*
X014520Y006575D02*
X014104Y006575D01*
X014024Y006653D02*
X014443Y006653D01*
X014366Y006730D02*
X013913Y006730D01*
X013731Y006807D02*
X014289Y006807D01*
X014211Y006884D02*
X012693Y006884D01*
X012693Y006807D02*
X013298Y006807D01*
X013259Y006797D02*
X013163Y006757D01*
X013073Y006705D01*
X012991Y006642D01*
X012918Y006568D01*
X012854Y006486D01*
X012802Y006396D01*
X012763Y006300D01*
X012736Y006200D01*
X012722Y006097D01*
X012722Y006084D01*
X013475Y006084D01*
X013475Y006837D01*
X013462Y006837D01*
X013360Y006824D01*
X013259Y006797D01*
X013116Y006730D02*
X012693Y006730D01*
X012693Y006653D02*
X013005Y006653D01*
X012924Y006575D02*
X012693Y006575D01*
X012693Y006498D02*
X012864Y006498D01*
X012817Y006421D02*
X012693Y006421D01*
X012693Y006344D02*
X012781Y006344D01*
X012754Y006266D02*
X012693Y006266D01*
X012693Y006189D02*
X012734Y006189D01*
X012724Y006112D02*
X012693Y006112D01*
X013475Y006112D02*
X013554Y006112D01*
X013554Y006189D02*
X013475Y006189D01*
X013475Y006266D02*
X013554Y006266D01*
X013554Y006344D02*
X013475Y006344D01*
X013475Y006421D02*
X013554Y006421D01*
X013554Y006498D02*
X013475Y006498D01*
X013475Y006575D02*
X013554Y006575D01*
X013554Y006653D02*
X013475Y006653D01*
X013475Y006730D02*
X013554Y006730D01*
X013554Y006807D02*
X013475Y006807D01*
X013903Y007193D02*
X012693Y007193D01*
X012693Y007116D02*
X013980Y007116D01*
X014057Y007039D02*
X012693Y007039D01*
X012693Y006962D02*
X014134Y006962D01*
X013825Y007271D02*
X012693Y007271D01*
X012693Y007348D02*
X013748Y007348D01*
X013671Y007425D02*
X012693Y007425D01*
X012693Y007502D02*
X013594Y007502D01*
X013516Y007579D02*
X012693Y007579D01*
X012693Y007657D02*
X013439Y007657D01*
X013362Y007734D02*
X012693Y007734D01*
X012693Y007811D02*
X013285Y007811D01*
X013213Y007883D02*
X015247Y005848D01*
X015143Y005848D01*
X015033Y005803D01*
X014949Y005719D01*
X014940Y005697D01*
X014936Y005697D01*
X014934Y005698D01*
X014901Y005692D01*
X014878Y005714D01*
X014546Y005714D01*
X014542Y005710D01*
X014538Y005714D01*
X014235Y005714D01*
X014239Y005726D02*
X014956Y005726D01*
X015033Y005803D02*
X014270Y005803D01*
X014290Y005880D02*
X015216Y005880D01*
X015138Y005957D02*
X014302Y005957D01*
X014712Y005455D02*
X014889Y005488D01*
X014732Y005101D02*
X015452Y005175D01*
X015893Y005484D02*
X013202Y008175D01*
X013139Y008175D01*
X012927Y007966D02*
X012693Y007966D01*
X012693Y008043D02*
X012871Y008043D01*
X012886Y008006D02*
X012970Y007922D01*
X013080Y007877D01*
X013199Y007877D01*
X013213Y007883D01*
X013051Y007888D02*
X012693Y007888D01*
X012693Y008092D02*
X012590Y008409D01*
X012394Y008680D01*
X012124Y008876D01*
X012124Y008876D01*
X011806Y008979D01*
X000639Y008979D01*
X000577Y008985D01*
X000461Y009033D01*
X000373Y009122D01*
X000325Y009237D01*
X000318Y009300D01*
X000318Y015746D01*
X022085Y015746D01*
X022085Y005448D01*
X021963Y005570D01*
X021847Y005686D01*
X021416Y005686D01*
X021416Y006006D01*
X021442Y005979D01*
X021929Y005979D01*
X022022Y006073D01*
X022022Y006480D01*
X021929Y006574D01*
X021727Y006574D01*
X021669Y006632D01*
X021656Y006637D01*
X021656Y006847D01*
X021715Y006847D01*
X021715Y006599D01*
X021881Y006599D01*
X021916Y006609D01*
X021948Y006627D01*
X021974Y006653D01*
X021993Y006685D01*
X022002Y006721D01*
X022002Y006847D01*
X021715Y006847D01*
X021715Y006906D01*
X022002Y006906D01*
X022002Y007033D01*
X021993Y007068D01*
X021974Y007100D01*
X021948Y007126D01*
X021916Y007144D01*
X021881Y007154D01*
X021715Y007154D01*
X021715Y006906D01*
X021656Y006906D01*
X021656Y007154D01*
X021490Y007154D01*
X021455Y007144D01*
X021423Y007126D01*
X021416Y007120D01*
X021416Y008188D01*
X021323Y008281D01*
X020600Y008281D01*
X020507Y008188D01*
X020507Y007928D01*
X020504Y007928D01*
X020504Y008285D01*
X020550Y008331D01*
X020550Y008676D01*
X020555Y008688D01*
X020555Y009120D01*
X020575Y009140D01*
X020575Y009472D01*
X020482Y009566D01*
X020150Y009566D01*
X020122Y009538D01*
X020094Y009546D01*
X019987Y009546D01*
X019987Y009317D01*
X019965Y009317D01*
X019965Y009296D01*
X019737Y009296D01*
X019737Y009188D01*
X019746Y009152D01*
X019749Y009147D01*
X018267Y009147D01*
X018267Y013079D01*
X016838Y014507D01*
X016722Y014624D01*
X008307Y014624D01*
X007682Y013999D01*
X007566Y013882D01*
X007566Y012847D01*
X007504Y012889D01*
X007431Y012919D01*
X007354Y012934D01*
X007354Y012314D01*
X007275Y012314D01*
X007275Y012236D01*
X006915Y012236D01*
X006915Y011976D01*
X006930Y011899D01*
X006960Y011826D01*
X007004Y011760D01*
X007060Y011705D01*
X007125Y011661D01*
X007150Y011651D01*
X007150Y011606D01*
X007379Y011606D01*
X007379Y011584D01*
X007150Y011584D01*
X007150Y011477D01*
X007158Y011449D01*
X007130Y011421D01*
X007130Y011277D01*
X007128Y011275D01*
X007128Y011212D01*
X007077Y011191D01*
X006959Y011073D01*
X006895Y010918D01*
X006895Y010232D01*
X006959Y010077D01*
X007077Y009959D01*
X007231Y009896D01*
X007398Y009896D01*
X007552Y009959D01*
X007670Y010077D01*
X007734Y010232D01*
X007734Y010918D01*
X007670Y011073D01*
X007649Y011094D01*
X007649Y011153D01*
X007963Y011468D01*
X007963Y011669D01*
X007975Y011661D01*
X008048Y011631D01*
X008125Y011616D01*
X008125Y012236D01*
X008204Y012236D01*
X008204Y011616D01*
X008281Y011631D01*
X008338Y011655D01*
X008057Y011374D01*
X007941Y011257D01*
X007941Y011196D01*
X007927Y011191D01*
X007809Y011073D01*
X007745Y010918D01*
X007745Y010232D01*
X007809Y010077D01*
X007927Y009959D01*
X008081Y009896D01*
X008248Y009896D01*
X008402Y009959D01*
X008520Y010077D01*
X008584Y010232D01*
X008584Y010918D01*
X008520Y011073D01*
X008419Y011174D01*
X008776Y011530D01*
X008776Y011694D01*
X008825Y011661D01*
X008898Y011631D01*
X008975Y011616D01*
X008975Y012236D01*
X009054Y012236D01*
X009054Y011616D01*
X009131Y011631D01*
X009204Y011661D01*
X009251Y011693D01*
X008932Y011374D01*
X008816Y011257D01*
X008816Y011207D01*
X008777Y011191D01*
X008659Y011073D01*
X008595Y010918D01*
X008595Y010232D01*
X008659Y010077D01*
X008777Y009959D01*
X008931Y009896D01*
X009098Y009896D01*
X009252Y009959D01*
X009370Y010077D01*
X009434Y010232D01*
X009434Y010918D01*
X009370Y011073D01*
X009281Y011161D01*
X009651Y011530D01*
X009651Y011678D01*
X009675Y011661D01*
X009748Y011631D01*
X009825Y011616D01*
X009825Y012236D01*
X009904Y012236D01*
X009904Y011616D01*
X009981Y011631D01*
X010054Y011661D01*
X010119Y011705D01*
X010128Y011714D01*
X010128Y011695D01*
X009745Y011311D01*
X009628Y011195D01*
X009628Y011191D01*
X009627Y011191D01*
X009509Y011073D01*
X009445Y010918D01*
X009445Y010232D01*
X009509Y010077D01*
X009627Y009959D01*
X009781Y009896D01*
X009948Y009896D01*
X010102Y009959D01*
X010220Y010077D01*
X010284Y010232D01*
X010284Y010918D01*
X010220Y011073D01*
X010144Y011149D01*
X010526Y011530D01*
X010526Y011661D01*
X010598Y011631D01*
X010675Y011616D01*
X010675Y012236D01*
X010754Y012236D01*
X010754Y011616D01*
X010831Y011631D01*
X010904Y011661D01*
X010941Y011686D01*
X010941Y011632D01*
X010620Y011311D01*
X010514Y011206D01*
X010477Y011191D01*
X010359Y011073D01*
X010295Y010918D01*
X010295Y010232D01*
X010359Y010077D01*
X010477Y009959D01*
X010631Y009896D01*
X010798Y009896D01*
X010952Y009959D01*
X011070Y010077D01*
X011134Y010232D01*
X011134Y010918D01*
X011070Y011073D01*
X011006Y011136D01*
X011338Y011468D01*
X011338Y011686D01*
X011375Y011661D01*
X011448Y011631D01*
X011525Y011616D01*
X011525Y012236D01*
X011604Y012236D01*
X011604Y011616D01*
X011681Y011631D01*
X011753Y011661D01*
X011753Y011570D01*
X011495Y011311D01*
X011495Y011311D01*
X011407Y011224D01*
X011327Y011191D01*
X011209Y011073D01*
X011145Y010918D01*
X011145Y010232D01*
X011209Y010077D01*
X011327Y009959D01*
X011481Y009896D01*
X011648Y009896D01*
X011802Y009959D01*
X011816Y009973D01*
X011816Y009843D01*
X011852Y009806D01*
X011845Y009803D01*
X011761Y009719D01*
X011716Y009609D01*
X011716Y009491D01*
X011761Y009381D01*
X011845Y009297D01*
X011955Y009252D01*
X012074Y009252D01*
X012132Y009276D01*
X012977Y008431D01*
X012970Y008428D01*
X012886Y008344D01*
X012841Y008234D01*
X012841Y008116D01*
X012886Y008006D01*
X012841Y008120D02*
X012684Y008120D01*
X012693Y008092D02*
X012693Y001050D01*
X012702Y000941D01*
X012769Y000734D01*
X012897Y000558D01*
X013073Y000430D01*
X013280Y000363D01*
X013389Y000354D01*
X020946Y000354D01*
X020950Y000358D01*
X021019Y000354D01*
X021033Y000354D01*
X021182Y000358D01*
X021488Y000440D01*
X021753Y000612D01*
X021952Y000857D01*
X022065Y001152D01*
X022085Y001308D01*
X022085Y002340D01*
X021974Y002228D01*
X021974Y001985D01*
X021705Y001716D01*
X021324Y001716D01*
X021213Y001827D01*
X021213Y001523D01*
X021324Y001634D01*
X021705Y001634D01*
X021974Y001365D01*
X021974Y000985D01*
X021705Y000716D01*
X021324Y000716D01*
X021063Y000976D01*
X021057Y000976D01*
X020974Y001060D01*
X020974Y000985D01*
X020705Y000716D01*
X020324Y000716D01*
X020055Y000985D01*
X020055Y001365D01*
X020324Y001634D01*
X020705Y001634D01*
X020816Y001523D01*
X020816Y001827D01*
X020705Y001716D01*
X020324Y001716D01*
X020055Y001985D01*
X020055Y002365D01*
X020324Y002634D01*
X020705Y002634D01*
X020816Y002523D01*
X020816Y002855D01*
X020696Y002736D01*
X020554Y002736D01*
X020554Y003136D01*
X020475Y003136D01*
X020075Y003136D01*
X020075Y002993D01*
X020332Y002736D01*
X020475Y002736D01*
X020475Y003136D01*
X020475Y003214D01*
X020220Y003214D01*
X020202Y003197D01*
X020171Y003178D01*
X020135Y003169D01*
X020028Y003169D01*
X020028Y003398D01*
X020006Y003398D01*
X020006Y003169D01*
X019924Y003169D01*
X019924Y001484D01*
X019830Y001391D01*
X017823Y001391D01*
X017730Y001484D01*
X017730Y002741D01*
X017823Y002834D01*
X018323Y003334D01*
X018448Y003334D01*
X018480Y003366D01*
X018480Y003710D01*
X016939Y003710D01*
X016846Y003804D01*
X016846Y004526D01*
X016860Y004541D01*
X016845Y004547D01*
X016785Y004607D01*
X016783Y004606D01*
X016748Y004596D01*
X016529Y004596D01*
X016535Y004591D01*
X016553Y004559D01*
X016563Y004523D01*
X016563Y004416D01*
X016334Y004416D01*
X016334Y004394D01*
X016334Y004166D01*
X016442Y004166D01*
X016477Y004175D01*
X016509Y004194D01*
X016535Y004220D01*
X016553Y004251D01*
X016563Y004287D01*
X016563Y004394D01*
X016334Y004394D01*
X016313Y004394D01*
X016313Y004166D01*
X016237Y004166D01*
X016775Y003628D01*
X017411Y003628D01*
X017504Y003534D01*
X017504Y002772D01*
X017411Y002679D01*
X016216Y002679D01*
X016123Y002772D01*
X016123Y002936D01*
X016092Y002936D01*
X016090Y002936D01*
X015757Y002940D01*
X015554Y002736D01*
X015184Y002736D01*
X014961Y002959D01*
X014758Y002756D01*
X014621Y002756D01*
X014621Y003143D01*
X014542Y003143D01*
X014542Y002756D01*
X014405Y002756D01*
X014155Y003006D01*
X014155Y003144D01*
X014542Y003144D01*
X014542Y003222D01*
X014155Y003222D01*
X014155Y003359D01*
X014307Y003511D01*
X014183Y003546D01*
X014183Y003546D01*
X013953Y003692D01*
X013953Y003692D01*
X013953Y003692D01*
X013864Y003795D01*
X013931Y003717D02*
X012693Y003717D01*
X012693Y003640D02*
X014034Y003640D01*
X014156Y003563D02*
X012693Y003563D01*
X012693Y003486D02*
X014281Y003486D01*
X014204Y003408D02*
X012693Y003408D01*
X012693Y003331D02*
X014155Y003331D01*
X014155Y003254D02*
X012693Y003254D01*
X012693Y003177D02*
X014542Y003177D01*
X014542Y003100D02*
X014621Y003100D01*
X014621Y003022D02*
X014542Y003022D01*
X014542Y002945D02*
X014621Y002945D01*
X014621Y002868D02*
X014542Y002868D01*
X014542Y002791D02*
X014621Y002791D01*
X014792Y002791D02*
X015130Y002791D01*
X015052Y002868D02*
X014869Y002868D01*
X014946Y002945D02*
X014975Y002945D01*
X014371Y002791D02*
X012693Y002791D01*
X012693Y002868D02*
X014293Y002868D01*
X014216Y002945D02*
X012693Y002945D01*
X012693Y003022D02*
X014155Y003022D01*
X014155Y003100D02*
X012693Y003100D01*
X012693Y002713D02*
X016182Y002713D01*
X016123Y002791D02*
X015608Y002791D01*
X015685Y002868D02*
X016123Y002868D01*
X016228Y002496D02*
X016264Y002505D01*
X016774Y002505D01*
X016774Y002090D01*
X016774Y002012D01*
X016143Y002012D01*
X016143Y001718D01*
X016152Y001682D01*
X016171Y001651D01*
X016196Y001625D01*
X016228Y001606D01*
X016264Y001597D01*
X016774Y001597D01*
X016774Y002012D01*
X016853Y002012D01*
X016853Y002090D01*
X017484Y002090D01*
X017484Y002384D01*
X017475Y002420D01*
X017457Y002452D01*
X017431Y002478D01*
X017399Y002496D01*
X017363Y002505D01*
X016853Y002505D01*
X016853Y002090D01*
X016774Y002090D01*
X016143Y002090D01*
X016143Y002384D01*
X016152Y002420D01*
X016171Y002452D01*
X016196Y002478D01*
X016228Y002496D01*
X016204Y002482D02*
X012693Y002482D01*
X012693Y002559D02*
X017730Y002559D01*
X017730Y002636D02*
X012693Y002636D01*
X012693Y002404D02*
X016148Y002404D01*
X016143Y002327D02*
X012693Y002327D01*
X012693Y002250D02*
X016143Y002250D01*
X016143Y002173D02*
X012693Y002173D01*
X012693Y002095D02*
X013450Y002095D01*
X013462Y002097D02*
X013360Y002083D01*
X013259Y002057D01*
X013163Y002017D01*
X013073Y001965D01*
X012991Y001902D01*
X012918Y001828D01*
X012854Y001746D01*
X012802Y001656D01*
X012763Y001560D01*
X012736Y001460D01*
X012722Y001357D01*
X012722Y001344D01*
X013475Y001344D01*
X013475Y001266D01*
X012722Y001266D01*
X012722Y001253D01*
X012736Y001150D01*
X012763Y001050D01*
X012802Y000954D01*
X012854Y000864D01*
X012918Y000782D01*
X012991Y000708D01*
X013073Y000645D01*
X013163Y000593D01*
X013259Y000553D01*
X013360Y000526D01*
X013462Y000513D01*
X013475Y000513D01*
X013475Y001266D01*
X013554Y001266D01*
X013554Y001344D01*
X014306Y001344D01*
X014306Y001357D01*
X014293Y001460D01*
X014266Y001560D01*
X014226Y001656D01*
X014174Y001746D01*
X014111Y001828D01*
X014038Y001902D01*
X013955Y001965D01*
X013865Y002017D01*
X013770Y002057D01*
X013669Y002083D01*
X013566Y002097D01*
X013554Y002097D01*
X013554Y001344D01*
X013475Y001344D01*
X013475Y002097D01*
X013462Y002097D01*
X013475Y002095D02*
X013554Y002095D01*
X013579Y002095D02*
X016143Y002095D01*
X016143Y001941D02*
X013987Y001941D01*
X014076Y001864D02*
X016143Y001864D01*
X016143Y001786D02*
X014143Y001786D01*
X014196Y001709D02*
X016145Y001709D01*
X016189Y001632D02*
X014236Y001632D01*
X014268Y001555D02*
X017730Y001555D01*
X017730Y001632D02*
X017438Y001632D01*
X017431Y001625D02*
X017457Y001651D01*
X017475Y001682D01*
X017484Y001718D01*
X017484Y002012D01*
X016853Y002012D01*
X016853Y001597D01*
X017363Y001597D01*
X017399Y001606D01*
X017431Y001625D01*
X017482Y001709D02*
X017730Y001709D01*
X017730Y001786D02*
X017484Y001786D01*
X017484Y001864D02*
X017730Y001864D01*
X017730Y001941D02*
X017484Y001941D01*
X017484Y002095D02*
X017730Y002095D01*
X017730Y002018D02*
X016853Y002018D01*
X016853Y001941D02*
X016774Y001941D01*
X016774Y002018D02*
X013862Y002018D01*
X013554Y002018D02*
X013475Y002018D01*
X013475Y001941D02*
X013554Y001941D01*
X013554Y001864D02*
X013475Y001864D01*
X013475Y001786D02*
X013554Y001786D01*
X013554Y001709D02*
X013475Y001709D01*
X013475Y001632D02*
X013554Y001632D01*
X013554Y001555D02*
X013475Y001555D01*
X013475Y001477D02*
X013554Y001477D01*
X013554Y001400D02*
X013475Y001400D01*
X013475Y001323D02*
X012693Y001323D01*
X012693Y001246D02*
X012723Y001246D01*
X012733Y001169D02*
X012693Y001169D01*
X012693Y001091D02*
X012752Y001091D01*
X012777Y001014D02*
X012696Y001014D01*
X012703Y000937D02*
X012812Y000937D01*
X012858Y000860D02*
X012728Y000860D01*
X012754Y000782D02*
X012917Y000782D01*
X012995Y000705D02*
X012790Y000705D01*
X012846Y000628D02*
X013103Y000628D01*
X013014Y000473D02*
X021539Y000473D01*
X021658Y000551D02*
X013760Y000551D01*
X013770Y000553D02*
X013865Y000593D01*
X013955Y000645D01*
X014038Y000708D01*
X014111Y000782D01*
X014174Y000864D01*
X014226Y000954D01*
X014266Y001050D01*
X014293Y001150D01*
X014306Y001253D01*
X014306Y001266D01*
X013554Y001266D01*
X013554Y000513D01*
X013566Y000513D01*
X013669Y000526D01*
X013770Y000553D01*
X013926Y000628D02*
X021766Y000628D01*
X021828Y000705D02*
X014034Y000705D01*
X014112Y000782D02*
X020257Y000782D01*
X020180Y000860D02*
X014171Y000860D01*
X014217Y000937D02*
X020103Y000937D01*
X020055Y001014D02*
X014251Y001014D01*
X014277Y001091D02*
X020055Y001091D01*
X020055Y001169D02*
X014295Y001169D01*
X014306Y001246D02*
X020055Y001246D01*
X020055Y001323D02*
X013554Y001323D01*
X013554Y001246D02*
X013475Y001246D01*
X013475Y001169D02*
X013554Y001169D01*
X013554Y001091D02*
X013475Y001091D01*
X013475Y001014D02*
X013554Y001014D01*
X013554Y000937D02*
X013475Y000937D01*
X013475Y000860D02*
X013554Y000860D01*
X013554Y000782D02*
X013475Y000782D01*
X013475Y000705D02*
X013554Y000705D01*
X013554Y000628D02*
X013475Y000628D01*
X013475Y000551D02*
X013554Y000551D01*
X013269Y000551D02*
X012907Y000551D01*
X013177Y000396D02*
X021325Y000396D01*
X021257Y000782D02*
X020771Y000782D01*
X020849Y000860D02*
X021180Y000860D01*
X021103Y000937D02*
X020926Y000937D01*
X020974Y001014D02*
X021019Y001014D01*
X021139Y001175D02*
X021014Y001300D01*
X021014Y004675D01*
X020962Y004728D01*
X020962Y004854D01*
X020962Y005169D02*
X020955Y005175D01*
X020389Y005175D01*
X020189Y004953D02*
X020156Y004953D01*
X020156Y004986D02*
X020220Y004922D01*
X020330Y004877D01*
X020449Y004877D01*
X020507Y004901D01*
X020507Y004670D01*
X020600Y004576D01*
X020816Y004576D01*
X020816Y003495D01*
X020696Y003614D01*
X020554Y003614D01*
X020554Y003214D01*
X020475Y003214D01*
X020475Y003614D01*
X020332Y003614D01*
X020254Y003536D01*
X020247Y003562D01*
X020228Y003594D01*
X020202Y003620D01*
X020171Y003638D01*
X020135Y003648D01*
X020028Y003648D01*
X020028Y003419D01*
X020006Y003419D01*
X020006Y003648D01*
X019916Y003648D01*
X019916Y003710D01*
X020457Y003710D01*
X020550Y003804D01*
X020550Y004526D01*
X020457Y004620D01*
X020156Y004620D01*
X020156Y004986D01*
X020156Y004876D02*
X020507Y004876D01*
X020507Y004799D02*
X020156Y004799D01*
X020156Y004722D02*
X020507Y004722D01*
X020532Y004644D02*
X020156Y004644D01*
X020509Y004567D02*
X020816Y004567D01*
X020816Y004490D02*
X020550Y004490D01*
X020550Y004413D02*
X020816Y004413D01*
X020816Y004335D02*
X020550Y004335D01*
X020550Y004258D02*
X020816Y004258D01*
X020816Y004181D02*
X020550Y004181D01*
X020550Y004104D02*
X020816Y004104D01*
X020816Y004026D02*
X020550Y004026D01*
X020550Y003949D02*
X020816Y003949D01*
X020816Y003872D02*
X020550Y003872D01*
X020541Y003795D02*
X020816Y003795D01*
X020816Y003717D02*
X020464Y003717D01*
X020475Y003563D02*
X020554Y003563D01*
X020554Y003486D02*
X020475Y003486D01*
X020475Y003408D02*
X020554Y003408D01*
X020554Y003331D02*
X020475Y003331D01*
X020475Y003254D02*
X020554Y003254D01*
X020475Y003177D02*
X020165Y003177D01*
X020075Y003100D02*
X019924Y003100D01*
X019924Y003022D02*
X020075Y003022D01*
X020123Y002945D02*
X019924Y002945D01*
X019924Y002868D02*
X020200Y002868D01*
X020277Y002791D02*
X019924Y002791D01*
X019924Y002713D02*
X020816Y002713D01*
X020816Y002636D02*
X019924Y002636D01*
X019924Y002559D02*
X020249Y002559D01*
X020171Y002482D02*
X019924Y002482D01*
X019924Y002404D02*
X020094Y002404D01*
X020055Y002327D02*
X019924Y002327D01*
X019924Y002250D02*
X020055Y002250D01*
X020055Y002173D02*
X019924Y002173D01*
X019924Y002095D02*
X020055Y002095D01*
X020055Y002018D02*
X019924Y002018D01*
X019924Y001941D02*
X020099Y001941D01*
X020176Y001864D02*
X019924Y001864D01*
X019924Y001786D02*
X020253Y001786D01*
X020322Y001632D02*
X019924Y001632D01*
X019924Y001709D02*
X020816Y001709D01*
X020816Y001632D02*
X020707Y001632D01*
X020784Y001555D02*
X020816Y001555D01*
X020816Y001786D02*
X020775Y001786D01*
X021213Y001786D02*
X021253Y001786D01*
X021213Y001709D02*
X022085Y001709D01*
X022085Y001632D02*
X021707Y001632D01*
X021784Y001555D02*
X022085Y001555D01*
X022085Y001477D02*
X021862Y001477D01*
X021939Y001400D02*
X022085Y001400D01*
X022085Y001323D02*
X021974Y001323D01*
X021974Y001246D02*
X022077Y001246D01*
X022067Y001169D02*
X021974Y001169D01*
X021974Y001091D02*
X022041Y001091D01*
X022012Y001014D02*
X021974Y001014D01*
X021982Y000937D02*
X021926Y000937D01*
X021952Y000860D02*
X021849Y000860D01*
X021891Y000782D02*
X021771Y000782D01*
X021514Y001175D02*
X021139Y001175D01*
X021213Y001555D02*
X021244Y001555D01*
X021213Y001632D02*
X021322Y001632D01*
X021775Y001786D02*
X022085Y001786D01*
X022085Y001864D02*
X021853Y001864D01*
X021930Y001941D02*
X022085Y001941D01*
X022085Y002018D02*
X021974Y002018D01*
X021974Y002095D02*
X022085Y002095D01*
X022085Y002173D02*
X021974Y002173D01*
X021995Y002250D02*
X022085Y002250D01*
X022073Y002327D02*
X022085Y002327D01*
X022014Y002550D02*
X022014Y005238D01*
X021764Y005488D01*
X020965Y005488D01*
X020962Y005484D01*
X021416Y005726D02*
X022085Y005726D01*
X022085Y005803D02*
X021416Y005803D01*
X021416Y005880D02*
X022085Y005880D01*
X022085Y005957D02*
X021416Y005957D01*
X021884Y005648D02*
X022085Y005648D01*
X022085Y005571D02*
X021962Y005571D01*
X022039Y005494D02*
X022085Y005494D01*
X022085Y006035D02*
X021984Y006035D01*
X022022Y006112D02*
X022085Y006112D01*
X022085Y006189D02*
X022022Y006189D01*
X022022Y006266D02*
X022085Y006266D01*
X022085Y006344D02*
X022022Y006344D01*
X022022Y006421D02*
X022085Y006421D01*
X022085Y006498D02*
X022004Y006498D01*
X022085Y006575D02*
X021725Y006575D01*
X021715Y006653D02*
X021656Y006653D01*
X021656Y006730D02*
X021715Y006730D01*
X021715Y006807D02*
X021656Y006807D01*
X021715Y006884D02*
X022085Y006884D01*
X022085Y006807D02*
X022002Y006807D01*
X022002Y006730D02*
X022085Y006730D01*
X022085Y006653D02*
X021974Y006653D01*
X022002Y006962D02*
X022085Y006962D01*
X022085Y007039D02*
X022000Y007039D01*
X021958Y007116D02*
X022085Y007116D01*
X022085Y007193D02*
X021416Y007193D01*
X021416Y007271D02*
X022085Y007271D01*
X022085Y007348D02*
X021416Y007348D01*
X021416Y007425D02*
X022085Y007425D01*
X022085Y007502D02*
X021416Y007502D01*
X021416Y007579D02*
X022085Y007579D01*
X022085Y007657D02*
X021416Y007657D01*
X021416Y007734D02*
X022085Y007734D01*
X022085Y007811D02*
X021416Y007811D01*
X021416Y007888D02*
X022085Y007888D01*
X022085Y007966D02*
X021416Y007966D01*
X021416Y008043D02*
X022085Y008043D01*
X022085Y008120D02*
X021416Y008120D01*
X021407Y008197D02*
X022085Y008197D01*
X022085Y008275D02*
X021329Y008275D01*
X022085Y008352D02*
X020550Y008352D01*
X020550Y008429D02*
X022085Y008429D01*
X022085Y008506D02*
X020550Y008506D01*
X020550Y008584D02*
X022085Y008584D01*
X022085Y008661D02*
X020550Y008661D01*
X020555Y008738D02*
X022085Y008738D01*
X022085Y008815D02*
X020555Y008815D01*
X020555Y008893D02*
X022085Y008893D01*
X022085Y008970D02*
X020555Y008970D01*
X020555Y009047D02*
X022085Y009047D01*
X022085Y009124D02*
X020559Y009124D01*
X020575Y009202D02*
X022085Y009202D01*
X022085Y009279D02*
X020575Y009279D01*
X020575Y009356D02*
X022085Y009356D01*
X022085Y009433D02*
X020575Y009433D01*
X020537Y009510D02*
X022085Y009510D01*
X022085Y009588D02*
X018267Y009588D01*
X018267Y009665D02*
X022085Y009665D01*
X022085Y009742D02*
X018267Y009742D01*
X018267Y009819D02*
X022085Y009819D01*
X022085Y009897D02*
X018267Y009897D01*
X018267Y009974D02*
X022085Y009974D01*
X022085Y010051D02*
X018267Y010051D01*
X018267Y010128D02*
X022085Y010128D01*
X022085Y010206D02*
X020771Y010206D01*
X020784Y010210D02*
X020901Y010258D01*
X021013Y010318D01*
X021118Y010388D01*
X021216Y010468D01*
X021306Y010558D01*
X021386Y010656D01*
X021457Y010761D01*
X021516Y010873D01*
X021565Y010990D01*
X021602Y011111D01*
X021626Y011236D01*
X021639Y011362D01*
X021639Y011386D01*
X020389Y011386D01*
X020389Y011464D01*
X021639Y011464D01*
X021639Y011488D01*
X021626Y011614D01*
X021602Y011739D01*
X021565Y011860D01*
X021516Y011977D01*
X021457Y012089D01*
X021386Y012194D01*
X021306Y012292D01*
X021216Y012382D01*
X021118Y012462D01*
X021013Y012532D01*
X020901Y012592D01*
X020784Y012640D01*
X020663Y012677D01*
X020539Y012702D01*
X020413Y012714D01*
X020389Y012714D01*
X020389Y011464D01*
X020310Y011464D01*
X020310Y011386D01*
X019060Y011386D01*
X019060Y011362D01*
X019072Y011236D01*
X019097Y011111D01*
X019134Y010990D01*
X019182Y010873D01*
X019242Y010761D01*
X019312Y010656D01*
X019393Y010558D01*
X019482Y010468D01*
X019580Y010388D01*
X019686Y010318D01*
X019797Y010258D01*
X019914Y010210D01*
X020036Y010173D01*
X020160Y010148D01*
X020286Y010136D01*
X020310Y010136D01*
X020310Y011386D01*
X020389Y011386D01*
X020389Y010136D01*
X020413Y010136D01*
X020539Y010148D01*
X020663Y010173D01*
X020784Y010210D01*
X020948Y010283D02*
X022085Y010283D01*
X022085Y010360D02*
X021076Y010360D01*
X021178Y010437D02*
X022085Y010437D01*
X022085Y010515D02*
X021262Y010515D01*
X021334Y010592D02*
X022085Y010592D01*
X022085Y010669D02*
X021395Y010669D01*
X021447Y010746D02*
X022085Y010746D01*
X022085Y010824D02*
X021490Y010824D01*
X021528Y010901D02*
X022085Y010901D01*
X022085Y010978D02*
X021560Y010978D01*
X021585Y011055D02*
X022085Y011055D01*
X022085Y011133D02*
X021606Y011133D01*
X021621Y011210D02*
X022085Y011210D01*
X022085Y011287D02*
X021631Y011287D01*
X021639Y011364D02*
X022085Y011364D01*
X022085Y011442D02*
X020389Y011442D01*
X020389Y011519D02*
X020310Y011519D01*
X020310Y011464D02*
X020310Y012714D01*
X020286Y012714D01*
X020160Y012702D01*
X020036Y012677D01*
X019914Y012640D01*
X019797Y012592D01*
X019686Y012532D01*
X019580Y012462D01*
X019482Y012382D01*
X019393Y012292D01*
X019312Y012194D01*
X019242Y012089D01*
X019182Y011977D01*
X019134Y011860D01*
X019097Y011739D01*
X019072Y011614D01*
X019060Y011488D01*
X019060Y011464D01*
X020310Y011464D01*
X020310Y011442D02*
X018267Y011442D01*
X018267Y011519D02*
X019063Y011519D01*
X019071Y011596D02*
X018267Y011596D01*
X018267Y011673D02*
X019084Y011673D01*
X019101Y011750D02*
X018267Y011750D01*
X018267Y011828D02*
X019124Y011828D01*
X019153Y011905D02*
X018267Y011905D01*
X018267Y011982D02*
X019185Y011982D01*
X019226Y012059D02*
X018267Y012059D01*
X018267Y012137D02*
X019274Y012137D01*
X019329Y012214D02*
X018267Y012214D01*
X018267Y012291D02*
X019392Y012291D01*
X019469Y012368D02*
X018267Y012368D01*
X018267Y012446D02*
X019561Y012446D01*
X019672Y012523D02*
X018267Y012523D01*
X018267Y012600D02*
X019817Y012600D01*
X020036Y012677D02*
X018267Y012677D01*
X018267Y012755D02*
X022085Y012755D01*
X022085Y012832D02*
X018267Y012832D01*
X018267Y012909D02*
X022085Y012909D01*
X022085Y012986D02*
X018267Y012986D01*
X018267Y013064D02*
X022085Y013064D01*
X022085Y013141D02*
X018205Y013141D01*
X018127Y013218D02*
X022085Y013218D01*
X022085Y013295D02*
X018050Y013295D01*
X017973Y013373D02*
X022085Y013373D01*
X022085Y013450D02*
X017896Y013450D01*
X017818Y013527D02*
X022085Y013527D01*
X022085Y013604D02*
X017741Y013604D01*
X017664Y013681D02*
X022085Y013681D01*
X022085Y013759D02*
X017587Y013759D01*
X017509Y013836D02*
X022085Y013836D01*
X022085Y013913D02*
X017432Y013913D01*
X017355Y013990D02*
X022085Y013990D01*
X022085Y014068D02*
X017278Y014068D01*
X017201Y014145D02*
X022085Y014145D01*
X022085Y014222D02*
X017123Y014222D01*
X017046Y014299D02*
X022085Y014299D01*
X022085Y014377D02*
X016969Y014377D01*
X016892Y014454D02*
X022085Y014454D01*
X022085Y014531D02*
X016814Y014531D01*
X016737Y014608D02*
X022085Y014608D01*
X022085Y014686D02*
X000318Y014686D01*
X000318Y014763D02*
X022085Y014763D01*
X022085Y014840D02*
X000318Y014840D01*
X000318Y014917D02*
X022085Y014917D01*
X022085Y014995D02*
X000318Y014995D01*
X000318Y015072D02*
X022085Y015072D01*
X022085Y015149D02*
X000318Y015149D01*
X000318Y015226D02*
X022085Y015226D01*
X022085Y015304D02*
X000318Y015304D01*
X000318Y015381D02*
X022085Y015381D01*
X022085Y015458D02*
X000318Y015458D01*
X000318Y015535D02*
X022085Y015535D01*
X022085Y015612D02*
X000318Y015612D01*
X000318Y015690D02*
X022085Y015690D01*
X022085Y012677D02*
X020662Y012677D01*
X020882Y012600D02*
X022085Y012600D01*
X022085Y012523D02*
X021027Y012523D01*
X021138Y012446D02*
X022085Y012446D01*
X022085Y012368D02*
X021229Y012368D01*
X021307Y012291D02*
X022085Y012291D01*
X022085Y012214D02*
X021370Y012214D01*
X021425Y012137D02*
X022085Y012137D01*
X022085Y012059D02*
X021472Y012059D01*
X021514Y011982D02*
X022085Y011982D01*
X022085Y011905D02*
X021546Y011905D01*
X021575Y011828D02*
X022085Y011828D01*
X022085Y011750D02*
X021598Y011750D01*
X021615Y011673D02*
X022085Y011673D01*
X022085Y011596D02*
X021628Y011596D01*
X021636Y011519D02*
X022085Y011519D01*
X020389Y011596D02*
X020310Y011596D01*
X020310Y011673D02*
X020389Y011673D01*
X020389Y011750D02*
X020310Y011750D01*
X020310Y011828D02*
X020389Y011828D01*
X020389Y011905D02*
X020310Y011905D01*
X020310Y011982D02*
X020389Y011982D01*
X020389Y012059D02*
X020310Y012059D01*
X020310Y012137D02*
X020389Y012137D01*
X020389Y012214D02*
X020310Y012214D01*
X020310Y012291D02*
X020389Y012291D01*
X020389Y012368D02*
X020310Y012368D01*
X020310Y012446D02*
X020389Y012446D01*
X020389Y012523D02*
X020310Y012523D01*
X020310Y012600D02*
X020389Y012600D01*
X020389Y012677D02*
X020310Y012677D01*
X020310Y011364D02*
X020389Y011364D01*
X020389Y011287D02*
X020310Y011287D01*
X020310Y011210D02*
X020389Y011210D01*
X020389Y011133D02*
X020310Y011133D01*
X020310Y011055D02*
X020389Y011055D01*
X020389Y010978D02*
X020310Y010978D01*
X020310Y010901D02*
X020389Y010901D01*
X020389Y010824D02*
X020310Y010824D01*
X020310Y010746D02*
X020389Y010746D01*
X020389Y010669D02*
X020310Y010669D01*
X020310Y010592D02*
X020389Y010592D01*
X020389Y010515D02*
X020310Y010515D01*
X020310Y010437D02*
X020389Y010437D01*
X020389Y010360D02*
X020310Y010360D01*
X020310Y010283D02*
X020389Y010283D01*
X020389Y010206D02*
X020310Y010206D01*
X019927Y010206D02*
X018267Y010206D01*
X018267Y010283D02*
X019751Y010283D01*
X019622Y010360D02*
X018267Y010360D01*
X018267Y010437D02*
X019520Y010437D01*
X019436Y010515D02*
X018267Y010515D01*
X018267Y010592D02*
X019365Y010592D01*
X019304Y010669D02*
X018267Y010669D01*
X018267Y010746D02*
X019252Y010746D01*
X019209Y010824D02*
X018267Y010824D01*
X018267Y010901D02*
X019171Y010901D01*
X019139Y010978D02*
X018267Y010978D01*
X018267Y011055D02*
X019114Y011055D01*
X019093Y011133D02*
X018267Y011133D01*
X018267Y011210D02*
X019078Y011210D01*
X019067Y011287D02*
X018267Y011287D01*
X018267Y011364D02*
X019060Y011364D01*
X018068Y012996D02*
X016639Y014425D01*
X008389Y014425D01*
X007764Y013800D01*
X007764Y011550D01*
X007327Y011113D01*
X007327Y011193D01*
X007389Y011255D01*
X007327Y011113D02*
X007327Y010800D01*
X007327Y010588D01*
X007314Y010575D01*
X006895Y010592D02*
X006504Y010592D01*
X006504Y010614D02*
X006864Y010614D01*
X006864Y010874D01*
X006848Y010951D01*
X006818Y011024D01*
X006775Y011090D01*
X006719Y011145D01*
X006654Y011189D01*
X006581Y011219D01*
X006504Y011234D01*
X006504Y010614D01*
X006504Y010536D01*
X006864Y010536D01*
X006864Y010276D01*
X006848Y010199D01*
X006818Y010126D01*
X006775Y010060D01*
X006719Y010005D01*
X006654Y009961D01*
X006581Y009931D01*
X006504Y009916D01*
X006504Y010536D01*
X006425Y010536D01*
X006065Y010536D01*
X006065Y010276D01*
X006080Y010199D01*
X006110Y010126D01*
X006154Y010060D01*
X006210Y010005D01*
X006275Y009961D01*
X006348Y009931D01*
X006425Y009916D01*
X006425Y010536D01*
X006425Y010614D01*
X006065Y010614D01*
X006065Y010874D01*
X006080Y010951D01*
X006110Y011024D01*
X006154Y011090D01*
X006210Y011145D01*
X006275Y011189D01*
X006348Y011219D01*
X006425Y011234D01*
X006425Y010614D01*
X006504Y010614D01*
X006504Y010669D02*
X006425Y010669D01*
X006425Y010592D02*
X002914Y010592D01*
X002886Y010558D02*
X002966Y010656D01*
X003037Y010761D01*
X003096Y010873D01*
X003145Y010990D01*
X003182Y011111D01*
X003206Y011236D01*
X003219Y011362D01*
X003219Y011386D01*
X001969Y011386D01*
X001969Y011464D01*
X003219Y011464D01*
X003219Y011488D01*
X003206Y011614D01*
X003182Y011739D01*
X003145Y011860D01*
X003096Y011977D01*
X003037Y012089D01*
X002966Y012194D01*
X002886Y012292D01*
X002796Y012382D01*
X002698Y012462D01*
X002593Y012532D01*
X002481Y012592D01*
X002364Y012640D01*
X002243Y012677D01*
X002119Y012702D01*
X001993Y012714D01*
X001969Y012714D01*
X001969Y011464D01*
X001890Y011464D01*
X001890Y011386D01*
X000640Y011386D01*
X000640Y011362D01*
X000652Y011236D01*
X000677Y011111D01*
X000714Y010990D01*
X000762Y010873D01*
X000822Y010761D01*
X000892Y010656D01*
X000973Y010558D01*
X001062Y010468D01*
X001160Y010388D01*
X001266Y010318D01*
X001377Y010258D01*
X001494Y010210D01*
X001616Y010173D01*
X001740Y010148D01*
X001866Y010136D01*
X001890Y010136D01*
X001890Y011386D01*
X001969Y011386D01*
X001969Y010136D01*
X001993Y010136D01*
X002119Y010148D01*
X002243Y010173D01*
X002364Y010210D01*
X002481Y010258D01*
X002593Y010318D01*
X002698Y010388D01*
X002796Y010468D01*
X002886Y010558D01*
X002842Y010515D02*
X006065Y010515D01*
X006065Y010437D02*
X002758Y010437D01*
X002656Y010360D02*
X006065Y010360D01*
X006065Y010283D02*
X002528Y010283D01*
X002351Y010206D02*
X006079Y010206D01*
X006109Y010128D02*
X000318Y010128D01*
X000318Y010051D02*
X006163Y010051D01*
X006256Y009974D02*
X000318Y009974D01*
X000318Y009897D02*
X007228Y009897D01*
X007400Y009897D02*
X008078Y009897D01*
X008250Y009897D02*
X008928Y009897D01*
X009100Y009897D02*
X009778Y009897D01*
X009950Y009897D02*
X010628Y009897D01*
X010800Y009897D02*
X011478Y009897D01*
X011650Y009897D02*
X011816Y009897D01*
X011839Y009819D02*
X000318Y009819D01*
X000318Y009742D02*
X011785Y009742D01*
X011739Y009665D02*
X000318Y009665D01*
X000318Y009588D02*
X011716Y009588D01*
X011716Y009510D02*
X000318Y009510D01*
X000318Y009433D02*
X011740Y009433D01*
X011786Y009356D02*
X000318Y009356D01*
X000321Y009279D02*
X011889Y009279D01*
X012014Y009550D02*
X012139Y009550D01*
X015891Y005799D01*
X016434Y005799D01*
X016434Y006114D02*
X015826Y006114D01*
X012014Y009925D01*
X012014Y011175D01*
X012264Y011425D01*
X012889Y011425D01*
X013264Y011800D01*
X013264Y012275D01*
X012845Y012291D02*
X012834Y012291D01*
X012834Y012214D02*
X012845Y012214D01*
X012834Y012137D02*
X012845Y012137D01*
X012834Y012059D02*
X012845Y012059D01*
X012834Y011982D02*
X012845Y011982D01*
X012845Y011932D02*
X012909Y011777D01*
X012935Y011751D01*
X012807Y011624D01*
X012566Y011624D01*
X012652Y011659D01*
X012770Y011777D01*
X012834Y011932D01*
X012834Y012618D01*
X012770Y012773D01*
X012652Y012891D01*
X012613Y012907D01*
X012613Y012930D01*
X012784Y013101D01*
X016057Y013101D01*
X016566Y012593D01*
X016566Y010007D01*
X015253Y008695D01*
X015253Y007343D01*
X015370Y007226D01*
X015968Y006627D01*
X015843Y006627D01*
X012588Y009882D01*
X012588Y009933D01*
X012652Y009959D01*
X012770Y010077D01*
X012834Y010232D01*
X012834Y010918D01*
X012770Y011073D01*
X012652Y011191D01*
X012566Y011226D01*
X012972Y011226D01*
X013341Y011596D01*
X013348Y011596D01*
X013502Y011659D01*
X013620Y011777D01*
X013684Y011932D01*
X013684Y012618D01*
X013620Y012773D01*
X013502Y012891D01*
X013348Y012954D01*
X013181Y012954D01*
X013027Y012891D01*
X012909Y012773D01*
X012845Y012618D01*
X012845Y011932D01*
X012856Y011905D02*
X012823Y011905D01*
X012791Y011828D02*
X012888Y011828D01*
X012934Y011750D02*
X012743Y011750D01*
X012666Y011673D02*
X012857Y011673D01*
X013110Y011364D02*
X014316Y011364D01*
X014316Y011287D02*
X013032Y011287D01*
X013073Y011210D02*
X012605Y011210D01*
X012710Y011133D02*
X012969Y011133D01*
X013027Y011191D02*
X012909Y011073D01*
X012845Y010918D01*
X012845Y010232D01*
X012909Y010077D01*
X013027Y009959D01*
X013181Y009896D01*
X013348Y009896D01*
X013502Y009959D01*
X013620Y010077D01*
X013684Y010232D01*
X013684Y010918D01*
X013620Y011073D01*
X013502Y011191D01*
X013348Y011254D01*
X013181Y011254D01*
X013027Y011191D01*
X012902Y011055D02*
X012777Y011055D01*
X012809Y010978D02*
X012870Y010978D01*
X012845Y010901D02*
X012834Y010901D01*
X012834Y010824D02*
X012845Y010824D01*
X012834Y010746D02*
X012845Y010746D01*
X012834Y010669D02*
X012845Y010669D01*
X012834Y010592D02*
X012845Y010592D01*
X012834Y010515D02*
X012845Y010515D01*
X012834Y010437D02*
X012845Y010437D01*
X012834Y010360D02*
X012845Y010360D01*
X012834Y010283D02*
X012845Y010283D01*
X012856Y010206D02*
X012823Y010206D01*
X012791Y010128D02*
X012888Y010128D01*
X012935Y010051D02*
X012744Y010051D01*
X012666Y009974D02*
X013012Y009974D01*
X013178Y009897D02*
X012588Y009897D01*
X012651Y009819D02*
X014316Y009819D01*
X014316Y009742D02*
X012728Y009742D01*
X012805Y009665D02*
X014316Y009665D01*
X014316Y009588D02*
X012883Y009588D01*
X012960Y009510D02*
X014316Y009510D01*
X014316Y009461D02*
X014261Y009407D01*
X014216Y009297D01*
X014216Y009178D01*
X014261Y009068D01*
X014345Y008985D01*
X014455Y008939D01*
X014574Y008939D01*
X014683Y008985D01*
X014767Y009068D01*
X014813Y009178D01*
X014813Y009297D01*
X014767Y009407D01*
X014713Y009461D01*
X014713Y009973D01*
X014727Y009959D01*
X014881Y009896D01*
X015048Y009896D01*
X015202Y009959D01*
X015320Y010077D01*
X015384Y010232D01*
X015384Y010918D01*
X015320Y011073D01*
X015202Y011191D01*
X015048Y011254D01*
X014881Y011254D01*
X014727Y011191D01*
X014713Y011177D01*
X014713Y011280D01*
X014972Y011539D01*
X015029Y011596D01*
X015048Y011596D01*
X015202Y011659D01*
X015320Y011777D01*
X015384Y011932D01*
X015384Y012618D01*
X015320Y012773D01*
X015202Y012891D01*
X015048Y012954D01*
X014881Y012954D01*
X014727Y012891D01*
X014609Y012773D01*
X014545Y012618D01*
X014545Y011932D01*
X014609Y011777D01*
X014629Y011758D01*
X014316Y011445D01*
X014316Y011206D01*
X014198Y011254D01*
X014031Y011254D01*
X013877Y011191D01*
X013759Y011073D01*
X013695Y010918D01*
X013695Y010232D01*
X013759Y010077D01*
X013877Y009959D01*
X014031Y009896D01*
X014198Y009896D01*
X014316Y009944D01*
X014316Y009461D01*
X014288Y009433D02*
X013037Y009433D01*
X013114Y009356D02*
X014240Y009356D01*
X014216Y009279D02*
X013192Y009279D01*
X013269Y009202D02*
X014216Y009202D01*
X014238Y009124D02*
X013346Y009124D01*
X013423Y009047D02*
X014283Y009047D01*
X014381Y008970D02*
X013501Y008970D01*
X013578Y008893D02*
X015451Y008893D01*
X015528Y008970D02*
X014648Y008970D01*
X014746Y009047D02*
X015605Y009047D01*
X015683Y009124D02*
X014790Y009124D01*
X014813Y009202D02*
X015760Y009202D01*
X015837Y009279D02*
X014813Y009279D01*
X014788Y009356D02*
X015914Y009356D01*
X015992Y009433D02*
X014741Y009433D01*
X014713Y009510D02*
X016069Y009510D01*
X016146Y009588D02*
X014713Y009588D01*
X014713Y009665D02*
X016223Y009665D01*
X016301Y009742D02*
X014713Y009742D01*
X014713Y009819D02*
X016378Y009819D01*
X016455Y009897D02*
X015900Y009897D01*
X015898Y009896D02*
X016052Y009959D01*
X016170Y010077D01*
X016234Y010232D01*
X016234Y010918D01*
X016170Y011073D01*
X016052Y011191D01*
X015898Y011254D01*
X015731Y011254D01*
X015577Y011191D01*
X015459Y011073D01*
X015395Y010918D01*
X015395Y010232D01*
X015459Y010077D01*
X015577Y009959D01*
X015731Y009896D01*
X015898Y009896D01*
X015728Y009897D02*
X015050Y009897D01*
X014878Y009897D02*
X014713Y009897D01*
X014316Y009897D02*
X014200Y009897D01*
X014028Y009897D02*
X013350Y009897D01*
X013516Y009974D02*
X013862Y009974D01*
X013785Y010051D02*
X013594Y010051D01*
X013641Y010128D02*
X013738Y010128D01*
X013706Y010206D02*
X013673Y010206D01*
X013684Y010283D02*
X013695Y010283D01*
X013684Y010360D02*
X013695Y010360D01*
X013684Y010437D02*
X013695Y010437D01*
X013684Y010515D02*
X013695Y010515D01*
X013684Y010592D02*
X013695Y010592D01*
X013684Y010669D02*
X013695Y010669D01*
X013684Y010746D02*
X013695Y010746D01*
X013684Y010824D02*
X013695Y010824D01*
X013684Y010901D02*
X013695Y010901D01*
X013720Y010978D02*
X013659Y010978D01*
X013627Y011055D02*
X013752Y011055D01*
X013819Y011133D02*
X013560Y011133D01*
X013455Y011210D02*
X013923Y011210D01*
X014305Y011210D02*
X014316Y011210D01*
X014316Y011442D02*
X013187Y011442D01*
X013264Y011519D02*
X014390Y011519D01*
X014467Y011596D02*
X014199Y011596D01*
X014198Y011596D02*
X014352Y011659D01*
X014470Y011777D01*
X014534Y011932D01*
X014534Y012618D01*
X014470Y012773D01*
X014352Y012891D01*
X014198Y012954D01*
X014031Y012954D01*
X013877Y012891D01*
X013759Y012773D01*
X013695Y012618D01*
X013695Y011932D01*
X013759Y011777D01*
X013877Y011659D01*
X014031Y011596D01*
X014198Y011596D01*
X014030Y011596D02*
X013349Y011596D01*
X013516Y011673D02*
X013863Y011673D01*
X013786Y011750D02*
X013593Y011750D01*
X013641Y011828D02*
X013738Y011828D01*
X013706Y011905D02*
X013673Y011905D01*
X013684Y011982D02*
X013695Y011982D01*
X013684Y012059D02*
X013695Y012059D01*
X013684Y012137D02*
X013695Y012137D01*
X013684Y012214D02*
X013695Y012214D01*
X013684Y012291D02*
X013695Y012291D01*
X013684Y012368D02*
X013695Y012368D01*
X013684Y012446D02*
X013695Y012446D01*
X013684Y012523D02*
X013695Y012523D01*
X013684Y012600D02*
X013695Y012600D01*
X013719Y012677D02*
X013659Y012677D01*
X013627Y012755D02*
X013751Y012755D01*
X013818Y012832D02*
X013561Y012832D01*
X013457Y012909D02*
X013922Y012909D01*
X014307Y012909D02*
X014772Y012909D01*
X014668Y012832D02*
X014411Y012832D01*
X014477Y012755D02*
X014601Y012755D01*
X014569Y012677D02*
X014509Y012677D01*
X014534Y012600D02*
X014545Y012600D01*
X014534Y012523D02*
X014545Y012523D01*
X014534Y012446D02*
X014545Y012446D01*
X014534Y012368D02*
X014545Y012368D01*
X014534Y012291D02*
X014545Y012291D01*
X014534Y012214D02*
X014545Y012214D01*
X014534Y012137D02*
X014545Y012137D01*
X014534Y012059D02*
X014545Y012059D01*
X014534Y011982D02*
X014545Y011982D01*
X014556Y011905D02*
X014523Y011905D01*
X014491Y011828D02*
X014588Y011828D01*
X014621Y011750D02*
X014443Y011750D01*
X014366Y011673D02*
X014544Y011673D01*
X014514Y011363D02*
X014889Y011738D01*
X014889Y012200D01*
X014964Y012275D01*
X015384Y012291D02*
X015395Y012291D01*
X015384Y012214D02*
X015395Y012214D01*
X015384Y012137D02*
X015395Y012137D01*
X015384Y012059D02*
X015395Y012059D01*
X015384Y011982D02*
X015395Y011982D01*
X015395Y011932D02*
X015459Y011777D01*
X015577Y011659D01*
X015731Y011596D01*
X015898Y011596D01*
X016052Y011659D01*
X016170Y011777D01*
X016234Y011932D01*
X016234Y012618D01*
X016170Y012773D01*
X016052Y012891D01*
X015898Y012954D01*
X015731Y012954D01*
X015577Y012891D01*
X015459Y012773D01*
X015395Y012618D01*
X015395Y011932D01*
X015406Y011905D02*
X015373Y011905D01*
X015341Y011828D02*
X015438Y011828D01*
X015486Y011750D02*
X015293Y011750D01*
X015216Y011673D02*
X015563Y011673D01*
X015730Y011596D02*
X015049Y011596D01*
X014952Y011519D02*
X016566Y011519D01*
X016566Y011596D02*
X015899Y011596D01*
X016066Y011673D02*
X016566Y011673D01*
X016566Y011750D02*
X016143Y011750D01*
X016191Y011828D02*
X016566Y011828D01*
X016566Y011905D02*
X016223Y011905D01*
X016234Y011982D02*
X016566Y011982D01*
X016566Y012059D02*
X016234Y012059D01*
X016234Y012137D02*
X016566Y012137D01*
X016566Y012214D02*
X016234Y012214D01*
X016234Y012291D02*
X016566Y012291D01*
X016566Y012368D02*
X016234Y012368D01*
X016234Y012446D02*
X016566Y012446D01*
X016566Y012523D02*
X016234Y012523D01*
X016234Y012600D02*
X016558Y012600D01*
X016481Y012677D02*
X016209Y012677D01*
X016177Y012755D02*
X016404Y012755D01*
X016326Y012832D02*
X016111Y012832D01*
X016007Y012909D02*
X016249Y012909D01*
X016172Y012986D02*
X012669Y012986D01*
X012613Y012909D02*
X013072Y012909D01*
X012968Y012832D02*
X012711Y012832D01*
X012777Y012755D02*
X012901Y012755D01*
X012869Y012677D02*
X012809Y012677D01*
X012834Y012600D02*
X012845Y012600D01*
X012834Y012523D02*
X012845Y012523D01*
X012834Y012446D02*
X012845Y012446D01*
X012834Y012368D02*
X012845Y012368D01*
X012414Y012275D02*
X012414Y013013D01*
X012702Y013300D01*
X016139Y013300D01*
X016764Y012675D01*
X016764Y009925D01*
X015452Y008613D01*
X015452Y007425D01*
X016133Y006744D01*
X016434Y006744D01*
X016434Y007059D02*
X016193Y007059D01*
X015639Y007613D01*
X015639Y008550D01*
X016952Y009863D01*
X016952Y012738D01*
X016202Y013488D01*
X012139Y013488D01*
X011952Y013300D01*
X011952Y011488D01*
X011577Y011113D01*
X011577Y010588D01*
X011564Y010575D01*
X011145Y010592D02*
X011134Y010592D01*
X011134Y010669D02*
X011145Y010669D01*
X011134Y010746D02*
X011145Y010746D01*
X011134Y010824D02*
X011145Y010824D01*
X011134Y010901D02*
X011145Y010901D01*
X011170Y010978D02*
X011109Y010978D01*
X011077Y011055D02*
X011202Y011055D01*
X011269Y011133D02*
X011010Y011133D01*
X011080Y011210D02*
X011373Y011210D01*
X011470Y011287D02*
X011157Y011287D01*
X011235Y011364D02*
X011548Y011364D01*
X011625Y011442D02*
X011312Y011442D01*
X011338Y011519D02*
X011702Y011519D01*
X011753Y011596D02*
X011338Y011596D01*
X011338Y011673D02*
X011357Y011673D01*
X011525Y011673D02*
X011604Y011673D01*
X011604Y011750D02*
X011525Y011750D01*
X011525Y011828D02*
X011604Y011828D01*
X011604Y011905D02*
X011525Y011905D01*
X011525Y011982D02*
X011604Y011982D01*
X011604Y012059D02*
X011525Y012059D01*
X011525Y012137D02*
X011604Y012137D01*
X011604Y012214D02*
X011525Y012214D01*
X011525Y012314D02*
X011525Y012934D01*
X011448Y012919D01*
X011375Y012889D01*
X011338Y012864D01*
X011338Y013468D01*
X011347Y013476D01*
X011847Y013476D01*
X011753Y013382D01*
X011753Y012889D01*
X011681Y012919D01*
X011604Y012934D01*
X011604Y012314D01*
X011525Y012314D01*
X011525Y012368D02*
X011604Y012368D01*
X011604Y012446D02*
X011525Y012446D01*
X011525Y012523D02*
X011604Y012523D01*
X011604Y012600D02*
X011525Y012600D01*
X011525Y012677D02*
X011604Y012677D01*
X011604Y012755D02*
X011525Y012755D01*
X011525Y012832D02*
X011604Y012832D01*
X011604Y012909D02*
X011525Y012909D01*
X011424Y012909D02*
X011338Y012909D01*
X011338Y012986D02*
X011753Y012986D01*
X011753Y012909D02*
X011705Y012909D01*
X011753Y013064D02*
X011338Y013064D01*
X011338Y013141D02*
X011753Y013141D01*
X011753Y013218D02*
X011338Y013218D01*
X011338Y013295D02*
X011753Y013295D01*
X011753Y013373D02*
X011338Y013373D01*
X011338Y013450D02*
X011821Y013450D01*
X011264Y013675D02*
X011139Y013550D01*
X011139Y011550D01*
X010702Y011113D01*
X010702Y010588D01*
X010714Y010575D01*
X010295Y010592D02*
X010284Y010592D01*
X010284Y010669D02*
X010295Y010669D01*
X010284Y010746D02*
X010295Y010746D01*
X010284Y010824D02*
X010295Y010824D01*
X010284Y010901D02*
X010295Y010901D01*
X010320Y010978D02*
X010259Y010978D01*
X010227Y011055D02*
X010352Y011055D01*
X010419Y011133D02*
X010160Y011133D01*
X010205Y011210D02*
X010518Y011210D01*
X010595Y011287D02*
X010282Y011287D01*
X010360Y011364D02*
X010673Y011364D01*
X010750Y011442D02*
X010437Y011442D01*
X010514Y011519D02*
X010827Y011519D01*
X010904Y011596D02*
X010526Y011596D01*
X010675Y011673D02*
X010754Y011673D01*
X010754Y011750D02*
X010675Y011750D01*
X010675Y011828D02*
X010754Y011828D01*
X010754Y011905D02*
X010675Y011905D01*
X010675Y011982D02*
X010754Y011982D01*
X010754Y012059D02*
X010675Y012059D01*
X010675Y012137D02*
X010754Y012137D01*
X010754Y012214D02*
X010675Y012214D01*
X010675Y012314D02*
X010675Y012934D01*
X010598Y012919D01*
X010526Y012889D01*
X010526Y013664D01*
X010972Y013664D01*
X010941Y013632D01*
X010941Y012864D01*
X010904Y012889D01*
X010831Y012919D01*
X010754Y012934D01*
X010754Y012314D01*
X010675Y012314D01*
X010675Y012368D02*
X010754Y012368D01*
X010754Y012446D02*
X010675Y012446D01*
X010675Y012523D02*
X010754Y012523D01*
X010754Y012600D02*
X010675Y012600D01*
X010675Y012677D02*
X010754Y012677D01*
X010754Y012755D02*
X010675Y012755D01*
X010675Y012832D02*
X010754Y012832D01*
X010754Y012909D02*
X010675Y012909D01*
X010574Y012909D02*
X010526Y012909D01*
X010526Y012986D02*
X010941Y012986D01*
X010941Y012909D02*
X010855Y012909D01*
X010941Y013064D02*
X010526Y013064D01*
X010526Y013141D02*
X010941Y013141D01*
X010941Y013218D02*
X010526Y013218D01*
X010526Y013295D02*
X010941Y013295D01*
X010941Y013373D02*
X010526Y013373D01*
X010526Y013450D02*
X010941Y013450D01*
X010941Y013527D02*
X010526Y013527D01*
X010526Y013604D02*
X010941Y013604D01*
X011264Y013675D02*
X016389Y013675D01*
X017139Y012925D01*
X017139Y009800D01*
X015827Y008488D01*
X015827Y007738D01*
X016191Y007374D01*
X016434Y007374D01*
X016434Y007689D02*
X016126Y007689D01*
X016014Y007800D01*
X016014Y008425D01*
X017327Y009738D01*
X017327Y012988D01*
X016452Y013863D01*
X010389Y013863D01*
X010327Y013800D01*
X010327Y011613D01*
X009827Y011113D01*
X009827Y010613D01*
X009864Y010575D01*
X010284Y010515D02*
X010295Y010515D01*
X010284Y010437D02*
X010295Y010437D01*
X010284Y010360D02*
X010295Y010360D01*
X010284Y010283D02*
X010295Y010283D01*
X010306Y010206D02*
X010273Y010206D01*
X010241Y010128D02*
X010338Y010128D01*
X010385Y010051D02*
X010194Y010051D01*
X010116Y009974D02*
X010462Y009974D01*
X010966Y009974D02*
X011312Y009974D01*
X011235Y010051D02*
X011044Y010051D01*
X011091Y010128D02*
X011188Y010128D01*
X011156Y010206D02*
X011123Y010206D01*
X011134Y010283D02*
X011145Y010283D01*
X011134Y010360D02*
X011145Y010360D01*
X011134Y010437D02*
X011145Y010437D01*
X011134Y010515D02*
X011145Y010515D01*
X009952Y011519D02*
X009639Y011519D01*
X009651Y011596D02*
X010029Y011596D01*
X010072Y011673D02*
X010107Y011673D01*
X009904Y011673D02*
X009825Y011673D01*
X009825Y011750D02*
X009904Y011750D01*
X009904Y011828D02*
X009825Y011828D01*
X009825Y011905D02*
X009904Y011905D01*
X009904Y011982D02*
X009825Y011982D01*
X009825Y012059D02*
X009904Y012059D01*
X009904Y012137D02*
X009825Y012137D01*
X009825Y012214D02*
X009904Y012214D01*
X009904Y012314D02*
X009825Y012314D01*
X009825Y012934D01*
X009748Y012919D01*
X009675Y012889D01*
X009651Y012872D01*
X009651Y013718D01*
X009784Y013851D01*
X010128Y013851D01*
X010128Y012836D01*
X010119Y012845D01*
X010054Y012889D01*
X009981Y012919D01*
X009904Y012934D01*
X009904Y012314D01*
X009904Y012368D02*
X009825Y012368D01*
X009825Y012446D02*
X009904Y012446D01*
X009904Y012523D02*
X009825Y012523D01*
X009825Y012600D02*
X009904Y012600D01*
X009904Y012677D02*
X009825Y012677D01*
X009825Y012755D02*
X009904Y012755D01*
X009904Y012832D02*
X009825Y012832D01*
X009825Y012909D02*
X009904Y012909D01*
X010005Y012909D02*
X010128Y012909D01*
X010128Y012986D02*
X009651Y012986D01*
X009651Y012909D02*
X009724Y012909D01*
X009651Y013064D02*
X010128Y013064D01*
X010128Y013141D02*
X009651Y013141D01*
X009651Y013218D02*
X010128Y013218D01*
X010128Y013295D02*
X009651Y013295D01*
X009651Y013373D02*
X010128Y013373D01*
X010128Y013450D02*
X009651Y013450D01*
X009651Y013527D02*
X010128Y013527D01*
X010128Y013604D02*
X009651Y013604D01*
X009651Y013681D02*
X010128Y013681D01*
X010128Y013759D02*
X009692Y013759D01*
X009769Y013836D02*
X010128Y013836D01*
X009702Y014050D02*
X009452Y013800D01*
X009452Y011613D01*
X009014Y011175D01*
X009014Y010575D01*
X008595Y010592D02*
X008584Y010592D01*
X008584Y010669D02*
X008595Y010669D01*
X008584Y010746D02*
X008595Y010746D01*
X008584Y010824D02*
X008595Y010824D01*
X008584Y010901D02*
X008595Y010901D01*
X008620Y010978D02*
X008559Y010978D01*
X008527Y011055D02*
X008652Y011055D01*
X008719Y011133D02*
X008460Y011133D01*
X008455Y011210D02*
X008816Y011210D01*
X008845Y011287D02*
X008532Y011287D01*
X008610Y011364D02*
X008923Y011364D01*
X009000Y011442D02*
X008687Y011442D01*
X008764Y011519D02*
X009077Y011519D01*
X009154Y011596D02*
X008776Y011596D01*
X008776Y011673D02*
X008807Y011673D01*
X008975Y011673D02*
X009054Y011673D01*
X009054Y011750D02*
X008975Y011750D01*
X008975Y011828D02*
X009054Y011828D01*
X009054Y011905D02*
X008975Y011905D01*
X008975Y011982D02*
X009054Y011982D01*
X009054Y012059D02*
X008975Y012059D01*
X008975Y012137D02*
X009054Y012137D01*
X009054Y012214D02*
X008975Y012214D01*
X008975Y012314D02*
X008975Y012934D01*
X008898Y012919D01*
X008825Y012889D01*
X008776Y012856D01*
X008776Y013718D01*
X009097Y014039D01*
X009410Y014039D01*
X009370Y013999D01*
X009253Y013882D01*
X009253Y012856D01*
X009204Y012889D01*
X009131Y012919D01*
X009054Y012934D01*
X009054Y012314D01*
X008975Y012314D01*
X008975Y012368D02*
X009054Y012368D01*
X009054Y012446D02*
X008975Y012446D01*
X008975Y012523D02*
X009054Y012523D01*
X009054Y012600D02*
X008975Y012600D01*
X008975Y012677D02*
X009054Y012677D01*
X009054Y012755D02*
X008975Y012755D01*
X008975Y012832D02*
X009054Y012832D01*
X009054Y012909D02*
X008975Y012909D01*
X008874Y012909D02*
X008776Y012909D01*
X008776Y012986D02*
X009253Y012986D01*
X009253Y012909D02*
X009155Y012909D01*
X009253Y013064D02*
X008776Y013064D01*
X008776Y013141D02*
X009253Y013141D01*
X009253Y013218D02*
X008776Y013218D01*
X008776Y013295D02*
X009253Y013295D01*
X009253Y013373D02*
X008776Y013373D01*
X008776Y013450D02*
X009253Y013450D01*
X009253Y013527D02*
X008776Y013527D01*
X008776Y013604D02*
X009253Y013604D01*
X009253Y013681D02*
X008776Y013681D01*
X008817Y013759D02*
X009253Y013759D01*
X009253Y013836D02*
X008894Y013836D01*
X008971Y013913D02*
X009284Y013913D01*
X009361Y013990D02*
X009048Y013990D01*
X009014Y014238D02*
X008577Y013800D01*
X008577Y011613D01*
X008139Y011175D01*
X008139Y010600D01*
X008164Y010575D01*
X007745Y010592D02*
X007734Y010592D01*
X007734Y010669D02*
X007745Y010669D01*
X007734Y010746D02*
X007745Y010746D01*
X007734Y010824D02*
X007745Y010824D01*
X007734Y010901D02*
X007745Y010901D01*
X007770Y010978D02*
X007709Y010978D01*
X007677Y011055D02*
X007802Y011055D01*
X007869Y011133D02*
X007649Y011133D01*
X007705Y011210D02*
X007941Y011210D01*
X007970Y011287D02*
X007782Y011287D01*
X007860Y011364D02*
X008048Y011364D01*
X008125Y011442D02*
X007937Y011442D01*
X007963Y011519D02*
X008202Y011519D01*
X008279Y011596D02*
X007963Y011596D01*
X008125Y011673D02*
X008204Y011673D01*
X008204Y011750D02*
X008125Y011750D01*
X008125Y011828D02*
X008204Y011828D01*
X008204Y011905D02*
X008125Y011905D01*
X008125Y011982D02*
X008204Y011982D01*
X008204Y012059D02*
X008125Y012059D01*
X008125Y012137D02*
X008204Y012137D01*
X008204Y012214D02*
X008125Y012214D01*
X008125Y012314D02*
X008125Y012934D01*
X008048Y012919D01*
X007975Y012889D01*
X007963Y012881D01*
X007963Y013718D01*
X008472Y014226D01*
X008722Y014226D01*
X008495Y013999D01*
X008378Y013882D01*
X008378Y012872D01*
X008354Y012889D01*
X008281Y012919D01*
X008204Y012934D01*
X008204Y012314D01*
X008125Y012314D01*
X008125Y012368D02*
X008204Y012368D01*
X008204Y012446D02*
X008125Y012446D01*
X008125Y012523D02*
X008204Y012523D01*
X008204Y012600D02*
X008125Y012600D01*
X008125Y012677D02*
X008204Y012677D01*
X008204Y012755D02*
X008125Y012755D01*
X008125Y012832D02*
X008204Y012832D01*
X008204Y012909D02*
X008125Y012909D01*
X008024Y012909D02*
X007963Y012909D01*
X007963Y012986D02*
X008378Y012986D01*
X008378Y012909D02*
X008305Y012909D01*
X008378Y013064D02*
X007963Y013064D01*
X007963Y013141D02*
X008378Y013141D01*
X008378Y013218D02*
X007963Y013218D01*
X007963Y013295D02*
X008378Y013295D01*
X008378Y013373D02*
X007963Y013373D01*
X007963Y013450D02*
X008378Y013450D01*
X008378Y013527D02*
X007963Y013527D01*
X007963Y013604D02*
X008378Y013604D01*
X008378Y013681D02*
X007963Y013681D01*
X008004Y013759D02*
X008378Y013759D01*
X008378Y013836D02*
X008081Y013836D01*
X008159Y013913D02*
X008409Y013913D01*
X008486Y013990D02*
X008236Y013990D01*
X008313Y014068D02*
X008563Y014068D01*
X008641Y014145D02*
X008390Y014145D01*
X008468Y014222D02*
X008718Y014222D01*
X009014Y014238D02*
X016577Y014238D01*
X017690Y013124D01*
X017753Y008692D01*
X018068Y008692D02*
X018068Y012996D01*
X017514Y013050D02*
X016514Y014050D01*
X009702Y014050D01*
X008292Y014608D02*
X000318Y014608D01*
X000318Y014531D02*
X008214Y014531D01*
X008137Y014454D02*
X000318Y014454D01*
X000318Y014377D02*
X008060Y014377D01*
X007983Y014299D02*
X000318Y014299D01*
X000318Y014222D02*
X007905Y014222D01*
X007828Y014145D02*
X000318Y014145D01*
X000318Y014068D02*
X007751Y014068D01*
X007674Y013990D02*
X000318Y013990D01*
X000318Y013913D02*
X007597Y013913D01*
X007566Y013836D02*
X000318Y013836D01*
X000318Y013759D02*
X007566Y013759D01*
X007566Y013681D02*
X000318Y013681D01*
X000318Y013604D02*
X007566Y013604D01*
X007566Y013527D02*
X000318Y013527D01*
X000318Y013450D02*
X007566Y013450D01*
X007566Y013373D02*
X000318Y013373D01*
X000318Y013295D02*
X007566Y013295D01*
X007566Y013218D02*
X000318Y013218D01*
X000318Y013141D02*
X007566Y013141D01*
X007566Y013064D02*
X000318Y013064D01*
X000318Y012986D02*
X007566Y012986D01*
X007566Y012909D02*
X007455Y012909D01*
X007354Y012909D02*
X007275Y012909D01*
X007275Y012934D02*
X007198Y012919D01*
X007125Y012889D01*
X007060Y012845D01*
X007004Y012790D01*
X006960Y012724D01*
X006930Y012651D01*
X006915Y012574D01*
X006915Y012314D01*
X007275Y012314D01*
X007275Y012934D01*
X007275Y012832D02*
X007354Y012832D01*
X007354Y012755D02*
X007275Y012755D01*
X007275Y012677D02*
X007354Y012677D01*
X007354Y012600D02*
X007275Y012600D01*
X007275Y012523D02*
X007354Y012523D01*
X007354Y012446D02*
X007275Y012446D01*
X007275Y012368D02*
X007354Y012368D01*
X007275Y012291D02*
X006504Y012291D01*
X006504Y012314D02*
X006504Y012236D01*
X006864Y012236D01*
X006864Y011976D01*
X006848Y011899D01*
X006818Y011826D01*
X006775Y011760D01*
X006719Y011705D01*
X006654Y011661D01*
X006581Y011631D01*
X006504Y011616D01*
X006504Y012236D01*
X006425Y012236D01*
X006065Y012236D01*
X006065Y011976D01*
X006080Y011899D01*
X006110Y011826D01*
X006154Y011760D01*
X006210Y011705D01*
X006275Y011661D01*
X006348Y011631D01*
X006425Y011616D01*
X006425Y012236D01*
X006425Y012314D01*
X006065Y012314D01*
X006065Y012574D01*
X006080Y012651D01*
X006110Y012724D01*
X006154Y012790D01*
X006210Y012845D01*
X006275Y012889D01*
X006348Y012919D01*
X006425Y012934D01*
X006425Y012314D01*
X006504Y012314D01*
X006864Y012314D01*
X006864Y012574D01*
X006848Y012651D01*
X006818Y012724D01*
X006775Y012790D01*
X006719Y012845D01*
X006654Y012889D01*
X006581Y012919D01*
X006504Y012934D01*
X006504Y012314D01*
X006504Y012368D02*
X006425Y012368D01*
X006425Y012291D02*
X002887Y012291D01*
X002950Y012214D02*
X006065Y012214D01*
X006065Y012137D02*
X003005Y012137D01*
X003052Y012059D02*
X006065Y012059D01*
X006065Y011982D02*
X003094Y011982D01*
X003126Y011905D02*
X006079Y011905D01*
X006110Y011828D02*
X003155Y011828D01*
X003178Y011750D02*
X006164Y011750D01*
X006257Y011673D02*
X003195Y011673D01*
X003208Y011596D02*
X007379Y011596D01*
X007150Y011519D02*
X003216Y011519D01*
X003219Y011364D02*
X007130Y011364D01*
X007130Y011287D02*
X003211Y011287D01*
X003201Y011210D02*
X006326Y011210D01*
X006425Y011210D02*
X006504Y011210D01*
X006504Y011133D02*
X006425Y011133D01*
X006425Y011055D02*
X006504Y011055D01*
X006504Y010978D02*
X006425Y010978D01*
X006425Y010901D02*
X006504Y010901D01*
X006504Y010824D02*
X006425Y010824D01*
X006425Y010746D02*
X006504Y010746D01*
X006504Y010515D02*
X006425Y010515D01*
X006425Y010437D02*
X006504Y010437D01*
X006504Y010360D02*
X006425Y010360D01*
X006425Y010283D02*
X006504Y010283D01*
X006504Y010206D02*
X006425Y010206D01*
X006425Y010128D02*
X006504Y010128D01*
X006504Y010051D02*
X006425Y010051D01*
X006425Y009974D02*
X006504Y009974D01*
X006673Y009974D02*
X007062Y009974D01*
X006985Y010051D02*
X006765Y010051D01*
X006819Y010128D02*
X006938Y010128D01*
X006906Y010206D02*
X006850Y010206D01*
X006864Y010283D02*
X006895Y010283D01*
X006895Y010360D02*
X006864Y010360D01*
X006864Y010437D02*
X006895Y010437D01*
X006895Y010515D02*
X006864Y010515D01*
X006864Y010669D02*
X006895Y010669D01*
X006895Y010746D02*
X006864Y010746D01*
X006864Y010824D02*
X006895Y010824D01*
X006895Y010901D02*
X006858Y010901D01*
X006837Y010978D02*
X006920Y010978D01*
X006952Y011055D02*
X006797Y011055D01*
X006732Y011133D02*
X007019Y011133D01*
X007123Y011210D02*
X006603Y011210D01*
X006197Y011133D02*
X003186Y011133D01*
X003165Y011055D02*
X006131Y011055D01*
X006091Y010978D02*
X003140Y010978D01*
X003108Y010901D02*
X006070Y010901D01*
X006065Y010824D02*
X003070Y010824D01*
X003027Y010746D02*
X006065Y010746D01*
X006065Y010669D02*
X002975Y010669D01*
X001969Y010669D02*
X001890Y010669D01*
X001890Y010592D02*
X001969Y010592D01*
X001969Y010515D02*
X001890Y010515D01*
X001890Y010437D02*
X001969Y010437D01*
X001969Y010360D02*
X001890Y010360D01*
X001890Y010283D02*
X001969Y010283D01*
X001969Y010206D02*
X001890Y010206D01*
X001507Y010206D02*
X000318Y010206D01*
X000318Y010283D02*
X001331Y010283D01*
X001202Y010360D02*
X000318Y010360D01*
X000318Y010437D02*
X001100Y010437D01*
X001016Y010515D02*
X000318Y010515D01*
X000318Y010592D02*
X000945Y010592D01*
X000884Y010669D02*
X000318Y010669D01*
X000318Y010746D02*
X000832Y010746D01*
X000789Y010824D02*
X000318Y010824D01*
X000318Y010901D02*
X000751Y010901D01*
X000719Y010978D02*
X000318Y010978D01*
X000318Y011055D02*
X000694Y011055D01*
X000673Y011133D02*
X000318Y011133D01*
X000318Y011210D02*
X000658Y011210D01*
X000647Y011287D02*
X000318Y011287D01*
X000318Y011364D02*
X000640Y011364D01*
X000640Y011464D02*
X001890Y011464D01*
X001890Y012714D01*
X001866Y012714D01*
X001740Y012702D01*
X001616Y012677D01*
X001494Y012640D01*
X001377Y012592D01*
X001266Y012532D01*
X001160Y012462D01*
X001062Y012382D01*
X000973Y012292D01*
X000892Y012194D01*
X000822Y012089D01*
X000762Y011977D01*
X000714Y011860D01*
X000677Y011739D01*
X000652Y011614D01*
X000640Y011488D01*
X000640Y011464D01*
X000643Y011519D02*
X000318Y011519D01*
X000318Y011596D02*
X000651Y011596D01*
X000664Y011673D02*
X000318Y011673D01*
X000318Y011750D02*
X000681Y011750D01*
X000704Y011828D02*
X000318Y011828D01*
X000318Y011905D02*
X000733Y011905D01*
X000765Y011982D02*
X000318Y011982D01*
X000318Y012059D02*
X000806Y012059D01*
X000854Y012137D02*
X000318Y012137D01*
X000318Y012214D02*
X000909Y012214D01*
X000972Y012291D02*
X000318Y012291D01*
X000318Y012368D02*
X001049Y012368D01*
X001141Y012446D02*
X000318Y012446D01*
X000318Y012523D02*
X001252Y012523D01*
X001397Y012600D02*
X000318Y012600D01*
X000318Y012677D02*
X001616Y012677D01*
X001890Y012677D02*
X001969Y012677D01*
X001969Y012600D02*
X001890Y012600D01*
X001890Y012523D02*
X001969Y012523D01*
X001969Y012446D02*
X001890Y012446D01*
X001890Y012368D02*
X001969Y012368D01*
X001969Y012291D02*
X001890Y012291D01*
X001890Y012214D02*
X001969Y012214D01*
X001969Y012137D02*
X001890Y012137D01*
X001890Y012059D02*
X001969Y012059D01*
X001969Y011982D02*
X001890Y011982D01*
X001890Y011905D02*
X001969Y011905D01*
X001969Y011828D02*
X001890Y011828D01*
X001890Y011750D02*
X001969Y011750D01*
X001969Y011673D02*
X001890Y011673D01*
X001890Y011596D02*
X001969Y011596D01*
X001969Y011519D02*
X001890Y011519D01*
X001890Y011442D02*
X000318Y011442D01*
X000318Y012755D02*
X006131Y012755D01*
X006091Y012677D02*
X002242Y012677D01*
X002462Y012600D02*
X006070Y012600D01*
X006065Y012523D02*
X002607Y012523D01*
X002718Y012446D02*
X006065Y012446D01*
X006065Y012368D02*
X002809Y012368D01*
X001969Y011442D02*
X007150Y011442D01*
X007107Y011673D02*
X006672Y011673D01*
X006765Y011750D02*
X007014Y011750D01*
X006960Y011828D02*
X006819Y011828D01*
X006850Y011905D02*
X006929Y011905D01*
X006915Y011982D02*
X006864Y011982D01*
X006864Y012059D02*
X006915Y012059D01*
X006915Y012137D02*
X006864Y012137D01*
X006864Y012214D02*
X006915Y012214D01*
X006915Y012368D02*
X006864Y012368D01*
X006864Y012446D02*
X006915Y012446D01*
X006915Y012523D02*
X006864Y012523D01*
X006859Y012600D02*
X006920Y012600D01*
X006941Y012677D02*
X006838Y012677D01*
X006798Y012755D02*
X006981Y012755D01*
X007046Y012832D02*
X006732Y012832D01*
X006605Y012909D02*
X007174Y012909D01*
X006504Y012909D02*
X006425Y012909D01*
X006425Y012832D02*
X006504Y012832D01*
X006504Y012755D02*
X006425Y012755D01*
X006425Y012677D02*
X006504Y012677D01*
X006504Y012600D02*
X006425Y012600D01*
X006425Y012523D02*
X006504Y012523D01*
X006504Y012446D02*
X006425Y012446D01*
X006425Y012214D02*
X006504Y012214D01*
X006504Y012137D02*
X006425Y012137D01*
X006425Y012059D02*
X006504Y012059D01*
X006504Y011982D02*
X006425Y011982D01*
X006425Y011905D02*
X006504Y011905D01*
X006504Y011828D02*
X006425Y011828D01*
X006425Y011750D02*
X006504Y011750D01*
X006504Y011673D02*
X006425Y011673D01*
X006196Y012832D02*
X000318Y012832D01*
X000318Y012909D02*
X006324Y012909D01*
X007734Y010515D02*
X007745Y010515D01*
X007734Y010437D02*
X007745Y010437D01*
X007734Y010360D02*
X007745Y010360D01*
X007734Y010283D02*
X007745Y010283D01*
X007756Y010206D02*
X007723Y010206D01*
X007691Y010128D02*
X007788Y010128D01*
X007835Y010051D02*
X007644Y010051D01*
X007566Y009974D02*
X007912Y009974D01*
X008416Y009974D02*
X008762Y009974D01*
X008685Y010051D02*
X008494Y010051D01*
X008541Y010128D02*
X008638Y010128D01*
X008606Y010206D02*
X008573Y010206D01*
X008584Y010283D02*
X008595Y010283D01*
X008584Y010360D02*
X008595Y010360D01*
X008584Y010437D02*
X008595Y010437D01*
X008584Y010515D02*
X008595Y010515D01*
X009266Y009974D02*
X009612Y009974D01*
X009535Y010051D02*
X009344Y010051D01*
X009391Y010128D02*
X009488Y010128D01*
X009456Y010206D02*
X009423Y010206D01*
X009434Y010283D02*
X009445Y010283D01*
X009434Y010360D02*
X009445Y010360D01*
X009434Y010437D02*
X009445Y010437D01*
X009434Y010515D02*
X009445Y010515D01*
X009434Y010592D02*
X009445Y010592D01*
X009434Y010669D02*
X009445Y010669D01*
X009434Y010746D02*
X009445Y010746D01*
X009434Y010824D02*
X009445Y010824D01*
X009434Y010901D02*
X009445Y010901D01*
X009470Y010978D02*
X009409Y010978D01*
X009377Y011055D02*
X009502Y011055D01*
X009569Y011133D02*
X009310Y011133D01*
X009330Y011210D02*
X009643Y011210D01*
X009720Y011287D02*
X009407Y011287D01*
X009485Y011364D02*
X009798Y011364D01*
X009875Y011442D02*
X009562Y011442D01*
X009651Y011673D02*
X009657Y011673D01*
X009232Y011673D02*
X009222Y011673D01*
X010922Y011673D02*
X010941Y011673D01*
X012389Y010550D02*
X012414Y010575D01*
X012389Y010550D02*
X012389Y009800D01*
X015761Y006429D01*
X016434Y006429D01*
X015943Y006653D02*
X015818Y006653D01*
X015866Y006730D02*
X015741Y006730D01*
X015789Y006807D02*
X015663Y006807D01*
X015711Y006884D02*
X015586Y006884D01*
X015634Y006962D02*
X015509Y006962D01*
X015557Y007039D02*
X015432Y007039D01*
X015480Y007116D02*
X015354Y007116D01*
X015403Y007193D02*
X015277Y007193D01*
X015325Y007271D02*
X015200Y007271D01*
X015253Y007348D02*
X015123Y007348D01*
X015045Y007425D02*
X015253Y007425D01*
X015253Y007502D02*
X014968Y007502D01*
X014891Y007579D02*
X015253Y007579D01*
X015253Y007657D02*
X014814Y007657D01*
X014736Y007734D02*
X015253Y007734D01*
X015253Y007811D02*
X014659Y007811D01*
X014582Y007888D02*
X015253Y007888D01*
X015253Y007966D02*
X014505Y007966D01*
X014889Y005488D02*
X014968Y005500D01*
X015047Y005514D01*
X015124Y005531D01*
X015202Y005551D01*
X015893Y005484D02*
X016434Y005484D01*
X016414Y004834D02*
X016454Y004834D01*
X016454Y004641D01*
X016442Y004644D01*
X016454Y004644D01*
X016442Y004644D02*
X016414Y004644D01*
X016414Y004834D01*
X016414Y004799D02*
X016454Y004799D01*
X016454Y004722D02*
X016414Y004722D01*
X016549Y004567D02*
X016825Y004567D01*
X016846Y004490D02*
X016563Y004490D01*
X016563Y004335D02*
X016846Y004335D01*
X016846Y004258D02*
X016555Y004258D01*
X016487Y004181D02*
X016846Y004181D01*
X016846Y004104D02*
X016299Y004104D01*
X016313Y004181D02*
X016334Y004181D01*
X016334Y004258D02*
X016313Y004258D01*
X016313Y004335D02*
X016334Y004335D01*
X016334Y004413D02*
X016846Y004413D01*
X017123Y004165D02*
X017123Y004691D01*
X017014Y004800D01*
X017327Y004925D02*
X017389Y004863D01*
X017389Y004425D01*
X017438Y004376D01*
X017438Y004165D01*
X017753Y004165D02*
X017753Y004561D01*
X017639Y004675D01*
X017747Y004953D02*
X017906Y004953D01*
X017955Y004973D02*
X017845Y004928D01*
X017827Y004910D01*
X017808Y004928D01*
X017699Y004973D01*
X017625Y004973D01*
X017625Y004984D01*
X017580Y005094D01*
X017496Y005178D01*
X017386Y005223D01*
X017268Y005223D01*
X017161Y005179D01*
X017191Y005252D01*
X017191Y006201D01*
X017220Y006172D01*
X017330Y006127D01*
X017449Y006127D01*
X017558Y006172D01*
X017642Y006256D01*
X017678Y006342D01*
X017841Y006419D01*
X018592Y006678D01*
X019374Y006823D01*
X019771Y006851D01*
X020364Y006860D01*
X020522Y006860D01*
X020527Y006854D01*
X020527Y006763D01*
X020942Y006763D01*
X020942Y006724D01*
X020527Y006724D01*
X020527Y006633D01*
X020507Y006613D01*
X020507Y006353D01*
X019960Y006353D01*
X019864Y006449D01*
X019718Y006509D01*
X019560Y006509D01*
X019415Y006449D01*
X019303Y006337D01*
X019243Y006191D01*
X019243Y006034D01*
X019303Y005888D01*
X019400Y005791D01*
X019400Y004600D01*
X019347Y004600D01*
X019347Y004185D01*
X019308Y004185D01*
X019308Y004600D01*
X019217Y004600D01*
X019197Y004620D01*
X018688Y004620D01*
X018688Y004734D01*
X018642Y004844D01*
X018558Y004928D01*
X018449Y004973D01*
X018330Y004973D01*
X018220Y004928D01*
X018202Y004910D01*
X018183Y004928D01*
X018074Y004973D01*
X017955Y004973D01*
X018122Y004953D02*
X018281Y004953D01*
X018497Y004953D02*
X019400Y004953D01*
X019400Y004876D02*
X018610Y004876D01*
X018661Y004799D02*
X019400Y004799D01*
X019400Y004722D02*
X018688Y004722D01*
X018688Y004644D02*
X019400Y004644D01*
X019347Y004567D02*
X019308Y004567D01*
X019308Y004490D02*
X019347Y004490D01*
X019347Y004413D02*
X019308Y004413D01*
X019308Y004335D02*
X019347Y004335D01*
X019347Y004258D02*
X019308Y004258D01*
X019328Y004165D02*
X019328Y003737D01*
X019327Y003613D01*
X019327Y003738D01*
X019308Y003730D02*
X019217Y003730D01*
X019212Y003725D01*
X019212Y003384D01*
X019261Y003334D01*
X019418Y003334D01*
X019418Y003574D01*
X019438Y003594D01*
X019438Y003730D01*
X019347Y003730D01*
X019347Y004145D01*
X019308Y004145D01*
X019308Y003730D01*
X019308Y003795D02*
X019347Y003795D01*
X019347Y003872D02*
X019308Y003872D01*
X019308Y003949D02*
X019347Y003949D01*
X019347Y004026D02*
X019308Y004026D01*
X019308Y004104D02*
X019347Y004104D01*
X019013Y004165D02*
X019013Y003302D01*
X019202Y003113D01*
X019639Y003113D01*
X019702Y003050D01*
X019702Y001863D01*
X019639Y001800D01*
X019494Y001800D01*
X019494Y002083D01*
X019328Y002249D01*
X019494Y001800D02*
X019460Y001766D01*
X019109Y001756D02*
X018881Y001756D01*
X018881Y001709D01*
X018049Y001709D01*
X018049Y001880D01*
X018135Y001880D01*
X018135Y002109D01*
X018157Y002109D01*
X018157Y001880D01*
X018264Y001880D01*
X018300Y001890D01*
X018325Y001904D01*
X018356Y001873D01*
X018881Y001873D01*
X018881Y001777D01*
X019109Y001777D01*
X019109Y001756D01*
X018881Y001786D02*
X018049Y001786D01*
X018049Y001864D02*
X018881Y001864D01*
X018157Y001941D02*
X018135Y001941D01*
X018135Y002018D02*
X018157Y002018D01*
X018157Y002095D02*
X018135Y002095D01*
X017730Y002173D02*
X017484Y002173D01*
X017484Y002250D02*
X017730Y002250D01*
X017730Y002327D02*
X017484Y002327D01*
X017479Y002404D02*
X017730Y002404D01*
X017730Y002482D02*
X017424Y002482D01*
X017445Y002713D02*
X017730Y002713D01*
X017780Y002791D02*
X017504Y002791D01*
X017504Y002868D02*
X017857Y002868D01*
X017934Y002945D02*
X017504Y002945D01*
X017504Y003022D02*
X018011Y003022D01*
X018089Y003100D02*
X017504Y003100D01*
X017504Y003177D02*
X018166Y003177D01*
X018243Y003254D02*
X017504Y003254D01*
X017504Y003331D02*
X018320Y003331D01*
X018480Y003408D02*
X017504Y003408D01*
X017504Y003486D02*
X018480Y003486D01*
X018480Y003563D02*
X017476Y003563D01*
X016932Y003717D02*
X016685Y003717D01*
X016763Y003640D02*
X018480Y003640D01*
X018383Y004165D02*
X018383Y004669D01*
X018389Y004675D01*
X018068Y004621D02*
X018014Y004675D01*
X018068Y004621D02*
X018068Y004165D01*
X018698Y004165D02*
X018698Y002839D01*
X018659Y002800D01*
X018487Y002800D01*
X018146Y002460D01*
X017736Y001477D02*
X014288Y001477D01*
X014301Y001400D02*
X017814Y001400D01*
X016853Y001632D02*
X016774Y001632D01*
X016774Y001709D02*
X016853Y001709D01*
X016853Y001786D02*
X016774Y001786D01*
X016774Y001864D02*
X016853Y001864D01*
X016853Y002095D02*
X016774Y002095D01*
X016774Y002173D02*
X016853Y002173D01*
X016853Y002250D02*
X016774Y002250D01*
X016774Y002327D02*
X016853Y002327D01*
X016853Y002404D02*
X016774Y002404D01*
X016774Y002482D02*
X016853Y002482D01*
X016855Y003795D02*
X016608Y003795D01*
X016531Y003872D02*
X016846Y003872D01*
X016846Y003949D02*
X016454Y003949D01*
X016376Y004026D02*
X016846Y004026D01*
X017163Y005185D02*
X017175Y005185D01*
X017191Y005262D02*
X019400Y005262D01*
X019400Y005185D02*
X017479Y005185D01*
X017566Y005108D02*
X019400Y005108D01*
X019400Y005031D02*
X017606Y005031D01*
X017191Y005340D02*
X019400Y005340D01*
X019400Y005417D02*
X017191Y005417D01*
X017191Y005494D02*
X019400Y005494D01*
X019400Y005571D02*
X017191Y005571D01*
X017191Y005648D02*
X019400Y005648D01*
X019400Y005726D02*
X017191Y005726D01*
X017191Y005803D02*
X019388Y005803D01*
X019310Y005880D02*
X017191Y005880D01*
X017191Y005957D02*
X019274Y005957D01*
X019243Y006035D02*
X017191Y006035D01*
X017191Y006112D02*
X019243Y006112D01*
X019243Y006189D02*
X017576Y006189D01*
X017647Y006266D02*
X019274Y006266D01*
X019309Y006344D02*
X017681Y006344D01*
X017845Y006421D02*
X019387Y006421D01*
X019533Y006498D02*
X018069Y006498D01*
X018293Y006575D02*
X020507Y006575D01*
X020507Y006498D02*
X019745Y006498D01*
X019892Y006421D02*
X020507Y006421D01*
X020527Y006653D02*
X018517Y006653D01*
X018870Y006730D02*
X020942Y006730D01*
X020527Y006807D02*
X019288Y006807D01*
X019318Y007914D02*
X017362Y007914D01*
X017362Y008258D01*
X017418Y008258D01*
X017418Y008673D01*
X017458Y008673D01*
X017458Y008258D01*
X017549Y008258D01*
X017569Y008238D01*
X018091Y008238D01*
X018091Y008178D01*
X018136Y008068D01*
X018220Y007985D01*
X018330Y007939D01*
X018449Y007939D01*
X018558Y007985D01*
X018642Y008068D01*
X018688Y008178D01*
X018688Y008238D01*
X019827Y008238D01*
X019847Y008258D01*
X019938Y008258D01*
X019938Y008673D01*
X019977Y008673D01*
X019977Y008258D01*
X020025Y008258D01*
X020025Y007928D01*
X019948Y007928D01*
X019864Y008011D01*
X019718Y008072D01*
X019560Y008072D01*
X019415Y008011D01*
X019318Y007914D01*
X019369Y007966D02*
X018513Y007966D01*
X018617Y008043D02*
X019491Y008043D01*
X019788Y008043D02*
X020025Y008043D01*
X020025Y008120D02*
X018664Y008120D01*
X018688Y008197D02*
X020025Y008197D01*
X019977Y008275D02*
X019938Y008275D01*
X019938Y008352D02*
X019977Y008352D01*
X019977Y008429D02*
X019938Y008429D01*
X019938Y008506D02*
X019977Y008506D01*
X019977Y008584D02*
X019938Y008584D01*
X019938Y008661D02*
X019977Y008661D01*
X019977Y008712D02*
X019938Y008712D01*
X019938Y009067D01*
X019965Y009067D01*
X019965Y009296D01*
X019987Y009296D01*
X019987Y009127D01*
X019977Y009127D01*
X019977Y008712D01*
X019977Y008738D02*
X019938Y008738D01*
X019938Y008815D02*
X019977Y008815D01*
X019977Y008893D02*
X019938Y008893D01*
X019938Y008970D02*
X019977Y008970D01*
X019977Y009047D02*
X019938Y009047D01*
X019965Y009124D02*
X019977Y009124D01*
X019965Y009202D02*
X019987Y009202D01*
X019987Y009279D02*
X019965Y009279D01*
X019965Y009317D02*
X019737Y009317D01*
X019737Y009425D01*
X019746Y009460D01*
X019764Y009492D01*
X019790Y009518D01*
X019822Y009536D01*
X019858Y009546D01*
X019965Y009546D01*
X019965Y009317D01*
X019965Y009356D02*
X019987Y009356D01*
X019987Y009433D02*
X019965Y009433D01*
X019965Y009510D02*
X019987Y009510D01*
X019783Y009510D02*
X018267Y009510D01*
X018267Y009433D02*
X019739Y009433D01*
X019737Y009356D02*
X018267Y009356D01*
X018267Y009279D02*
X019737Y009279D01*
X019737Y009202D02*
X018267Y009202D01*
X018383Y008692D02*
X018389Y008686D01*
X018389Y008238D01*
X018266Y007966D02*
X017362Y007966D01*
X017362Y008043D02*
X018162Y008043D01*
X018115Y008120D02*
X017362Y008120D01*
X017362Y008197D02*
X018091Y008197D01*
X017458Y008275D02*
X017418Y008275D01*
X017418Y008352D02*
X017458Y008352D01*
X017458Y008429D02*
X017418Y008429D01*
X017418Y008506D02*
X017458Y008506D01*
X017458Y008584D02*
X017418Y008584D01*
X017418Y008661D02*
X017458Y008661D01*
X017458Y008712D02*
X017418Y008712D01*
X017418Y009127D01*
X017327Y009127D01*
X017307Y009147D01*
X017268Y009147D01*
X017544Y009423D01*
X017548Y009127D01*
X017458Y009127D01*
X017458Y008712D01*
X017458Y008738D02*
X017418Y008738D01*
X017418Y008815D02*
X017458Y008815D01*
X017458Y008893D02*
X017418Y008893D01*
X017418Y008970D02*
X017458Y008970D01*
X017458Y009047D02*
X017418Y009047D01*
X017418Y009124D02*
X017458Y009124D01*
X017547Y009202D02*
X017322Y009202D01*
X017399Y009279D02*
X017546Y009279D01*
X017545Y009356D02*
X017476Y009356D01*
X017514Y009675D02*
X017514Y013050D01*
X016095Y013064D02*
X012746Y013064D01*
X014514Y011363D02*
X014514Y009238D01*
X013810Y008661D02*
X015253Y008661D01*
X015253Y008584D02*
X013887Y008584D01*
X013964Y008506D02*
X015253Y008506D01*
X015253Y008429D02*
X014041Y008429D01*
X014119Y008352D02*
X015253Y008352D01*
X015253Y008275D02*
X014196Y008275D01*
X014273Y008197D02*
X015253Y008197D01*
X015253Y008120D02*
X014350Y008120D01*
X014428Y008043D02*
X015253Y008043D01*
X015296Y008738D02*
X013732Y008738D01*
X013655Y008815D02*
X015374Y008815D01*
X016434Y008595D02*
X016434Y008003D01*
X016434Y008595D02*
X017514Y009675D01*
X016566Y010051D02*
X016144Y010051D01*
X016191Y010128D02*
X016566Y010128D01*
X016566Y010206D02*
X016223Y010206D01*
X016234Y010283D02*
X016566Y010283D01*
X016566Y010360D02*
X016234Y010360D01*
X016234Y010437D02*
X016566Y010437D01*
X016566Y010515D02*
X016234Y010515D01*
X016234Y010592D02*
X016566Y010592D01*
X016566Y010669D02*
X016234Y010669D01*
X016234Y010746D02*
X016566Y010746D01*
X016566Y010824D02*
X016234Y010824D01*
X016234Y010901D02*
X016566Y010901D01*
X016566Y010978D02*
X016209Y010978D01*
X016177Y011055D02*
X016566Y011055D01*
X016566Y011133D02*
X016110Y011133D01*
X016005Y011210D02*
X016566Y011210D01*
X016566Y011287D02*
X014720Y011287D01*
X014713Y011210D02*
X014773Y011210D01*
X014797Y011364D02*
X016566Y011364D01*
X016566Y011442D02*
X014874Y011442D01*
X015155Y011210D02*
X015623Y011210D01*
X015519Y011133D02*
X015260Y011133D01*
X015327Y011055D02*
X015452Y011055D01*
X015420Y010978D02*
X015359Y010978D01*
X015384Y010901D02*
X015395Y010901D01*
X015384Y010824D02*
X015395Y010824D01*
X015384Y010746D02*
X015395Y010746D01*
X015384Y010669D02*
X015395Y010669D01*
X015384Y010592D02*
X015395Y010592D01*
X015384Y010515D02*
X015395Y010515D01*
X015384Y010437D02*
X015395Y010437D01*
X015384Y010360D02*
X015395Y010360D01*
X015384Y010283D02*
X015395Y010283D01*
X015406Y010206D02*
X015373Y010206D01*
X015341Y010128D02*
X015438Y010128D01*
X015485Y010051D02*
X015294Y010051D01*
X015216Y009974D02*
X015562Y009974D01*
X016066Y009974D02*
X016532Y009974D01*
X015395Y012368D02*
X015384Y012368D01*
X015384Y012446D02*
X015395Y012446D01*
X015384Y012523D02*
X015395Y012523D01*
X015384Y012600D02*
X015395Y012600D01*
X015419Y012677D02*
X015359Y012677D01*
X015327Y012755D02*
X015451Y012755D01*
X015518Y012832D02*
X015261Y012832D01*
X015157Y012909D02*
X015622Y012909D01*
X012207Y009202D02*
X000339Y009202D01*
X000371Y009124D02*
X012284Y009124D01*
X012361Y009047D02*
X000447Y009047D01*
X001890Y010746D02*
X001969Y010746D01*
X001969Y010824D02*
X001890Y010824D01*
X001890Y010901D02*
X001969Y010901D01*
X001969Y010978D02*
X001890Y010978D01*
X001890Y011055D02*
X001969Y011055D01*
X001969Y011133D02*
X001890Y011133D01*
X001890Y011210D02*
X001969Y011210D01*
X001969Y011287D02*
X001890Y011287D01*
X001890Y011364D02*
X001969Y011364D01*
X011835Y008970D02*
X012439Y008970D01*
X012516Y008893D02*
X012072Y008893D01*
X012207Y008815D02*
X012593Y008815D01*
X012670Y008738D02*
X012314Y008738D01*
X012394Y008680D02*
X012394Y008680D01*
X012394Y008680D01*
X012408Y008661D02*
X012747Y008661D01*
X012825Y008584D02*
X012464Y008584D01*
X012520Y008506D02*
X012902Y008506D01*
X012973Y008429D02*
X012576Y008429D01*
X012590Y008409D02*
X012590Y008409D01*
X012609Y008352D02*
X012894Y008352D01*
X012858Y008275D02*
X012634Y008275D01*
X012659Y008197D02*
X012841Y008197D01*
X014265Y005425D02*
X014280Y005437D01*
X014297Y005446D01*
X014315Y005453D01*
X014334Y005456D01*
X014353Y005457D01*
X014372Y005455D01*
X014392Y005102D02*
X014363Y005105D01*
X014335Y005104D01*
X014307Y005100D01*
X014279Y005092D01*
X014253Y005080D01*
X014229Y005066D01*
X014206Y005048D01*
X014187Y005027D01*
X014170Y005004D01*
X014156Y004979D01*
X014145Y004953D01*
X014139Y004925D01*
X014015Y004425D02*
X014018Y004395D01*
X014024Y004365D01*
X014033Y004337D01*
X014045Y004310D01*
X014061Y004284D01*
X014080Y004261D01*
X014101Y004240D01*
X014124Y004221D01*
X014150Y004205D01*
X014177Y004193D01*
X014205Y004184D01*
X014235Y004178D01*
X014265Y004175D01*
X014264Y004175D02*
X014581Y004167D01*
X014577Y003675D02*
X014524Y003676D01*
X014471Y003680D01*
X014419Y003689D01*
X014368Y003701D01*
X014317Y003717D01*
X014268Y003737D01*
X014220Y003760D01*
X014175Y003787D01*
X014131Y003817D01*
X014090Y003850D01*
X014051Y003886D01*
X014015Y003925D01*
X014577Y003675D02*
X014630Y003678D01*
X014682Y003685D01*
X014734Y003694D01*
X014785Y003708D01*
X014835Y003724D01*
X014883Y003744D01*
X014931Y003767D01*
X014976Y003793D01*
X015020Y003822D01*
X015062Y003854D01*
X015102Y003888D01*
X015140Y003925D01*
X015139Y003925D02*
X015369Y004167D01*
X014014Y004425D02*
X014015Y004483D01*
X014018Y004541D01*
X014026Y004598D01*
X014036Y004655D01*
X014050Y004712D01*
X014068Y004767D01*
X014088Y004821D01*
X014112Y004874D01*
X014139Y004925D01*
X014264Y005425D02*
X014212Y005392D01*
X014162Y005356D01*
X014114Y005317D01*
X014069Y005275D01*
X014026Y005230D01*
X013986Y005182D01*
X013950Y005132D01*
X013916Y005080D01*
X013886Y005026D01*
X013859Y004970D01*
X013836Y004913D01*
X013816Y004854D01*
X013801Y004794D01*
X013788Y004734D01*
X013780Y004672D01*
X013776Y004611D01*
X013775Y004549D01*
X013779Y004487D01*
X013786Y004425D01*
X013797Y004365D01*
X013812Y004304D01*
X013830Y004245D01*
X013852Y004188D01*
X013878Y004131D01*
X013907Y004077D01*
X013940Y004024D01*
X013976Y003974D01*
X014014Y003925D01*
X013166Y002018D02*
X012693Y002018D01*
X012693Y001941D02*
X013042Y001941D01*
X012953Y001864D02*
X012693Y001864D01*
X012693Y001786D02*
X012885Y001786D01*
X012833Y001709D02*
X012693Y001709D01*
X012693Y001632D02*
X012792Y001632D01*
X012761Y001555D02*
X012693Y001555D01*
X012693Y001477D02*
X012741Y001477D01*
X012728Y001400D02*
X012693Y001400D01*
X017191Y006189D02*
X017203Y006189D01*
X019889Y005675D02*
X019889Y005300D01*
X019958Y005232D01*
X019958Y004165D01*
X020006Y003640D02*
X020028Y003640D01*
X020028Y003563D02*
X020006Y003563D01*
X020006Y003486D02*
X020028Y003486D01*
X020028Y003331D02*
X020006Y003331D01*
X020006Y003254D02*
X020028Y003254D01*
X020028Y003177D02*
X020006Y003177D01*
X020246Y003563D02*
X020281Y003563D01*
X020163Y003640D02*
X020816Y003640D01*
X020816Y003563D02*
X020748Y003563D01*
X020554Y003100D02*
X020475Y003100D01*
X020475Y003022D02*
X020554Y003022D01*
X020554Y002945D02*
X020475Y002945D01*
X020475Y002868D02*
X020554Y002868D01*
X020554Y002791D02*
X020475Y002791D01*
X020751Y002791D02*
X020816Y002791D01*
X020816Y002559D02*
X020780Y002559D01*
X021514Y002175D02*
X021639Y002175D01*
X022014Y002550D01*
X021514Y003175D02*
X021783Y003444D01*
X021783Y003771D01*
X021783Y004111D02*
X021781Y004113D01*
X021389Y004113D01*
X019889Y005675D02*
X019952Y005738D01*
X021656Y006962D02*
X021715Y006962D01*
X021715Y007039D02*
X021656Y007039D01*
X021656Y007116D02*
X021715Y007116D01*
X020507Y007966D02*
X020504Y007966D01*
X020504Y008043D02*
X020507Y008043D01*
X020504Y008120D02*
X020507Y008120D01*
X020504Y008197D02*
X020517Y008197D01*
X020504Y008275D02*
X020594Y008275D01*
X020025Y007966D02*
X019910Y007966D01*
X019438Y003717D02*
X019212Y003717D01*
X019212Y003640D02*
X019438Y003640D01*
X019418Y003563D02*
X019212Y003563D01*
X019212Y003486D02*
X019418Y003486D01*
X019418Y003408D02*
X019212Y003408D01*
X018889Y007301D02*
X018769Y007289D01*
X018649Y007273D01*
X018529Y007253D01*
X018410Y007230D01*
X018292Y007204D01*
X018175Y007173D01*
X018059Y007139D01*
X017944Y007102D01*
X017830Y007061D01*
X017718Y007017D01*
X017606Y006969D01*
X017497Y006918D01*
X017389Y006863D01*
X019924Y001555D02*
X020244Y001555D01*
X020167Y001477D02*
X019917Y001477D01*
X017389Y006425D02*
X017519Y006490D01*
X017651Y006553D01*
X017784Y006611D01*
X017919Y006667D01*
X018055Y006718D01*
X018193Y006766D01*
X018332Y006811D01*
X018472Y006851D01*
X018612Y006888D01*
X018754Y006922D01*
X018897Y006951D01*
X019040Y006977D01*
X019184Y006999D01*
X019329Y007018D01*
X019474Y007032D01*
X019619Y007043D01*
X019764Y007050D01*
X019840Y001400D02*
X020090Y001400D01*
X019764Y007050D02*
X020363Y007059D01*
X020961Y007059D01*
X020962Y007374D02*
X019926Y007325D01*
X018890Y007300D01*
D23*
X019014Y008050D03*
X018389Y008238D03*
X017452Y009238D03*
X016264Y011425D03*
X014514Y009238D03*
X013139Y008175D03*
X012014Y009550D03*
X014889Y008050D03*
X017389Y006863D03*
X017389Y006425D03*
X017264Y005800D03*
X017327Y004925D03*
X017639Y004675D03*
X018014Y004675D03*
X018389Y004675D03*
X019327Y003613D03*
X020389Y004738D03*
X020389Y005175D03*
X019952Y005738D03*
X019139Y005925D03*
X020389Y006738D03*
X021577Y007300D03*
X021889Y007300D03*
X019952Y008175D03*
X017014Y004800D03*
X016702Y004425D03*
X015452Y005175D03*
X015202Y005550D03*
X018639Y001800D03*
X020077Y001675D03*
X019827Y000738D03*
X021014Y000738D03*
X021389Y004113D03*
X016514Y000925D03*
D24*
X019639Y006113D03*
X019639Y007675D03*
X021264Y015050D03*
X015139Y015050D03*
X007389Y015050D03*
X000889Y015050D03*
D25*
X015369Y003183D02*
X015506Y003183D01*
X016139Y003175D01*
X016792Y003175D01*
X016814Y003153D01*
X016764Y003203D01*
X016764Y003300D01*
X015983Y004081D01*
X015983Y004405D01*
X015983Y005144D01*
X016008Y005169D01*
X016434Y005169D01*
X016821Y005169D01*
X016952Y005300D01*
X016952Y007488D01*
X017139Y007675D01*
X019639Y007675D01*
X019639Y007689D01*
X020264Y007689D01*
X020962Y007689D01*
X020264Y007689D02*
X020264Y008692D01*
X020273Y008692D01*
X020316Y008736D01*
X020316Y009306D01*
X019976Y009306D02*
X019952Y009282D01*
X019958Y009276D01*
X019958Y008692D01*
X020962Y006744D02*
X021552Y006744D01*
X021685Y006877D01*
X021533Y006429D02*
X021685Y006277D01*
X021533Y006429D02*
X020962Y006429D01*
X020962Y006114D02*
X019639Y006114D01*
X019639Y006113D01*
X019639Y004165D01*
X019643Y004165D01*
X019677Y004131D01*
X019677Y003408D01*
X017139Y007675D02*
X017123Y007691D01*
X017123Y008692D01*
D26*
X016434Y004854D02*
X016434Y004693D01*
X016702Y004425D01*
M02*
