%TF.GenerationSoftware,KiCad,Pcbnew,8.0.5*%
%TF.CreationDate,2024-11-06T11:00:09+13:00*%
%TF.ProjectId,usb_gpib_v3,7573625f-6770-4696-925f-76332e6b6963,C*%
%TF.SameCoordinates,Original*%
%TF.FileFunction,Soldermask,Bot*%
%TF.FilePolarity,Negative*%
%FSLAX46Y46*%
G04 Gerber Fmt 4.6, Leading zero omitted, Abs format (unit mm)*
G04 Created by KiCad (PCBNEW 8.0.5) date 2024-11-06 11:00:09*
%MOMM*%
%LPD*%
G01*
G04 APERTURE LIST*
%ADD10C,3.100000*%
%ADD11O,1.800000X1.300000*%
%ADD12C,0.650000*%
%ADD13O,1.000000X2.100000*%
%ADD14O,1.000000X1.600000*%
%ADD15O,2.000000X1.400000*%
%ADD16C,3.700000*%
%ADD17R,1.700000X1.700000*%
%ADD18O,1.700000X1.700000*%
%ADD19C,0.800000*%
G04 APERTURE END LIST*
D10*
%TO.C,H2*%
X115000000Y-75996800D03*
%TD*%
%TO.C,H1*%
X115000000Y-108000800D03*
%TD*%
D11*
%TO.C,LED2*%
X100076000Y-117084000D03*
X100076000Y-114554000D03*
%TD*%
D12*
%TO.C,J2*%
X108990000Y-69775000D03*
X103210000Y-69775000D03*
D13*
X110420000Y-70305000D03*
D14*
X110420000Y-66125000D03*
D13*
X101780000Y-70305000D03*
D14*
X101780000Y-66125000D03*
%TD*%
D11*
%TO.C,LED3*%
X100076000Y-109972000D03*
X100076000Y-107442000D03*
%TD*%
D15*
%TO.C,J1*%
X120855000Y-103880000D03*
X120855000Y-101720000D03*
X120855000Y-99560000D03*
X120855000Y-97400000D03*
X120855000Y-95240000D03*
X120855000Y-93080000D03*
X120855000Y-90920000D03*
X120855000Y-88760000D03*
X120855000Y-86600000D03*
X120855000Y-84440000D03*
X120855000Y-82280000D03*
X120855000Y-80120000D03*
X125145000Y-103880000D03*
X125145000Y-101720000D03*
X125145000Y-99560000D03*
X125145000Y-97400000D03*
X125145000Y-95240000D03*
X125145000Y-93080000D03*
X125145000Y-90920000D03*
X125145000Y-88760000D03*
X125145000Y-86600000D03*
X125145000Y-84440000D03*
X125145000Y-82280000D03*
X125145000Y-80120000D03*
D16*
X123000000Y-115400000D03*
X123000000Y-68600000D03*
%TD*%
D17*
%TO.C,J3*%
X106680000Y-109601000D03*
D18*
X109220000Y-109601000D03*
X106680000Y-112141000D03*
X109220000Y-112141000D03*
X106680000Y-114681000D03*
X109220000Y-114681000D03*
%TD*%
D19*
X101900000Y-75312500D03*
X106680000Y-74930000D03*
X122936000Y-88900000D03*
X129500000Y-95300000D03*
X131275000Y-67600000D03*
X130775000Y-117550000D03*
X100076000Y-70358000D03*
X104800000Y-67700000D03*
X99314000Y-95504000D03*
X106426000Y-100330000D03*
X107275000Y-67700000D03*
X109474000Y-82420000D03*
X114730000Y-86410000D03*
X129525000Y-116450000D03*
X106050000Y-67700000D03*
X103124000Y-83312000D03*
X113919000Y-97536000D03*
X106050000Y-68900000D03*
X122936000Y-84582000D03*
X106426000Y-88138000D03*
X122936000Y-90932000D03*
X106426000Y-90297000D03*
X130025000Y-66500000D03*
X112014000Y-96266000D03*
X100076000Y-72136000D03*
X110998000Y-72390000D03*
X104800000Y-68900000D03*
X129500000Y-86625000D03*
X98171000Y-109982000D03*
X119253000Y-85471000D03*
X126492000Y-76200000D03*
X113060000Y-102900000D03*
X107188000Y-96266000D03*
X101900000Y-76562500D03*
X114700000Y-102925000D03*
X123000000Y-104000000D03*
X122936000Y-93218000D03*
X119140000Y-110880000D03*
X122936000Y-86614000D03*
X104140000Y-96266000D03*
X122936000Y-80264000D03*
X116332000Y-102925000D03*
X106426000Y-91440000D03*
X104140000Y-90170000D03*
X106426000Y-89154000D03*
X117602000Y-86360000D03*
X98425000Y-117856000D03*
X98425000Y-115316000D03*
X99568000Y-82550000D03*
X111506000Y-106426000D03*
X122990000Y-104950000D03*
X131275000Y-66500000D03*
X117680000Y-110920000D03*
X113030000Y-101854000D03*
X111506000Y-88392000D03*
X117602000Y-97536000D03*
X129525000Y-117550000D03*
X129500000Y-90975000D03*
X102108000Y-86106000D03*
X130775000Y-116450000D03*
X109474000Y-80900000D03*
X98806000Y-93980000D03*
X119126000Y-76454000D03*
X130025000Y-67600000D03*
X122936000Y-82296000D03*
X107300000Y-68900000D03*
X129425000Y-82296000D03*
X104140000Y-91440000D03*
X129500000Y-99625000D03*
X104394000Y-104140000D03*
X105250000Y-92296000D03*
X105664000Y-96266000D03*
X117210076Y-95759862D03*
X115537500Y-84937500D03*
X105250000Y-85090000D03*
X117348000Y-100635647D03*
X116459355Y-99911147D03*
X115570000Y-99186647D03*
X110250000Y-79775000D03*
X111949500Y-81500000D03*
M02*
