%TF.GenerationSoftware,KiCad,Pcbnew,8.0.5*%
%TF.CreationDate,2024-11-06T11:00:09+13:00*%
%TF.ProjectId,usb_gpib_v3,7573625f-6770-4696-925f-76332e6b6963,C*%
%TF.SameCoordinates,Original*%
%TF.FileFunction,Legend,Top*%
%TF.FilePolarity,Positive*%
%FSLAX46Y46*%
G04 Gerber Fmt 4.6, Leading zero omitted, Abs format (unit mm)*
G04 Created by KiCad (PCBNEW 8.0.5) date 2024-11-06 11:00:09*
%MOMM*%
%LPD*%
G01*
G04 APERTURE LIST*
%ADD10C,0.250000*%
%ADD11C,0.150000*%
%ADD12C,0.120000*%
%ADD13C,0.152400*%
G04 APERTURE END LIST*
D10*
X111861472Y-113894096D02*
G75*
G02*
X111081472Y-114674072I-779972J-4D01*
G01*
X111101472Y-112198704D02*
G75*
G02*
X111861752Y-112978704I-19972J-779996D01*
G01*
X111861728Y-112978704D02*
X111861472Y-113894096D01*
X120872619Y-73337595D02*
X120682143Y-73218547D01*
X120682143Y-73218547D02*
X120396429Y-73218547D01*
X120396429Y-73218547D02*
X120110714Y-73337595D01*
X120110714Y-73337595D02*
X119920238Y-73575690D01*
X119920238Y-73575690D02*
X119825000Y-73813785D01*
X119825000Y-73813785D02*
X119729762Y-74289976D01*
X119729762Y-74289976D02*
X119729762Y-74647119D01*
X119729762Y-74647119D02*
X119825000Y-75123309D01*
X119825000Y-75123309D02*
X119920238Y-75361404D01*
X119920238Y-75361404D02*
X120110714Y-75599500D01*
X120110714Y-75599500D02*
X120396429Y-75718547D01*
X120396429Y-75718547D02*
X120586905Y-75718547D01*
X120586905Y-75718547D02*
X120872619Y-75599500D01*
X120872619Y-75599500D02*
X120967857Y-75480452D01*
X120967857Y-75480452D02*
X120967857Y-74647119D01*
X120967857Y-74647119D02*
X120586905Y-74647119D01*
X121825000Y-75718547D02*
X121825000Y-73218547D01*
X121825000Y-73218547D02*
X122586905Y-73218547D01*
X122586905Y-73218547D02*
X122777381Y-73337595D01*
X122777381Y-73337595D02*
X122872619Y-73456642D01*
X122872619Y-73456642D02*
X122967857Y-73694738D01*
X122967857Y-73694738D02*
X122967857Y-74051880D01*
X122967857Y-74051880D02*
X122872619Y-74289976D01*
X122872619Y-74289976D02*
X122777381Y-74409023D01*
X122777381Y-74409023D02*
X122586905Y-74528071D01*
X122586905Y-74528071D02*
X121825000Y-74528071D01*
X123825000Y-75718547D02*
X123825000Y-73218547D01*
X125444048Y-74409023D02*
X125729762Y-74528071D01*
X125729762Y-74528071D02*
X125825000Y-74647119D01*
X125825000Y-74647119D02*
X125920238Y-74885214D01*
X125920238Y-74885214D02*
X125920238Y-75242357D01*
X125920238Y-75242357D02*
X125825000Y-75480452D01*
X125825000Y-75480452D02*
X125729762Y-75599500D01*
X125729762Y-75599500D02*
X125539286Y-75718547D01*
X125539286Y-75718547D02*
X124777381Y-75718547D01*
X124777381Y-75718547D02*
X124777381Y-73218547D01*
X124777381Y-73218547D02*
X125444048Y-73218547D01*
X125444048Y-73218547D02*
X125634524Y-73337595D01*
X125634524Y-73337595D02*
X125729762Y-73456642D01*
X125729762Y-73456642D02*
X125825000Y-73694738D01*
X125825000Y-73694738D02*
X125825000Y-73932833D01*
X125825000Y-73932833D02*
X125729762Y-74170928D01*
X125729762Y-74170928D02*
X125634524Y-74289976D01*
X125634524Y-74289976D02*
X125444048Y-74409023D01*
X125444048Y-74409023D02*
X124777381Y-74409023D01*
X103828571Y-64912238D02*
X103828571Y-66531285D01*
X103828571Y-66531285D02*
X103914285Y-66721761D01*
X103914285Y-66721761D02*
X104000000Y-66817000D01*
X104000000Y-66817000D02*
X104171428Y-66912238D01*
X104171428Y-66912238D02*
X104514285Y-66912238D01*
X104514285Y-66912238D02*
X104685714Y-66817000D01*
X104685714Y-66817000D02*
X104771428Y-66721761D01*
X104771428Y-66721761D02*
X104857142Y-66531285D01*
X104857142Y-66531285D02*
X104857142Y-64912238D01*
X105628571Y-66817000D02*
X105885714Y-66912238D01*
X105885714Y-66912238D02*
X106314285Y-66912238D01*
X106314285Y-66912238D02*
X106485714Y-66817000D01*
X106485714Y-66817000D02*
X106571428Y-66721761D01*
X106571428Y-66721761D02*
X106657142Y-66531285D01*
X106657142Y-66531285D02*
X106657142Y-66340809D01*
X106657142Y-66340809D02*
X106571428Y-66150333D01*
X106571428Y-66150333D02*
X106485714Y-66055095D01*
X106485714Y-66055095D02*
X106314285Y-65959857D01*
X106314285Y-65959857D02*
X105971428Y-65864619D01*
X105971428Y-65864619D02*
X105799999Y-65769380D01*
X105799999Y-65769380D02*
X105714285Y-65674142D01*
X105714285Y-65674142D02*
X105628571Y-65483666D01*
X105628571Y-65483666D02*
X105628571Y-65293190D01*
X105628571Y-65293190D02*
X105714285Y-65102714D01*
X105714285Y-65102714D02*
X105799999Y-65007476D01*
X105799999Y-65007476D02*
X105971428Y-64912238D01*
X105971428Y-64912238D02*
X106399999Y-64912238D01*
X106399999Y-64912238D02*
X106657142Y-65007476D01*
X108028571Y-65864619D02*
X108285714Y-65959857D01*
X108285714Y-65959857D02*
X108371428Y-66055095D01*
X108371428Y-66055095D02*
X108457142Y-66245571D01*
X108457142Y-66245571D02*
X108457142Y-66531285D01*
X108457142Y-66531285D02*
X108371428Y-66721761D01*
X108371428Y-66721761D02*
X108285714Y-66817000D01*
X108285714Y-66817000D02*
X108114285Y-66912238D01*
X108114285Y-66912238D02*
X107428571Y-66912238D01*
X107428571Y-66912238D02*
X107428571Y-64912238D01*
X107428571Y-64912238D02*
X108028571Y-64912238D01*
X108028571Y-64912238D02*
X108200000Y-65007476D01*
X108200000Y-65007476D02*
X108285714Y-65102714D01*
X108285714Y-65102714D02*
X108371428Y-65293190D01*
X108371428Y-65293190D02*
X108371428Y-65483666D01*
X108371428Y-65483666D02*
X108285714Y-65674142D01*
X108285714Y-65674142D02*
X108200000Y-65769380D01*
X108200000Y-65769380D02*
X108028571Y-65864619D01*
X108028571Y-65864619D02*
X107428571Y-65864619D01*
D11*
X107057819Y-118217792D02*
X106581628Y-118551125D01*
X107057819Y-118789220D02*
X106057819Y-118789220D01*
X106057819Y-118789220D02*
X106057819Y-118408268D01*
X106057819Y-118408268D02*
X106105438Y-118313030D01*
X106105438Y-118313030D02*
X106153057Y-118265411D01*
X106153057Y-118265411D02*
X106248295Y-118217792D01*
X106248295Y-118217792D02*
X106391152Y-118217792D01*
X106391152Y-118217792D02*
X106486390Y-118265411D01*
X106486390Y-118265411D02*
X106534009Y-118313030D01*
X106534009Y-118313030D02*
X106581628Y-118408268D01*
X106581628Y-118408268D02*
X106581628Y-118789220D01*
X107010200Y-117836839D02*
X107057819Y-117693982D01*
X107057819Y-117693982D02*
X107057819Y-117455887D01*
X107057819Y-117455887D02*
X107010200Y-117360649D01*
X107010200Y-117360649D02*
X106962580Y-117313030D01*
X106962580Y-117313030D02*
X106867342Y-117265411D01*
X106867342Y-117265411D02*
X106772104Y-117265411D01*
X106772104Y-117265411D02*
X106676866Y-117313030D01*
X106676866Y-117313030D02*
X106629247Y-117360649D01*
X106629247Y-117360649D02*
X106581628Y-117455887D01*
X106581628Y-117455887D02*
X106534009Y-117646363D01*
X106534009Y-117646363D02*
X106486390Y-117741601D01*
X106486390Y-117741601D02*
X106438771Y-117789220D01*
X106438771Y-117789220D02*
X106343533Y-117836839D01*
X106343533Y-117836839D02*
X106248295Y-117836839D01*
X106248295Y-117836839D02*
X106153057Y-117789220D01*
X106153057Y-117789220D02*
X106105438Y-117741601D01*
X106105438Y-117741601D02*
X106057819Y-117646363D01*
X106057819Y-117646363D02*
X106057819Y-117408268D01*
X106057819Y-117408268D02*
X106105438Y-117265411D01*
X106057819Y-116979696D02*
X106057819Y-116408268D01*
X107057819Y-116693982D02*
X106057819Y-116693982D01*
X108899438Y-118519411D02*
X108851819Y-118614649D01*
X108851819Y-118614649D02*
X108851819Y-118757506D01*
X108851819Y-118757506D02*
X108899438Y-118900363D01*
X108899438Y-118900363D02*
X108994676Y-118995601D01*
X108994676Y-118995601D02*
X109089914Y-119043220D01*
X109089914Y-119043220D02*
X109280390Y-119090839D01*
X109280390Y-119090839D02*
X109423247Y-119090839D01*
X109423247Y-119090839D02*
X109613723Y-119043220D01*
X109613723Y-119043220D02*
X109708961Y-118995601D01*
X109708961Y-118995601D02*
X109804200Y-118900363D01*
X109804200Y-118900363D02*
X109851819Y-118757506D01*
X109851819Y-118757506D02*
X109851819Y-118662268D01*
X109851819Y-118662268D02*
X109804200Y-118519411D01*
X109804200Y-118519411D02*
X109756580Y-118471792D01*
X109756580Y-118471792D02*
X109423247Y-118471792D01*
X109423247Y-118471792D02*
X109423247Y-118662268D01*
X109851819Y-118043220D02*
X108851819Y-118043220D01*
X108851819Y-118043220D02*
X109851819Y-117471792D01*
X109851819Y-117471792D02*
X108851819Y-117471792D01*
X109851819Y-116995601D02*
X108851819Y-116995601D01*
X108851819Y-116995601D02*
X108851819Y-116757506D01*
X108851819Y-116757506D02*
X108899438Y-116614649D01*
X108899438Y-116614649D02*
X108994676Y-116519411D01*
X108994676Y-116519411D02*
X109089914Y-116471792D01*
X109089914Y-116471792D02*
X109280390Y-116424173D01*
X109280390Y-116424173D02*
X109423247Y-116424173D01*
X109423247Y-116424173D02*
X109613723Y-116471792D01*
X109613723Y-116471792D02*
X109708961Y-116519411D01*
X109708961Y-116519411D02*
X109804200Y-116614649D01*
X109804200Y-116614649D02*
X109851819Y-116757506D01*
X109851819Y-116757506D02*
X109851819Y-116995601D01*
X113939905Y-114672904D02*
X112539905Y-114672904D01*
X112539905Y-114672904D02*
X112539905Y-114291952D01*
X112539905Y-114291952D02*
X112606572Y-114196714D01*
X112606572Y-114196714D02*
X112673239Y-114149095D01*
X112673239Y-114149095D02*
X112806572Y-114101476D01*
X112806572Y-114101476D02*
X113006572Y-114101476D01*
X113006572Y-114101476D02*
X113139905Y-114149095D01*
X113139905Y-114149095D02*
X113206572Y-114196714D01*
X113206572Y-114196714D02*
X113273239Y-114291952D01*
X113273239Y-114291952D02*
X113273239Y-114672904D01*
X113939905Y-113101476D02*
X113273239Y-113434809D01*
X113939905Y-113672904D02*
X112539905Y-113672904D01*
X112539905Y-113672904D02*
X112539905Y-113291952D01*
X112539905Y-113291952D02*
X112606572Y-113196714D01*
X112606572Y-113196714D02*
X112673239Y-113149095D01*
X112673239Y-113149095D02*
X112806572Y-113101476D01*
X112806572Y-113101476D02*
X113006572Y-113101476D01*
X113006572Y-113101476D02*
X113139905Y-113149095D01*
X113139905Y-113149095D02*
X113206572Y-113196714D01*
X113206572Y-113196714D02*
X113273239Y-113291952D01*
X113273239Y-113291952D02*
X113273239Y-113672904D01*
X112606572Y-112149095D02*
X112539905Y-112244333D01*
X112539905Y-112244333D02*
X112539905Y-112387190D01*
X112539905Y-112387190D02*
X112606572Y-112530047D01*
X112606572Y-112530047D02*
X112739905Y-112625285D01*
X112739905Y-112625285D02*
X112873239Y-112672904D01*
X112873239Y-112672904D02*
X113139905Y-112720523D01*
X113139905Y-112720523D02*
X113339905Y-112720523D01*
X113339905Y-112720523D02*
X113606572Y-112672904D01*
X113606572Y-112672904D02*
X113739905Y-112625285D01*
X113739905Y-112625285D02*
X113873239Y-112530047D01*
X113873239Y-112530047D02*
X113939905Y-112387190D01*
X113939905Y-112387190D02*
X113939905Y-112291952D01*
X113939905Y-112291952D02*
X113873239Y-112149095D01*
X113873239Y-112149095D02*
X113806572Y-112101476D01*
X113806572Y-112101476D02*
X113339905Y-112101476D01*
X113339905Y-112101476D02*
X113339905Y-112291952D01*
X116193827Y-114387189D02*
X114793827Y-114387189D01*
X116127161Y-113958618D02*
X116193827Y-113815761D01*
X116193827Y-113815761D02*
X116193827Y-113577666D01*
X116193827Y-113577666D02*
X116127161Y-113482428D01*
X116127161Y-113482428D02*
X116060494Y-113434809D01*
X116060494Y-113434809D02*
X115927161Y-113387190D01*
X115927161Y-113387190D02*
X115793827Y-113387190D01*
X115793827Y-113387190D02*
X115660494Y-113434809D01*
X115660494Y-113434809D02*
X115593827Y-113482428D01*
X115593827Y-113482428D02*
X115527161Y-113577666D01*
X115527161Y-113577666D02*
X115460494Y-113768142D01*
X115460494Y-113768142D02*
X115393827Y-113863380D01*
X115393827Y-113863380D02*
X115327161Y-113910999D01*
X115327161Y-113910999D02*
X115193827Y-113958618D01*
X115193827Y-113958618D02*
X115060494Y-113958618D01*
X115060494Y-113958618D02*
X114927161Y-113910999D01*
X114927161Y-113910999D02*
X114860494Y-113863380D01*
X114860494Y-113863380D02*
X114793827Y-113768142D01*
X114793827Y-113768142D02*
X114793827Y-113530047D01*
X114793827Y-113530047D02*
X114860494Y-113387190D01*
X116193827Y-112958618D02*
X114793827Y-112958618D01*
X114793827Y-112958618D02*
X114793827Y-112577666D01*
X114793827Y-112577666D02*
X114860494Y-112482428D01*
X114860494Y-112482428D02*
X114927161Y-112434809D01*
X114927161Y-112434809D02*
X115060494Y-112387190D01*
X115060494Y-112387190D02*
X115260494Y-112387190D01*
X115260494Y-112387190D02*
X115393827Y-112434809D01*
X115393827Y-112434809D02*
X115460494Y-112482428D01*
X115460494Y-112482428D02*
X115527161Y-112577666D01*
X115527161Y-112577666D02*
X115527161Y-112958618D01*
X107783333Y-100689580D02*
X107735714Y-100737200D01*
X107735714Y-100737200D02*
X107592857Y-100784819D01*
X107592857Y-100784819D02*
X107497619Y-100784819D01*
X107497619Y-100784819D02*
X107354762Y-100737200D01*
X107354762Y-100737200D02*
X107259524Y-100641961D01*
X107259524Y-100641961D02*
X107211905Y-100546723D01*
X107211905Y-100546723D02*
X107164286Y-100356247D01*
X107164286Y-100356247D02*
X107164286Y-100213390D01*
X107164286Y-100213390D02*
X107211905Y-100022914D01*
X107211905Y-100022914D02*
X107259524Y-99927676D01*
X107259524Y-99927676D02*
X107354762Y-99832438D01*
X107354762Y-99832438D02*
X107497619Y-99784819D01*
X107497619Y-99784819D02*
X107592857Y-99784819D01*
X107592857Y-99784819D02*
X107735714Y-99832438D01*
X107735714Y-99832438D02*
X107783333Y-99880057D01*
X108164286Y-99880057D02*
X108211905Y-99832438D01*
X108211905Y-99832438D02*
X108307143Y-99784819D01*
X108307143Y-99784819D02*
X108545238Y-99784819D01*
X108545238Y-99784819D02*
X108640476Y-99832438D01*
X108640476Y-99832438D02*
X108688095Y-99880057D01*
X108688095Y-99880057D02*
X108735714Y-99975295D01*
X108735714Y-99975295D02*
X108735714Y-100070533D01*
X108735714Y-100070533D02*
X108688095Y-100213390D01*
X108688095Y-100213390D02*
X108116667Y-100784819D01*
X108116667Y-100784819D02*
X108735714Y-100784819D01*
X112621219Y-117584457D02*
X112145028Y-117917790D01*
X112621219Y-118155885D02*
X111621219Y-118155885D01*
X111621219Y-118155885D02*
X111621219Y-117774933D01*
X111621219Y-117774933D02*
X111668838Y-117679695D01*
X111668838Y-117679695D02*
X111716457Y-117632076D01*
X111716457Y-117632076D02*
X111811695Y-117584457D01*
X111811695Y-117584457D02*
X111954552Y-117584457D01*
X111954552Y-117584457D02*
X112049790Y-117632076D01*
X112049790Y-117632076D02*
X112097409Y-117679695D01*
X112097409Y-117679695D02*
X112145028Y-117774933D01*
X112145028Y-117774933D02*
X112145028Y-118155885D01*
X112621219Y-116632076D02*
X112621219Y-117203504D01*
X112621219Y-116917790D02*
X111621219Y-116917790D01*
X111621219Y-116917790D02*
X111764076Y-117013028D01*
X111764076Y-117013028D02*
X111859314Y-117108266D01*
X111859314Y-117108266D02*
X111906933Y-117203504D01*
X111621219Y-116013028D02*
X111621219Y-115917790D01*
X111621219Y-115917790D02*
X111668838Y-115822552D01*
X111668838Y-115822552D02*
X111716457Y-115774933D01*
X111716457Y-115774933D02*
X111811695Y-115727314D01*
X111811695Y-115727314D02*
X112002171Y-115679695D01*
X112002171Y-115679695D02*
X112240266Y-115679695D01*
X112240266Y-115679695D02*
X112430742Y-115727314D01*
X112430742Y-115727314D02*
X112525980Y-115774933D01*
X112525980Y-115774933D02*
X112573600Y-115822552D01*
X112573600Y-115822552D02*
X112621219Y-115917790D01*
X112621219Y-115917790D02*
X112621219Y-116013028D01*
X112621219Y-116013028D02*
X112573600Y-116108266D01*
X112573600Y-116108266D02*
X112525980Y-116155885D01*
X112525980Y-116155885D02*
X112430742Y-116203504D01*
X112430742Y-116203504D02*
X112240266Y-116251123D01*
X112240266Y-116251123D02*
X112002171Y-116251123D01*
X112002171Y-116251123D02*
X111811695Y-116203504D01*
X111811695Y-116203504D02*
X111716457Y-116155885D01*
X111716457Y-116155885D02*
X111668838Y-116108266D01*
X111668838Y-116108266D02*
X111621219Y-116013028D01*
X113758333Y-83334580D02*
X113710714Y-83382200D01*
X113710714Y-83382200D02*
X113567857Y-83429819D01*
X113567857Y-83429819D02*
X113472619Y-83429819D01*
X113472619Y-83429819D02*
X113329762Y-83382200D01*
X113329762Y-83382200D02*
X113234524Y-83286961D01*
X113234524Y-83286961D02*
X113186905Y-83191723D01*
X113186905Y-83191723D02*
X113139286Y-83001247D01*
X113139286Y-83001247D02*
X113139286Y-82858390D01*
X113139286Y-82858390D02*
X113186905Y-82667914D01*
X113186905Y-82667914D02*
X113234524Y-82572676D01*
X113234524Y-82572676D02*
X113329762Y-82477438D01*
X113329762Y-82477438D02*
X113472619Y-82429819D01*
X113472619Y-82429819D02*
X113567857Y-82429819D01*
X113567857Y-82429819D02*
X113710714Y-82477438D01*
X113710714Y-82477438D02*
X113758333Y-82525057D01*
X114615476Y-82429819D02*
X114425000Y-82429819D01*
X114425000Y-82429819D02*
X114329762Y-82477438D01*
X114329762Y-82477438D02*
X114282143Y-82525057D01*
X114282143Y-82525057D02*
X114186905Y-82667914D01*
X114186905Y-82667914D02*
X114139286Y-82858390D01*
X114139286Y-82858390D02*
X114139286Y-83239342D01*
X114139286Y-83239342D02*
X114186905Y-83334580D01*
X114186905Y-83334580D02*
X114234524Y-83382200D01*
X114234524Y-83382200D02*
X114329762Y-83429819D01*
X114329762Y-83429819D02*
X114520238Y-83429819D01*
X114520238Y-83429819D02*
X114615476Y-83382200D01*
X114615476Y-83382200D02*
X114663095Y-83334580D01*
X114663095Y-83334580D02*
X114710714Y-83239342D01*
X114710714Y-83239342D02*
X114710714Y-83001247D01*
X114710714Y-83001247D02*
X114663095Y-82906009D01*
X114663095Y-82906009D02*
X114615476Y-82858390D01*
X114615476Y-82858390D02*
X114520238Y-82810771D01*
X114520238Y-82810771D02*
X114329762Y-82810771D01*
X114329762Y-82810771D02*
X114234524Y-82858390D01*
X114234524Y-82858390D02*
X114186905Y-82906009D01*
X114186905Y-82906009D02*
X114139286Y-83001247D01*
X112101333Y-74328819D02*
X111768000Y-73852628D01*
X111529905Y-74328819D02*
X111529905Y-73328819D01*
X111529905Y-73328819D02*
X111910857Y-73328819D01*
X111910857Y-73328819D02*
X112006095Y-73376438D01*
X112006095Y-73376438D02*
X112053714Y-73424057D01*
X112053714Y-73424057D02*
X112101333Y-73519295D01*
X112101333Y-73519295D02*
X112101333Y-73662152D01*
X112101333Y-73662152D02*
X112053714Y-73757390D01*
X112053714Y-73757390D02*
X112006095Y-73805009D01*
X112006095Y-73805009D02*
X111910857Y-73852628D01*
X111910857Y-73852628D02*
X111529905Y-73852628D01*
X112434667Y-73328819D02*
X113101333Y-73328819D01*
X113101333Y-73328819D02*
X112672762Y-74328819D01*
X99655333Y-74303819D02*
X99322000Y-73827628D01*
X99083905Y-74303819D02*
X99083905Y-73303819D01*
X99083905Y-73303819D02*
X99464857Y-73303819D01*
X99464857Y-73303819D02*
X99560095Y-73351438D01*
X99560095Y-73351438D02*
X99607714Y-73399057D01*
X99607714Y-73399057D02*
X99655333Y-73494295D01*
X99655333Y-73494295D02*
X99655333Y-73637152D01*
X99655333Y-73637152D02*
X99607714Y-73732390D01*
X99607714Y-73732390D02*
X99560095Y-73780009D01*
X99560095Y-73780009D02*
X99464857Y-73827628D01*
X99464857Y-73827628D02*
X99083905Y-73827628D01*
X100226762Y-73732390D02*
X100131524Y-73684771D01*
X100131524Y-73684771D02*
X100083905Y-73637152D01*
X100083905Y-73637152D02*
X100036286Y-73541914D01*
X100036286Y-73541914D02*
X100036286Y-73494295D01*
X100036286Y-73494295D02*
X100083905Y-73399057D01*
X100083905Y-73399057D02*
X100131524Y-73351438D01*
X100131524Y-73351438D02*
X100226762Y-73303819D01*
X100226762Y-73303819D02*
X100417238Y-73303819D01*
X100417238Y-73303819D02*
X100512476Y-73351438D01*
X100512476Y-73351438D02*
X100560095Y-73399057D01*
X100560095Y-73399057D02*
X100607714Y-73494295D01*
X100607714Y-73494295D02*
X100607714Y-73541914D01*
X100607714Y-73541914D02*
X100560095Y-73637152D01*
X100560095Y-73637152D02*
X100512476Y-73684771D01*
X100512476Y-73684771D02*
X100417238Y-73732390D01*
X100417238Y-73732390D02*
X100226762Y-73732390D01*
X100226762Y-73732390D02*
X100131524Y-73780009D01*
X100131524Y-73780009D02*
X100083905Y-73827628D01*
X100083905Y-73827628D02*
X100036286Y-73922866D01*
X100036286Y-73922866D02*
X100036286Y-74113342D01*
X100036286Y-74113342D02*
X100083905Y-74208580D01*
X100083905Y-74208580D02*
X100131524Y-74256200D01*
X100131524Y-74256200D02*
X100226762Y-74303819D01*
X100226762Y-74303819D02*
X100417238Y-74303819D01*
X100417238Y-74303819D02*
X100512476Y-74256200D01*
X100512476Y-74256200D02*
X100560095Y-74208580D01*
X100560095Y-74208580D02*
X100607714Y-74113342D01*
X100607714Y-74113342D02*
X100607714Y-73922866D01*
X100607714Y-73922866D02*
X100560095Y-73827628D01*
X100560095Y-73827628D02*
X100512476Y-73780009D01*
X100512476Y-73780009D02*
X100417238Y-73732390D01*
X117650419Y-116244666D02*
X117174228Y-116577999D01*
X117650419Y-116816094D02*
X116650419Y-116816094D01*
X116650419Y-116816094D02*
X116650419Y-116435142D01*
X116650419Y-116435142D02*
X116698038Y-116339904D01*
X116698038Y-116339904D02*
X116745657Y-116292285D01*
X116745657Y-116292285D02*
X116840895Y-116244666D01*
X116840895Y-116244666D02*
X116983752Y-116244666D01*
X116983752Y-116244666D02*
X117078990Y-116292285D01*
X117078990Y-116292285D02*
X117126609Y-116339904D01*
X117126609Y-116339904D02*
X117174228Y-116435142D01*
X117174228Y-116435142D02*
X117174228Y-116816094D01*
X117650419Y-115768475D02*
X117650419Y-115577999D01*
X117650419Y-115577999D02*
X117602800Y-115482761D01*
X117602800Y-115482761D02*
X117555180Y-115435142D01*
X117555180Y-115435142D02*
X117412323Y-115339904D01*
X117412323Y-115339904D02*
X117221847Y-115292285D01*
X117221847Y-115292285D02*
X116840895Y-115292285D01*
X116840895Y-115292285D02*
X116745657Y-115339904D01*
X116745657Y-115339904D02*
X116698038Y-115387523D01*
X116698038Y-115387523D02*
X116650419Y-115482761D01*
X116650419Y-115482761D02*
X116650419Y-115673237D01*
X116650419Y-115673237D02*
X116698038Y-115768475D01*
X116698038Y-115768475D02*
X116745657Y-115816094D01*
X116745657Y-115816094D02*
X116840895Y-115863713D01*
X116840895Y-115863713D02*
X117078990Y-115863713D01*
X117078990Y-115863713D02*
X117174228Y-115816094D01*
X117174228Y-115816094D02*
X117221847Y-115768475D01*
X117221847Y-115768475D02*
X117269466Y-115673237D01*
X117269466Y-115673237D02*
X117269466Y-115482761D01*
X117269466Y-115482761D02*
X117221847Y-115387523D01*
X117221847Y-115387523D02*
X117174228Y-115339904D01*
X117174228Y-115339904D02*
X117078990Y-115292285D01*
X99655333Y-84941580D02*
X99607714Y-84989200D01*
X99607714Y-84989200D02*
X99464857Y-85036819D01*
X99464857Y-85036819D02*
X99369619Y-85036819D01*
X99369619Y-85036819D02*
X99226762Y-84989200D01*
X99226762Y-84989200D02*
X99131524Y-84893961D01*
X99131524Y-84893961D02*
X99083905Y-84798723D01*
X99083905Y-84798723D02*
X99036286Y-84608247D01*
X99036286Y-84608247D02*
X99036286Y-84465390D01*
X99036286Y-84465390D02*
X99083905Y-84274914D01*
X99083905Y-84274914D02*
X99131524Y-84179676D01*
X99131524Y-84179676D02*
X99226762Y-84084438D01*
X99226762Y-84084438D02*
X99369619Y-84036819D01*
X99369619Y-84036819D02*
X99464857Y-84036819D01*
X99464857Y-84036819D02*
X99607714Y-84084438D01*
X99607714Y-84084438D02*
X99655333Y-84132057D01*
X100560095Y-84036819D02*
X100083905Y-84036819D01*
X100083905Y-84036819D02*
X100036286Y-84513009D01*
X100036286Y-84513009D02*
X100083905Y-84465390D01*
X100083905Y-84465390D02*
X100179143Y-84417771D01*
X100179143Y-84417771D02*
X100417238Y-84417771D01*
X100417238Y-84417771D02*
X100512476Y-84465390D01*
X100512476Y-84465390D02*
X100560095Y-84513009D01*
X100560095Y-84513009D02*
X100607714Y-84608247D01*
X100607714Y-84608247D02*
X100607714Y-84846342D01*
X100607714Y-84846342D02*
X100560095Y-84941580D01*
X100560095Y-84941580D02*
X100512476Y-84989200D01*
X100512476Y-84989200D02*
X100417238Y-85036819D01*
X100417238Y-85036819D02*
X100179143Y-85036819D01*
X100179143Y-85036819D02*
X100083905Y-84989200D01*
X100083905Y-84989200D02*
X100036286Y-84941580D01*
X101295754Y-79179456D02*
X100723335Y-79078441D01*
X100891693Y-79583517D02*
X100184587Y-78876410D01*
X100184587Y-78876410D02*
X100453961Y-78607036D01*
X100453961Y-78607036D02*
X100554976Y-78573364D01*
X100554976Y-78573364D02*
X100622319Y-78573364D01*
X100622319Y-78573364D02*
X100723335Y-78607036D01*
X100723335Y-78607036D02*
X100824350Y-78708051D01*
X100824350Y-78708051D02*
X100858022Y-78809067D01*
X100858022Y-78809067D02*
X100858022Y-78876410D01*
X100858022Y-78876410D02*
X100824350Y-78977425D01*
X100824350Y-78977425D02*
X100554976Y-79246799D01*
X101969189Y-78506021D02*
X101565128Y-78910082D01*
X101767159Y-78708051D02*
X101060052Y-78000945D01*
X101060052Y-78000945D02*
X101093724Y-78169303D01*
X101093724Y-78169303D02*
X101093724Y-78303990D01*
X101093724Y-78303990D02*
X101060052Y-78405006D01*
X99314095Y-86068819D02*
X99314095Y-86878342D01*
X99314095Y-86878342D02*
X99361714Y-86973580D01*
X99361714Y-86973580D02*
X99409333Y-87021200D01*
X99409333Y-87021200D02*
X99504571Y-87068819D01*
X99504571Y-87068819D02*
X99695047Y-87068819D01*
X99695047Y-87068819D02*
X99790285Y-87021200D01*
X99790285Y-87021200D02*
X99837904Y-86973580D01*
X99837904Y-86973580D02*
X99885523Y-86878342D01*
X99885523Y-86878342D02*
X99885523Y-86068819D01*
X100885523Y-87068819D02*
X100314095Y-87068819D01*
X100599809Y-87068819D02*
X100599809Y-86068819D01*
X100599809Y-86068819D02*
X100504571Y-86211676D01*
X100504571Y-86211676D02*
X100409333Y-86306914D01*
X100409333Y-86306914D02*
X100314095Y-86354533D01*
X103510819Y-116873047D02*
X103510819Y-117349237D01*
X103510819Y-117349237D02*
X102510819Y-117349237D01*
X102987009Y-116539713D02*
X102987009Y-116206380D01*
X103510819Y-116063523D02*
X103510819Y-116539713D01*
X103510819Y-116539713D02*
X102510819Y-116539713D01*
X102510819Y-116539713D02*
X102510819Y-116063523D01*
X103510819Y-115634951D02*
X102510819Y-115634951D01*
X102510819Y-115634951D02*
X102510819Y-115396856D01*
X102510819Y-115396856D02*
X102558438Y-115253999D01*
X102558438Y-115253999D02*
X102653676Y-115158761D01*
X102653676Y-115158761D02*
X102748914Y-115111142D01*
X102748914Y-115111142D02*
X102939390Y-115063523D01*
X102939390Y-115063523D02*
X103082247Y-115063523D01*
X103082247Y-115063523D02*
X103272723Y-115111142D01*
X103272723Y-115111142D02*
X103367961Y-115158761D01*
X103367961Y-115158761D02*
X103463200Y-115253999D01*
X103463200Y-115253999D02*
X103510819Y-115396856D01*
X103510819Y-115396856D02*
X103510819Y-115634951D01*
X102606057Y-114682570D02*
X102558438Y-114634951D01*
X102558438Y-114634951D02*
X102510819Y-114539713D01*
X102510819Y-114539713D02*
X102510819Y-114301618D01*
X102510819Y-114301618D02*
X102558438Y-114206380D01*
X102558438Y-114206380D02*
X102606057Y-114158761D01*
X102606057Y-114158761D02*
X102701295Y-114111142D01*
X102701295Y-114111142D02*
X102796533Y-114111142D01*
X102796533Y-114111142D02*
X102939390Y-114158761D01*
X102939390Y-114158761D02*
X103510819Y-114730189D01*
X103510819Y-114730189D02*
X103510819Y-114111142D01*
X110831333Y-83163580D02*
X110783714Y-83211200D01*
X110783714Y-83211200D02*
X110640857Y-83258819D01*
X110640857Y-83258819D02*
X110545619Y-83258819D01*
X110545619Y-83258819D02*
X110402762Y-83211200D01*
X110402762Y-83211200D02*
X110307524Y-83115961D01*
X110307524Y-83115961D02*
X110259905Y-83020723D01*
X110259905Y-83020723D02*
X110212286Y-82830247D01*
X110212286Y-82830247D02*
X110212286Y-82687390D01*
X110212286Y-82687390D02*
X110259905Y-82496914D01*
X110259905Y-82496914D02*
X110307524Y-82401676D01*
X110307524Y-82401676D02*
X110402762Y-82306438D01*
X110402762Y-82306438D02*
X110545619Y-82258819D01*
X110545619Y-82258819D02*
X110640857Y-82258819D01*
X110640857Y-82258819D02*
X110783714Y-82306438D01*
X110783714Y-82306438D02*
X110831333Y-82354057D01*
X111688476Y-82592152D02*
X111688476Y-83258819D01*
X111450381Y-82211200D02*
X111212286Y-82925485D01*
X111212286Y-82925485D02*
X111831333Y-82925485D01*
X104671754Y-82654456D02*
X104099335Y-82553441D01*
X104267693Y-83058517D02*
X103560587Y-82351410D01*
X103560587Y-82351410D02*
X103829961Y-82082036D01*
X103829961Y-82082036D02*
X103930976Y-82048364D01*
X103930976Y-82048364D02*
X103998319Y-82048364D01*
X103998319Y-82048364D02*
X104099335Y-82082036D01*
X104099335Y-82082036D02*
X104200350Y-82183051D01*
X104200350Y-82183051D02*
X104234022Y-82284067D01*
X104234022Y-82284067D02*
X104234022Y-82351410D01*
X104234022Y-82351410D02*
X104200350Y-82452425D01*
X104200350Y-82452425D02*
X103930976Y-82721799D01*
X104301365Y-81745319D02*
X104301365Y-81677975D01*
X104301365Y-81677975D02*
X104335037Y-81576960D01*
X104335037Y-81576960D02*
X104503396Y-81408601D01*
X104503396Y-81408601D02*
X104604411Y-81374929D01*
X104604411Y-81374929D02*
X104671754Y-81374929D01*
X104671754Y-81374929D02*
X104772770Y-81408601D01*
X104772770Y-81408601D02*
X104840113Y-81475945D01*
X104840113Y-81475945D02*
X104907457Y-81610632D01*
X104907457Y-81610632D02*
X104907457Y-82418754D01*
X104907457Y-82418754D02*
X105345189Y-81981021D01*
X109815333Y-84687580D02*
X109767714Y-84735200D01*
X109767714Y-84735200D02*
X109624857Y-84782819D01*
X109624857Y-84782819D02*
X109529619Y-84782819D01*
X109529619Y-84782819D02*
X109386762Y-84735200D01*
X109386762Y-84735200D02*
X109291524Y-84639961D01*
X109291524Y-84639961D02*
X109243905Y-84544723D01*
X109243905Y-84544723D02*
X109196286Y-84354247D01*
X109196286Y-84354247D02*
X109196286Y-84211390D01*
X109196286Y-84211390D02*
X109243905Y-84020914D01*
X109243905Y-84020914D02*
X109291524Y-83925676D01*
X109291524Y-83925676D02*
X109386762Y-83830438D01*
X109386762Y-83830438D02*
X109529619Y-83782819D01*
X109529619Y-83782819D02*
X109624857Y-83782819D01*
X109624857Y-83782819D02*
X109767714Y-83830438D01*
X109767714Y-83830438D02*
X109815333Y-83878057D01*
X110386762Y-84211390D02*
X110291524Y-84163771D01*
X110291524Y-84163771D02*
X110243905Y-84116152D01*
X110243905Y-84116152D02*
X110196286Y-84020914D01*
X110196286Y-84020914D02*
X110196286Y-83973295D01*
X110196286Y-83973295D02*
X110243905Y-83878057D01*
X110243905Y-83878057D02*
X110291524Y-83830438D01*
X110291524Y-83830438D02*
X110386762Y-83782819D01*
X110386762Y-83782819D02*
X110577238Y-83782819D01*
X110577238Y-83782819D02*
X110672476Y-83830438D01*
X110672476Y-83830438D02*
X110720095Y-83878057D01*
X110720095Y-83878057D02*
X110767714Y-83973295D01*
X110767714Y-83973295D02*
X110767714Y-84020914D01*
X110767714Y-84020914D02*
X110720095Y-84116152D01*
X110720095Y-84116152D02*
X110672476Y-84163771D01*
X110672476Y-84163771D02*
X110577238Y-84211390D01*
X110577238Y-84211390D02*
X110386762Y-84211390D01*
X110386762Y-84211390D02*
X110291524Y-84259009D01*
X110291524Y-84259009D02*
X110243905Y-84306628D01*
X110243905Y-84306628D02*
X110196286Y-84401866D01*
X110196286Y-84401866D02*
X110196286Y-84592342D01*
X110196286Y-84592342D02*
X110243905Y-84687580D01*
X110243905Y-84687580D02*
X110291524Y-84735200D01*
X110291524Y-84735200D02*
X110386762Y-84782819D01*
X110386762Y-84782819D02*
X110577238Y-84782819D01*
X110577238Y-84782819D02*
X110672476Y-84735200D01*
X110672476Y-84735200D02*
X110720095Y-84687580D01*
X110720095Y-84687580D02*
X110767714Y-84592342D01*
X110767714Y-84592342D02*
X110767714Y-84401866D01*
X110767714Y-84401866D02*
X110720095Y-84306628D01*
X110720095Y-84306628D02*
X110672476Y-84259009D01*
X110672476Y-84259009D02*
X110577238Y-84211390D01*
X116933333Y-72079819D02*
X116600000Y-71603628D01*
X116361905Y-72079819D02*
X116361905Y-71079819D01*
X116361905Y-71079819D02*
X116742857Y-71079819D01*
X116742857Y-71079819D02*
X116838095Y-71127438D01*
X116838095Y-71127438D02*
X116885714Y-71175057D01*
X116885714Y-71175057D02*
X116933333Y-71270295D01*
X116933333Y-71270295D02*
X116933333Y-71413152D01*
X116933333Y-71413152D02*
X116885714Y-71508390D01*
X116885714Y-71508390D02*
X116838095Y-71556009D01*
X116838095Y-71556009D02*
X116742857Y-71603628D01*
X116742857Y-71603628D02*
X116361905Y-71603628D01*
X117790476Y-71079819D02*
X117600000Y-71079819D01*
X117600000Y-71079819D02*
X117504762Y-71127438D01*
X117504762Y-71127438D02*
X117457143Y-71175057D01*
X117457143Y-71175057D02*
X117361905Y-71317914D01*
X117361905Y-71317914D02*
X117314286Y-71508390D01*
X117314286Y-71508390D02*
X117314286Y-71889342D01*
X117314286Y-71889342D02*
X117361905Y-71984580D01*
X117361905Y-71984580D02*
X117409524Y-72032200D01*
X117409524Y-72032200D02*
X117504762Y-72079819D01*
X117504762Y-72079819D02*
X117695238Y-72079819D01*
X117695238Y-72079819D02*
X117790476Y-72032200D01*
X117790476Y-72032200D02*
X117838095Y-71984580D01*
X117838095Y-71984580D02*
X117885714Y-71889342D01*
X117885714Y-71889342D02*
X117885714Y-71651247D01*
X117885714Y-71651247D02*
X117838095Y-71556009D01*
X117838095Y-71556009D02*
X117790476Y-71508390D01*
X117790476Y-71508390D02*
X117695238Y-71460771D01*
X117695238Y-71460771D02*
X117504762Y-71460771D01*
X117504762Y-71460771D02*
X117409524Y-71508390D01*
X117409524Y-71508390D02*
X117361905Y-71556009D01*
X117361905Y-71556009D02*
X117314286Y-71651247D01*
X99234666Y-67526819D02*
X99234666Y-68241104D01*
X99234666Y-68241104D02*
X99187047Y-68383961D01*
X99187047Y-68383961D02*
X99091809Y-68479200D01*
X99091809Y-68479200D02*
X98948952Y-68526819D01*
X98948952Y-68526819D02*
X98853714Y-68526819D01*
X99663238Y-67622057D02*
X99710857Y-67574438D01*
X99710857Y-67574438D02*
X99806095Y-67526819D01*
X99806095Y-67526819D02*
X100044190Y-67526819D01*
X100044190Y-67526819D02*
X100139428Y-67574438D01*
X100139428Y-67574438D02*
X100187047Y-67622057D01*
X100187047Y-67622057D02*
X100234666Y-67717295D01*
X100234666Y-67717295D02*
X100234666Y-67812533D01*
X100234666Y-67812533D02*
X100187047Y-67955390D01*
X100187047Y-67955390D02*
X99615619Y-68526819D01*
X99615619Y-68526819D02*
X100234666Y-68526819D01*
X103510819Y-109761047D02*
X103510819Y-110237237D01*
X103510819Y-110237237D02*
X102510819Y-110237237D01*
X102987009Y-109427713D02*
X102987009Y-109094380D01*
X103510819Y-108951523D02*
X103510819Y-109427713D01*
X103510819Y-109427713D02*
X102510819Y-109427713D01*
X102510819Y-109427713D02*
X102510819Y-108951523D01*
X103510819Y-108522951D02*
X102510819Y-108522951D01*
X102510819Y-108522951D02*
X102510819Y-108284856D01*
X102510819Y-108284856D02*
X102558438Y-108141999D01*
X102558438Y-108141999D02*
X102653676Y-108046761D01*
X102653676Y-108046761D02*
X102748914Y-107999142D01*
X102748914Y-107999142D02*
X102939390Y-107951523D01*
X102939390Y-107951523D02*
X103082247Y-107951523D01*
X103082247Y-107951523D02*
X103272723Y-107999142D01*
X103272723Y-107999142D02*
X103367961Y-108046761D01*
X103367961Y-108046761D02*
X103463200Y-108141999D01*
X103463200Y-108141999D02*
X103510819Y-108284856D01*
X103510819Y-108284856D02*
X103510819Y-108522951D01*
X102510819Y-107618189D02*
X102510819Y-106999142D01*
X102510819Y-106999142D02*
X102891771Y-107332475D01*
X102891771Y-107332475D02*
X102891771Y-107189618D01*
X102891771Y-107189618D02*
X102939390Y-107094380D01*
X102939390Y-107094380D02*
X102987009Y-107046761D01*
X102987009Y-107046761D02*
X103082247Y-106999142D01*
X103082247Y-106999142D02*
X103320342Y-106999142D01*
X103320342Y-106999142D02*
X103415580Y-107046761D01*
X103415580Y-107046761D02*
X103463200Y-107094380D01*
X103463200Y-107094380D02*
X103510819Y-107189618D01*
X103510819Y-107189618D02*
X103510819Y-107475332D01*
X103510819Y-107475332D02*
X103463200Y-107570570D01*
X103463200Y-107570570D02*
X103415580Y-107618189D01*
X117014666Y-64986819D02*
X117014666Y-65701104D01*
X117014666Y-65701104D02*
X116967047Y-65843961D01*
X116967047Y-65843961D02*
X116871809Y-65939200D01*
X116871809Y-65939200D02*
X116728952Y-65986819D01*
X116728952Y-65986819D02*
X116633714Y-65986819D01*
X118014666Y-65986819D02*
X117443238Y-65986819D01*
X117728952Y-65986819D02*
X117728952Y-64986819D01*
X117728952Y-64986819D02*
X117633714Y-65129676D01*
X117633714Y-65129676D02*
X117538476Y-65224914D01*
X117538476Y-65224914D02*
X117443238Y-65272533D01*
X132454819Y-93928571D02*
X131454819Y-93928571D01*
X131454819Y-93928571D02*
X131454819Y-93547619D01*
X131454819Y-93547619D02*
X131502438Y-93452381D01*
X131502438Y-93452381D02*
X131550057Y-93404762D01*
X131550057Y-93404762D02*
X131645295Y-93357143D01*
X131645295Y-93357143D02*
X131788152Y-93357143D01*
X131788152Y-93357143D02*
X131883390Y-93404762D01*
X131883390Y-93404762D02*
X131931009Y-93452381D01*
X131931009Y-93452381D02*
X131978628Y-93547619D01*
X131978628Y-93547619D02*
X131978628Y-93928571D01*
X132359580Y-92357143D02*
X132407200Y-92404762D01*
X132407200Y-92404762D02*
X132454819Y-92547619D01*
X132454819Y-92547619D02*
X132454819Y-92642857D01*
X132454819Y-92642857D02*
X132407200Y-92785714D01*
X132407200Y-92785714D02*
X132311961Y-92880952D01*
X132311961Y-92880952D02*
X132216723Y-92928571D01*
X132216723Y-92928571D02*
X132026247Y-92976190D01*
X132026247Y-92976190D02*
X131883390Y-92976190D01*
X131883390Y-92976190D02*
X131692914Y-92928571D01*
X131692914Y-92928571D02*
X131597676Y-92880952D01*
X131597676Y-92880952D02*
X131502438Y-92785714D01*
X131502438Y-92785714D02*
X131454819Y-92642857D01*
X131454819Y-92642857D02*
X131454819Y-92547619D01*
X131454819Y-92547619D02*
X131502438Y-92404762D01*
X131502438Y-92404762D02*
X131550057Y-92357143D01*
X131931009Y-91595238D02*
X131978628Y-91452381D01*
X131978628Y-91452381D02*
X132026247Y-91404762D01*
X132026247Y-91404762D02*
X132121485Y-91357143D01*
X132121485Y-91357143D02*
X132264342Y-91357143D01*
X132264342Y-91357143D02*
X132359580Y-91404762D01*
X132359580Y-91404762D02*
X132407200Y-91452381D01*
X132407200Y-91452381D02*
X132454819Y-91547619D01*
X132454819Y-91547619D02*
X132454819Y-91928571D01*
X132454819Y-91928571D02*
X131454819Y-91928571D01*
X131454819Y-91928571D02*
X131454819Y-91595238D01*
X131454819Y-91595238D02*
X131502438Y-91500000D01*
X131502438Y-91500000D02*
X131550057Y-91452381D01*
X131550057Y-91452381D02*
X131645295Y-91404762D01*
X131645295Y-91404762D02*
X131740533Y-91404762D01*
X131740533Y-91404762D02*
X131835771Y-91452381D01*
X131835771Y-91452381D02*
X131883390Y-91500000D01*
X131883390Y-91500000D02*
X131931009Y-91595238D01*
X131931009Y-91595238D02*
X131931009Y-91928571D01*
X131931009Y-90166666D02*
X131931009Y-89833333D01*
X132454819Y-89690476D02*
X132454819Y-90166666D01*
X132454819Y-90166666D02*
X131454819Y-90166666D01*
X131454819Y-90166666D02*
X131454819Y-89690476D01*
X132454819Y-88833333D02*
X131454819Y-88833333D01*
X132407200Y-88833333D02*
X132454819Y-88928571D01*
X132454819Y-88928571D02*
X132454819Y-89119047D01*
X132454819Y-89119047D02*
X132407200Y-89214285D01*
X132407200Y-89214285D02*
X132359580Y-89261904D01*
X132359580Y-89261904D02*
X132264342Y-89309523D01*
X132264342Y-89309523D02*
X131978628Y-89309523D01*
X131978628Y-89309523D02*
X131883390Y-89261904D01*
X131883390Y-89261904D02*
X131835771Y-89214285D01*
X131835771Y-89214285D02*
X131788152Y-89119047D01*
X131788152Y-89119047D02*
X131788152Y-88928571D01*
X131788152Y-88928571D02*
X131835771Y-88833333D01*
X131788152Y-87928571D02*
X132597676Y-87928571D01*
X132597676Y-87928571D02*
X132692914Y-87976190D01*
X132692914Y-87976190D02*
X132740533Y-88023809D01*
X132740533Y-88023809D02*
X132788152Y-88119047D01*
X132788152Y-88119047D02*
X132788152Y-88261904D01*
X132788152Y-88261904D02*
X132740533Y-88357142D01*
X132407200Y-87928571D02*
X132454819Y-88023809D01*
X132454819Y-88023809D02*
X132454819Y-88214285D01*
X132454819Y-88214285D02*
X132407200Y-88309523D01*
X132407200Y-88309523D02*
X132359580Y-88357142D01*
X132359580Y-88357142D02*
X132264342Y-88404761D01*
X132264342Y-88404761D02*
X131978628Y-88404761D01*
X131978628Y-88404761D02*
X131883390Y-88357142D01*
X131883390Y-88357142D02*
X131835771Y-88309523D01*
X131835771Y-88309523D02*
X131788152Y-88214285D01*
X131788152Y-88214285D02*
X131788152Y-88023809D01*
X131788152Y-88023809D02*
X131835771Y-87928571D01*
X132407200Y-87071428D02*
X132454819Y-87166666D01*
X132454819Y-87166666D02*
X132454819Y-87357142D01*
X132454819Y-87357142D02*
X132407200Y-87452380D01*
X132407200Y-87452380D02*
X132311961Y-87499999D01*
X132311961Y-87499999D02*
X131931009Y-87499999D01*
X131931009Y-87499999D02*
X131835771Y-87452380D01*
X131835771Y-87452380D02*
X131788152Y-87357142D01*
X131788152Y-87357142D02*
X131788152Y-87166666D01*
X131788152Y-87166666D02*
X131835771Y-87071428D01*
X131835771Y-87071428D02*
X131931009Y-87023809D01*
X131931009Y-87023809D02*
X132026247Y-87023809D01*
X132026247Y-87023809D02*
X132121485Y-87499999D01*
X116477580Y-93976666D02*
X116525200Y-94024285D01*
X116525200Y-94024285D02*
X116572819Y-94167142D01*
X116572819Y-94167142D02*
X116572819Y-94262380D01*
X116572819Y-94262380D02*
X116525200Y-94405237D01*
X116525200Y-94405237D02*
X116429961Y-94500475D01*
X116429961Y-94500475D02*
X116334723Y-94548094D01*
X116334723Y-94548094D02*
X116144247Y-94595713D01*
X116144247Y-94595713D02*
X116001390Y-94595713D01*
X116001390Y-94595713D02*
X115810914Y-94548094D01*
X115810914Y-94548094D02*
X115715676Y-94500475D01*
X115715676Y-94500475D02*
X115620438Y-94405237D01*
X115620438Y-94405237D02*
X115572819Y-94262380D01*
X115572819Y-94262380D02*
X115572819Y-94167142D01*
X115572819Y-94167142D02*
X115620438Y-94024285D01*
X115620438Y-94024285D02*
X115668057Y-93976666D01*
X115572819Y-93643332D02*
X115572819Y-92976666D01*
X115572819Y-92976666D02*
X116572819Y-93405237D01*
X111085333Y-100689580D02*
X111037714Y-100737200D01*
X111037714Y-100737200D02*
X110894857Y-100784819D01*
X110894857Y-100784819D02*
X110799619Y-100784819D01*
X110799619Y-100784819D02*
X110656762Y-100737200D01*
X110656762Y-100737200D02*
X110561524Y-100641961D01*
X110561524Y-100641961D02*
X110513905Y-100546723D01*
X110513905Y-100546723D02*
X110466286Y-100356247D01*
X110466286Y-100356247D02*
X110466286Y-100213390D01*
X110466286Y-100213390D02*
X110513905Y-100022914D01*
X110513905Y-100022914D02*
X110561524Y-99927676D01*
X110561524Y-99927676D02*
X110656762Y-99832438D01*
X110656762Y-99832438D02*
X110799619Y-99784819D01*
X110799619Y-99784819D02*
X110894857Y-99784819D01*
X110894857Y-99784819D02*
X111037714Y-99832438D01*
X111037714Y-99832438D02*
X111085333Y-99880057D01*
X112037714Y-100784819D02*
X111466286Y-100784819D01*
X111752000Y-100784819D02*
X111752000Y-99784819D01*
X111752000Y-99784819D02*
X111656762Y-99927676D01*
X111656762Y-99927676D02*
X111561524Y-100022914D01*
X111561524Y-100022914D02*
X111466286Y-100070533D01*
X117394819Y-69826047D02*
X117394819Y-70302237D01*
X117394819Y-70302237D02*
X116394819Y-70302237D01*
X116871009Y-69492713D02*
X116871009Y-69159380D01*
X117394819Y-69016523D02*
X117394819Y-69492713D01*
X117394819Y-69492713D02*
X116394819Y-69492713D01*
X116394819Y-69492713D02*
X116394819Y-69016523D01*
X117394819Y-68587951D02*
X116394819Y-68587951D01*
X116394819Y-68587951D02*
X116394819Y-68349856D01*
X116394819Y-68349856D02*
X116442438Y-68206999D01*
X116442438Y-68206999D02*
X116537676Y-68111761D01*
X116537676Y-68111761D02*
X116632914Y-68064142D01*
X116632914Y-68064142D02*
X116823390Y-68016523D01*
X116823390Y-68016523D02*
X116966247Y-68016523D01*
X116966247Y-68016523D02*
X117156723Y-68064142D01*
X117156723Y-68064142D02*
X117251961Y-68111761D01*
X117251961Y-68111761D02*
X117347200Y-68206999D01*
X117347200Y-68206999D02*
X117394819Y-68349856D01*
X117394819Y-68349856D02*
X117394819Y-68587951D01*
X117394819Y-67064142D02*
X117394819Y-67635570D01*
X117394819Y-67349856D02*
X116394819Y-67349856D01*
X116394819Y-67349856D02*
X116537676Y-67445094D01*
X116537676Y-67445094D02*
X116632914Y-67540332D01*
X116632914Y-67540332D02*
X116680533Y-67635570D01*
X111980719Y-69901999D02*
X112218814Y-69901999D01*
X112123576Y-70140094D02*
X112218814Y-69901999D01*
X112218814Y-69901999D02*
X112123576Y-69663904D01*
X112409290Y-70044856D02*
X112218814Y-69901999D01*
X112218814Y-69901999D02*
X112409290Y-69759142D01*
X111625142Y-80623580D02*
X111577523Y-80671200D01*
X111577523Y-80671200D02*
X111434666Y-80718819D01*
X111434666Y-80718819D02*
X111339428Y-80718819D01*
X111339428Y-80718819D02*
X111196571Y-80671200D01*
X111196571Y-80671200D02*
X111101333Y-80575961D01*
X111101333Y-80575961D02*
X111053714Y-80480723D01*
X111053714Y-80480723D02*
X111006095Y-80290247D01*
X111006095Y-80290247D02*
X111006095Y-80147390D01*
X111006095Y-80147390D02*
X111053714Y-79956914D01*
X111053714Y-79956914D02*
X111101333Y-79861676D01*
X111101333Y-79861676D02*
X111196571Y-79766438D01*
X111196571Y-79766438D02*
X111339428Y-79718819D01*
X111339428Y-79718819D02*
X111434666Y-79718819D01*
X111434666Y-79718819D02*
X111577523Y-79766438D01*
X111577523Y-79766438D02*
X111625142Y-79814057D01*
X112577523Y-80718819D02*
X112006095Y-80718819D01*
X112291809Y-80718819D02*
X112291809Y-79718819D01*
X112291809Y-79718819D02*
X112196571Y-79861676D01*
X112196571Y-79861676D02*
X112101333Y-79956914D01*
X112101333Y-79956914D02*
X112006095Y-80004533D01*
X113196571Y-79718819D02*
X113291809Y-79718819D01*
X113291809Y-79718819D02*
X113387047Y-79766438D01*
X113387047Y-79766438D02*
X113434666Y-79814057D01*
X113434666Y-79814057D02*
X113482285Y-79909295D01*
X113482285Y-79909295D02*
X113529904Y-80099771D01*
X113529904Y-80099771D02*
X113529904Y-80337866D01*
X113529904Y-80337866D02*
X113482285Y-80528342D01*
X113482285Y-80528342D02*
X113434666Y-80623580D01*
X113434666Y-80623580D02*
X113387047Y-80671200D01*
X113387047Y-80671200D02*
X113291809Y-80718819D01*
X113291809Y-80718819D02*
X113196571Y-80718819D01*
X113196571Y-80718819D02*
X113101333Y-80671200D01*
X113101333Y-80671200D02*
X113053714Y-80623580D01*
X113053714Y-80623580D02*
X113006095Y-80528342D01*
X113006095Y-80528342D02*
X112958476Y-80337866D01*
X112958476Y-80337866D02*
X112958476Y-80099771D01*
X112958476Y-80099771D02*
X113006095Y-79909295D01*
X113006095Y-79909295D02*
X113053714Y-79814057D01*
X113053714Y-79814057D02*
X113101333Y-79766438D01*
X113101333Y-79766438D02*
X113196571Y-79718819D01*
X102870095Y-76670819D02*
X102870095Y-77480342D01*
X102870095Y-77480342D02*
X102917714Y-77575580D01*
X102917714Y-77575580D02*
X102965333Y-77623200D01*
X102965333Y-77623200D02*
X103060571Y-77670819D01*
X103060571Y-77670819D02*
X103251047Y-77670819D01*
X103251047Y-77670819D02*
X103346285Y-77623200D01*
X103346285Y-77623200D02*
X103393904Y-77575580D01*
X103393904Y-77575580D02*
X103441523Y-77480342D01*
X103441523Y-77480342D02*
X103441523Y-76670819D01*
X103870095Y-76766057D02*
X103917714Y-76718438D01*
X103917714Y-76718438D02*
X104012952Y-76670819D01*
X104012952Y-76670819D02*
X104251047Y-76670819D01*
X104251047Y-76670819D02*
X104346285Y-76718438D01*
X104346285Y-76718438D02*
X104393904Y-76766057D01*
X104393904Y-76766057D02*
X104441523Y-76861295D01*
X104441523Y-76861295D02*
X104441523Y-76956533D01*
X104441523Y-76956533D02*
X104393904Y-77099390D01*
X104393904Y-77099390D02*
X103822476Y-77670819D01*
X103822476Y-77670819D02*
X104441523Y-77670819D01*
X111204476Y-103594819D02*
X111871142Y-104594819D01*
X111871142Y-103594819D02*
X111204476Y-104594819D01*
X112775904Y-104594819D02*
X112204476Y-104594819D01*
X112490190Y-104594819D02*
X112490190Y-103594819D01*
X112490190Y-103594819D02*
X112394952Y-103737676D01*
X112394952Y-103737676D02*
X112299714Y-103832914D01*
X112299714Y-103832914D02*
X112204476Y-103880533D01*
X104474580Y-105830666D02*
X104522200Y-105878285D01*
X104522200Y-105878285D02*
X104569819Y-106021142D01*
X104569819Y-106021142D02*
X104569819Y-106116380D01*
X104569819Y-106116380D02*
X104522200Y-106259237D01*
X104522200Y-106259237D02*
X104426961Y-106354475D01*
X104426961Y-106354475D02*
X104331723Y-106402094D01*
X104331723Y-106402094D02*
X104141247Y-106449713D01*
X104141247Y-106449713D02*
X103998390Y-106449713D01*
X103998390Y-106449713D02*
X103807914Y-106402094D01*
X103807914Y-106402094D02*
X103712676Y-106354475D01*
X103712676Y-106354475D02*
X103617438Y-106259237D01*
X103617438Y-106259237D02*
X103569819Y-106116380D01*
X103569819Y-106116380D02*
X103569819Y-106021142D01*
X103569819Y-106021142D02*
X103617438Y-105878285D01*
X103617438Y-105878285D02*
X103665057Y-105830666D01*
X104569819Y-105354475D02*
X104569819Y-105163999D01*
X104569819Y-105163999D02*
X104522200Y-105068761D01*
X104522200Y-105068761D02*
X104474580Y-105021142D01*
X104474580Y-105021142D02*
X104331723Y-104925904D01*
X104331723Y-104925904D02*
X104141247Y-104878285D01*
X104141247Y-104878285D02*
X103760295Y-104878285D01*
X103760295Y-104878285D02*
X103665057Y-104925904D01*
X103665057Y-104925904D02*
X103617438Y-104973523D01*
X103617438Y-104973523D02*
X103569819Y-105068761D01*
X103569819Y-105068761D02*
X103569819Y-105259237D01*
X103569819Y-105259237D02*
X103617438Y-105354475D01*
X103617438Y-105354475D02*
X103665057Y-105402094D01*
X103665057Y-105402094D02*
X103760295Y-105449713D01*
X103760295Y-105449713D02*
X103998390Y-105449713D01*
X103998390Y-105449713D02*
X104093628Y-105402094D01*
X104093628Y-105402094D02*
X104141247Y-105354475D01*
X104141247Y-105354475D02*
X104188866Y-105259237D01*
X104188866Y-105259237D02*
X104188866Y-105068761D01*
X104188866Y-105068761D02*
X104141247Y-104973523D01*
X104141247Y-104973523D02*
X104093628Y-104925904D01*
X104093628Y-104925904D02*
X103998390Y-104878285D01*
X111299666Y-109182819D02*
X111299666Y-109897104D01*
X111299666Y-109897104D02*
X111252047Y-110039961D01*
X111252047Y-110039961D02*
X111156809Y-110135200D01*
X111156809Y-110135200D02*
X111013952Y-110182819D01*
X111013952Y-110182819D02*
X110918714Y-110182819D01*
X111680619Y-109182819D02*
X112299666Y-109182819D01*
X112299666Y-109182819D02*
X111966333Y-109563771D01*
X111966333Y-109563771D02*
X112109190Y-109563771D01*
X112109190Y-109563771D02*
X112204428Y-109611390D01*
X112204428Y-109611390D02*
X112252047Y-109659009D01*
X112252047Y-109659009D02*
X112299666Y-109754247D01*
X112299666Y-109754247D02*
X112299666Y-109992342D01*
X112299666Y-109992342D02*
X112252047Y-110087580D01*
X112252047Y-110087580D02*
X112204428Y-110135200D01*
X112204428Y-110135200D02*
X112109190Y-110182819D01*
X112109190Y-110182819D02*
X111823476Y-110182819D01*
X111823476Y-110182819D02*
X111728238Y-110135200D01*
X111728238Y-110135200D02*
X111680619Y-110087580D01*
X102736819Y-104052666D02*
X102260628Y-104385999D01*
X102736819Y-104624094D02*
X101736819Y-104624094D01*
X101736819Y-104624094D02*
X101736819Y-104243142D01*
X101736819Y-104243142D02*
X101784438Y-104147904D01*
X101784438Y-104147904D02*
X101832057Y-104100285D01*
X101832057Y-104100285D02*
X101927295Y-104052666D01*
X101927295Y-104052666D02*
X102070152Y-104052666D01*
X102070152Y-104052666D02*
X102165390Y-104100285D01*
X102165390Y-104100285D02*
X102213009Y-104147904D01*
X102213009Y-104147904D02*
X102260628Y-104243142D01*
X102260628Y-104243142D02*
X102260628Y-104624094D01*
X101736819Y-103719332D02*
X101736819Y-103100285D01*
X101736819Y-103100285D02*
X102117771Y-103433618D01*
X102117771Y-103433618D02*
X102117771Y-103290761D01*
X102117771Y-103290761D02*
X102165390Y-103195523D01*
X102165390Y-103195523D02*
X102213009Y-103147904D01*
X102213009Y-103147904D02*
X102308247Y-103100285D01*
X102308247Y-103100285D02*
X102546342Y-103100285D01*
X102546342Y-103100285D02*
X102641580Y-103147904D01*
X102641580Y-103147904D02*
X102689200Y-103195523D01*
X102689200Y-103195523D02*
X102736819Y-103290761D01*
X102736819Y-103290761D02*
X102736819Y-103576475D01*
X102736819Y-103576475D02*
X102689200Y-103671713D01*
X102689200Y-103671713D02*
X102641580Y-103719332D01*
X100689580Y-90336666D02*
X100737200Y-90384285D01*
X100737200Y-90384285D02*
X100784819Y-90527142D01*
X100784819Y-90527142D02*
X100784819Y-90622380D01*
X100784819Y-90622380D02*
X100737200Y-90765237D01*
X100737200Y-90765237D02*
X100641961Y-90860475D01*
X100641961Y-90860475D02*
X100546723Y-90908094D01*
X100546723Y-90908094D02*
X100356247Y-90955713D01*
X100356247Y-90955713D02*
X100213390Y-90955713D01*
X100213390Y-90955713D02*
X100022914Y-90908094D01*
X100022914Y-90908094D02*
X99927676Y-90860475D01*
X99927676Y-90860475D02*
X99832438Y-90765237D01*
X99832438Y-90765237D02*
X99784819Y-90622380D01*
X99784819Y-90622380D02*
X99784819Y-90527142D01*
X99784819Y-90527142D02*
X99832438Y-90384285D01*
X99832438Y-90384285D02*
X99880057Y-90336666D01*
X99784819Y-90003332D02*
X99784819Y-89384285D01*
X99784819Y-89384285D02*
X100165771Y-89717618D01*
X100165771Y-89717618D02*
X100165771Y-89574761D01*
X100165771Y-89574761D02*
X100213390Y-89479523D01*
X100213390Y-89479523D02*
X100261009Y-89431904D01*
X100261009Y-89431904D02*
X100356247Y-89384285D01*
X100356247Y-89384285D02*
X100594342Y-89384285D01*
X100594342Y-89384285D02*
X100689580Y-89431904D01*
X100689580Y-89431904D02*
X100737200Y-89479523D01*
X100737200Y-89479523D02*
X100784819Y-89574761D01*
X100784819Y-89574761D02*
X100784819Y-89860475D01*
X100784819Y-89860475D02*
X100737200Y-89955713D01*
X100737200Y-89955713D02*
X100689580Y-90003332D01*
X117184819Y-81666666D02*
X116708628Y-81999999D01*
X117184819Y-82238094D02*
X116184819Y-82238094D01*
X116184819Y-82238094D02*
X116184819Y-81857142D01*
X116184819Y-81857142D02*
X116232438Y-81761904D01*
X116232438Y-81761904D02*
X116280057Y-81714285D01*
X116280057Y-81714285D02*
X116375295Y-81666666D01*
X116375295Y-81666666D02*
X116518152Y-81666666D01*
X116518152Y-81666666D02*
X116613390Y-81714285D01*
X116613390Y-81714285D02*
X116661009Y-81761904D01*
X116661009Y-81761904D02*
X116708628Y-81857142D01*
X116708628Y-81857142D02*
X116708628Y-82238094D01*
X116518152Y-80809523D02*
X117184819Y-80809523D01*
X116137200Y-81047618D02*
X116851485Y-81285713D01*
X116851485Y-81285713D02*
X116851485Y-80666666D01*
X110690819Y-77636666D02*
X110214628Y-77969999D01*
X110690819Y-78208094D02*
X109690819Y-78208094D01*
X109690819Y-78208094D02*
X109690819Y-77827142D01*
X109690819Y-77827142D02*
X109738438Y-77731904D01*
X109738438Y-77731904D02*
X109786057Y-77684285D01*
X109786057Y-77684285D02*
X109881295Y-77636666D01*
X109881295Y-77636666D02*
X110024152Y-77636666D01*
X110024152Y-77636666D02*
X110119390Y-77684285D01*
X110119390Y-77684285D02*
X110167009Y-77731904D01*
X110167009Y-77731904D02*
X110214628Y-77827142D01*
X110214628Y-77827142D02*
X110214628Y-78208094D01*
X109690819Y-76731904D02*
X109690819Y-77208094D01*
X109690819Y-77208094D02*
X110167009Y-77255713D01*
X110167009Y-77255713D02*
X110119390Y-77208094D01*
X110119390Y-77208094D02*
X110071771Y-77112856D01*
X110071771Y-77112856D02*
X110071771Y-76874761D01*
X110071771Y-76874761D02*
X110119390Y-76779523D01*
X110119390Y-76779523D02*
X110167009Y-76731904D01*
X110167009Y-76731904D02*
X110262247Y-76684285D01*
X110262247Y-76684285D02*
X110500342Y-76684285D01*
X110500342Y-76684285D02*
X110595580Y-76731904D01*
X110595580Y-76731904D02*
X110643200Y-76779523D01*
X110643200Y-76779523D02*
X110690819Y-76874761D01*
X110690819Y-76874761D02*
X110690819Y-77112856D01*
X110690819Y-77112856D02*
X110643200Y-77208094D01*
X110643200Y-77208094D02*
X110595580Y-77255713D01*
D12*
%TO.C,C2*%
X106787733Y-101344000D02*
X107080267Y-101344000D01*
X106787733Y-102364000D02*
X107080267Y-102364000D01*
%TO.C,R10*%
X113269500Y-116636076D02*
X113269500Y-117145524D01*
X114314500Y-116636076D02*
X114314500Y-117145524D01*
%TO.C,C6*%
X113521267Y-83990000D02*
X113228733Y-83990000D01*
X113521267Y-85010000D02*
X113228733Y-85010000D01*
%TO.C,R7*%
X107604724Y-73391500D02*
X107095276Y-73391500D01*
X107604724Y-74436500D02*
X107095276Y-74436500D01*
%TO.C,R8*%
X103029724Y-73391500D02*
X102520276Y-73391500D01*
X103029724Y-74436500D02*
X102520276Y-74436500D01*
%TO.C,R9*%
X114945900Y-116637976D02*
X114945900Y-117147424D01*
X115990900Y-116637976D02*
X115990900Y-117147424D01*
%TO.C,C5*%
X103016267Y-84040000D02*
X102723733Y-84040000D01*
X103016267Y-85060000D02*
X102723733Y-85060000D01*
%TO.C,R1*%
X101918654Y-79460420D02*
X101558420Y-79820654D01*
X102657580Y-80199346D02*
X102297346Y-80559580D01*
D11*
%TO.C,U1*%
X103029000Y-87165000D02*
X103029000Y-87740000D01*
X103029000Y-87165000D02*
X103704000Y-87165000D01*
X103029000Y-87740000D02*
X101754000Y-87740000D01*
X103029000Y-97515000D02*
X103029000Y-96840000D01*
X103029000Y-97515000D02*
X103704000Y-97515000D01*
X113379000Y-87165000D02*
X112704000Y-87165000D01*
X113379000Y-87165000D02*
X113379000Y-87840000D01*
X113379000Y-97515000D02*
X112704000Y-97515000D01*
X113379000Y-97515000D02*
X113379000Y-96840000D01*
D12*
%TO.C,LED2*%
X95676000Y-113674000D02*
X102026000Y-113674000D01*
X95676000Y-117994000D02*
X95676000Y-113674000D01*
X102026000Y-113674000D02*
X102026000Y-117994000D01*
X102026000Y-117994000D02*
X95676000Y-117994000D01*
%TO.C,C4*%
X107041733Y-81930000D02*
X107334267Y-81930000D01*
X107041733Y-82950000D02*
X107334267Y-82950000D01*
%TO.C,R2*%
X103188654Y-80730420D02*
X102828420Y-81090654D01*
X103927580Y-81469346D02*
X103567346Y-81829580D01*
%TO.C,C8*%
X107041733Y-83510000D02*
X107334267Y-83510000D01*
X107041733Y-84530000D02*
X107334267Y-84530000D01*
%TO.C,R6*%
X113820276Y-71027500D02*
X114329724Y-71027500D01*
X113820276Y-72072500D02*
X114329724Y-72072500D01*
%TO.C,J2*%
X101400000Y-69075000D02*
X101400000Y-67075000D01*
X110800000Y-64415000D02*
X101400000Y-64415000D01*
X110800000Y-69075000D02*
X110800000Y-67075000D01*
%TO.C,LED3*%
X95676000Y-106562000D02*
X102026000Y-106562000D01*
X95676000Y-110882000D02*
X95676000Y-106562000D01*
X102026000Y-106562000D02*
X102026000Y-110882000D01*
X102026000Y-110882000D02*
X95676000Y-110882000D01*
%TO.C,J1*%
X118500000Y-64500000D02*
X118500000Y-119500000D01*
X118500000Y-64500000D02*
X133500000Y-64500000D01*
X118500000Y-119500000D02*
X133500000Y-119500000D01*
X126644999Y-105080000D02*
X126645000Y-78920000D01*
X133500000Y-64500000D02*
X133500000Y-119500000D01*
%TO.C,C7*%
X115568000Y-96443733D02*
X115568000Y-96736267D01*
X116588000Y-96443733D02*
X116588000Y-96736267D01*
%TO.C,C1*%
X110382267Y-101344000D02*
X110089733Y-101344000D01*
X110382267Y-102364000D02*
X110089733Y-102364000D01*
D13*
%TO.C,LED1*%
X112806800Y-68601402D02*
X112806800Y-67138598D01*
X115753200Y-68601402D02*
X115753200Y-67138598D01*
D12*
X114817047Y-65163693D02*
X113737047Y-65193693D01*
X114287047Y-64623693D01*
X114817047Y-65163693D01*
G36*
X114817047Y-65163693D02*
G01*
X113737047Y-65193693D01*
X114287047Y-64623693D01*
X114817047Y-65163693D01*
G37*
%TO.C,C10*%
X107041733Y-80350000D02*
X107334267Y-80350000D01*
X107041733Y-81370000D02*
X107334267Y-81370000D01*
%TO.C,U2*%
X105120000Y-77470000D02*
X105120000Y-76670000D01*
X105120000Y-77470000D02*
X105120000Y-78270000D01*
X108240000Y-77470000D02*
X108240000Y-75670000D01*
X108240000Y-77470000D02*
X108240000Y-78270000D01*
%TO.C,X1*%
X110650000Y-102906000D02*
X105250000Y-102906000D01*
X110650000Y-107406000D02*
X110650000Y-102906000D01*
%TO.C,C9*%
X103630000Y-100945733D02*
X103630000Y-101238267D01*
X104650000Y-100945733D02*
X104650000Y-101238267D01*
%TO.C,J3*%
X105350000Y-108271000D02*
X106680000Y-108271000D01*
X105350000Y-109601000D02*
X105350000Y-108271000D01*
X105350000Y-110871000D02*
X105350000Y-116011000D01*
X105350000Y-110871000D02*
X107950000Y-110871000D01*
X105350000Y-116011000D02*
X110550000Y-116011000D01*
X107950000Y-108271000D02*
X110550000Y-108271000D01*
X107950000Y-110871000D02*
X107950000Y-108271000D01*
X110550000Y-108271000D02*
X110550000Y-116011000D01*
%TO.C,R3*%
X101839500Y-101346724D02*
X101839500Y-100837276D01*
X102884500Y-101346724D02*
X102884500Y-100837276D01*
%TO.C,C3*%
X99820000Y-93071733D02*
X99820000Y-93364267D01*
X100840000Y-93071733D02*
X100840000Y-93364267D01*
%TO.C,R4*%
X116152500Y-83895276D02*
X116152500Y-84404724D01*
X117197500Y-83895276D02*
X117197500Y-84404724D01*
%TO.C,R5*%
X109727500Y-74854724D02*
X109727500Y-74345276D01*
X110772500Y-74854724D02*
X110772500Y-74345276D01*
%TD*%
M02*
