%TF.GenerationSoftware,KiCad,Pcbnew,8.0.5*%
%TF.CreationDate,2024-10-26T16:59:59+13:00*%
%TF.ProjectId,usb_gpib_v2,7573625f-6770-4696-925f-76322e6b6963,C*%
%TF.SameCoordinates,Original*%
%TF.FileFunction,Copper,L2,Bot*%
%TF.FilePolarity,Positive*%
%FSLAX46Y46*%
G04 Gerber Fmt 4.6, Leading zero omitted, Abs format (unit mm)*
G04 Created by KiCad (PCBNEW 8.0.5) date 2024-10-26 16:59:59*
%MOMM*%
%LPD*%
G01*
G04 APERTURE LIST*
%TA.AperFunction,ComponentPad*%
%ADD10O,1.800000X1.300000*%
%TD*%
%TA.AperFunction,ComponentPad*%
%ADD11O,1.000000X2.100000*%
%TD*%
%TA.AperFunction,ComponentPad*%
%ADD12O,1.000000X1.600000*%
%TD*%
%TA.AperFunction,ComponentPad*%
%ADD13O,2.000000X1.400000*%
%TD*%
%TA.AperFunction,ComponentPad*%
%ADD14C,3.700000*%
%TD*%
%TA.AperFunction,ComponentPad*%
%ADD15R,1.700000X1.700000*%
%TD*%
%TA.AperFunction,ComponentPad*%
%ADD16O,1.700000X1.700000*%
%TD*%
%TA.AperFunction,ViaPad*%
%ADD17C,0.800000*%
%TD*%
%TA.AperFunction,Conductor*%
%ADD18C,0.500000*%
%TD*%
%TA.AperFunction,Conductor*%
%ADD19C,0.400000*%
%TD*%
%TA.AperFunction,Conductor*%
%ADD20C,0.250000*%
%TD*%
G04 APERTURE END LIST*
D10*
%TO.P,LED2,1,K*%
%TO.N,GND*%
X101092000Y-115296000D03*
%TO.P,LED2,2,A*%
%TO.N,/LED_GR*%
X101092000Y-112766000D03*
%TD*%
D11*
%TO.P,J2,S1,SHIELD*%
%TO.N,GND*%
X110420000Y-70305000D03*
D12*
X110420000Y-66125000D03*
D11*
X101780000Y-70305000D03*
D12*
X101780000Y-66125000D03*
%TD*%
D10*
%TO.P,LED3,1,K*%
%TO.N,GND*%
X101092000Y-110770000D03*
%TO.P,LED3,2,A*%
%TO.N,/LED_RD*%
X101092000Y-108240000D03*
%TD*%
D13*
%TO.P,J1,1,Pin_1*%
%TO.N,DIO1*%
X120855000Y-103880000D03*
%TO.P,J1,2,Pin_2*%
%TO.N,DIO2*%
X120855000Y-101720000D03*
%TO.P,J1,3,Pin_3*%
%TO.N,DIO3*%
X120855000Y-99560000D03*
%TO.P,J1,4,Pin_4*%
%TO.N,DIO4*%
X120855000Y-97400000D03*
%TO.P,J1,5,Pin_5*%
%TO.N,EOI*%
X120855000Y-95240000D03*
%TO.P,J1,6,Pin_6*%
%TO.N,DAV*%
X120855000Y-93080000D03*
%TO.P,J1,7,Pin_7*%
%TO.N,NRFD*%
X120855000Y-90920000D03*
%TO.P,J1,8,Pin_8*%
%TO.N,NDAC*%
X120855000Y-88760000D03*
%TO.P,J1,9,Pin_9*%
%TO.N,IFC*%
X120855000Y-86600000D03*
%TO.P,J1,10,Pin_10*%
%TO.N,SRQ*%
X120855000Y-84440000D03*
%TO.P,J1,11,Pin_11*%
%TO.N,ATN*%
X120855000Y-82280000D03*
%TO.P,J1,12,Pin_12*%
%TO.N,GND*%
X120855000Y-80120000D03*
%TO.P,J1,13,Pin_13*%
%TO.N,DIO5*%
X125145000Y-103880000D03*
%TO.P,J1,14,Pin_14*%
%TO.N,DIO6*%
X125145000Y-101720000D03*
%TO.P,J1,15,Pin_15*%
%TO.N,DIO7*%
X125145000Y-99560000D03*
%TO.P,J1,16,Pin_16*%
%TO.N,DIO8*%
X125145000Y-97400000D03*
%TO.P,J1,17,Pin_17*%
%TO.N,REN*%
X125145000Y-95240000D03*
%TO.P,J1,18,Pin_18*%
%TO.N,GND*%
X125145000Y-93080000D03*
%TO.P,J1,19,Pin_19*%
X125145000Y-90920000D03*
%TO.P,J1,20,Pin_20*%
X125145000Y-88760000D03*
%TO.P,J1,21,Pin_21*%
X125145000Y-86600000D03*
%TO.P,J1,22,Pin_22*%
X125145000Y-84440000D03*
%TO.P,J1,23,Pin_23*%
X125145000Y-82280000D03*
%TO.P,J1,24,Pin_24*%
X125145000Y-80120000D03*
D14*
%TO.P,J1,SH,Shield*%
X123000000Y-115400000D03*
X123000000Y-68600000D03*
%TD*%
D15*
%TO.P,J3,1,MISO*%
%TO.N,CIPO*%
X106680000Y-109601000D03*
D16*
%TO.P,J3,2,VCC*%
%TO.N,VBUS*%
X109220000Y-109601000D03*
%TO.P,J3,3,SCK*%
%TO.N,SCLK*%
X106680000Y-112141000D03*
%TO.P,J3,4,MOSI*%
%TO.N,COPI*%
X109220000Y-112141000D03*
%TO.P,J3,5,~{RST}*%
%TO.N,~{RESET}*%
X106680000Y-114681000D03*
%TO.P,J3,6,GND*%
%TO.N,GND*%
X109220000Y-114681000D03*
%TD*%
D17*
%TO.N,GND*%
X101900000Y-75312500D03*
X106680000Y-74930000D03*
X122936000Y-88900000D03*
X129500000Y-95300000D03*
X131275000Y-67600000D03*
X130775000Y-117550000D03*
X100076000Y-70358000D03*
X104800000Y-67700000D03*
X99314000Y-95504000D03*
X106426000Y-100330000D03*
X107275000Y-67700000D03*
X109474000Y-82420000D03*
X114730000Y-86410000D03*
X129525000Y-116450000D03*
X106050000Y-67700000D03*
X103124000Y-83312000D03*
X113919000Y-97536000D03*
X106050000Y-68900000D03*
X122936000Y-84582000D03*
X106426000Y-88138000D03*
X122936000Y-90932000D03*
X106426000Y-90297000D03*
X100050000Y-117525000D03*
X130025000Y-66500000D03*
X112014000Y-96266000D03*
X100076000Y-72136000D03*
X110998000Y-72390000D03*
X104800000Y-68900000D03*
X129500000Y-86625000D03*
X99568000Y-106680000D03*
X119253000Y-85471000D03*
X101300000Y-117525000D03*
X126492000Y-76200000D03*
X113060000Y-102900000D03*
X107188000Y-96266000D03*
X101900000Y-76562500D03*
X114700000Y-102925000D03*
X123000000Y-104000000D03*
X122936000Y-93218000D03*
X119140000Y-110880000D03*
X122936000Y-86614000D03*
X104140000Y-96266000D03*
X122936000Y-80264000D03*
X116332000Y-102925000D03*
X106426000Y-91440000D03*
X104140000Y-90170000D03*
X106426000Y-89154000D03*
X117602000Y-86360000D03*
X100050000Y-118625000D03*
X101300000Y-118625000D03*
X99568000Y-82550000D03*
X111506000Y-106426000D03*
X122990000Y-104950000D03*
X131275000Y-66500000D03*
X117680000Y-110920000D03*
X113030000Y-101854000D03*
X111506000Y-88392000D03*
X117602000Y-97536000D03*
X129525000Y-117550000D03*
X129500000Y-90975000D03*
X102108000Y-86106000D03*
X130775000Y-116450000D03*
X109474000Y-80900000D03*
X98806000Y-93980000D03*
X119126000Y-76454000D03*
X130025000Y-67600000D03*
X122936000Y-82296000D03*
X107300000Y-68900000D03*
X129425000Y-82296000D03*
X104140000Y-91440000D03*
X129500000Y-99625000D03*
X104394000Y-104140000D03*
%TO.N,VBUS*%
X105250000Y-92296000D03*
X105664000Y-96266000D03*
X117210076Y-95759862D03*
X115537500Y-84937500D03*
X105250000Y-85090000D03*
%TO.N,DIO2*%
X117348000Y-100635647D03*
%TO.N,DIO3*%
X116459355Y-99911147D03*
%TO.N,DIO4*%
X115570000Y-99186647D03*
%TO.N,LED_G*%
X110250000Y-79775000D03*
X111949500Y-81500000D03*
%TD*%
D18*
%TO.N,VBUS*%
X105250000Y-92296000D02*
X105250000Y-95852000D01*
D19*
X116250000Y-85650000D02*
X115537500Y-84937500D01*
X117210076Y-95759862D02*
X116250000Y-94799786D01*
D18*
X105250000Y-95852000D02*
X105664000Y-96266000D01*
D19*
X105250000Y-85090000D02*
X105840000Y-84500000D01*
X116250000Y-94799786D02*
X116250000Y-85650000D01*
X105840000Y-84500000D02*
X115100000Y-84500000D01*
D18*
X105250000Y-85090000D02*
X105250000Y-92296000D01*
D19*
X115100000Y-84500000D02*
X115537500Y-84937500D01*
D20*
%TO.N,DIO2*%
X120262000Y-101720000D02*
X120855000Y-101720000D01*
X117348000Y-100635647D02*
X119177647Y-100635647D01*
X119177647Y-100635647D02*
X120262000Y-101720000D01*
%TO.N,DIO3*%
X116459355Y-99911147D02*
X119036853Y-99911147D01*
X119036853Y-99911147D02*
X119388000Y-99560000D01*
X119388000Y-99560000D02*
X120855000Y-99560000D01*
%TO.N,DIO4*%
X118745353Y-99186647D02*
X120532000Y-97400000D01*
X120532000Y-97400000D02*
X120855000Y-97400000D01*
X115570000Y-99186647D02*
X118745353Y-99186647D01*
%TO.N,LED_G*%
X111949500Y-81500000D02*
X110250000Y-79800500D01*
X110250000Y-79800500D02*
X110250000Y-79775000D01*
%TD*%
%TA.AperFunction,Conductor*%
%TO.N,GND*%
G36*
X125399000Y-92649297D02*
G01*
X125337993Y-92614075D01*
X125210826Y-92580000D01*
X125079174Y-92580000D01*
X124952007Y-92614075D01*
X124891000Y-92649297D01*
X124891000Y-91350702D01*
X124952007Y-91385925D01*
X125079174Y-91420000D01*
X125210826Y-91420000D01*
X125337993Y-91385925D01*
X125399000Y-91350702D01*
X125399000Y-92649297D01*
G37*
%TD.AperFunction*%
%TA.AperFunction,Conductor*%
G36*
X125399000Y-90489297D02*
G01*
X125337993Y-90454075D01*
X125210826Y-90420000D01*
X125079174Y-90420000D01*
X124952007Y-90454075D01*
X124891000Y-90489297D01*
X124891000Y-89190702D01*
X124952007Y-89225925D01*
X125079174Y-89260000D01*
X125210826Y-89260000D01*
X125337993Y-89225925D01*
X125399000Y-89190702D01*
X125399000Y-90489297D01*
G37*
%TD.AperFunction*%
%TA.AperFunction,Conductor*%
G36*
X125399000Y-88329297D02*
G01*
X125337993Y-88294075D01*
X125210826Y-88260000D01*
X125079174Y-88260000D01*
X124952007Y-88294075D01*
X124891000Y-88329297D01*
X124891000Y-87030702D01*
X124952007Y-87065925D01*
X125079174Y-87100000D01*
X125210826Y-87100000D01*
X125337993Y-87065925D01*
X125399000Y-87030702D01*
X125399000Y-88329297D01*
G37*
%TD.AperFunction*%
%TA.AperFunction,Conductor*%
G36*
X125399000Y-86169297D02*
G01*
X125337993Y-86134075D01*
X125210826Y-86100000D01*
X125079174Y-86100000D01*
X124952007Y-86134075D01*
X124891000Y-86169297D01*
X124891000Y-84870702D01*
X124952007Y-84905925D01*
X125079174Y-84940000D01*
X125210826Y-84940000D01*
X125337993Y-84905925D01*
X125399000Y-84870702D01*
X125399000Y-86169297D01*
G37*
%TD.AperFunction*%
%TA.AperFunction,Conductor*%
G36*
X125399000Y-84009297D02*
G01*
X125337993Y-83974075D01*
X125210826Y-83940000D01*
X125079174Y-83940000D01*
X124952007Y-83974075D01*
X124891000Y-84009297D01*
X124891000Y-82710702D01*
X124952007Y-82745925D01*
X125079174Y-82780000D01*
X125210826Y-82780000D01*
X125337993Y-82745925D01*
X125399000Y-82710702D01*
X125399000Y-84009297D01*
G37*
%TD.AperFunction*%
%TA.AperFunction,Conductor*%
G36*
X125399000Y-81849297D02*
G01*
X125337993Y-81814075D01*
X125210826Y-81780000D01*
X125079174Y-81780000D01*
X124952007Y-81814075D01*
X124891000Y-81849297D01*
X124891000Y-80550702D01*
X124952007Y-80585925D01*
X125079174Y-80620000D01*
X125210826Y-80620000D01*
X125337993Y-80585925D01*
X125399000Y-80550702D01*
X125399000Y-81849297D01*
G37*
%TD.AperFunction*%
%TA.AperFunction,Conductor*%
G36*
X133606621Y-64324002D02*
G01*
X133653114Y-64377658D01*
X133664500Y-64430000D01*
X133664500Y-119570000D01*
X133644498Y-119638121D01*
X133590842Y-119684614D01*
X133538500Y-119696000D01*
X96894000Y-119696000D01*
X96825879Y-119675998D01*
X96779386Y-119622342D01*
X96768000Y-119570000D01*
X96768000Y-115042000D01*
X99709794Y-115042000D01*
X100661297Y-115042000D01*
X100626075Y-115103007D01*
X100592000Y-115230174D01*
X100592000Y-115361826D01*
X100626075Y-115488993D01*
X100661297Y-115550000D01*
X99709795Y-115550000D01*
X99712513Y-115567165D01*
X99768837Y-115740513D01*
X99768840Y-115740519D01*
X99851591Y-115902927D01*
X99958729Y-116050389D01*
X99958731Y-116050392D01*
X100087607Y-116179268D01*
X100087610Y-116179270D01*
X100235072Y-116286408D01*
X100397480Y-116369159D01*
X100397486Y-116369162D01*
X100570830Y-116425484D01*
X100570826Y-116425484D01*
X100750866Y-116454000D01*
X100838000Y-116454000D01*
X100838000Y-115726702D01*
X100899007Y-115761925D01*
X101026174Y-115796000D01*
X101157826Y-115796000D01*
X101284993Y-115761925D01*
X101346000Y-115726702D01*
X101346000Y-116454000D01*
X101433134Y-116454000D01*
X101613171Y-116425484D01*
X101786513Y-116369162D01*
X101786519Y-116369159D01*
X101948927Y-116286408D01*
X102096389Y-116179270D01*
X102096392Y-116179268D01*
X102225268Y-116050392D01*
X102225270Y-116050389D01*
X102332408Y-115902927D01*
X102415159Y-115740519D01*
X102415162Y-115740513D01*
X102471486Y-115567165D01*
X102474205Y-115550000D01*
X101522703Y-115550000D01*
X101557925Y-115488993D01*
X101592000Y-115361826D01*
X101592000Y-115230174D01*
X101557925Y-115103007D01*
X101522703Y-115042000D01*
X102474205Y-115042000D01*
X102471486Y-115024834D01*
X102415162Y-114851486D01*
X102415159Y-114851480D01*
X102332408Y-114689072D01*
X102225270Y-114541610D01*
X102225268Y-114541607D01*
X102096392Y-114412731D01*
X102096389Y-114412729D01*
X101948927Y-114305591D01*
X101786519Y-114222840D01*
X101786513Y-114222837D01*
X101613169Y-114166515D01*
X101613173Y-114166515D01*
X101433134Y-114138000D01*
X101346000Y-114138000D01*
X101346000Y-114865297D01*
X101284993Y-114830075D01*
X101157826Y-114796000D01*
X101026174Y-114796000D01*
X100899007Y-114830075D01*
X100838000Y-114865297D01*
X100838000Y-114138000D01*
X100750866Y-114138000D01*
X100570828Y-114166515D01*
X100397486Y-114222837D01*
X100397480Y-114222840D01*
X100235072Y-114305591D01*
X100087610Y-114412729D01*
X100087607Y-114412731D01*
X99958731Y-114541607D01*
X99958729Y-114541610D01*
X99851591Y-114689072D01*
X99768840Y-114851480D01*
X99768837Y-114851486D01*
X99712513Y-115024834D01*
X99709794Y-115042000D01*
X96768000Y-115042000D01*
X96768000Y-110516000D01*
X99709794Y-110516000D01*
X100661297Y-110516000D01*
X100626075Y-110577007D01*
X100592000Y-110704174D01*
X100592000Y-110835826D01*
X100626075Y-110962993D01*
X100661297Y-111024000D01*
X99709795Y-111024000D01*
X99712513Y-111041165D01*
X99768837Y-111214513D01*
X99768840Y-111214519D01*
X99851591Y-111376927D01*
X99958729Y-111524389D01*
X99958731Y-111524392D01*
X100087607Y-111653268D01*
X100087610Y-111653270D01*
X100235072Y-111760408D01*
X100271061Y-111778745D01*
X100322677Y-111827493D01*
X100339744Y-111896407D01*
X100316844Y-111963609D01*
X100283863Y-111995777D01*
X100236098Y-112027692D01*
X100236089Y-112027700D01*
X100103700Y-112160089D01*
X100103695Y-112160096D01*
X99999678Y-112315769D01*
X99928029Y-112488743D01*
X99928027Y-112488748D01*
X99891500Y-112672381D01*
X99891500Y-112672384D01*
X99891500Y-112859616D01*
X99928027Y-113043251D01*
X99999678Y-113216231D01*
X100103698Y-113371908D01*
X100236092Y-113504302D01*
X100391769Y-113608322D01*
X100564749Y-113679973D01*
X100748384Y-113716500D01*
X100748385Y-113716500D01*
X101435615Y-113716500D01*
X101435616Y-113716500D01*
X101619251Y-113679973D01*
X101792231Y-113608322D01*
X101947908Y-113504302D01*
X102080302Y-113371908D01*
X102184322Y-113216231D01*
X102255973Y-113043251D01*
X102292500Y-112859616D01*
X102292500Y-112672384D01*
X102255973Y-112488749D01*
X102184322Y-112315769D01*
X102080302Y-112160092D01*
X102061210Y-112141000D01*
X105524571Y-112141000D01*
X105544244Y-112353311D01*
X105602593Y-112558384D01*
X105602594Y-112558386D01*
X105602595Y-112558389D01*
X105697634Y-112749255D01*
X105826128Y-112919407D01*
X105826129Y-112919408D01*
X105983699Y-113063053D01*
X105983701Y-113063054D01*
X106164974Y-113175294D01*
X106164975Y-113175294D01*
X106164981Y-113175298D01*
X106363802Y-113252321D01*
X106550097Y-113287145D01*
X106613381Y-113319324D01*
X106649223Y-113380609D01*
X106646242Y-113451543D01*
X106605384Y-113509605D01*
X106550098Y-113534854D01*
X106437350Y-113555930D01*
X106363800Y-113569679D01*
X106209754Y-113629356D01*
X106164981Y-113646702D01*
X106164980Y-113646702D01*
X106164979Y-113646703D01*
X106164974Y-113646705D01*
X105983701Y-113758945D01*
X105983699Y-113758946D01*
X105826129Y-113902591D01*
X105780088Y-113963559D01*
X105697634Y-114072745D01*
X105650943Y-114166515D01*
X105602593Y-114263615D01*
X105544244Y-114468688D01*
X105524571Y-114681000D01*
X105544244Y-114893311D01*
X105602593Y-115098384D01*
X105602594Y-115098386D01*
X105602595Y-115098389D01*
X105697634Y-115289255D01*
X105781265Y-115399999D01*
X105826129Y-115459408D01*
X105983699Y-115603053D01*
X105983701Y-115603054D01*
X106164974Y-115715294D01*
X106164975Y-115715294D01*
X106164981Y-115715298D01*
X106363802Y-115792321D01*
X106573390Y-115831500D01*
X106573393Y-115831500D01*
X106786607Y-115831500D01*
X106786610Y-115831500D01*
X106996198Y-115792321D01*
X107195019Y-115715298D01*
X107376302Y-115603052D01*
X107533872Y-115459407D01*
X107662366Y-115289255D01*
X107723930Y-115165615D01*
X107772196Y-115113554D01*
X107840950Y-115095851D01*
X107908361Y-115118130D01*
X107952106Y-115171166D01*
X108021580Y-115329548D01*
X108144674Y-115517958D01*
X108297097Y-115683534D01*
X108474698Y-115821767D01*
X108474699Y-115821768D01*
X108672628Y-115928882D01*
X108672630Y-115928883D01*
X108885483Y-116001955D01*
X108885492Y-116001957D01*
X108966000Y-116015391D01*
X108966000Y-115111702D01*
X109027007Y-115146925D01*
X109154174Y-115181000D01*
X109285826Y-115181000D01*
X109412993Y-115146925D01*
X109474000Y-115111702D01*
X109474000Y-116015390D01*
X109554507Y-116001957D01*
X109554516Y-116001955D01*
X109767369Y-115928883D01*
X109767371Y-115928882D01*
X109965300Y-115821768D01*
X109965301Y-115821767D01*
X110142902Y-115683534D01*
X110295325Y-115517958D01*
X110372393Y-115399996D01*
X120636941Y-115399996D01*
X120636941Y-115400003D01*
X120657156Y-115708436D01*
X120657158Y-115708451D01*
X120717460Y-116011603D01*
X120717462Y-116011613D01*
X120816815Y-116304296D01*
X120816821Y-116304310D01*
X120953528Y-116581527D01*
X121125259Y-116838539D01*
X121125262Y-116838543D01*
X121161230Y-116879556D01*
X121161232Y-116879556D01*
X121739163Y-116301624D01*
X121817726Y-116409757D01*
X121990243Y-116582274D01*
X122098373Y-116660835D01*
X121520442Y-117238766D01*
X121520442Y-117238768D01*
X121561456Y-117274737D01*
X121561460Y-117274740D01*
X121818472Y-117446471D01*
X122095689Y-117583178D01*
X122095703Y-117583184D01*
X122388386Y-117682537D01*
X122388396Y-117682539D01*
X122691548Y-117742841D01*
X122691563Y-117742843D01*
X122999997Y-117763059D01*
X123000003Y-117763059D01*
X123308436Y-117742843D01*
X123308451Y-117742841D01*
X123611603Y-117682539D01*
X123611613Y-117682537D01*
X123904296Y-117583184D01*
X123904310Y-117583178D01*
X124181527Y-117446471D01*
X124438546Y-117274735D01*
X124479556Y-117238769D01*
X124479556Y-117238766D01*
X123901626Y-116660835D01*
X124009757Y-116582274D01*
X124182274Y-116409757D01*
X124260835Y-116301625D01*
X124838766Y-116879556D01*
X124838769Y-116879556D01*
X124874735Y-116838546D01*
X125046471Y-116581527D01*
X125183178Y-116304310D01*
X125183184Y-116304296D01*
X125282537Y-116011613D01*
X125282539Y-116011603D01*
X125342841Y-115708451D01*
X125342843Y-115708436D01*
X125363059Y-115400003D01*
X125363059Y-115399996D01*
X125342843Y-115091563D01*
X125342841Y-115091548D01*
X125282539Y-114788396D01*
X125282537Y-114788386D01*
X125183184Y-114495703D01*
X125183178Y-114495689D01*
X125046470Y-114218473D01*
X124874744Y-113961465D01*
X124874735Y-113961454D01*
X124838768Y-113920442D01*
X124838766Y-113920442D01*
X124260835Y-114498373D01*
X124182274Y-114390243D01*
X124009757Y-114217726D01*
X123901625Y-114139163D01*
X124479556Y-113561232D01*
X124479556Y-113561230D01*
X124438543Y-113525262D01*
X124438539Y-113525259D01*
X124181527Y-113353528D01*
X123904310Y-113216821D01*
X123904296Y-113216815D01*
X123611613Y-113117462D01*
X123611603Y-113117460D01*
X123308451Y-113057158D01*
X123308436Y-113057156D01*
X123000003Y-113036941D01*
X122999997Y-113036941D01*
X122691563Y-113057156D01*
X122691548Y-113057158D01*
X122388396Y-113117460D01*
X122388386Y-113117462D01*
X122095703Y-113216815D01*
X122095689Y-113216821D01*
X121818473Y-113353529D01*
X121561461Y-113525258D01*
X121561457Y-113525261D01*
X121520442Y-113561230D01*
X121520442Y-113561232D01*
X122098374Y-114139164D01*
X121990243Y-114217726D01*
X121817726Y-114390243D01*
X121739164Y-114498374D01*
X121161232Y-113920442D01*
X121161230Y-113920442D01*
X121125261Y-113961457D01*
X121125258Y-113961461D01*
X120953529Y-114218473D01*
X120816821Y-114495689D01*
X120816815Y-114495703D01*
X120717462Y-114788386D01*
X120717460Y-114788396D01*
X120657158Y-115091548D01*
X120657156Y-115091563D01*
X120636941Y-115399996D01*
X110372393Y-115399996D01*
X110418419Y-115329548D01*
X110508820Y-115123456D01*
X110508823Y-115123449D01*
X110556544Y-114935000D01*
X109650703Y-114935000D01*
X109685925Y-114873993D01*
X109720000Y-114746826D01*
X109720000Y-114615174D01*
X109685925Y-114488007D01*
X109650703Y-114427000D01*
X110556544Y-114427000D01*
X110556544Y-114426999D01*
X110508823Y-114238550D01*
X110508820Y-114238543D01*
X110418419Y-114032451D01*
X110295325Y-113844041D01*
X110142902Y-113678465D01*
X109965301Y-113540232D01*
X109965300Y-113540231D01*
X109767371Y-113433117D01*
X109767365Y-113433115D01*
X109723705Y-113418126D01*
X109665771Y-113377089D01*
X109639220Y-113311244D01*
X109652482Y-113241497D01*
X109701347Y-113189992D01*
X109719092Y-113181467D01*
X109735019Y-113175298D01*
X109916302Y-113063052D01*
X110073872Y-112919407D01*
X110202366Y-112749255D01*
X110297405Y-112558389D01*
X110355756Y-112353310D01*
X110375429Y-112141000D01*
X110355756Y-111928690D01*
X110297405Y-111723611D01*
X110202366Y-111532745D01*
X110073872Y-111362593D01*
X109916302Y-111218948D01*
X109916300Y-111218946D01*
X109916298Y-111218945D01*
X109735025Y-111106705D01*
X109735021Y-111106703D01*
X109735019Y-111106702D01*
X109536198Y-111029679D01*
X109349902Y-110994854D01*
X109286618Y-110962676D01*
X109250776Y-110901391D01*
X109253757Y-110830457D01*
X109294615Y-110772395D01*
X109349901Y-110747145D01*
X109536198Y-110712321D01*
X109735019Y-110635298D01*
X109916302Y-110523052D01*
X110073872Y-110379407D01*
X110202366Y-110209255D01*
X110297405Y-110018389D01*
X110355756Y-109813310D01*
X110375429Y-109601000D01*
X110355756Y-109388690D01*
X110297405Y-109183611D01*
X110202366Y-108992745D01*
X110073872Y-108822593D01*
X109946123Y-108706133D01*
X109916300Y-108678946D01*
X109916298Y-108678945D01*
X109735025Y-108566705D01*
X109735021Y-108566703D01*
X109735019Y-108566702D01*
X109607370Y-108517251D01*
X109536199Y-108489679D01*
X109483801Y-108479884D01*
X109326610Y-108450500D01*
X109113390Y-108450500D01*
X108987637Y-108474007D01*
X108903800Y-108489679D01*
X108749754Y-108549356D01*
X108704981Y-108566702D01*
X108704980Y-108566702D01*
X108704979Y-108566703D01*
X108704974Y-108566705D01*
X108523701Y-108678945D01*
X108523699Y-108678946D01*
X108366129Y-108822591D01*
X108279293Y-108937580D01*
X108237634Y-108992745D01*
X108157354Y-109153970D01*
X108142593Y-109183615D01*
X108084243Y-109388693D01*
X108081961Y-109413320D01*
X108055759Y-109479305D01*
X107998041Y-109520648D01*
X107927135Y-109524224D01*
X107865551Y-109488897D01*
X107832843Y-109425884D01*
X107830499Y-109401693D01*
X107830499Y-108706140D01*
X107830499Y-108706136D01*
X107827585Y-108681009D01*
X107798519Y-108615180D01*
X107782206Y-108578234D01*
X107702767Y-108498795D01*
X107702765Y-108498794D01*
X107599989Y-108453414D01*
X107599990Y-108453414D01*
X107574868Y-108450500D01*
X105785140Y-108450500D01*
X105785133Y-108450501D01*
X105760009Y-108453414D01*
X105760005Y-108453416D01*
X105657234Y-108498793D01*
X105577795Y-108578232D01*
X105577794Y-108578234D01*
X105532414Y-108681009D01*
X105529500Y-108706129D01*
X105529500Y-110495859D01*
X105529501Y-110495866D01*
X105532414Y-110520990D01*
X105532416Y-110520994D01*
X105577793Y-110623765D01*
X105657232Y-110703204D01*
X105657234Y-110703205D01*
X105657235Y-110703206D01*
X105760009Y-110748585D01*
X105785135Y-110751500D01*
X106492175Y-110751499D01*
X106560294Y-110771501D01*
X106606787Y-110825157D01*
X106616891Y-110895430D01*
X106587398Y-110960011D01*
X106527671Y-110998395D01*
X106515326Y-111001353D01*
X106363805Y-111029677D01*
X106241633Y-111077007D01*
X106164981Y-111106702D01*
X106164980Y-111106702D01*
X106164979Y-111106703D01*
X106164974Y-111106705D01*
X105983701Y-111218945D01*
X105983699Y-111218946D01*
X105826129Y-111362591D01*
X105815303Y-111376927D01*
X105697634Y-111532745D01*
X105637621Y-111653268D01*
X105602593Y-111723615D01*
X105544244Y-111928688D01*
X105524571Y-112141000D01*
X102061210Y-112141000D01*
X101947908Y-112027698D01*
X101947906Y-112027696D01*
X101947903Y-112027694D01*
X101900137Y-111995778D01*
X101854609Y-111941301D01*
X101845762Y-111870858D01*
X101876403Y-111806814D01*
X101912939Y-111778745D01*
X101948925Y-111760410D01*
X102096389Y-111653270D01*
X102096392Y-111653268D01*
X102225268Y-111524392D01*
X102225270Y-111524389D01*
X102332408Y-111376927D01*
X102415159Y-111214519D01*
X102415162Y-111214513D01*
X102471486Y-111041165D01*
X102474205Y-111024000D01*
X101522703Y-111024000D01*
X101557925Y-110962993D01*
X101592000Y-110835826D01*
X101592000Y-110704174D01*
X101557925Y-110577007D01*
X101522703Y-110516000D01*
X102474205Y-110516000D01*
X102471486Y-110498834D01*
X102415162Y-110325486D01*
X102415159Y-110325480D01*
X102332408Y-110163072D01*
X102225270Y-110015610D01*
X102225268Y-110015607D01*
X102096392Y-109886731D01*
X102096389Y-109886729D01*
X101948927Y-109779591D01*
X101786519Y-109696840D01*
X101786513Y-109696837D01*
X101613169Y-109640515D01*
X101613173Y-109640515D01*
X101433134Y-109612000D01*
X101346000Y-109612000D01*
X101346000Y-110339297D01*
X101284993Y-110304075D01*
X101157826Y-110270000D01*
X101026174Y-110270000D01*
X100899007Y-110304075D01*
X100838000Y-110339297D01*
X100838000Y-109612000D01*
X100750866Y-109612000D01*
X100570828Y-109640515D01*
X100397486Y-109696837D01*
X100397480Y-109696840D01*
X100235072Y-109779591D01*
X100087610Y-109886729D01*
X100087607Y-109886731D01*
X99958731Y-110015607D01*
X99958729Y-110015610D01*
X99851591Y-110163072D01*
X99768840Y-110325480D01*
X99768837Y-110325486D01*
X99712513Y-110498834D01*
X99709794Y-110516000D01*
X96768000Y-110516000D01*
X96768000Y-108146381D01*
X99891500Y-108146381D01*
X99891500Y-108333618D01*
X99924356Y-108498794D01*
X99928027Y-108517251D01*
X99999678Y-108690231D01*
X100103698Y-108845908D01*
X100236092Y-108978302D01*
X100391769Y-109082322D01*
X100564749Y-109153973D01*
X100748384Y-109190500D01*
X100748385Y-109190500D01*
X101435615Y-109190500D01*
X101435616Y-109190500D01*
X101619251Y-109153973D01*
X101792231Y-109082322D01*
X101947908Y-108978302D01*
X102080302Y-108845908D01*
X102184322Y-108690231D01*
X102255973Y-108517251D01*
X102292500Y-108333616D01*
X102292500Y-108146384D01*
X102255973Y-107962749D01*
X102219559Y-107874838D01*
X113399500Y-107874838D01*
X113399500Y-108126762D01*
X113432263Y-108333616D01*
X113438911Y-108375590D01*
X113504755Y-108578235D01*
X113516759Y-108615179D01*
X113631130Y-108839645D01*
X113779207Y-109043456D01*
X113779209Y-109043458D01*
X113779211Y-109043461D01*
X113957338Y-109221588D01*
X113957341Y-109221590D01*
X113957344Y-109221593D01*
X114161155Y-109369670D01*
X114385621Y-109484041D01*
X114625215Y-109561890D01*
X114874038Y-109601300D01*
X114874041Y-109601300D01*
X115125959Y-109601300D01*
X115125962Y-109601300D01*
X115374785Y-109561890D01*
X115614379Y-109484041D01*
X115838845Y-109369670D01*
X116042656Y-109221593D01*
X116220793Y-109043456D01*
X116368870Y-108839645D01*
X116483241Y-108615179D01*
X116561090Y-108375585D01*
X116600500Y-108126762D01*
X116600500Y-107874838D01*
X116561090Y-107626015D01*
X116483241Y-107386421D01*
X116368870Y-107161955D01*
X116220793Y-106958144D01*
X116220790Y-106958141D01*
X116220788Y-106958138D01*
X116042661Y-106780011D01*
X116042658Y-106780009D01*
X116042656Y-106780007D01*
X115838845Y-106631930D01*
X115614379Y-106517559D01*
X115614376Y-106517558D01*
X115614374Y-106517557D01*
X115374790Y-106439711D01*
X115374786Y-106439710D01*
X115374785Y-106439710D01*
X115125962Y-106400300D01*
X114874038Y-106400300D01*
X114625215Y-106439710D01*
X114625209Y-106439711D01*
X114385625Y-106517557D01*
X114385619Y-106517560D01*
X114161151Y-106631932D01*
X113957341Y-106780009D01*
X113957338Y-106780011D01*
X113779211Y-106958138D01*
X113779209Y-106958141D01*
X113631132Y-107161951D01*
X113516760Y-107386419D01*
X113516757Y-107386425D01*
X113438911Y-107626009D01*
X113438910Y-107626014D01*
X113438910Y-107626015D01*
X113399500Y-107874838D01*
X102219559Y-107874838D01*
X102184322Y-107789769D01*
X102080302Y-107634092D01*
X101947908Y-107501698D01*
X101792231Y-107397678D01*
X101619251Y-107326027D01*
X101435618Y-107289500D01*
X101435616Y-107289500D01*
X100748384Y-107289500D01*
X100748381Y-107289500D01*
X100564748Y-107326027D01*
X100564743Y-107326029D01*
X100391769Y-107397678D01*
X100236096Y-107501695D01*
X100236089Y-107501700D01*
X100103700Y-107634089D01*
X100103695Y-107634096D01*
X99999678Y-107789769D01*
X99928029Y-107962743D01*
X99928027Y-107962748D01*
X99891500Y-108146381D01*
X96768000Y-108146381D01*
X96768000Y-99186644D01*
X114864355Y-99186644D01*
X114864355Y-99186649D01*
X114884859Y-99355518D01*
X114945179Y-99514572D01*
X114945181Y-99514576D01*
X115041816Y-99654575D01*
X115041818Y-99654577D01*
X115046292Y-99658541D01*
X115169148Y-99767381D01*
X115319775Y-99846437D01*
X115319776Y-99846437D01*
X115319778Y-99846438D01*
X115476461Y-99885056D01*
X115484944Y-99887147D01*
X115484947Y-99887147D01*
X115639169Y-99887147D01*
X115707290Y-99907149D01*
X115753783Y-99960805D01*
X115764250Y-99997959D01*
X115774214Y-100080018D01*
X115834534Y-100239072D01*
X115834536Y-100239076D01*
X115902225Y-100337139D01*
X115931172Y-100379076D01*
X116058503Y-100491881D01*
X116209130Y-100570937D01*
X116209131Y-100570937D01*
X116209133Y-100570938D01*
X116365816Y-100609556D01*
X116374299Y-100611647D01*
X116374302Y-100611647D01*
X116527814Y-100611647D01*
X116595935Y-100631649D01*
X116642428Y-100685305D01*
X116652895Y-100722459D01*
X116662859Y-100804518D01*
X116723179Y-100963572D01*
X116723181Y-100963576D01*
X116805075Y-101082218D01*
X116819817Y-101103576D01*
X116947148Y-101216381D01*
X117097775Y-101295437D01*
X117097776Y-101295437D01*
X117097778Y-101295438D01*
X117254461Y-101334056D01*
X117262944Y-101336147D01*
X117262947Y-101336147D01*
X117433053Y-101336147D01*
X117433056Y-101336147D01*
X117598225Y-101295437D01*
X117748852Y-101216381D01*
X117876183Y-101103576D01*
X117876184Y-101103575D01*
X117881888Y-101098522D01*
X117882733Y-101099476D01*
X117936310Y-101065869D01*
X117970480Y-101061147D01*
X118949209Y-101061147D01*
X119017330Y-101081149D01*
X119038304Y-101098052D01*
X119517595Y-101577343D01*
X119551621Y-101639655D01*
X119554500Y-101666438D01*
X119554500Y-101818544D01*
X119592949Y-102011835D01*
X119668368Y-102193914D01*
X119777861Y-102357782D01*
X119917218Y-102497139D01*
X120081086Y-102606632D01*
X120193748Y-102653297D01*
X120266882Y-102683591D01*
X120322163Y-102728139D01*
X120344584Y-102795503D01*
X120327026Y-102864294D01*
X120275064Y-102912672D01*
X120266882Y-102916409D01*
X120081085Y-102993368D01*
X119917222Y-103102858D01*
X119917215Y-103102863D01*
X119777863Y-103242215D01*
X119777858Y-103242222D01*
X119668368Y-103406085D01*
X119592950Y-103588161D01*
X119592949Y-103588164D01*
X119554500Y-103781455D01*
X119554500Y-103978544D01*
X119592949Y-104171835D01*
X119668368Y-104353914D01*
X119777861Y-104517782D01*
X119917218Y-104657139D01*
X120081086Y-104766632D01*
X120263165Y-104842051D01*
X120456459Y-104880500D01*
X121253541Y-104880500D01*
X121446835Y-104842051D01*
X121628914Y-104766632D01*
X121792782Y-104657139D01*
X121932139Y-104517782D01*
X122041632Y-104353914D01*
X122117051Y-104171835D01*
X122155500Y-103978541D01*
X122155500Y-103781459D01*
X122117051Y-103588165D01*
X122041632Y-103406086D01*
X121932139Y-103242218D01*
X121792782Y-103102861D01*
X121628914Y-102993368D01*
X121446835Y-102917949D01*
X121446834Y-102917948D01*
X121443117Y-102916409D01*
X121387836Y-102871861D01*
X121365415Y-102804498D01*
X121382973Y-102735706D01*
X121434935Y-102687328D01*
X121443117Y-102683591D01*
X121446835Y-102682051D01*
X121628914Y-102606632D01*
X121792782Y-102497139D01*
X121932139Y-102357782D01*
X122041632Y-102193914D01*
X122117051Y-102011835D01*
X122155500Y-101818541D01*
X122155500Y-101621459D01*
X122117051Y-101428165D01*
X122041632Y-101246086D01*
X121932139Y-101082218D01*
X121792782Y-100942861D01*
X121628914Y-100833368D01*
X121446835Y-100757949D01*
X121446834Y-100757948D01*
X121443117Y-100756409D01*
X121387836Y-100711861D01*
X121365415Y-100644498D01*
X121382973Y-100575706D01*
X121434935Y-100527328D01*
X121443117Y-100523591D01*
X121446835Y-100522051D01*
X121628914Y-100446632D01*
X121792782Y-100337139D01*
X121932139Y-100197782D01*
X122041632Y-100033914D01*
X122117051Y-99851835D01*
X122155500Y-99658541D01*
X122155500Y-99461459D01*
X122117051Y-99268165D01*
X122041632Y-99086086D01*
X121932139Y-98922218D01*
X121792782Y-98782861D01*
X121628914Y-98673368D01*
X121446835Y-98597949D01*
X121446834Y-98597948D01*
X121443117Y-98596409D01*
X121387836Y-98551861D01*
X121365415Y-98484498D01*
X121382973Y-98415706D01*
X121434935Y-98367328D01*
X121443117Y-98363591D01*
X121446835Y-98362051D01*
X121628914Y-98286632D01*
X121792782Y-98177139D01*
X121932139Y-98037782D01*
X122041632Y-97873914D01*
X122117051Y-97691835D01*
X122155500Y-97498541D01*
X122155500Y-97301459D01*
X122117051Y-97108165D01*
X122041632Y-96926086D01*
X121932139Y-96762218D01*
X121792782Y-96622861D01*
X121628914Y-96513368D01*
X121446835Y-96437949D01*
X121446834Y-96437948D01*
X121443117Y-96436409D01*
X121387836Y-96391861D01*
X121365415Y-96324498D01*
X121382973Y-96255706D01*
X121434935Y-96207328D01*
X121443117Y-96203591D01*
X121446835Y-96202051D01*
X121628914Y-96126632D01*
X121792782Y-96017139D01*
X121932139Y-95877782D01*
X122041632Y-95713914D01*
X122117051Y-95531835D01*
X122155500Y-95338541D01*
X122155500Y-95141459D01*
X122117051Y-94948165D01*
X122041632Y-94766086D01*
X121932139Y-94602218D01*
X121792782Y-94462861D01*
X121628914Y-94353368D01*
X121446835Y-94277949D01*
X121446834Y-94277948D01*
X121443117Y-94276409D01*
X121387836Y-94231861D01*
X121365415Y-94164498D01*
X121382973Y-94095706D01*
X121434935Y-94047328D01*
X121443117Y-94043591D01*
X121446835Y-94042051D01*
X121628914Y-93966632D01*
X121792782Y-93857139D01*
X121932139Y-93717782D01*
X122041632Y-93553914D01*
X122117051Y-93371835D01*
X122155500Y-93178541D01*
X122155500Y-92981459D01*
X122117051Y-92788165D01*
X122041632Y-92606086D01*
X121932139Y-92442218D01*
X121792782Y-92302861D01*
X121628914Y-92193368D01*
X121446835Y-92117949D01*
X121446834Y-92117948D01*
X121443117Y-92116409D01*
X121387836Y-92071861D01*
X121365415Y-92004498D01*
X121382973Y-91935706D01*
X121434935Y-91887328D01*
X121443117Y-91883591D01*
X121446835Y-91882051D01*
X121628914Y-91806632D01*
X121792782Y-91697139D01*
X121932139Y-91557782D01*
X122041632Y-91393914D01*
X122117051Y-91211835D01*
X122155500Y-91018541D01*
X122155500Y-90821459D01*
X122117051Y-90628165D01*
X122041632Y-90446086D01*
X121932139Y-90282218D01*
X121792782Y-90142861D01*
X121628914Y-90033368D01*
X121446835Y-89957949D01*
X121446834Y-89957948D01*
X121443117Y-89956409D01*
X121387836Y-89911861D01*
X121365415Y-89844498D01*
X121382973Y-89775706D01*
X121434935Y-89727328D01*
X121443117Y-89723591D01*
X121446835Y-89722051D01*
X121628914Y-89646632D01*
X121792782Y-89537139D01*
X121932139Y-89397782D01*
X122041632Y-89233914D01*
X122117051Y-89051835D01*
X122155500Y-88858541D01*
X122155500Y-88661459D01*
X122117051Y-88468165D01*
X122041632Y-88286086D01*
X121932139Y-88122218D01*
X121792782Y-87982861D01*
X121628914Y-87873368D01*
X121446835Y-87797949D01*
X121446834Y-87797948D01*
X121443117Y-87796409D01*
X121387836Y-87751861D01*
X121365415Y-87684498D01*
X121382973Y-87615706D01*
X121434935Y-87567328D01*
X121443117Y-87563591D01*
X121446835Y-87562051D01*
X121628914Y-87486632D01*
X121792782Y-87377139D01*
X121932139Y-87237782D01*
X122041632Y-87073914D01*
X122117051Y-86891835D01*
X122155500Y-86698541D01*
X122155500Y-86501459D01*
X122117051Y-86308165D01*
X122041632Y-86126086D01*
X121932139Y-85962218D01*
X121792782Y-85822861D01*
X121628914Y-85713368D01*
X121446835Y-85637949D01*
X121446834Y-85637948D01*
X121443117Y-85636409D01*
X121387836Y-85591861D01*
X121365415Y-85524498D01*
X121382973Y-85455706D01*
X121434935Y-85407328D01*
X121443117Y-85403591D01*
X121446835Y-85402051D01*
X121628914Y-85326632D01*
X121792782Y-85217139D01*
X121932139Y-85077782D01*
X122041632Y-84913914D01*
X122117051Y-84731835D01*
X122155500Y-84538541D01*
X122155500Y-84341459D01*
X122117051Y-84148165D01*
X122041632Y-83966086D01*
X121932139Y-83802218D01*
X121792782Y-83662861D01*
X121628914Y-83553368D01*
X121446835Y-83477949D01*
X121446834Y-83477948D01*
X121443117Y-83476409D01*
X121387836Y-83431861D01*
X121365415Y-83364498D01*
X121382973Y-83295706D01*
X121434935Y-83247328D01*
X121443117Y-83243591D01*
X121446835Y-83242051D01*
X121628914Y-83166632D01*
X121792782Y-83057139D01*
X121932139Y-82917782D01*
X122041632Y-82753914D01*
X122117051Y-82571835D01*
X122155500Y-82378541D01*
X122155500Y-82181459D01*
X122117051Y-81988165D01*
X122041632Y-81806086D01*
X121932139Y-81642218D01*
X121792782Y-81502861D01*
X121788503Y-81500002D01*
X121731944Y-81462210D01*
X121672591Y-81422552D01*
X121627065Y-81368077D01*
X121618216Y-81297633D01*
X121648857Y-81233589D01*
X121685392Y-81205521D01*
X121788130Y-81153173D01*
X121941961Y-81041408D01*
X121941964Y-81041406D01*
X122076406Y-80906964D01*
X122076408Y-80906961D01*
X122188171Y-80753133D01*
X122274497Y-80583709D01*
X122333254Y-80402876D01*
X122337827Y-80374000D01*
X121285703Y-80374000D01*
X121320925Y-80312993D01*
X121355000Y-80185826D01*
X121355000Y-80054174D01*
X121320925Y-79927007D01*
X121285703Y-79866000D01*
X122337827Y-79866000D01*
X123662173Y-79866000D01*
X124714297Y-79866000D01*
X124679075Y-79927007D01*
X124645000Y-80054174D01*
X124645000Y-80185826D01*
X124679075Y-80312993D01*
X124714297Y-80374000D01*
X123662173Y-80374000D01*
X123666745Y-80402876D01*
X123725502Y-80583709D01*
X123811828Y-80753133D01*
X123923591Y-80906961D01*
X123923593Y-80906964D01*
X124058038Y-81041409D01*
X124136017Y-81098064D01*
X124179371Y-81154287D01*
X124185446Y-81225023D01*
X124152314Y-81287814D01*
X124136017Y-81301936D01*
X124058038Y-81358590D01*
X123923593Y-81493035D01*
X123923591Y-81493038D01*
X123811828Y-81646866D01*
X123725502Y-81816290D01*
X123666745Y-81997123D01*
X123662173Y-82026000D01*
X124714297Y-82026000D01*
X124679075Y-82087007D01*
X124645000Y-82214174D01*
X124645000Y-82345826D01*
X124679075Y-82472993D01*
X124714297Y-82534000D01*
X123662173Y-82534000D01*
X123666745Y-82562876D01*
X123725502Y-82743709D01*
X123811828Y-82913133D01*
X123923591Y-83066961D01*
X123923593Y-83066964D01*
X124058038Y-83201409D01*
X124136017Y-83258064D01*
X124179371Y-83314287D01*
X124185446Y-83385023D01*
X124152314Y-83447814D01*
X124136017Y-83461936D01*
X124058038Y-83518590D01*
X123923593Y-83653035D01*
X123923591Y-83653038D01*
X123811828Y-83806866D01*
X123725502Y-83976290D01*
X123666745Y-84157123D01*
X123662173Y-84186000D01*
X124714297Y-84186000D01*
X124679075Y-84247007D01*
X124645000Y-84374174D01*
X124645000Y-84505826D01*
X124679075Y-84632993D01*
X124714297Y-84694000D01*
X123662173Y-84694000D01*
X123666745Y-84722876D01*
X123725502Y-84903709D01*
X123811828Y-85073133D01*
X123923591Y-85226961D01*
X123923593Y-85226964D01*
X124058038Y-85361409D01*
X124136017Y-85418064D01*
X124179371Y-85474287D01*
X124185446Y-85545023D01*
X124152314Y-85607814D01*
X124136017Y-85621936D01*
X124058038Y-85678590D01*
X123923593Y-85813035D01*
X123923591Y-85813038D01*
X123811828Y-85966866D01*
X123725502Y-86136290D01*
X123666745Y-86317123D01*
X123662173Y-86346000D01*
X124714297Y-86346000D01*
X124679075Y-86407007D01*
X124645000Y-86534174D01*
X124645000Y-86665826D01*
X124679075Y-86792993D01*
X124714297Y-86854000D01*
X123662173Y-86854000D01*
X123666745Y-86882876D01*
X123725502Y-87063709D01*
X123811828Y-87233133D01*
X123923591Y-87386961D01*
X123923593Y-87386964D01*
X124058038Y-87521409D01*
X124136017Y-87578064D01*
X124179371Y-87634287D01*
X124185446Y-87705023D01*
X124152314Y-87767814D01*
X124136017Y-87781936D01*
X124058038Y-87838590D01*
X123923593Y-87973035D01*
X123923591Y-87973038D01*
X123811828Y-88126866D01*
X123725502Y-88296290D01*
X123666745Y-88477123D01*
X123662173Y-88506000D01*
X124714297Y-88506000D01*
X124679075Y-88567007D01*
X124645000Y-88694174D01*
X124645000Y-88825826D01*
X124679075Y-88952993D01*
X124714297Y-89014000D01*
X123662173Y-89014000D01*
X123666745Y-89042876D01*
X123725502Y-89223709D01*
X123811828Y-89393133D01*
X123923591Y-89546961D01*
X123923593Y-89546964D01*
X124058038Y-89681409D01*
X124136017Y-89738064D01*
X124179371Y-89794287D01*
X124185446Y-89865023D01*
X124152314Y-89927814D01*
X124136017Y-89941936D01*
X124058038Y-89998590D01*
X123923593Y-90133035D01*
X123923591Y-90133038D01*
X123811828Y-90286866D01*
X123725502Y-90456290D01*
X123666745Y-90637123D01*
X123662173Y-90666000D01*
X124714297Y-90666000D01*
X124679075Y-90727007D01*
X124645000Y-90854174D01*
X124645000Y-90985826D01*
X124679075Y-91112993D01*
X124714297Y-91174000D01*
X123662173Y-91174000D01*
X123666745Y-91202876D01*
X123725502Y-91383709D01*
X123811828Y-91553133D01*
X123923591Y-91706961D01*
X123923593Y-91706964D01*
X124058038Y-91841409D01*
X124136017Y-91898064D01*
X124179371Y-91954287D01*
X124185446Y-92025023D01*
X124152314Y-92087814D01*
X124136017Y-92101936D01*
X124058038Y-92158590D01*
X123923593Y-92293035D01*
X123923591Y-92293038D01*
X123811828Y-92446866D01*
X123725502Y-92616290D01*
X123666745Y-92797123D01*
X123662173Y-92826000D01*
X124714297Y-92826000D01*
X124679075Y-92887007D01*
X124645000Y-93014174D01*
X124645000Y-93145826D01*
X124679075Y-93272993D01*
X124714297Y-93334000D01*
X123662173Y-93334000D01*
X123666745Y-93362876D01*
X123725502Y-93543709D01*
X123811828Y-93713133D01*
X123923591Y-93866961D01*
X123923593Y-93866964D01*
X124058035Y-94001406D01*
X124058038Y-94001408D01*
X124211866Y-94113171D01*
X124314608Y-94165521D01*
X124366223Y-94214269D01*
X124383289Y-94283184D01*
X124360388Y-94350386D01*
X124327407Y-94382553D01*
X124207222Y-94462858D01*
X124207215Y-94462863D01*
X124067863Y-94602215D01*
X124067858Y-94602222D01*
X123958368Y-94766085D01*
X123882950Y-94948161D01*
X123882949Y-94948164D01*
X123844500Y-95141455D01*
X123844500Y-95338544D01*
X123882949Y-95531835D01*
X123882950Y-95531838D01*
X123911930Y-95601802D01*
X123958368Y-95713914D01*
X124067861Y-95877782D01*
X124207218Y-96017139D01*
X124371086Y-96126632D01*
X124483748Y-96173297D01*
X124556882Y-96203591D01*
X124612163Y-96248139D01*
X124634584Y-96315503D01*
X124617026Y-96384294D01*
X124565064Y-96432672D01*
X124556882Y-96436409D01*
X124371085Y-96513368D01*
X124207222Y-96622858D01*
X124207215Y-96622863D01*
X124067863Y-96762215D01*
X124067858Y-96762222D01*
X123958368Y-96926085D01*
X123882950Y-97108161D01*
X123882949Y-97108164D01*
X123844500Y-97301455D01*
X123844500Y-97498544D01*
X123877353Y-97663704D01*
X123882949Y-97691835D01*
X123958368Y-97873914D01*
X124067861Y-98037782D01*
X124207218Y-98177139D01*
X124371086Y-98286632D01*
X124483748Y-98333297D01*
X124556882Y-98363591D01*
X124612163Y-98408139D01*
X124634584Y-98475503D01*
X124617026Y-98544294D01*
X124565064Y-98592672D01*
X124556882Y-98596409D01*
X124371085Y-98673368D01*
X124207222Y-98782858D01*
X124207215Y-98782863D01*
X124067863Y-98922215D01*
X124067858Y-98922222D01*
X123958368Y-99086085D01*
X123882950Y-99268161D01*
X123882949Y-99268164D01*
X123844500Y-99461455D01*
X123844500Y-99658544D01*
X123882949Y-99851835D01*
X123882950Y-99851838D01*
X123928085Y-99960805D01*
X123958368Y-100033914D01*
X124067861Y-100197782D01*
X124207218Y-100337139D01*
X124371086Y-100446632D01*
X124480316Y-100491876D01*
X124556882Y-100523591D01*
X124612163Y-100568139D01*
X124634584Y-100635503D01*
X124617026Y-100704294D01*
X124565064Y-100752672D01*
X124556882Y-100756409D01*
X124371085Y-100833368D01*
X124207222Y-100942858D01*
X124207215Y-100942863D01*
X124067863Y-101082215D01*
X124067858Y-101082222D01*
X123958368Y-101246085D01*
X123882950Y-101428161D01*
X123882949Y-101428164D01*
X123844500Y-101621455D01*
X123844500Y-101818544D01*
X123882949Y-102011835D01*
X123958368Y-102193914D01*
X124067861Y-102357782D01*
X124207218Y-102497139D01*
X124371086Y-102606632D01*
X124483748Y-102653297D01*
X124556882Y-102683591D01*
X124612163Y-102728139D01*
X124634584Y-102795503D01*
X124617026Y-102864294D01*
X124565064Y-102912672D01*
X124556882Y-102916409D01*
X124371085Y-102993368D01*
X124207222Y-103102858D01*
X124207215Y-103102863D01*
X124067863Y-103242215D01*
X124067858Y-103242222D01*
X123958368Y-103406085D01*
X123882950Y-103588161D01*
X123882949Y-103588164D01*
X123844500Y-103781455D01*
X123844500Y-103978544D01*
X123882949Y-104171835D01*
X123958368Y-104353914D01*
X124067861Y-104517782D01*
X124207218Y-104657139D01*
X124371086Y-104766632D01*
X124553165Y-104842051D01*
X124746459Y-104880500D01*
X125543541Y-104880500D01*
X125736835Y-104842051D01*
X125918914Y-104766632D01*
X126082782Y-104657139D01*
X126222139Y-104517782D01*
X126331632Y-104353914D01*
X126407051Y-104171835D01*
X126445500Y-103978541D01*
X126445500Y-103781459D01*
X126407051Y-103588165D01*
X126331632Y-103406086D01*
X126222139Y-103242218D01*
X126082782Y-103102861D01*
X125918914Y-102993368D01*
X125736835Y-102917949D01*
X125736834Y-102917948D01*
X125733117Y-102916409D01*
X125677836Y-102871861D01*
X125655415Y-102804498D01*
X125672973Y-102735706D01*
X125724935Y-102687328D01*
X125733117Y-102683591D01*
X125736835Y-102682051D01*
X125918914Y-102606632D01*
X126082782Y-102497139D01*
X126222139Y-102357782D01*
X126331632Y-102193914D01*
X126407051Y-102011835D01*
X126445500Y-101818541D01*
X126445500Y-101621459D01*
X126407051Y-101428165D01*
X126331632Y-101246086D01*
X126222139Y-101082218D01*
X126082782Y-100942861D01*
X125918914Y-100833368D01*
X125736835Y-100757949D01*
X125736834Y-100757948D01*
X125733117Y-100756409D01*
X125677836Y-100711861D01*
X125655415Y-100644498D01*
X125672973Y-100575706D01*
X125724935Y-100527328D01*
X125733117Y-100523591D01*
X125736835Y-100522051D01*
X125918914Y-100446632D01*
X126082782Y-100337139D01*
X126222139Y-100197782D01*
X126331632Y-100033914D01*
X126407051Y-99851835D01*
X126445500Y-99658541D01*
X126445500Y-99461459D01*
X126407051Y-99268165D01*
X126331632Y-99086086D01*
X126222139Y-98922218D01*
X126082782Y-98782861D01*
X125918914Y-98673368D01*
X125736835Y-98597949D01*
X125736834Y-98597948D01*
X125733117Y-98596409D01*
X125677836Y-98551861D01*
X125655415Y-98484498D01*
X125672973Y-98415706D01*
X125724935Y-98367328D01*
X125733117Y-98363591D01*
X125736835Y-98362051D01*
X125918914Y-98286632D01*
X126082782Y-98177139D01*
X126222139Y-98037782D01*
X126331632Y-97873914D01*
X126407051Y-97691835D01*
X126445500Y-97498541D01*
X126445500Y-97301459D01*
X126407051Y-97108165D01*
X126331632Y-96926086D01*
X126222139Y-96762218D01*
X126082782Y-96622861D01*
X125918914Y-96513368D01*
X125736835Y-96437949D01*
X125736834Y-96437948D01*
X125733117Y-96436409D01*
X125677836Y-96391861D01*
X125655415Y-96324498D01*
X125672973Y-96255706D01*
X125724935Y-96207328D01*
X125733117Y-96203591D01*
X125736835Y-96202051D01*
X125918914Y-96126632D01*
X126082782Y-96017139D01*
X126222139Y-95877782D01*
X126331632Y-95713914D01*
X126407051Y-95531835D01*
X126445500Y-95338541D01*
X126445500Y-95141459D01*
X126407051Y-94948165D01*
X126331632Y-94766086D01*
X126222139Y-94602218D01*
X126082782Y-94462861D01*
X125962591Y-94382552D01*
X125917065Y-94328077D01*
X125908216Y-94257633D01*
X125938857Y-94193589D01*
X125975392Y-94165521D01*
X126078130Y-94113173D01*
X126231961Y-94001408D01*
X126231964Y-94001406D01*
X126366406Y-93866964D01*
X126366408Y-93866961D01*
X126478171Y-93713133D01*
X126564497Y-93543709D01*
X126623254Y-93362876D01*
X126627827Y-93334000D01*
X125575703Y-93334000D01*
X125610925Y-93272993D01*
X125645000Y-93145826D01*
X125645000Y-93014174D01*
X125610925Y-92887007D01*
X125575703Y-92826000D01*
X126627827Y-92826000D01*
X126623254Y-92797123D01*
X126564497Y-92616290D01*
X126478171Y-92446866D01*
X126366408Y-92293038D01*
X126366406Y-92293035D01*
X126231964Y-92158593D01*
X126231961Y-92158591D01*
X126153982Y-92101936D01*
X126110628Y-92045714D01*
X126104553Y-91974978D01*
X126137684Y-91912186D01*
X126153982Y-91898064D01*
X126231961Y-91841408D01*
X126231964Y-91841406D01*
X126366406Y-91706964D01*
X126366408Y-91706961D01*
X126478171Y-91553133D01*
X126564497Y-91383709D01*
X126623254Y-91202876D01*
X126627827Y-91174000D01*
X125575703Y-91174000D01*
X125610925Y-91112993D01*
X125645000Y-90985826D01*
X125645000Y-90854174D01*
X125610925Y-90727007D01*
X125575703Y-90666000D01*
X126627827Y-90666000D01*
X126623254Y-90637123D01*
X126564497Y-90456290D01*
X126478171Y-90286866D01*
X126366408Y-90133038D01*
X126366406Y-90133035D01*
X126231964Y-89998593D01*
X126231961Y-89998591D01*
X126153982Y-89941936D01*
X126110628Y-89885714D01*
X126104553Y-89814978D01*
X126137684Y-89752186D01*
X126153982Y-89738064D01*
X126231961Y-89681408D01*
X126231964Y-89681406D01*
X126366406Y-89546964D01*
X126366408Y-89546961D01*
X126478171Y-89393133D01*
X126564497Y-89223709D01*
X126623254Y-89042876D01*
X126627827Y-89014000D01*
X125575703Y-89014000D01*
X125610925Y-88952993D01*
X125645000Y-88825826D01*
X125645000Y-88694174D01*
X125610925Y-88567007D01*
X125575703Y-88506000D01*
X126627827Y-88506000D01*
X126623254Y-88477123D01*
X126564497Y-88296290D01*
X126478171Y-88126866D01*
X126366408Y-87973038D01*
X126366406Y-87973035D01*
X126231964Y-87838593D01*
X126231961Y-87838591D01*
X126153982Y-87781936D01*
X126110628Y-87725714D01*
X126104553Y-87654978D01*
X126137684Y-87592186D01*
X126153982Y-87578064D01*
X126231961Y-87521408D01*
X126231964Y-87521406D01*
X126366406Y-87386964D01*
X126366408Y-87386961D01*
X126478171Y-87233133D01*
X126564497Y-87063709D01*
X126623254Y-86882876D01*
X126627827Y-86854000D01*
X125575703Y-86854000D01*
X125610925Y-86792993D01*
X125645000Y-86665826D01*
X125645000Y-86534174D01*
X125610925Y-86407007D01*
X125575703Y-86346000D01*
X126627827Y-86346000D01*
X126623254Y-86317123D01*
X126564497Y-86136290D01*
X126478171Y-85966866D01*
X126366408Y-85813038D01*
X126366406Y-85813035D01*
X126231964Y-85678593D01*
X126231961Y-85678591D01*
X126153982Y-85621936D01*
X126110628Y-85565714D01*
X126104553Y-85494978D01*
X126137684Y-85432186D01*
X126153982Y-85418064D01*
X126231961Y-85361408D01*
X126231964Y-85361406D01*
X126366406Y-85226964D01*
X126366408Y-85226961D01*
X126478171Y-85073133D01*
X126564497Y-84903709D01*
X126623254Y-84722876D01*
X126627827Y-84694000D01*
X125575703Y-84694000D01*
X125610925Y-84632993D01*
X125645000Y-84505826D01*
X125645000Y-84374174D01*
X125610925Y-84247007D01*
X125575703Y-84186000D01*
X126627827Y-84186000D01*
X126623254Y-84157123D01*
X126564497Y-83976290D01*
X126478171Y-83806866D01*
X126366408Y-83653038D01*
X126366406Y-83653035D01*
X126231964Y-83518593D01*
X126231961Y-83518591D01*
X126153982Y-83461936D01*
X126110628Y-83405714D01*
X126104553Y-83334978D01*
X126137684Y-83272186D01*
X126153982Y-83258064D01*
X126231961Y-83201408D01*
X126231964Y-83201406D01*
X126366406Y-83066964D01*
X126366408Y-83066961D01*
X126478171Y-82913133D01*
X126564497Y-82743709D01*
X126623254Y-82562876D01*
X126627827Y-82534000D01*
X125575703Y-82534000D01*
X125610925Y-82472993D01*
X125645000Y-82345826D01*
X125645000Y-82214174D01*
X125610925Y-82087007D01*
X125575703Y-82026000D01*
X126627827Y-82026000D01*
X126623254Y-81997123D01*
X126564497Y-81816290D01*
X126478171Y-81646866D01*
X126366408Y-81493038D01*
X126366406Y-81493035D01*
X126231964Y-81358593D01*
X126231961Y-81358591D01*
X126153982Y-81301936D01*
X126110628Y-81245714D01*
X126104553Y-81174978D01*
X126137684Y-81112186D01*
X126153982Y-81098064D01*
X126231961Y-81041408D01*
X126231964Y-81041406D01*
X126366406Y-80906964D01*
X126366408Y-80906961D01*
X126478171Y-80753133D01*
X126564497Y-80583709D01*
X126623254Y-80402876D01*
X126627827Y-80374000D01*
X125575703Y-80374000D01*
X125610925Y-80312993D01*
X125645000Y-80185826D01*
X125645000Y-80054174D01*
X125610925Y-79927007D01*
X125575703Y-79866000D01*
X126627827Y-79866000D01*
X126623254Y-79837123D01*
X126564497Y-79656290D01*
X126478171Y-79486866D01*
X126366408Y-79333038D01*
X126366406Y-79333035D01*
X126231964Y-79198593D01*
X126231961Y-79198591D01*
X126078133Y-79086828D01*
X125908709Y-79000502D01*
X125727877Y-78941746D01*
X125540069Y-78912000D01*
X125399000Y-78912000D01*
X125399000Y-79689297D01*
X125337993Y-79654075D01*
X125210826Y-79620000D01*
X125079174Y-79620000D01*
X124952007Y-79654075D01*
X124891000Y-79689297D01*
X124891000Y-78912000D01*
X124749931Y-78912000D01*
X124562122Y-78941746D01*
X124381290Y-79000502D01*
X124211866Y-79086828D01*
X124058038Y-79198591D01*
X124058035Y-79198593D01*
X123923593Y-79333035D01*
X123923591Y-79333038D01*
X123811828Y-79486866D01*
X123725502Y-79656290D01*
X123666745Y-79837123D01*
X123662173Y-79866000D01*
X122337827Y-79866000D01*
X122333254Y-79837123D01*
X122274497Y-79656290D01*
X122188171Y-79486866D01*
X122076408Y-79333038D01*
X122076406Y-79333035D01*
X121941964Y-79198593D01*
X121941961Y-79198591D01*
X121788133Y-79086828D01*
X121618709Y-79000502D01*
X121437877Y-78941746D01*
X121250069Y-78912000D01*
X121109000Y-78912000D01*
X121109000Y-79689297D01*
X121047993Y-79654075D01*
X120920826Y-79620000D01*
X120789174Y-79620000D01*
X120662007Y-79654075D01*
X120601000Y-79689297D01*
X120601000Y-78912000D01*
X120459931Y-78912000D01*
X120272122Y-78941746D01*
X120091290Y-79000502D01*
X119921866Y-79086828D01*
X119768038Y-79198591D01*
X119768035Y-79198593D01*
X119633593Y-79333035D01*
X119633591Y-79333038D01*
X119521828Y-79486866D01*
X119435502Y-79656290D01*
X119376745Y-79837123D01*
X119372173Y-79866000D01*
X120424297Y-79866000D01*
X120389075Y-79927007D01*
X120355000Y-80054174D01*
X120355000Y-80185826D01*
X120389075Y-80312993D01*
X120424297Y-80374000D01*
X119372173Y-80374000D01*
X119376745Y-80402876D01*
X119435502Y-80583709D01*
X119521828Y-80753133D01*
X119633591Y-80906961D01*
X119633593Y-80906964D01*
X119768035Y-81041406D01*
X119768038Y-81041408D01*
X119921866Y-81153171D01*
X120024608Y-81205521D01*
X120076223Y-81254269D01*
X120093289Y-81323184D01*
X120070388Y-81390386D01*
X120037407Y-81422553D01*
X119917222Y-81502858D01*
X119917215Y-81502863D01*
X119777863Y-81642215D01*
X119777858Y-81642222D01*
X119668368Y-81806085D01*
X119592950Y-81988161D01*
X119592949Y-81988164D01*
X119554500Y-82181455D01*
X119554500Y-82378544D01*
X119573288Y-82472993D01*
X119592949Y-82571835D01*
X119668368Y-82753914D01*
X119777861Y-82917782D01*
X119917218Y-83057139D01*
X120081086Y-83166632D01*
X120165046Y-83201409D01*
X120266882Y-83243591D01*
X120322163Y-83288139D01*
X120344584Y-83355503D01*
X120327026Y-83424294D01*
X120275064Y-83472672D01*
X120266882Y-83476409D01*
X120081085Y-83553368D01*
X119917222Y-83662858D01*
X119917215Y-83662863D01*
X119777863Y-83802215D01*
X119777858Y-83802222D01*
X119668368Y-83966085D01*
X119592950Y-84148161D01*
X119592949Y-84148164D01*
X119554500Y-84341455D01*
X119554500Y-84538544D01*
X119592949Y-84731835D01*
X119592950Y-84731838D01*
X119664141Y-84903709D01*
X119668368Y-84913914D01*
X119777861Y-85077782D01*
X119917218Y-85217139D01*
X120081086Y-85326632D01*
X120165046Y-85361409D01*
X120266882Y-85403591D01*
X120322163Y-85448139D01*
X120344584Y-85515503D01*
X120327026Y-85584294D01*
X120275064Y-85632672D01*
X120266882Y-85636409D01*
X120081085Y-85713368D01*
X119917222Y-85822858D01*
X119917215Y-85822863D01*
X119777863Y-85962215D01*
X119777858Y-85962222D01*
X119668368Y-86126085D01*
X119592950Y-86308161D01*
X119592949Y-86308164D01*
X119554500Y-86501455D01*
X119554500Y-86698544D01*
X119573288Y-86792993D01*
X119592949Y-86891835D01*
X119668368Y-87073914D01*
X119777861Y-87237782D01*
X119917218Y-87377139D01*
X120081086Y-87486632D01*
X120165046Y-87521409D01*
X120266882Y-87563591D01*
X120322163Y-87608139D01*
X120344584Y-87675503D01*
X120327026Y-87744294D01*
X120275064Y-87792672D01*
X120266882Y-87796409D01*
X120081085Y-87873368D01*
X119917222Y-87982858D01*
X119917215Y-87982863D01*
X119777863Y-88122215D01*
X119777858Y-88122222D01*
X119668368Y-88286085D01*
X119592950Y-88468161D01*
X119592949Y-88468164D01*
X119554500Y-88661455D01*
X119554500Y-88858544D01*
X119573288Y-88952993D01*
X119592949Y-89051835D01*
X119668368Y-89233914D01*
X119777861Y-89397782D01*
X119917218Y-89537139D01*
X120081086Y-89646632D01*
X120165046Y-89681409D01*
X120266882Y-89723591D01*
X120322163Y-89768139D01*
X120344584Y-89835503D01*
X120327026Y-89904294D01*
X120275064Y-89952672D01*
X120266882Y-89956409D01*
X120081085Y-90033368D01*
X119917222Y-90142858D01*
X119917215Y-90142863D01*
X119777863Y-90282215D01*
X119777858Y-90282222D01*
X119668368Y-90446085D01*
X119592950Y-90628161D01*
X119592949Y-90628164D01*
X119554500Y-90821455D01*
X119554500Y-91018544D01*
X119573288Y-91112993D01*
X119592949Y-91211835D01*
X119668368Y-91393914D01*
X119777861Y-91557782D01*
X119917218Y-91697139D01*
X120081086Y-91806632D01*
X120165046Y-91841409D01*
X120266882Y-91883591D01*
X120322163Y-91928139D01*
X120344584Y-91995503D01*
X120327026Y-92064294D01*
X120275064Y-92112672D01*
X120266882Y-92116409D01*
X120081085Y-92193368D01*
X119917222Y-92302858D01*
X119917215Y-92302863D01*
X119777863Y-92442215D01*
X119777858Y-92442222D01*
X119668368Y-92606085D01*
X119592950Y-92788161D01*
X119592949Y-92788164D01*
X119554500Y-92981455D01*
X119554500Y-93178544D01*
X119573288Y-93272993D01*
X119592949Y-93371835D01*
X119668368Y-93553914D01*
X119777861Y-93717782D01*
X119917218Y-93857139D01*
X120081086Y-93966632D01*
X120193748Y-94013297D01*
X120266882Y-94043591D01*
X120322163Y-94088139D01*
X120344584Y-94155503D01*
X120327026Y-94224294D01*
X120275064Y-94272672D01*
X120266882Y-94276409D01*
X120081085Y-94353368D01*
X119917222Y-94462858D01*
X119917215Y-94462863D01*
X119777863Y-94602215D01*
X119777858Y-94602222D01*
X119668368Y-94766085D01*
X119592950Y-94948161D01*
X119592949Y-94948164D01*
X119554500Y-95141455D01*
X119554500Y-95338544D01*
X119592949Y-95531835D01*
X119592950Y-95531838D01*
X119621930Y-95601802D01*
X119668368Y-95713914D01*
X119777861Y-95877782D01*
X119917218Y-96017139D01*
X120081086Y-96126632D01*
X120193748Y-96173297D01*
X120266882Y-96203591D01*
X120322163Y-96248139D01*
X120344584Y-96315503D01*
X120327026Y-96384294D01*
X120275064Y-96432672D01*
X120266882Y-96436409D01*
X120081085Y-96513368D01*
X119917222Y-96622858D01*
X119917215Y-96622863D01*
X119777863Y-96762215D01*
X119777858Y-96762222D01*
X119668368Y-96926085D01*
X119592950Y-97108161D01*
X119592949Y-97108164D01*
X119554500Y-97301455D01*
X119554500Y-97498544D01*
X119587353Y-97663704D01*
X119581025Y-97734418D01*
X119552869Y-97777381D01*
X118606008Y-98724243D01*
X118543698Y-98758267D01*
X118516915Y-98761147D01*
X116192480Y-98761147D01*
X116124359Y-98741145D01*
X116103973Y-98723675D01*
X116103888Y-98723772D01*
X116024269Y-98653237D01*
X115970852Y-98605913D01*
X115970851Y-98605912D01*
X115820225Y-98526857D01*
X115820221Y-98526855D01*
X115655059Y-98486147D01*
X115655056Y-98486147D01*
X115484944Y-98486147D01*
X115484940Y-98486147D01*
X115319778Y-98526855D01*
X115319774Y-98526857D01*
X115169148Y-98605912D01*
X115169142Y-98605917D01*
X115041818Y-98718716D01*
X115041816Y-98718718D01*
X114945181Y-98858717D01*
X114945179Y-98858721D01*
X114884859Y-99017775D01*
X114864355Y-99186644D01*
X96768000Y-99186644D01*
X96768000Y-85089997D01*
X104544355Y-85089997D01*
X104544355Y-85090002D01*
X104564859Y-85258871D01*
X104625182Y-85417930D01*
X104677196Y-85493285D01*
X104699432Y-85560710D01*
X104699500Y-85564861D01*
X104699500Y-91821138D01*
X104679498Y-91889259D01*
X104677196Y-91892714D01*
X104625181Y-91968069D01*
X104564859Y-92127128D01*
X104544355Y-92295997D01*
X104544355Y-92296002D01*
X104564859Y-92464871D01*
X104625182Y-92623930D01*
X104677196Y-92699285D01*
X104699432Y-92766710D01*
X104699500Y-92770861D01*
X104699500Y-95924475D01*
X104730589Y-96040500D01*
X104737016Y-96064485D01*
X104809490Y-96190015D01*
X104937682Y-96318207D01*
X104971706Y-96380517D01*
X104973667Y-96392112D01*
X104978859Y-96434871D01*
X105039179Y-96593925D01*
X105039181Y-96593929D01*
X105059152Y-96622861D01*
X105135817Y-96733929D01*
X105263148Y-96846734D01*
X105413775Y-96925790D01*
X105413776Y-96925790D01*
X105413778Y-96925791D01*
X105570461Y-96964409D01*
X105578944Y-96966500D01*
X105578947Y-96966500D01*
X105749053Y-96966500D01*
X105749056Y-96966500D01*
X105914225Y-96925790D01*
X106064852Y-96846734D01*
X106192183Y-96733929D01*
X106288818Y-96593930D01*
X106349140Y-96434872D01*
X106369645Y-96266000D01*
X106367476Y-96248139D01*
X106349140Y-96097128D01*
X106288820Y-95938074D01*
X106288818Y-95938070D01*
X106192183Y-95798071D01*
X106192181Y-95798069D01*
X106064857Y-95685270D01*
X106064851Y-95685265D01*
X105914225Y-95606210D01*
X105914216Y-95606207D01*
X105896345Y-95601802D01*
X105834991Y-95566079D01*
X105802690Y-95502855D01*
X105800500Y-95479464D01*
X105800500Y-92770861D01*
X105820502Y-92702740D01*
X105822804Y-92699285D01*
X105837287Y-92678301D01*
X105874818Y-92623930D01*
X105935140Y-92464872D01*
X105954812Y-92302861D01*
X105955645Y-92296002D01*
X105955645Y-92295997D01*
X105935140Y-92127128D01*
X105874818Y-91968069D01*
X105822804Y-91892714D01*
X105800568Y-91825290D01*
X105800500Y-91821138D01*
X105800500Y-85564861D01*
X105820502Y-85496740D01*
X105822804Y-85493285D01*
X105837287Y-85472301D01*
X105874818Y-85417930D01*
X105935140Y-85258872D01*
X105939015Y-85226964D01*
X105950104Y-85135632D01*
X105978171Y-85070419D01*
X105986091Y-85061722D01*
X106010411Y-85037403D01*
X106072724Y-85003379D01*
X106099505Y-85000500D01*
X114727878Y-85000500D01*
X114795999Y-85020502D01*
X114842492Y-85074158D01*
X114849551Y-85099212D01*
X114850535Y-85098970D01*
X114852358Y-85106369D01*
X114912679Y-85265425D01*
X114912681Y-85265429D01*
X115009316Y-85405428D01*
X115009318Y-85405430D01*
X115039519Y-85432186D01*
X115136648Y-85518234D01*
X115287275Y-85597290D01*
X115287276Y-85597290D01*
X115287278Y-85597291D01*
X115387269Y-85621936D01*
X115452444Y-85638000D01*
X115477996Y-85638000D01*
X115546117Y-85658002D01*
X115567091Y-85674905D01*
X115712595Y-85820409D01*
X115746621Y-85882721D01*
X115749500Y-85909504D01*
X115749500Y-94733894D01*
X115749500Y-94865678D01*
X115771601Y-94948161D01*
X115783607Y-94992969D01*
X115783610Y-94992976D01*
X115849497Y-95107096D01*
X115849499Y-95107098D01*
X115849500Y-95107100D01*
X116473985Y-95731585D01*
X116508009Y-95793896D01*
X116509970Y-95805491D01*
X116524935Y-95928733D01*
X116585255Y-96087787D01*
X116585257Y-96087791D01*
X116681892Y-96227790D01*
X116681894Y-96227792D01*
X116783949Y-96318205D01*
X116809224Y-96340596D01*
X116959851Y-96419652D01*
X116959852Y-96419652D01*
X116959854Y-96419653D01*
X117116537Y-96458271D01*
X117125020Y-96460362D01*
X117125023Y-96460362D01*
X117295129Y-96460362D01*
X117295132Y-96460362D01*
X117460301Y-96419652D01*
X117610928Y-96340596D01*
X117738259Y-96227791D01*
X117834894Y-96087792D01*
X117895216Y-95928734D01*
X117911082Y-95798069D01*
X117915721Y-95759864D01*
X117915721Y-95759859D01*
X117895216Y-95590990D01*
X117834896Y-95431936D01*
X117834894Y-95431932D01*
X117738259Y-95291933D01*
X117738257Y-95291931D01*
X117610933Y-95179132D01*
X117610927Y-95179127D01*
X117460301Y-95100072D01*
X117460297Y-95100070D01*
X117295135Y-95059362D01*
X117295132Y-95059362D01*
X117269580Y-95059362D01*
X117201459Y-95039360D01*
X117180485Y-95022457D01*
X116787405Y-94629377D01*
X116753379Y-94567065D01*
X116750500Y-94540282D01*
X116750500Y-85584108D01*
X116750499Y-85584106D01*
X116745342Y-85564861D01*
X116743485Y-85557929D01*
X116716392Y-85456814D01*
X116685664Y-85403591D01*
X116650502Y-85342689D01*
X116650497Y-85342683D01*
X116524950Y-85217136D01*
X116273588Y-84965774D01*
X116239565Y-84903464D01*
X116237604Y-84891868D01*
X116222640Y-84768628D01*
X116162320Y-84609574D01*
X116162318Y-84609570D01*
X116065683Y-84469571D01*
X116065681Y-84469569D01*
X115938357Y-84356770D01*
X115938351Y-84356765D01*
X115787725Y-84277710D01*
X115787721Y-84277708D01*
X115622559Y-84237000D01*
X115622556Y-84237000D01*
X115597004Y-84237000D01*
X115528883Y-84216998D01*
X115507913Y-84200099D01*
X115407314Y-84099500D01*
X115407313Y-84099499D01*
X115407310Y-84099497D01*
X115293190Y-84033610D01*
X115293187Y-84033609D01*
X115293186Y-84033608D01*
X115293184Y-84033607D01*
X115293183Y-84033607D01*
X115259073Y-84024467D01*
X115165892Y-83999500D01*
X105905892Y-83999500D01*
X105774108Y-83999500D01*
X105705894Y-84017777D01*
X105646816Y-84033607D01*
X105646809Y-84033610D01*
X105532689Y-84099497D01*
X105532683Y-84099502D01*
X105446186Y-84186000D01*
X105279589Y-84352596D01*
X105217279Y-84386620D01*
X105190496Y-84389500D01*
X105164940Y-84389500D01*
X104999778Y-84430208D01*
X104999774Y-84430210D01*
X104849148Y-84509265D01*
X104849142Y-84509270D01*
X104721818Y-84622069D01*
X104721816Y-84622071D01*
X104625181Y-84762070D01*
X104625179Y-84762074D01*
X104564859Y-84921128D01*
X104544355Y-85089997D01*
X96768000Y-85089997D01*
X96768000Y-79774997D01*
X109544355Y-79774997D01*
X109544355Y-79775002D01*
X109564859Y-79943871D01*
X109625179Y-80102925D01*
X109625181Y-80102929D01*
X109625182Y-80102930D01*
X109721817Y-80242929D01*
X109849148Y-80355734D01*
X109999775Y-80434790D01*
X109999776Y-80434790D01*
X109999778Y-80434791D01*
X110156461Y-80473409D01*
X110164944Y-80475500D01*
X110271062Y-80475500D01*
X110339183Y-80495502D01*
X110360157Y-80512405D01*
X111211723Y-81363971D01*
X111245749Y-81426283D01*
X111247709Y-81468252D01*
X111243855Y-81499995D01*
X111243855Y-81500002D01*
X111264359Y-81668871D01*
X111324679Y-81827925D01*
X111324681Y-81827929D01*
X111324682Y-81827930D01*
X111421317Y-81967929D01*
X111548648Y-82080734D01*
X111699275Y-82159790D01*
X111699276Y-82159790D01*
X111699278Y-82159791D01*
X111855961Y-82198409D01*
X111864444Y-82200500D01*
X111864447Y-82200500D01*
X112034553Y-82200500D01*
X112034556Y-82200500D01*
X112199725Y-82159790D01*
X112350352Y-82080734D01*
X112477683Y-81967929D01*
X112574318Y-81827930D01*
X112579573Y-81814075D01*
X112634640Y-81668871D01*
X112655145Y-81500002D01*
X112655145Y-81499997D01*
X112634640Y-81331128D01*
X112574320Y-81172074D01*
X112574318Y-81172070D01*
X112477683Y-81032071D01*
X112477681Y-81032069D01*
X112350357Y-80919270D01*
X112350351Y-80919265D01*
X112199725Y-80840210D01*
X112199721Y-80840208D01*
X112034559Y-80799500D01*
X112034556Y-80799500D01*
X111902938Y-80799500D01*
X111834817Y-80779498D01*
X111813843Y-80762595D01*
X110985015Y-79933767D01*
X110950989Y-79871455D01*
X110949029Y-79829483D01*
X110951032Y-79812993D01*
X110955645Y-79775000D01*
X110935140Y-79606128D01*
X110874820Y-79447074D01*
X110874818Y-79447070D01*
X110778183Y-79307071D01*
X110778181Y-79307069D01*
X110650857Y-79194270D01*
X110650851Y-79194265D01*
X110500225Y-79115210D01*
X110500221Y-79115208D01*
X110335059Y-79074500D01*
X110335056Y-79074500D01*
X110164944Y-79074500D01*
X110164940Y-79074500D01*
X109999778Y-79115208D01*
X109999774Y-79115210D01*
X109849148Y-79194265D01*
X109849142Y-79194270D01*
X109721818Y-79307069D01*
X109721816Y-79307071D01*
X109625181Y-79447070D01*
X109625179Y-79447074D01*
X109564859Y-79606128D01*
X109544355Y-79774997D01*
X96768000Y-79774997D01*
X96768000Y-75870838D01*
X113399500Y-75870838D01*
X113399500Y-76122762D01*
X113438910Y-76371585D01*
X113438911Y-76371590D01*
X113516757Y-76611174D01*
X113516759Y-76611179D01*
X113631130Y-76835645D01*
X113779207Y-77039456D01*
X113779209Y-77039458D01*
X113779211Y-77039461D01*
X113957338Y-77217588D01*
X113957341Y-77217590D01*
X113957344Y-77217593D01*
X114161155Y-77365670D01*
X114385621Y-77480041D01*
X114625215Y-77557890D01*
X114874038Y-77597300D01*
X114874041Y-77597300D01*
X115125959Y-77597300D01*
X115125962Y-77597300D01*
X115374785Y-77557890D01*
X115614379Y-77480041D01*
X115838845Y-77365670D01*
X116042656Y-77217593D01*
X116220793Y-77039456D01*
X116368870Y-76835645D01*
X116483241Y-76611179D01*
X116561090Y-76371585D01*
X116600500Y-76122762D01*
X116600500Y-75870838D01*
X116561090Y-75622015D01*
X116483241Y-75382421D01*
X116368870Y-75157955D01*
X116220793Y-74954144D01*
X116220790Y-74954141D01*
X116220788Y-74954138D01*
X116042661Y-74776011D01*
X116042658Y-74776009D01*
X116042656Y-74776007D01*
X115838845Y-74627930D01*
X115614379Y-74513559D01*
X115614376Y-74513558D01*
X115614374Y-74513557D01*
X115374790Y-74435711D01*
X115374786Y-74435710D01*
X115374785Y-74435710D01*
X115125962Y-74396300D01*
X114874038Y-74396300D01*
X114625215Y-74435710D01*
X114625209Y-74435711D01*
X114385625Y-74513557D01*
X114385619Y-74513560D01*
X114161151Y-74627932D01*
X113957341Y-74776009D01*
X113957338Y-74776011D01*
X113779211Y-74954138D01*
X113779209Y-74954141D01*
X113631132Y-75157951D01*
X113516760Y-75382419D01*
X113516757Y-75382425D01*
X113438911Y-75622009D01*
X113438910Y-75622014D01*
X113438910Y-75622015D01*
X113399500Y-75870838D01*
X96768000Y-75870838D01*
X96768000Y-69655718D01*
X100772000Y-69655718D01*
X100772000Y-70051000D01*
X101480000Y-70051000D01*
X101480000Y-70559000D01*
X100772000Y-70559000D01*
X100772000Y-70954281D01*
X100810737Y-71149023D01*
X100810739Y-71149028D01*
X100886722Y-71332466D01*
X100997032Y-71497557D01*
X100997037Y-71497564D01*
X101137435Y-71637962D01*
X101137442Y-71637967D01*
X101302533Y-71748277D01*
X101485971Y-71824260D01*
X101485976Y-71824262D01*
X101525999Y-71832223D01*
X101526000Y-71832223D01*
X101526000Y-71015060D01*
X101539940Y-71039205D01*
X101595795Y-71095060D01*
X101664204Y-71134556D01*
X101740504Y-71155000D01*
X101819496Y-71155000D01*
X101895796Y-71134556D01*
X101964205Y-71095060D01*
X102020060Y-71039205D01*
X102034000Y-71015060D01*
X102034000Y-71832223D01*
X102074023Y-71824262D01*
X102074028Y-71824260D01*
X102257466Y-71748277D01*
X102422557Y-71637967D01*
X102422564Y-71637962D01*
X102562962Y-71497564D01*
X102562967Y-71497557D01*
X102673277Y-71332466D01*
X102749260Y-71149028D01*
X102749262Y-71149023D01*
X102787999Y-70954281D01*
X102788000Y-70954277D01*
X102788000Y-70414126D01*
X102808002Y-70346005D01*
X102861658Y-70299512D01*
X102931932Y-70289408D01*
X102976998Y-70305006D01*
X102987865Y-70311281D01*
X103134234Y-70350500D01*
X103134236Y-70350500D01*
X103285764Y-70350500D01*
X103285766Y-70350500D01*
X103432135Y-70311281D01*
X103563365Y-70235515D01*
X103670515Y-70128365D01*
X103746281Y-69997135D01*
X103785500Y-69850766D01*
X103785500Y-69699234D01*
X108414500Y-69699234D01*
X108414500Y-69850766D01*
X108434573Y-69925679D01*
X108453718Y-69997132D01*
X108453721Y-69997139D01*
X108529482Y-70128361D01*
X108529490Y-70128371D01*
X108636628Y-70235509D01*
X108636633Y-70235513D01*
X108636635Y-70235515D01*
X108767865Y-70311281D01*
X108914234Y-70350500D01*
X108914236Y-70350500D01*
X109065764Y-70350500D01*
X109065766Y-70350500D01*
X109212135Y-70311281D01*
X109223000Y-70305008D01*
X109291991Y-70288268D01*
X109359083Y-70311487D01*
X109402973Y-70367292D01*
X109412000Y-70414126D01*
X109412000Y-70954281D01*
X109450737Y-71149023D01*
X109450739Y-71149028D01*
X109526722Y-71332466D01*
X109637032Y-71497557D01*
X109637037Y-71497564D01*
X109777435Y-71637962D01*
X109777442Y-71637967D01*
X109942533Y-71748277D01*
X110125971Y-71824260D01*
X110125976Y-71824262D01*
X110165999Y-71832223D01*
X110166000Y-71832223D01*
X110166000Y-71015060D01*
X110179940Y-71039205D01*
X110235795Y-71095060D01*
X110304204Y-71134556D01*
X110380504Y-71155000D01*
X110459496Y-71155000D01*
X110535796Y-71134556D01*
X110604205Y-71095060D01*
X110660060Y-71039205D01*
X110674000Y-71015060D01*
X110674000Y-71832223D01*
X110714023Y-71824262D01*
X110714028Y-71824260D01*
X110897466Y-71748277D01*
X111062557Y-71637967D01*
X111062564Y-71637962D01*
X111202962Y-71497564D01*
X111202967Y-71497557D01*
X111313277Y-71332466D01*
X111389260Y-71149028D01*
X111389262Y-71149023D01*
X111427999Y-70954281D01*
X111428000Y-70954277D01*
X111428000Y-70559000D01*
X110720000Y-70559000D01*
X110720000Y-70051000D01*
X111428000Y-70051000D01*
X111428000Y-69655722D01*
X111427999Y-69655718D01*
X111389262Y-69460976D01*
X111389260Y-69460971D01*
X111313277Y-69277533D01*
X111202967Y-69112442D01*
X111202962Y-69112435D01*
X111062564Y-68972037D01*
X111062557Y-68972032D01*
X110897467Y-68861722D01*
X110714020Y-68785736D01*
X110714015Y-68785735D01*
X110674000Y-68777774D01*
X110674000Y-69594939D01*
X110660060Y-69570795D01*
X110604205Y-69514940D01*
X110535796Y-69475444D01*
X110459496Y-69455000D01*
X110380504Y-69455000D01*
X110304204Y-69475444D01*
X110235795Y-69514940D01*
X110179940Y-69570795D01*
X110166000Y-69594939D01*
X110166000Y-68777775D01*
X110165999Y-68777774D01*
X110125984Y-68785735D01*
X110125979Y-68785736D01*
X109942532Y-68861722D01*
X109777442Y-68972032D01*
X109777435Y-68972037D01*
X109637037Y-69112435D01*
X109637032Y-69112442D01*
X109523283Y-69282680D01*
X109520989Y-69281147D01*
X109479457Y-69323287D01*
X109410194Y-69338883D01*
X109351230Y-69317377D01*
X109350517Y-69318614D01*
X109212139Y-69238721D01*
X109212136Y-69238720D01*
X109212135Y-69238719D01*
X109212133Y-69238718D01*
X109212132Y-69238718D01*
X109172911Y-69228209D01*
X109065766Y-69199500D01*
X108914234Y-69199500D01*
X108835798Y-69220516D01*
X108767867Y-69238718D01*
X108767860Y-69238721D01*
X108636638Y-69314482D01*
X108636628Y-69314490D01*
X108529490Y-69421628D01*
X108529482Y-69421638D01*
X108453721Y-69552860D01*
X108453718Y-69552867D01*
X108438475Y-69609757D01*
X108414500Y-69699234D01*
X103785500Y-69699234D01*
X103746281Y-69552865D01*
X103693226Y-69460971D01*
X103670517Y-69421638D01*
X103670509Y-69421628D01*
X103563371Y-69314490D01*
X103563361Y-69314482D01*
X103432139Y-69238721D01*
X103432136Y-69238720D01*
X103432135Y-69238719D01*
X103432133Y-69238718D01*
X103432132Y-69238718D01*
X103392911Y-69228209D01*
X103285766Y-69199500D01*
X103134234Y-69199500D01*
X103055798Y-69220516D01*
X102987867Y-69238718D01*
X102987860Y-69238721D01*
X102849483Y-69318614D01*
X102848516Y-69316939D01*
X102792212Y-69338705D01*
X102722663Y-69324439D01*
X102678606Y-69281417D01*
X102676717Y-69282680D01*
X102562967Y-69112442D01*
X102562962Y-69112435D01*
X102422564Y-68972037D01*
X102422557Y-68972032D01*
X102257467Y-68861722D01*
X102074020Y-68785736D01*
X102074015Y-68785735D01*
X102034000Y-68777774D01*
X102034000Y-69594939D01*
X102020060Y-69570795D01*
X101964205Y-69514940D01*
X101895796Y-69475444D01*
X101819496Y-69455000D01*
X101740504Y-69455000D01*
X101664204Y-69475444D01*
X101595795Y-69514940D01*
X101539940Y-69570795D01*
X101526000Y-69594939D01*
X101526000Y-68777775D01*
X101525999Y-68777774D01*
X101485984Y-68785735D01*
X101485979Y-68785736D01*
X101302532Y-68861722D01*
X101137442Y-68972032D01*
X101137435Y-68972037D01*
X100997037Y-69112435D01*
X100997032Y-69112442D01*
X100886722Y-69277533D01*
X100810739Y-69460971D01*
X100810737Y-69460976D01*
X100772000Y-69655718D01*
X96768000Y-69655718D01*
X96768000Y-68599996D01*
X120636941Y-68599996D01*
X120636941Y-68600003D01*
X120657156Y-68908436D01*
X120657158Y-68908451D01*
X120717460Y-69211603D01*
X120717462Y-69211613D01*
X120816815Y-69504296D01*
X120816821Y-69504310D01*
X120953528Y-69781527D01*
X121125259Y-70038539D01*
X121125262Y-70038543D01*
X121161230Y-70079556D01*
X121161232Y-70079556D01*
X121739163Y-69501624D01*
X121817726Y-69609757D01*
X121990243Y-69782274D01*
X122098373Y-69860835D01*
X121520442Y-70438766D01*
X121520442Y-70438768D01*
X121561456Y-70474737D01*
X121561460Y-70474740D01*
X121818472Y-70646471D01*
X122095689Y-70783178D01*
X122095703Y-70783184D01*
X122388386Y-70882537D01*
X122388396Y-70882539D01*
X122691548Y-70942841D01*
X122691563Y-70942843D01*
X122999997Y-70963059D01*
X123000003Y-70963059D01*
X123308436Y-70942843D01*
X123308451Y-70942841D01*
X123611603Y-70882539D01*
X123611613Y-70882537D01*
X123904296Y-70783184D01*
X123904310Y-70783178D01*
X124181527Y-70646471D01*
X124438546Y-70474735D01*
X124479556Y-70438769D01*
X124479556Y-70438766D01*
X123901626Y-69860835D01*
X124009757Y-69782274D01*
X124182274Y-69609757D01*
X124260835Y-69501625D01*
X124838766Y-70079556D01*
X124838769Y-70079556D01*
X124874735Y-70038546D01*
X125046471Y-69781527D01*
X125183178Y-69504310D01*
X125183184Y-69504296D01*
X125282537Y-69211613D01*
X125282539Y-69211603D01*
X125342841Y-68908451D01*
X125342843Y-68908436D01*
X125363059Y-68600003D01*
X125363059Y-68599996D01*
X125342843Y-68291563D01*
X125342841Y-68291548D01*
X125282539Y-67988396D01*
X125282537Y-67988386D01*
X125183184Y-67695703D01*
X125183178Y-67695689D01*
X125046470Y-67418473D01*
X124874744Y-67161465D01*
X124874735Y-67161454D01*
X124838768Y-67120442D01*
X124838766Y-67120442D01*
X124260835Y-67698373D01*
X124182274Y-67590243D01*
X124009757Y-67417726D01*
X123901625Y-67339163D01*
X124479556Y-66761232D01*
X124479556Y-66761230D01*
X124438543Y-66725262D01*
X124438539Y-66725259D01*
X124181527Y-66553528D01*
X123904310Y-66416821D01*
X123904296Y-66416815D01*
X123611613Y-66317462D01*
X123611603Y-66317460D01*
X123308451Y-66257158D01*
X123308436Y-66257156D01*
X123000003Y-66236941D01*
X122999997Y-66236941D01*
X122691563Y-66257156D01*
X122691548Y-66257158D01*
X122388396Y-66317460D01*
X122388386Y-66317462D01*
X122095703Y-66416815D01*
X122095689Y-66416821D01*
X121818473Y-66553529D01*
X121561461Y-66725258D01*
X121561457Y-66725261D01*
X121520442Y-66761230D01*
X121520442Y-66761232D01*
X122098374Y-67339164D01*
X121990243Y-67417726D01*
X121817726Y-67590243D01*
X121739164Y-67698374D01*
X121161232Y-67120442D01*
X121161230Y-67120442D01*
X121125261Y-67161457D01*
X121125258Y-67161461D01*
X120953529Y-67418473D01*
X120816821Y-67695689D01*
X120816815Y-67695703D01*
X120717462Y-67988386D01*
X120717460Y-67988396D01*
X120657158Y-68291548D01*
X120657156Y-68291563D01*
X120636941Y-68599996D01*
X96768000Y-68599996D01*
X96768000Y-65725718D01*
X100772000Y-65725718D01*
X100772000Y-65871000D01*
X101480000Y-65871000D01*
X101480000Y-66379000D01*
X100772000Y-66379000D01*
X100772000Y-66524281D01*
X100810737Y-66719023D01*
X100810739Y-66719028D01*
X100886722Y-66902466D01*
X100997032Y-67067557D01*
X100997037Y-67067564D01*
X101137435Y-67207962D01*
X101137442Y-67207967D01*
X101302533Y-67318277D01*
X101485971Y-67394260D01*
X101485976Y-67394262D01*
X101525999Y-67402223D01*
X101526000Y-67402223D01*
X101526000Y-66585060D01*
X101539940Y-66609205D01*
X101595795Y-66665060D01*
X101664204Y-66704556D01*
X101740504Y-66725000D01*
X101819496Y-66725000D01*
X101895796Y-66704556D01*
X101964205Y-66665060D01*
X102020060Y-66609205D01*
X102034000Y-66585060D01*
X102034000Y-67402223D01*
X102074023Y-67394262D01*
X102074028Y-67394260D01*
X102257466Y-67318277D01*
X102422557Y-67207967D01*
X102422564Y-67207962D01*
X102562962Y-67067564D01*
X102562967Y-67067557D01*
X102673277Y-66902466D01*
X102749260Y-66719028D01*
X102749262Y-66719023D01*
X102787999Y-66524281D01*
X102788000Y-66524277D01*
X102788000Y-66379000D01*
X102080000Y-66379000D01*
X102080000Y-65871000D01*
X102788000Y-65871000D01*
X102788000Y-65725722D01*
X102787999Y-65725718D01*
X109412000Y-65725718D01*
X109412000Y-65871000D01*
X110120000Y-65871000D01*
X110120000Y-66379000D01*
X109412000Y-66379000D01*
X109412000Y-66524281D01*
X109450737Y-66719023D01*
X109450739Y-66719028D01*
X109526722Y-66902466D01*
X109637032Y-67067557D01*
X109637037Y-67067564D01*
X109777435Y-67207962D01*
X109777442Y-67207967D01*
X109942533Y-67318277D01*
X110125971Y-67394260D01*
X110125976Y-67394262D01*
X110165999Y-67402223D01*
X110166000Y-67402223D01*
X110166000Y-66585060D01*
X110179940Y-66609205D01*
X110235795Y-66665060D01*
X110304204Y-66704556D01*
X110380504Y-66725000D01*
X110459496Y-66725000D01*
X110535796Y-66704556D01*
X110604205Y-66665060D01*
X110660060Y-66609205D01*
X110674000Y-66585060D01*
X110674000Y-67402223D01*
X110714023Y-67394262D01*
X110714028Y-67394260D01*
X110897466Y-67318277D01*
X111062557Y-67207967D01*
X111062564Y-67207962D01*
X111202962Y-67067564D01*
X111202967Y-67067557D01*
X111313277Y-66902466D01*
X111389260Y-66719028D01*
X111389262Y-66719023D01*
X111427999Y-66524281D01*
X111428000Y-66524277D01*
X111428000Y-66379000D01*
X110720000Y-66379000D01*
X110720000Y-65871000D01*
X111428000Y-65871000D01*
X111428000Y-65725722D01*
X111427999Y-65725718D01*
X111389262Y-65530976D01*
X111389260Y-65530971D01*
X111313277Y-65347533D01*
X111202967Y-65182442D01*
X111202962Y-65182435D01*
X111062564Y-65042037D01*
X111062557Y-65042032D01*
X110897467Y-64931722D01*
X110714020Y-64855736D01*
X110714015Y-64855735D01*
X110674000Y-64847774D01*
X110674000Y-65664939D01*
X110660060Y-65640795D01*
X110604205Y-65584940D01*
X110535796Y-65545444D01*
X110459496Y-65525000D01*
X110380504Y-65525000D01*
X110304204Y-65545444D01*
X110235795Y-65584940D01*
X110179940Y-65640795D01*
X110166000Y-65664939D01*
X110166000Y-64847775D01*
X110165999Y-64847774D01*
X110125984Y-64855735D01*
X110125979Y-64855736D01*
X109942532Y-64931722D01*
X109777442Y-65042032D01*
X109777435Y-65042037D01*
X109637037Y-65182435D01*
X109637032Y-65182442D01*
X109526722Y-65347533D01*
X109450739Y-65530971D01*
X109450737Y-65530976D01*
X109412000Y-65725718D01*
X102787999Y-65725718D01*
X102749262Y-65530976D01*
X102749260Y-65530971D01*
X102673277Y-65347533D01*
X102562967Y-65182442D01*
X102562962Y-65182435D01*
X102422564Y-65042037D01*
X102422557Y-65042032D01*
X102257467Y-64931722D01*
X102074020Y-64855736D01*
X102074015Y-64855735D01*
X102034000Y-64847774D01*
X102034000Y-65664939D01*
X102020060Y-65640795D01*
X101964205Y-65584940D01*
X101895796Y-65545444D01*
X101819496Y-65525000D01*
X101740504Y-65525000D01*
X101664204Y-65545444D01*
X101595795Y-65584940D01*
X101539940Y-65640795D01*
X101526000Y-65664939D01*
X101526000Y-64847775D01*
X101525999Y-64847774D01*
X101485984Y-64855735D01*
X101485979Y-64855736D01*
X101302532Y-64931722D01*
X101137442Y-65042032D01*
X101137435Y-65042037D01*
X100997037Y-65182435D01*
X100997032Y-65182442D01*
X100886722Y-65347533D01*
X100810739Y-65530971D01*
X100810737Y-65530976D01*
X100772000Y-65725718D01*
X96768000Y-65725718D01*
X96768000Y-64430000D01*
X96788002Y-64361879D01*
X96841658Y-64315386D01*
X96894000Y-64304000D01*
X133538500Y-64304000D01*
X133606621Y-64324002D01*
G37*
%TD.AperFunction*%
%TD*%
M02*
