G75*
%MOIN*%
%OFA0B0*%
%FSLAX24Y24*%
%IPPOS*%
%LPD*%
%AMOC8*
5,1,8,0,0,1.08239X$1,22.5*
%
%ADD10C,0.0039*%
%ADD11C,0.0520*%
%ADD12C,0.2300*%
%ADD13OC8,0.0600*%
%ADD14OC8,0.0574*%
%ADD15C,0.1306*%
%ADD16R,0.0591X0.0591*%
%ADD17R,0.0354X0.0276*%
%ADD18C,0.0278*%
%ADD19C,0.0079*%
%ADD20C,0.0475*%
%ADD21C,0.0298*%
%ADD22C,0.0160*%
D10*
X011639Y008800D02*
X011696Y008798D01*
X011753Y008793D01*
X011810Y008783D01*
X011865Y008770D01*
X011920Y008754D01*
X011974Y008733D01*
X012026Y008710D01*
X012077Y008683D01*
X012125Y008653D01*
X012172Y008619D01*
X012216Y008583D01*
X012258Y008544D01*
X012297Y008502D01*
X012333Y008458D01*
X012367Y008411D01*
X012397Y008363D01*
X012424Y008312D01*
X012447Y008260D01*
X012468Y008206D01*
X012484Y008151D01*
X012497Y008096D01*
X012507Y008039D01*
X012512Y007982D01*
X012514Y007925D01*
X012514Y001050D01*
X012516Y000993D01*
X012521Y000936D01*
X012531Y000879D01*
X012544Y000824D01*
X012560Y000769D01*
X012581Y000715D01*
X012604Y000663D01*
X012631Y000613D01*
X012661Y000564D01*
X012695Y000517D01*
X012731Y000473D01*
X012770Y000431D01*
X012812Y000392D01*
X012856Y000356D01*
X012903Y000322D01*
X012952Y000292D01*
X013002Y000265D01*
X013054Y000242D01*
X013108Y000221D01*
X013163Y000205D01*
X013218Y000192D01*
X013275Y000182D01*
X013332Y000177D01*
X013389Y000175D01*
X021014Y000175D01*
X022264Y001300D02*
X022264Y015925D01*
X000139Y015925D01*
X000139Y009300D01*
X000141Y009256D01*
X000147Y009213D01*
X000156Y009171D01*
X000169Y009129D01*
X000186Y009089D01*
X000206Y009050D01*
X000229Y009013D01*
X000256Y008979D01*
X000285Y008946D01*
X000318Y008917D01*
X000352Y008890D01*
X000389Y008867D01*
X000428Y008847D01*
X000468Y008830D01*
X000510Y008817D01*
X000552Y008808D01*
X000595Y008802D01*
X000639Y008800D01*
X011639Y008800D01*
X021015Y000176D02*
X021081Y000174D01*
X021148Y000176D01*
X021214Y000182D01*
X021280Y000192D01*
X021346Y000205D01*
X021410Y000222D01*
X021474Y000242D01*
X021536Y000266D01*
X021597Y000294D01*
X021656Y000324D01*
X021713Y000358D01*
X021768Y000396D01*
X021822Y000436D01*
X021872Y000479D01*
X021921Y000525D01*
X021966Y000574D01*
X022009Y000625D01*
X022049Y000678D01*
X022086Y000734D01*
X022120Y000792D01*
X022150Y000851D01*
X022177Y000912D01*
X022201Y000974D01*
X022221Y001038D01*
X022237Y001103D01*
X022250Y001168D01*
X022259Y001234D01*
X022264Y001301D01*
D11*
X015814Y010315D02*
X015814Y010835D01*
X014964Y010835D02*
X014964Y010315D01*
X014114Y010315D02*
X014114Y010835D01*
X013264Y010835D02*
X013264Y010315D01*
X012414Y010315D02*
X012414Y010835D01*
X011564Y010835D02*
X011564Y010315D01*
X010714Y010315D02*
X010714Y010835D01*
X009864Y010835D02*
X009864Y010315D01*
X009014Y010315D02*
X009014Y010835D01*
X008164Y010835D02*
X008164Y010315D01*
X007314Y010315D02*
X007314Y010835D01*
X006464Y010835D02*
X006464Y010315D01*
X006464Y012015D02*
X006464Y012535D01*
X007314Y012535D02*
X007314Y012015D01*
X008164Y012015D02*
X008164Y012535D01*
X009014Y012535D02*
X009014Y012015D01*
X009864Y012015D02*
X009864Y012535D01*
X010714Y012535D02*
X010714Y012015D01*
X011564Y012015D02*
X011564Y012535D01*
X012414Y012535D02*
X012414Y012015D01*
X013264Y012015D02*
X013264Y012535D01*
X014114Y012535D02*
X014114Y012015D01*
X014964Y012015D02*
X014964Y012535D01*
X015814Y012535D02*
X015814Y012015D01*
D12*
X020349Y011425D03*
X001929Y011425D03*
D13*
X020514Y003175D03*
X021514Y003175D03*
X021514Y002175D03*
X020514Y002175D03*
X020514Y001175D03*
X021514Y001175D03*
D14*
X015369Y003183D03*
X014581Y003183D03*
X014581Y004167D03*
X015369Y004167D03*
D15*
X013514Y006045D03*
X013514Y001305D03*
D16*
X017200Y000800D03*
X018578Y000800D03*
D17*
X019514Y000625D03*
X019514Y001225D03*
D18*
X020077Y001675D03*
X019764Y001925D03*
X020077Y000613D03*
X021014Y000738D03*
X019327Y003613D03*
X018389Y004675D03*
X018014Y004675D03*
X017639Y004675D03*
X017327Y004925D03*
X017014Y004800D03*
X016702Y004425D03*
X015452Y005050D03*
X015452Y005425D03*
X017264Y005800D03*
X017389Y006425D03*
X017389Y006863D03*
X018389Y008238D03*
X019014Y008050D03*
X019952Y008175D03*
X021577Y007300D03*
X021889Y007300D03*
X020389Y006738D03*
X019139Y005925D03*
X019952Y005738D03*
X020389Y005175D03*
X020389Y004738D03*
X021389Y004113D03*
X016514Y000925D03*
X014889Y008050D03*
X014514Y009238D03*
X013139Y008175D03*
X012014Y009550D03*
X016264Y011425D03*
X017452Y009238D03*
D19*
X017188Y008970D02*
X022085Y008970D01*
X022085Y009047D02*
X017111Y009047D01*
X017034Y009124D02*
X022085Y009124D01*
X022085Y009202D02*
X016956Y009202D01*
X016879Y009279D02*
X022085Y009279D01*
X022085Y009356D02*
X016802Y009356D01*
X016725Y009433D02*
X022085Y009433D01*
X022085Y009510D02*
X016647Y009510D01*
X016570Y009588D02*
X022085Y009588D01*
X022085Y009665D02*
X016493Y009665D01*
X016416Y009742D02*
X022085Y009742D01*
X022085Y009819D02*
X016338Y009819D01*
X016261Y009897D02*
X022085Y009897D01*
X022085Y009974D02*
X016184Y009974D01*
X016125Y010033D02*
X016170Y010077D01*
X016234Y010232D01*
X016234Y010918D01*
X016170Y011073D01*
X016052Y011191D01*
X015898Y011254D01*
X015731Y011254D01*
X015577Y011191D01*
X015459Y011073D01*
X015395Y010918D01*
X015395Y010232D01*
X015459Y010077D01*
X015475Y010061D01*
X015304Y010061D01*
X015320Y010077D01*
X015384Y010232D01*
X015384Y010918D01*
X015320Y011073D01*
X015202Y011191D01*
X015048Y011254D01*
X014881Y011254D01*
X014727Y011191D01*
X014609Y011073D01*
X014545Y010918D01*
X014545Y010232D01*
X014609Y010077D01*
X014727Y009959D01*
X014786Y009935D01*
X014847Y009874D01*
X014597Y009874D01*
X014431Y010039D01*
X014470Y010077D01*
X014534Y010232D01*
X014534Y010918D01*
X014470Y011073D01*
X014352Y011191D01*
X014279Y011221D01*
X014597Y011539D01*
X014713Y011655D01*
X014713Y011673D01*
X014727Y011659D01*
X014881Y011596D01*
X015048Y011596D01*
X015202Y011659D01*
X015320Y011777D01*
X015384Y011932D01*
X015384Y012618D01*
X015320Y012773D01*
X015304Y012789D01*
X015475Y012789D01*
X015459Y012773D01*
X015395Y012618D01*
X015395Y011932D01*
X015459Y011777D01*
X015577Y011659D01*
X015731Y011596D01*
X015898Y011596D01*
X016052Y011659D01*
X016170Y011777D01*
X016234Y011932D01*
X016234Y012618D01*
X016170Y012773D01*
X016052Y012891D01*
X016026Y012901D01*
X016026Y012945D01*
X015909Y013061D01*
X015784Y013186D01*
X014620Y013186D01*
X014503Y013070D01*
X014332Y012899D01*
X014198Y012954D01*
X014031Y012954D01*
X013877Y012891D01*
X013759Y012773D01*
X013695Y012618D01*
X013695Y011932D01*
X013759Y011777D01*
X013829Y011708D01*
X013745Y011624D01*
X013416Y011624D01*
X013502Y011659D01*
X013620Y011777D01*
X013684Y011932D01*
X013684Y012618D01*
X013620Y012773D01*
X013502Y012891D01*
X013348Y012954D01*
X013181Y012954D01*
X013027Y012891D01*
X012909Y012773D01*
X012845Y012618D01*
X012845Y011932D01*
X012909Y011777D01*
X013027Y011659D01*
X013113Y011624D01*
X012566Y011624D01*
X012652Y011659D01*
X012770Y011777D01*
X012834Y011932D01*
X012834Y012618D01*
X012770Y012773D01*
X012652Y012891D01*
X012498Y012954D01*
X012331Y012954D01*
X012177Y012891D01*
X012059Y012773D01*
X011995Y012618D01*
X011995Y011932D01*
X012059Y011777D01*
X012177Y011659D01*
X012263Y011624D01*
X012182Y011624D01*
X012066Y011507D01*
X011816Y011257D01*
X011816Y011177D01*
X011802Y011191D01*
X011648Y011254D01*
X011481Y011254D01*
X011327Y011191D01*
X011209Y011073D01*
X011145Y010918D01*
X011145Y010232D01*
X011209Y010077D01*
X011327Y009959D01*
X011481Y009896D01*
X011648Y009896D01*
X011802Y009959D01*
X011816Y009973D01*
X011816Y009773D01*
X011761Y009719D01*
X011716Y009609D01*
X011716Y009491D01*
X011761Y009381D01*
X011845Y009297D01*
X011955Y009252D01*
X012074Y009252D01*
X012183Y009297D01*
X012267Y009381D01*
X012313Y009491D01*
X012313Y009609D01*
X012267Y009719D01*
X012213Y009773D01*
X012213Y009944D01*
X012331Y009896D01*
X012498Y009896D01*
X012641Y009955D01*
X012745Y009851D01*
X012941Y009655D01*
X012941Y008398D01*
X012886Y008344D01*
X012841Y008234D01*
X012841Y008116D01*
X012886Y008006D01*
X012970Y007922D01*
X013080Y007877D01*
X013199Y007877D01*
X013308Y007922D01*
X013392Y008006D01*
X013438Y008116D01*
X013438Y008234D01*
X013392Y008344D01*
X013338Y008398D01*
X013338Y009695D01*
X013745Y009289D01*
X014216Y009289D01*
X014216Y009178D01*
X014261Y009068D01*
X014345Y008985D01*
X014455Y008939D01*
X014574Y008939D01*
X014683Y008985D01*
X014738Y009039D01*
X015370Y009039D01*
X017272Y007137D01*
X017220Y007115D01*
X017166Y007061D01*
X017146Y007061D01*
X016841Y006980D01*
X016568Y006822D01*
X016514Y006768D01*
X016455Y006709D01*
X016398Y006652D01*
X015469Y005723D01*
X015393Y005723D01*
X015283Y005678D01*
X015199Y005594D01*
X015153Y005484D01*
X015153Y005366D01*
X015199Y005256D01*
X015217Y005238D01*
X015199Y005219D01*
X015153Y005109D01*
X015153Y004991D01*
X015199Y004881D01*
X015283Y004797D01*
X015393Y004752D01*
X015511Y004752D01*
X015621Y004797D01*
X015705Y004881D01*
X015750Y004991D01*
X015750Y005067D01*
X016675Y005992D01*
X016753Y006061D01*
X016934Y006165D01*
X017136Y006219D01*
X017171Y006222D01*
X017220Y006172D01*
X017330Y006127D01*
X017441Y006127D01*
X017441Y005382D01*
X017432Y005374D01*
X017057Y005374D01*
X016941Y005257D01*
X016816Y005132D01*
X016816Y005023D01*
X016761Y004969D01*
X016716Y004859D01*
X016716Y004741D01*
X016761Y004631D01*
X016845Y004547D01*
X016955Y004502D01*
X017074Y004502D01*
X017183Y004547D01*
X017264Y004628D01*
X017268Y004627D01*
X017341Y004627D01*
X017341Y004616D01*
X017386Y004506D01*
X017470Y004422D01*
X017580Y004377D01*
X017699Y004377D01*
X017808Y004422D01*
X017827Y004440D01*
X017845Y004422D01*
X017955Y004377D01*
X018074Y004377D01*
X018183Y004422D01*
X018202Y004440D01*
X018220Y004422D01*
X018330Y004377D01*
X018435Y004377D01*
X018432Y004374D01*
X016807Y004374D01*
X016691Y004257D01*
X016066Y003632D01*
X016066Y001654D01*
X016182Y001537D01*
X016746Y000974D01*
X016746Y000439D01*
X016830Y000354D01*
X013389Y000354D01*
X013280Y000363D01*
X013073Y000430D01*
X012897Y000558D01*
X012769Y000734D01*
X012702Y000941D01*
X012693Y001050D01*
X012693Y008092D01*
X012590Y008409D01*
X012394Y008680D01*
X012124Y008876D01*
X012124Y008876D01*
X011806Y008979D01*
X000639Y008979D01*
X000577Y008985D01*
X000461Y009033D01*
X000373Y009122D01*
X000325Y009237D01*
X000318Y009300D01*
X000318Y015746D01*
X022085Y015746D01*
X022085Y005635D01*
X021784Y005936D01*
X020175Y005936D01*
X020121Y005990D01*
X020033Y006027D01*
X020036Y006034D01*
X020036Y006191D01*
X019976Y006337D01*
X019879Y006434D01*
X019879Y007353D01*
X019976Y007450D01*
X020036Y007596D01*
X020036Y007754D01*
X019976Y007900D01*
X019864Y008011D01*
X019718Y008072D01*
X019560Y008072D01*
X019415Y008011D01*
X019303Y007900D01*
X019243Y007754D01*
X019243Y007596D01*
X019303Y007450D01*
X019400Y007353D01*
X019400Y006434D01*
X019303Y006337D01*
X019243Y006191D01*
X019243Y006034D01*
X019303Y005888D01*
X019415Y005776D01*
X019441Y005765D01*
X019441Y005593D01*
X019557Y005476D01*
X019807Y005226D01*
X020091Y005226D01*
X020091Y005116D01*
X020136Y005006D01*
X020220Y004922D01*
X020330Y004877D01*
X020449Y004877D01*
X020558Y004922D01*
X020607Y004970D01*
X020753Y004970D01*
X020753Y004445D01*
X019932Y003624D01*
X019816Y003507D01*
X019816Y002218D01*
X019941Y002093D01*
X020057Y001976D01*
X020063Y001976D01*
X020324Y001716D01*
X020705Y001716D01*
X020816Y001827D01*
X020816Y001523D01*
X020705Y001634D01*
X020324Y001634D01*
X020055Y001365D01*
X020055Y000985D01*
X020324Y000716D01*
X020705Y000716D01*
X020974Y000985D01*
X020974Y001103D01*
X021055Y001185D01*
X021055Y000985D01*
X021324Y000716D01*
X021705Y000716D01*
X021974Y000985D01*
X021974Y001365D01*
X021705Y001634D01*
X021324Y001634D01*
X021213Y001523D01*
X021213Y001827D01*
X021324Y001716D01*
X021705Y001716D01*
X021974Y001985D01*
X021974Y002365D01*
X021705Y002634D01*
X021324Y002634D01*
X021213Y002523D01*
X021213Y002827D01*
X021324Y002716D01*
X021705Y002716D01*
X021965Y002976D01*
X021972Y002976D01*
X022085Y003090D01*
X022085Y001308D01*
X022065Y001152D01*
X021952Y000857D01*
X021753Y000612D01*
X021488Y000440D01*
X021182Y000358D01*
X021033Y000354D01*
X021019Y000354D01*
X020950Y000358D01*
X020946Y000354D01*
X019784Y000354D01*
X019851Y000421D01*
X019851Y000829D01*
X019758Y000922D01*
X019498Y000922D01*
X019473Y000948D01*
X019485Y000948D01*
X019485Y001195D01*
X019544Y001195D01*
X019544Y000948D01*
X019710Y000948D01*
X019745Y000957D01*
X019777Y000976D01*
X019803Y001002D01*
X019821Y001033D01*
X019831Y001069D01*
X019831Y001195D01*
X019544Y001195D01*
X019544Y001255D01*
X019485Y001255D01*
X019485Y001502D01*
X019373Y001502D01*
X019463Y001593D01*
X019463Y003218D01*
X019722Y003476D01*
X019838Y003593D01*
X019838Y003882D01*
X019722Y003999D01*
X019557Y003999D01*
X019441Y003882D01*
X019441Y003757D01*
X019182Y003499D01*
X019066Y003382D01*
X019066Y001757D01*
X019057Y001749D01*
X016972Y001749D01*
X016963Y001757D01*
X016963Y003343D01*
X016972Y003351D01*
X018972Y003351D01*
X019338Y003718D01*
X019338Y003882D01*
X019222Y003999D01*
X019057Y003999D01*
X018807Y003749D01*
X016807Y003749D01*
X016691Y003632D01*
X016566Y003507D01*
X016566Y001716D01*
X016463Y001818D01*
X016463Y003468D01*
X016972Y003976D01*
X018597Y003976D01*
X018722Y004101D01*
X018838Y004218D01*
X018838Y008070D01*
X018722Y008186D01*
X018688Y008220D01*
X018688Y008297D01*
X018642Y008407D01*
X018558Y008490D01*
X018449Y008536D01*
X018330Y008536D01*
X018220Y008490D01*
X018136Y008407D01*
X018091Y008297D01*
X018091Y008178D01*
X018136Y008068D01*
X018220Y007985D01*
X018330Y007939D01*
X018407Y007939D01*
X018441Y007905D01*
X018441Y007717D01*
X016125Y010033D01*
X016144Y010051D02*
X022085Y010051D01*
X022085Y010128D02*
X016191Y010128D01*
X016223Y010206D02*
X019927Y010206D01*
X019914Y010210D02*
X020036Y010173D01*
X020160Y010148D01*
X020286Y010136D01*
X020310Y010136D01*
X020310Y011386D01*
X019060Y011386D01*
X019060Y011362D01*
X019072Y011236D01*
X019097Y011111D01*
X019134Y010990D01*
X019182Y010873D01*
X019242Y010761D01*
X019312Y010656D01*
X019393Y010558D01*
X019482Y010468D01*
X019580Y010388D01*
X019686Y010318D01*
X019797Y010258D01*
X019914Y010210D01*
X019751Y010283D02*
X016234Y010283D01*
X016234Y010360D02*
X019622Y010360D01*
X019520Y010437D02*
X016234Y010437D01*
X016234Y010515D02*
X019436Y010515D01*
X019365Y010592D02*
X016234Y010592D01*
X016234Y010669D02*
X019304Y010669D01*
X019252Y010746D02*
X016234Y010746D01*
X016234Y010824D02*
X019209Y010824D01*
X019171Y010901D02*
X016234Y010901D01*
X016209Y010978D02*
X019139Y010978D01*
X019114Y011055D02*
X016177Y011055D01*
X016110Y011133D02*
X019093Y011133D01*
X019078Y011210D02*
X016005Y011210D01*
X015623Y011210D02*
X015155Y011210D01*
X015260Y011133D02*
X015519Y011133D01*
X015452Y011055D02*
X015327Y011055D01*
X015359Y010978D02*
X015420Y010978D01*
X015395Y010901D02*
X015384Y010901D01*
X015384Y010824D02*
X015395Y010824D01*
X015384Y010746D02*
X015395Y010746D01*
X015384Y010669D02*
X015395Y010669D01*
X015384Y010592D02*
X015395Y010592D01*
X015384Y010515D02*
X015395Y010515D01*
X015384Y010437D02*
X015395Y010437D01*
X015384Y010360D02*
X015395Y010360D01*
X015384Y010283D02*
X015395Y010283D01*
X015406Y010206D02*
X015373Y010206D01*
X015341Y010128D02*
X015438Y010128D01*
X015702Y009863D02*
X015139Y009863D01*
X014952Y010050D01*
X014952Y010563D01*
X014964Y010575D01*
X014545Y010592D02*
X014534Y010592D01*
X014534Y010669D02*
X014545Y010669D01*
X014534Y010746D02*
X014545Y010746D01*
X014534Y010824D02*
X014545Y010824D01*
X014534Y010901D02*
X014545Y010901D01*
X014570Y010978D02*
X014509Y010978D01*
X014477Y011055D02*
X014602Y011055D01*
X014669Y011133D02*
X014410Y011133D01*
X014305Y011210D02*
X014773Y011210D01*
X014499Y011442D02*
X020310Y011442D01*
X020310Y011464D02*
X020310Y011386D01*
X020389Y011386D01*
X020389Y011464D01*
X021639Y011464D01*
X021639Y011488D01*
X021626Y011614D01*
X021602Y011739D01*
X021565Y011860D01*
X021516Y011977D01*
X021457Y012089D01*
X021386Y012194D01*
X021306Y012292D01*
X021216Y012382D01*
X021118Y012462D01*
X021013Y012532D01*
X020901Y012592D01*
X020784Y012640D01*
X020663Y012677D01*
X020539Y012702D01*
X020413Y012714D01*
X020389Y012714D01*
X020389Y011464D01*
X020310Y011464D01*
X019060Y011464D01*
X019060Y011488D01*
X019072Y011614D01*
X019097Y011739D01*
X019134Y011860D01*
X019182Y011977D01*
X019242Y012089D01*
X019312Y012194D01*
X019393Y012292D01*
X019482Y012382D01*
X019580Y012462D01*
X019686Y012532D01*
X019797Y012592D01*
X019914Y012640D01*
X020036Y012677D01*
X020160Y012702D01*
X020286Y012714D01*
X020310Y012714D01*
X020310Y011464D01*
X020310Y011519D02*
X020389Y011519D01*
X020389Y011596D02*
X020310Y011596D01*
X020310Y011673D02*
X020389Y011673D01*
X020389Y011750D02*
X020310Y011750D01*
X020310Y011828D02*
X020389Y011828D01*
X020389Y011905D02*
X020310Y011905D01*
X020310Y011982D02*
X020389Y011982D01*
X020389Y012059D02*
X020310Y012059D01*
X020310Y012137D02*
X020389Y012137D01*
X020389Y012214D02*
X020310Y012214D01*
X020310Y012291D02*
X020389Y012291D01*
X020389Y012368D02*
X020310Y012368D01*
X020310Y012446D02*
X020389Y012446D01*
X020389Y012523D02*
X020310Y012523D01*
X020310Y012600D02*
X020389Y012600D01*
X020389Y012677D02*
X020310Y012677D01*
X020036Y012677D02*
X016209Y012677D01*
X016234Y012600D02*
X019817Y012600D01*
X019672Y012523D02*
X016234Y012523D01*
X016234Y012446D02*
X019561Y012446D01*
X019469Y012368D02*
X016234Y012368D01*
X016234Y012291D02*
X019392Y012291D01*
X019329Y012214D02*
X016234Y012214D01*
X016234Y012137D02*
X019274Y012137D01*
X019226Y012059D02*
X016234Y012059D01*
X016234Y011982D02*
X019185Y011982D01*
X019153Y011905D02*
X016223Y011905D01*
X016191Y011828D02*
X019124Y011828D01*
X019101Y011750D02*
X016143Y011750D01*
X016066Y011673D02*
X019084Y011673D01*
X019071Y011596D02*
X015899Y011596D01*
X015730Y011596D02*
X015049Y011596D01*
X014880Y011596D02*
X014654Y011596D01*
X014577Y011519D02*
X019063Y011519D01*
X019060Y011364D02*
X014422Y011364D01*
X014345Y011287D02*
X019067Y011287D01*
X020310Y011287D02*
X020389Y011287D01*
X020389Y011210D02*
X020310Y011210D01*
X020310Y011133D02*
X020389Y011133D01*
X020389Y011055D02*
X020310Y011055D01*
X020310Y010978D02*
X020389Y010978D01*
X020389Y010901D02*
X020310Y010901D01*
X020310Y010824D02*
X020389Y010824D01*
X020389Y010746D02*
X020310Y010746D01*
X020310Y010669D02*
X020389Y010669D01*
X020389Y010592D02*
X020310Y010592D01*
X020310Y010515D02*
X020389Y010515D01*
X020389Y010437D02*
X020310Y010437D01*
X020310Y010360D02*
X020389Y010360D01*
X020389Y010283D02*
X020310Y010283D01*
X020310Y010206D02*
X020389Y010206D01*
X020389Y010136D02*
X020413Y010136D01*
X020539Y010148D01*
X020663Y010173D01*
X020784Y010210D01*
X020901Y010258D01*
X021013Y010318D01*
X021118Y010388D01*
X021216Y010468D01*
X021306Y010558D01*
X021386Y010656D01*
X021457Y010761D01*
X021516Y010873D01*
X021565Y010990D01*
X021602Y011111D01*
X021626Y011236D01*
X021639Y011362D01*
X021639Y011386D01*
X020389Y011386D01*
X020389Y010136D01*
X020771Y010206D02*
X022085Y010206D01*
X022085Y010283D02*
X020948Y010283D01*
X021076Y010360D02*
X022085Y010360D01*
X022085Y010437D02*
X021178Y010437D01*
X021262Y010515D02*
X022085Y010515D01*
X022085Y010592D02*
X021334Y010592D01*
X021395Y010669D02*
X022085Y010669D01*
X022085Y010746D02*
X021447Y010746D01*
X021490Y010824D02*
X022085Y010824D01*
X022085Y010901D02*
X021528Y010901D01*
X021560Y010978D02*
X022085Y010978D01*
X022085Y011055D02*
X021585Y011055D01*
X021606Y011133D02*
X022085Y011133D01*
X022085Y011210D02*
X021621Y011210D01*
X021631Y011287D02*
X022085Y011287D01*
X022085Y011364D02*
X021639Y011364D01*
X021636Y011519D02*
X022085Y011519D01*
X022085Y011596D02*
X021628Y011596D01*
X021615Y011673D02*
X022085Y011673D01*
X022085Y011750D02*
X021598Y011750D01*
X021575Y011828D02*
X022085Y011828D01*
X022085Y011905D02*
X021546Y011905D01*
X021514Y011982D02*
X022085Y011982D01*
X022085Y012059D02*
X021472Y012059D01*
X021425Y012137D02*
X022085Y012137D01*
X022085Y012214D02*
X021370Y012214D01*
X021307Y012291D02*
X022085Y012291D01*
X022085Y012368D02*
X021229Y012368D01*
X021138Y012446D02*
X022085Y012446D01*
X022085Y012523D02*
X021027Y012523D01*
X020882Y012600D02*
X022085Y012600D01*
X022085Y012677D02*
X020662Y012677D01*
X022085Y012755D02*
X016177Y012755D01*
X016111Y012832D02*
X022085Y012832D01*
X022085Y012909D02*
X016026Y012909D01*
X015984Y012986D02*
X022085Y012986D01*
X022085Y013064D02*
X015907Y013064D01*
X015830Y013141D02*
X022085Y013141D01*
X022085Y013218D02*
X000318Y013218D01*
X000318Y013141D02*
X014574Y013141D01*
X014497Y013064D02*
X000318Y013064D01*
X000318Y012986D02*
X014420Y012986D01*
X014342Y012909D02*
X014307Y012909D01*
X014514Y012800D02*
X014702Y012988D01*
X015702Y012988D01*
X015827Y012863D01*
X015827Y012288D01*
X015814Y012275D01*
X015395Y012291D02*
X015384Y012291D01*
X015384Y012214D02*
X015395Y012214D01*
X015384Y012137D02*
X015395Y012137D01*
X015384Y012059D02*
X015395Y012059D01*
X015384Y011982D02*
X015395Y011982D01*
X015406Y011905D02*
X015373Y011905D01*
X015341Y011828D02*
X015438Y011828D01*
X015486Y011750D02*
X015293Y011750D01*
X015216Y011673D02*
X015563Y011673D01*
X015395Y012368D02*
X015384Y012368D01*
X015384Y012446D02*
X015395Y012446D01*
X015384Y012523D02*
X015395Y012523D01*
X015384Y012600D02*
X015395Y012600D01*
X015419Y012677D02*
X015359Y012677D01*
X015327Y012755D02*
X015451Y012755D01*
X014514Y012800D02*
X014514Y011738D01*
X014014Y011238D01*
X012952Y011238D01*
X012827Y011113D01*
X012827Y010050D01*
X013139Y009738D01*
X013139Y008175D01*
X012927Y007966D02*
X012693Y007966D01*
X012693Y008043D02*
X012871Y008043D01*
X012841Y008120D02*
X012684Y008120D01*
X012659Y008197D02*
X012841Y008197D01*
X012858Y008275D02*
X012634Y008275D01*
X012609Y008352D02*
X012894Y008352D01*
X012941Y008429D02*
X012576Y008429D01*
X012590Y008409D02*
X012590Y008409D01*
X012520Y008506D02*
X012941Y008506D01*
X012941Y008584D02*
X012464Y008584D01*
X012408Y008661D02*
X012941Y008661D01*
X012941Y008738D02*
X012314Y008738D01*
X012394Y008680D02*
X012394Y008680D01*
X012394Y008680D01*
X012207Y008815D02*
X012941Y008815D01*
X012941Y008893D02*
X012072Y008893D01*
X011835Y008970D02*
X012941Y008970D01*
X012941Y009047D02*
X000447Y009047D01*
X000371Y009124D02*
X012941Y009124D01*
X012941Y009202D02*
X000339Y009202D01*
X000321Y009279D02*
X011889Y009279D01*
X011786Y009356D02*
X000318Y009356D01*
X000318Y009433D02*
X011740Y009433D01*
X011716Y009510D02*
X000318Y009510D01*
X000318Y009588D02*
X011716Y009588D01*
X011739Y009665D02*
X000318Y009665D01*
X000318Y009742D02*
X011785Y009742D01*
X011816Y009819D02*
X000318Y009819D01*
X000318Y009897D02*
X007228Y009897D01*
X007231Y009896D02*
X007398Y009896D01*
X007552Y009959D01*
X007670Y010077D01*
X007734Y010232D01*
X007734Y010918D01*
X007670Y011073D01*
X007552Y011191D01*
X007398Y011254D01*
X007231Y011254D01*
X007077Y011191D01*
X006959Y011073D01*
X006895Y010918D01*
X006895Y010232D01*
X006959Y010077D01*
X007077Y009959D01*
X007231Y009896D01*
X007400Y009897D02*
X008078Y009897D01*
X008081Y009896D02*
X008248Y009896D01*
X008402Y009959D01*
X008520Y010077D01*
X008584Y010232D01*
X008584Y010918D01*
X008520Y011073D01*
X008402Y011191D01*
X008248Y011254D01*
X008081Y011254D01*
X007927Y011191D01*
X007809Y011073D01*
X007745Y010918D01*
X007745Y010232D01*
X007809Y010077D01*
X007927Y009959D01*
X008081Y009896D01*
X008250Y009897D02*
X008928Y009897D01*
X008931Y009896D02*
X009098Y009896D01*
X009252Y009959D01*
X009370Y010077D01*
X009434Y010232D01*
X009434Y010918D01*
X009370Y011073D01*
X009252Y011191D01*
X009098Y011254D01*
X008931Y011254D01*
X008777Y011191D01*
X008659Y011073D01*
X008595Y010918D01*
X008595Y010232D01*
X008659Y010077D01*
X008777Y009959D01*
X008931Y009896D01*
X009100Y009897D02*
X009778Y009897D01*
X009781Y009896D02*
X009948Y009896D01*
X010102Y009959D01*
X010220Y010077D01*
X010284Y010232D01*
X010284Y010918D01*
X010220Y011073D01*
X010102Y011191D01*
X009948Y011254D01*
X009781Y011254D01*
X009627Y011191D01*
X009509Y011073D01*
X009445Y010918D01*
X009445Y010232D01*
X009509Y010077D01*
X009627Y009959D01*
X009781Y009896D01*
X009950Y009897D02*
X010628Y009897D01*
X010631Y009896D02*
X010798Y009896D01*
X010952Y009959D01*
X011070Y010077D01*
X011134Y010232D01*
X011134Y010918D01*
X011070Y011073D01*
X010952Y011191D01*
X010798Y011254D01*
X010631Y011254D01*
X010477Y011191D01*
X010359Y011073D01*
X010295Y010918D01*
X010295Y010232D01*
X010359Y010077D01*
X010477Y009959D01*
X010631Y009896D01*
X010800Y009897D02*
X011478Y009897D01*
X011650Y009897D02*
X011816Y009897D01*
X012213Y009897D02*
X012328Y009897D01*
X012213Y009819D02*
X012776Y009819D01*
X012745Y009851D02*
X012745Y009851D01*
X012699Y009897D02*
X012500Y009897D01*
X012244Y009742D02*
X012854Y009742D01*
X012931Y009665D02*
X012290Y009665D01*
X012313Y009588D02*
X012941Y009588D01*
X012941Y009510D02*
X012313Y009510D01*
X012289Y009433D02*
X012941Y009433D01*
X012941Y009356D02*
X012242Y009356D01*
X012139Y009279D02*
X012941Y009279D01*
X013338Y009279D02*
X014216Y009279D01*
X014216Y009202D02*
X013338Y009202D01*
X013338Y009124D02*
X014238Y009124D01*
X014283Y009047D02*
X013338Y009047D01*
X013338Y008970D02*
X014381Y008970D01*
X014648Y008970D02*
X015439Y008970D01*
X015516Y008893D02*
X013338Y008893D01*
X013338Y008815D02*
X015593Y008815D01*
X015670Y008738D02*
X013338Y008738D01*
X013338Y008661D02*
X015747Y008661D01*
X015825Y008584D02*
X013338Y008584D01*
X013338Y008506D02*
X015902Y008506D01*
X015979Y008429D02*
X013338Y008429D01*
X013385Y008352D02*
X016056Y008352D01*
X016134Y008275D02*
X013421Y008275D01*
X013438Y008197D02*
X016211Y008197D01*
X016288Y008120D02*
X013438Y008120D01*
X013408Y008043D02*
X016365Y008043D01*
X016443Y007966D02*
X013352Y007966D01*
X013227Y007888D02*
X016520Y007888D01*
X016597Y007811D02*
X012693Y007811D01*
X012693Y007734D02*
X016674Y007734D01*
X016752Y007657D02*
X012693Y007657D01*
X012693Y007579D02*
X016829Y007579D01*
X016906Y007502D02*
X012693Y007502D01*
X012693Y007425D02*
X016983Y007425D01*
X017061Y007348D02*
X012693Y007348D01*
X012693Y007271D02*
X017138Y007271D01*
X017215Y007193D02*
X012693Y007193D01*
X012693Y007116D02*
X017222Y007116D01*
X017062Y007039D02*
X012693Y007039D01*
X012693Y006962D02*
X016810Y006962D01*
X016841Y006980D02*
X016841Y006980D01*
X016676Y006884D02*
X012693Y006884D01*
X012693Y006807D02*
X013298Y006807D01*
X013259Y006797D02*
X013360Y006824D01*
X013462Y006837D01*
X013475Y006837D01*
X013475Y006084D01*
X013475Y006006D01*
X012722Y006006D01*
X012722Y005993D01*
X012736Y005890D01*
X012763Y005790D01*
X012802Y005694D01*
X012854Y005604D01*
X012918Y005522D01*
X012991Y005448D01*
X013073Y005385D01*
X013163Y005333D01*
X013259Y005293D01*
X013360Y005267D01*
X013462Y005253D01*
X013475Y005253D01*
X013475Y006006D01*
X013554Y006006D01*
X013554Y006084D01*
X014306Y006084D01*
X014306Y006097D01*
X014293Y006200D01*
X014266Y006300D01*
X014226Y006396D01*
X014174Y006486D01*
X014111Y006568D01*
X014038Y006642D01*
X013955Y006705D01*
X013865Y006757D01*
X013770Y006797D01*
X013669Y006824D01*
X013566Y006837D01*
X013554Y006837D01*
X013554Y006084D01*
X013475Y006084D01*
X012722Y006084D01*
X012722Y006097D01*
X012736Y006200D01*
X012763Y006300D01*
X012802Y006396D01*
X012854Y006486D01*
X012918Y006568D01*
X012991Y006642D01*
X013073Y006705D01*
X013163Y006757D01*
X013259Y006797D01*
X013116Y006730D02*
X012693Y006730D01*
X012693Y006653D02*
X013005Y006653D01*
X012924Y006575D02*
X012693Y006575D01*
X012693Y006498D02*
X012864Y006498D01*
X012817Y006421D02*
X012693Y006421D01*
X012693Y006344D02*
X012781Y006344D01*
X012754Y006266D02*
X012693Y006266D01*
X012693Y006189D02*
X012734Y006189D01*
X012724Y006112D02*
X012693Y006112D01*
X012693Y006035D02*
X013475Y006035D01*
X013475Y006112D02*
X013554Y006112D01*
X013554Y006189D02*
X013475Y006189D01*
X013475Y006266D02*
X013554Y006266D01*
X013554Y006344D02*
X013475Y006344D01*
X013475Y006421D02*
X013554Y006421D01*
X013554Y006498D02*
X013475Y006498D01*
X013475Y006575D02*
X013554Y006575D01*
X013554Y006653D02*
X013475Y006653D01*
X013475Y006730D02*
X013554Y006730D01*
X013554Y006807D02*
X013475Y006807D01*
X013731Y006807D02*
X016553Y006807D01*
X016568Y006822D02*
X016568Y006822D01*
X016476Y006730D02*
X013913Y006730D01*
X014024Y006653D02*
X016398Y006653D01*
X016321Y006575D02*
X014104Y006575D01*
X014165Y006498D02*
X016244Y006498D01*
X016167Y006421D02*
X014212Y006421D01*
X014248Y006344D02*
X016089Y006344D01*
X016012Y006266D02*
X014275Y006266D01*
X014294Y006189D02*
X015935Y006189D01*
X015858Y006112D02*
X014305Y006112D01*
X014306Y006006D02*
X013554Y006006D01*
X013554Y005253D01*
X013566Y005253D01*
X013669Y005267D01*
X013770Y005293D01*
X013865Y005333D01*
X013955Y005385D01*
X014038Y005448D01*
X014111Y005522D01*
X014174Y005604D01*
X014226Y005694D01*
X014266Y005790D01*
X014293Y005890D01*
X014306Y005993D01*
X014306Y006006D01*
X014302Y005957D02*
X015703Y005957D01*
X015626Y005880D02*
X014290Y005880D01*
X014270Y005803D02*
X015549Y005803D01*
X015472Y005726D02*
X014239Y005726D01*
X014200Y005648D02*
X015253Y005648D01*
X015189Y005571D02*
X014149Y005571D01*
X014084Y005494D02*
X015157Y005494D01*
X015153Y005417D02*
X013997Y005417D01*
X013877Y005340D02*
X015164Y005340D01*
X015196Y005262D02*
X013637Y005262D01*
X013554Y005262D02*
X013475Y005262D01*
X013475Y005340D02*
X013554Y005340D01*
X013554Y005417D02*
X013475Y005417D01*
X013475Y005494D02*
X013554Y005494D01*
X013554Y005571D02*
X013475Y005571D01*
X013475Y005648D02*
X013554Y005648D01*
X013554Y005726D02*
X013475Y005726D01*
X013475Y005803D02*
X013554Y005803D01*
X013554Y005880D02*
X013475Y005880D01*
X013475Y005957D02*
X013554Y005957D01*
X013554Y006035D02*
X015780Y006035D01*
X016254Y005571D02*
X017441Y005571D01*
X017441Y005494D02*
X016177Y005494D01*
X016100Y005417D02*
X017441Y005417D01*
X017241Y006425D02*
X017181Y006423D01*
X017120Y006418D01*
X017061Y006409D01*
X017002Y006396D01*
X016943Y006380D01*
X016886Y006360D01*
X016831Y006337D01*
X016776Y006310D01*
X016724Y006281D01*
X016673Y006248D01*
X016624Y006212D01*
X016578Y006174D01*
X016534Y006132D01*
X015452Y005050D01*
X015735Y004953D02*
X016755Y004953D01*
X016723Y004876D02*
X015700Y004876D01*
X015623Y004799D02*
X016716Y004799D01*
X016724Y004722D02*
X012693Y004722D01*
X012693Y004799D02*
X015281Y004799D01*
X015204Y004876D02*
X012693Y004876D01*
X012693Y004953D02*
X015169Y004953D01*
X015153Y005031D02*
X012693Y005031D01*
X012693Y005108D02*
X015153Y005108D01*
X015185Y005185D02*
X012693Y005185D01*
X012693Y005262D02*
X013392Y005262D01*
X013152Y005340D02*
X012693Y005340D01*
X012693Y005417D02*
X013032Y005417D01*
X012945Y005494D02*
X012693Y005494D01*
X012693Y005571D02*
X012880Y005571D01*
X012829Y005648D02*
X012693Y005648D01*
X012693Y005726D02*
X012789Y005726D01*
X012759Y005803D02*
X012693Y005803D01*
X012693Y005880D02*
X012738Y005880D01*
X012727Y005957D02*
X012693Y005957D01*
X012693Y004644D02*
X016756Y004644D01*
X016825Y004567D02*
X015600Y004567D01*
X015554Y004614D02*
X015184Y004614D01*
X014975Y004405D01*
X014766Y004614D01*
X014396Y004614D01*
X014135Y004352D01*
X014135Y003982D01*
X014396Y003721D01*
X014766Y003721D01*
X014975Y003930D01*
X015184Y003721D01*
X015554Y003721D01*
X015815Y003982D01*
X015815Y004352D01*
X015554Y004614D01*
X015677Y004490D02*
X017402Y004490D01*
X017361Y004567D02*
X017204Y004567D01*
X017014Y004800D02*
X017014Y005050D01*
X017139Y005175D01*
X017514Y005175D01*
X017639Y005300D01*
X017639Y007050D01*
X015452Y009238D01*
X014514Y009238D01*
X014514Y009675D02*
X014139Y010050D01*
X014139Y010550D01*
X014114Y010575D01*
X014534Y010515D02*
X014545Y010515D01*
X014534Y010437D02*
X014545Y010437D01*
X014534Y010360D02*
X014545Y010360D01*
X014534Y010283D02*
X014545Y010283D01*
X014556Y010206D02*
X014523Y010206D01*
X014491Y010128D02*
X014588Y010128D01*
X014635Y010051D02*
X014444Y010051D01*
X014496Y009974D02*
X014712Y009974D01*
X014824Y009897D02*
X014574Y009897D01*
X014514Y009675D02*
X015577Y009675D01*
X018014Y007238D01*
X018014Y005175D01*
X017639Y004800D01*
X017639Y004675D01*
X017514Y004925D02*
X017327Y004925D01*
X017514Y004925D02*
X017827Y005238D01*
X017827Y007113D01*
X015452Y009488D01*
X013827Y009488D01*
X013264Y010050D01*
X013264Y010575D01*
X013827Y011425D02*
X012264Y011425D01*
X012014Y011175D01*
X012014Y009550D01*
X011312Y009974D02*
X010966Y009974D01*
X011044Y010051D02*
X011235Y010051D01*
X011188Y010128D02*
X011091Y010128D01*
X011123Y010206D02*
X011156Y010206D01*
X011145Y010283D02*
X011134Y010283D01*
X011134Y010360D02*
X011145Y010360D01*
X011134Y010437D02*
X011145Y010437D01*
X011134Y010515D02*
X011145Y010515D01*
X011134Y010592D02*
X011145Y010592D01*
X011134Y010669D02*
X011145Y010669D01*
X011134Y010746D02*
X011145Y010746D01*
X011134Y010824D02*
X011145Y010824D01*
X011134Y010901D02*
X011145Y010901D01*
X011170Y010978D02*
X011109Y010978D01*
X011077Y011055D02*
X011202Y011055D01*
X011269Y011133D02*
X011010Y011133D01*
X010905Y011210D02*
X011373Y011210D01*
X011755Y011210D02*
X011816Y011210D01*
X011845Y011287D02*
X003211Y011287D01*
X003206Y011236D02*
X003219Y011362D01*
X003219Y011386D01*
X001969Y011386D01*
X001969Y011464D01*
X003219Y011464D01*
X003219Y011488D01*
X003206Y011614D01*
X003182Y011739D01*
X003145Y011860D01*
X003096Y011977D01*
X003037Y012089D01*
X002966Y012194D01*
X002886Y012292D01*
X002796Y012382D01*
X002698Y012462D01*
X002593Y012532D01*
X002481Y012592D01*
X002364Y012640D01*
X002243Y012677D01*
X002119Y012702D01*
X001993Y012714D01*
X001969Y012714D01*
X001969Y011464D01*
X001890Y011464D01*
X001890Y011386D01*
X000640Y011386D01*
X000640Y011362D01*
X000652Y011236D01*
X000677Y011111D01*
X000714Y010990D01*
X000762Y010873D01*
X000822Y010761D01*
X000892Y010656D01*
X000973Y010558D01*
X001062Y010468D01*
X001160Y010388D01*
X001266Y010318D01*
X001377Y010258D01*
X001494Y010210D01*
X001616Y010173D01*
X001740Y010148D01*
X001866Y010136D01*
X001890Y010136D01*
X001890Y011386D01*
X001969Y011386D01*
X001969Y010136D01*
X001993Y010136D01*
X002119Y010148D01*
X002243Y010173D01*
X002364Y010210D01*
X002481Y010258D01*
X002593Y010318D01*
X002698Y010388D01*
X002796Y010468D01*
X002886Y010558D01*
X002966Y010656D01*
X003037Y010761D01*
X003096Y010873D01*
X003145Y010990D01*
X003182Y011111D01*
X003206Y011236D01*
X003201Y011210D02*
X006326Y011210D01*
X006348Y011219D02*
X006275Y011189D01*
X006210Y011145D01*
X006154Y011090D01*
X006110Y011024D01*
X006080Y010951D01*
X006065Y010874D01*
X006065Y010614D01*
X006425Y010614D01*
X006425Y010536D01*
X006065Y010536D01*
X006065Y010276D01*
X006080Y010199D01*
X006110Y010126D01*
X006154Y010060D01*
X006210Y010005D01*
X006275Y009961D01*
X006348Y009931D01*
X006425Y009916D01*
X006425Y010536D01*
X006504Y010536D01*
X006504Y010614D01*
X006864Y010614D01*
X006864Y010874D01*
X006848Y010951D01*
X006818Y011024D01*
X006775Y011090D01*
X006719Y011145D01*
X006654Y011189D01*
X006581Y011219D01*
X006504Y011234D01*
X006504Y010614D01*
X006425Y010614D01*
X006425Y011234D01*
X006348Y011219D01*
X006425Y011210D02*
X006504Y011210D01*
X006504Y011133D02*
X006425Y011133D01*
X006425Y011055D02*
X006504Y011055D01*
X006504Y010978D02*
X006425Y010978D01*
X006425Y010901D02*
X006504Y010901D01*
X006504Y010824D02*
X006425Y010824D01*
X006425Y010746D02*
X006504Y010746D01*
X006504Y010669D02*
X006425Y010669D01*
X006425Y010592D02*
X002914Y010592D01*
X002975Y010669D02*
X006065Y010669D01*
X006065Y010746D02*
X003027Y010746D01*
X003070Y010824D02*
X006065Y010824D01*
X006070Y010901D02*
X003108Y010901D01*
X003140Y010978D02*
X006091Y010978D01*
X006131Y011055D02*
X003165Y011055D01*
X003186Y011133D02*
X006197Y011133D01*
X006603Y011210D02*
X007123Y011210D01*
X007019Y011133D02*
X006732Y011133D01*
X006797Y011055D02*
X006952Y011055D01*
X006920Y010978D02*
X006837Y010978D01*
X006858Y010901D02*
X006895Y010901D01*
X006895Y010824D02*
X006864Y010824D01*
X006864Y010746D02*
X006895Y010746D01*
X006895Y010669D02*
X006864Y010669D01*
X006895Y010592D02*
X006504Y010592D01*
X006504Y010536D02*
X006864Y010536D01*
X006864Y010276D01*
X006848Y010199D01*
X006818Y010126D01*
X006775Y010060D01*
X006719Y010005D01*
X006654Y009961D01*
X006581Y009931D01*
X006504Y009916D01*
X006504Y010536D01*
X006504Y010515D02*
X006425Y010515D01*
X006425Y010437D02*
X006504Y010437D01*
X006504Y010360D02*
X006425Y010360D01*
X006425Y010283D02*
X006504Y010283D01*
X006504Y010206D02*
X006425Y010206D01*
X006425Y010128D02*
X006504Y010128D01*
X006504Y010051D02*
X006425Y010051D01*
X006425Y009974D02*
X006504Y009974D01*
X006673Y009974D02*
X007062Y009974D01*
X006985Y010051D02*
X006765Y010051D01*
X006819Y010128D02*
X006938Y010128D01*
X006906Y010206D02*
X006850Y010206D01*
X006864Y010283D02*
X006895Y010283D01*
X006895Y010360D02*
X006864Y010360D01*
X006864Y010437D02*
X006895Y010437D01*
X006895Y010515D02*
X006864Y010515D01*
X006065Y010515D02*
X002842Y010515D01*
X002758Y010437D02*
X006065Y010437D01*
X006065Y010360D02*
X002656Y010360D01*
X002528Y010283D02*
X006065Y010283D01*
X006079Y010206D02*
X002351Y010206D01*
X001969Y010206D02*
X001890Y010206D01*
X001890Y010283D02*
X001969Y010283D01*
X001969Y010360D02*
X001890Y010360D01*
X001890Y010437D02*
X001969Y010437D01*
X001969Y010515D02*
X001890Y010515D01*
X001890Y010592D02*
X001969Y010592D01*
X001969Y010669D02*
X001890Y010669D01*
X001890Y010746D02*
X001969Y010746D01*
X001969Y010824D02*
X001890Y010824D01*
X001890Y010901D02*
X001969Y010901D01*
X001969Y010978D02*
X001890Y010978D01*
X001890Y011055D02*
X001969Y011055D01*
X001969Y011133D02*
X001890Y011133D01*
X001890Y011210D02*
X001969Y011210D01*
X001969Y011287D02*
X001890Y011287D01*
X001890Y011364D02*
X001969Y011364D01*
X001969Y011442D02*
X012000Y011442D01*
X012077Y011519D02*
X003216Y011519D01*
X003208Y011596D02*
X012154Y011596D01*
X012163Y011673D02*
X011772Y011673D01*
X011754Y011661D02*
X011819Y011705D01*
X011875Y011760D01*
X011918Y011826D01*
X011948Y011899D01*
X011964Y011976D01*
X011964Y012236D01*
X011604Y012236D01*
X011604Y012314D01*
X011964Y012314D01*
X011964Y012574D01*
X011948Y012651D01*
X011918Y012724D01*
X011875Y012790D01*
X011819Y012845D01*
X011754Y012889D01*
X011681Y012919D01*
X011604Y012934D01*
X011604Y012314D01*
X011525Y012314D01*
X011525Y012236D01*
X011165Y012236D01*
X011165Y011976D01*
X011180Y011899D01*
X011210Y011826D01*
X011254Y011760D01*
X011310Y011705D01*
X011375Y011661D01*
X011448Y011631D01*
X011525Y011616D01*
X011525Y012236D01*
X011604Y012236D01*
X011604Y011616D01*
X011681Y011631D01*
X011754Y011661D01*
X011865Y011750D02*
X012086Y011750D01*
X012038Y011828D02*
X011919Y011828D01*
X011950Y011905D02*
X012006Y011905D01*
X011995Y011982D02*
X011964Y011982D01*
X011964Y012059D02*
X011995Y012059D01*
X011995Y012137D02*
X011964Y012137D01*
X011964Y012214D02*
X011995Y012214D01*
X011995Y012291D02*
X011604Y012291D01*
X011604Y012214D02*
X011525Y012214D01*
X011525Y012291D02*
X010754Y012291D01*
X010754Y012314D02*
X010754Y012236D01*
X011114Y012236D01*
X011114Y011976D01*
X011098Y011899D01*
X011068Y011826D01*
X011025Y011760D01*
X010969Y011705D01*
X010904Y011661D01*
X010831Y011631D01*
X010754Y011616D01*
X010754Y012236D01*
X010675Y012236D01*
X010315Y012236D01*
X010315Y011976D01*
X010330Y011899D01*
X010360Y011826D01*
X010404Y011760D01*
X010460Y011705D01*
X010525Y011661D01*
X010598Y011631D01*
X010675Y011616D01*
X010675Y012236D01*
X010675Y012314D01*
X010315Y012314D01*
X010315Y012574D01*
X010330Y012651D01*
X010360Y012724D01*
X010404Y012790D01*
X010460Y012845D01*
X010525Y012889D01*
X010598Y012919D01*
X010675Y012934D01*
X010675Y012314D01*
X010754Y012314D01*
X011114Y012314D01*
X011114Y012574D01*
X011098Y012651D01*
X011068Y012724D01*
X011025Y012790D01*
X010969Y012845D01*
X010904Y012889D01*
X010831Y012919D01*
X010754Y012934D01*
X010754Y012314D01*
X010754Y012368D02*
X010675Y012368D01*
X010675Y012291D02*
X009904Y012291D01*
X009904Y012314D02*
X009904Y012236D01*
X010264Y012236D01*
X010264Y011976D01*
X010248Y011899D01*
X010218Y011826D01*
X010175Y011760D01*
X010119Y011705D01*
X010054Y011661D01*
X009981Y011631D01*
X009904Y011616D01*
X009904Y012236D01*
X009825Y012236D01*
X009465Y012236D01*
X009465Y011976D01*
X009480Y011899D01*
X009510Y011826D01*
X009554Y011760D01*
X009610Y011705D01*
X009675Y011661D01*
X009748Y011631D01*
X009825Y011616D01*
X009825Y012236D01*
X009825Y012314D01*
X009465Y012314D01*
X009465Y012574D01*
X009480Y012651D01*
X009510Y012724D01*
X009554Y012790D01*
X009610Y012845D01*
X009675Y012889D01*
X009748Y012919D01*
X009825Y012934D01*
X009825Y012314D01*
X009904Y012314D01*
X010264Y012314D01*
X010264Y012574D01*
X010248Y012651D01*
X010218Y012724D01*
X010175Y012790D01*
X010119Y012845D01*
X010054Y012889D01*
X009981Y012919D01*
X009904Y012934D01*
X009904Y012314D01*
X009904Y012368D02*
X009825Y012368D01*
X009825Y012291D02*
X009054Y012291D01*
X009054Y012314D02*
X009054Y012236D01*
X009414Y012236D01*
X009414Y011976D01*
X009398Y011899D01*
X009368Y011826D01*
X009325Y011760D01*
X009269Y011705D01*
X009204Y011661D01*
X009131Y011631D01*
X009054Y011616D01*
X009054Y012236D01*
X008975Y012236D01*
X008615Y012236D01*
X008615Y011976D01*
X008630Y011899D01*
X008660Y011826D01*
X008704Y011760D01*
X008760Y011705D01*
X008825Y011661D01*
X008898Y011631D01*
X008975Y011616D01*
X008975Y012236D01*
X008975Y012314D01*
X008615Y012314D01*
X008615Y012574D01*
X008630Y012651D01*
X008660Y012724D01*
X008704Y012790D01*
X008760Y012845D01*
X008825Y012889D01*
X008898Y012919D01*
X008975Y012934D01*
X008975Y012314D01*
X009054Y012314D01*
X009414Y012314D01*
X009414Y012574D01*
X009398Y012651D01*
X009368Y012724D01*
X009325Y012790D01*
X009269Y012845D01*
X009204Y012889D01*
X009131Y012919D01*
X009054Y012934D01*
X009054Y012314D01*
X009054Y012368D02*
X008975Y012368D01*
X008975Y012291D02*
X008204Y012291D01*
X008204Y012314D02*
X008204Y012236D01*
X008564Y012236D01*
X008564Y011976D01*
X008548Y011899D01*
X008518Y011826D01*
X008475Y011760D01*
X008419Y011705D01*
X008354Y011661D01*
X008281Y011631D01*
X008204Y011616D01*
X008204Y012236D01*
X008125Y012236D01*
X007765Y012236D01*
X007765Y011976D01*
X007780Y011899D01*
X007810Y011826D01*
X007854Y011760D01*
X007910Y011705D01*
X007975Y011661D01*
X008048Y011631D01*
X008125Y011616D01*
X008125Y012236D01*
X008125Y012314D01*
X007765Y012314D01*
X007765Y012574D01*
X007780Y012651D01*
X007810Y012724D01*
X007854Y012790D01*
X007910Y012845D01*
X007975Y012889D01*
X008048Y012919D01*
X008125Y012934D01*
X008125Y012314D01*
X008204Y012314D01*
X008564Y012314D01*
X008564Y012574D01*
X008548Y012651D01*
X008518Y012724D01*
X008475Y012790D01*
X008419Y012845D01*
X008354Y012889D01*
X008281Y012919D01*
X008204Y012934D01*
X008204Y012314D01*
X008204Y012368D02*
X008125Y012368D01*
X008125Y012291D02*
X007354Y012291D01*
X007354Y012314D02*
X007354Y012236D01*
X007714Y012236D01*
X007714Y011976D01*
X007698Y011899D01*
X007668Y011826D01*
X007625Y011760D01*
X007569Y011705D01*
X007504Y011661D01*
X007431Y011631D01*
X007354Y011616D01*
X007354Y012236D01*
X007275Y012236D01*
X006915Y012236D01*
X006915Y011976D01*
X006930Y011899D01*
X006960Y011826D01*
X007004Y011760D01*
X007060Y011705D01*
X007125Y011661D01*
X007198Y011631D01*
X007275Y011616D01*
X007275Y012236D01*
X007275Y012314D01*
X006915Y012314D01*
X006915Y012574D01*
X006930Y012651D01*
X006960Y012724D01*
X007004Y012790D01*
X007060Y012845D01*
X007125Y012889D01*
X007198Y012919D01*
X007275Y012934D01*
X007275Y012314D01*
X007354Y012314D01*
X007714Y012314D01*
X007714Y012574D01*
X007698Y012651D01*
X007668Y012724D01*
X007625Y012790D01*
X007569Y012845D01*
X007504Y012889D01*
X007431Y012919D01*
X007354Y012934D01*
X007354Y012314D01*
X007354Y012368D02*
X007275Y012368D01*
X007275Y012291D02*
X006504Y012291D01*
X006504Y012314D02*
X006504Y012236D01*
X006864Y012236D01*
X006864Y011976D01*
X006848Y011899D01*
X006818Y011826D01*
X006775Y011760D01*
X006719Y011705D01*
X006654Y011661D01*
X006581Y011631D01*
X006504Y011616D01*
X006504Y012236D01*
X006425Y012236D01*
X006065Y012236D01*
X006065Y011976D01*
X006080Y011899D01*
X006110Y011826D01*
X006154Y011760D01*
X006210Y011705D01*
X006275Y011661D01*
X006348Y011631D01*
X006425Y011616D01*
X006425Y012236D01*
X006425Y012314D01*
X006065Y012314D01*
X006065Y012574D01*
X006080Y012651D01*
X006110Y012724D01*
X006154Y012790D01*
X006210Y012845D01*
X006275Y012889D01*
X006348Y012919D01*
X006425Y012934D01*
X006425Y012314D01*
X006504Y012314D01*
X006864Y012314D01*
X006864Y012574D01*
X006848Y012651D01*
X006818Y012724D01*
X006775Y012790D01*
X006719Y012845D01*
X006654Y012889D01*
X006581Y012919D01*
X006504Y012934D01*
X006504Y012314D01*
X006504Y012368D02*
X006425Y012368D01*
X006425Y012291D02*
X002887Y012291D01*
X002950Y012214D02*
X006065Y012214D01*
X006065Y012137D02*
X003005Y012137D01*
X003052Y012059D02*
X006065Y012059D01*
X006065Y011982D02*
X003094Y011982D01*
X003126Y011905D02*
X006079Y011905D01*
X006110Y011828D02*
X003155Y011828D01*
X003178Y011750D02*
X006164Y011750D01*
X006257Y011673D02*
X003195Y011673D01*
X003219Y011364D02*
X011923Y011364D01*
X011604Y011673D02*
X011525Y011673D01*
X011525Y011750D02*
X011604Y011750D01*
X011604Y011828D02*
X011525Y011828D01*
X011525Y011905D02*
X011604Y011905D01*
X011604Y011982D02*
X011525Y011982D01*
X011525Y012059D02*
X011604Y012059D01*
X011604Y012137D02*
X011525Y012137D01*
X011525Y012314D02*
X011165Y012314D01*
X011165Y012574D01*
X011180Y012651D01*
X011210Y012724D01*
X011254Y012790D01*
X011310Y012845D01*
X011375Y012889D01*
X011448Y012919D01*
X011525Y012934D01*
X011525Y012314D01*
X011525Y012368D02*
X011604Y012368D01*
X011604Y012446D02*
X011525Y012446D01*
X011525Y012523D02*
X011604Y012523D01*
X011604Y012600D02*
X011525Y012600D01*
X011525Y012677D02*
X011604Y012677D01*
X011604Y012755D02*
X011525Y012755D01*
X011525Y012832D02*
X011604Y012832D01*
X011604Y012909D02*
X011525Y012909D01*
X011424Y012909D02*
X010855Y012909D01*
X010754Y012909D02*
X010675Y012909D01*
X010675Y012832D02*
X010754Y012832D01*
X010754Y012755D02*
X010675Y012755D01*
X010675Y012677D02*
X010754Y012677D01*
X010754Y012600D02*
X010675Y012600D01*
X010675Y012523D02*
X010754Y012523D01*
X010754Y012446D02*
X010675Y012446D01*
X010675Y012214D02*
X010754Y012214D01*
X010754Y012137D02*
X010675Y012137D01*
X010675Y012059D02*
X010754Y012059D01*
X010754Y011982D02*
X010675Y011982D01*
X010675Y011905D02*
X010754Y011905D01*
X010754Y011828D02*
X010675Y011828D01*
X010675Y011750D02*
X010754Y011750D01*
X010754Y011673D02*
X010675Y011673D01*
X010507Y011673D02*
X010072Y011673D01*
X010165Y011750D02*
X010414Y011750D01*
X010360Y011828D02*
X010219Y011828D01*
X010250Y011905D02*
X010329Y011905D01*
X010315Y011982D02*
X010264Y011982D01*
X010264Y012059D02*
X010315Y012059D01*
X010315Y012137D02*
X010264Y012137D01*
X010264Y012214D02*
X010315Y012214D01*
X010315Y012368D02*
X010264Y012368D01*
X010264Y012446D02*
X010315Y012446D01*
X010315Y012523D02*
X010264Y012523D01*
X010259Y012600D02*
X010320Y012600D01*
X010341Y012677D02*
X010238Y012677D01*
X010198Y012755D02*
X010381Y012755D01*
X010446Y012832D02*
X010132Y012832D01*
X010005Y012909D02*
X010574Y012909D01*
X010982Y012832D02*
X011296Y012832D01*
X011231Y012755D02*
X011048Y012755D01*
X011088Y012677D02*
X011191Y012677D01*
X011170Y012600D02*
X011109Y012600D01*
X011114Y012523D02*
X011165Y012523D01*
X011165Y012446D02*
X011114Y012446D01*
X011114Y012368D02*
X011165Y012368D01*
X011165Y012214D02*
X011114Y012214D01*
X011114Y012137D02*
X011165Y012137D01*
X011165Y012059D02*
X011114Y012059D01*
X011114Y011982D02*
X011165Y011982D01*
X011179Y011905D02*
X011100Y011905D01*
X011069Y011828D02*
X011210Y011828D01*
X011264Y011750D02*
X011015Y011750D01*
X010922Y011673D02*
X011357Y011673D01*
X010523Y011210D02*
X010055Y011210D01*
X010160Y011133D02*
X010419Y011133D01*
X010352Y011055D02*
X010227Y011055D01*
X010259Y010978D02*
X010320Y010978D01*
X010295Y010901D02*
X010284Y010901D01*
X010284Y010824D02*
X010295Y010824D01*
X010284Y010746D02*
X010295Y010746D01*
X010284Y010669D02*
X010295Y010669D01*
X010284Y010592D02*
X010295Y010592D01*
X010284Y010515D02*
X010295Y010515D01*
X010284Y010437D02*
X010295Y010437D01*
X010284Y010360D02*
X010295Y010360D01*
X010284Y010283D02*
X010295Y010283D01*
X010306Y010206D02*
X010273Y010206D01*
X010241Y010128D02*
X010338Y010128D01*
X010385Y010051D02*
X010194Y010051D01*
X010116Y009974D02*
X010462Y009974D01*
X009612Y009974D02*
X009266Y009974D01*
X009344Y010051D02*
X009535Y010051D01*
X009488Y010128D02*
X009391Y010128D01*
X009423Y010206D02*
X009456Y010206D01*
X009445Y010283D02*
X009434Y010283D01*
X009434Y010360D02*
X009445Y010360D01*
X009434Y010437D02*
X009445Y010437D01*
X009434Y010515D02*
X009445Y010515D01*
X009434Y010592D02*
X009445Y010592D01*
X009434Y010669D02*
X009445Y010669D01*
X009434Y010746D02*
X009445Y010746D01*
X009434Y010824D02*
X009445Y010824D01*
X009434Y010901D02*
X009445Y010901D01*
X009470Y010978D02*
X009409Y010978D01*
X009377Y011055D02*
X009502Y011055D01*
X009569Y011133D02*
X009310Y011133D01*
X009205Y011210D02*
X009673Y011210D01*
X009657Y011673D02*
X009222Y011673D01*
X009315Y011750D02*
X009564Y011750D01*
X009510Y011828D02*
X009369Y011828D01*
X009400Y011905D02*
X009479Y011905D01*
X009465Y011982D02*
X009414Y011982D01*
X009414Y012059D02*
X009465Y012059D01*
X009465Y012137D02*
X009414Y012137D01*
X009414Y012214D02*
X009465Y012214D01*
X009465Y012368D02*
X009414Y012368D01*
X009414Y012446D02*
X009465Y012446D01*
X009465Y012523D02*
X009414Y012523D01*
X009409Y012600D02*
X009470Y012600D01*
X009491Y012677D02*
X009388Y012677D01*
X009348Y012755D02*
X009531Y012755D01*
X009596Y012832D02*
X009282Y012832D01*
X009155Y012909D02*
X009724Y012909D01*
X009825Y012909D02*
X009904Y012909D01*
X009904Y012832D02*
X009825Y012832D01*
X009825Y012755D02*
X009904Y012755D01*
X009904Y012677D02*
X009825Y012677D01*
X009825Y012600D02*
X009904Y012600D01*
X009904Y012523D02*
X009825Y012523D01*
X009825Y012446D02*
X009904Y012446D01*
X009904Y012214D02*
X009825Y012214D01*
X009825Y012137D02*
X009904Y012137D01*
X009904Y012059D02*
X009825Y012059D01*
X009825Y011982D02*
X009904Y011982D01*
X009904Y011905D02*
X009825Y011905D01*
X009825Y011828D02*
X009904Y011828D01*
X009904Y011750D02*
X009825Y011750D01*
X009825Y011673D02*
X009904Y011673D01*
X009054Y011673D02*
X008975Y011673D01*
X008975Y011750D02*
X009054Y011750D01*
X009054Y011828D02*
X008975Y011828D01*
X008975Y011905D02*
X009054Y011905D01*
X009054Y011982D02*
X008975Y011982D01*
X008975Y012059D02*
X009054Y012059D01*
X009054Y012137D02*
X008975Y012137D01*
X008975Y012214D02*
X009054Y012214D01*
X009054Y012446D02*
X008975Y012446D01*
X008975Y012523D02*
X009054Y012523D01*
X009054Y012600D02*
X008975Y012600D01*
X008975Y012677D02*
X009054Y012677D01*
X009054Y012755D02*
X008975Y012755D01*
X008975Y012832D02*
X009054Y012832D01*
X009054Y012909D02*
X008975Y012909D01*
X008874Y012909D02*
X008305Y012909D01*
X008204Y012909D02*
X008125Y012909D01*
X008125Y012832D02*
X008204Y012832D01*
X008204Y012755D02*
X008125Y012755D01*
X008125Y012677D02*
X008204Y012677D01*
X008204Y012600D02*
X008125Y012600D01*
X008125Y012523D02*
X008204Y012523D01*
X008204Y012446D02*
X008125Y012446D01*
X008125Y012214D02*
X008204Y012214D01*
X008204Y012137D02*
X008125Y012137D01*
X008125Y012059D02*
X008204Y012059D01*
X008204Y011982D02*
X008125Y011982D01*
X008125Y011905D02*
X008204Y011905D01*
X008204Y011828D02*
X008125Y011828D01*
X008125Y011750D02*
X008204Y011750D01*
X008204Y011673D02*
X008125Y011673D01*
X007957Y011673D02*
X007522Y011673D01*
X007615Y011750D02*
X007864Y011750D01*
X007810Y011828D02*
X007669Y011828D01*
X007700Y011905D02*
X007779Y011905D01*
X007765Y011982D02*
X007714Y011982D01*
X007714Y012059D02*
X007765Y012059D01*
X007765Y012137D02*
X007714Y012137D01*
X007714Y012214D02*
X007765Y012214D01*
X007765Y012368D02*
X007714Y012368D01*
X007714Y012446D02*
X007765Y012446D01*
X007765Y012523D02*
X007714Y012523D01*
X007709Y012600D02*
X007770Y012600D01*
X007791Y012677D02*
X007688Y012677D01*
X007648Y012755D02*
X007831Y012755D01*
X007896Y012832D02*
X007582Y012832D01*
X007455Y012909D02*
X008024Y012909D01*
X008432Y012832D02*
X008746Y012832D01*
X008681Y012755D02*
X008498Y012755D01*
X008538Y012677D02*
X008641Y012677D01*
X008620Y012600D02*
X008559Y012600D01*
X008564Y012523D02*
X008615Y012523D01*
X008615Y012446D02*
X008564Y012446D01*
X008564Y012368D02*
X008615Y012368D01*
X008615Y012214D02*
X008564Y012214D01*
X008564Y012137D02*
X008615Y012137D01*
X008615Y012059D02*
X008564Y012059D01*
X008564Y011982D02*
X008615Y011982D01*
X008629Y011905D02*
X008550Y011905D01*
X008519Y011828D02*
X008660Y011828D01*
X008714Y011750D02*
X008465Y011750D01*
X008372Y011673D02*
X008807Y011673D01*
X008823Y011210D02*
X008355Y011210D01*
X008460Y011133D02*
X008719Y011133D01*
X008652Y011055D02*
X008527Y011055D01*
X008559Y010978D02*
X008620Y010978D01*
X008595Y010901D02*
X008584Y010901D01*
X008584Y010824D02*
X008595Y010824D01*
X008584Y010746D02*
X008595Y010746D01*
X008584Y010669D02*
X008595Y010669D01*
X008584Y010592D02*
X008595Y010592D01*
X008584Y010515D02*
X008595Y010515D01*
X008584Y010437D02*
X008595Y010437D01*
X008584Y010360D02*
X008595Y010360D01*
X008584Y010283D02*
X008595Y010283D01*
X008606Y010206D02*
X008573Y010206D01*
X008541Y010128D02*
X008638Y010128D01*
X008685Y010051D02*
X008494Y010051D01*
X008416Y009974D02*
X008762Y009974D01*
X007912Y009974D02*
X007566Y009974D01*
X007644Y010051D02*
X007835Y010051D01*
X007788Y010128D02*
X007691Y010128D01*
X007723Y010206D02*
X007756Y010206D01*
X007745Y010283D02*
X007734Y010283D01*
X007734Y010360D02*
X007745Y010360D01*
X007734Y010437D02*
X007745Y010437D01*
X007734Y010515D02*
X007745Y010515D01*
X007734Y010592D02*
X007745Y010592D01*
X007734Y010669D02*
X007745Y010669D01*
X007734Y010746D02*
X007745Y010746D01*
X007734Y010824D02*
X007745Y010824D01*
X007734Y010901D02*
X007745Y010901D01*
X007770Y010978D02*
X007709Y010978D01*
X007677Y011055D02*
X007802Y011055D01*
X007869Y011133D02*
X007610Y011133D01*
X007505Y011210D02*
X007973Y011210D01*
X007354Y011673D02*
X007275Y011673D01*
X007275Y011750D02*
X007354Y011750D01*
X007354Y011828D02*
X007275Y011828D01*
X007275Y011905D02*
X007354Y011905D01*
X007354Y011982D02*
X007275Y011982D01*
X007275Y012059D02*
X007354Y012059D01*
X007354Y012137D02*
X007275Y012137D01*
X007275Y012214D02*
X007354Y012214D01*
X007354Y012446D02*
X007275Y012446D01*
X007275Y012523D02*
X007354Y012523D01*
X007354Y012600D02*
X007275Y012600D01*
X007275Y012677D02*
X007354Y012677D01*
X007354Y012755D02*
X007275Y012755D01*
X007275Y012832D02*
X007354Y012832D01*
X007354Y012909D02*
X007275Y012909D01*
X007174Y012909D02*
X006605Y012909D01*
X006504Y012909D02*
X006425Y012909D01*
X006425Y012832D02*
X006504Y012832D01*
X006504Y012755D02*
X006425Y012755D01*
X006425Y012677D02*
X006504Y012677D01*
X006504Y012600D02*
X006425Y012600D01*
X006425Y012523D02*
X006504Y012523D01*
X006504Y012446D02*
X006425Y012446D01*
X006425Y012214D02*
X006504Y012214D01*
X006504Y012137D02*
X006425Y012137D01*
X006425Y012059D02*
X006504Y012059D01*
X006504Y011982D02*
X006425Y011982D01*
X006425Y011905D02*
X006504Y011905D01*
X006504Y011828D02*
X006425Y011828D01*
X006425Y011750D02*
X006504Y011750D01*
X006504Y011673D02*
X006425Y011673D01*
X006672Y011673D02*
X007107Y011673D01*
X007014Y011750D02*
X006765Y011750D01*
X006819Y011828D02*
X006960Y011828D01*
X006929Y011905D02*
X006850Y011905D01*
X006864Y011982D02*
X006915Y011982D01*
X006915Y012059D02*
X006864Y012059D01*
X006864Y012137D02*
X006915Y012137D01*
X006915Y012214D02*
X006864Y012214D01*
X006864Y012368D02*
X006915Y012368D01*
X006915Y012446D02*
X006864Y012446D01*
X006864Y012523D02*
X006915Y012523D01*
X006920Y012600D02*
X006859Y012600D01*
X006838Y012677D02*
X006941Y012677D01*
X006981Y012755D02*
X006798Y012755D01*
X006732Y012832D02*
X007046Y012832D01*
X006324Y012909D02*
X000318Y012909D01*
X000318Y012832D02*
X006196Y012832D01*
X006131Y012755D02*
X000318Y012755D01*
X000318Y012677D02*
X001616Y012677D01*
X001494Y012640D01*
X001377Y012592D01*
X001266Y012532D01*
X001160Y012462D01*
X001062Y012382D01*
X000973Y012292D01*
X000892Y012194D01*
X000822Y012089D01*
X000762Y011977D01*
X000714Y011860D01*
X000677Y011739D01*
X000652Y011614D01*
X000640Y011488D01*
X000640Y011464D01*
X001890Y011464D01*
X001890Y012714D01*
X001866Y012714D01*
X001740Y012702D01*
X001616Y012677D01*
X001397Y012600D02*
X000318Y012600D01*
X000318Y012523D02*
X001252Y012523D01*
X001141Y012446D02*
X000318Y012446D01*
X000318Y012368D02*
X001049Y012368D01*
X000972Y012291D02*
X000318Y012291D01*
X000318Y012214D02*
X000909Y012214D01*
X000854Y012137D02*
X000318Y012137D01*
X000318Y012059D02*
X000806Y012059D01*
X000765Y011982D02*
X000318Y011982D01*
X000318Y011905D02*
X000733Y011905D01*
X000704Y011828D02*
X000318Y011828D01*
X000318Y011750D02*
X000681Y011750D01*
X000664Y011673D02*
X000318Y011673D01*
X000318Y011596D02*
X000651Y011596D01*
X000643Y011519D02*
X000318Y011519D01*
X000318Y011442D02*
X001890Y011442D01*
X001890Y011519D02*
X001969Y011519D01*
X001969Y011596D02*
X001890Y011596D01*
X001890Y011673D02*
X001969Y011673D01*
X001969Y011750D02*
X001890Y011750D01*
X001890Y011828D02*
X001969Y011828D01*
X001969Y011905D02*
X001890Y011905D01*
X001890Y011982D02*
X001969Y011982D01*
X001969Y012059D02*
X001890Y012059D01*
X001890Y012137D02*
X001969Y012137D01*
X001969Y012214D02*
X001890Y012214D01*
X001890Y012291D02*
X001969Y012291D01*
X001969Y012368D02*
X001890Y012368D01*
X001890Y012446D02*
X001969Y012446D01*
X001969Y012523D02*
X001890Y012523D01*
X001890Y012600D02*
X001969Y012600D01*
X001969Y012677D02*
X001890Y012677D01*
X002242Y012677D02*
X006091Y012677D01*
X006070Y012600D02*
X002462Y012600D01*
X002607Y012523D02*
X006065Y012523D01*
X006065Y012446D02*
X002718Y012446D01*
X002809Y012368D02*
X006065Y012368D01*
X006109Y010128D02*
X000318Y010128D01*
X000318Y010051D02*
X006163Y010051D01*
X006256Y009974D02*
X000318Y009974D01*
X000318Y010206D02*
X001507Y010206D01*
X001331Y010283D02*
X000318Y010283D01*
X000318Y010360D02*
X001202Y010360D01*
X001100Y010437D02*
X000318Y010437D01*
X000318Y010515D02*
X001016Y010515D01*
X000945Y010592D02*
X000318Y010592D01*
X000318Y010669D02*
X000884Y010669D01*
X000832Y010746D02*
X000318Y010746D01*
X000318Y010824D02*
X000789Y010824D01*
X000751Y010901D02*
X000318Y010901D01*
X000318Y010978D02*
X000719Y010978D01*
X000694Y011055D02*
X000318Y011055D01*
X000318Y011133D02*
X000673Y011133D01*
X000658Y011210D02*
X000318Y011210D01*
X000318Y011287D02*
X000647Y011287D01*
X000640Y011364D02*
X000318Y011364D01*
X000318Y013295D02*
X022085Y013295D01*
X022085Y013373D02*
X000318Y013373D01*
X000318Y013450D02*
X022085Y013450D01*
X022085Y013527D02*
X000318Y013527D01*
X000318Y013604D02*
X022085Y013604D01*
X022085Y013681D02*
X000318Y013681D01*
X000318Y013759D02*
X022085Y013759D01*
X022085Y013836D02*
X000318Y013836D01*
X000318Y013913D02*
X022085Y013913D01*
X022085Y013990D02*
X000318Y013990D01*
X000318Y014068D02*
X022085Y014068D01*
X022085Y014145D02*
X000318Y014145D01*
X000318Y014222D02*
X022085Y014222D01*
X022085Y014299D02*
X000318Y014299D01*
X000318Y014377D02*
X022085Y014377D01*
X022085Y014454D02*
X000318Y014454D01*
X000318Y014531D02*
X022085Y014531D01*
X022085Y014608D02*
X000318Y014608D01*
X000318Y014686D02*
X022085Y014686D01*
X022085Y014763D02*
X000318Y014763D01*
X000318Y014840D02*
X022085Y014840D01*
X022085Y014917D02*
X000318Y014917D01*
X000318Y014995D02*
X022085Y014995D01*
X022085Y015072D02*
X000318Y015072D01*
X000318Y015149D02*
X022085Y015149D01*
X022085Y015226D02*
X000318Y015226D01*
X000318Y015304D02*
X022085Y015304D01*
X022085Y015381D02*
X000318Y015381D01*
X000318Y015458D02*
X022085Y015458D01*
X022085Y015535D02*
X000318Y015535D01*
X000318Y015612D02*
X022085Y015612D01*
X022085Y015690D02*
X000318Y015690D01*
X011705Y012909D02*
X012222Y012909D01*
X012118Y012832D02*
X011832Y012832D01*
X011898Y012755D02*
X012051Y012755D01*
X012019Y012677D02*
X011938Y012677D01*
X011959Y012600D02*
X011995Y012600D01*
X011995Y012523D02*
X011964Y012523D01*
X011964Y012446D02*
X011995Y012446D01*
X011995Y012368D02*
X011964Y012368D01*
X012607Y012909D02*
X013072Y012909D01*
X012968Y012832D02*
X012711Y012832D01*
X012777Y012755D02*
X012901Y012755D01*
X012869Y012677D02*
X012809Y012677D01*
X012834Y012600D02*
X012845Y012600D01*
X012834Y012523D02*
X012845Y012523D01*
X012834Y012446D02*
X012845Y012446D01*
X012834Y012368D02*
X012845Y012368D01*
X012834Y012291D02*
X012845Y012291D01*
X012834Y012214D02*
X012845Y012214D01*
X012834Y012137D02*
X012845Y012137D01*
X012834Y012059D02*
X012845Y012059D01*
X012834Y011982D02*
X012845Y011982D01*
X012856Y011905D02*
X012823Y011905D01*
X012791Y011828D02*
X012888Y011828D01*
X012936Y011750D02*
X012743Y011750D01*
X012666Y011673D02*
X013013Y011673D01*
X013516Y011673D02*
X013794Y011673D01*
X013786Y011750D02*
X013593Y011750D01*
X013641Y011828D02*
X013738Y011828D01*
X013706Y011905D02*
X013673Y011905D01*
X013684Y011982D02*
X013695Y011982D01*
X013684Y012059D02*
X013695Y012059D01*
X013684Y012137D02*
X013695Y012137D01*
X013684Y012214D02*
X013695Y012214D01*
X013684Y012291D02*
X013695Y012291D01*
X013684Y012368D02*
X013695Y012368D01*
X013684Y012446D02*
X013695Y012446D01*
X013684Y012523D02*
X013695Y012523D01*
X013684Y012600D02*
X013695Y012600D01*
X013719Y012677D02*
X013659Y012677D01*
X013627Y012755D02*
X013751Y012755D01*
X013818Y012832D02*
X013561Y012832D01*
X013457Y012909D02*
X013922Y012909D01*
X014114Y012275D02*
X014139Y012250D01*
X014139Y011738D01*
X013827Y011425D01*
X015814Y010575D02*
X015827Y010563D01*
X015827Y010050D01*
X018389Y007488D01*
X018389Y004675D01*
X018202Y004988D02*
X018202Y007363D01*
X015702Y009863D01*
X017265Y008893D02*
X022085Y008893D01*
X022085Y008815D02*
X017343Y008815D01*
X017420Y008738D02*
X022085Y008738D01*
X022085Y008661D02*
X017497Y008661D01*
X017574Y008584D02*
X022085Y008584D01*
X022085Y008506D02*
X018520Y008506D01*
X018620Y008429D02*
X022085Y008429D01*
X022085Y008352D02*
X018665Y008352D01*
X018688Y008275D02*
X022085Y008275D01*
X022085Y008197D02*
X018711Y008197D01*
X018722Y008186D02*
X018722Y008186D01*
X018788Y008120D02*
X022085Y008120D01*
X022085Y008043D02*
X019788Y008043D01*
X019910Y007966D02*
X022085Y007966D01*
X022085Y007888D02*
X019981Y007888D01*
X020013Y007811D02*
X022085Y007811D01*
X022085Y007734D02*
X020036Y007734D01*
X020036Y007657D02*
X022085Y007657D01*
X022085Y007579D02*
X020029Y007579D01*
X019997Y007502D02*
X022085Y007502D01*
X022085Y007425D02*
X019951Y007425D01*
X019879Y007348D02*
X022085Y007348D01*
X022085Y007271D02*
X019879Y007271D01*
X019879Y007193D02*
X022085Y007193D01*
X022085Y007116D02*
X019879Y007116D01*
X019879Y007039D02*
X022085Y007039D01*
X022085Y006962D02*
X019879Y006962D01*
X019879Y006884D02*
X022085Y006884D01*
X022085Y006807D02*
X019879Y006807D01*
X019879Y006730D02*
X022085Y006730D01*
X022085Y006653D02*
X019879Y006653D01*
X019879Y006575D02*
X022085Y006575D01*
X022085Y006498D02*
X019879Y006498D01*
X019892Y006421D02*
X022085Y006421D01*
X022085Y006344D02*
X019969Y006344D01*
X020005Y006266D02*
X022085Y006266D01*
X022085Y006189D02*
X020036Y006189D01*
X020036Y006112D02*
X022085Y006112D01*
X022085Y006035D02*
X020036Y006035D01*
X020154Y005957D02*
X022085Y005957D01*
X022085Y005880D02*
X021840Y005880D01*
X021917Y005803D02*
X022085Y005803D01*
X022085Y005726D02*
X021995Y005726D01*
X022072Y005648D02*
X022085Y005648D01*
X022014Y005425D02*
X022014Y003300D01*
X021889Y003175D01*
X021514Y003175D01*
X021857Y002868D02*
X022085Y002868D01*
X022085Y002945D02*
X021934Y002945D01*
X022018Y003022D02*
X022085Y003022D01*
X022085Y002791D02*
X021780Y002791D01*
X021780Y002559D02*
X022085Y002559D01*
X022085Y002636D02*
X021213Y002636D01*
X021213Y002559D02*
X021249Y002559D01*
X021213Y002713D02*
X022085Y002713D01*
X022085Y002482D02*
X021857Y002482D01*
X021935Y002404D02*
X022085Y002404D01*
X022085Y002327D02*
X021974Y002327D01*
X021974Y002250D02*
X022085Y002250D01*
X022085Y002173D02*
X021974Y002173D01*
X021974Y002095D02*
X022085Y002095D01*
X022085Y002018D02*
X021974Y002018D01*
X021930Y001941D02*
X022085Y001941D01*
X022085Y001864D02*
X021853Y001864D01*
X021775Y001786D02*
X022085Y001786D01*
X022085Y001709D02*
X021213Y001709D01*
X021213Y001632D02*
X021322Y001632D01*
X021244Y001555D02*
X021213Y001555D01*
X021213Y001786D02*
X021253Y001786D01*
X020816Y001786D02*
X020775Y001786D01*
X020816Y001709D02*
X019463Y001709D01*
X019463Y001632D02*
X020322Y001632D01*
X020244Y001555D02*
X019425Y001555D01*
X019485Y001477D02*
X019544Y001477D01*
X019544Y001502D02*
X019544Y001255D01*
X019831Y001255D01*
X019831Y001381D01*
X019821Y001417D01*
X019803Y001448D01*
X019777Y001474D01*
X019745Y001493D01*
X019710Y001502D01*
X019544Y001502D01*
X019544Y001400D02*
X019485Y001400D01*
X019485Y001323D02*
X019544Y001323D01*
X019544Y001246D02*
X020055Y001246D01*
X020055Y001323D02*
X019831Y001323D01*
X019826Y001400D02*
X020090Y001400D01*
X020167Y001477D02*
X019772Y001477D01*
X019831Y001169D02*
X020055Y001169D01*
X020055Y001091D02*
X019831Y001091D01*
X019810Y001014D02*
X020055Y001014D01*
X020103Y000937D02*
X019484Y000937D01*
X019485Y001014D02*
X019544Y001014D01*
X019544Y001091D02*
X019485Y001091D01*
X019485Y001169D02*
X019544Y001169D01*
X019485Y001195D02*
X019198Y001195D01*
X019198Y001069D01*
X019207Y001033D01*
X019226Y001002D01*
X019229Y000999D01*
X019033Y000999D01*
X019033Y001161D01*
X018940Y001255D01*
X018217Y001255D01*
X018124Y001161D01*
X018124Y000439D01*
X018208Y000354D01*
X017570Y000354D01*
X017655Y000439D01*
X017655Y001161D01*
X017562Y001255D01*
X017027Y001255D01*
X016930Y001351D01*
X016972Y001351D01*
X019198Y001351D01*
X019198Y001255D01*
X019485Y001255D01*
X019485Y001195D01*
X019485Y001246D02*
X018949Y001246D01*
X019026Y001169D02*
X019198Y001169D01*
X019198Y001091D02*
X019033Y001091D01*
X019033Y001014D02*
X019219Y001014D01*
X019339Y000800D02*
X018578Y000800D01*
X018124Y000782D02*
X017655Y000782D01*
X017655Y000705D02*
X018124Y000705D01*
X018124Y000628D02*
X017655Y000628D01*
X017655Y000551D02*
X018124Y000551D01*
X018124Y000473D02*
X017655Y000473D01*
X017612Y000396D02*
X018166Y000396D01*
X018124Y000860D02*
X017655Y000860D01*
X017655Y000937D02*
X018124Y000937D01*
X018124Y001014D02*
X017655Y001014D01*
X017655Y001091D02*
X018124Y001091D01*
X018131Y001169D02*
X017648Y001169D01*
X017571Y001246D02*
X018208Y001246D01*
X017200Y000800D02*
X016264Y001736D01*
X016264Y003550D01*
X016889Y004175D01*
X018514Y004175D01*
X018639Y004300D01*
X018639Y007988D01*
X018389Y008238D01*
X018114Y008352D02*
X017806Y008352D01*
X017729Y008429D02*
X018159Y008429D01*
X018259Y008506D02*
X017652Y008506D01*
X017883Y008275D02*
X018091Y008275D01*
X018091Y008197D02*
X017961Y008197D01*
X018038Y008120D02*
X018115Y008120D01*
X018115Y008043D02*
X018162Y008043D01*
X018192Y007966D02*
X018266Y007966D01*
X018269Y007888D02*
X018441Y007888D01*
X018441Y007811D02*
X018347Y007811D01*
X018424Y007734D02*
X018441Y007734D01*
X018838Y007734D02*
X019243Y007734D01*
X019243Y007657D02*
X018838Y007657D01*
X018838Y007579D02*
X019249Y007579D01*
X019281Y007502D02*
X018838Y007502D01*
X018838Y007425D02*
X019328Y007425D01*
X019400Y007348D02*
X018838Y007348D01*
X018838Y007271D02*
X019400Y007271D01*
X019400Y007193D02*
X018838Y007193D01*
X018838Y007116D02*
X019400Y007116D01*
X019400Y007039D02*
X018838Y007039D01*
X018838Y006962D02*
X019400Y006962D01*
X019400Y006884D02*
X018838Y006884D01*
X018838Y006807D02*
X019400Y006807D01*
X019400Y006730D02*
X018838Y006730D01*
X018838Y006653D02*
X019400Y006653D01*
X019400Y006575D02*
X018838Y006575D01*
X018838Y006498D02*
X019400Y006498D01*
X019387Y006421D02*
X018838Y006421D01*
X018838Y006344D02*
X019309Y006344D01*
X019274Y006266D02*
X018838Y006266D01*
X018838Y006189D02*
X019243Y006189D01*
X019243Y006112D02*
X018838Y006112D01*
X018838Y006035D02*
X019243Y006035D01*
X019274Y005957D02*
X018838Y005957D01*
X018838Y005880D02*
X019310Y005880D01*
X019388Y005803D02*
X018838Y005803D01*
X018838Y005726D02*
X019441Y005726D01*
X019441Y005648D02*
X018838Y005648D01*
X018838Y005571D02*
X019462Y005571D01*
X019539Y005494D02*
X018838Y005494D01*
X018838Y005417D02*
X019617Y005417D01*
X019694Y005340D02*
X018838Y005340D01*
X018838Y005262D02*
X019771Y005262D01*
X019889Y005425D02*
X019639Y005675D01*
X019639Y006113D01*
X019952Y005738D02*
X021702Y005738D01*
X022014Y005425D01*
X021389Y005425D02*
X021264Y005550D01*
X020202Y005550D01*
X020077Y005425D01*
X019889Y005425D01*
X020091Y005185D02*
X018838Y005185D01*
X018838Y005108D02*
X020094Y005108D01*
X020126Y005031D02*
X018838Y005031D01*
X018838Y004953D02*
X020189Y004953D01*
X020389Y005175D02*
X020396Y005169D01*
X020837Y005169D01*
X020889Y005116D01*
X020952Y005050D01*
X020952Y004363D01*
X020014Y003425D01*
X020014Y002300D01*
X020139Y002175D01*
X020514Y002175D01*
X020099Y001941D02*
X019463Y001941D01*
X019463Y002018D02*
X020015Y002018D01*
X019938Y002095D02*
X019463Y002095D01*
X019463Y002173D02*
X019861Y002173D01*
X019816Y002250D02*
X019463Y002250D01*
X019463Y002327D02*
X019816Y002327D01*
X019816Y002404D02*
X019463Y002404D01*
X019463Y002482D02*
X019816Y002482D01*
X019816Y002559D02*
X019463Y002559D01*
X019463Y002636D02*
X019816Y002636D01*
X019816Y002713D02*
X019463Y002713D01*
X019463Y002791D02*
X019816Y002791D01*
X019816Y002868D02*
X019463Y002868D01*
X019463Y002945D02*
X019816Y002945D01*
X019816Y003022D02*
X019463Y003022D01*
X019463Y003100D02*
X019816Y003100D01*
X019816Y003177D02*
X019463Y003177D01*
X019499Y003254D02*
X019816Y003254D01*
X019816Y003331D02*
X019577Y003331D01*
X019654Y003408D02*
X019816Y003408D01*
X019816Y003486D02*
X019731Y003486D01*
X019722Y003476D02*
X019722Y003476D01*
X019808Y003563D02*
X019871Y003563D01*
X019838Y003640D02*
X019949Y003640D01*
X020026Y003717D02*
X019838Y003717D01*
X019838Y003795D02*
X020103Y003795D01*
X020180Y003872D02*
X019838Y003872D01*
X019771Y003949D02*
X020257Y003949D01*
X020335Y004026D02*
X018647Y004026D01*
X018724Y004104D02*
X020412Y004104D01*
X020489Y004181D02*
X018801Y004181D01*
X018838Y004258D02*
X020566Y004258D01*
X020644Y004335D02*
X018838Y004335D01*
X018838Y004413D02*
X020721Y004413D01*
X020753Y004490D02*
X018838Y004490D01*
X018838Y004567D02*
X020753Y004567D01*
X020753Y004644D02*
X018838Y004644D01*
X018838Y004722D02*
X020753Y004722D01*
X020753Y004799D02*
X018838Y004799D01*
X018838Y004876D02*
X020753Y004876D01*
X020753Y004953D02*
X020590Y004953D01*
X021125Y004255D02*
X021091Y004172D01*
X021091Y004095D01*
X020816Y003820D01*
X020816Y003495D01*
X020696Y003614D01*
X020554Y003614D01*
X020554Y003214D01*
X020475Y003214D01*
X020475Y003605D01*
X021125Y004255D01*
X021095Y004181D02*
X021051Y004181D01*
X021091Y004104D02*
X020974Y004104D01*
X021022Y004026D02*
X020897Y004026D01*
X020945Y003949D02*
X020820Y003949D01*
X020868Y003872D02*
X020742Y003872D01*
X020816Y003795D02*
X020665Y003795D01*
X020588Y003717D02*
X020816Y003717D01*
X020816Y003640D02*
X020511Y003640D01*
X020475Y003563D02*
X020554Y003563D01*
X020554Y003486D02*
X020475Y003486D01*
X020475Y003408D02*
X020554Y003408D01*
X020554Y003331D02*
X020475Y003331D01*
X020475Y003254D02*
X020554Y003254D01*
X020554Y003136D02*
X020554Y002736D01*
X020696Y002736D01*
X020816Y002855D01*
X020816Y002523D01*
X020705Y002634D01*
X020324Y002634D01*
X020213Y002523D01*
X020213Y002855D01*
X020332Y002736D01*
X020475Y002736D01*
X020475Y003136D01*
X020554Y003136D01*
X020554Y003100D02*
X020475Y003100D01*
X020475Y003022D02*
X020554Y003022D01*
X020554Y002945D02*
X020475Y002945D01*
X020475Y002868D02*
X020554Y002868D01*
X020554Y002791D02*
X020475Y002791D01*
X020277Y002791D02*
X020213Y002791D01*
X020213Y002713D02*
X020816Y002713D01*
X020816Y002636D02*
X020213Y002636D01*
X020213Y002559D02*
X020249Y002559D01*
X020780Y002559D02*
X020816Y002559D01*
X020816Y002791D02*
X020751Y002791D01*
X021213Y002791D02*
X021249Y002791D01*
X020816Y003563D02*
X020748Y003563D01*
X021014Y003738D02*
X021389Y004113D01*
X021389Y005425D01*
X019507Y003949D02*
X019271Y003949D01*
X019338Y003872D02*
X019441Y003872D01*
X019441Y003795D02*
X019338Y003795D01*
X019338Y003717D02*
X019401Y003717D01*
X019324Y003640D02*
X019261Y003640D01*
X019246Y003563D02*
X019183Y003563D01*
X019182Y003499D02*
X019182Y003499D01*
X019169Y003486D02*
X019106Y003486D01*
X019092Y003408D02*
X019029Y003408D01*
X019066Y003331D02*
X016963Y003331D01*
X016963Y003254D02*
X019066Y003254D01*
X019066Y003177D02*
X016963Y003177D01*
X016963Y003100D02*
X019066Y003100D01*
X019066Y003022D02*
X016963Y003022D01*
X016963Y002945D02*
X019066Y002945D01*
X019066Y002868D02*
X016963Y002868D01*
X016963Y002791D02*
X019066Y002791D01*
X019066Y002713D02*
X016963Y002713D01*
X016963Y002636D02*
X019066Y002636D01*
X019066Y002559D02*
X016963Y002559D01*
X016963Y002482D02*
X019066Y002482D01*
X019066Y002404D02*
X016963Y002404D01*
X016963Y002327D02*
X019066Y002327D01*
X019066Y002250D02*
X016963Y002250D01*
X016963Y002173D02*
X019066Y002173D01*
X019066Y002095D02*
X016963Y002095D01*
X016963Y002018D02*
X019066Y002018D01*
X019066Y001941D02*
X016963Y001941D01*
X016963Y001864D02*
X019066Y001864D01*
X019066Y001786D02*
X016963Y001786D01*
X016566Y001786D02*
X016495Y001786D01*
X016463Y001864D02*
X016566Y001864D01*
X016566Y001941D02*
X016463Y001941D01*
X016463Y002018D02*
X016566Y002018D01*
X016566Y002095D02*
X016463Y002095D01*
X016463Y002173D02*
X016566Y002173D01*
X016566Y002250D02*
X016463Y002250D01*
X016463Y002327D02*
X016566Y002327D01*
X016566Y002404D02*
X016463Y002404D01*
X016463Y002482D02*
X016566Y002482D01*
X016566Y002559D02*
X016463Y002559D01*
X016463Y002636D02*
X016566Y002636D01*
X016566Y002713D02*
X016463Y002713D01*
X016463Y002791D02*
X016566Y002791D01*
X016566Y002868D02*
X016463Y002868D01*
X016463Y002945D02*
X016566Y002945D01*
X016566Y003022D02*
X016463Y003022D01*
X016463Y003100D02*
X016566Y003100D01*
X016566Y003177D02*
X016463Y003177D01*
X016463Y003254D02*
X016566Y003254D01*
X016566Y003331D02*
X016463Y003331D01*
X016463Y003408D02*
X016566Y003408D01*
X016566Y003486D02*
X016481Y003486D01*
X016558Y003563D02*
X016621Y003563D01*
X016636Y003640D02*
X016699Y003640D01*
X016713Y003717D02*
X016776Y003717D01*
X016790Y003795D02*
X018853Y003795D01*
X018930Y003872D02*
X016867Y003872D01*
X016945Y003949D02*
X019007Y003949D01*
X018243Y004413D02*
X018161Y004413D01*
X017868Y004413D02*
X017786Y004413D01*
X017493Y004413D02*
X015754Y004413D01*
X015815Y004335D02*
X016769Y004335D01*
X016691Y004258D02*
X015815Y004258D01*
X015815Y004181D02*
X016614Y004181D01*
X016537Y004104D02*
X015815Y004104D01*
X015815Y004026D02*
X016460Y004026D01*
X016382Y003949D02*
X015782Y003949D01*
X015705Y003872D02*
X016305Y003872D01*
X016228Y003795D02*
X015628Y003795D01*
X015554Y003629D02*
X015184Y003629D01*
X014961Y003406D01*
X014758Y003609D01*
X014621Y003609D01*
X014621Y003222D01*
X014542Y003222D01*
X014542Y003144D01*
X014155Y003144D01*
X014155Y003006D01*
X014405Y002756D01*
X014542Y002756D01*
X014542Y003143D01*
X014621Y003143D01*
X014621Y002756D01*
X014758Y002756D01*
X014961Y002959D01*
X015184Y002736D01*
X015554Y002736D01*
X015815Y002998D01*
X015815Y003368D01*
X015554Y003629D01*
X015620Y003563D02*
X016066Y003563D01*
X016066Y003486D02*
X015697Y003486D01*
X015774Y003408D02*
X016066Y003408D01*
X016066Y003331D02*
X015815Y003331D01*
X015815Y003254D02*
X016066Y003254D01*
X016066Y003177D02*
X015815Y003177D01*
X015815Y003100D02*
X016066Y003100D01*
X016066Y003022D02*
X015815Y003022D01*
X015762Y002945D02*
X016066Y002945D01*
X016066Y002868D02*
X015685Y002868D01*
X015608Y002791D02*
X016066Y002791D01*
X016066Y002713D02*
X012693Y002713D01*
X012693Y002636D02*
X016066Y002636D01*
X016066Y002559D02*
X012693Y002559D01*
X012693Y002482D02*
X016066Y002482D01*
X016066Y002404D02*
X012693Y002404D01*
X012693Y002327D02*
X016066Y002327D01*
X016066Y002250D02*
X012693Y002250D01*
X012693Y002173D02*
X016066Y002173D01*
X016066Y002095D02*
X013579Y002095D01*
X013566Y002097D02*
X013554Y002097D01*
X013554Y001344D01*
X014306Y001344D01*
X014306Y001357D01*
X014293Y001460D01*
X014266Y001560D01*
X014226Y001656D01*
X014174Y001746D01*
X014111Y001828D01*
X014038Y001902D01*
X013955Y001965D01*
X013865Y002017D01*
X013770Y002057D01*
X013669Y002083D01*
X013566Y002097D01*
X013554Y002095D02*
X013475Y002095D01*
X013475Y002097D02*
X013462Y002097D01*
X013360Y002083D01*
X013259Y002057D01*
X013163Y002017D01*
X013073Y001965D01*
X012991Y001902D01*
X012918Y001828D01*
X012854Y001746D01*
X012802Y001656D01*
X012763Y001560D01*
X012736Y001460D01*
X012722Y001357D01*
X012722Y001344D01*
X013475Y001344D01*
X013475Y001266D01*
X012722Y001266D01*
X012722Y001253D01*
X012736Y001150D01*
X012763Y001050D01*
X012802Y000954D01*
X012854Y000864D01*
X012918Y000782D01*
X012991Y000708D01*
X013073Y000645D01*
X013163Y000593D01*
X013259Y000553D01*
X013360Y000526D01*
X013462Y000513D01*
X013475Y000513D01*
X013475Y001266D01*
X013554Y001266D01*
X013554Y001344D01*
X013475Y001344D01*
X013475Y002097D01*
X013450Y002095D02*
X012693Y002095D01*
X012693Y002018D02*
X013166Y002018D01*
X013042Y001941D02*
X012693Y001941D01*
X012693Y001864D02*
X012953Y001864D01*
X012885Y001786D02*
X012693Y001786D01*
X012693Y001709D02*
X012833Y001709D01*
X012792Y001632D02*
X012693Y001632D01*
X012693Y001555D02*
X012761Y001555D01*
X012741Y001477D02*
X012693Y001477D01*
X012693Y001400D02*
X012728Y001400D01*
X012693Y001323D02*
X013475Y001323D01*
X013475Y001246D02*
X013554Y001246D01*
X013554Y001266D02*
X013554Y000513D01*
X013566Y000513D01*
X013669Y000526D01*
X013770Y000553D01*
X013865Y000593D01*
X013955Y000645D01*
X014038Y000708D01*
X014111Y000782D01*
X014174Y000864D01*
X014226Y000954D01*
X014266Y001050D01*
X014293Y001150D01*
X014306Y001253D01*
X014306Y001266D01*
X013554Y001266D01*
X013554Y001323D02*
X016396Y001323D01*
X016319Y001400D02*
X014301Y001400D01*
X014288Y001477D02*
X016242Y001477D01*
X016165Y001555D02*
X014268Y001555D01*
X014236Y001632D02*
X016087Y001632D01*
X016066Y001709D02*
X014196Y001709D01*
X014143Y001786D02*
X016066Y001786D01*
X016066Y001864D02*
X014076Y001864D01*
X013987Y001941D02*
X016066Y001941D01*
X016066Y002018D02*
X013862Y002018D01*
X013554Y002018D02*
X013475Y002018D01*
X013475Y001941D02*
X013554Y001941D01*
X013554Y001864D02*
X013475Y001864D01*
X013475Y001786D02*
X013554Y001786D01*
X013554Y001709D02*
X013475Y001709D01*
X013475Y001632D02*
X013554Y001632D01*
X013554Y001555D02*
X013475Y001555D01*
X013475Y001477D02*
X013554Y001477D01*
X013554Y001400D02*
X013475Y001400D01*
X013475Y001169D02*
X013554Y001169D01*
X013554Y001091D02*
X013475Y001091D01*
X013475Y001014D02*
X013554Y001014D01*
X013554Y000937D02*
X013475Y000937D01*
X013475Y000860D02*
X013554Y000860D01*
X013554Y000782D02*
X013475Y000782D01*
X013475Y000705D02*
X013554Y000705D01*
X013554Y000628D02*
X013475Y000628D01*
X013475Y000551D02*
X013554Y000551D01*
X013760Y000551D02*
X016746Y000551D01*
X016746Y000628D02*
X013926Y000628D01*
X014034Y000705D02*
X016746Y000705D01*
X016746Y000782D02*
X014112Y000782D01*
X014171Y000860D02*
X016746Y000860D01*
X016746Y000937D02*
X014217Y000937D01*
X014251Y001014D02*
X016705Y001014D01*
X016628Y001091D02*
X014277Y001091D01*
X014295Y001169D02*
X016551Y001169D01*
X016474Y001246D02*
X014306Y001246D01*
X013269Y000551D02*
X012907Y000551D01*
X012846Y000628D02*
X013103Y000628D01*
X012995Y000705D02*
X012790Y000705D01*
X012754Y000782D02*
X012917Y000782D01*
X012858Y000860D02*
X012728Y000860D01*
X012703Y000937D02*
X012812Y000937D01*
X012777Y001014D02*
X012696Y001014D01*
X012693Y001091D02*
X012752Y001091D01*
X012733Y001169D02*
X012693Y001169D01*
X012693Y001246D02*
X012723Y001246D01*
X013014Y000473D02*
X016746Y000473D01*
X016788Y000396D02*
X013177Y000396D01*
X012693Y002791D02*
X014371Y002791D01*
X014293Y002868D02*
X012693Y002868D01*
X012693Y002945D02*
X014216Y002945D01*
X014155Y003022D02*
X012693Y003022D01*
X012693Y003100D02*
X014155Y003100D01*
X014155Y003222D02*
X014542Y003222D01*
X014542Y003609D01*
X014405Y003609D01*
X014155Y003359D01*
X014155Y003222D01*
X014155Y003254D02*
X012693Y003254D01*
X012693Y003177D02*
X014542Y003177D01*
X014542Y003254D02*
X014621Y003254D01*
X014621Y003331D02*
X014542Y003331D01*
X014542Y003408D02*
X014621Y003408D01*
X014621Y003486D02*
X014542Y003486D01*
X014542Y003563D02*
X014621Y003563D01*
X014804Y003563D02*
X015118Y003563D01*
X015040Y003486D02*
X014881Y003486D01*
X014959Y003408D02*
X014963Y003408D01*
X014621Y003100D02*
X014542Y003100D01*
X014542Y003022D02*
X014621Y003022D01*
X014621Y002945D02*
X014542Y002945D01*
X014542Y002868D02*
X014621Y002868D01*
X014621Y002791D02*
X014542Y002791D01*
X014792Y002791D02*
X015130Y002791D01*
X015052Y002868D02*
X014869Y002868D01*
X014946Y002945D02*
X014975Y002945D01*
X014358Y003563D02*
X012693Y003563D01*
X012693Y003640D02*
X016074Y003640D01*
X016151Y003717D02*
X012693Y003717D01*
X012693Y003795D02*
X014322Y003795D01*
X014245Y003872D02*
X012693Y003872D01*
X012693Y003949D02*
X014168Y003949D01*
X014135Y004026D02*
X012693Y004026D01*
X012693Y004104D02*
X014135Y004104D01*
X014135Y004181D02*
X012693Y004181D01*
X012693Y004258D02*
X014135Y004258D01*
X014135Y004335D02*
X012693Y004335D01*
X012693Y004413D02*
X014196Y004413D01*
X014273Y004490D02*
X012693Y004490D01*
X012693Y004567D02*
X014350Y004567D01*
X014813Y004567D02*
X015137Y004567D01*
X015060Y004490D02*
X014890Y004490D01*
X014967Y004413D02*
X014983Y004413D01*
X015033Y003872D02*
X014917Y003872D01*
X014840Y003795D02*
X015110Y003795D01*
X014281Y003486D02*
X012693Y003486D01*
X012693Y003408D02*
X014204Y003408D01*
X014155Y003331D02*
X012693Y003331D01*
X015452Y005425D02*
X016596Y006570D01*
X017024Y006189D02*
X017203Y006189D01*
X017241Y006425D02*
X017389Y006425D01*
X017441Y006112D02*
X016842Y006112D01*
X016724Y006035D02*
X017441Y006035D01*
X017441Y005957D02*
X016640Y005957D01*
X016563Y005880D02*
X017441Y005880D01*
X017441Y005803D02*
X016486Y005803D01*
X016409Y005726D02*
X017441Y005726D01*
X017441Y005648D02*
X016331Y005648D01*
X016022Y005340D02*
X017023Y005340D01*
X016946Y005262D02*
X015945Y005262D01*
X015868Y005185D02*
X016868Y005185D01*
X016816Y005108D02*
X015791Y005108D01*
X015750Y005031D02*
X016816Y005031D01*
X016597Y006569D02*
X016641Y006611D01*
X016687Y006649D01*
X016736Y006685D01*
X016787Y006718D01*
X016839Y006747D01*
X016894Y006774D01*
X016949Y006797D01*
X017006Y006817D01*
X017065Y006833D01*
X017124Y006846D01*
X017183Y006855D01*
X017244Y006860D01*
X017304Y006862D01*
X017304Y006863D02*
X017389Y006863D01*
X018838Y007811D02*
X019266Y007811D01*
X019298Y007888D02*
X018838Y007888D01*
X018838Y007966D02*
X019369Y007966D01*
X019491Y008043D02*
X018838Y008043D01*
X018202Y004988D02*
X018014Y004800D01*
X018014Y004675D01*
X021014Y003738D02*
X021014Y001425D01*
X020764Y001175D01*
X020514Y001175D01*
X020180Y000860D02*
X019820Y000860D01*
X019851Y000782D02*
X020257Y000782D01*
X019851Y000705D02*
X021828Y000705D01*
X021771Y000782D02*
X021891Y000782D01*
X021849Y000860D02*
X021952Y000860D01*
X021926Y000937D02*
X021982Y000937D01*
X021974Y001014D02*
X022012Y001014D01*
X022041Y001091D02*
X021974Y001091D01*
X021974Y001169D02*
X022067Y001169D01*
X022077Y001246D02*
X021974Y001246D01*
X021974Y001323D02*
X022085Y001323D01*
X022085Y001400D02*
X021939Y001400D01*
X021862Y001477D02*
X022085Y001477D01*
X022085Y001555D02*
X021784Y001555D01*
X021707Y001632D02*
X022085Y001632D01*
X021055Y001169D02*
X021039Y001169D01*
X021055Y001091D02*
X020974Y001091D01*
X020974Y001014D02*
X021055Y001014D01*
X021103Y000937D02*
X020926Y000937D01*
X020849Y000860D02*
X021180Y000860D01*
X021257Y000782D02*
X020771Y000782D01*
X021325Y000396D02*
X019826Y000396D01*
X019851Y000473D02*
X021539Y000473D01*
X021658Y000551D02*
X019851Y000551D01*
X019851Y000628D02*
X021766Y000628D01*
X020816Y001555D02*
X020784Y001555D01*
X020816Y001632D02*
X020707Y001632D01*
X020253Y001786D02*
X019463Y001786D01*
X019463Y001864D02*
X020176Y001864D01*
X019198Y001323D02*
X016958Y001323D01*
X019339Y000800D02*
X019514Y000625D01*
X013051Y007888D02*
X012693Y007888D01*
X013338Y009356D02*
X013677Y009356D01*
X013600Y009433D02*
X013338Y009433D01*
X013338Y009510D02*
X013523Y009510D01*
X013446Y009588D02*
X013338Y009588D01*
X013338Y009665D02*
X013368Y009665D01*
X020310Y011364D02*
X020389Y011364D01*
X020389Y011442D02*
X022085Y011442D01*
D20*
X021264Y015050D03*
X015139Y015050D03*
X007389Y015050D03*
X000889Y015050D03*
X019639Y007675D03*
X019639Y006113D03*
D21*
X017139Y001925D03*
D22*
X019639Y006113D02*
X019639Y007675D01*
M02*
