G75*
%MOIN*%
%OFA0B0*%
%FSLAX24Y24*%
%IPPOS*%
%LPD*%
%AMOC8*
5,1,8,0,0,1.08239X$1,22.5*
%
%ADD10C,0.0039*%
%ADD11R,0.0276X0.0354*%
%ADD12R,0.0354X0.0276*%
%ADD13R,0.0591X0.0512*%
%ADD14R,0.0591X0.0236*%
%ADD15R,0.0236X0.0591*%
%ADD16R,0.0512X0.0433*%
D10*
X011639Y008800D02*
X011696Y008798D01*
X011753Y008793D01*
X011810Y008783D01*
X011865Y008770D01*
X011920Y008754D01*
X011974Y008733D01*
X012026Y008710D01*
X012077Y008683D01*
X012125Y008653D01*
X012172Y008619D01*
X012216Y008583D01*
X012258Y008544D01*
X012297Y008502D01*
X012333Y008458D01*
X012367Y008411D01*
X012397Y008363D01*
X012424Y008312D01*
X012447Y008260D01*
X012468Y008206D01*
X012484Y008151D01*
X012497Y008096D01*
X012507Y008039D01*
X012512Y007982D01*
X012514Y007925D01*
X012514Y001050D01*
X012516Y000993D01*
X012521Y000936D01*
X012531Y000879D01*
X012544Y000824D01*
X012560Y000769D01*
X012581Y000715D01*
X012604Y000663D01*
X012631Y000613D01*
X012661Y000564D01*
X012695Y000517D01*
X012731Y000473D01*
X012770Y000431D01*
X012812Y000392D01*
X012856Y000356D01*
X012903Y000322D01*
X012952Y000292D01*
X013002Y000265D01*
X013054Y000242D01*
X013108Y000221D01*
X013163Y000205D01*
X013218Y000192D01*
X013275Y000182D01*
X013332Y000177D01*
X013389Y000175D01*
X021014Y000175D01*
X022264Y001300D02*
X022264Y015925D01*
X000139Y015925D01*
X000139Y009300D01*
X000141Y009256D01*
X000147Y009213D01*
X000156Y009171D01*
X000169Y009129D01*
X000186Y009089D01*
X000206Y009050D01*
X000229Y009013D01*
X000256Y008979D01*
X000285Y008946D01*
X000318Y008917D01*
X000352Y008890D01*
X000389Y008867D01*
X000428Y008847D01*
X000468Y008830D01*
X000510Y008817D01*
X000552Y008808D01*
X000595Y008802D01*
X000639Y008800D01*
X011639Y008800D01*
X021015Y000176D02*
X021081Y000174D01*
X021148Y000176D01*
X021214Y000182D01*
X021280Y000192D01*
X021346Y000205D01*
X021410Y000222D01*
X021474Y000242D01*
X021536Y000266D01*
X021597Y000294D01*
X021656Y000324D01*
X021713Y000358D01*
X021768Y000396D01*
X021822Y000436D01*
X021872Y000479D01*
X021921Y000525D01*
X021966Y000574D01*
X022009Y000625D01*
X022049Y000678D01*
X022086Y000734D01*
X022120Y000792D01*
X022150Y000851D01*
X022177Y000912D01*
X022201Y000974D01*
X022221Y001038D01*
X022237Y001103D01*
X022250Y001168D01*
X022259Y001234D01*
X022264Y001301D01*
D11*
X018090Y001766D03*
X017490Y001766D03*
G36*
X016830Y002355D02*
X016829Y002630D01*
X017182Y002631D01*
X017183Y002356D01*
X016830Y002355D01*
G37*
G36*
X016826Y002955D02*
X016825Y003230D01*
X017178Y003231D01*
X017179Y002956D01*
X016826Y002955D01*
G37*
X016578Y003905D03*
X015978Y003905D03*
X014987Y004976D03*
X014387Y004976D03*
X014492Y005580D03*
X015092Y005580D03*
X019721Y009431D03*
X020321Y009431D03*
X005439Y011425D03*
X004839Y011425D03*
D12*
X019623Y003017D03*
X019623Y002417D03*
X021658Y003766D03*
X021658Y004366D03*
X021685Y006277D03*
X021685Y006877D03*
D13*
X016314Y002976D03*
X016314Y002228D03*
D14*
X016434Y004854D03*
X016434Y005169D03*
X016434Y005484D03*
X016434Y005799D03*
X016434Y006114D03*
X016434Y006429D03*
X016434Y006744D03*
X016434Y007059D03*
X016434Y007374D03*
X016434Y007689D03*
X016434Y008003D03*
X020962Y008003D03*
X020962Y007689D03*
X020962Y007374D03*
X020962Y007059D03*
X020962Y006744D03*
X020962Y006429D03*
X020962Y006114D03*
X020962Y005799D03*
X020962Y005484D03*
X020962Y005169D03*
X020962Y004854D03*
D15*
X020273Y004165D03*
X019958Y004165D03*
X019643Y004165D03*
X019328Y004165D03*
X019013Y004165D03*
X018698Y004165D03*
X018383Y004165D03*
X018068Y004165D03*
X017753Y004165D03*
X017438Y004165D03*
X017123Y004165D03*
X017123Y008692D03*
X017438Y008692D03*
X017753Y008692D03*
X018068Y008692D03*
X018383Y008692D03*
X018698Y008692D03*
X019013Y008692D03*
X019328Y008692D03*
X019643Y008692D03*
X019958Y008692D03*
X020273Y008692D03*
D16*
X018592Y003154D03*
X018592Y002446D03*
X017687Y002446D03*
X017687Y003154D03*
M02*
