G75*
%MOIN*%
%OFA0B0*%
%FSLAX24Y24*%
%IPPOS*%
%LPD*%
%AMOC8*
5,1,8,0,0,1.08239X$1,22.5*
%
%ADD10C,0.0039*%
%ADD11C,0.0040*%
%ADD12C,0.0060*%
%ADD13C,0.0020*%
%ADD14C,0.0070*%
%ADD15C,0.0100*%
%ADD16C,0.0010*%
%ADD17R,0.0167X0.0128*%
%ADD18R,0.0138X0.0138*%
%ADD19C,0.0050*%
D10*
X011639Y008800D02*
X011696Y008798D01*
X011753Y008793D01*
X011810Y008783D01*
X011865Y008770D01*
X011920Y008754D01*
X011974Y008733D01*
X012026Y008710D01*
X012077Y008683D01*
X012125Y008653D01*
X012172Y008619D01*
X012216Y008583D01*
X012258Y008544D01*
X012297Y008502D01*
X012333Y008458D01*
X012367Y008411D01*
X012397Y008363D01*
X012424Y008312D01*
X012447Y008260D01*
X012468Y008206D01*
X012484Y008151D01*
X012497Y008096D01*
X012507Y008039D01*
X012512Y007982D01*
X012514Y007925D01*
X012514Y001050D01*
X012516Y000993D01*
X012521Y000936D01*
X012531Y000879D01*
X012544Y000824D01*
X012560Y000769D01*
X012581Y000715D01*
X012604Y000663D01*
X012631Y000613D01*
X012661Y000564D01*
X012695Y000517D01*
X012731Y000473D01*
X012770Y000431D01*
X012812Y000392D01*
X012856Y000356D01*
X012903Y000322D01*
X012952Y000292D01*
X013002Y000265D01*
X013054Y000242D01*
X013108Y000221D01*
X013163Y000205D01*
X013218Y000192D01*
X013275Y000182D01*
X013332Y000177D01*
X013389Y000175D01*
X021014Y000175D01*
X022264Y001300D02*
X022264Y015925D01*
X000139Y015925D01*
X000139Y009300D01*
X000141Y009256D01*
X000147Y009213D01*
X000156Y009171D01*
X000169Y009129D01*
X000186Y009089D01*
X000206Y009050D01*
X000229Y009013D01*
X000256Y008979D01*
X000285Y008946D01*
X000318Y008917D01*
X000352Y008890D01*
X000389Y008867D01*
X000428Y008847D01*
X000468Y008830D01*
X000510Y008817D01*
X000552Y008808D01*
X000595Y008802D01*
X000639Y008800D01*
X011639Y008800D01*
X021015Y000176D02*
X021081Y000174D01*
X021148Y000176D01*
X021214Y000182D01*
X021280Y000192D01*
X021346Y000205D01*
X021410Y000222D01*
X021474Y000242D01*
X021536Y000266D01*
X021597Y000294D01*
X021656Y000324D01*
X021713Y000358D01*
X021768Y000396D01*
X021822Y000436D01*
X021872Y000479D01*
X021921Y000525D01*
X021966Y000574D01*
X022009Y000625D01*
X022049Y000678D01*
X022086Y000734D01*
X022120Y000792D01*
X022150Y000851D01*
X022177Y000912D01*
X022201Y000974D01*
X022221Y001038D01*
X022237Y001103D01*
X022250Y001168D01*
X022259Y001234D01*
X022264Y001301D01*
D11*
X021494Y000578D02*
X021494Y000445D01*
X021494Y000512D02*
X021294Y000512D01*
X021361Y000445D01*
D12*
X021764Y000675D02*
X020264Y000675D01*
X020014Y000925D01*
X020014Y001425D01*
X020264Y001675D01*
X021764Y001675D01*
X022014Y001925D01*
X022014Y002425D01*
X021764Y002675D01*
X022014Y002925D01*
X022014Y003425D01*
X021764Y003675D01*
X020264Y003675D01*
X020014Y003425D01*
X020014Y002925D01*
X020264Y002675D01*
X021764Y002675D01*
X021764Y001675D02*
X022014Y001425D01*
X022014Y000925D01*
X021764Y000675D01*
X020264Y001675D02*
X020014Y001925D01*
X020014Y002425D01*
X020264Y002675D01*
X018639Y008675D02*
X018639Y011725D01*
X019039Y011725D01*
X019039Y013625D01*
X018639Y013625D01*
X018639Y014025D01*
X019699Y014025D01*
X019699Y014375D01*
X020999Y014375D01*
X020999Y014025D01*
X022039Y014025D01*
X022039Y008675D01*
X018639Y008675D01*
X003639Y008675D01*
X003639Y011725D01*
X003239Y011725D01*
X003239Y013625D01*
X003639Y013625D01*
X003639Y014025D01*
X002579Y014025D01*
X002579Y014375D01*
X001279Y014375D01*
X001279Y014025D01*
X000239Y014025D01*
X000239Y016125D01*
X000729Y016125D01*
X000729Y016175D01*
X000729Y016125D02*
X003129Y016125D01*
X003129Y016175D01*
X003129Y016125D02*
X004039Y016125D01*
X004039Y018875D01*
X004041Y018901D01*
X004046Y018927D01*
X004054Y018952D01*
X004066Y018975D01*
X004080Y018997D01*
X004098Y019016D01*
X004117Y019034D01*
X004139Y019048D01*
X004162Y019060D01*
X004187Y019068D01*
X004213Y019073D01*
X004239Y019075D01*
X018039Y019075D01*
X018065Y019073D01*
X018091Y019068D01*
X018116Y019060D01*
X018139Y019048D01*
X018161Y019034D01*
X018180Y019016D01*
X018198Y018997D01*
X018212Y018975D01*
X018224Y018952D01*
X018232Y018927D01*
X018237Y018901D01*
X018239Y018875D01*
X018239Y016125D01*
X019149Y016125D01*
X019149Y016175D01*
X019149Y016125D02*
X021549Y016125D01*
X021549Y016175D01*
X021549Y016125D02*
X022039Y016125D01*
X022039Y014025D01*
X020999Y014025D02*
X019699Y014025D01*
X018639Y014025D02*
X018639Y015275D01*
X022039Y015275D01*
X021549Y016175D02*
X021547Y016192D01*
X021543Y016209D01*
X021536Y016225D01*
X021526Y016239D01*
X021513Y016252D01*
X021499Y016262D01*
X021483Y016269D01*
X021466Y016273D01*
X021449Y016275D01*
X019249Y016275D01*
X019232Y016273D01*
X019215Y016269D01*
X019199Y016262D01*
X019185Y016252D01*
X019172Y016239D01*
X019162Y016225D01*
X019155Y016209D01*
X019151Y016192D01*
X019149Y016175D01*
X018239Y016125D02*
X004039Y016125D01*
X003639Y015275D02*
X003639Y014025D01*
X003639Y013625D02*
X003639Y011725D01*
X003639Y010075D02*
X018639Y010075D01*
X018639Y011725D02*
X018639Y013625D01*
X003639Y015275D02*
X000239Y015275D01*
X000729Y016175D02*
X000731Y016192D01*
X000735Y016209D01*
X000742Y016225D01*
X000752Y016239D01*
X000765Y016252D01*
X000779Y016262D01*
X000795Y016269D01*
X000812Y016273D01*
X000829Y016275D01*
X003029Y016275D01*
X003046Y016273D01*
X003063Y016269D01*
X003079Y016262D01*
X003093Y016252D01*
X003106Y016239D01*
X003116Y016225D01*
X003123Y016209D01*
X003127Y016192D01*
X003129Y016175D01*
X002579Y014025D02*
X001279Y014025D01*
X000239Y014025D02*
X000239Y008675D01*
X003639Y008675D01*
D13*
X011139Y014875D02*
X011139Y015925D01*
X011289Y015525D01*
X010989Y015525D01*
X011139Y015925D01*
X012039Y015925D01*
X011139Y015925D02*
X010239Y015925D01*
X003639Y015275D02*
X018639Y015275D01*
X013802Y005185D02*
X013014Y005185D01*
X013014Y004939D01*
X013014Y004644D01*
X013016Y004617D01*
X013021Y004591D01*
X013030Y004566D01*
X013043Y004542D01*
X013058Y004520D01*
X013077Y004500D01*
X013097Y004483D01*
X013120Y004469D01*
X013145Y004458D01*
X013171Y004451D01*
X013198Y004447D01*
X013224Y004447D01*
X013251Y004451D01*
X013277Y004458D01*
X013302Y004469D01*
X013325Y004483D01*
X013345Y004500D01*
X013364Y004520D01*
X013379Y004542D01*
X013392Y004566D01*
X013401Y004591D01*
X013406Y004617D01*
X013408Y004644D01*
X013211Y004644D02*
X013014Y004939D01*
X013408Y004939D01*
X013211Y004644D01*
X013408Y004939D02*
X013605Y004644D01*
X013408Y004644D02*
X013410Y004617D01*
X013415Y004591D01*
X013424Y004566D01*
X013437Y004542D01*
X013452Y004520D01*
X013471Y004500D01*
X013491Y004483D01*
X013514Y004469D01*
X013539Y004458D01*
X013565Y004451D01*
X013592Y004447D01*
X013618Y004447D01*
X013645Y004451D01*
X013671Y004458D01*
X013696Y004469D01*
X013719Y004483D01*
X013739Y004500D01*
X013758Y004520D01*
X013773Y004542D01*
X013786Y004566D01*
X013795Y004591D01*
X013800Y004617D01*
X013802Y004644D01*
X013802Y004939D01*
X013605Y004644D01*
X013408Y004939D02*
X013802Y004939D01*
X013802Y005185D01*
X013802Y004348D02*
X013014Y004348D01*
X013014Y003659D01*
X013211Y003659D01*
X013211Y004102D01*
X013310Y004102D01*
X013310Y003659D01*
X013506Y003659D01*
X013506Y004102D01*
X013605Y004102D01*
X013605Y003659D01*
X013802Y003659D01*
X013802Y004348D01*
X013802Y003561D02*
X013014Y003561D01*
X013014Y003315D01*
X013310Y003315D01*
X013014Y003118D01*
X013014Y002823D01*
X013310Y003019D01*
X013457Y003167D02*
X013457Y003315D01*
X013605Y003315D01*
X013605Y003167D01*
X013603Y003152D01*
X013599Y003137D01*
X013591Y003124D01*
X013581Y003112D01*
X013568Y003103D01*
X013554Y003097D01*
X013539Y003093D01*
X013523Y003093D01*
X013508Y003097D01*
X013494Y003103D01*
X013481Y003112D01*
X013471Y003124D01*
X013463Y003137D01*
X013459Y003152D01*
X013457Y003167D01*
X013310Y003019D02*
X013312Y002989D01*
X013317Y002960D01*
X013326Y002932D01*
X013338Y002905D01*
X013354Y002879D01*
X013372Y002856D01*
X013393Y002835D01*
X013416Y002817D01*
X013442Y002801D01*
X013469Y002789D01*
X013497Y002780D01*
X013526Y002775D01*
X013556Y002773D01*
X013586Y002775D01*
X013615Y002780D01*
X013643Y002789D01*
X013670Y002801D01*
X013696Y002817D01*
X013719Y002835D01*
X013740Y002856D01*
X013758Y002879D01*
X013774Y002905D01*
X013786Y002932D01*
X013795Y002960D01*
X013800Y002989D01*
X013802Y003019D01*
X013802Y003561D01*
X013014Y002331D02*
X013016Y002271D01*
X013022Y002211D01*
X013032Y002152D01*
X013046Y002093D01*
X013063Y002036D01*
X013064Y002035D02*
X013408Y002035D01*
X013408Y002232D01*
X013605Y002232D02*
X013603Y002259D01*
X013598Y002285D01*
X013589Y002310D01*
X013576Y002334D01*
X013561Y002356D01*
X013542Y002376D01*
X013522Y002393D01*
X013499Y002407D01*
X013474Y002418D01*
X013448Y002425D01*
X013421Y002429D01*
X013395Y002429D01*
X013368Y002425D01*
X013342Y002418D01*
X013317Y002407D01*
X013294Y002393D01*
X013274Y002376D01*
X013255Y002356D01*
X013240Y002334D01*
X013227Y002310D01*
X013218Y002285D01*
X013213Y002259D01*
X013211Y002232D01*
X013408Y002232D01*
X013802Y002331D02*
X013800Y002370D01*
X013794Y002408D01*
X013785Y002445D01*
X013772Y002482D01*
X013755Y002517D01*
X013736Y002550D01*
X013713Y002581D01*
X013687Y002610D01*
X013658Y002636D01*
X013627Y002659D01*
X013594Y002678D01*
X013559Y002695D01*
X013522Y002708D01*
X013485Y002717D01*
X013447Y002723D01*
X013408Y002725D01*
X013369Y002723D01*
X013331Y002717D01*
X013294Y002708D01*
X013257Y002695D01*
X013222Y002678D01*
X013189Y002659D01*
X013158Y002636D01*
X013129Y002610D01*
X013103Y002581D01*
X013080Y002550D01*
X013061Y002517D01*
X013044Y002482D01*
X013031Y002445D01*
X013022Y002408D01*
X013016Y002370D01*
X013014Y002331D01*
X013605Y002232D02*
X013610Y002183D01*
X013612Y002134D01*
X013610Y002085D01*
X013605Y002036D01*
X013605Y002037D02*
X013780Y002037D01*
X013780Y002031D02*
X013791Y002105D01*
X013798Y002180D01*
X013802Y002255D01*
X013801Y002330D01*
D14*
X016674Y010310D02*
X017095Y010310D01*
X016885Y010310D02*
X016885Y010941D01*
X016674Y010730D01*
X016674Y011960D02*
X017095Y011960D01*
X016885Y011960D02*
X016885Y012591D01*
X016674Y012380D01*
X017319Y012485D02*
X017424Y012591D01*
X017634Y012591D01*
X017739Y012485D01*
X017739Y012380D01*
X017634Y012275D01*
X017739Y012170D01*
X017739Y012065D01*
X017634Y011960D01*
X017424Y011960D01*
X017319Y012065D01*
X017529Y012275D02*
X017634Y012275D01*
X005789Y012325D02*
X005369Y012325D01*
X005684Y012641D01*
X005684Y012010D01*
X005145Y012010D02*
X004724Y012010D01*
X005145Y012430D01*
X005145Y012535D01*
X005040Y012641D01*
X004829Y012641D01*
X004724Y012535D01*
X004935Y010941D02*
X004935Y010310D01*
X005145Y010310D02*
X004724Y010310D01*
X004724Y010730D02*
X004935Y010941D01*
X005369Y010835D02*
X005474Y010941D01*
X005684Y010941D01*
X005789Y010835D01*
X005789Y010730D01*
X005369Y010310D01*
X005789Y010310D01*
D15*
X009518Y001352D02*
X012719Y001352D01*
X014268Y001352D02*
X015719Y001352D01*
X015719Y005998D01*
X014268Y005998D01*
X012719Y005998D02*
X009518Y005998D01*
X009518Y001352D01*
D16*
X012716Y002135D02*
X012866Y002135D01*
X012866Y002235D01*
X012791Y002185D02*
X012791Y002135D01*
X012716Y002135D02*
X012716Y002235D01*
X012716Y002430D02*
X012866Y002430D01*
X012866Y002530D01*
X012866Y002725D02*
X012716Y002725D01*
X012716Y002825D01*
X012791Y002775D02*
X012791Y002725D01*
X012866Y002725D02*
X012866Y002825D01*
X012841Y003019D02*
X012741Y003019D01*
X012716Y003044D01*
X012716Y003094D01*
X012741Y003119D01*
X012841Y003119D02*
X012866Y003094D01*
X012866Y003044D01*
X012841Y003019D01*
X012716Y003314D02*
X012716Y003414D01*
X012716Y003364D02*
X012866Y003364D01*
X012866Y003609D02*
X012716Y003609D01*
X012716Y003684D01*
X012741Y003709D01*
X012791Y003709D01*
X012816Y003684D01*
X012816Y003609D01*
X012816Y003659D02*
X012866Y003709D01*
X012841Y003903D02*
X012741Y003903D01*
X012716Y003928D01*
X012716Y003978D01*
X012741Y004003D01*
X012841Y004003D01*
X012866Y003978D01*
X012866Y003928D01*
X012841Y003903D01*
X012866Y004198D02*
X012716Y004198D01*
X012866Y004298D01*
X012716Y004298D01*
X012716Y004492D02*
X012716Y004543D01*
X012716Y004517D02*
X012866Y004517D01*
X012866Y004492D02*
X012866Y004543D01*
X012841Y004738D02*
X012741Y004738D01*
X012716Y004763D01*
X012716Y004813D01*
X012741Y004838D01*
X012841Y004838D02*
X012866Y004813D01*
X012866Y004763D01*
X012841Y004738D01*
X012841Y005033D02*
X012866Y005058D01*
X012866Y005108D01*
X012841Y005133D01*
X012816Y005133D01*
X012791Y005108D01*
X012791Y005058D01*
X012766Y005033D01*
X012741Y005033D01*
X012716Y005058D01*
X012716Y005108D01*
X012741Y005133D01*
D17*
X018111Y001071D03*
X018111Y000529D03*
D18*
X017958Y000800D03*
D19*
X019264Y000425D02*
X019264Y001425D01*
X019764Y001425D01*
X019764Y000425D01*
X019264Y000425D01*
M02*
