%
M48
M72
T01C0.0118
T02C0.0138
T03C0.0315
T04C0.0320
T05C0.0374
T06C0.0400
T07C0.0906
T08C0.1300
%
T01
X13139Y8175
X14514Y9238
X14889Y8050
X17389Y6863
X17389Y6425
X17264Y5800
X17327Y4925
X17014Y4800
X16702Y4425
X17639Y4675
X18014Y4675
X18389Y4675
X19327Y3613
X20389Y4738
X20389Y5175
X19952Y5738
X19139Y5925
X20389Y6738
X21577Y7300
X21889Y7300
X19952Y8175
X19014Y8050
X18389Y8238
X17452Y9238
X16264Y11425
X12014Y9550
X15452Y5425
X15452Y5050
X19764Y1925
X20077Y1675
X20077Y613
X21014Y738
X16514Y925
X21389Y4113
T02
X17139Y1925
T03
X19639Y7675
X19639Y6113
X21264Y15050
X15139Y15050
X7389Y15050
X889Y15050
T04
X12414Y10575
X11564Y10575
X10714Y10575
X9864Y10575
X9014Y10575
X8164Y10575
X7314Y10575
X6464Y10575
X6464Y12275
X7314Y12275
X8164Y12275
X9014Y12275
X9864Y12275
X10714Y12275
X11564Y12275
X12414Y12275
X13264Y12275
X14114Y12275
X14964Y12275
X15814Y12275
X15814Y10575
X14964Y10575
X14114Y10575
X13264Y10575
T05
X14581Y3183
X15369Y3183
X15369Y4167
X14581Y4167
T06
X21514Y1175
X20514Y3175
X21514Y3175
X21514Y2175
X20514Y2175
X20514Y1175
T07
X13514Y6045
X13514Y1305
T08
X20349Y11425
X1929Y11425
M30
