<?xml version="1.0" encoding="UTF-8" standalone="no"?>
<svg
   width="923"
   height="209"
   xml:space="preserve"
   overflow="hidden"
   version="1.1"
   id="svg12"
   sodipodi:docname="led_flicker.svg"
   inkscape:version="1.4.2 (f4327f4, 2025-05-13)"
   xmlns:inkscape="http://www.inkscape.org/namespaces/inkscape"
   xmlns:sodipodi="http://sodipodi.sourceforge.net/DTD/sodipodi-0.dtd"
   xmlns="http://www.w3.org/2000/svg"
   xmlns:svg="http://www.w3.org/2000/svg"><defs
     id="defs12" /><sodipodi:namedview
     id="namedview12"
     pagecolor="#ffffff"
     bordercolor="#000000"
     borderopacity="0.25"
     inkscape:showpageshadow="2"
     inkscape:pageopacity="0.0"
     inkscape:pagecheckerboard="0"
     inkscape:deskcolor="#d1d1d1"
     inkscape:zoom="1.8508884"
     inkscape:cx="360.90777"
     inkscape:cy="106.16523"
     inkscape:window-width="2560"
     inkscape:window-height="1369"
     inkscape:window-x="-8"
     inkscape:window-y="-8"
     inkscape:window-maximized="1"
     inkscape:current-layer="g12" /><g
     id="g12"><path
       d="M63.9999 49.9998 78.8958 66.0801"
       stroke="#EE0000"
       stroke-width="10.3125"
       stroke-miterlimit="8"
       fill="none"
       fill-rule="evenodd"
       id="path1" /><path
       d="M124 114 138.896 130.042"
       stroke="#EE0000"
       stroke-width="10.3125"
       stroke-miterlimit="8"
       fill="none"
       fill-rule="evenodd"
       id="path2" /><path
       d="M81.0001 92.0001C81.0001 79.8499 90.8499 70.0001 103 70.0001 115.15 70.0001 125 79.8499 125 92.0001 125 104.15 115.15 114 103 114 90.8499 114 81.0001 104.15 81.0001 92.0001Z"
       fill="#EE0000"
       fill-rule="evenodd"
       id="path3" /><path
       d="M0 0 14.8731 16.0341"
       stroke="#EE0000"
       stroke-width="10.3125"
       stroke-miterlimit="8"
       fill="none"
       fill-rule="evenodd"
       transform="matrix(-1 0 0 1 137.873 52.9999)"
       id="path4" /><path
       d="M0 0 14.8731 15.9955"
       stroke="#EE0000"
       stroke-width="10.3125"
       stroke-miterlimit="8"
       fill="none"
       fill-rule="evenodd"
       transform="matrix(-1 0 0 1 77.873 116)"
       id="path5" /><path
       d="M0 0 14.8731 15.9879"
       stroke="#EE0000"
       stroke-width="10.3125"
       stroke-miterlimit="8"
       fill="none"
       fill-rule="evenodd"
       transform="matrix(-0.690059 -0.723753 -0.723753 0.690059 156.803 91.885)"
       id="path6" /><path
       d="M0 0 14.8731 15.9496"
       stroke="#EE0000"
       stroke-width="10.3125"
       stroke-miterlimit="8"
       fill="none"
       fill-rule="evenodd"
       transform="matrix(-0.690059 -0.723753 -0.723753 0.690059 69.6683 92.2894)"
       id="path7" /><path
       d="M0 0 14.8731 15.9413"
       stroke="#EE0000"
       stroke-width="10.3125"
       stroke-miterlimit="8"
       fill="none"
       fill-rule="evenodd"
       transform="matrix(0.723753 -0.690059 -0.690059 -0.723753 103.781 147.875)"
       id="path8" /><path
       d="M0 0 14.8731 15.9031"
       stroke="#EE0000"
       stroke-width="10.3125"
       stroke-miterlimit="8"
       fill="none"
       fill-rule="evenodd"
       transform="matrix(0.723753 -0.690059 -0.690059 -0.723753 103.504 60.8735)"
       id="path9" /><path
       d="M256.5 92.5C256.5 80.3497 266.35 70.5 278.5 70.5 290.65 70.5 300.5 80.3497 300.5 92.5 300.5 104.65 290.65 114.5 278.5 114.5 266.35 114.5 256.5 104.65 256.5 92.5Z"
       stroke="#000000"
       stroke-width="4.58333"
       stroke-miterlimit="8"
       fill-rule="evenodd"
       id="path10" /><path
       d="M176 85.8438 206.49 85.844 206.49 96.1565 176 96.1563ZM201.334 75.5315 232.271 91.0005 201.334 106.469Z"
       id="path11" /><text
       fill="#595959"
       font-family="Calibri, Calibri_MSFontService, sans-serif"
       font-weight="400"
       font-size="32"
       id="text11"
       style="font-size:42.6667px"
       x="230.10254"
       y="180.54028">short</text><text
       fill="#595959"
       font-family="Calibri, Calibri_MSFontService, sans-serif"
       font-weight="400"
       font-size="32"
       id="text12"
       style="font-size:42.6667px"
       x="63.180725"
       y="178">long</text></g></svg>
