<?xml version="1.0" encoding="UTF-8" standalone="no"?>
<svg
   width="923"
   height="176"
   xml:space="preserve"
   overflow="hidden"
   version="1.1"
   id="svg9"
   sodipodi:docname="led_continouson.svg"
   inkscape:version="1.4.2 (f4327f4, 2025-05-13)"
   xmlns:inkscape="http://www.inkscape.org/namespaces/inkscape"
   xmlns:sodipodi="http://sodipodi.sourceforge.net/DTD/sodipodi-0.dtd"
   xmlns="http://www.w3.org/2000/svg"
   xmlns:svg="http://www.w3.org/2000/svg"><defs
     id="defs9" /><sodipodi:namedview
     id="namedview9"
     pagecolor="#ffffff"
     bordercolor="#000000"
     borderopacity="0.25"
     inkscape:showpageshadow="2"
     inkscape:pageopacity="0.0"
     inkscape:pagecheckerboard="0"
     inkscape:deskcolor="#d1d1d1"
     showgrid="true"
     inkscape:zoom="2.6175515"
     inkscape:cx="461.5"
     inkscape:cy="88.059396"
     inkscape:window-width="2560"
     inkscape:window-height="1369"
     inkscape:window-x="-8"
     inkscape:window-y="-8"
     inkscape:window-maximized="1"
     inkscape:current-layer="svg9"><inkscape:grid
       id="grid9"
       units="px"
       originx="0"
       originy="0"
       spacingx="1"
       spacingy="1"
       empcolor="#0099e5"
       empopacity="0.30196078"
       color="#0099e5"
       opacity="0.14901961"
       empspacing="5"
       enabled="true"
       visible="true" /></sodipodi:namedview><g
     id="g9"><path
       d="M63.9999 49.9998 78.8958 66.0801"
       stroke="#EE0000"
       stroke-width="10.3125"
       stroke-miterlimit="8"
       fill="none"
       fill-rule="evenodd"
       id="path1" /><path
       d="M124 114 138.896 130.042"
       stroke="#EE0000"
       stroke-width="10.3125"
       stroke-miterlimit="8"
       fill="none"
       fill-rule="evenodd"
       id="path2" /><path
       d="M81.0001 92.0001C81.0001 79.8499 90.8499 70.0001 103 70.0001 115.15 70.0001 125 79.8499 125 92.0001 125 104.15 115.15 114 103 114 90.8499 114 81.0001 104.15 81.0001 92.0001Z"
       fill="#EE0000"
       fill-rule="evenodd"
       id="path3" /><path
       d="M0 0 14.8731 16.0341"
       stroke="#EE0000"
       stroke-width="10.3125"
       stroke-miterlimit="8"
       fill="none"
       fill-rule="evenodd"
       transform="matrix(-1 0 0 1 137.873 52.9999)"
       id="path4" /><path
       d="M0 0 14.8731 15.9955"
       stroke="#EE0000"
       stroke-width="10.3125"
       stroke-miterlimit="8"
       fill="none"
       fill-rule="evenodd"
       transform="matrix(-1 0 0 1 77.873 116)"
       id="path5" /><path
       d="M0 0 14.8731 15.9879"
       stroke="#EE0000"
       stroke-width="10.3125"
       stroke-miterlimit="8"
       fill="none"
       fill-rule="evenodd"
       transform="matrix(-0.690059 -0.723753 -0.723753 0.690059 156.803 91.885)"
       id="path6" /><path
       d="M0 0 14.8731 15.9496"
       stroke="#EE0000"
       stroke-width="10.3125"
       stroke-miterlimit="8"
       fill="none"
       fill-rule="evenodd"
       transform="matrix(-0.690059 -0.723753 -0.723753 0.690059 69.6683 92.2894)"
       id="path7" /><path
       d="M0 0 14.8731 15.9413"
       stroke="#EE0000"
       stroke-width="10.3125"
       stroke-miterlimit="8"
       fill="none"
       fill-rule="evenodd"
       transform="matrix(0.723753 -0.690059 -0.690059 -0.723753 103.781 147.875)"
       id="path8" /><path
       d="M0 0 14.8731 15.9031"
       stroke="#EE0000"
       stroke-width="10.3125"
       stroke-miterlimit="8"
       fill="none"
       fill-rule="evenodd"
       transform="matrix(0.723753 -0.690059 -0.690059 -0.723753 103.504 60.8735)"
       id="path9" /></g></svg>
