<?xml version="1.0" encoding="UTF-8" standalone="no"?>
<svg
   width="923"
   height="176"
   xml:space="preserve"
   overflow="hidden"
   version="1.1"
   id="svg23"
   sodipodi:docname="led_blink_contious.svg"
   inkscape:version="1.4.2 (f4327f4, 2025-05-13)"
   xmlns:inkscape="http://www.inkscape.org/namespaces/inkscape"
   xmlns:sodipodi="http://sodipodi.sourceforge.net/DTD/sodipodi-0.dtd"
   xmlns="http://www.w3.org/2000/svg"
   xmlns:svg="http://www.w3.org/2000/svg"><defs
     id="defs23" /><sodipodi:namedview
     id="namedview23"
     pagecolor="#ffffff"
     bordercolor="#000000"
     borderopacity="0.25"
     inkscape:showpageshadow="2"
     inkscape:pageopacity="0.0"
     inkscape:pagecheckerboard="0"
     inkscape:deskcolor="#d1d1d1"
     showgrid="true"
     inkscape:zoom="1.8508884"
     inkscape:cx="397.91702"
     inkscape:cy="141.28351"
     inkscape:window-width="1127"
     inkscape:window-height="1211"
     inkscape:window-x="278"
     inkscape:window-y="58"
     inkscape:window-maximized="0"
     inkscape:current-layer="g23"><inkscape:grid
       id="grid23"
       units="px"
       originx="0"
       originy="0"
       spacingx="1"
       spacingy="1"
       empcolor="#0099e5"
       empopacity="0.30196078"
       color="#0099e5"
       opacity="0.14901961"
       empspacing="5"
       enabled="true"
       visible="true" /><inkscape:grid
       id="grid24"
       units="px"
       originx="0"
       originy="0"
       spacingx="1"
       spacingy="1"
       empcolor="#0099e5"
       empopacity="0.30196078"
       color="#0099e5"
       opacity="0.14901961"
       empspacing="5"
       enabled="true"
       visible="true" /></sodipodi:namedview><g
     id="g23"><path
       d="M63.9999 49.9998 78.8958 66.0801"
       stroke="#EE0000"
       stroke-width="10.3125"
       stroke-miterlimit="8"
       fill="none"
       fill-rule="evenodd"
       id="path1" /><path
       d="M124 114 138.896 130.042"
       stroke="#EE0000"
       stroke-width="10.3125"
       stroke-miterlimit="8"
       fill="none"
       fill-rule="evenodd"
       id="path2" /><path
       d="M81.0001 92.0001C81.0001 79.8499 90.8499 70.0001 103 70.0001 115.15 70.0001 125 79.8499 125 92.0001 125 104.15 115.15 114 103 114 90.8499 114 81.0001 104.15 81.0001 92.0001Z"
       fill="#EE0000"
       fill-rule="evenodd"
       id="path3" /><path
       d="M0 0 14.8731 16.0341"
       stroke="#EE0000"
       stroke-width="10.3125"
       stroke-miterlimit="8"
       fill="none"
       fill-rule="evenodd"
       transform="matrix(-1 0 0 1 137.873 52.9999)"
       id="path4" /><path
       d="M0 0 14.8731 15.9955"
       stroke="#EE0000"
       stroke-width="10.3125"
       stroke-miterlimit="8"
       fill="none"
       fill-rule="evenodd"
       transform="matrix(-1 0 0 1 77.873 116)"
       id="path5" /><path
       d="M0 0 14.8731 15.9879"
       stroke="#EE0000"
       stroke-width="10.3125"
       stroke-miterlimit="8"
       fill="none"
       fill-rule="evenodd"
       transform="matrix(-0.690059 -0.723753 -0.723753 0.690059 156.803 91.885)"
       id="path6" /><path
       d="M0 0 14.8731 15.9496"
       stroke="#EE0000"
       stroke-width="10.3125"
       stroke-miterlimit="8"
       fill="none"
       fill-rule="evenodd"
       transform="matrix(-0.690059 -0.723753 -0.723753 0.690059 69.6683 92.2894)"
       id="path7" /><path
       d="M0 0 14.8731 15.9413"
       stroke="#EE0000"
       stroke-width="10.3125"
       stroke-miterlimit="8"
       fill="none"
       fill-rule="evenodd"
       transform="matrix(0.723753 -0.690059 -0.690059 -0.723753 103.781 147.875)"
       id="path8" /><path
       d="M0 0 14.8731 15.9031"
       stroke="#EE0000"
       stroke-width="10.3125"
       stroke-miterlimit="8"
       fill="none"
       fill-rule="evenodd"
       transform="matrix(0.723753 -0.690059 -0.690059 -0.723753 103.504 60.8735)"
       id="path9" /><path
       d="M256.5 92.5C256.5 80.3497 266.35 70.5 278.5 70.5 290.65 70.5 300.5 80.3497 300.5 92.5 300.5 104.65 290.65 114.5 278.5 114.5 266.35 114.5 256.5 104.65 256.5 92.5Z"
       stroke="#000000"
       stroke-width="4.58333"
       stroke-miterlimit="8"
       fill-rule="evenodd"
       id="path10" /><path
       d="M176 85.8438 206.49 85.844 206.49 96.1565 176 96.1563ZM201.334 75.5315 232.271 91.0005 201.334 106.469Z"
       id="path11" /><path
       d="M424 90.0001C424 77.8498 433.85 68.0001 446 68.0001 458.15 68.0001 468 77.8498 468 90.0001 468 102.15 458.15 112 446 112 433.85 112 424 102.15 424 90.0001Z"
       fill="#EE0000"
       fill-rule="evenodd"
       id="path12" /><path
       d="M0 0 14.8731 15.9846"
       stroke="#EE0000"
       stroke-width="10.3125"
       stroke-miterlimit="8"
       fill="none"
       fill-rule="evenodd"
       transform="matrix(-1 0 0 1 479.873 49.9998)"
       id="path13" /><path
       d="M0 0 14.8731 15.946"
       stroke="#EE0000"
       stroke-width="10.3125"
       stroke-miterlimit="8"
       fill="none"
       fill-rule="evenodd"
       transform="matrix(-1 0 0 1 420.873 114)"
       id="path14" /><path
       d="M0 0 14.8273 15.9879"
       stroke="#EE0000"
       stroke-width="10.3125"
       stroke-miterlimit="8"
       fill="none"
       fill-rule="evenodd"
       transform="matrix(-0.690059 -0.723753 -0.723753 0.690059 499.241 89.5067)"
       id="path15" /><path
       d="M0 0 14.8273 15.9493"
       stroke="#EE0000"
       stroke-width="10.3125"
       stroke-miterlimit="8"
       fill="none"
       fill-rule="evenodd"
       transform="matrix(-0.690059 -0.723753 -0.723753 0.690059 412.234 90.0446)"
       id="path16" /><path
       d="M0 0 14.8731 15.8923"
       stroke="#EE0000"
       stroke-width="10.3125"
       stroke-miterlimit="8"
       fill="none"
       fill-rule="evenodd"
       transform="matrix(0.723753 -0.690059 -0.690059 -0.723753 446.215 145.488)"
       id="path17" /><path
       d="M0 0 14.8731 15.854"
       stroke="#EE0000"
       stroke-width="10.3125"
       stroke-miterlimit="8"
       fill="none"
       fill-rule="evenodd"
       transform="matrix(0.723753 -0.690059 -0.690059 -0.723753 446.072 58.6279)"
       id="path18" /><path
       d="M599.5 89.9999C599.5 78.1258 609.35 68.4999 621.5 68.4999 633.65 68.4999 643.5 78.1258 643.5 89.9999 643.5 101.874 633.65 111.5 621.5 111.5 609.35 111.5 599.5 101.874 599.5 89.9999Z"
       stroke="#000000"
       stroke-width="4.58333"
       stroke-miterlimit="8"
       fill-rule="evenodd"
       id="path19" /><path
       d="M519 82.8438 549.365 82.8439 549.365 93.1564 519 93.1562ZM544.208 72.5314 575.146 88.0004 544.208 103.469Z"
       id="path20" /><path
       d="M408 49.9998 422.873 66.0339"
       stroke="#EE0000"
       stroke-width="10.3125"
       stroke-miterlimit="8"
       fill="none"
       fill-rule="evenodd"
       id="path21" /><path
       d="M468 113 482.873 128.996"
       stroke="#EE0000"
       stroke-width="10.3125"
       stroke-miterlimit="8"
       fill="none"
       fill-rule="evenodd"
       id="path22" /><path
       d="M321 85.8438 351.365 85.844 351.365 96.1565 321 96.1563ZM346.208 75.5315 377.146 91.0005 346.208 106.469Z"
       id="path23" /></g></svg>
