%TF.GenerationSoftware,KiCad,Pcbnew,(6.0.0-rc1-415-g653c7b78d7)*%
%TF.CreationDate,2021-12-23T14:01:08-08:00*%
%TF.ProjectId,xyp-gpib,7879702d-6770-4696-922e-6b696361645f,rev?*%
%TF.SameCoordinates,Original*%
%TF.FileFunction,Copper,L2,Bot*%
%TF.FilePolarity,Positive*%
%FSLAX46Y46*%
G04 Gerber Fmt 4.6, Leading zero omitted, Abs format (unit mm)*
G04 Created by KiCad (PCBNEW (6.0.0-rc1-415-g653c7b78d7)) date 2021-12-23 14:01:08*
%MOMM*%
%LPD*%
G01*
G04 APERTURE LIST*
G04 Aperture macros list*
%AMRoundRect*
0 Rectangle with rounded corners*
0 $1 Rounding radius*
0 $2 $3 $4 $5 $6 $7 $8 $9 X,Y pos of 4 corners*
0 Add a 4 corners polygon primitive as box body*
4,1,4,$2,$3,$4,$5,$6,$7,$8,$9,$2,$3,0*
0 Add four circle primitives for the rounded corners*
1,1,$1+$1,$2,$3*
1,1,$1+$1,$4,$5*
1,1,$1+$1,$6,$7*
1,1,$1+$1,$8,$9*
0 Add four rect primitives between the rounded corners*
20,1,$1+$1,$2,$3,$4,$5,0*
20,1,$1+$1,$4,$5,$6,$7,0*
20,1,$1+$1,$6,$7,$8,$9,0*
20,1,$1+$1,$8,$9,$2,$3,0*%
G04 Aperture macros list end*
%TA.AperFunction,ComponentPad*%
%ADD10R,1.600000X1.600000*%
%TD*%
%TA.AperFunction,ComponentPad*%
%ADD11C,1.600000*%
%TD*%
%TA.AperFunction,ComponentPad*%
%ADD12C,4.000000*%
%TD*%
%TA.AperFunction,ComponentPad*%
%ADD13R,1.500000X1.500000*%
%TD*%
%TA.AperFunction,ComponentPad*%
%ADD14C,1.500000*%
%TD*%
%TA.AperFunction,ComponentPad*%
%ADD15C,4.650000*%
%TD*%
%TA.AperFunction,ComponentPad*%
%ADD16RoundRect,0.250000X-0.600000X0.600000X-0.600000X-0.600000X0.600000X-0.600000X0.600000X0.600000X0*%
%TD*%
%TA.AperFunction,ComponentPad*%
%ADD17C,1.700000*%
%TD*%
%TA.AperFunction,SMDPad,CuDef*%
%ADD18RoundRect,0.250000X-0.250000X-0.475000X0.250000X-0.475000X0.250000X0.475000X-0.250000X0.475000X0*%
%TD*%
%TA.AperFunction,SMDPad,CuDef*%
%ADD19RoundRect,0.225000X0.250000X-0.225000X0.250000X0.225000X-0.250000X0.225000X-0.250000X-0.225000X0*%
%TD*%
%TA.AperFunction,SMDPad,CuDef*%
%ADD20RoundRect,0.225000X-0.250000X0.225000X-0.250000X-0.225000X0.250000X-0.225000X0.250000X0.225000X0*%
%TD*%
%TA.AperFunction,SMDPad,CuDef*%
%ADD21RoundRect,0.243750X-0.243750X-0.456250X0.243750X-0.456250X0.243750X0.456250X-0.243750X0.456250X0*%
%TD*%
%TA.AperFunction,SMDPad,CuDef*%
%ADD22RoundRect,0.200000X-0.200000X-0.275000X0.200000X-0.275000X0.200000X0.275000X-0.200000X0.275000X0*%
%TD*%
%TA.AperFunction,SMDPad,CuDef*%
%ADD23RoundRect,0.200000X-0.275000X0.200000X-0.275000X-0.200000X0.275000X-0.200000X0.275000X0.200000X0*%
%TD*%
%TA.AperFunction,SMDPad,CuDef*%
%ADD24RoundRect,0.200000X0.200000X0.275000X-0.200000X0.275000X-0.200000X-0.275000X0.200000X-0.275000X0*%
%TD*%
%TA.AperFunction,SMDPad,CuDef*%
%ADD25RoundRect,0.062500X0.062500X-0.475000X0.062500X0.475000X-0.062500X0.475000X-0.062500X-0.475000X0*%
%TD*%
%TA.AperFunction,SMDPad,CuDef*%
%ADD26RoundRect,0.062500X0.475000X-0.062500X0.475000X0.062500X-0.475000X0.062500X-0.475000X-0.062500X0*%
%TD*%
%TA.AperFunction,SMDPad,CuDef*%
%ADD27R,5.200000X5.200000*%
%TD*%
%TA.AperFunction,SMDPad,CuDef*%
%ADD28RoundRect,0.225000X-0.225000X-0.250000X0.225000X-0.250000X0.225000X0.250000X-0.225000X0.250000X0*%
%TD*%
%TA.AperFunction,SMDPad,CuDef*%
%ADD29RoundRect,0.225000X0.225000X0.250000X-0.225000X0.250000X-0.225000X-0.250000X0.225000X-0.250000X0*%
%TD*%
%TA.AperFunction,SMDPad,CuDef*%
%ADD30R,1.200000X1.400000*%
%TD*%
%TA.AperFunction,ViaPad*%
%ADD31C,0.800000*%
%TD*%
%TA.AperFunction,Conductor*%
%ADD32C,0.250000*%
%TD*%
%TA.AperFunction,Conductor*%
%ADD33C,0.200000*%
%TD*%
G04 APERTURE END LIST*
D10*
%TO.P,J1,1*%
%TO.N,+5V*%
X215172000Y-125298000D03*
D11*
%TO.P,J1,2*%
%TO.N,/USB_N*%
X215172000Y-122798000D03*
%TO.P,J1,3*%
%TO.N,/USB_P*%
X213172000Y-122798000D03*
%TO.P,J1,4*%
%TO.N,GND*%
X213172000Y-125298000D03*
D12*
%TO.P,J1,5*%
X210312000Y-118048000D03*
X210312000Y-130048000D03*
%TD*%
D13*
%TO.P,GPIB1,1*%
%TO.N,/DIO5*%
X215874000Y-102249000D03*
D14*
%TO.P,GPIB1,2*%
%TO.N,/DIO1*%
X215874000Y-106539000D03*
%TO.P,GPIB1,3*%
%TO.N,/DIO6*%
X213714000Y-102249000D03*
%TO.P,GPIB1,4*%
%TO.N,/DIO2*%
X213714000Y-106539000D03*
%TO.P,GPIB1,5*%
%TO.N,/DIO7*%
X211554000Y-102249000D03*
%TO.P,GPIB1,6*%
%TO.N,/DIO3*%
X211554000Y-106539000D03*
%TO.P,GPIB1,7*%
%TO.N,/DIO8*%
X209394000Y-102249000D03*
%TO.P,GPIB1,8*%
%TO.N,/DIO4*%
X209394000Y-106539000D03*
%TO.P,GPIB1,9*%
%TO.N,/REN*%
X207234000Y-102249000D03*
%TO.P,GPIB1,10*%
%TO.N,/EOI*%
X207234000Y-106539000D03*
%TO.P,GPIB1,11*%
%TO.N,GND*%
X205074000Y-102249000D03*
%TO.P,GPIB1,12*%
%TO.N,/DAV*%
X205074000Y-106539000D03*
%TO.P,GPIB1,13*%
%TO.N,GND*%
X202914000Y-102249000D03*
%TO.P,GPIB1,14*%
%TO.N,/NRFD*%
X202914000Y-106539000D03*
%TO.P,GPIB1,15*%
%TO.N,GND*%
X200754000Y-102249000D03*
%TO.P,GPIB1,16*%
%TO.N,/NDAC*%
X200754000Y-106539000D03*
%TO.P,GPIB1,17*%
%TO.N,GND*%
X198594000Y-102249000D03*
%TO.P,GPIB1,18*%
%TO.N,/IFC*%
X198594000Y-106539000D03*
%TO.P,GPIB1,19*%
%TO.N,GND*%
X196434000Y-102249000D03*
%TO.P,GPIB1,20*%
%TO.N,/SRQ*%
X196434000Y-106539000D03*
%TO.P,GPIB1,21*%
%TO.N,GND*%
X194274000Y-102249000D03*
%TO.P,GPIB1,22*%
%TO.N,/ATN*%
X194274000Y-106539000D03*
%TO.P,GPIB1,23*%
%TO.N,GND*%
X192114000Y-102249000D03*
%TO.P,GPIB1,24*%
X192114000Y-106539000D03*
D15*
%TO.P,GPIB1,MH1*%
%TO.N,Net-(GPIB1-PadMH1)*%
X227394000Y-104394000D03*
%TO.P,GPIB1,MH2*%
%TO.N,GND*%
X180594000Y-104394000D03*
%TD*%
D16*
%TO.P,ISP1,1*%
%TO.N,/MISO*%
X227584000Y-126111000D03*
D17*
%TO.P,ISP1,2*%
%TO.N,+5V*%
X227584000Y-128651000D03*
%TO.P,ISP1,3*%
%TO.N,/SCK*%
X225044000Y-126111000D03*
%TO.P,ISP1,4*%
%TO.N,/MOSI*%
X225044000Y-128651000D03*
%TO.P,ISP1,5*%
%TO.N,Net-(ISP1-Pad5)*%
X222504000Y-126111000D03*
%TO.P,ISP1,6*%
%TO.N,GND*%
X222504000Y-128651000D03*
%TD*%
D18*
%TO.P,C1,1*%
%TO.N,+5V*%
X217236000Y-120650000D03*
%TO.P,C1,2*%
%TO.N,GND*%
X219136000Y-120650000D03*
%TD*%
D19*
%TO.P,C2,1*%
%TO.N,+5V*%
X219583000Y-107823000D03*
%TO.P,C2,2*%
%TO.N,GND*%
X219583000Y-106273000D03*
%TD*%
D20*
%TO.P,C7,1*%
%TO.N,Net-(C7-Pad1)*%
X221996000Y-119621000D03*
%TO.P,C7,2*%
%TO.N,GND*%
X221996000Y-121171000D03*
%TD*%
D21*
%TO.P,D1,1*%
%TO.N,Net-(D1-Pad1)*%
X219359000Y-131572000D03*
%TO.P,D1,2*%
%TO.N,Net-(D1-Pad2)*%
X221234000Y-131572000D03*
%TD*%
D22*
%TO.P,R1,1*%
%TO.N,+5V*%
X217679000Y-126238000D03*
%TO.P,R1,2*%
%TO.N,Net-(ISP1-Pad5)*%
X219329000Y-126238000D03*
%TD*%
D23*
%TO.P,R2,1*%
%TO.N,Net-(R2-Pad1)*%
X225044000Y-119571000D03*
%TO.P,R2,2*%
%TO.N,/USB_N*%
X225044000Y-121221000D03*
%TD*%
%TO.P,R3,1*%
%TO.N,Net-(R3-Pad1)*%
X223520000Y-119571000D03*
%TO.P,R3,2*%
%TO.N,/USB_P*%
X223520000Y-121221000D03*
%TD*%
D24*
%TO.P,R4,1*%
%TO.N,Net-(D1-Pad1)*%
X216662000Y-131572000D03*
%TO.P,R4,2*%
%TO.N,GND*%
X215012000Y-131572000D03*
%TD*%
%TO.P,R5,1*%
%TO.N,/ATN*%
X193865000Y-108966000D03*
%TO.P,R5,2*%
%TO.N,GND*%
X192215000Y-108966000D03*
%TD*%
D25*
%TO.P,U1,1*%
%TO.N,Net-(U1-Pad1)*%
X225527000Y-116860500D03*
%TO.P,U1,2*%
%TO.N,+5V*%
X225027000Y-116860500D03*
%TO.P,U1,3*%
%TO.N,Net-(R2-Pad1)*%
X224527000Y-116860500D03*
%TO.P,U1,4*%
%TO.N,Net-(R3-Pad1)*%
X224027000Y-116860500D03*
%TO.P,U1,5*%
%TO.N,GND*%
X223527000Y-116860500D03*
%TO.P,U1,6*%
%TO.N,Net-(C7-Pad1)*%
X223027000Y-116860500D03*
%TO.P,U1,7*%
%TO.N,+5V*%
X222527000Y-116860500D03*
%TO.P,U1,8*%
%TO.N,Net-(U1-Pad8)*%
X222027000Y-116860500D03*
%TO.P,U1,9*%
%TO.N,/SCK*%
X221527000Y-116860500D03*
%TO.P,U1,10*%
%TO.N,/MOSI*%
X221027000Y-116860500D03*
%TO.P,U1,11*%
%TO.N,/MISO*%
X220527000Y-116860500D03*
D26*
%TO.P,U1,12*%
%TO.N,Net-(U1-Pad12)*%
X219689500Y-116023000D03*
%TO.P,U1,13*%
%TO.N,Net-(ISP1-Pad5)*%
X219689500Y-115523000D03*
%TO.P,U1,14*%
%TO.N,+5V*%
X219689500Y-115023000D03*
%TO.P,U1,15*%
%TO.N,GND*%
X219689500Y-114523000D03*
%TO.P,U1,16*%
%TO.N,Net-(C5-Pad1)*%
X219689500Y-114023000D03*
%TO.P,U1,17*%
%TO.N,Net-(C6-Pad1)*%
X219689500Y-113523000D03*
%TO.P,U1,18*%
%TO.N,/DIO1*%
X219689500Y-113023000D03*
%TO.P,U1,19*%
%TO.N,/DIO2*%
X219689500Y-112523000D03*
%TO.P,U1,20*%
%TO.N,/DIO3*%
X219689500Y-112023000D03*
%TO.P,U1,21*%
%TO.N,/DIO4*%
X219689500Y-111523000D03*
%TO.P,U1,22*%
%TO.N,/DIO6*%
X219689500Y-111023000D03*
D25*
%TO.P,U1,23*%
%TO.N,GND*%
X220527000Y-110185500D03*
%TO.P,U1,24*%
%TO.N,+5V*%
X221027000Y-110185500D03*
%TO.P,U1,25*%
%TO.N,/DIO5*%
X221527000Y-110185500D03*
%TO.P,U1,26*%
%TO.N,/DIO7*%
X222027000Y-110185500D03*
%TO.P,U1,27*%
%TO.N,/DIO8*%
X222527000Y-110185500D03*
%TO.P,U1,28*%
%TO.N,/EOI*%
X223027000Y-110185500D03*
%TO.P,U1,29*%
%TO.N,/REN*%
X223527000Y-110185500D03*
%TO.P,U1,30*%
%TO.N,/DAV*%
X224027000Y-110185500D03*
%TO.P,U1,31*%
%TO.N,/NRFD*%
X224527000Y-110185500D03*
%TO.P,U1,32*%
%TO.N,/NDAC*%
X225027000Y-110185500D03*
%TO.P,U1,33*%
%TO.N,/IFC*%
X225527000Y-110185500D03*
D26*
%TO.P,U1,34*%
%TO.N,+5V*%
X226364500Y-111023000D03*
%TO.P,U1,35*%
%TO.N,GND*%
X226364500Y-111523000D03*
%TO.P,U1,36*%
%TO.N,/SRQ*%
X226364500Y-112023000D03*
%TO.P,U1,37*%
%TO.N,/ATN*%
X226364500Y-112523000D03*
%TO.P,U1,38*%
%TO.N,Net-(D1-Pad2)*%
X226364500Y-113023000D03*
%TO.P,U1,39*%
%TO.N,Net-(U1-Pad39)*%
X226364500Y-113523000D03*
%TO.P,U1,40*%
%TO.N,Net-(U1-Pad40)*%
X226364500Y-114023000D03*
%TO.P,U1,41*%
%TO.N,Net-(U1-Pad41)*%
X226364500Y-114523000D03*
%TO.P,U1,42*%
%TO.N,Net-(U1-Pad42)*%
X226364500Y-115023000D03*
%TO.P,U1,43*%
%TO.N,GND*%
X226364500Y-115523000D03*
%TO.P,U1,44*%
%TO.N,+5V*%
X226364500Y-116023000D03*
D27*
%TO.P,U1,45*%
%TO.N,GND*%
X223027000Y-113523000D03*
%TD*%
D28*
%TO.P,C5,1*%
%TO.N,Net-(C5-Pad1)*%
X214998000Y-116967000D03*
%TO.P,C5,2*%
%TO.N,GND*%
X216548000Y-116967000D03*
%TD*%
D29*
%TO.P,C6,1*%
%TO.N,Net-(C6-Pad1)*%
X216421000Y-111252000D03*
%TO.P,C6,2*%
%TO.N,GND*%
X214871000Y-111252000D03*
%TD*%
D30*
%TO.P,Y1,1*%
%TO.N,Net-(C6-Pad1)*%
X216539000Y-112985000D03*
%TO.P,Y1,2*%
%TO.N,GND*%
X216539000Y-115185000D03*
%TO.P,Y1,3*%
%TO.N,Net-(C5-Pad1)*%
X214839000Y-115185000D03*
%TO.P,Y1,4*%
%TO.N,GND*%
X214839000Y-112985000D03*
%TD*%
D19*
%TO.P,C3,1*%
%TO.N,+5V*%
X228092000Y-116853000D03*
%TO.P,C3,2*%
%TO.N,GND*%
X228092000Y-115303000D03*
%TD*%
D20*
%TO.P,C4,1*%
%TO.N,+5V*%
X228092000Y-109461000D03*
%TO.P,C4,2*%
%TO.N,GND*%
X228092000Y-111011000D03*
%TD*%
D31*
%TO.N,GND*%
X229235000Y-110490000D03*
X220599000Y-121285000D03*
X227965000Y-114300000D03*
X219679685Y-109092016D03*
X217741500Y-114871500D03*
X214884000Y-109982000D03*
X213614000Y-130429000D03*
%TO.N,+5V*%
X220715697Y-108722303D03*
X216027000Y-120650000D03*
X229235000Y-109347000D03*
X217734554Y-115957925D03*
X228092000Y-118110000D03*
%TO.N,Net-(D1-Pad2)*%
X222758000Y-131572000D03*
%TO.N,Net-(D1-Pad1)*%
X218059000Y-131572000D03*
%TO.N,Net-(ISP1-Pad5)*%
X218567000Y-124968000D03*
X218440000Y-117221000D03*
%TD*%
D32*
%TO.N,GND*%
X217741500Y-114871500D02*
X218090000Y-114523000D01*
X223527000Y-114023000D02*
X223027000Y-113523000D01*
X227580000Y-111523000D02*
X228092000Y-111011000D01*
X218782990Y-108673990D02*
X218782990Y-106591010D01*
X225027000Y-115523000D02*
X223027000Y-113523000D01*
X220552010Y-111048010D02*
X223027000Y-113523000D01*
X220527000Y-110185500D02*
X219679685Y-109338185D01*
X192114000Y-108865000D02*
X192215000Y-108966000D01*
X227999000Y-115523000D02*
X228219000Y-115303000D01*
X221882000Y-121285000D02*
X221996000Y-121171000D01*
X217428000Y-115185000D02*
X217741500Y-114871500D01*
X226364500Y-111523000D02*
X227580000Y-111523000D01*
X216539000Y-115185000D02*
X217428000Y-115185000D01*
X226364500Y-115523000D02*
X225027000Y-115523000D01*
X222027000Y-114523000D02*
X223027000Y-113523000D01*
X212791000Y-125298000D02*
X212791000Y-125112998D01*
X215012000Y-131572000D02*
X214757000Y-131572000D01*
X219136000Y-120650000D02*
X219964000Y-120650000D01*
X218782990Y-106591010D02*
X219036990Y-106337010D01*
X216548000Y-115194000D02*
X216539000Y-115185000D01*
X225027000Y-111523000D02*
X223027000Y-113523000D01*
X218090000Y-114523000D02*
X219689500Y-114523000D01*
X214871000Y-112953000D02*
X214839000Y-112985000D01*
X214871000Y-111252000D02*
X214871000Y-109995000D01*
X219964000Y-120650000D02*
X220599000Y-121285000D01*
X228219000Y-114554000D02*
X227965000Y-114300000D01*
X214871000Y-109995000D02*
X214884000Y-109982000D01*
X220552010Y-110210510D02*
X220552010Y-111048010D01*
X228092000Y-111011000D02*
X228714000Y-111011000D01*
X219689500Y-114523000D02*
X222027000Y-114523000D01*
X219518990Y-106337010D02*
X219583000Y-106273000D01*
X223527000Y-116860500D02*
X223527000Y-114023000D01*
X228092000Y-111011000D02*
X227978000Y-111011000D01*
X220527000Y-110185500D02*
X220552010Y-110210510D01*
X228714000Y-111011000D02*
X229235000Y-110490000D01*
X219679685Y-109092016D02*
X219201016Y-109092016D01*
X219036990Y-106337010D02*
X219518990Y-106337010D01*
X216548000Y-116967000D02*
X216548000Y-115194000D01*
X226364500Y-115523000D02*
X227999000Y-115523000D01*
X226364500Y-111523000D02*
X225027000Y-111523000D01*
X214757000Y-131572000D02*
X213614000Y-130429000D01*
X228219000Y-115303000D02*
X228219000Y-114554000D01*
X219679685Y-109338185D02*
X219679685Y-109092016D01*
X216539000Y-115185000D02*
X217047000Y-115185000D01*
X214871000Y-111252000D02*
X214871000Y-112953000D01*
X192114000Y-106539000D02*
X192114000Y-108865000D01*
X219201016Y-109092016D02*
X218782990Y-108673990D01*
X220599000Y-121285000D02*
X221882000Y-121285000D01*
%TO.N,+5V*%
X223933000Y-124238000D02*
X227724190Y-124238000D01*
X227389000Y-116023000D02*
X228219000Y-116853000D01*
X218286010Y-119599990D02*
X220373032Y-119599990D01*
X215824000Y-125298000D02*
X216884000Y-124238000D01*
X229235000Y-109448000D02*
X229235000Y-109347000D01*
X220527022Y-119446000D02*
X220723011Y-119250011D01*
X228092000Y-109461000D02*
X229248000Y-109461000D01*
X213654998Y-120650000D02*
X212046999Y-122257999D01*
X226364500Y-116023000D02*
X227389000Y-116023000D01*
X221027000Y-110185500D02*
X221027000Y-109033606D01*
X221027000Y-109033606D02*
X220715697Y-108722303D01*
X218669479Y-115023000D02*
X219689500Y-115023000D01*
X220373032Y-119599990D02*
X220723011Y-119250011D01*
X216884000Y-124238000D02*
X223933000Y-124238000D01*
X226530000Y-111023000D02*
X228092000Y-109461000D01*
X225027000Y-117489000D02*
X225027000Y-116860500D01*
X223933000Y-124238000D02*
X228092000Y-120079000D01*
X228092000Y-118110000D02*
X228092000Y-116980000D01*
X228092000Y-116980000D02*
X228219000Y-116853000D01*
X217236000Y-120650000D02*
X218286010Y-119599990D01*
X220723011Y-119250011D02*
X222527000Y-117446022D01*
X217236000Y-120650000D02*
X216027000Y-120650000D01*
X219583000Y-107823000D02*
X220482303Y-108722303D01*
X228092000Y-120079000D02*
X227617000Y-120079000D01*
X228092000Y-120079000D02*
X228092000Y-118110000D01*
X216112000Y-126238000D02*
X215172000Y-125298000D01*
X215172000Y-125298000D02*
X215824000Y-125298000D01*
X212787998Y-124079000D02*
X213953000Y-124079000D01*
X229248000Y-109461000D02*
X229235000Y-109448000D01*
X217679000Y-126238000D02*
X216112000Y-126238000D01*
X228759010Y-127475990D02*
X227584000Y-128651000D01*
X228759010Y-125272820D02*
X228759010Y-127475990D01*
X227724190Y-124238000D02*
X228759010Y-125272820D01*
X227617000Y-120079000D02*
X225027000Y-117489000D01*
X220482303Y-108722303D02*
X220715697Y-108722303D01*
X212046999Y-123338001D02*
X212787998Y-124079000D01*
X213953000Y-124079000D02*
X215172000Y-125298000D01*
X212046999Y-122257999D02*
X212046999Y-123338001D01*
X216027000Y-120650000D02*
X213654998Y-120650000D01*
X217734554Y-115957925D02*
X218669479Y-115023000D01*
X222527000Y-117446022D02*
X222527000Y-116860500D01*
X226364500Y-111023000D02*
X226530000Y-111023000D01*
%TO.N,Net-(C7-Pad1)*%
X221996000Y-118842000D02*
X222997000Y-117841000D01*
X223027000Y-117841000D02*
X223027000Y-116860500D01*
X221996000Y-119621000D02*
X221996000Y-118842000D01*
X223027000Y-117841000D02*
X222997000Y-117841000D01*
%TO.N,Net-(D1-Pad2)*%
X228346000Y-131572000D02*
X221234000Y-131572000D01*
X226364500Y-113023000D02*
X227958000Y-113023000D01*
X229616000Y-114681000D02*
X229616000Y-130302000D01*
X227958000Y-113023000D02*
X229616000Y-114681000D01*
X229616000Y-130302000D02*
X228346000Y-131572000D01*
%TO.N,Net-(D1-Pad1)*%
X216662000Y-131572000D02*
X219359000Y-131572000D01*
%TO.N,/ATN*%
X193865000Y-106948000D02*
X194274000Y-106539000D01*
X231082011Y-102556600D02*
X225616206Y-97090794D01*
X226364500Y-112523000D02*
X229235410Y-112523000D01*
X195349001Y-105463999D02*
X194274000Y-106539000D01*
X229235410Y-112523000D02*
X231082011Y-110676400D01*
X231082011Y-110676400D02*
X231082011Y-102556600D01*
X200001204Y-97090794D02*
X195349001Y-101742997D01*
X226364500Y-112523000D02*
X227086432Y-112523000D01*
X225616206Y-97090794D02*
X200001204Y-97090794D01*
X195349001Y-101742997D02*
X195349001Y-105463999D01*
X193865000Y-108966000D02*
X193865000Y-106948000D01*
%TO.N,/SRQ*%
X197509001Y-101742997D02*
X197509001Y-105463999D01*
X197509001Y-105463999D02*
X196434000Y-106539000D01*
X201711193Y-97540805D02*
X197509001Y-101742997D01*
X226364500Y-112023000D02*
X229099000Y-112023000D01*
X230632000Y-102870000D02*
X225302805Y-97540805D01*
X230632000Y-110490000D02*
X230632000Y-102870000D01*
X225302805Y-97540805D02*
X201711193Y-97540805D01*
X229099000Y-112023000D02*
X230632000Y-110490000D01*
%TO.N,/IFC*%
X223983098Y-102305810D02*
X219668104Y-97990816D01*
X199678999Y-101732999D02*
X199678999Y-105454001D01*
X199678999Y-105454001D02*
X198594000Y-106539000D01*
X225527000Y-107417000D02*
X223983098Y-105873098D01*
X223983098Y-105873098D02*
X223983098Y-102305810D01*
X203421182Y-97990816D02*
X199678999Y-101732999D01*
X219668104Y-97990816D02*
X203421182Y-97990816D01*
X225527000Y-110185500D02*
X225527000Y-107417000D01*
%TO.N,/NDAC*%
X225027000Y-107553410D02*
X223533087Y-106059498D01*
X219481704Y-98440827D02*
X205131171Y-98440827D01*
X201838999Y-105454001D02*
X200754000Y-106539000D01*
X223533087Y-106059498D02*
X223533087Y-102492210D01*
X223533087Y-102492210D02*
X219481704Y-98440827D01*
X225027000Y-110185500D02*
X225027000Y-107553410D01*
X201838999Y-101732999D02*
X201838999Y-105454001D01*
X205131171Y-98440827D02*
X201838999Y-101732999D01*
%TO.N,/NRFD*%
X206841160Y-98890838D02*
X203989001Y-101742997D01*
X224527000Y-107689821D02*
X223083076Y-106245898D01*
X219295304Y-98890838D02*
X206841160Y-98890838D01*
X224527000Y-110185500D02*
X224527000Y-107689821D01*
X223083076Y-106245898D02*
X223083076Y-102678610D01*
X223083076Y-102678610D02*
X219295304Y-98890838D01*
X203989001Y-105463999D02*
X202914000Y-106539000D01*
X203989001Y-101742997D02*
X203989001Y-105463999D01*
%TO.N,/DAV*%
X222633065Y-102865011D02*
X222633065Y-106432298D01*
X224027000Y-107826232D02*
X224027000Y-110185500D01*
X219108903Y-99340849D02*
X222633065Y-102865011D01*
X208253151Y-99340849D02*
X219108903Y-99340849D01*
X206149001Y-105463999D02*
X206149001Y-101444999D01*
X222633065Y-106432298D02*
X224027000Y-107826232D01*
X206149001Y-101444999D02*
X208253151Y-99340849D01*
X205074000Y-106539000D02*
X206149001Y-105463999D01*
%TO.N,/REN*%
X207234000Y-102249000D02*
X207234000Y-101188340D01*
X207234000Y-101188340D02*
X208631480Y-99790860D01*
X223527000Y-107962643D02*
X223527000Y-110185500D01*
X222183054Y-103051411D02*
X222183054Y-106618698D01*
X218922503Y-99790860D02*
X222183054Y-103051411D01*
X208631480Y-99790860D02*
X218922503Y-99790860D01*
X222183054Y-106618698D02*
X223527000Y-107962643D01*
%TO.N,/EOI*%
X208318999Y-105454001D02*
X207234000Y-106539000D01*
X221733043Y-106805098D02*
X221733043Y-103237810D01*
X223027000Y-110185500D02*
X223027000Y-108099055D01*
X223027000Y-108099055D02*
X221733043Y-106805098D01*
X218736104Y-100240871D02*
X209811127Y-100240871D01*
X209811127Y-100240871D02*
X208318999Y-101732999D01*
X221733043Y-103237810D02*
X218736104Y-100240871D01*
X208318999Y-101732999D02*
X208318999Y-105454001D01*
%TO.N,/DIO8*%
X218549703Y-100690882D02*
X221283032Y-103424211D01*
X209394000Y-102249000D02*
X210952118Y-100690882D01*
X221283032Y-103424211D02*
X221283032Y-106991498D01*
X222527000Y-108235465D02*
X222527000Y-110185500D01*
X221283032Y-106991498D02*
X222527000Y-108235465D01*
X210952118Y-100690882D02*
X218549703Y-100690882D01*
%TO.N,/DIO4*%
X217849023Y-109322438D02*
X218826993Y-110300408D01*
X217849023Y-105650199D02*
X217849023Y-109322438D01*
X209394000Y-106539000D02*
X211793000Y-104140000D01*
X219103978Y-111523000D02*
X219689500Y-111523000D01*
X218826993Y-111246012D02*
X219103978Y-111523000D01*
X218826993Y-110300408D02*
X218826993Y-111246012D01*
X211793000Y-104140000D02*
X216338824Y-104140000D01*
X216338824Y-104140000D02*
X217849023Y-105650199D01*
%TO.N,/DIO7*%
X222027000Y-108371877D02*
X222027000Y-110185500D01*
X218396410Y-101173999D02*
X220833021Y-103610610D01*
X211554000Y-102249000D02*
X212629001Y-101173999D01*
X212629001Y-101173999D02*
X218396410Y-101173999D01*
X220833021Y-103610610D02*
X220833021Y-107177898D01*
X220833021Y-107177898D02*
X222027000Y-108371877D01*
%TO.N,/DIO3*%
X218967567Y-112023000D02*
X219689500Y-112023000D01*
X217399012Y-109508837D02*
X218376982Y-110486807D01*
X218376982Y-110486807D02*
X218376982Y-111432412D01*
X217399012Y-105836599D02*
X217399012Y-109508837D01*
X213191000Y-104902000D02*
X216464413Y-104902000D01*
X216464413Y-104902000D02*
X217399012Y-105836599D01*
X211554000Y-106539000D02*
X213191000Y-104902000D01*
X218376982Y-111432412D02*
X218967567Y-112023000D01*
%TO.N,/DIO6*%
X219689500Y-110526504D02*
X219689500Y-111023000D01*
X218299034Y-109136038D02*
X219689500Y-110526504D01*
X213714000Y-102249000D02*
X215154989Y-103689989D01*
X216594400Y-103689989D02*
X218299034Y-105394623D01*
X215154989Y-103689989D02*
X216594400Y-103689989D01*
X218299034Y-105394623D02*
X218299034Y-109136038D01*
%TO.N,/DIO2*%
X217926971Y-110673208D02*
X217926971Y-111618812D01*
X216949001Y-106079411D02*
X216949001Y-109695238D01*
X213714000Y-106539000D02*
X214789001Y-105463999D01*
X214789001Y-105463999D02*
X216333589Y-105463999D01*
X216333589Y-105463999D02*
X216949001Y-106079411D01*
X218831156Y-112523000D02*
X219689500Y-112523000D01*
X216949001Y-109695238D02*
X217926971Y-110673208D01*
X217926971Y-111618812D02*
X218831156Y-112523000D01*
%TO.N,/DIO5*%
X218835000Y-102249000D02*
X217819000Y-102249000D01*
X221527000Y-110185500D02*
X221527000Y-108508287D01*
X220383010Y-107364298D02*
X220383010Y-103797010D01*
X217819000Y-102249000D02*
X215874000Y-102249000D01*
X221527000Y-108508287D02*
X220383010Y-107364298D01*
X220383010Y-103797010D02*
X218835000Y-102249000D01*
%TO.N,/DIO1*%
X218694748Y-113023000D02*
X217476960Y-111805212D01*
X217476960Y-110859607D02*
X215874000Y-109256647D01*
X217476960Y-111805212D02*
X217476960Y-110859607D01*
X219689500Y-113023000D02*
X218694748Y-113023000D01*
X215874000Y-109256647D02*
X215874000Y-106539000D01*
%TO.N,/MOSI*%
X221027000Y-117446021D02*
X219786002Y-118687019D01*
X223647000Y-130048000D02*
X225044000Y-128651000D01*
X221027000Y-116860500D02*
X221027000Y-117446021D01*
X215620588Y-130048000D02*
X223647000Y-130048000D01*
X219786002Y-118687019D02*
X214177160Y-118687019D01*
X211146977Y-125574389D02*
X215620588Y-130048000D01*
X211146977Y-121717202D02*
X211146977Y-125574389D01*
X214177160Y-118687019D02*
X211146977Y-121717202D01*
%TO.N,Net-(ISP1-Pad5)*%
X219329000Y-125222000D02*
X219329000Y-126238000D01*
X219689500Y-115523000D02*
X219103978Y-115523000D01*
X219329000Y-126238000D02*
X222377000Y-126238000D01*
X218567000Y-124968000D02*
X219075000Y-124968000D01*
X219075000Y-124968000D02*
X219329000Y-125222000D01*
X218440000Y-116186978D02*
X218440000Y-117221000D01*
X222377000Y-126238000D02*
X222504000Y-126111000D01*
X219103978Y-115523000D02*
X218440000Y-116186978D01*
%TO.N,/SCK*%
X223868999Y-127286001D02*
X225044000Y-126111000D01*
X219972402Y-119137030D02*
X214531557Y-119137030D01*
X213494999Y-127286001D02*
X223868999Y-127286001D01*
X221527000Y-117582433D02*
X219972402Y-119137030D01*
X221527000Y-116860500D02*
X221527000Y-117582433D01*
X214531557Y-119137030D02*
X211596988Y-122071599D01*
X211596988Y-122071599D02*
X211596988Y-125387990D01*
X211596988Y-125387990D02*
X213494999Y-127286001D01*
%TO.N,/MISO*%
X210696966Y-125760789D02*
X215483167Y-130546990D01*
X226219001Y-129215001D02*
X226219001Y-127475999D01*
X219150492Y-118237008D02*
X213990760Y-118237008D01*
X215483167Y-130546990D02*
X224887012Y-130546990D01*
X210696966Y-121530802D02*
X210696966Y-125760789D01*
X220527000Y-116860500D02*
X219150492Y-118237008D01*
X226219001Y-127475999D02*
X227584000Y-126111000D01*
X224887012Y-130546990D02*
X226219001Y-129215001D01*
X213990760Y-118237008D02*
X210696966Y-121530802D01*
%TO.N,Net-(R2-Pad1)*%
X224527000Y-117865000D02*
X224527000Y-116860500D01*
X225044000Y-118364000D02*
X225044000Y-119571000D01*
X224527000Y-117865000D02*
X224545000Y-117865000D01*
X224545000Y-117865000D02*
X225044000Y-118364000D01*
%TO.N,Net-(R3-Pad1)*%
X223774000Y-118108000D02*
X223774000Y-118110000D01*
X224027000Y-117855000D02*
X224027000Y-116860500D01*
X223774000Y-118110000D02*
X223520000Y-118364000D01*
X223520000Y-118364000D02*
X223520000Y-119571000D01*
X223774000Y-118108000D02*
X224027000Y-117855000D01*
D33*
%TO.N,/USB_P*%
X213241000Y-122348000D02*
X213612998Y-122348000D01*
X223280603Y-122348000D02*
X223520000Y-122108603D01*
X223520000Y-122108603D02*
X223520000Y-121221000D01*
X214249000Y-121697999D02*
X215884999Y-121697999D01*
X212791000Y-122798000D02*
X213241000Y-122348000D01*
X216615000Y-122348000D02*
X223280603Y-122348000D01*
X213612998Y-122348000D02*
X214262999Y-121697999D01*
X215884999Y-121697999D02*
X216535000Y-122348000D01*
%TO.N,/USB_N*%
X219599709Y-123271279D02*
X219635450Y-123328160D01*
X219570000Y-123141114D02*
X219577521Y-123207870D01*
X218304549Y-122910953D02*
X218340290Y-122967834D01*
X218257046Y-122863450D02*
X218304549Y-122910953D01*
X218370000Y-123141114D02*
X218377521Y-123207870D01*
X220199709Y-122967834D02*
X220235450Y-122910953D01*
X220339834Y-122827709D02*
X220403243Y-122805521D01*
X219082953Y-122863450D02*
X219139834Y-122827709D01*
X219635450Y-123328160D02*
X219682953Y-123375663D01*
X218399709Y-123271279D02*
X218435450Y-123328160D01*
X219570000Y-123098000D02*
X219570000Y-123141114D01*
X219540290Y-122967834D02*
X219562478Y-123031243D01*
X218940290Y-123271279D02*
X218962478Y-123207870D01*
X214791000Y-122798000D02*
X218070000Y-122798000D01*
X219936756Y-123433592D02*
X220000165Y-123411404D01*
X218603243Y-123433592D02*
X218670000Y-123441114D01*
X219562478Y-123031243D02*
X219570000Y-123098000D01*
X219139834Y-122827709D02*
X219203243Y-122805521D01*
X218962478Y-123207870D02*
X218970000Y-123141114D01*
X218200165Y-122827709D02*
X218257046Y-122863450D01*
X219504549Y-122910953D02*
X219540290Y-122967834D01*
X219270000Y-122798000D02*
X219336756Y-122805521D01*
X223467000Y-122798000D02*
X225044000Y-121221000D01*
X218136756Y-122805521D02*
X218200165Y-122827709D01*
X218736756Y-123433592D02*
X218800165Y-123411404D01*
X220057046Y-123375663D02*
X220104549Y-123328160D01*
X218977521Y-123031243D02*
X218999709Y-122967834D01*
X220282953Y-122863450D02*
X220339834Y-122827709D01*
X218362478Y-123031243D02*
X218370000Y-123098000D01*
X219870000Y-123441114D02*
X219936756Y-123433592D01*
X220170000Y-123098000D02*
X220177521Y-123031243D01*
X219336756Y-122805521D02*
X219400165Y-122827709D01*
X220104549Y-123328160D02*
X220140290Y-123271279D01*
X219400165Y-122827709D02*
X219457046Y-122863450D01*
X218800165Y-123411404D02*
X218857046Y-123375663D01*
X219035450Y-122910953D02*
X219082953Y-122863450D01*
X220177521Y-123031243D02*
X220199709Y-122967834D01*
X219739834Y-123411404D02*
X219803243Y-123433592D01*
X218539834Y-123411404D02*
X218603243Y-123433592D01*
X220000165Y-123411404D02*
X220057046Y-123375663D01*
X219203243Y-122805521D02*
X219270000Y-122798000D01*
X219803243Y-123433592D02*
X219870000Y-123441114D01*
X218482953Y-123375663D02*
X218539834Y-123411404D01*
X218435450Y-123328160D02*
X218482953Y-123375663D01*
X218340290Y-122967834D02*
X218362478Y-123031243D01*
X219457046Y-122863450D02*
X219504549Y-122910953D01*
X218670000Y-123441114D02*
X218736756Y-123433592D01*
X218999709Y-122967834D02*
X219035450Y-122910953D01*
X218970000Y-123098000D02*
X218977521Y-123031243D01*
X218070000Y-122798000D02*
X218136756Y-122805521D01*
X220235450Y-122910953D02*
X220282953Y-122863450D01*
X218377521Y-123207870D02*
X218399709Y-123271279D01*
X219682953Y-123375663D02*
X219739834Y-123411404D01*
X220162478Y-123207870D02*
X220170000Y-123141114D01*
X218857046Y-123375663D02*
X218904549Y-123328160D01*
X220403243Y-122805521D02*
X220470000Y-122798000D01*
X218970000Y-123141114D02*
X218970000Y-123098000D01*
X218370000Y-123098000D02*
X218370000Y-123141114D01*
X220140290Y-123271279D02*
X220162478Y-123207870D01*
X220470000Y-122798000D02*
X223467000Y-122798000D01*
X218904549Y-123328160D02*
X218940290Y-123271279D01*
X219577521Y-123207870D02*
X219599709Y-123271279D01*
X220170000Y-123141114D02*
X220170000Y-123098000D01*
D32*
%TO.N,Net-(C5-Pad1)*%
X214998000Y-116967000D02*
X214998000Y-115344000D01*
X215051000Y-114023000D02*
X214839000Y-114235000D01*
X214998000Y-115344000D02*
X214839000Y-115185000D01*
X215051000Y-114023000D02*
X219689500Y-114023000D01*
X214839000Y-114235000D02*
X214839000Y-115185000D01*
%TO.N,Net-(C6-Pad1)*%
X216421000Y-112867000D02*
X216539000Y-112985000D01*
X219689500Y-113523000D02*
X217917000Y-113523000D01*
X216421000Y-111252000D02*
X216421000Y-112867000D01*
X217379000Y-112985000D02*
X216539000Y-112985000D01*
X217917000Y-113523000D02*
X217379000Y-112985000D01*
%TD*%
M02*
