%TF.GenerationSoftware,KiCad,Pcbnew,(6.0.0-rc1-415-g653c7b78d7)*%
%TF.CreationDate,2021-12-23T14:01:08-08:00*%
%TF.ProjectId,xyp-gpib,7879702d-6770-4696-922e-6b696361645f,rev?*%
%TF.SameCoordinates,Original*%
%TF.FileFunction,Soldermask,Bot*%
%TF.FilePolarity,Negative*%
%FSLAX46Y46*%
G04 Gerber Fmt 4.6, Leading zero omitted, Abs format (unit mm)*
G04 Created by KiCad (PCBNEW (6.0.0-rc1-415-g653c7b78d7)) date 2021-12-23 14:01:08*
%MOMM*%
%LPD*%
G01*
G04 APERTURE LIST*
G04 Aperture macros list*
%AMRoundRect*
0 Rectangle with rounded corners*
0 $1 Rounding radius*
0 $2 $3 $4 $5 $6 $7 $8 $9 X,Y pos of 4 corners*
0 Add a 4 corners polygon primitive as box body*
4,1,4,$2,$3,$4,$5,$6,$7,$8,$9,$2,$3,0*
0 Add four circle primitives for the rounded corners*
1,1,$1+$1,$2,$3*
1,1,$1+$1,$4,$5*
1,1,$1+$1,$6,$7*
1,1,$1+$1,$8,$9*
0 Add four rect primitives between the rounded corners*
20,1,$1+$1,$2,$3,$4,$5,0*
20,1,$1+$1,$4,$5,$6,$7,0*
20,1,$1+$1,$6,$7,$8,$9,0*
20,1,$1+$1,$8,$9,$2,$3,0*%
G04 Aperture macros list end*
%ADD10R,1.600000X1.600000*%
%ADD11C,1.600000*%
%ADD12C,4.000000*%
%ADD13R,1.500000X1.500000*%
%ADD14C,1.500000*%
%ADD15C,4.650000*%
%ADD16RoundRect,0.250000X-0.600000X0.600000X-0.600000X-0.600000X0.600000X-0.600000X0.600000X0.600000X0*%
%ADD17C,1.700000*%
%ADD18RoundRect,0.250000X-0.250000X-0.475000X0.250000X-0.475000X0.250000X0.475000X-0.250000X0.475000X0*%
%ADD19RoundRect,0.225000X0.250000X-0.225000X0.250000X0.225000X-0.250000X0.225000X-0.250000X-0.225000X0*%
%ADD20RoundRect,0.225000X-0.250000X0.225000X-0.250000X-0.225000X0.250000X-0.225000X0.250000X0.225000X0*%
%ADD21RoundRect,0.243750X-0.243750X-0.456250X0.243750X-0.456250X0.243750X0.456250X-0.243750X0.456250X0*%
%ADD22RoundRect,0.200000X-0.200000X-0.275000X0.200000X-0.275000X0.200000X0.275000X-0.200000X0.275000X0*%
%ADD23RoundRect,0.200000X-0.275000X0.200000X-0.275000X-0.200000X0.275000X-0.200000X0.275000X0.200000X0*%
%ADD24RoundRect,0.200000X0.200000X0.275000X-0.200000X0.275000X-0.200000X-0.275000X0.200000X-0.275000X0*%
%ADD25RoundRect,0.062500X0.062500X-0.475000X0.062500X0.475000X-0.062500X0.475000X-0.062500X-0.475000X0*%
%ADD26RoundRect,0.062500X0.475000X-0.062500X0.475000X0.062500X-0.475000X0.062500X-0.475000X-0.062500X0*%
%ADD27R,5.200000X5.200000*%
%ADD28RoundRect,0.225000X-0.225000X-0.250000X0.225000X-0.250000X0.225000X0.250000X-0.225000X0.250000X0*%
%ADD29RoundRect,0.225000X0.225000X0.250000X-0.225000X0.250000X-0.225000X-0.250000X0.225000X-0.250000X0*%
%ADD30R,1.200000X1.400000*%
G04 APERTURE END LIST*
D10*
%TO.C,J1*%
X215172000Y-125298000D03*
D11*
X215172000Y-122798000D03*
X213172000Y-122798000D03*
X213172000Y-125298000D03*
D12*
X210312000Y-118048000D03*
X210312000Y-130048000D03*
%TD*%
D13*
%TO.C,GPIB1*%
X215874000Y-102249000D03*
D14*
X215874000Y-106539000D03*
X213714000Y-102249000D03*
X213714000Y-106539000D03*
X211554000Y-102249000D03*
X211554000Y-106539000D03*
X209394000Y-102249000D03*
X209394000Y-106539000D03*
X207234000Y-102249000D03*
X207234000Y-106539000D03*
X205074000Y-102249000D03*
X205074000Y-106539000D03*
X202914000Y-102249000D03*
X202914000Y-106539000D03*
X200754000Y-102249000D03*
X200754000Y-106539000D03*
X198594000Y-102249000D03*
X198594000Y-106539000D03*
X196434000Y-102249000D03*
X196434000Y-106539000D03*
X194274000Y-102249000D03*
X194274000Y-106539000D03*
X192114000Y-102249000D03*
X192114000Y-106539000D03*
D15*
X227394000Y-104394000D03*
X180594000Y-104394000D03*
%TD*%
D16*
%TO.C,ISP1*%
X227584000Y-126111000D03*
D17*
X227584000Y-128651000D03*
X225044000Y-126111000D03*
X225044000Y-128651000D03*
X222504000Y-126111000D03*
X222504000Y-128651000D03*
%TD*%
D18*
%TO.C,C1*%
X217236000Y-120650000D03*
X219136000Y-120650000D03*
%TD*%
D19*
%TO.C,C2*%
X219583000Y-107823000D03*
X219583000Y-106273000D03*
%TD*%
D20*
%TO.C,C7*%
X221996000Y-119621000D03*
X221996000Y-121171000D03*
%TD*%
D21*
%TO.C,D1*%
X219359000Y-131572000D03*
X221234000Y-131572000D03*
%TD*%
D22*
%TO.C,R1*%
X217679000Y-126238000D03*
X219329000Y-126238000D03*
%TD*%
D23*
%TO.C,R2*%
X225044000Y-119571000D03*
X225044000Y-121221000D03*
%TD*%
%TO.C,R3*%
X223520000Y-119571000D03*
X223520000Y-121221000D03*
%TD*%
D24*
%TO.C,R4*%
X216662000Y-131572000D03*
X215012000Y-131572000D03*
%TD*%
%TO.C,R5*%
X193865000Y-108966000D03*
X192215000Y-108966000D03*
%TD*%
D25*
%TO.C,U1*%
X225527000Y-116860500D03*
X225027000Y-116860500D03*
X224527000Y-116860500D03*
X224027000Y-116860500D03*
X223527000Y-116860500D03*
X223027000Y-116860500D03*
X222527000Y-116860500D03*
X222027000Y-116860500D03*
X221527000Y-116860500D03*
X221027000Y-116860500D03*
X220527000Y-116860500D03*
D26*
X219689500Y-116023000D03*
X219689500Y-115523000D03*
X219689500Y-115023000D03*
X219689500Y-114523000D03*
X219689500Y-114023000D03*
X219689500Y-113523000D03*
X219689500Y-113023000D03*
X219689500Y-112523000D03*
X219689500Y-112023000D03*
X219689500Y-111523000D03*
X219689500Y-111023000D03*
D25*
X220527000Y-110185500D03*
X221027000Y-110185500D03*
X221527000Y-110185500D03*
X222027000Y-110185500D03*
X222527000Y-110185500D03*
X223027000Y-110185500D03*
X223527000Y-110185500D03*
X224027000Y-110185500D03*
X224527000Y-110185500D03*
X225027000Y-110185500D03*
X225527000Y-110185500D03*
D26*
X226364500Y-111023000D03*
X226364500Y-111523000D03*
X226364500Y-112023000D03*
X226364500Y-112523000D03*
X226364500Y-113023000D03*
X226364500Y-113523000D03*
X226364500Y-114023000D03*
X226364500Y-114523000D03*
X226364500Y-115023000D03*
X226364500Y-115523000D03*
X226364500Y-116023000D03*
D27*
X223027000Y-113523000D03*
%TD*%
D28*
%TO.C,C5*%
X214998000Y-116967000D03*
X216548000Y-116967000D03*
%TD*%
D29*
%TO.C,C6*%
X216421000Y-111252000D03*
X214871000Y-111252000D03*
%TD*%
D30*
%TO.C,Y1*%
X216539000Y-112985000D03*
X216539000Y-115185000D03*
X214839000Y-115185000D03*
X214839000Y-112985000D03*
%TD*%
D19*
%TO.C,C3*%
X228092000Y-116853000D03*
X228092000Y-115303000D03*
%TD*%
D20*
%TO.C,C4*%
X228092000Y-109461000D03*
X228092000Y-111011000D03*
%TD*%
M02*
